<svg id="b279d468-b33a-4c5f-aa1c-ffddf5d1da78" data-name="Layer 1" xmlns="http://www.w3.org/2000/svg" xmlns:xlink="http://www.w3.org/1999/xlink" viewBox="0 0 156 72">
  <defs>
    <clipPath id="c0b736e7-f526-4b20-b121-33128442006a" transform="translate(53.91 12)">
      <rect x="-48.91" y="-8" width="146" height="65" fill="none"/>
    </clipPath>
    <clipPath id="24e03235-f075-4713-8723-fcb9a468dd72" transform="translate(53.91 12)">
      <polygon points="-48.91 48.2 -31.28 48.2 -31.28 32.63 -16.25 32.63 -16.25 48.2 97.09 48.2 97.09 0 -48.91 0 -48.91 48.2" fill="none" clip-rule="evenodd"/>
    </clipPath>
    <clipPath id="3853b3c7-9c6d-4d95-9e88-b3e771df42cd" transform="translate(53.91 12)">
      <rect x="-48.91" width="146" height="49" fill="none"/>
    </clipPath>
    <clipPath id="a332786f-e6bf-41bc-ae62-771c5e1565e4" transform="translate(53.91 12)">
      <rect x="-48" y="3.64" width="144.71" height="41.26" rx="13" ry="13" fill="none"/>
    </clipPath>
    <clipPath id="60b29ef3-9049-4755-ad31-6aaebb494d23" transform="translate(53.91 12)">
      <path d="M-20.91-7H3.26V17H-20.91ZM47.82-7H72V17H47.82Zm-35,0H37V17H12.87Z" fill="none" clip-rule="evenodd"/>
    </clipPath>
    <clipPath id="28bf2989-02de-43cc-b653-a61b7a0d966e" transform="translate(53.91 12)">
      <rect x="-20.91" y="-7" width="93" height="24" fill="none"/>
    </clipPath>
    <clipPath id="841f3502-04cd-45d9-b7f9-ca07af8dcdeb" transform="translate(53.91 12)">
      <polygon points="-16.92 16.86 65.26 -6.13 71.9 -6.13 71.9 16.86 -16.92 16.86" fill="none" clip-rule="evenodd"/>
    </clipPath>
    <clipPath id="2cceea81-0d6c-422c-a0ef-e92ac2345402" transform="translate(53.91 12)">
      <rect x="12.09" y="-8" width="26" height="26" fill="none"/>
    </clipPath>
    <clipPath id="4ba99322-a179-4cf6-9e26-3c143c85e329" transform="translate(53.91 12)">
      <rect x="47.09" y="-8" width="26" height="26" fill="none"/>
    </clipPath>
    <clipPath id="a74915d5-08dd-4a07-9e41-99935a4da061" transform="translate(53.91 12)">
      <rect x="-21.91" y="-8" width="26" height="26" fill="none"/>
    </clipPath>
    <clipPath id="eabddd7e-f3f1-4e37-8abf-edc8cce29181" transform="translate(53.91 12)">
      <rect x="-21.91" y="31" width="95" height="26" fill="none"/>
    </clipPath>
    <clipPath id="05bd1f33-a2c4-494a-a958-b3e4854f92bb" transform="translate(53.91 12)">
      <circle cx="-29.41" cy="43.5" r="4.5" fill="none"/>
    </clipPath>
  </defs>
  <title>Untitled-3</title>
  <g style="isolation: isolate">
    <g clip-path="url(#c0b736e7-f526-4b20-b121-33128442006a)">
      <g clip-path="url(#24e03235-f075-4713-8723-fcb9a468dd72)">
        <g clip-path="url(#c0b736e7-f526-4b20-b121-33128442006a)">
          <g style="isolation: isolate">
            <g clip-path="url(#3853b3c7-9c6d-4d95-9e88-b3e771df42cd)">
              <g clip-path="url(#3853b3c7-9c6d-4d95-9e88-b3e771df42cd)">
                <rect y="7" width="156" height="58.2" fill="#fff"/>
              </g>
              <g clip-path="url(#a332786f-e6bf-41bc-ae62-771c5e1565e4)">
                <g clip-path="url(#3853b3c7-9c6d-4d95-9e88-b3e771df42cd)">
                  <rect x="5.91" y="15.64" width="144.71" height="41.26" rx="13" ry="13" fill="none" stroke="#3cc3f2" stroke-miterlimit="10" stroke-width="6"/>
                </g>
              </g>
            </g>
          </g>
        </g>
      </g>
      <g clip-path="url(#60b29ef3-9049-4755-ad31-6aaebb494d23)">
        <g clip-path="url(#c0b736e7-f526-4b20-b121-33128442006a)">
          <g style="isolation: isolate">
            <g clip-path="url(#28bf2989-02de-43cc-b653-a61b7a0d966e)">
              <g clip-path="url(#28bf2989-02de-43cc-b653-a61b7a0d966e)">
                <rect x="28" width="102.89" height="34" fill="#fff"/>
              </g>
              <g clip-path="url(#841f3502-04cd-45d9-b7f9-ca07af8dcdeb)">
                <g clip-path="url(#28bf2989-02de-43cc-b653-a61b7a0d966e)">
                  <rect x="31.99" y="0.87" width="98.82" height="32.99" fill="#3cc3f2"/>
                </g>
              </g>
            </g>
          </g>
        </g>
      </g>
      <g clip-path="url(#2cceea81-0d6c-422c-a0ef-e92ac2345402)">
        <g clip-path="url(#c0b736e7-f526-4b20-b121-33128442006a)">
          <rect x="66" y="4" width="26" height="26" fill="none" stroke="#3cc3f2" stroke-miterlimit="10" stroke-width="6"/>
        </g>
      </g>
      <g clip-path="url(#4ba99322-a179-4cf6-9e26-3c143c85e329)">
        <g clip-path="url(#c0b736e7-f526-4b20-b121-33128442006a)">
          <rect x="101" y="4" width="26" height="26" fill="none" stroke="#3cc3f2" stroke-miterlimit="10" stroke-width="6"/>
        </g>
      </g>
      <g clip-path="url(#a74915d5-08dd-4a07-9e41-99935a4da061)">
        <g clip-path="url(#c0b736e7-f526-4b20-b121-33128442006a)">
          <rect x="32" y="4" width="26" height="26" fill="none" stroke="#3cc3f2" stroke-miterlimit="10" stroke-width="6"/>
        </g>
      </g>
      <g clip-path="url(#eabddd7e-f3f1-4e37-8abf-edc8cce29181)">
        <g clip-path="url(#c0b736e7-f526-4b20-b121-33128442006a)">
          <rect x="32" y="43" width="95" height="26" fill="#fff"/>
        </g>
      </g>
      <g clip-path="url(#eabddd7e-f3f1-4e37-8abf-edc8cce29181)">
        <g clip-path="url(#c0b736e7-f526-4b20-b121-33128442006a)">
          <rect x="32" y="43" width="95" height="26" fill="none" stroke="#3cc3f2" stroke-miterlimit="10" stroke-width="6"/>
        </g>
      </g>
      <g clip-path="url(#05bd1f33-a2c4-494a-a958-b3e4854f92bb)">
        <g clip-path="url(#c0b736e7-f526-4b20-b121-33128442006a)">
          <rect x="15" y="46" width="19" height="19" fill="#3cc3f2"/>
        </g>
      </g>
    </g>
  </g>
</svg>
