<svg width="162px" height="70px" viewBox="0 0 162 70" version="1.1" xmlns="http://www.w3.org/2000/svg" xmlns:xlink="http://www.w3.org/1999/xlink">
    <!-- Generator: Sketch 3.8.3 (29802) - http://www.bohemiancoding.com/sketch -->
    <defs>
        <circle id="path-1" cx="45.5" cy="57.5" r="7.5"></circle>
        <mask id="mask-2" maskContentUnits="userSpaceOnUse" maskUnits="objectBoundingBox" x="-3" y="-3" width="21" height="21">
            <rect x="35" y="47" width="21" height="21" fill="white"></rect>
            <use xlink:href="#path-1" fill="black"></use>
        </mask>
        <circle id="path-3" cx="103.5" cy="12.5" r="6.5"></circle>
        <mask id="mask-4" maskContentUnits="userSpaceOnUse" maskUnits="objectBoundingBox" x="-3" y="-3" width="19" height="19">
            <rect x="94" y="3" width="19" height="19" fill="white"></rect>
            <use xlink:href="#path-3" fill="black"></use>
        </mask>
        <rect id="path-5" x="28" y="22" width="104" height="26" rx="13"></rect>
        <mask id="mask-6" maskContentUnits="userSpaceOnUse" maskUnits="objectBoundingBox" x="0" y="0" width="104" height="26" fill="white">
            <use xlink:href="#path-5"></use>
        </mask>
        <rect id="path-7" x="0" y="0" width="162" height="70" rx="35"></rect>
        <mask id="mask-8" maskContentUnits="userSpaceOnUse" maskUnits="objectBoundingBox" x="0" y="0" width="162" height="70" fill="white">
            <use xlink:href="#path-7"></use>
        </mask>
    </defs>
    <g id="Page-1" stroke="none" stroke-width="1" fill="none" fill-rule="evenodd">
        <g id="Clearhead-Home-Photography-1" transform="translate(-221.000000, -1610.000000)">
            <g id="accelerator_graphic" transform="translate(221.000000, 1610.000000)">
                <path d="M144.300225,24.3051473 C146.0259,27.6603945 147,31.4661349 147,35.5 C147,49.0309764 136.031233,60 122.508919,60 L46.4910813,60 L46.4910813,56 L84.5,56 L123.000278,56 C135.704313,56 146,45.7025492 146,33 C146,29.9229947 145.39604,26.9873812 144.300225,24.3051473 Z" id="Combined-Shape" fill="#32C4F5"></path>
                <g id="Oval-117-Copy">
                    <use fill="#32C4F5" fill-rule="evenodd" xlink:href="#path-1"></use>
                    <use stroke="#FFFFFF" mask="url(#mask-2)" stroke-width="6" xlink:href="#path-1"></use>
                </g>
                <polygon id="Path-169" fill="#FFFFFF" transform="translate(45.584322, 57.504860) rotate(22.000000) translate(-45.584322, -57.504860) " points="42.3143225 58.2760039 45.3565488 58.6508608 45.2474236 62.9837585 48.8543225 56.9209391 45.3477668 56.5460822 45.4561048 52.0259625"></polygon>
                <polygon id="Path-61" fill="#32C4F5" points="95 15 95 11 55 13"></polygon>
                <g id="Oval-117">
                    <use fill="#32C4F5" fill-rule="evenodd" xlink:href="#path-3"></use>
                    <use stroke="#FFFFFF" mask="url(#mask-4)" stroke-width="6" xlink:href="#path-3"></use>
                </g>
                <use id="Rectangle-158-Copy" stroke="#32C4F5" mask="url(#mask-6)" stroke-width="6" xlink:href="#path-5"></use>
                <use id="Rectangle-158-Copy" stroke="#32C4F5" mask="url(#mask-8)" stroke-width="6" xlink:href="#path-7"></use>
            </g>
        </g>
    </g>
</svg>
