<?xml version="1.0" encoding="UTF-8"?>
<svg width="92px" height="58px" viewBox="0 0 92 58" version="1.1" xmlns="http://www.w3.org/2000/svg" xmlns:xlink="http://www.w3.org/1999/xlink">
    <!-- Generator: Sketch 46.2 (44496) - http://www.bohemiancoding.com/sketch -->
    <title>adidas-black-vector-logo</title>
    <desc>Created with Sketch.</desc>
    <defs>
        <polygon id="path-1" points="0.0154333644 0.23732903 0.0154333644 30.9034749 14.842781 30.9034749 29.6701286 30.9034749 29.6701286 0.23732903"></polygon>
    </defs>
    <g id="CH.me-Design" stroke="none" stroke-width="1" fill="none" fill-rule="evenodd" opacity="0.5">
        <g id="CH.me-Homepage" transform="translate(-218.000000, -3254.000000)">
            <g id="Group-16" transform="translate(0.000000, 3021.000000)">
                <g id="Group-17" transform="translate(218.000000, 233.000000)">
                    <g id="adidas-black-vector-logo">
                        <path d="M91.5494678,46.575011 L87.5943145,46.575011 C87.4712336,45.9474328 87.2806238,45.5053973 87.0204465,45.2569504 C86.5974355,44.8522185 85.8757684,44.6435134 84.8788894,44.6435134 C83.8967903,44.6435134 83.2153858,44.7993108 82.8341662,45.1130999 C82.5469773,45.3483808 82.39663,45.6741168 82.39663,46.0788487 C82.39663,46.6520564 83.2299108,47.109696 84.8788894,47.4622516 C86.762053,47.8530861 88.1128853,48.1927196 88.9441275,48.4665231 C89.1625133,48.5450314 89.3531231,48.6103736 89.4899646,48.6749844 C91.1687578,49.432272 92,50.5821007 92,52.121301 C92,54.0003785 91.1817539,55.3708592 89.5582579,56.2317679 C89.3531231,56.3370957 89.1625133,56.4280385 88.9441275,56.5194689 C87.8944995,56.9505327 86.667003,57.1714286 85.289414,57.1714286 C83.2299108,57.1714286 81.565133,56.8191168 80.2968644,56.1271715 C79.4990044,55.6831855 78.9027117,55.125582 78.5056929,54.4531419 C78.1084193,53.7809456 77.9099099,52.996107 77.9099099,52.0952128 L82.0556729,52.0952128 C82.0556729,52.7737483 82.3155954,53.3094085 82.8198959,53.6741549 C83.3254706,54.0532862 84.1844888,54.249313 85.3974602,54.249313 C86.3117756,54.249313 86.9929253,54.0657208 87.4439672,53.7007306 C87.7991946,53.4132734 87.9620283,53.0994843 87.9620283,52.734738 C87.9620283,52.121301 87.1453112,51.6392799 85.5202863,51.2994026 C83.0930693,50.8032403 81.565133,50.3985084 80.9380064,50.1108074 C79.2745028,49.3674173 78.4560019,48.219783 78.4560019,46.6259682 C78.4560019,45.3483808 78.8790129,44.2648696 79.7512821,43.3778728 C80.8429564,42.2682735 82.4789388,41.7196911 84.6482719,41.7196911 C86.4346017,41.7196911 87.8669783,41.968138 88.9446371,42.4506467 C89.0396872,42.4891694 89.1222508,42.5291549 89.2043047,42.5820626 C89.981269,42.9853317 90.5676235,43.5214795 90.9603102,44.1878243 C91.3524873,44.8522185 91.5494678,45.6492478 91.5494678,46.575011" id="Fill-1" fill="#2D2E2C"></path>
                        <path d="M90.0104164,36.606776 C90.1059708,36.7063259 90.1527126,36.8169369 90.1527126,36.9397611 C90.1527126,37.1121299 90.0740207,37.2612242 89.9145661,37.3835876 C89.7568865,37.5077945 89.5512817,37.5824569 89.2980476,37.5937485 C89.4083938,37.6301579 89.4870857,37.6684109 89.5512817,37.7165727 L89.9938496,38.1739952 L90.3423423,38.6293436 L89.771974,38.6293436 L89.5021732,38.2599491 C89.3299977,38.0262834 89.1871098,37.852532 89.0596052,37.7665781 C89.0445177,37.7548257 89.0276551,37.7414602 88.9960009,37.7297078 L88.6176289,37.6437538 L88.3321489,37.6437538 L88.3321489,38.6293436 L87.8558559,38.6293436 L87.8558559,36.311583 L88.8850631,36.311583 C88.9492591,36.311583 89.0128634,36.3233354 89.0596052,36.3233354 C89.3125435,36.3233354 89.5021732,36.3484533 89.6296777,36.3848628 C89.7876532,36.4226549 89.9145661,36.4957042 90.0104164,36.606776 Z M89.6296777,36.9775532 C89.6296777,36.9033517 89.614886,36.8418243 89.5663692,36.7922798 C89.5193316,36.7309829 89.4554314,36.69273 89.361652,36.669686 C89.2980476,36.6563205 89.2021973,36.6445681 89.0596052,36.6314331 L88.3321489,36.6314331 L88.3321489,37.3225212 L88.917309,37.3225212 C88.9640508,37.3225212 89.0276551,37.3225212 89.0596052,37.3225212 C89.2663933,37.3107687 89.4083938,37.2858813 89.4870857,37.2243539 C89.5829359,37.1616744 89.6296777,37.0752596 89.6296777,36.9775532 L89.6296777,36.9775532 Z" id="Fill-2" fill="#2D2E2C"></path>
                        <path d="M91.1711712,37.8703196 C91.1711712,38.2565509 91.0691738,38.6430309 90.8402821,39.015326 C90.6263822,39.387621 90.3241381,39.6685843 89.92418,39.866926 C89.5220802,40.0816925 89.1215867,40.1745174 88.6900389,40.1745174 C88.6766534,40.1745174 88.6766534,40.1745174 88.6766534,40.1745174 C88.2472472,40.1745174 87.8456829,40.0816925 87.4451894,39.866926 C87.0425542,39.6680866 86.7424518,39.387621 86.5269456,39.015326 C86.2980539,38.6430309 86.1981982,38.2565509 86.1981982,37.8703196 C86.1981982,37.4564649 86.2980539,37.0707314 86.5269456,36.6969432 C86.7561049,36.3246482 87.058349,36.0456758 87.4588426,35.8448455 C87.8609423,35.6445129 88.2609004,35.551688 88.6766534,35.5389961 C88.6766534,35.5389961 88.6766534,35.5389961 88.6900389,35.5389961 C89.1063273,35.5389961 89.508427,35.6450106 89.9083851,35.8448455 C90.3110203,36.0456758 90.6263822,36.3246482 90.8402821,36.6969432 C91.0691738,37.0707314 91.1711712,37.4564649 91.1711712,37.8703196 Z M90.7554182,37.8703196 C90.7554182,37.5231595 90.6686803,37.2043694 90.4826222,36.8970269 C90.2954932,36.5909287 90.0382243,36.3512762 89.7086738,36.1778206 C89.379391,36.0183011 89.0348488,35.9249785 88.6900389,35.9249785 C88.6766534,35.9249785 88.6766534,35.9249785 88.6766534,35.9249785 C88.3323789,35.9249785 87.9894429,36.0183011 87.6606956,36.1778206 C87.3295388,36.3512762 87.0720022,36.5909287 86.885141,36.8970269 C86.7001536,37.2043694 86.5997626,37.5231595 86.5997626,37.8703196 C86.5997626,38.2030459 86.7001536,38.5215871 86.885141,38.8291785 C87.058349,39.1213405 87.3161534,39.3624861 87.6449007,39.5339509 C87.9744512,39.7079043 88.3189934,39.7882862 88.6766534,39.7882862 C88.6766534,39.7882862 88.6766534,39.7882862 88.6900389,39.7882862 C89.0498405,39.7882862 89.3927765,39.7074065 89.7239332,39.5339509 C90.0526806,39.3624861 90.3110203,39.1213405 90.4826222,38.8291785 C90.6686803,38.5215871 90.7554182,38.2030459 90.7554182,37.8703196 L90.7554182,37.8703196 Z" id="Fill-3" fill="#2D2E2C"></path>
                        <polyline id="Fill-4" fill="#2D2E2C" points="67.3835231 19.4567374 78.7387387 37.0841699 60.4977927 37.0841699 49.655435 20.2427199 41.4414414 7.49897095 49.655435 2.89886707 54.8269024 0 67.3835231 19.4567374"></polyline>
                        <path d="M72.4392301,50.2518008 L72.4392301,48.6393189 C72.0343443,46.6881087 70.1776613,45.2046545 67.9711382,45.2046545 C67.9565289,45.2046545 67.943224,45.2046545 67.9283538,45.2046545 C65.4296451,45.2189909 63.4044336,47.1177151 63.4044336,49.4445879 C63.4044336,51.7734046 65.4296451,53.6723718 67.9283538,53.6983717 C67.943224,53.6983717 67.9565289,53.6983717 67.9711382,53.6983717 C70.1776613,53.6983717 72.0343443,52.203011 72.4392301,50.2518008 Z M76.2522523,49.4445879 L76.2522523,56.7418222 L72.4392301,56.7418222 L72.4392301,55.9350952 C71.154396,56.7158222 69.6180737,57.1714286 67.9711382,57.1714286 C67.9565289,57.1714286 67.943224,57.1714286 67.9283538,57.1714286 C63.3762586,57.1454286 59.6756757,53.6845213 59.6756757,49.4445879 C59.6756757,45.2051404 63.3762586,41.745934 67.9283538,41.7196911 C67.943224,41.7196911 67.9565289,41.7196911 67.9711382,41.7196911 C69.6180737,41.7196911 71.154396,42.1757834 72.4392301,42.9545666 L72.4392301,42.1094472 L76.2522523,42.1094472 L76.2522523,49.4445879 L76.2522523,49.4445879 Z" id="Fill-5" fill="#2D2E2C"></path>
                        <path d="M54.2061412,50.2497913 L54.2061412,48.6368411 C53.8009499,46.6850643 51.9422359,45.2011792 49.7362524,45.2011792 C49.723207,45.2011792 49.7083352,45.2011792 49.6950289,45.2011792 C47.1947403,45.2155198 45.1703493,47.1147955 45.1703493,49.442344 C45.1703493,51.7718369 47.1947403,53.6713557 49.6950289,53.6973632 C49.7083352,53.6973632 49.723207,53.6973632 49.7362524,53.6973632 C51.9422359,53.6973632 53.8009499,52.2015681 54.2061412,50.2497913 Z M58.018018,49.442344 L58.018018,56.7416974 L54.2061412,56.7416974 L54.2061412,55.9347361 C52.9065547,56.7156899 51.3849348,57.1714286 49.7362524,57.1714286 C49.723207,57.1714286 49.7083352,57.1714286 49.6950289,57.1714286 C45.1424321,57.1454211 41.4414414,53.6835087 41.4414414,49.442344 C41.4414414,45.2016654 45.1424321,41.7414544 49.6950289,41.7152038 C49.7083352,41.7152038 49.723207,41.7152038 49.7362524,41.7152038 C51.3851958,41.7152038 52.9065547,42.1714286 54.2061412,42.9504379 L54.2061412,37.0841699 L58.018018,37.0841699 L58.018018,49.442344 L58.018018,49.442344 Z" id="Fill-6" fill="#2D2E2C"></path>
                        <polyline id="Fill-7" fill="#2D2E2C" points="50.21643 30.1334181 54.7027027 37.0841699 36.3372027 37.0841699 26.1390931 21.3509808 25.6936937 20.665607 26.1390931 20.4208996 39.1949433 13.1339768 50.21643 30.1334181"></polyline>
                        <polygon id="Fill-8" fill="#2D2E2C" points="35.6396396 56.3988417 39.7837838 56.3988417 39.7837838 41.7196911 35.6396396 41.7196911"></polygon>
                        <polygon id="Fill-9" fill="#2D2E2C" points="35.6396396 40.1745174 39.7837838 40.1745174 39.7837838 37.0841699 35.6396396 37.0841699"></polygon>
                        <path d="M31.0019914,50.2497913 L31.0019914,48.6368411 C30.5973858,46.6850643 28.7417269,45.2011792 26.5226529,45.2011792 C26.5093572,45.2011792 26.4944973,45.2011792 26.4812017,45.2011792 C23.9829185,45.2155198 21.9604119,47.1147955 21.9604119,49.442344 C21.9604119,51.7718369 23.9829185,53.6713557 26.4812017,53.6973632 C26.4944973,53.6973632 26.5093572,53.6973632 26.5226529,53.6973632 C28.7417269,53.6973632 30.5973858,52.2015681 31.0019914,50.2497913 Z M34.8108108,49.442344 L34.8108108,56.7416974 L31.0019914,56.7416974 L31.0019914,55.9347361 C29.7050115,56.7156899 28.1700129,57.1714286 26.5226529,57.1714286 C26.5093572,57.1714286 26.4944973,57.1714286 26.4812017,57.1714286 C21.9322564,57.1454211 18.2342342,53.6835087 18.2342342,49.442344 C18.2342342,45.2016654 21.9322564,41.7414544 26.4812017,41.7152038 C26.4944973,41.7152038 26.5093572,41.7152038 26.5226529,41.7152038 C28.1700129,41.7152038 29.7050115,42.1714286 31.0019914,42.9504379 L31.0019914,37.0841699 L34.8108108,37.0841699 L34.8108108,49.442344 L34.8108108,49.442344 Z" id="Fill-10" fill="#2D2E2C"></path>
                        <g id="Group-14" transform="translate(0.000000, 26.267954)">
                            <mask id="mask-2" fill="white">
                                <use xlink:href="#path-1"></use>
                            </mask>
                            <g id="Clip-12"></g>
                            <polyline id="Fill-11" fill="#2D2E2C" mask="url(#mask-2)" points="25.9530028 5.13432264 29.6701286 10.9506946 11.5102032 10.9506946 9.4722274 7.75846223 22.8130848 0.23732903 25.9530028 5.13432264"></polyline>
                            <path d="M12.5843653,24.028176 L12.5843653,22.426024 C12.1851556,20.4873138 10.353987,19.0133629 8.16476421,19.0133629 C8.15010252,19.0133629 8.13698416,19.0133629 8.12232246,19.0133629 C5.67176142,19.0276075 3.6762274,20.9141681 3.6762274,23.2261343 C3.6762274,25.540032 5.67176142,27.426834 8.12232246,27.4526674 C8.13698416,27.4526674 8.15010252,27.4526674 8.16476421,27.4526674 C10.353987,27.4526674 12.1851556,25.9668862 12.5843653,24.028176 Z M16.3423896,23.2261343 L16.3423896,30.4766207 L12.5843653,30.4766207 L12.5843653,29.6750618 C11.3028816,30.4507873 9.78835415,30.9034749 8.16476421,30.9034749 C8.15010252,30.9034749 8.13698416,30.9034749 8.12232246,30.9034749 C3.64870457,30.8776415 0,27.4389056 0,23.2261343 C0,19.0138458 3.64870457,15.5768 8.12232246,15.5507251 C8.13698416,15.5507251 8.15010252,15.5507251 8.16476421,15.5507251 C9.78835415,15.5507251 11.3028816,16.0038956 12.5843653,16.7776897 L12.5843653,15.9379843 L16.3423896,15.9379843 L16.3423896,23.2261343 L16.3423896,23.2261343 Z" id="Fill-13" fill="#2D2E2C" mask="url(#mask-2)"></path>
                        </g>
                    </g>
                </g>
            </g>
        </g>
    </g>
</svg>
