<?xml version="1.0" encoding="UTF-8"?>
<svg width="91px" height="47px" viewBox="0 0 91 47" version="1.1" xmlns="http://www.w3.org/2000/svg" xmlns:xlink="http://www.w3.org/1999/xlink">
    <!-- Generator: Sketch 46.2 (44496) - http://www.bohemiancoding.com/sketch -->
    <title>CVS_Pharmacy</title>
    <desc>Created with Sketch.</desc>
    <defs>
        <polygon id="path-1" points="44.6824918 0.13959 0.0292935917 0.13959 0.0292935917 47 44.6824918 47 89.33569 47 89.33569 0.13959"></polygon>
    </defs>
    <g id="CH.me-Design" stroke="none" stroke-width="1" fill="none" fill-rule="evenodd" opacity="0.5">
        <g id="CH.me-Homepage" transform="translate(-447.000000, -3261.000000)">
            <g id="Group-16" transform="translate(0.000000, 3021.000000)">
                <g id="Group-17" transform="translate(218.000000, 233.000000)">
                    <g id="CVS_Pharmacy" transform="translate(229.000000, 7.000000)">
                        <path d="M9.71764937,40.1929081 C9.71764937,41.4234947 9.25709001,42.0003907 8.20999327,42.0003907 C7.28836453,42.0003907 6.78547248,41.3467001 6.78547248,40.1161135 L7.1623865,38.770335 C7.41383253,38.4626883 7.79074655,38.2702336 8.12583791,38.2702336 C9.17293465,38.2702336 9.71764937,38.9239242 9.71764937,40.1929081 Z M12.2310896,37.1932361 C11.5609068,36.2702962 10.5556328,35.8474576 9.29891268,35.8474576 L7.70710122,36.2318989 L6.45038112,37.3088963 L6.45038112,36.0783097 L3.30909091,36.0783097 L3.30909091,47 L6.78547248,47 L6.78547248,43.4618294 C7.41383253,44.11552 8.12583791,44.4231666 9.04746665,44.4231666 C10.2205414,44.4231666 11.1421702,44.11552 11.8959982,43.4618294 C12.8176269,42.6924786 13.2363636,41.6159494 13.2363636,40.1161135 C13.2363636,38.9239242 12.8594496,37.8857923 12.2310896,37.1932361 L12.2310896,37.1932361 Z" id="Fill-1" fill="#2D2E2C"></path>
                        <path d="M23.1636364,38.9291419 C23.1636364,36.5836288 22.0955703,35.4298368 19.9194519,35.4298368 C18.9303948,35.4298368 18.0993556,35.8526754 17.426816,36.6988207 L17.426816,32.6610169 L14.0636364,32.6610169 L14.0636364,43.8135593 L17.426816,43.8135593 L17.426816,39.6984927 C17.426816,38.6214953 17.8223425,38.0450675 18.6138772,38.0450675 C19.4839392,38.0450675 19.8799474,38.5447007 19.8799474,39.5060379 L19.8799474,43.8135593 L23.1636364,43.8135593 L23.1636364,38.9291419" id="Fill-2" fill="#2D2E2C"></path>
                        <path d="M30.846678,40.7594375 C31.0076793,42.1345622 30.5251647,42.7632727 29.4402409,42.7632727 C28.716469,42.7632727 28.3146998,42.5670997 28.3146998,42.1345622 C28.3146998,41.6632686 28.5960851,41.3489134 29.1989836,41.1914965 L30.846678,40.7594375 Z M33.6600414,36.8297579 C33.0571429,36.1618129 31.8513458,35.8474576 30.0030115,35.8474576 C26.9885187,35.8474576 25.4210804,36.7512887 25.4210804,38.6374201 L28.6362131,38.6374201 C28.716469,38.1264134 29.0379823,37.8512928 29.8018822,37.8512928 C30.5251647,37.8512928 30.846678,38.1264134 30.846678,38.5981855 L29.9222661,39.1876614 L27.9129305,39.5020166 C25.8228496,39.8163718 24.8181818,40.6809683 24.8181818,42.1345622 C24.8181818,42.9206896 25.1798231,43.5494 25.7827216,44.0206936 C26.3053642,44.4139965 27.0286467,44.6101695 27.9129305,44.6101695 C29.1989836,44.6101695 30.2437794,44.2958143 31.1280632,43.5494 L31.2484472,44.4139965 L34.7454545,44.4139965 L34.7454545,44.2958143 L34.222812,43.1565756 L34.222812,39.3838344 C34.222812,38.1264134 34.0216827,37.2622954 33.6600414,36.8297579 L33.6600414,36.8297579 Z" id="Fill-3" fill="#2D2E2C"></path>
                        <path d="M35.5727273,36.0887454 L35.5727273,44.6101695 L38.6966544,44.6101695 L38.6966544,41.6755616 C38.6966544,39.9875257 39.3062237,39.1833962 40.6399467,39.1833962 L41.3636364,39.2641517 L41.3636364,35.8875907 L40.9827715,35.8474576 C39.7636327,35.8474576 38.8873188,36.4905655 38.4303737,37.8570474 L38.3538296,37.8570474 L38.3538296,36.0887454 L35.5727273,36.0887454" id="Fill-4" fill="#2D2E2C"></path>
                        <path d="M43.0181818,44.6101695 L46.4452219,44.6101695 L46.4452219,40.3893458 C46.4452219,39.1833962 46.8530492,38.5809108 47.5877342,38.5809108 C48.0770275,38.5809108 48.3219226,38.70131 48.4848548,38.9024647 L48.6890167,40.3090797 L48.6890167,44.6101695 L52.1567899,44.6101695 L52.1567899,40.3893458 C52.1567899,39.1833962 52.5646171,38.5809108 53.3807683,38.5809108 L54.2371558,38.9024647 L54.4413177,40.3090797 L54.4413177,44.6101695 L57.9090909,44.6101695 L57.9090909,39.5857057 C57.9090909,37.0935403 56.8485415,35.8474576 54.6042499,35.8474576 C53.3807683,35.8474576 52.4016849,36.3701663 51.6669999,37.4552273 C51.1777065,36.3701663 50.2393562,35.8474576 48.8112159,35.8474576 C48.1997234,35.8474576 47.6692003,36.0481229 47.0979442,36.3701663 L46.0781278,37.3749612 L46.0781278,36.0887454 L43.0181818,36.0887454 L43.0181818,44.6101695" id="Fill-5" fill="#2D2E2C"></path>
                        <path d="M64.8953972,40.7594375 C64.9358522,42.1345622 64.48986,42.7632727 63.3960938,42.7632727 C62.6669164,42.7632727 62.3023276,42.5670997 62.3023276,42.1345622 C62.3023276,41.6632686 62.5855129,41.3489134 63.1933253,41.1914965 L64.8953972,40.7594375 Z M67.6502869,36.8297579 C67.0424745,36.1618129 65.8273432,35.8474576 64.0039062,35.8474576 C60.8434793,35.8474576 59.2632659,36.7512887 59.2632659,38.6374201 L62.5855129,38.6374201 C62.6669164,38.1264134 62.99105,37.8512928 63.7202275,37.8512928 C64.48986,37.8512928 64.8953972,38.1264134 64.8953972,38.5981855 C64.8953972,38.9125407 64.5308084,39.1087137 63.9229961,39.1876614 L61.8563354,39.5020166 C59.7497131,39.8163718 58.7363636,40.6809683 58.7363636,42.1345622 C58.7363636,42.9206896 59.0604973,43.5494 59.7497131,44.0206936 C60.276122,44.4139965 60.9648444,44.6101695 61.8563354,44.6101695 C63.1124152,44.6101695 64.1252713,44.2958143 65.0167623,43.5494 L65.2195309,44.4139965 L68.6636364,44.4139965 L68.6636364,44.2958143 C68.3799577,44.0206936 68.2580992,43.6278692 68.2580992,43.1565756 L68.2580992,39.3838344 C68.2580992,38.1264134 68.055824,37.2622954 67.6502869,36.8297579 L67.6502869,36.8297579 Z" id="Fill-6" fill="#2D2E2C"></path>
                        <path d="M77.6590797,36.6331065 C76.9052517,36.0833437 75.7739996,35.8474576 74.4754568,35.8474576 C73.0096234,35.8474576 71.7947259,36.240282 70.9149199,37.065644 C69.9938011,37.8512928 69.4909091,38.9910099 69.4909091,40.3666131 C69.4909091,41.7417378 69.9938011,42.7632727 70.9149199,43.5494 C71.7947259,44.2958143 73.0096234,44.6101695 74.4754568,44.6101695 C77.4494563,44.6101695 79.0830905,43.5101654 79.4181818,41.1914965 L75.8576449,41.1914965 C75.7739996,41.9776239 75.3134402,42.3704483 74.4754568,42.3704483 C73.4701827,42.3704483 73.0096234,41.7417378 73.0096234,40.3666131 C73.0096234,38.8340716 73.4701827,38.0479442 74.4754568,38.0479442 C74.8941935,38.0479442 75.1456395,38.2053611 75.3552629,38.4015341 L75.7739996,39.226896 L79.3345365,39.226896 C79.2927138,38.1264134 78.7061764,37.2225823 77.6590797,36.6331065" id="Fill-7" fill="#2D2E2C"></path>
                        <g id="Group-11">
                            <mask id="mask-2" fill="white">
                                <use xlink:href="#path-1"></use>
                            </mask>
                            <g id="Clip-9"></g>
                            <path d="M83.2011237,36.03772 L79.7928143,36.03772 L82.5996286,43.52576 L82.5996286,44.41359 C82.4790367,44.60676 82.1182373,44.68384 81.5972996,44.68384 L80.9157353,44.60676 L80.9157353,46.92292 L82.3989675,47 C83.8026188,47 84.8049478,46.72975 85.3263738,46.22779 L86.6094331,43.64185 L89.33569,36.03772 L86.1280417,36.03772 L84.6843559,41.05544 L83.2011237,36.03772" id="Fill-8" fill="#2D2E2C" mask="url(#mask-2)"></path>
                            <path d="M21.371628,12.29849 L30.9950611,12.29849 C30.5937389,8.43885 29.0704721,5.50511 26.4638307,3.38212 C23.7776083,1.25913 20.1286033,0.13959 15.4372346,0.13959 C11.0265961,0.13959 7.41811386,1.56792 4.53074218,4.34703 C1.52375499,7.24176 0,11.02479 0,15.77273 C0,20.59775 1.48372042,24.45739 4.3305693,27.31405 C7.33755648,30.1317 11.347361,31.56003 16.4395636,31.56003 C20.5294373,31.56003 23.9377466,30.44049 26.5844227,28.27896 C29.270645,26.00181 30.7944,22.99052 31.2757914,19.20796 L21.4516972,19.20796 C20.970794,22.60465 19.3264471,24.26469 16.3194599,24.26469 C13.9134796,24.26469 12.2295863,23.45394 11.3073264,21.75536 C10.5452048,20.48166 10.1443708,18.62892 10.1443708,16.12006 C10.1443708,13.2634 10.7058313,11.14041 11.7081604,9.67401 C12.7109776,8.20714 14.0340715,7.43493 15.8380686,7.43493 C17.4423809,7.43493 18.7254402,7.85981 19.7277693,8.70863 C20.6500292,9.55792 21.1709669,10.75454 21.371628,12.29849" id="Fill-10" fill="#2D2E2C" mask="url(#mask-2)"></path>
                        </g>
                        <polyline id="Fill-12" fill="#2D2E2C" points="52.6337022 0.796610169 47.0746786 20.9381926 41.6349683 0.796610169 31.4363636 0.796610169 41.9549226 31.0677966 52.1540142 31.0677966 62.8727273 0.796610169 52.6337022 0.796610169"></polyline>
                        <path d="M67.353721,2.36637977 C64.7931532,4.00732379 63.5528172,6.37370356 63.5528172,9.42741163 C63.5528172,11.9081137 64.4730822,13.9310617 66.2736641,15.4576834 C67.673792,16.5641937 69.754497,17.5182741 72.3949608,18.2818173 L78.5566925,19.808439 C80.3572745,20.3809802 81.2775395,21.1445234 81.2775395,22.0986038 C81.2775395,22.7854674 80.8770854,23.2817937 80.1570474,23.663333 L77.0761816,24.2358742 C75.9961247,24.2358742 75.0758597,24.0067648 74.1955427,23.4727957 C73.3551737,22.9764694 72.7954149,22.2129262 72.5951878,21.1445234 L62.8727273,21.1445234 C62.9526232,23.9305499 64.2728551,26.2969296 66.753527,28.1288756 C69.35453,30.1137162 72.5951878,31.0677966 76.5563707,31.0677966 C80.9574685,31.0677966 84.3983533,30.2280385 86.9589212,28.5104149 C89.6792809,26.7165763 91,24.1977667 91,20.8773065 C91,18.3961397 90.079735,16.4879788 88.1992571,15.037572 C86.878538,13.9310617 84.8782162,13.0531962 82.1573693,12.289653 L75.9961247,10.7630313 C74.1555947,10.1904901 73.1953818,9.42741163 73.1953818,8.47286645 C73.1953818,7.32824874 74.2754387,6.75570752 76.4759876,6.75570752 L78.9966074,7.32824874 C79.8769244,7.78600288 80.3972225,8.39665155 80.5570144,9.350732 L90.159631,9.350732 C89.7596641,6.48849064 88.5592761,4.27454068 86.4785711,2.6717041 C84.1581783,0.915973002 80.9974165,0 76.9563376,0 C72.9552068,0 69.754497,0.763543197 67.353721,2.36637977" id="Fill-13" fill="#2D2E2C"></path>
                    </g>
                </g>
            </g>
        </g>
    </g>
</svg>