<?xml version="1.0" encoding="UTF-8"?>
<svg width="92px" height="40px" viewBox="0 0 92 40" version="1.1" xmlns="http://www.w3.org/2000/svg" xmlns:xlink="http://www.w3.org/1999/xlink">
    <!-- Generator: Sketch 46.2 (44496) - http://www.bohemiancoding.com/sketch -->
    <title>p&amp;g</title>
    <desc>Created with Sketch.</desc>
    <defs>
        <polygon id="path-1" points="0 40 92 40 92 0 0 0"></polygon>
    </defs>
    <g id="CH.me-Design" stroke="none" stroke-width="1" fill="none" fill-rule="evenodd" opacity="0.5">
        <g id="CH.me-Homepage" transform="translate(-1131.000000, -3263.000000)">
            <g id="Group-16" transform="translate(0.000000, 3021.000000)">
                <g id="Group-17" transform="translate(218.000000, 233.000000)">
                    <g id="p&amp;g" transform="translate(913.000000, 9.000000)">
                        <mask id="mask-2" fill="white">
                            <use xlink:href="#path-1"></use>
                        </mask>
                        <g id="Clip-2"></g>
                        <path d="M24.93039,4.01540499 C26.7867802,4.01540499 31.9490972,4.26458766 28.62196,14.0816091 C25.1299604,24.3873 17.3973312,22.2663386 17.3973312,22.2663386 L23.0952102,4.01540499 C23.0952102,4.01540499 24.8633845,4.01540499 24.93039,4.01540499 Z M38.7648596,14.7414099 C43.119254,3.92765779 34.9715762,0.996125512 29.6550019,1.00000384 L12.0691876,1.00000384 C13.5360781,2.0137022 13.294087,3.35075628 13.0077469,4.17635566 L2.76265184,37.1101598 C2.35194178,38.4147328 0.822866287,39.7823288 0,40 L14.2374668,39.9951521 C13.4560571,39.8511691 12.3328712,38.7351798 12.7368325,37.2017853 L16.4578078,25.2914356 C16.4578078,25.2914356 33.5818143,27.6150397 38.7648596,14.7414099 L38.7648596,14.7414099 Z" id="Fill-1" fill="#181917" mask="url(#mask-2)"></path>
                        <path d="M43.8185872,34.50779 C43.254618,34.8542552 41.0382339,35.958968 38.9480324,36.153973 C37.0215794,36.3295722 33.8140351,35.5959369 33.8207777,31.7961793 C33.824149,28.5516179 37.4165022,26.1793726 39.3554772,25.3548612 C40.162661,28.5005001 41.9292184,32.0470352 43.8185872,34.50779 Z M49.4366057,14.0284786 C48.9386176,17.0950742 44.9051067,20.1834422 43.9173179,20.6051642 C43.7424923,18.8818312 43.8185872,16.1659606 45.2918421,13.9432823 C46.2647009,12.4736451 47.5448289,11.8247328 48.5860767,12.1806643 C49.4139699,12.4580257 49.5146271,13.2186399 49.4366057,14.0284786 Z M49.4380506,39.4543853 L59,39.4496522 C55.9388662,38.4845667 51.4107384,35.6418482 49.6123946,33.6155948 C51.0692746,32.0484551 52.8714714,30.086099 53.1999316,26.0870766 L48.2359439,26.0870766 C48.2359439,26.0870766 49.1919462,26.6238136 49.1919462,27.7663915 C49.1919462,28.8280328 48.7628288,30.2839439 47.9238585,31.3200263 C46.4722762,29.2033701 44.9176286,26.7866334 44.3748505,23.2453047 C46.3162335,22.2901589 49.0556496,21.2630694 51.2320599,19.3920627 C53.2909565,17.6142987 53.7691985,15.9420835 53.8019482,14.8496769 C53.8019482,14.8013989 53.8019482,14.7588007 53.8019482,14.7109961 C53.8019482,13.5717315 53.3468237,12.4968374 52.5102615,11.6784791 C51.0740908,10.2788922 48.8013578,9.70665667 46.428931,10.143998 C44.5149999,10.4980362 42.8847391,11.4972001 42.0703311,12.2445615 C39.1758354,14.8984281 38.8030668,19.291247 38.8030668,21.2734823 C38.8030668,21.756735 38.8247394,22.124026 38.8444855,22.3374902 C38.6797738,22.4018608 38.3826184,22.5130893 38.3826184,22.5130893 C36.2755605,23.2746501 30.6402038,24.7584867 28.6217627,29.3093922 C28.3640996,29.8825744 28,31.1297544 28,32.5856655 C28,33.8347388 28.267777,35.2295925 29.0918172,36.5028048 C30.5125763,38.6824116 32.92883,40.0635393 36.781736,39.9977487 C40.9799587,39.9295916 45.106421,37.1129054 45.8476238,36.599834 C46.5787127,37.2615257 48.4550779,38.9957449 49.4380506,39.4543853 L49.4380506,39.4543853 Z" id="Fill-3" fill="#181917" mask="url(#mask-2)"></path>
                        <path d="M79.5935065,3.51738377 C85.2693751,2.14807791 89.9539747,6.620853 90.375781,6.92805042 L92,1.73185932 C89.7519694,1.05302085 73.4602402,-4.50560506 61.9521895,8.74313172 C54.8767126,16.891616 53.1385049,33.5825144 62.1171605,38.0577122 C71.7354996,42.8464064 82.3451076,37.3207291 83.1247519,36.9374592 L87.5202915,22.8572543 C87.9916373,21.1570086 89.0665942,20.0459618 90.9611155,19.338051 L75.6991325,19.338051 C77.9274436,20.2736949 77.7648774,21.9652189 77.5835536,22.6556863 L73.2010001,36.7358911 C72.6161466,36.8541185 60.3524997,39.935299 67.2173139,18.312283 C68.6986862,13.6708885 72.8369095,5.15560851 79.5935065,3.51738377" id="Fill-4" fill="#181917" mask="url(#mask-2)"></path>
                    </g>
                </g>
            </g>
        </g>
    </g>
</svg>