<?xml version="1.0" encoding="UTF-8"?>
<svg width="126px" height="53px" viewBox="0 0 126 53" version="1.1" xmlns="http://www.w3.org/2000/svg" xmlns:xlink="http://www.w3.org/1999/xlink">
    <!-- Generator: Sketch 46.2 (44496) - http://www.bohemiancoding.com/sketch -->
    <title>ulta-logo</title>
    <desc>Created with Sketch.</desc>
    <defs>
        <polygon id="path-1" points="7.11748668e-15 1.24760407e-14 7.11748668e-15 51.9862291 125.696731 51.9862291 125.696731 25.9931146 125.696731 0 7.10542736e-15 0"></polygon>
    </defs>
    <g id="CH.me-Design" stroke="none" stroke-width="1" fill="none" fill-rule="evenodd" opacity="0.5">
        <g id="CH.me-Homepage" transform="translate(-885.000000, -3363.000000)">
            <g id="Group-16" transform="translate(0.000000, 3021.000000)">
                <g id="Group-17" transform="translate(218.000000, 233.000000)">
                    <g id="ulta-logo" transform="translate(667.000000, 109.000000)">
                        <path d="M43.2585834,5.94333713 C43.2291338,3.43256581 43.1548505,0.946405513 43.0370521,0 C43.3623162,0.0657785392 43.6730754,0.122607617 43.9688899,0.17138218 C44.2642649,0.220156743 44.560519,0.244320288 44.8567731,0.244320288 C45.2409364,0.244320288 46.4967197,0.285935283 47,0.122160144 C46.9112117,1.26455886 46.7151741,3.4110871 46.6263858,4.99245688 C46.5371579,6.57472161 46.6650659,8.32076147 46.6061667,10.13079 C46.5490257,11.8669854 46.676494,13.1140928 46.6022108,15.5067313 C46.542872,17.4143089 46.4984779,19.2655049 46.4694678,21.0594244 C46.4395787,23.2439879 46.1362919,25.2007876 45.5596073,26.9289285 C44.9824833,28.6575169 44.1614111,30.125676 43.0959513,31.3316159 C42.0304915,32.5384507 40.7215231,33.4521907 39.1677275,34.0710459 C37.6143715,34.6894537 34.7511681,35 32.7389259,35 C28.3003891,35 25.07456,33.8920567 23.0627574,31.6739328 C21.0500757,29.4567038 20.0443942,25.9507524 20.0443942,21.1565261 C20.0443942,19.6243783 20.081316,18.2627178 20.1555993,17.071992 C20.2290035,15.8821612 20.266365,14.6677193 20.266365,13.4277715 C20.266365,10.6887889 20.2364758,8.25945766 20.1775766,6.13933032 C20.1177984,4.01965046 20.0588992,1.46771162 20,0 C20.3551533,0.0657785392 20.7393166,0.122607617 21.1542481,0.17138218 C21.5683006,0.220156743 23.449558,0.244320288 23.8051508,0.244320288 C24.1299754,0.244320288 24.4486464,0.220156743 24.7594055,0.17138218 C25.0701646,0.122607617 25.3879564,0.0657785392 25.7136601,0 C25.6538818,0.717746781 25.5949827,2.41411714 25.5360835,3.57083498 C25.4763052,4.72889525 25.417406,6.04133373 25.3585068,7.50859788 C25.2987286,8.97586202 25.2543344,10.5585742 25.2253244,12.2540496 C25.1954352,13.9499725 25.1809302,15.710779 25.1809302,17.5369165 C25.1809302,18.6457548 25.1954352,19.7957605 25.2253244,20.9855914 C25.2543344,22.1763172 25.3585068,23.3334825 25.536523,24.4597722 C25.7198138,25.6214122 25.9602455,27.0828592 26.5975874,28.0896736 C28.2406108,30.6877022 31.9556547,32.0958999 34.8764387,31.6488743 C38.1057841,31.1544166 40.8604197,30.4666505 42.0827975,27.0756997 C42.4819054,25.9673089 42.7706872,24.8092486 42.9478242,23.6024138 C43.1258404,22.3964739 43.2291338,21.1896391 43.2585834,19.9828042 C43.2880329,18.7764169 43.3034171,17.6675787 43.3034171,16.6562896 C43.3034171,12.0258384 43.2880329,8.45500339 43.2585834,5.94333713" id="Fill-1" fill="#313335"></path>
                        <path d="M53.2398369,7.26481479 C53.1670677,5.23508844 53.0874091,2.54121563 53,0.431212665 C53.3767635,0.496135833 54.6939287,0.23995252 55.0422735,0.287767556 C55.3906183,0.336021263 55.7376713,0.359709446 56.0860161,0.359709446 C56.4334997,0.359709446 57.746359,0.215825667 58.0947038,0.168010631 C58.4421874,0.120195595 58.8043109,0.0644844982 59.181505,0 C59.0945265,2.11000297 59.0144373,4.80343711 58.9425293,6.83360213 C58.8697601,8.86420581 58.8340214,10.9334125 58.8340214,13.0438541 C58.8340214,17.0717226 58.8482308,20.5648522 58.8770801,23.5219271 C58.9059294,26.4794406 58.9347788,28.1191892 58.9640587,30.4529139 C61.0222639,30.4529139 62.0281148,30.5489827 63.9127935,30.500729 C65.7970416,30.4533526 67.8259669,30.2691112 70,29.9493207 C69.8544616,30.5248558 69.7825536,32.0093153 69.7825536,32.3940289 C69.7825536,32.7454036 69.8544616,33.177055 70,33.6885443 C68.6664725,33.6231824 67.332945,33.5929142 65.9994174,33.5929142 C64.6663205,33.5929142 63.3323624,33.5929142 61.9992655,33.5929142 C60.6080393,33.5929142 59.2667612,33.5929142 57.9771536,33.5929142 C56.6871153,33.5929142 54.3920873,33.9346382 53,34 C53.0874091,32.0172113 53.1670677,30.0032771 53.2398369,27.95732 C53.3113143,25.9118015 53.3483448,23.8333828 53.3483448,21.7233798 L53.3483448,13.4750668 C53.3483448,11.3650638 53.3113143,9.29541848 53.2398369,7.26481479" id="Fill-2" fill="#313335"></path>
                        <path d="M78.0344955,3.2668724 C77.294128,3.2668724 76.5178203,3.27528419 75.706841,3.29122231 C74.8958616,3.30804589 74.0848822,3.33947941 73.2730572,3.3877365 C72.461655,3.43643632 71.6781593,3.4931052 70.9242614,3.55730042 C70.1703635,3.62238108 68.5974525,3.70251442 68,3.79947133 C68.1420694,3.21861531 68.2135269,2.70239723 68.2135269,2.25081709 C68.2135269,1.89575114 68.1420694,0.64593669 68,0 C69.878191,0.0650806672 72.6113352,0.121306822 74.4049612,0.169563915 C76.1981642,0.217821009 78.0344955,0.241728193 79.9126865,0.241728193 C81.7917232,0.241728193 83.6272088,0.217821009 85.4208347,0.169563915 C87.2144606,0.121306822 90.1209633,0.186387489 92,0.120864096 C91.8575078,0.766800786 91.7868959,2.03255335 91.7868959,2.41993828 C91.7868959,2.83964217 91.8575078,3.33947941 92,3.92033543 C91.4025475,3.82337852 89.6545868,3.62238108 88.9011117,3.55730042 C88.1459453,3.4931052 87.3632952,3.43643632 86.5523159,3.3877365 C85.7409137,3.33947941 84.9299343,3.30804589 84.1181093,3.29122231 C83.3071299,3.27528419 83.4576558,3.2668724 82.7181339,3.2668724 C82.6323003,6.59085641 82.589595,9.92989309 82.589595,13.2853106 L82.589595,21.6098806 C82.589595,23.7393909 82.6251123,25.8370249 82.6965698,27.9014545 C82.7671817,29.9667695 82.8462501,31.9988802 82.931238,34 C82.2758584,33.9340339 80.653054,33.9034858 79.9126865,33.9034858 C79.1718962,33.9034858 78.4755025,33.9340339 77.8209686,34 C77.9059566,31.9988802 77.9846021,29.9667695 78.0556368,27.9014545 C78.1262487,25.8370249 78.1621888,23.7393909 78.1621888,21.6098806 L78.1621888,13.2853106 C78.1621888,9.92989309 78.1194834,6.59085641 78.0344955,3.2668724" id="Fill-3" fill="#313335"></path>
                        <path d="M98.2602538,21.0600596 C99.0131819,21.0600596 99.7958138,21.0764989 100.607719,21.1084888 C101.418763,21.1413674 102.201395,21.1573624 102.955184,21.1573624 C103.766229,21.1573624 104.578134,21.1498092 105.389609,21.1329256 C106.200653,21.1169306 107.012558,21.0924939 107.824033,21.0600596 L102.998664,6.5574983 L98.2602538,21.0600596 Z M119,34 C118.593617,33.9337985 116.728301,33.9031415 116.366258,33.9031415 C116.003785,33.9031415 115.619788,33.9031415 115.214696,33.9031415 C114.808313,33.9031415 114.424746,33.9031415 114.062273,33.9031415 C113.6998,33.9031415 113.316232,33.9337985 112.91071,34 C112.707949,33.2549004 112.432005,32.3574042 112.084168,31.3044012 C111.736762,30.2522869 111.351904,29.1508546 110.932606,28.0009932 C110.511586,26.8520203 110.08497,25.6866081 109.649744,24.5043124 C109.215379,23.3224609 109.592058,24.3910146 109.215379,23.3224609 C108.287241,23.290471 106.563126,23.238043 105.606576,23.2216037 C104.650887,23.2056087 103.694337,23.1971669 102.737356,23.1971669 C101.838922,23.1971669 100.955556,23.2056087 100.085965,23.2216037 C99.216804,23.238043 97.4345728,23.2944697 97.4345728,23.2944697 C97.4345728,23.2944697 95.502531,26.5570017 94.7491724,28.8398411 C93.9953834,31.1231248 93.5937356,32.5106895 93.2174868,34 C92.7245751,33.9337985 92.1881838,33.9031415 91.6087434,33.9031415 C91.0293031,33.9031415 90.4933422,33.9337985 90,34 C92.3478958,28.3333333 93.7314926,24.8650881 95.9635864,19.2628456 C98.1952498,13.6610475 101.346872,5.79684805 103.606947,0 L105.914807,0 C106.61005,1.87852177 107.363408,3.91032879 108.174883,6.09586535 C108.985927,8.28140191 109.812469,10.4918196 110.653218,12.7257854 C111.493535,14.9601955 114.804869,23.62992 115.543591,25.5239925 C116.282743,27.4180649 116.949143,29.1108672 117.54365,30.5992891 C118.137297,32.0899326 118.62246,33.2229105 119,34 L119,34 Z" id="Fill-4" fill="#313335"></path>
                        <path d="M52.4292261,40.42816 C52.2542883,40.22752 52.0002619,40.12672 51.6671468,40.12672 C51.5891057,40.12672 51.5225874,40.12816 51.4670682,40.13104 C51.411549,40.13392 51.3586487,40.13536 51.3083672,40.13536 C51.3083672,40.25776 51.3073196,40.38448 51.3047008,40.51504 C51.3015582,40.64656 51.3005107,40.80208 51.3005107,40.98256 C51.3005107,41.12224 51.3015582,41.26528 51.3047008,41.41072 C51.3073196,41.55616 51.3083672,41.69872 51.3083672,41.8384 C51.3083672,41.97808 51.3099385,42.10672 51.3130811,42.22288 C51.3156999,42.33952 51.3167474,42.43552 51.3167474,42.51136 C51.3947885,42.51664 51.4670682,42.52144 51.5335865,42.52432 C51.6001048,42.5272 51.6807647,42.52864 51.7750426,42.52864 C51.8976038,42.52864 52.0144036,42.50224 52.1254419,42.44992 C52.2364803,42.3976 52.333377,42.32032 52.4171795,42.21856 C52.5004583,42.11632 52.5669766,41.99248 52.6167343,41.84752 C52.6670158,41.7016 52.6921566,41.53264 52.6921566,41.34064 C52.6921566,40.93312 52.6041639,40.62928 52.4292261,40.42816 Z M52.5879272,38.12224 C52.5575488,37.99696 52.505696,37.88944 52.4334163,37.7992 C52.3616603,37.70896 52.2694775,37.636 52.1584392,37.5808 C52.0474008,37.5256 51.9086029,37.49776 51.7420453,37.49776 C51.6200079,37.49776 51.534634,37.4992 51.4880189,37.50208 C51.4403562,37.50544 51.3890271,37.51216 51.3335079,37.52416 C51.3225088,37.73968 51.3141286,37.9576 51.3083672,38.17888 C51.3031295,38.40016 51.3005107,38.58688 51.3005107,38.73808 C51.3005107,38.89504 51.3015582,39.04528 51.3047008,39.18784 C51.3073196,39.33088 51.3083672,39.47728 51.3083672,39.62896 L51.6839073,39.62896 C51.8001833,39.62896 51.9154118,39.60592 52.0295928,39.55888 C52.14325,39.51232 52.2448605,39.44416 52.333377,39.35344 C52.4224172,39.26368 52.4946969,39.14848 52.5502161,39.0088 C52.6057352,38.86912 52.6334948,38.7064 52.6334948,38.51968 C52.6334948,38.38 52.6183056,38.24752 52.5879272,38.12224 Z M50.0565667,38.13136 C50.0439963,37.75552 50.0251408,37.37872 50,37 C50.0948016,37.01152 50.1974597,37.0216 50.3084981,37.03024 C50.4195365,37.03936 50.5447165,37.04368 50.6835145,37.04368 C50.9223517,37.04368 51.1727118,37.03648 51.4335472,37.0216 C51.6949064,37.00768 51.9447427,37 52.1835799,37 C52.4334163,37 52.6612544,37.0264 52.8670944,37.07872 C53.0724106,37.13104 53.250491,37.2112 53.4002881,37.31872 C53.5506089,37.42672 53.6653136,37.5664 53.7464973,37.73776 C53.8266335,37.91008 53.8669635,38.11504 53.8669635,38.3536 C53.8669635,38.59216 53.8198245,38.7976 53.7250229,38.96944 C53.6296975,39.14128 53.514469,39.28384 53.3777661,39.39712 C53.2410632,39.51136 53.0933613,39.59968 52.9341364,39.664 C52.7754354,39.72832 52.6319235,39.772 52.5036009,39.79456 L52.5036009,39.81232 C52.630876,39.81808 52.780673,39.8488 52.9524682,39.904 C53.1242635,39.9592 53.2882022,40.04512 53.4432369,40.16176 C53.5982716,40.27792 53.7297368,40.42816 53.8381563,40.61152 C53.9460521,40.79488 54,41.0176 54,41.27968 C54,41.5936 53.9460521,41.86192 53.8381563,42.0832 C53.7297368,42.30448 53.5857012,42.48496 53.4055257,42.62464 C53.2253503,42.76432 53.0189865,42.86176 52.7864345,42.91696 C52.5533586,42.97216 52.3119026,43 52.06259,43 C51.8405133,43 51.6341495,42.99712 51.442975,42.99136 C51.2518004,42.9856 51.0511981,42.98272 50.8401205,42.98272 C50.6903234,42.98272 50.53686,42.98272 50.3786827,42.98272 C50.2205054,42.98272 50.0942779,42.98848 50,43 C50.0251408,42.63904 50.0439963,42.27088 50.0565667,41.89504 C50.0691371,41.51968 50.0754223,41.09056 50.0754223,40.6072 L50.0754223,39.4192 C50.0754223,38.93584 50.0691371,38.50672 50.0565667,38.13136 L50.0565667,38.13136 Z" id="Fill-5" fill="#313335"></path>
                        <path d="M65.0409224,38.13136 C65.0316661,37.75552 65.0180253,37.37872 65,37 C65.2328678,37.00576 65.4628126,37.0144 65.6898344,37.0264 C65.9173433,37.03792 66.1472881,37.04368 66.3796687,37.04368 C66.7625853,37.04368 67.1021436,37.03936 67.399318,37.03024 C67.6964924,37.0216 67.8967197,37.01152 68,37 C67.9795388,37.09312 67.968821,37.21552 67.968821,37.36672 C67.968821,37.45984 67.9712569,37.53232 67.9766158,37.58512 C67.9814875,37.63744 67.9897694,37.69552 68,37.75984 C67.8499513,37.74832 67.6862618,37.73632 67.5079571,37.7248 C67.3296525,37.71328 67.1562196,37.70176 66.9881455,37.69024 C66.8205586,37.67824 66.6695356,37.6696 66.5350763,37.66384 C66.4006171,37.65808 66.3051315,37.65472 66.2481325,37.65472 C66.2271842,37.97536 66.215492,38.29216 66.2135434,38.60704 C66.2106203,38.92144 66.2091588,39.23872 66.2091588,39.55888 C66.5453069,39.55312 66.8488146,39.54448 67.1201689,39.53248 C67.3915232,39.52144 67.6745697,39.50656 67.968821,39.48928 C67.9532316,39.58816 67.943001,39.664 67.9381293,39.71632 C67.9327704,39.76864 67.9298474,39.82432 67.9298474,39.8824 C67.9298474,39.92896 67.9342319,39.97696 67.9415395,40.0264 C67.9498214,40.07584 67.9585905,40.14736 67.968821,40.24 C67.3798311,40.18816 66.793277,40.16176 66.2091588,40.16176 C66.2091588,40.348 66.2081845,40.53424 66.2052614,40.72048 C66.2028256,40.9072 66.2018513,41.09296 66.2018513,41.27968 C66.2018513,41.65792 66.2091588,42.02176 66.2247483,42.3712 C66.5194868,42.3712 66.8137382,42.36256 67.1084768,42.34528 C67.4032153,42.328 67.7003897,42.29872 68,42.25792 C67.9897694,42.32176 67.9814875,42.37984 67.9766158,42.43216 C67.9712569,42.48496 67.968821,42.55744 67.968821,42.65104 C67.968821,42.74416 67.9712569,42.81664 67.9766158,42.86944 C67.9814875,42.92176 67.9897694,42.96544 68,43 C67.8601819,42.99424 67.6886976,42.98992 67.4845729,42.98704 C67.2804482,42.98416 66.9998376,42.98272 66.6432283,42.98272 C66.3280286,42.98272 66.0727509,42.98272 65.8759337,42.98272 C65.6849627,42.98272 65.5310166,42.98272 65.4145827,42.98272 C65.2986359,42.98272 65.2104579,42.98416 65.1515102,42.98704 C65.0920753,42.98992 65.0414095,42.99424 65,43 C65.0180253,42.63904 65.0316661,42.27088 65.0409224,41.89504 C65.0496915,41.51968 65.0545632,41.09056 65.0545632,40.6072 L65.0545632,39.4192 C65.0545632,38.93584 65.0496915,38.50672 65.0409224,38.13136" id="Fill-6" fill="#313335"></path>
                        <path d="M80.2299823,38.6735764 C80.0942357,39.0204908 79.9663584,39.36264 79.8463506,39.7009769 C79.7263427,40.0388373 79.608794,40.3847987 79.4941963,40.736955 L80.9264214,40.736955 C80.8118237,40.3847987 80.6977179,40.0388373 80.5860712,39.7009769 C80.4734409,39.36264 80.3549085,39.0204908 80.2299823,38.6735764 Z M83,43 C82.8745819,42.9885633 82.7560496,42.9828449 82.6439111,42.9828449 C82.5317726,42.9828449 82.4206177,42.9828449 82.3114303,42.9828449 C82.2017509,42.9828449 82.0905961,42.9828449 81.9789494,42.9828449 C81.8663191,42.9828449 81.7561479,42.9885633 81.6464686,43 C81.5628566,42.7169407 81.4762935,42.428163 81.388255,42.1331904 C81.2992327,41.8386943 81.205784,41.5432452 81.1059414,41.2487491 C80.939701,41.2430307 80.7724769,41.238742 80.6057446,41.2358828 C80.4385206,41.2325471 80.2712965,41.2311175 80.1045642,41.2311175 C79.9688176,41.2311175 79.833071,41.2325471 79.6978163,41.2358828 C79.5620696,41.238742 79.426323,41.2430307 79.2905764,41.2487491 C79.1867991,41.5432452 79.0903994,41.8386943 79.0013771,42.1331904 C78.9123549,42.428163 78.8316939,42.7169407 78.7589022,43 C78.6964391,42.9885633 78.6349597,42.9828449 78.5749557,42.9828449 C78.5149518,42.9828449 78.4539642,42.9828449 78.3910092,42.9828449 C78.3285461,42.9828449 78.266083,42.9828449 78.2031281,42.9828449 C78.140665,42.9828449 78.0727917,42.9885633 78,43 C78.0624631,42.8498928 78.1460752,42.6416488 78.2503443,42.3757446 C78.3546134,42.1103169 78.4692111,41.8096259 78.5946292,41.4741482 C78.7200472,41.139147 78.8538265,40.7788897 78.9974425,40.3943293 C79.1410584,40.0102454 79.2841826,39.6213962 79.4277985,39.2282583 C79.5709227,38.8355969 79.7115876,38.4477007 79.8502853,38.0669526 C79.988491,37.6852514 80.1148928,37.3297594 80.2299823,37 C80.2821169,37.0119133 80.3313004,37.0214439 80.3785166,37.030498 C80.4257328,37.0390755 80.4749164,37.0433643 80.5275428,37.0433643 C80.5791855,37.0433643 80.6288609,37.0390755 80.6755853,37.030498 C80.7228015,37.0214439 80.7724769,37.0119133 80.8246114,37 C80.9913437,37.4917798 81.16988,38.0173934 81.3607122,38.5782702 C81.5510525,39.139147 81.7423765,39.6895401 81.9356679,40.2299261 C82.1284674,40.7703121 82.3163486,41.2835359 82.4988196,41.7686443 C82.6817824,42.2547057 82.8485147,42.6649988 83,43 L83,43 Z" id="Fill-7" fill="#313335"></path>
                        <path d="M94.5185792,42.8845791 C94.2176272,42.8073178 93.9555738,42.6791771 93.7329307,42.4987437 C93.5102876,42.3187814 93.3352441,42.0874686 93.2078002,41.8043342 C93.0803562,41.5216709 93.0163783,41.1772927 93.0163783,40.7716709 C93.0163783,40.5431847 93.0179138,40.3387249 93.0199611,40.1587626 C93.023032,39.9788003 93.0245675,39.8115578 93.0245675,39.6575063 C93.0245675,39.5034548 93.0255912,39.3545854 93.0286621,39.2113693 C93.0312212,39.0690955 93.0327567,38.9202261 93.0327567,38.7657035 C93.0327567,38.3030779 93.0296857,37.9290201 93.0245675,37.6425879 C93.0194493,37.357098 93.0107483,37.1432161 93,37 C93.1085065,37.0113065 93.2200839,37.0211997 93.3342205,37.0296796 C93.4478452,37.0386307 93.5589108,37.0428706 93.6679292,37.0428706 C93.7764357,37.0428706 93.8880131,37.0386307 94.0016378,37.0296796 C94.1157744,37.0211997 94.22684,37.0113065 94.3358583,37 C94.2810933,37.5544912 94.2488484,38.0703518 94.2375883,38.5471106 C94.22684,39.0243405 94.2217218,39.5086369 94.2217218,40 C94.2217218,40.5205716 94.2565257,40.9403266 94.3271573,41.2602073 C94.3983007,41.580559 94.5027127,41.8274183 94.6409049,42.0017274 C94.779609,42.1760364 94.9490224,42.2919284 95.1501689,42.3489322 C95.3508036,42.406407 95.5841949,42.4346734 95.8503429,42.4346734 C96.1758624,42.4346734 96.4312622,42.3489322 96.6160303,42.1774497 C96.8002866,42.0059673 96.9405262,41.7774812 97.0352134,41.4915201 C97.1304125,41.2060302 97.1887604,40.8786118 97.2102569,40.5102073 C97.2317535,40.1418028 97.2425018,39.7573807 97.2425018,39.3574121 C97.2425018,38.9630967 97.2373836,38.5701947 97.2266353,38.178706 C97.215887,37.7872173 97.1989968,37.3943153 97.1780121,37 C97.2537619,37.0113065 97.3269526,37.0211997 97.3975842,37.0296796 C97.4682158,37.0386307 97.5332173,37.0428706 97.5931006,37.0428706 C97.6637322,37.0428706 97.7318047,37.0386307 97.7962944,37.0296796 C97.8618078,37.0211997 97.9293684,37.0113065 98,37 C97.9892517,37.1257852 97.9785034,37.294441 97.9672433,37.5054962 C97.956495,37.7170226 97.9457467,37.9615264 97.9349985,38.2385364 C97.9242502,38.5160176 97.9145255,38.821294 97.9063364,39.1557789 C97.898659,39.4902638 97.8945644,39.8431219 97.8945644,40.214353 C97.8945644,41.2088568 97.690347,41.9216394 97.2839595,42.3531721 C96.8765483,42.7847048 96.2792507,43 95.4920667,43 C95.1445388,43 94.820043,42.9618405 94.5185792,42.8845791" id="Fill-8" fill="#313335"></path>
                        <path d="M109.443208,37.96048 C109.440763,37.8208 109.433916,37.71904 109.424135,37.65472 C109.346375,37.65472 109.250031,37.65808 109.13608,37.66384 C109.02213,37.6696 108.900355,37.6768 108.770265,37.68592 C108.640176,37.69408 108.50862,37.70608 108.373151,37.72048 C108.23866,37.73488 108.11395,37.7512 108,37.76896 C108.01027,37.70464 108.019562,37.64032 108.026898,37.57648 C108.034723,37.51216 108.039125,37.4488 108.039125,37.38448 C108.039125,37.32016 108.034723,37.25632 108.026898,37.192 C108.019562,37.12816 108.01027,37.06432 108,37 C108.176061,37.00576 108.335493,37.01152 108.478298,37.01728 C108.621103,37.02352 108.766353,37.02784 108.914537,37.03024 C109.062233,37.0336 109.223132,37.03648 109.396748,37.03936 C109.570363,37.04224 109.779191,37.04368 110.02323,37.04368 C110.26727,37.04368 110.475608,37.04224 110.649713,37.03936 C110.823328,37.03648 110.982761,37.0336 111.128011,37.03024 C111.273261,37.02784 111.414598,37.02352 111.552023,37.01728 C111.689449,37.01152 111.838611,37.00576 112,37 C111.989241,37.06432 111.979949,37.12816 111.972613,37.192 C111.964299,37.25632 111.960386,37.32016 111.960386,37.38448 C111.960386,37.4488 111.964299,37.51216 111.972613,37.57648 C111.979949,37.64032 111.989241,37.70464 112,37.76896 C111.895831,37.7512 111.778946,37.73488 111.649346,37.72048 C111.519746,37.70608 111.391124,37.69408 111.264458,37.68592 C111.137303,37.6768 111.016506,37.6696 110.902066,37.66384 C110.788116,37.65808 110.692261,37.65472 110.614501,37.65472 C110.60961,37.68448 110.605208,37.7248 110.602763,37.77712 C110.599829,37.82992 110.598851,37.89088 110.598851,37.96048 L110.598851,40.6072 C110.598851,41.09056 110.60423,41.51968 110.614501,41.89504 C110.624771,42.27088 110.640421,42.63904 110.660961,43 C110.572931,42.98848 110.477075,42.98272 110.372906,42.98272 C110.269226,42.98272 110.15283,42.98272 110.02323,42.98272 C109.89363,42.98272 109.776745,42.98272 109.673065,42.98272 C109.569385,42.98272 109.47353,42.98848 109.38501,43 C109.40604,42.63904 109.421201,42.27088 109.43196,41.89504 C109.44223,41.51968 109.44761,41.09056 109.44761,40.6072 L109.44761,38.42368 C109.44761,38.25472 109.446143,38.10064 109.443208,37.96048" id="Fill-9" fill="#313335"></path>
                        <g id="Group-13" transform="translate(0.000000, 1.000000)">
                            <mask id="mask-2" fill="white">
                                <use xlink:href="#path-1"></use>
                            </mask>
                            <g id="Clip-11"></g>
                            <path d="M124.305517,37.9232145 C124.397628,37.7287545 124.487566,37.5250763 124.574897,37.3121799 C124.663097,37.0992834 124.748255,36.8846312 124.830807,36.669101 C124.914228,36.4535709 124.994607,36.2472589 125.073248,36.0501651 C125.123648,36.0607002 125.175352,36.0699184 125.228359,36.0778197 C125.281366,36.0861599 125.335676,36.0901106 125.390855,36.0901106 C125.446034,36.0901106 125.500345,36.0861599 125.553352,36.0778197 C125.606793,36.0699184 125.662841,36.0607002 125.7228,36.0501651 C125.644159,36.1994121 125.546834,36.39475 125.42909,36.6370568 C125.311779,36.8798026 125.186214,37.1414238 125.052393,37.4241151 C124.918138,37.7059285 124.783883,37.9952042 124.64789,38.2906254 C124.511897,38.5860466 124.388938,38.8590807 124.278145,39.1092889 C124.278145,39.2370267 124.275538,39.3660814 124.271193,39.496892 C124.266414,39.6272636 124.264241,39.7589521 124.264241,39.8919575 C124.264241,40.1636748 124.267283,40.4327583 124.274669,40.698769 C124.281621,40.9647798 124.301172,41.2443984 124.333324,41.5371858 C124.236434,41.5266507 124.138676,41.5213832 124.039614,41.5213832 C123.940552,41.5213832 123.842359,41.5213832 123.745469,41.5213832 C123.649014,41.5213832 123.550821,41.5213832 123.451759,41.5213832 C123.352697,41.5213832 123.254938,41.5266507 123.158048,41.5371858 C123.167172,41.2922452 123.183248,41.0420371 123.206276,40.7865614 C123.229738,40.5310857 123.241034,40.275171 123.241034,40.0196954 C123.241034,39.897664 123.239731,39.7738768 123.237559,39.6483338 C123.235386,39.5232297 123.23191,39.3994425 123.227131,39.2769722 C123.111993,39.0105225 122.979476,38.7137844 122.830014,38.386319 C122.679683,38.0588536 122.534566,37.7410454 122.394228,37.4320164 C122.25389,37.1229874 122.124848,36.8438078 122.007103,36.5931607 C121.889793,36.3429525 121.803331,36.1621003 121.748152,36.0501651 C121.853731,36.0607002 121.957572,36.0699184 122.058807,36.0778197 C122.160476,36.0861599 122.263883,36.0901106 122.369897,36.0901106 C122.47591,36.0901106 122.578448,36.0861599 122.67751,36.0778197 C122.777007,36.0699184 122.87911,36.0607002 122.985124,36.0501651 C123.063766,36.2472589 123.1524,36.4654228 123.251462,36.7050959 C123.350524,36.9447689 123.448717,37.1787355 123.545172,37.4078735 C123.642062,37.6370115 123.732,37.8446403 123.814552,38.031199 C123.897972,38.2177578 123.964448,38.3560307 124.015283,38.4464568 L124.029186,38.4464568 C124.121297,38.2919423 124.213407,38.1176745 124.305517,37.9232145" id="Fill-10" fill="#313335" mask="url(#mask-2)"></path>
                            <path d="M13.2143586,0.250208145 C13.2143586,0.250208145 -2.42702069,12.5411346 0.324558621,23.2223886 C3.07613793,33.9036426 14.1067862,47.7980959 42.0583655,51.4559634 C70.0103793,55.1138309 85.7729793,44.7315098 85.7729793,44.7315098 C85.7729793,44.7315098 85.1677448,45.0695103 81.6918828,44.6305486 C80.0951586,44.4290652 67.9248621,48.4104474 55.214069,47.8042414 C40.2474414,47.0900508 24.417931,41.454661 24.417931,41.454661 C21.4886483,40.2501502 18.6432207,38.7638261 15.9194483,37.1475692 C11.4946759,34.5230175 6.62586207,31.2698726 4.11672414,26.5953699 C2.78981379,24.1235769 1.96255862,20.6974811 2.17197931,17.8696901 C2.36271724,15.2982527 3.25123448,12.9678053 4.81406897,10.9314622 C8.23257931,6.47819614 13.6488414,2.15222901 13.6488414,2.15222901 L13.2143586,0.250208145" id="Fill-12" fill="#313335" mask="url(#mask-2)"></path>
                        </g>
                    </g>
                </g>
            </g>
        </g>
    </g>
</svg>