<?xml version="1.0" encoding="UTF-8"?>
<svg width="147px" height="24px" viewBox="0 0 147 24" version="1.1" xmlns="http://www.w3.org/2000/svg" xmlns:xlink="http://www.w3.org/1999/xlink">
    <!-- Generator: Sketch 46.2 (44496) - http://www.bohemiancoding.com/sketch -->
    <title>west-elm-seeklogo.com</title>
    <desc>Created with Sketch.</desc>
    <defs>
        <polygon id="path-1" points="0 5.27569627e-15 0 24 149 24 149 12 149 0"></polygon>
    </defs>
    <g id="CH.me-Design" stroke="none" stroke-width="1" fill="none" fill-rule="evenodd" opacity="0.5">
        <g id="CH.me-Homepage" transform="translate(-1104.000000, -3371.000000)">
            <g id="Group-16" transform="translate(0.000000, 3021.000000)">
                <g id="Group-17" transform="translate(218.000000, 233.000000)">
                    <g id="west-elm-seeklogo.com" transform="translate(884.000000, 117.000000)">
                        <mask id="mask-2" fill="white">
                            <use xlink:href="#path-1"></use>
                        </mask>
                        <g id="Clip-2"></g>
                        <path d="M68.0205686,0.0620634219 C68.2442205,-0.0283516488 68.5544889,-0.0550315057 68.6785962,0.229553635 C68.8867346,0.697933345 68.8233882,1.2433882 68.8376088,1.75030548 C68.8479511,2.81008869 68.806582,3.87283632 68.8570006,4.93113731 C68.8570006,5.36097945 69.1039225,5.80712595 69.5124426,5.79971488 C70.7987638,5.87382559 72.0915489,5.76414173 73.3752844,5.85159238 C73.9066191,5.89754102 73.9816006,6.61493273 73.9609161,7.09517015 C73.9622089,7.51315458 73.8781778,8.12382686 73.4244103,8.16532886 C72.169116,8.22906407 70.9086505,8.15643557 69.6507706,8.19645536 C69.3081826,8.19941979 68.9462028,8.43212743 68.8712212,8.83825414 C68.8091675,9.21621878 68.8376088,9.6030767 68.8337304,9.98548799 C68.8376088,12.5927029 68.8324377,15.2014 68.836316,17.8115794 C68.8518294,18.8224495 68.9694729,19.9578256 69.6417211,20.6959683 C70.2726002,21.3748225 71.2137478,21.447451 72.030788,21.3155339 C72.5129968,21.2547631 72.9473726,20.9731424 73.4244103,20.9019961 C73.7501921,20.8575297 73.9570377,21.2354943 73.96738,21.5660281 C74.0229698,22.1574316 74.0746812,22.9682028 73.516198,23.2720567 C72.0915489,24.0428082 70.376023,24.2844091 68.890613,23.5892506 C67.9972985,23.177195 67.332807,22.2671155 67.0238313,21.2354943 C66.6075545,19.8585173 66.5519648,18.3837141 66.5054245,16.9400374 C66.4795688,14.3787711 66.5015462,11.818987 66.4937895,9.25920299 C66.4937895,8.92274035 66.4213935,8.53588243 66.1576653,8.34171236 C65.5875471,7.9622655 64.8390246,8.44102071 64.2999332,7.99042757 C63.9043409,7.47609922 63.8952914,6.56601966 64.301226,6.05465573 C64.8235111,5.57145388 65.5603986,6.02649366 66.1305168,5.69299545 C66.3632182,5.54329181 66.4834472,5.23647345 66.4873255,4.93706617 C66.5274019,3.78242125 66.4731049,2.62332969 66.5390369,1.4716492 C66.6605587,0.656431346 67.4362298,0.339237491 68.0205686,0.0620634219" id="Fill-1" fill="#3F413E" mask="url(#mask-2)"></path>
                        <path d="M113.767675,0.0653015767 C114.516969,-0.0521425902 115.278882,0.0296223361 116.036063,0.00583617573 C116.545582,0.0177292559 117.089806,-0.0506559552 117.572508,0.150039773 C117.925859,0.29721664 118.004732,0.697121462 117.998423,1.0256678 C117.998423,8.00095933 117.995268,14.9762509 118,21.953029 C117.996845,22.2771155 117.988958,22.7097263 117.60879,22.8509566 C117.050369,23.0516523 116.395723,23.048679 115.840458,22.8479833 C115.455557,22.7097263 115.373529,22.2875219 115.389304,21.9455959 C115.389304,15.7017288 115.387727,9.45786165 115.390882,3.21399456 C115.406656,2.8126031 115.26784,2.3457997 114.848235,2.16443023 C114.357645,1.9890073 113.737704,2.21348919 113.314944,1.85075024 C112.794383,1.33934779 112.90165,0.179772473 113.767675,0.0653015767" id="Fill-3" fill="#3F413E" mask="url(#mask-2)"></path>
                        <path d="M50.207724,6.08132315 C51.7387273,5.849253 53.3380086,6.11735889 54.737708,6.8409565 C55.1289936,7.02401805 55.3627145,7.54149125 55.1893933,7.98689297 C55.0278896,8.44238469 54.7823513,9.07084796 54.2505706,9.04634365 C53.5822338,8.94544359 52.9861142,8.54472619 52.3230295,8.40779038 C51.2673463,8.07914445 49.9700639,8.19590024 49.194058,9.13282943 C48.4154259,10.1548029 48.7016684,11.8052397 49.6260477,12.6066745 C51.2161378,14.0264826 53.4351734,14.3248585 54.9005248,15.9493496 C56.2844677,17.4369048 56.3120416,20.0012079 55.2629235,21.7136262 C54.4659089,23.0137956 53.0845921,23.7590147 51.695397,23.9492834 C50.0777331,24.1453178 48.453504,23.7503661 46.9369442,23.1550557 C46.5653542,22.9907327 46.1215471,22.770194 46.0112518,22.3031709 C45.9442868,21.7698419 46.1845729,21.2293059 46.5102066,20.8487685 C46.7820056,20.5547169 47.1942998,20.6628241 47.5028639,20.8213813 C48.7253031,21.4368717 50.0842983,21.8894806 51.4419805,21.686239 C52.4963507,21.5233575 53.387904,20.5273297 53.4706255,19.3525646 C53.5585991,18.5655441 53.1686266,17.8145594 52.6224024,17.3360048 C51.4354153,16.2794369 49.9136033,15.8556567 48.6360164,14.9634118 C47.6472982,14.2917056 46.7321101,13.3360379 46.4117286,12.0704628 C45.949539,10.2095773 46.6743364,8.0863516 48.11474,6.98654089 C48.7331813,6.50654486 49.4619179,6.21249324 50.207724,6.08132315" id="Fill-4" fill="#3F413E" mask="url(#mask-2)"></path>
                        <path d="M31.1347511,9.88246718 C31.7722495,9.08922286 32.786663,8.65206996 33.8072808,8.46823415 C35.0357449,8.20767944 36.4255224,8.38427763 37.4228738,9.13409617 C38.2294411,9.74060962 38.4745135,10.8392819 38.1441311,11.730958 C38.0138395,12.0899445 37.6431288,12.3693171 37.2243342,12.3461567 C35.2001605,12.366422 33.1728846,12.3722121 31.1471599,12.3780022 C30.7888579,12.3982676 30.2863044,12.2868081 30.2645891,11.8786057 C30.2009944,11.1273396 30.6740771,10.4556875 31.1347511,9.88246718 Z M40.1140166,20.0904215 C39.420679,20.3582138 38.8079981,20.7779964 38.106905,21.0298659 C36.5185878,21.6407219 34.6758918,21.8375855 33.0348376,21.2904206 C31.7753517,20.8691905 30.8338395,19.8501321 30.3669611,18.7022439 C29.9373089,17.654235 29.7465247,16.5135844 29.802364,15.3946467 C29.8457946,14.9198581 30.3917786,14.721547 30.8400439,14.746155 C33.571515,14.7345748 36.3029862,14.7504976 39.0344573,14.7403649 C39.5540728,14.7620778 40.1047101,14.5333686 40.3311694,14.0773979 C41.1687585,12.4605112 41.2245978,10.5005608 40.4707676,8.84748599 C39.9930315,7.8009246 39.0546215,6.9642545 37.9331828,6.52565408 C36.3495189,5.89598021 34.55956,5.91479805 32.8843817,6.15363986 C31.6466112,6.35484599 30.5748073,7.01926049 29.631744,7.76039387 C28.9632238,8.28584585 28.4761813,8.98355345 28.1008173,9.71455414 C27.0072981,11.9162414 26.8583934,14.416119 27.0988125,16.8016421 C27.2849434,18.6327626 27.9751789,20.4407228 29.2207049,21.8795637 C30.2925088,23.05785 31.9025412,23.7005516 33.5125736,23.9205756 C35.5677691,24.1985006 37.6508842,23.7193695 39.5106423,22.9145449 C39.9247835,22.7234715 40.3978663,22.5309505 40.6351832,22.1372234 C40.8259674,21.616114 40.8492337,21.0414461 40.7360041,20.5044139 C40.700329,20.2409642 40.4118261,19.9485639 40.1140166,20.0904215 L40.1140166,20.0904215 Z" id="Fill-5" fill="#3F413E" mask="url(#mask-2)"></path>
                        <path d="M95.8860638,10.2804419 C96.5190476,9.34084462 97.5460949,8.63144143 98.7329395,8.45191899 C99.9663271,8.22606818 101.365718,8.35926225 102.381905,9.10485948 C103.207266,9.69554621 103.475664,10.7886062 103.163826,11.6934572 C103.042815,12.0380245 102.710808,12.3478455 102.301231,12.3435022 C100.275062,12.3724574 98.2519959,12.3695619 96.2273786,12.381144 C95.8426237,12.4014127 95.2949686,12.3188902 95.2515286,11.8758752 C95.2236028,11.2895317 95.5571604,10.7567555 95.8860638,10.2804419 Z M105.328072,20.0499372 C104.828511,20.1382507 104.418934,20.4422806 103.972122,20.646415 C102.468785,21.4195197 100.700154,21.7843556 98.9935799,21.5295496 C97.9277469,21.3746391 96.9115596,20.8751614 96.2273786,20.0890268 C95.2484257,18.9771459 94.8884937,17.5149067 94.7938564,16.1105779 C94.781445,15.7327121 94.7069763,15.283906 95.0157111,14.9842194 C95.2996229,14.7366521 95.7185093,14.7540253 96.0815441,14.7424432 C98.709668,14.7467865 101.334689,14.7453387 103.95971,14.7453387 C104.485645,14.7728462 105.053469,14.5788461 105.307904,14.1228012 C106.178256,12.4868306 106.231005,10.480233 105.447532,8.80517282 C104.934009,7.70053072 103.897653,6.84924689 102.695294,6.43373931 C101.145415,5.89661975 99.4326348,5.92267946 97.8206981,6.16590341 C96.4538875,6.41491841 95.2732486,7.19381415 94.2756785,8.07115769 C92.8483621,9.5189193 92.2882955,11.5139348 92.0726466,13.4235324 C91.8538949,16.0352943 92.0633381,18.836713 93.6209747,21.0981166 C94.4339245,22.4228185 95.8814095,23.3262218 97.4452518,23.7127741 C100.036141,24.3961176 102.844231,23.7952965 105.152761,22.5951022 C105.810567,22.2780424 105.819876,21.5165198 105.80281,20.9171464 C105.774884,20.5957434 105.725239,20.1541761 105.328072,20.0499372 L105.328072,20.0499372 Z" id="Fill-6" fill="#3F413E" mask="url(#mask-2)"></path>
                        <path d="M2.28862158,6.40502689 C2.81433335,6.10033321 3.44668951,5.96277733 4.05200907,6.00862929 C4.5221456,6.08702135 4.62878999,6.62245394 4.72492014,7.00553969 C5.46692476,10.4607069 6.20742735,13.9158741 6.93140757,17.3754786 C7.03504789,17.8058954 7.06058246,18.2821642 7.32644241,18.6534171 C7.75301997,18.8456996 7.90923147,18.2422286 8.03089619,17.955284 C9.12137262,14.3566446 10.1682901,10.7461723 11.234734,7.14309557 C11.3428804,6.7703635 11.5321366,6.35621674 11.9376857,6.23049362 C12.4153324,6.08702135 12.9560645,6.06779311 13.426201,6.25415915 C13.8392603,6.42573423 13.9579209,6.89608662 14.0645653,7.28065146 C14.9042021,10.6041792 15.6852596,13.9410187 16.5113781,17.2675046 C16.6465612,17.7496898 16.727671,18.2866014 17.1227058,18.6401053 C17.4381329,18.4522601 17.6018546,18.1224218 17.6799603,17.7807508 C18.557148,14.1850695 19.4733885,10.5967837 20.3986412,7.01293517 C20.5007795,6.58399746 20.7290886,6.06335582 21.238278,6.01750386 C21.7790101,5.99679652 22.354289,6.14766427 22.7838706,6.47602348 C23.1278363,6.80586179 22.9851431,7.31467066 22.8724906,7.71254736 C21.370457,12.8435298 19.9014681,17.986345 18.378406,23.1114111 C18.1455907,24.0609905 16.8508377,24.2340446 16.146384,23.7045284 C15.8129325,23.4027929 15.7092922,22.9472315 15.5906315,22.5360429 C14.7074357,19.1918079 13.825742,15.8475729 12.9620726,12.5003797 C12.8749547,12.1439176 12.7307595,11.7889347 12.4153324,11.5744658 C12.0368199,11.9871335 11.8791064,12.5284825 11.7093766,13.047645 C10.6909978,16.2957388 9.72218607,19.5601027 8.68428083,22.8022801 C8.53708153,23.1912823 8.4199229,23.6853002 7.97982705,23.8480007 C7.53672712,23.9988684 7.02753772,24.0166176 6.58593983,23.8494798 C6.18940295,23.6897375 6.05572195,23.2504461 5.9505796,22.877714 C4.6558266,17.7733553 3.3655797,12.6675174 2.07833687,7.56020052 C1.99572502,7.17563568 1.88757859,6.65203585 2.28862158,6.40502689" id="Fill-7" fill="#3F413E" mask="url(#mask-2)"></path>
                        <path d="M133.654163,6.09450921 C135.102943,5.86522743 136.764333,6.1261863 137.797007,7.2454434 C138.270822,7.70702382 138.465208,8.35112461 138.822088,8.8896351 C138.913206,9.08271449 139.142521,9.11891688 139.333869,9.05707113 C139.65582,8.83683995 139.836538,8.47783296 140.078002,8.18218014 C141.084859,6.84269186 142.7341,6.00400325 144.421306,6.00400325 C145.624068,5.95271653 146.870869,6.39468733 147.677266,7.30276384 C148.656788,8.37676796 148.986332,9.87615012 148.996963,11.2895516 C149.003037,15.1179539 148.996963,18.9463562 149,22.7747586 C148.996963,23.1895776 148.992407,23.7718326 148.497331,23.9106084 C148.02959,24.0327915 147.499586,24.0388252 147.062218,23.8216109 C146.687114,23.6224978 146.630925,23.1594089 146.635481,22.7823007 C146.635481,19.6869967 146.636999,16.5947096 146.635481,13.4994056 C146.620294,12.3288618 146.741785,11.113065 146.312011,9.99682474 C146.055361,9.25015052 145.498021,8.56079676 144.714403,8.33453185 C143.564795,7.98759231 142.299769,8.43257997 141.45085,9.23204933 C140.342245,10.2773932 139.74542,11.7435899 139.423469,13.2037528 C139.05444,14.8449276 139.1653,16.5388976 139.150114,18.2072242 C139.145558,19.8302978 139.159226,21.4533715 139.145558,23.0779535 C139.141002,23.4233846 139.017992,23.8683723 138.621628,23.9407771 C138.193372,24.0116734 137.734743,24.0388252 137.318636,23.9075916 C136.870638,23.7326134 136.837228,23.1925944 136.837228,22.7853176 C136.837228,19.2480428 136.840265,15.7122764 136.835709,12.1750016 C136.802299,11.0979806 136.667141,9.93799586 135.970086,9.06612173 C135.339851,8.28324513 134.206947,8.08413201 133.269947,8.33151498 C132.067186,8.63923526 131.142335,9.58200573 130.536399,10.6213159 C129.625216,12.200645 129.298709,14.0530004 129.327563,15.857086 C129.323007,18.1680049 129.336675,20.4774155 129.347305,22.786826 C129.342749,23.1488499 129.351861,23.616464 128.981314,23.8170856 C128.510536,24.0478758 127.919786,24.0524011 127.436859,23.8623386 C127.06783,23.7099869 126.993416,23.2755582 127.002528,22.9240934 C127.002528,17.7697787 127.004047,12.615464 127.002528,7.46114928 C126.981267,7.06744833 127.089091,6.58022456 127.517347,6.44295718 C128.023053,6.2921139 128.676067,6.26043681 129.093693,6.63603657 C129.529542,7.20169885 129.093693,8.00569351 129.471834,8.59850758 C129.859086,8.73426652 130.102068,8.29983789 130.349606,8.07960671 C131.187895,7.08102423 132.326873,6.26797898 133.654163,6.09450921" id="Fill-8" fill="#3F413E" mask="url(#mask-2)"></path>
                    </g>
                </g>
            </g>
        </g>
    </g>
</svg>