<?xml version="1.0" encoding="UTF-8"?>
<svg width="83px" height="91px" viewBox="0 0 83 91" version="1.1" xmlns="http://www.w3.org/2000/svg" xmlns:xlink="http://www.w3.org/1999/xlink">
    <!-- Generator: Sketch 46.2 (44496) - http://www.bohemiancoding.com/sketch -->
    <title>WWE2</title>
    <desc>Created with Sketch.</desc>
    <defs></defs>
    <g id="CH.me-Design" stroke="none" stroke-width="1" fill="none" fill-rule="evenodd" opacity="0.5">
        <g id="CH.me-Homepage" transform="translate(-451.000000, -3349.000000)" fill="#1A1919">
            <g id="Group-16" transform="translate(0.000000, 3021.000000)">
                <g id="Group-17" transform="translate(218.000000, 233.000000)">
                    <g id="WWE2" transform="translate(233.000000, 95.000000)">
                        <path d="M17.0151096,84.0906678 C20.0915934,82.4865366 22.9877743,80.7712587 26.0369551,79.1247366 C30.1916507,76.8713019 34.0856797,74.5377381 38.5231934,72.6332523 C47.7423418,68.6883198 56.8842176,66.0166633 66.2094872,63.1485615 C66.3408508,63.1020349 66.4330629,62.9521161 66.3887599,62.8146044 C66.3460023,62.6739909 66.1960933,62.5814548 66.0533964,62.6259135 C55.5005211,65.8564053 44.9934942,68.8640867 34.849134,73.7276596 C31.7020744,75.2397717 28.8723481,77.0212207 25.8061673,78.6496491 C22.7209259,80.2863489 19.8190783,82.0248901 16.7297157,83.6502167 C14.5557771,84.7823622 7.4095976,89.1951447 7.47038546,89.3269699 C7.53117332,89.4649986 14.8200497,85.24039 17.0151096,84.0906678" id="Fill-1"></path>
                        <g id="Group-5" transform="translate(0.000000, 58.440367)">
                            <path d="M27.1777275,17.8442544 C30.0814099,16.6085638 32.4715298,14.9044346 35.3669951,13.6671685 C37.5624748,12.7266153 39.6054264,11.9646148 41.8728049,11.1128128 C48.7206473,8.54585336 54.9357806,6.39166603 61.7831094,4.18181222 C67.938156,2.19830038 74.010519,0.266778929 80.3761262,0.668522788 L80.7104554,0.681651672 L80.5137609,0.555614383 L80.5558731,0.625985203 C80.8260069,0.818717224 81.0668678,1.01565049 81.2111788,1.31341358 L81.2892403,1.75611956 L81.3863036,1.43472447 L81.2281264,1.63375836 C81.1367123,1.77344969 81.0704627,1.96618171 80.9533704,2.03760284 C77.4806608,4.0668032 73.9442694,5.71316529 70.7350174,8.23863747 C68.4373388,10.0441216 65.5367378,11.0623979 63.9826976,13.5731657 L63.9349363,13.7401651 L64.1100611,13.530103 L64.0345674,13.546908 L63.9914282,13.5731657 C63.9077175,13.6083511 63.8419815,13.6860741 63.8311967,13.7816524 L63.8060321,13.8630515 L63.8640647,13.9223941 C63.8419815,14.0662866 63.9159345,14.2038773 64.0540828,14.236437 L64.0931136,14.2590186 L64.1285494,14.2605941 L63.9436669,14.0746891 L64.1285494,14.3283392 C65.744217,14.3509208 66.9967959,12.8495016 68.4255268,12.1836046 C68.5513496,12.0985294 68.5950024,11.9299546 68.5118053,11.8086437 C68.4373388,11.6873328 68.2694038,11.640594 68.1502573,11.721993 C66.9967959,12.5512134 65.637396,13.0600889 64.5645639,14.0316264 L64.4613379,13.9307965 C64.4341191,13.8315422 64.3658153,13.7658978 64.2759418,13.7364891 L64.2369111,13.7275614 L64.1999346,13.7102313 L64.1465241,13.651939 L64.3267845,13.9654568 L64.3493813,13.8824822 L64.1809328,14.0783652 L64.2338297,14.0594596 L64.2964843,14.0347773 C64.388412,13.9985416 64.4490124,13.9223941 64.4680142,13.8304919 L64.6220829,13.4712856 C66.3527886,11.4095256 68.8466481,10.3093251 70.9928258,8.69342202 C74.2226203,6.26037718 77.6696518,4.47694954 81.1875549,2.57746256 C81.3996563,2.464029 81.5203434,2.17046715 81.6795478,1.96145531 L81.7000903,1.88005623 C81.7796925,1.81966336 81.8171826,1.72408508 81.8069113,1.61905401 L81.7437431,1.27665271 C81.4710414,0.930050163 81.3657611,0.416973365 80.8871209,0.264678307 L80.9672366,0.264678307 C80.9097176,0.183279225 80.8090594,0.128137911 80.7104554,0.147043504 L80.3576379,0.109232317 C76.3867727,-0.10555623 72.4102583,0.625985203 68.5046154,1.58229313 C66.3009188,2.12215286 64.2369111,2.84634211 62.0491348,3.53534596 C55.0687933,5.73259603 48.7499203,7.94717624 41.7824179,10.5782046 C39.0543739,11.6143362 36.4865614,12.3968177 33.9988646,13.7364891 C30.2154497,15.7719913 26.7576334,18.0212317 22.5099579,19.1996804 C17.2839459,20.6365055 12.8216014,22.5223384 7.74195469,24.0694461 C7.60380637,24.1125089 5.20803731,24.9475059 5.22960694,25.09665 C5.25220369,25.2421181 7.67930006,24.6297869 7.82361112,24.6124568 C7.82361112,24.6124568 20.698623,20.6034207 27.1777275,17.8442544" id="Fill-2"></path>
                            <path d="M51.0671143,7.37790781 C42.6518792,9.9727005 34.4877761,12.5149777 26.154711,16.0687041 C23.0753903,17.3789667 20.139867,18.4602616 17.2772696,20.0640861 C14.6021226,21.5754833 11.9870623,23.0275379 9.43876519,24.7316671 C6.35071387,26.7986786 2.85078544,28.4025031 0.589056187,31.4599577 L0.287595,31.7782018 L0.337410563,31.7293624 L0.25678125,31.7971074 C0.214669125,31.8265161 0.187450312,31.8648525 0.161772187,31.9168429 L0.124282125,32.0276506 L0.207992813,31.9063397 L0.105793875,31.9929904 L0.0970633125,32.0749146 C0.0077034375,32.1563137 -0.0261916875,32.2876025 0.0220831875,32.4089134 C0.0867920625,32.5328501 0.241374375,32.60007 0.38003625,32.5328501 L0.568000125,32.4425234 C4.53064838,30.2053615 8.16872512,27.5055377 12.2191926,25.3098631 C16.6733201,22.9067521 20.7422758,20.3193116 25.5754125,18.4150983 C30.9154354,16.3055491 35.9688904,14.6392311 41.1974702,12.8358476 C47.4716633,11.5618207 53.2251039,9.24010876 59.4530764,7.00189657 C63.558495,5.52988606 67.4703006,4.37664487 71.6907572,4.03581903 C73.8759656,3.8525398 76.1248558,3.15513347 78.2736013,3.95074386 L78.3480679,3.96282243 L78.1467514,3.81157769 L78.1806465,3.88404913 C78.2124874,3.95074386 78.2633301,3.99800784 78.3362559,4.0232153 L78.4194531,4.0668032 L78.2926031,3.97175007 L78.3691239,4.05157369 L78.4353735,4.21122092 C78.4584838,4.25060758 78.4857026,4.27528988 78.5242198,4.29104454 L78.6079305,4.34408523 L78.4738907,4.10303892 L78.4687551,4.21122092 C78.4266429,4.37244362 78.4194531,4.57147751 78.3028744,4.67808405 C75.7484145,7.12950932 72.6988804,8.11417564 69.7761962,9.67441225 C69.384348,9.88552471 68.9144383,9.93436416 68.4614762,9.82513184 C68.3089481,9.79204706 68.1743948,9.89235173 68.1425539,10.0330934 C68.1235521,10.1895897 68.2098306,10.3350577 68.3608179,10.3555388 C68.9776065,10.5398683 69.5949086,10.3854726 70.1397984,10.1339232 C72.7158279,8.8583208 75.2024976,7.62945724 77.5828598,6.02563273 C78.1806465,5.62388887 78.8832,5.20849097 79.0105635,4.40657872 L79.0033736,4.12194451 C79.0105635,4.02163983 78.9643429,3.92343578 78.8775508,3.86986993 L78.7825418,3.82470657 L78.899634,3.98120287 L78.8374929,3.82260595 C78.8272217,3.78216898 78.8133555,3.76273824 78.7979486,3.74120687 L78.7255363,3.65193045 C78.6978039,3.60834256 78.6587732,3.57000621 78.6027949,3.55530186 L78.5165164,3.52326739 L78.6762343,3.67293667 L78.6387443,3.59101243 C78.6069034,3.5148649 78.5355182,3.44134315 78.4358871,3.43504128 L78.0953951,3.30532791 C65.1346183,2.16626591 53.6272234,9.89445235 41.2026058,12.2597521 C34.3521956,14.8750259 27.2254888,16.5980607 20.6421311,20.0950703 C13.7110916,23.7722082 7.10205581,27.6420781 0.580325625,31.8627518 L0.14585175,32.0449808 L0.304542563,32.018723 L0.310705312,31.9252453 L0.440123063,32.4089134 L0.536672812,32.3311904 C0.580325625,32.3086088 0.603435938,32.2692221 0.6203835,32.2256342 L0.660441375,32.1127258 L0.580325625,32.2256342 L0.668144813,32.1563137 C0.708202688,32.1284805 0.73747575,32.079641 0.760586063,32.0276506 L1.00915031,31.7918559 C3.26060831,28.7580333 6.75231975,27.182042 9.84088463,25.1397128 C12.9155833,23.1094621 15.9533055,21.2315065 19.3094364,19.6402857 C29.7953556,14.6633883 40.444074,11.211542 51.3090023,7.86735262 C51.4394471,7.78962962 51.4938847,7.62945724 51.4240403,7.49449231 C51.35625,7.36792986 51.1862608,7.31436401 51.0671143,7.37790781" id="Fill-4"></path>
                        </g>
                        <path d="M64.2481802,63.8991563 C69.7804209,62.5734837 75.4386599,61.9111862 81.0725122,61.5172567 L81.1832688,61.5021677 L80.9734409,61.431573 L81.0410126,61.4935455 C81.0725122,61.5334234 81.1121407,61.5485124 81.1593901,61.5668347 L81.3326377,61.6072515 L81.1665029,61.4978566 L81.2300101,61.5770736 C81.2569371,61.6341961 81.3057107,61.6686852 81.3560084,61.6864686 L81.6044486,61.9650754 L81.5475462,61.9365141 L81.6887862,62.0426757 L81.5968278,61.927353 L81.6466174,62.0292034 L81.6771009,62.0841703 L81.6669397,61.8572971 L81.6151179,61.9877088 C81.4235801,62.6796452 80.9800457,63.1576418 80.4882458,63.6652774 C77.9367798,66.2401001 75.826308,68.7335502 72.9954103,70.6961923 C70.4246381,72.5052504 67.9905335,74.6085432 64.9752108,75.4405913 L64.6271913,75.4255024 L64.879696,75.8695488 L64.9157681,75.8118875 C64.9462515,75.7768595 64.9604772,75.7229704 64.9650497,75.680398 L65.0631048,75.1565956 L64.950316,75.347902 L65.0829191,75.2568294 C66.4876987,73.7247614 68.9609238,71.3848954 70.3042284,69.7633714 C70.4099044,69.6555932 70.4027916,69.4799146 70.3042284,69.3678252 C70.194996,69.2643581 70.0319095,69.2643581 69.9226771,69.3748308 C68.6220493,70.9419267 66.2128395,73.2995762 64.8075518,74.7486549 L64.6546264,74.8952333 C64.6114415,74.9237946 64.572321,74.9771448 64.5601277,75.0321117 L64.4635967,75.4502914 C64.501701,75.5359751 64.5489504,75.6162699 64.5789258,75.7019536 L64.4529275,75.5359751 C64.3828155,75.6394422 64.396025,75.7854818 64.4829029,75.8819433 L65.1017172,75.9724771 C68.2831748,75.100012 70.8448019,72.9007966 73.547669,70.9650991 C76.5243793,68.8208506 78.8045424,66.1695053 81.4433943,63.4033763 C81.7909058,63.0304635 81.9839678,62.5977338 82.1033613,62.1014149 L82.1521349,62.0636925 C82.1821103,61.9877088 82.1689008,61.9063362 82.1521349,61.837897 L82.1196192,61.7856246 L82.0764343,61.6864686 C82.056112,61.6471295 82.0291849,61.5997071 81.9778711,61.5770736 L81.8315504,61.4714509 L81.9402748,61.6185683 L81.6384885,61.2057775 C81.6501738,61.2041608 81.6532222,61.2127831 81.6628753,61.2127831 L81.6227387,61.1966164 C81.5846344,61.1335661 81.5338286,61.0936881 81.4672731,61.0721325 L81.2945334,61.0274045 L81.4098625,61.0899159 L81.3377183,61.0274045 C81.2858964,60.9659709 81.21172,60.9449541 81.1294147,60.9449541 L80.7412585,60.9880654 C75.1709135,61.3701394 69.5639883,62.0550702 64.0891581,63.3613427 C63.9428375,63.4076874 63.8788222,63.5742048 63.9245474,63.7197055 C63.9631598,63.8625117 64.1104966,63.9433454 64.2481802,63.8991563" id="Fill-6"></path>
                        <path d="M75.1829036,67.6346892 C73.2261302,68.3454865 71.1647165,68.5356917 69.1336484,68.6880885 C68.9918609,68.7165902 68.8673389,68.8631704 68.893499,69.0178939 C68.9018702,69.1795974 69.0316242,69.3029108 69.1786438,69.2930225 C71.262032,69.134809 73.3422809,68.9050504 75.3388177,68.2221731 C75.4837445,68.1721497 75.5653639,67.9976495 75.5151366,67.834201 C75.4706644,67.6806409 75.3299232,67.5916458 75.1829036,67.6346892" id="Fill-7"></path>
                        <path d="M75.8756902,64.2875422 C72.2179062,64.5359053 68.6145831,65.1422783 65.0039288,65.6925529 C62.4767325,66.0684124 59.7814406,66.4509017 57.5380695,67.729946 L57.3322701,67.9726992 C57.3092289,67.9966685 57.2977084,68.0267577 57.2793802,68.0609267 C57.2406291,68.195053 57.3254625,68.3521286 57.4689461,68.3822177 L57.740727,68.4587156 C62.056755,68.2460515 66.3256534,67.4958625 70.6139273,66.9450779 C72.7494239,66.6666257 74.8775891,66.2805665 76.9821895,65.7649709 C77.1214838,65.7338618 77.2188851,65.6027954 77.1822287,65.4579595 C77.1476669,65.3095536 77.00942,65.2203061 76.8690784,65.2498853 C70.6971897,66.6079773 64.402764,67.2566792 58.1140985,67.94261 L57.6160953,67.8819217 L57.7532949,68.3118397 L57.9920851,67.9844289 C63.7419016,65.8894074 69.9321185,65.5783161 75.9636656,64.8097676 C76.1123858,64.7847783 76.2139763,64.6475921 76.1872695,64.5063261 C76.1668467,64.36557 76.0265051,64.2651028 75.8756902,64.2875422" id="Fill-8"></path>
                        <path d="M79.7625655,62.1404205 C79.9254769,63.318912 78.73176,63.8409165 78.1091024,64.6018044 C77.986774,64.7244902 77.9925716,64.9144173 78.1131607,65.0388726 C78.2296916,65.1491718 78.421011,65.1474023 78.5404406,65.0247165 C79.3103561,64.2095637 80.3776863,63.5572056 80.5098706,62.2996761 C80.5139289,62.2041227 80.4217477,62.1191864 80.3469592,62.0259924 C80.3104346,61.8555299 80.1567994,61.7517188 80.0020046,61.7865191 C79.8240196,61.8260381 79.7266207,61.9829344 79.7625655,62.1404205" id="Fill-9"></path>
                        <path d="M76.5807472,59.6987654 C76.553757,59.6775562 76.529362,59.6689715 76.5039289,59.657862 L76.6425132,59.6002942 L76.5807472,59.6987654 Z M78.5899598,59.299831 C78.0081134,59.2518579 77.4179624,59.2624624 76.8464968,59.4371856 L76.5039289,59.657862 C76.000977,59.3957772 75.4783014,59.5770651 75.0153157,59.7310841 C74.2512855,59.9780194 73.5033455,60.2340444 72.7663055,60.4930993 C72.7663055,60.4678503 72.7663055,60.4466411 72.7580008,60.424422 C72.7128442,60.2744429 72.5607648,60.1956659 72.4216614,60.2416191 C68.7686419,61.2621842 65.2593971,62.7473311 61.4807694,63.2841251 C59.868105,63.8436433 58.259074,64.4279054 56.6624999,65.0157024 C53.8254149,65.7075253 51.0127248,66.3978333 48.5052316,67.8693458 L48.3728758,67.8824753 C48.3214906,67.8940898 48.2789291,67.9127741 48.2358486,67.9577173 L48.1517638,68.0410391 L48.1258117,68.0541686 L48.0884406,68.0238697 L48.043803,68.0728528 C48.0406887,68.0758827 48.0406887,68.0758827 48.0370554,68.0794176 L48.0178509,68.0874973 C47.9903416,68.1127463 47.9695799,68.14456 47.9597181,68.1864734 C47.9524515,68.2011178 47.9488182,68.2091975 47.9488182,68.2278818 C47.9451849,68.2647453 47.9410326,68.3066587 47.9488182,68.3465521 C47.9524515,68.349582 47.9488182,68.3510969 47.9524515,68.3591766 L47.9545277,68.3546318 C47.9680228,68.3859406 47.9804798,68.4046249 47.9976082,68.426339 C46.5536326,68.988887 45.1283425,69.5716342 43.7009763,70.1821553 C43.5649872,70.2437629 43.5156782,70.4104064 43.57433,70.5321066 C43.5930155,70.5644254 43.6132581,70.5876545 43.6371341,70.6139134 C43.5805585,70.626033 43.5281352,70.6421923 43.4679263,70.6588567 C36.8574039,72.5298085 30.9813263,75.8041004 24.2965809,77.1271487 C24.15073,77.1473479 24.0515929,77.2821776 24.0728736,77.4225621 C24.0983067,77.5624417 24.2394862,77.6609128 24.3775515,77.6391987 C28.2599877,76.8701137 31.8164653,75.483438 35.5104892,74.0366696 C35.5058178,74.0684833 35.5058178,74.0987821 35.5058178,74.1316059 C35.5281366,74.2714854 35.668278,74.3689466 35.8130908,74.3502623 C44.9067115,71.6592226 53.4018764,68.3263529 62.6865046,65.1000341 C64.9946855,64.3067101 67.123797,63.874447 69.4267875,63.0674886 C70.1679799,62.8195433 70.9205912,62.6791588 71.6529598,62.469087 C71.7972536,62.4473729 71.9041763,62.3110282 71.8621339,62.1650889 C71.8424103,62.0252094 71.7064212,61.9348179 71.556937,61.957037 C70.1902987,62.3458718 68.8288508,62.7407664 67.4819361,63.1417207 C67.4907598,63.1008173 67.4933551,63.0619338 67.4840123,63.0144657 C67.4663649,62.9442734 67.4284748,62.8947854 67.3682659,62.8584268 C69.8695306,62.1302453 72.2976103,61.2849083 74.8294985,60.3092865 C75.3563265,60.1138591 75.8779639,59.990644 76.431782,60.1158791 L76.5807472,60.1158791 C76.6804033,60.1451679 76.7712357,60.1158791 76.8381921,60.0522515 L76.9290245,59.9780194 C77.4574096,59.7270443 78.0096706,59.7931967 78.5640077,59.8174357 C78.702592,59.8260204 78.838062,59.7230044 78.85,59.5770651 C78.85,59.4351657 78.7352917,59.3119505 78.5899598,59.299831 L78.5899598,59.299831 Z" id="Fill-10"></path>
                        <path d="M82.8083363,65.433444 C80.63555,64.4403404 78.2577546,64.2459369 75.8804769,64.2901662 C75.6982465,64.2814232 75.5362065,64.4156542 75.5305118,64.5889716 C75.5206755,64.7715463 75.6537243,64.9176061 75.835437,64.936635 C78.1588739,64.9176061 80.4610852,65.1521246 82.6530263,65.9441389 C82.7917699,65.9827111 82.9362081,65.9071097 82.9884958,65.7600213 C83.0325003,65.6201331 82.9455267,65.4792163 82.8083363,65.433444" id="Fill-11"></path>
                        <path d="M10.5811176,33.321407 L10.7258962,33.6346475 L10.7949366,33.7920469 C10.7949366,33.7920469 11.0242124,34.4600854 11.28028,35.2070834 C10.8289415,34.1795716 10.3714204,33.147904 10.3714204,33.147904 C10.2034565,32.7624573 10.0308556,32.3712963 9.85928519,31.9822132 C10.1009264,32.4497363 10.3374154,32.9011558 10.5811176,33.321407 Z M24.3376662,67.0344945 C23.9445483,65.6755608 23.4056214,64.3758467 22.8893644,63.1171708 C22.8893644,63.1171708 22.1649559,61.3120123 22.1046744,61.1603271 C22.1165246,61.1530545 22.1355879,61.1431845 22.1355879,61.1431845 C22.2911864,61.0351348 22.3808358,60.8590344 22.3937164,60.6652721 C22.5915634,60.7577378 22.815687,60.7577378 23.0171406,60.6346234 C23.1073052,60.580079 23.1830435,60.4876133 23.2525991,60.3920308 C23.3633728,60.6481296 23.8878734,61.8449886 23.8878734,61.8449886 C24.4113436,63.0350945 24.9440878,64.2709138 25.5041391,65.4563445 C25.4979563,65.4599807 25.319688,66.3155479 25.319688,66.3155479 C25.1517241,67.1025451 24.9796384,67.920191 24.9002936,68.7316032 C24.7173881,68.3300528 24.3392119,67.4989007 24.3227246,67.4526679 C24.3479707,67.380981 24.3685798,67.30358 24.3685798,67.2334515 C24.3685798,67.1612452 24.3520925,67.0978698 24.3376662,67.0344945 Z M27.8149301,67.3482544 C27.8278108,67.3103331 28.0838783,66.6355415 28.344583,65.9358153 C28.2121698,66.5893087 28.1132463,67.2292958 28.0529648,67.8422704 C27.9787721,67.6895462 27.8865466,67.4869529 27.8865466,67.4869529 C27.8865466,67.4869529 27.8381153,67.3944873 27.8149301,67.3482544 Z M27.6686058,72.2749085 C27.6727276,72.2406234 27.6727276,72.2032216 27.6727276,72.1684171 C27.6727276,72.0073814 27.6263572,71.8525793 27.5341316,71.7320623 C27.4609695,71.6432329 27.3579242,71.5881691 27.2419982,71.5575203 C27.2229348,71.2894738 27.0843389,71.085322 26.8772178,70.9871422 C26.8875223,70.8738977 27.0575471,69.3118512 27.0575471,69.2863972 C27.059608,69.2671768 27.1518335,69.0354932 27.1518335,69.0354932 C27.1518335,69.0354932 27.2023257,68.9222487 27.2466352,68.8074458 C27.3156756,68.8967947 27.4017184,68.9721178 27.5042485,68.994455 C27.6495424,69.0323764 27.7963819,68.9980913 27.9241581,68.9014699 C27.9437367,68.8812106 27.9628001,68.8588734 27.9854701,68.8380946 C27.9725894,69.0323764 27.9684676,69.2141909 27.9684676,69.3840576 C27.9684676,69.5040552 27.9684676,69.6209359 27.9725894,69.7346999 C27.9725894,69.9793703 28.1008808,70.1788468 28.2920299,70.2718319 C28.0885154,71.5679097 27.7860774,72.8790522 27.4728197,74.1611043 C27.5712279,73.4883905 27.6330551,72.8671043 27.6686058,72.2749085 Z M52.4726418,60.4657956 C52.914191,61.075134 53.3315245,61.6486289 53.3629533,61.6849918 C53.3449203,61.7395362 53.3207047,61.8964161 53.3207047,61.8964161 C53.3207047,61.8964161 53.2856693,62.0699191 53.259908,62.2247212 C53.0399062,61.6486289 52.7797168,61.066303 52.4726418,60.4657956 Z M73.87,11.8657351 C73.87,11.7976845 73.8493909,11.7867757 73.8308428,11.7722305 L73.7896247,11.7524907 L73.7422238,11.7680748 C73.4202072,11.8979423 69.5585843,21.6125519 67.8727631,26.9521846 C67.840819,26.9272501 67.8181491,26.9095881 67.7913573,26.8903677 C67.9036767,26.3340153 67.9577755,25.782338 67.9577755,25.2441671 C67.9577755,24.8966416 67.9304685,24.5522329 67.8882199,24.2119801 C69.1412508,20.0562196 70.1000874,15.9305883 70.7317551,11.9394999 C70.7436054,11.8979423 70.7559708,11.8496316 70.7559708,11.8044377 C70.7559708,11.6272984 70.6652909,11.4314582 70.5066012,11.3182137 C70.3989188,11.2569162 70.2958735,11.2475658 70.1984957,11.2782145 C70.0846306,11.3182137 69.9975573,11.3987315 69.9532478,11.5156123 C68.9640129,14.5093183 68.1164652,17.6266581 67.2941637,20.6338703 C67.2941637,20.6338703 66.9448401,21.8951436 66.5996383,23.1309629 C66.7119577,22.5434422 66.8428252,21.8686506 66.8428252,21.8686506 C66.8361273,21.8795595 67.0319134,21.0494463 67.0319134,21.0494463 L67.1715398,20.4437442 C68.4446645,15.8947449 69.3133365,10.6756292 69.8192889,7.09959732 C70.0712347,5.32768494 70.2891756,3.55265574 70.426741,2.12047679 C70.624588,0.0825957396 70.5612152,0.0524664761 70.4968118,0.0166230419 L70.4504415,0 L70.4133451,0.0166230419 C70.3108151,0.0727258085 70.208285,0.460250474 68.7393741,6.29545766 C66.7274145,14.2745178 62.9935678,29.1204527 59.907876,38.9020739 C59.8821147,38.9716829 59.869234,39.048045 59.869234,39.1259655 C59.869234,39.316611 59.9470332,39.5031008 60.0748094,39.6589418 C59.2272617,42.1814884 58.5306755,44.8484477 57.9999921,47.6078726 C56.8438238,50.2192486 55.9973066,53.0508799 55.1033885,56.2206862 C55.1033885,56.2206862 55.1610939,56.2035437 55.1987054,56.1947127 C55.1492437,56.2165305 55.081749,56.2373093 55.081749,56.2373093 C55.081749,56.2373093 55.1492437,56.5573028 55.1631548,56.6019773 C55.1425457,56.6440543 53.9106391,60.4237185 53.7962588,60.7769582 C52.040882,57.7946805 49.9789454,54.7817542 47.1338644,51.0441671 C47.0844027,50.9537793 46.9926923,50.8883261 46.8917079,50.8753393 C46.7912388,50.8581968 46.6995284,50.8883261 46.6114247,50.9558572 C45.1780645,48.217211 43.9399751,46.2027061 42.6086297,44.4209238 C42.570503,44.3445617 42.4994017,44.2894979 42.409237,44.2681996 C42.3381358,44.2515766 42.268065,44.2681996 42.1943876,44.2920952 C42.1299843,44.2172916 41.6271232,43.6396409 41.6271232,43.6396409 C41.5544762,43.5560062 41.4576136,43.5128902 41.3540531,43.5128902 C41.2443098,43.5154875 41.1361123,43.5747071 41.0572826,43.6744453 C41.0382192,43.7014578 41.0248233,43.7269118 41.0114274,43.7523659 C40.8681945,43.4837998 40.4596198,42.7155036 40.4596198,42.7155036 C39.2096802,40.36646 37.9277966,37.94521 36.5603854,35.638763 C36.470736,35.5042202 36.3238964,35.4533122 36.1744807,35.4938308 C36.1353235,35.4668184 36.063707,35.4294165 36.063707,35.4294165 C35.833916,35.3935731 35.6128838,35.5629203 35.5459043,35.812266 L35.5325084,35.8756413 C35.5325084,35.8756413 35.5422977,35.8844723 35.5459043,35.8886281 C33.752916,40.5352878 32.3932331,44.9944188 31.506013,49.1439456 C30.2797739,52.2934926 29.4961143,55.7084888 28.7428531,59.0117989 C28.7428531,59.0117989 28.5326407,59.9073653 28.5053337,60.0299602 C28.2456595,60.0387912 28.0143228,60.2289172 27.9195211,60.5250152 C27.9195211,60.5208594 27.5902913,61.456425 27.5088855,61.7036927 C27.3089776,61.7182379 27.1265874,61.8496638 27.0235421,62.0584908 L26.625272,62.8065277 C26.625272,62.8065277 26.2728571,63.4750856 26.1486875,63.711964 C24.9420269,61.0247454 23.825531,58.6159627 22.435965,56.4321106 C21.6028437,54.0067049 20.6182458,51.6748037 19.5166914,49.50238 C19.5980972,49.3745903 19.6527113,49.2291387 19.6527113,49.0831676 C19.6527113,48.9751178 19.6274652,48.8738212 19.5857318,48.7844723 C15.6421879,40.6584022 9.58673035,26.4607659 5.9631421,17.9830146 C2.94133845,10.9088713 2.70587992,10.3873233 2.60798688,10.3509604 L2.56522307,10.3353763 L2.52555063,10.3566746 C2.50648725,10.3712198 2.49,10.3842065 2.49,10.4538155 C2.49,10.6361495 2.60798688,11.1925019 3.12991136,13.082334 C3.42822753,14.1825716 4.0701998,16.4510973 4.97287669,19.2868844 C5.8018762,21.8847542 6.88076057,25.0483269 8.06835774,27.9750212 C7.64020449,27.0467282 7.20844465,26.1205131 6.75659097,25.2171546 C6.69373334,25.1127411 6.59738597,25.0394959 6.4969168,25.0239118 C6.39129536,25.0036524 6.28876528,25.0280675 6.20323767,25.0976765 C6.08112898,25.2057263 6.01621044,25.3626062 6.01621044,25.513772 C6.01621044,25.58442 6.03063678,25.6535095 6.0641265,25.7158459 C7.13682816,29.2383724 8.53875957,32.8554424 10.2281874,36.4678372 C10.2281874,36.4896549 10.2281874,36.5109532 10.2281874,36.5270568 C10.2281874,37.3062619 10.3714204,38.0953369 10.6439752,38.8761004 C10.62079,38.8932429 10.5976048,38.9150606 10.5811176,38.9358395 C8.33782122,34.3125559 3.51014855,25.991165 3.18710151,25.9044135 L3.14433771,25.8955825 L3.10672617,25.9199976 C3.08560188,25.9340233 3.06911463,25.9444127 3.06911463,25.9844119 C3.06911463,26.1984336 3.50087447,27.1952966 6.4484855,33.1520598 C6.42736121,33.2112794 6.40881306,33.2673822 6.40881306,33.3255628 C6.40881306,33.3702372 6.41705668,33.4123143 6.42066327,33.452833 C8.205408,38.9612935 10.8119391,44.0193735 13.3329425,48.9029115 C15.0476164,52.2311562 16.8148435,55.6679701 18.3090004,59.2112754 C20.7609635,63.1192487 23.0171406,67.5939638 25.2295233,72.9029478 C25.3696649,73.4785206 25.5530856,74.1029236 25.7643285,74.7590143 C25.7643285,74.7844683 25.7225951,76.4956027 25.7225951,76.4956027 C25.5845144,77.054033 25.5355679,77.5807757 25.5355679,78.0664802 C25.5355679,79.3781421 25.9410512,80.3360449 26.2640982,80.6300649 C26.3856917,80.7391536 26.4799781,80.7479846 26.5345921,80.7225306 C26.5747798,80.7085049 26.6129066,80.6778562 26.6443354,80.6212339 C26.7010103,80.6498048 26.7597461,80.6778562 26.818482,80.680973 C27.1332854,80.7225306 27.4254188,79.8622882 27.5516493,79.3937262 C28.3064562,81.0861596 28.5568563,81.0051223 28.6542341,80.9677205 C28.7614012,80.9303186 28.8036498,80.7651271 28.8036498,80.5266904 C28.8036498,79.613462 28.1359162,77.5807757 27.9555869,77.054033 C27.9669219,77.0129949 28.4234126,74.8307012 28.4234126,74.8307012 C28.9133931,72.5995773 29.4193455,70.3030001 29.4193455,68.0303186 C29.4193455,67.7066888 29.409041,67.3840979 29.3848254,67.0630654 C29.7063267,65.1992068 30.298322,63.3353482 30.8661017,61.5364234 C31.3323817,60.0590505 31.8177251,58.5297307 32.1567441,56.9910603 C33.8776008,53.1334757 35.3027174,49.4166674 36.6309714,45.3133734 L36.8978588,44.5035196 C37.3543495,43.1471832 37.8221752,41.7539645 37.8221752,40.3877583 C37.8221752,40.2334757 37.8139315,40.0786736 37.8020813,39.9217936 C38.7758595,41.8350019 39.6713232,43.593408 40.6183096,45.3393469 C40.6219162,45.3455805 40.6234619,45.3564894 40.6234619,45.3564894 C41.5374737,48.7990175 43.227932,51.5018202 45.017829,54.3713728 C45.6762885,55.4248581 46.3543267,56.5063948 46.9839335,57.6300085 C47.8830038,59.2112754 48.9778602,60.5380019 50.041803,61.8242098 L51.1036849,63.1239239 C51.1552076,63.1950913 51.2350677,63.2444409 51.3252323,63.2678171 C51.3473871,63.3202836 51.5658431,63.7654694 51.5859369,63.8033907 C51.5096834,63.8033907 51.4298233,63.8262474 51.3576916,63.8813112 C51.2402199,63.9748158 51.1655121,64.1415657 51.1655121,64.2963678 C51.1655121,64.370652 51.1845755,64.4397415 51.2247631,64.5036364 C52.2959191,66.8485242 54.6881159,71.3346677 54.8431991,71.6224541 C54.6881159,72.5995773 54.6391694,73.1226836 54.6391694,73.3995612 C54.6391694,73.6686466 54.6881159,73.7133211 54.7118164,73.7289052 C54.7082098,73.9127976 54.7035727,74.0707165 54.7035727,74.2042203 C54.7035727,75.0384892 54.879265,75.0712158 54.9467597,75.0852415 C55.0492897,75.0971893 55.3166923,75.1262796 55.8597411,73.2120325 C56.0282202,73.644751 56.3600261,74.330971 56.6186698,74.4790199 L56.7938468,74.513305 C56.8541283,74.4925262 56.9097728,74.4618774 56.9607802,74.4203198 C56.9937547,74.4707084 57.0411555,74.5049934 57.0901021,74.513305 C57.1524445,74.5304475 57.2415787,74.5200581 57.3472001,74.3969437 C57.7387723,73.9330569 58.1617733,72.0499779 57.3472001,69.8053478 C57.3472001,69.7944389 57.0767062,68.0303186 57.0633103,67.9472034 C57.1946931,67.2178674 57.2961927,66.5072324 57.3693548,65.8407523 C58.9222476,59.7904845 60.6503175,54.6165627 62.6447594,50.0348368 C63.708187,45.9632304 65.0704459,41.9877261 66.3930325,38.1379334 C68.3261624,32.4783071 70.3319394,26.6228406 71.4190674,20.4073813 C71.4226739,20.3808884 71.4226739,20.361668 71.4226739,20.3341361 C71.4226739,20.2437483 71.3974278,20.1569968 71.3510574,20.0759594 C73.508311,13.4454436 73.87,12.1498852 73.87,11.8657351 L73.87,11.8657351 Z" id="Fill-12"></path>
                        <path d="M55.7952481,17.9883713 C55.5908102,21.430617 55.3961812,24.6849135 54.9971143,28.5779233 L54.976464,28.6360357 L54.8979929,28.8868092 L54.2036268,30.7783429 C53.5505613,32.5400397 52.9274387,34.2075002 52.4824249,36.0953691 C52.4772623,36.0765219 52.4674534,36.0403979 52.4674534,36.0403979 L52.3884661,36.2655182 C52.2573367,36.7047644 52.3833035,37.2403412 52.6822165,37.4905912 C52.8221222,37.6162397 52.9919709,37.6649285 53.1514944,37.6219986 C53.3254731,37.5712156 53.4720902,37.4110138 53.5557239,37.1837994 C53.5557239,37.1790876 53.6785931,36.6817289 53.7854584,36.2534768 C53.7854584,36.3089716 53.7962998,36.366037 53.7962998,36.4283377 C53.7962998,38.1235455 53.37142,39.7423172 52.9563491,41.3207767 C52.9563491,41.3207767 52.8360612,41.783582 52.7570738,42.0793796 C52.6068429,41.7003399 52.1138172,40.4972554 52.0714841,40.403019 C52.1003945,40.3752716 52.1189797,40.3559008 52.1189797,40.3559008 C52.2217149,40.2459584 52.2676618,40.1004155 52.2676618,39.9512079 C52.2676618,39.8046179 52.2217149,39.6575045 52.1189797,39.5444208 C51.7999327,39.1470574 51.4504265,38.5863509 51.1138267,38.0423976 L51.0255467,37.8910958 C51.0255467,37.8910958 50.9966363,37.8340304 50.975986,37.7633531 C51.1566761,37.9465906 51.3445938,38.1345398 51.3445938,38.1345398 C51.6894536,38.4675084 52.0451549,38.8125182 52.3987912,39.2135464 C52.3987912,39.2135464 52.4194415,39.1920814 52.4246041,39.185799 C52.4973964,39.2135464 52.8644553,39.4993968 52.9104022,39.5585563 L52.9739019,39.6611692 L53.0554705,39.5821154 C53.11071,39.5208617 53.1344579,39.4266253 53.1344579,39.3261065 C53.1344579,38.927696 52.7942443,38.3345303 52.6274932,38.1512929 L51.8990541,37.3005478 C51.8990541,37.3005478 49.8107933,34.8849551 49.7865292,34.8556371 C49.7787853,34.8305074 49.6213268,34.4383794 49.597579,34.3912612 C51.1922978,27.7842435 52.6016803,23.5216177 53.9615021,19.4108172 C54.6636121,17.2732219 55.3961812,15.0581433 56.142173,12.5462201 C56.0012348,14.4775424 55.9010809,16.2617513 55.7952481,17.9883713 Z M37.220826,23.0064588 C37.24096,22.9561994 37.2461226,22.9054165 37.2461226,22.8530629 C37.2461226,22.7823856 37.2156634,22.7227026 37.1913993,22.6609254 C37.2105009,22.6221838 37.2564478,22.5310886 37.2564478,22.5310886 C37.2564478,22.5310886 37.5088976,22.04263 37.6131816,21.8389747 C38.5615463,23.9917526 39.5770244,26.2518552 40.7024654,28.4240039 C39.8940064,27.747596 39.0788361,27.0858472 38.2662471,26.469646 C37.7117867,25.6084301 37.2636754,24.8728628 36.867706,24.1540486 C36.8868075,24.079183 37.2244398,23.0064588 37.2244398,23.0064588 L37.220826,23.0064588 Z M25.0402508,42.6002974 C25.0402508,42.6002974 23.9674681,44.9227007 23.8182697,45.2603811 C23.730506,45.0404962 23.5890515,44.6839685 23.5890515,44.6839685 C23.0934444,43.4573249 22.5926748,42.1798984 22.5462117,40.8192297 C22.6788898,41.1563865 22.8218931,41.5249555 22.8218931,41.5249555 C22.9055268,41.6919633 23.0402699,41.8071411 23.2085698,41.8448357 C23.3722234,41.8814832 23.5492997,41.8406474 23.698498,41.7212813 C23.9886346,41.5087259 24.1001462,41.0558677 23.9406227,40.7145226 L23.8621516,40.5511795 C23.8621516,40.5511795 23.8502777,40.5742151 23.8394363,40.5951565 C23.3180164,39.1559575 22.6303616,37.8952841 21.90089,36.5728335 L21.1311504,35.1514347 L21.0506142,34.986521 C21.0506142,34.986521 21.0294477,34.9362616 21.0211876,34.920032 C20.257643,30.8364553 19.5323015,26.5021052 18.7620455,21.3473749 C19.5725695,23.1666607 20.3779309,24.854539 21.2292393,26.6235654 C22.958185,30.2134481 24.7372078,33.9274087 26.6427135,39.0769036 C26.1233587,40.2716116 25.5725121,41.4532311 25.0402508,42.6002974 Z M14.8885669,27.7669669 C16.5312977,31.5636461 18.2199753,35.4938269 19.6944063,39.4889261 C21.0676507,44.7970522 24.4558475,50.7815862 24.789866,50.9067112 L24.8342641,50.9266055 L24.876081,50.9025229 C24.8993126,50.8878639 24.9204791,50.8726814 24.9204791,50.7988628 C24.9204791,50.5952076 24.7630206,49.9214174 24.0206426,47.524672 C25.568382,44.7483634 26.8915495,41.8668242 28.1073355,39.1177394 C27.9235479,40.1391571 27.4212296,41.5249555 27.0293903,42.5856384 C26.6896929,43.5175315 26.5544335,43.9070419 26.5544335,44.0803321 C26.5544335,44.1531036 26.5817952,44.1907981 26.6241283,44.2080748 L26.65975,44.2300633 L26.709827,44.2185455 C26.7944932,44.1866098 26.9813783,44.1106972 28.9922006,39.4266253 C28.9756803,39.4695552 28.9694853,39.5140558 28.9524488,39.554368 C28.5446055,40.9239368 28.4299964,41.3124001 28.4299964,41.4422369 C28.4299964,41.4956375 28.4516792,41.5087259 28.4749107,41.5191966 C28.5322153,41.5595088 28.5993288,41.5893504 28.6638609,41.5977269 C28.6008775,41.8579241 28.2451762,43.2787993 28.2451762,43.2787993 C28.2451762,43.2787993 27.8584995,44.8441704 27.7428579,45.3043581 L27.7413091,45.3001698 L27.6396064,45.4755542 C27.4671765,45.7781577 27.5286111,46.1535326 27.7728008,46.3257758 C27.8714059,46.4069238 28.0040841,46.439383 28.138311,46.4095415 C28.2880256,46.3812705 28.4238013,46.2833694 28.5187926,46.1362559 L28.6514708,46.02579 C28.7815676,45.9294594 28.9163108,45.8336524 28.9694853,45.6708329 L31.1372497,40.019791 C32.937439,35.3446193 34.6410882,30.9244093 36.2414859,26.0691413 C37.7221119,28.9098448 39.7050562,31.3458553 41.7788619,33.790766 C41.8697232,33.9007084 42.4236673,34.4221498 42.6864422,34.410632 C42.7447793,34.4069672 42.7886612,34.3870729 42.8217017,34.3399547 C42.8475145,34.3101132 42.8573234,34.2609008 42.8573234,34.2075002 C42.8573234,33.8823847 42.4897482,33.2394831 42.3741066,33.1054581 C41.7685367,31.8803851 41.0834633,30.7490249 40.2693255,29.5030105 C40.6978191,29.8846678 42.2956355,31.3170609 42.3152532,31.3374788 C42.9936154,32.4557505 43.6657824,33.4468032 44.3601485,34.3540902 C44.4298432,34.4724092 44.5429036,34.5331393 44.6688704,34.5577455 C45.6213651,36.2492886 47.0932147,38.2795591 48.399862,40.0726681 C48.399862,40.0726681 49.212451,41.2071695 49.597579,41.7490287 C46.8939394,39.9108956 42.690056,37.2319646 42.4427688,37.3031655 L42.4019845,37.310495 L42.3777204,37.3497601 C42.3741066,37.3628485 42.3694603,37.3790781 42.3694603,37.391643 C42.3694603,37.5712156 42.9564448,38.0570565 48.0926889,41.9479722 C48.0926889,41.9479722 52.5061727,45.3127346 52.6016803,45.3813178 C52.0714841,48.1283084 51.9517124,48.956018 51.9517124,49.2240682 C51.9517124,49.3350577 51.9723627,49.3523343 51.9909479,49.3669933 L52.0337973,49.3905524 L52.0849068,49.3785111 C52.3884661,49.2460566 55.4767173,41.2396287 56.5701503,34.2870776 C57.8189768,29.0731879 59.1798311,24.3844042 60.4942222,19.8532047 C61.6196632,15.9560066 62.7864047,11.9237364 63.9041018,7.5134736 C63.9299147,7.39881933 63.8700288,7.28207092 63.7435458,7.16846372 C63.6088026,7.05119178 63.4007509,6.94596115 63.262394,6.99674409 C63.2014756,7.02135026 63.1637888,7.07265673 63.1477849,7.14542816 C63.1477849,7.13286331 61.3377867,12.7640108 61.3377867,12.7640108 C60.1240657,16.4805892 58.9738444,20.0228302 57.8189768,24.1791783 C58.1700318,21.7054732 58.6393097,19.19355 59.0998112,16.751257 C59.7260313,13.4320421 60.3796131,9.99974355 60.7156966,6.63864583 C60.7322169,6.582104 60.7378957,6.51927974 60.7378957,6.45645548 C60.7378957,6.22819402 60.6372255,5.99993255 60.4746045,5.89836667 C60.3796131,5.8397307 60.2737804,5.82716585 60.1782728,5.86747808 C60.0569523,5.91930809 59.9666073,6.04129185 59.934083,6.20358785 C58.8303249,10.4190955 57.6527419,15.1141616 56.9764449,18.7972336 C57.095184,16.3182932 57.1669438,13.843541 57.1669438,11.430566 C57.1669438,10.8829479 57.1602325,10.3410887 57.1586837,9.79608826 C57.1721064,9.79189997 57.1721064,9.77200562 57.1721064,9.76519966 C57.1602325,9.54793244 57.1380334,8.89927199 56.8349904,8.67310467 C56.7317389,8.61028041 56.6259061,8.59771556 56.527301,8.63802779 C56.4214682,8.67991063 56.334737,8.78985308 56.3001478,8.93591948 C54.5670719,13.6534976 53.2893351,17.9972714 51.9331271,22.5981011 C50.9878599,25.8037088 50.0105848,29.120306 48.8706887,32.5829697 C48.8541684,32.5866344 48.6936124,32.6149053 48.6936124,32.6149053 C48.6936124,32.6149053 48.6750272,33.2975956 48.6657345,33.5954873 C47.661614,32.484545 46.7039567,31.4777863 45.6564706,30.4359507 C45.6564706,30.4338565 44.9388729,29.3443792 44.9388729,29.3443792 C43.5176165,27.1952661 42.0488645,24.9723345 40.5491369,22.8446863 C40.5269379,22.7645854 40.4892511,22.6980964 40.4484668,22.639984 C40.4484668,22.639984 39.9967416,22.04263 39.9471809,21.9834705 C39.5837358,21.0782777 39.2507498,20.1547611 38.9575156,19.2312445 C38.9879748,19.1605672 39.9755751,17.245998 39.9755751,17.245998 C39.9745425,17.2512334 40.6126366,16.1785092 40.6126366,16.1785092 C40.6379332,16.1292969 42.3044118,12.3739769 41.9822673,12.1807923 C41.8862434,12.1242505 41.8062235,12.0766088 40.802103,13.5817733 C40.4278165,14.1419562 40.0375259,14.7560633 39.7282878,15.2581338 C40.3699957,13.1812686 41.6188221,8.80765329 41.6188221,8.16684587 C41.6188221,8.13281606 41.6141758,8.11135111 41.608497,8.09773919 L41.5914605,8.06632706 L41.5522249,8.04852685 C41.399929,7.99879098 41.3338481,8.15585162 40.904322,9.24271126 C40.6307056,9.95524304 40.2693255,10.8677654 39.8382506,11.7415461 C39.8382506,11.7305518 39.8382506,11.7211282 39.8382506,11.7101339 C39.8382506,11.7038515 39.8382506,11.696522 39.8382506,11.6839572 C39.8382506,11.6410273 39.8552871,11.5237553 39.9538923,11.1080681 C39.9637011,11.0578087 39.9673149,11.0112141 39.9673149,10.9614782 C39.9673149,10.7771937 39.867161,10.6012858 39.7169301,10.5468381 C39.5001021,10.4892492 39.2714001,10.6285097 39.1965428,10.8620065 C38.7288136,12.0012197 37.7040429,15.0728023 37.277098,16.4544124 C36.0726697,14.5969085 33.5770818,10.8991775 33.3349572,10.8677654 L33.2952053,10.8620065 L33.252356,10.8923715 C33.2425471,10.9096482 33.2255106,10.9237837 33.2255106,10.9593841 C33.2255106,11.1164447 33.5750168,11.7462579 35.738135,15.4460831 C35.738135,15.4460831 36.9188155,17.4658829 36.9544372,17.5328955 C36.9343032,17.6156141 36.9121041,17.687862 36.9002302,17.7433567 C36.8816449,17.6951914 36.8573808,17.6470262 36.8269217,17.6040963 C36.7551619,17.5166659 36.6493291,17.4658829 36.5450452,17.445465 C36.5285249,17.3355226 36.4939357,17.2355273 36.4226922,17.1606617 C36.3406073,17.0831785 36.2414859,17.0371074 36.1341043,17.0402486 C35.9069511,17.0627606 35.7159359,17.2779337 35.690123,17.5391779 C34.9245134,19.6259903 34.4418128,21.6845317 34.2606065,23.651978 C34.2461513,23.6807725 32.4118891,27.2329607 32.4118891,27.2329607 C30.678297,30.5841112 28.8863678,34.0478219 27.3035229,37.6073396 C25.9953268,34.9456852 24.7733458,32.1646648 23.5998929,29.4721219 C21.9953651,25.8078971 20.3443742,22.0243063 18.4383522,18.5077185 C18.3965353,18.4098174 18.3273569,18.3318106 18.2261704,18.2977808 C18.1275653,18.2616568 18.0160537,18.2773629 17.9128022,18.3370459 C17.6190518,18.5276128 17.6144055,19.0014125 17.6144055,19.1982618 C17.6144055,19.209256 17.6144055,19.24538 17.6144055,19.24538 C17.7047505,21.4688351 17.8880219,23.7415026 18.1466668,26.0225467 C17.4543657,23.3467569 16.7202478,20.6243724 15.7068347,18.0841783 C15.671213,17.9731888 15.5855142,17.8852348 15.4817465,17.843352 C15.3784951,17.8077516 15.2613046,17.8171752 15.1575369,17.8763347 C15.0062735,17.9658593 14.9097334,18.1490967 14.9097334,18.3370459 C14.9097334,18.3946348 14.9195423,18.4469884 14.9365788,18.5014361 C15.4714214,21.3536573 16.1802427,24.1791783 16.8678974,26.9146511 C17.2612855,28.4910164 17.6686125,30.1234 18.0413503,31.761019 C16.4745093,27.9973225 14.7290434,24.3032562 13.026943,20.7201794 L11.5365081,17.5800136 C11.5236017,17.5360367 11.4817848,17.4920597 11.4188014,17.4768772 C11.2670218,17.4412767 11.004763,17.5732077 10.880345,17.7098504 C10.8106503,17.7857631 10.79,17.843352 10.79,17.8946585 C10.79,17.9087939 10.792065,17.9292118 10.8018739,17.9454414 C12.0894197,21.2798388 13.5153224,24.5754946 14.8885669,27.7669669 L14.8885669,27.7669669 Z" id="Fill-13"></path>
                        <path d="M81.8390283,69.293578 L81.7490554,67.7785549 C81.7383443,67.5835579 81.7490554,67.340571 81.7447709,67.1060887 L81.7260266,67.1060887 C81.6697935,67.3363187 81.603385,67.5957072 81.5417964,67.8150029 L81.0801497,69.2638121 L80.8214776,69.2638121 L80.3732198,67.7785549 C80.3191289,67.5817355 80.2607536,67.3363187 80.2125539,67.1060887 L80.193274,67.1060887 C80.193274,67.340571 80.193274,67.5592592 80.1863118,67.7785549 L80.1011589,69.293578 L79.7808982,69.293578 L79.9490618,66.7889908 L80.3935708,66.7889908 L80.8214776,68.145465 C80.8766396,68.3386396 80.9259104,68.5415336 80.9735747,68.7814832 L80.9912479,68.7814832 C81.0394477,68.5415336 81.0924674,68.3246678 81.149236,68.1357455 L81.5808917,66.7889908 L82.0104052,66.7889908 L82.17,69.293578 L81.8390283,69.293578 Z M79.7043141,66.7889908 L79.7043141,67.1060887 L79.0214841,67.1060887 L79.0214841,69.293578 L78.6964034,69.293578 L78.6964034,67.1060887 L78.02,67.1060887 L78.02,66.7889908 L79.7043141,66.7889908 L79.7043141,66.7889908 Z" id="Fill-14"></path>
                    </g>
                </g>
            </g>
        </g>
    </g>
</svg>