<?xml version="1.0" encoding="UTF-8"?>
<svg width="140px" height="103px" viewBox="0 0 140 103" version="1.1" xmlns="http://www.w3.org/2000/svg" xmlns:xlink="http://www.w3.org/1999/xlink">
    <!-- Generator: Sketch 46.2 (44496) - http://www.bohemiancoding.com/sketch -->
    <title>Icon_Research</title>
    <desc>Created with Sketch.</desc>
    <defs>
        <path d="M4,2.00083888 C4,0.895806078 4.89093316,-2.27373675e-13 6.0006103,-2.27373675e-13 L59.2940315,-2.27373675e-13 C59.2940315,-2.27373675e-13 63.6267251,-2.27373675e-13 67.5,1.30909091 C67.5,32.9605824 67.5,41.2980469 67.5,70.8670099 C65.5442073,72 60.0558562,72 60.0558562,72 L5.9950576,72 C4.89321771,72 4,71.1026867 4,69.9991611 L4,2.00083888 Z" id="path-1"></path>
        <path d="M65.5,2.00083888 C65.5,0.895806078 66.3901381,-2.27373675e-13 67.4988251,-2.27373675e-13 L120.74469,-2.27373675e-13 C120.74469,-2.27373675e-13 125.103436,-2.27373675e-13 129,1.30909091 C129,32.9605824 129,41.121946 129,70.6909091 C126.643885,72 119.932106,72 119.932106,72 L67.5018222,72 C66.3962463,72 65.5,71.1026867 65.5,69.9991611 L65.5,2.00083888 Z" id="path-2"></path>
        <path d="M46.2141069,33.4168052 L66.8447743,43.5775799 C69.4031644,44.8376082 70.3193803,47.864378 68.8924839,50.335835 L68.5709152,50.8928084 C67.1434438,53.3652613 64.06042,54.0813536 61.6942398,52.4985674 L42.5534524,39.6949044 C35.3129921,48.6509071 22.4343457,51.2613008 12.1459381,45.321286 C0.756934236,38.7458415 -3.14522669,24.1827787 3.43021779,12.7937748 C10.0056623,1.40477087 24.5687251,-2.49739005 35.957729,4.07805442 C46.3074178,10.05345 50.4743546,22.6251458 46.2141069,33.4168052 Z" id="path-3"></path>
        <ellipse id="path-4" cx="24.0780058" cy="24.7142293" rx="18.8589981" ry="18.8603064"></ellipse>
    </defs>
    <g id="CH.me-Design" stroke="none" stroke-width="1" fill="none" fill-rule="evenodd">
        <g id="CH.me-Homepage" transform="translate(-506.000000, -1411.000000)">
            <g id="Group-30" transform="translate(0.000000, 900.000000)">
                <g id="Icon_Research" transform="translate(507.000000, 504.000000)">
                    <text id="?" transform="translate(80.500000, 16.000000) rotate(-21.000000) translate(-80.500000, -16.000000) " font-family="BauLF-Medium" font-size="22" font-weight="400" letter-spacing="-0.458333313" fill="#9AEFFF">
                        <tspan x="74.5251667" y="24">?</tspan>
                    </text>
                    <text id="?" transform="translate(112.724481, 16.294829) rotate(16.000000) translate(-112.724481, -16.294829) " font-family="BauLF-Medium" font-size="22" font-weight="400" letter-spacing="-0.458333313" fill="#9AEFFF">
                        <tspan x="106.749647" y="24.2948292">?</tspan>
                    </text>
                    <g id="Group-27" transform="translate(0.000000, 38.000000)">
                        <polygon id="Path-13" stroke="#AEB1B5" stroke-width="2" fill="#FFFFFF" points="5 3 0 3 0 69 5 69"></polygon>
                        <polygon id="Path-13" stroke="#AEB1B5" stroke-width="2" fill="#FFFFFF" points="133 3 128 3 128 69 133 69"></polygon>
                        <g id="Rectangle-15">
                            <use fill="#FFFFFF" fill-rule="evenodd" xlink:href="#path-1"></use>
                            <path stroke="#AEB1B5" stroke-width="2" d="M66.5,70.2257228 C66.5,53.2493233 66.5,53.0899028 66.5,40.1126363 L66.5,38.2334806 C66.5,23.138564 66.5,22.9663812 66.5,2.04173792 C66.3727955,2.00423226 66.2441269,1.9677155 66.1140447,1.93218014 C64.6271806,1.52600429 63.0229353,1.26305932 61.4169522,1.11682055 C60.8537712,1.06553801 60.3313443,1.03260387 59.8637772,1.01435699 C59.5866914,1.00354367 59.39211,1 59.2940315,1 L6.0006103,1 C5.44526052,1 5,1.44604608 5,2.00083888 L5,69.9991611 C5,70.5516852 5.4467869,71 5.9950576,71 L60.0558562,71 C60.1135465,71 60.2266285,70.9990532 60.3870874,70.9961742 C60.6571508,70.9913286 60.9587261,70.9825878 61.2837389,70.9689811 C62.2104006,70.9301861 63.1361573,70.8604233 63.9943158,70.752642 C65.0414202,70.6211299 65.9051085,70.4407099 66.5,70.2257228 Z"></path>
                        </g>
                        <g id="Rectangle-15" transform="translate(97.250000, 36.000000) scale(-1, 1) translate(-97.250000, -36.000000) ">
                            <use fill="#FFFFFF" fill-rule="evenodd" xlink:href="#path-2"></use>
                            <path stroke="#AEB1B5" stroke-width="2" d="M128,70.0469432 C128,57.0930356 128,56.9272631 128,46.5949337 L128,38.1286091 C128,23.1076969 128,22.9358134 128,2.0430034 C127.871065,2.00519404 127.740635,1.96838867 127.608762,1.93257957 C126.112263,1.52621511 124.497726,1.26316499 122.881458,1.11686936 C122.314679,1.06556758 121.788906,1.03262064 121.318329,1.01436604 C121.039416,1.00354648 120.843509,1 120.74469,1 L67.4988251,1 C66.9446644,1 66.5,1.44584672 66.5,2.00083888 L66.5,69.9991611 C66.5,70.5509289 66.9490581,71 67.5018222,71 L119.932106,71 C120.003786,71 120.142813,70.9989037 120.339469,70.9955807 C120.669709,70.9900004 121.0383,70.9799393 121.435469,70.9642799 C122.568388,70.9196115 123.700453,70.8392691 124.751474,70.7149511 C126.127639,70.5521741 127.249827,70.3245908 128,70.0469432 Z"></path>
                        </g>
                        <path d="M19.7345133,16.3125 L52.3274336,16.3125" id="Path-12" stroke="#AEB1B5" stroke-width="2"></path>
                        <path d="M19.7345133,23.0625 L52.3274336,23.0625" id="Path-12" stroke="#AEB1B5" stroke-width="2"></path>
                        <path d="M19.7345133,29.8125 L48.9557522,29.8125" id="Path-12" stroke="#AEB1B5" stroke-width="2"></path>
                        <path d="M19.7345133,43.3125 L52.3274336,43.3125" id="Path-12" stroke="#AEB1B5" stroke-width="2"></path>
                        <path d="M19.7345133,50.0625 L48.9557522,50.0625" id="Path-12" stroke="#AEB1B5" stroke-width="2"></path>
                        <path d="M79.300885,43.3125 L111.893805,43.3125" id="Path-12" stroke="#AEB1B5" stroke-width="2"></path>
                        <path d="M19.7345133,56.8125 L52.3274336,56.8125" id="Path-12" stroke="#AEB1B5" stroke-width="2"></path>
                        <path d="M79.300885,50.0625 L110.769912,50.0625" id="Path-12" stroke="#AEB1B5" stroke-width="2"></path>
                        <path d="M79.300885,56.8125 L105.150442,56.8125" id="Path-12" stroke="#AEB1B5" stroke-width="2"></path>
                    </g>
                    <g id="Group-29" transform="translate(107.178248, 53.817565) rotate(7.000000) translate(-107.178248, -53.817565) translate(72.178248, 26.817565)">
                        <g id="Combined-Shape">
                            <use fill="#FFFFFF" fill-rule="evenodd" xlink:href="#path-3"></use>
                            <path stroke="#AEB1B5" stroke-width="2" d="M44.945587,33.9067524 L66.4029455,44.4746793 C68.4419827,45.478922 69.164593,47.8645283 68.0264585,49.835835 L67.7048898,50.3928084 C66.5673605,52.3630669 64.1371844,52.9296008 62.2502362,51.6673827 L42.3501318,38.3557971 L41.7757985,39.0662118 C34.7672996,47.7352924 22.4024135,50.0881643 12.6459381,44.4552606 C1.73522686,38.1559585 -2.00305891,24.2044861 4.29624319,13.2937748 C10.5955453,2.38306349 24.5470177,-1.35522228 35.457729,4.94407982 C45.2772152,10.6133629 49.4055408,22.6092162 45.2839629,33.0496102 L44.945587,33.9067524 Z"></path>
                        </g>
                        <g id="Path">
                            <use fill="#FFFFFF" fill-rule="evenodd" xlink:href="#path-4"></use>
                            <ellipse stroke="#AEB1B5" stroke-width="2" cx="24.0780058" cy="24.7142293" rx="17.8589981" ry="17.8603064"></ellipse>
                        </g>
                        <text id="!" transform="translate(24.992685, 25.225444) rotate(-10.000000) translate(-24.992685, -25.225444) " font-family="BauLF-Medium" font-size="26" font-weight="400" letter-spacing="-0.541666627" fill="#9AEFFF">
                            <tspan x="21.1295186" y="34.2254442">!</tspan>
                        </text>
                    </g>
                </g>
            </g>
        </g>
    </g>
</svg>