<?xml version="1.0" encoding="UTF-8" standalone="no"?>
<svg width="312px" height="63px" viewBox="0 0 312 63" version="1.1" xmlns="http://www.w3.org/2000/svg" xmlns:xlink="http://www.w3.org/1999/xlink">
    <!-- Generator: Sketch 3.8.3 (29802) - http://www.bohemiancoding.com/sketch -->
    <title>executive_group1</title>
    <desc>Created with Sketch.</desc>
    <defs>
        <rect id="path-1" x="0" y="0" width="20" height="57"></rect>
    </defs>
    <g id="Page-1" stroke="none" stroke-width="1" fill="none" fill-rule="evenodd">
        <g id="Ecommerce-Survey-Webpage" transform="translate(-122.000000, -2856.000000)">
            <g id="executive_group1" transform="translate(123.000000, 2843.000000)">
                <g id="Page-1" transform="translate(0.000000, 14.000000)" stroke="#32C4F5">
                    <path d="M18.6024336,37.9992656 C28.2643593,37.96986 36,37.2353927 36,36.3333207 C36,35.5476331 34.9840424,24.3585125 24.3686309,21.0931 C23.7445293,23.8518965 22.0273365,30.5285112 18.6024336,37.9992656 Z M17.732548,38 C7.91475509,37.9867466 0,37.2457765 0,36.3333207 C0,35.5399842 1.03583529,24.1396663 11.9445158,21 C12.377088,23.9173474 13.7394099,30.6448747 17.732548,38 Z" id="Combined-Shape" stroke-width="2" fill="#32C4F5"></path>
                    <path d="M25,7.18868799 C25,11.8831711 21.8658444,17 18.0002315,17 C14.1341556,17 11,11.8831711 11,7.18868799 C11,2.49420491 14.1341556,0 18.0002315,0 C21.8658444,0 25,2.49420491 25,7.18868799 L25,7.18868799 Z" id="Stroke-7" stroke-width="2" fill="#32C4F5"></path>
                    <path d="M17,25 C17,25 15,30.4896778 15,36" id="Stroke-15" stroke-linejoin="round"></path>
                    <path d="M19,25 C19,25 21,31.286592 21,37" id="Stroke-19" stroke-linejoin="round"></path>
                    <path d="M21,20.9514371 C21,21.477329 19.6566366,25 17.9997031,25 C16.3427695,25 15,21.477329 15,20.9514371 C15,20.4255451 16.3427695,20 17.9997031,20 C19.6566366,20 21,20.4255451 21,20.9514371 L21,20.9514371 Z" id="Stroke-31" stroke-linejoin="round" fill="#FFFFFF"></path>
                </g>
                <g id="Page-1-Copy-2" transform="translate(61.000000, 14.000000)" stroke="#32C4F5">
                    <path d="M18.6024336,37.9992656 C28.2643593,37.96986 36,37.2353927 36,36.3333207 C36,35.5476331 34.9840424,24.3585125 24.3686309,21.0931 C23.7445293,23.8518965 22.0273365,30.5285112 18.6024336,37.9992656 Z M17.732548,38 C7.91475509,37.9867466 0,37.2457765 0,36.3333207 C0,35.5399842 1.03583529,24.1396663 11.9445158,21 C12.377088,23.9173474 13.7394099,30.6448747 17.732548,38 Z" id="Combined-Shape" stroke-width="2" fill="#32C4F5"></path>
                    <path d="M25,7.18868799 C25,11.8831711 21.8658444,17 18.0002315,17 C14.1341556,17 11,11.8831711 11,7.18868799 C11,2.49420491 14.1341556,0 18.0002315,0 C21.8658444,0 25,2.49420491 25,7.18868799 L25,7.18868799 Z" id="Stroke-7" stroke-width="2" fill="#32C4F5"></path>
                    <path d="M17,25 C17,25 15,30.4896778 15,36" id="Stroke-15" stroke-linejoin="round"></path>
                    <path d="M19,25 C19,25 21,31.286592 21,37" id="Stroke-19" stroke-linejoin="round"></path>
                    <path d="M21,20.9514371 C21,21.477329 19.6566366,25 17.9997031,25 C16.3427695,25 15,21.477329 15,20.9514371 C15,20.4255451 16.3427695,20 17.9997031,20 C19.6566366,20 21,20.4255451 21,20.9514371 L21,20.9514371 Z" id="Stroke-31" stroke-linejoin="round" fill="#FFFFFF"></path>
                </g>
                <g id="Page-1-Copy-3" transform="translate(122.000000, 14.000000)" stroke="#32C4F5">
                    <path d="M18.6024336,37.9992656 C28.2643593,37.96986 36,37.2353927 36,36.3333207 C36,35.5476331 34.9840424,24.3585125 24.3686309,21.0931 C23.7445293,23.8518965 22.0273365,30.5285112 18.6024336,37.9992656 Z M17.732548,38 C7.91475509,37.9867466 0,37.2457765 0,36.3333207 C0,35.5399842 1.03583529,24.1396663 11.9445158,21 C12.377088,23.9173474 13.7394099,30.6448747 17.732548,38 Z" id="Combined-Shape" stroke-width="2" fill="#32C4F5"></path>
                    <path d="M25,7.18868799 C25,11.8831711 21.8658444,17 18.0002315,17 C14.1341556,17 11,11.8831711 11,7.18868799 C11,2.49420491 14.1341556,0 18.0002315,0 C21.8658444,0 25,2.49420491 25,7.18868799 L25,7.18868799 Z" id="Stroke-7" stroke-width="2" fill="#32C4F5"></path>
                    <path d="M17,25 C17,25 15,30.4896778 15,36" id="Stroke-15" stroke-linejoin="round"></path>
                    <path d="M19,25 C19,25 21,31.286592 21,37" id="Stroke-19" stroke-linejoin="round"></path>
                    <path d="M21,20.9514371 C21,21.477329 19.6566366,25 17.9997031,25 C16.3427695,25 15,21.477329 15,20.9514371 C15,20.4255451 16.3427695,20 17.9997031,20 C19.6566366,20 21,20.4255451 21,20.9514371 L21,20.9514371 Z" id="Stroke-31" stroke-linejoin="round" fill="#FFFFFF"></path>
                </g>
                <g id="Page-1-Copy-4" transform="translate(183.000000, 14.000000)" stroke="#32C4F5">
                    <path d="M18.6024336,37.9992656 C28.2643593,37.96986 36,37.2353927 36,36.3333207 C36,35.5476331 34.9840424,24.3585125 24.3686309,21.0931 C23.7445293,23.8518965 22.0273365,30.5285112 18.6024336,37.9992656 Z M17.732548,38 C7.91475509,37.9867466 0,37.2457765 0,36.3333207 C0,35.5399842 1.03583529,24.1396663 11.9445158,21 C12.377088,23.9173474 13.7394099,30.6448747 17.732548,38 Z" id="Combined-Shape" stroke-width="2" fill="#32C4F5"></path>
                    <path d="M25,7.18868799 C25,11.8831711 21.8658444,17 18.0002315,17 C14.1341556,17 11,11.8831711 11,7.18868799 C11,2.49420491 14.1341556,0 18.0002315,0 C21.8658444,0 25,2.49420491 25,7.18868799 L25,7.18868799 Z" id="Stroke-7" stroke-width="2" fill="#32C4F5"></path>
                    <path d="M17,25 C17,25 15,30.4896778 15,36" id="Stroke-15" stroke-linejoin="round"></path>
                    <path d="M19,25 C19,25 21,31.286592 21,37" id="Stroke-19" stroke-linejoin="round"></path>
                    <path d="M21,20.9514371 C21,21.477329 19.6566366,25 17.9997031,25 C16.3427695,25 15,21.477329 15,20.9514371 C15,20.4255451 16.3427695,20 17.9997031,20 C19.6566366,20 21,20.4255451 21,20.9514371 L21,20.9514371 Z" id="Stroke-31" stroke-linejoin="round" fill="#FFFFFF"></path>
                </g>
                <g id="Page-1-Copy-5" transform="translate(244.000000, 14.000000)" stroke="#32C4F5">
                    <path d="M18.6024336,37.9992656 C28.2643593,37.96986 36,37.2353927 36,36.3333207 C36,35.5476331 34.9840424,24.3585125 24.3686309,21.0931 C23.7445293,23.8518965 22.0273365,30.5285112 18.6024336,37.9992656 Z M17.732548,38 C7.91475509,37.9867466 0,37.2457765 0,36.3333207 C0,35.5399842 1.03583529,24.1396663 11.9445158,21 C12.377088,23.9173474 13.7394099,30.6448747 17.732548,38 Z" id="Combined-Shape" stroke-width="2" fill="#32C4F5"></path>
                    <path d="M25,7.18868799 C25,11.8831711 21.8658444,17 18.0002315,17 C14.1341556,17 11,11.8831711 11,7.18868799 C11,2.49420491 14.1341556,0 18.0002315,0 C21.8658444,0 25,2.49420491 25,7.18868799 L25,7.18868799 Z" id="Stroke-7" stroke-width="2" fill="#32C4F5"></path>
                    <path d="M17,25 C17,25 15,30.4896778 15,36" id="Stroke-15" stroke-linejoin="round"></path>
                    <path d="M19,25 C19,25 21,31.286592 21,37" id="Stroke-19" stroke-linejoin="round"></path>
                    <path d="M21,20.9514371 C21,21.477329 19.6566366,25 17.9997031,25 C16.3427695,25 15,21.477329 15,20.9514371 C15,20.4255451 16.3427695,20 17.9997031,20 C19.6566366,20 21,20.4255451 21,20.9514371 L21,20.9514371 Z" id="Stroke-31" stroke-linejoin="round" fill="#FFFFFF"></path>
                </g>
                <g id="Page-1-Copy-6" transform="translate(30.000000, 37.000000)" stroke="#32C4F5">
                    <path d="M18.6024336,37.9992656 C28.2643593,37.96986 36,37.2353927 36,36.3333207 C36,35.5476331 34.9840424,24.3585125 24.3686309,21.0931 C23.7445293,23.8518965 22.0273365,30.5285112 18.6024336,37.9992656 Z M17.732548,38 C7.91475509,37.9867466 0,37.2457765 0,36.3333207 C0,35.5399842 1.03583529,24.1396663 11.9445158,21 C12.377088,23.9173474 13.7394099,30.6448747 17.732548,38 Z" id="Combined-Shape" stroke-width="2" fill="#32C4F5"></path>
                    <path d="M25,7.18868799 C25,11.8831711 21.8658444,17 18.0002315,17 C14.1341556,17 11,11.8831711 11,7.18868799 C11,2.49420491 14.1341556,0 18.0002315,0 C21.8658444,0 25,2.49420491 25,7.18868799 L25,7.18868799 Z" id="Stroke-7" stroke-width="2" fill="#32C4F5"></path>
                    <path d="M17,25 C17,25 15,30.4896778 15,36" id="Stroke-15" stroke-linejoin="round"></path>
                    <path d="M19,25 C19,25 21,31.286592 21,37" id="Stroke-19" stroke-linejoin="round"></path>
                    <path d="M21,20.9514371 C21,21.477329 19.6566366,25 17.9997031,25 C16.3427695,25 15,21.477329 15,20.9514371 C15,20.4255451 16.3427695,20 17.9997031,20 C19.6566366,20 21,20.4255451 21,20.9514371 L21,20.9514371 Z" id="Stroke-31" stroke-linejoin="round" fill="#FFFFFF"></path>
                </g>
                <g id="Page-1-Copy-7" transform="translate(91.000000, 37.000000)" stroke="#32C4F5">
                    <path d="M18.6024336,37.9992656 C28.2643593,37.96986 36,37.2353927 36,36.3333207 C36,35.5476331 34.9840424,24.3585125 24.3686309,21.0931 C23.7445293,23.8518965 22.0273365,30.5285112 18.6024336,37.9992656 Z M17.732548,38 C7.91475509,37.9867466 0,37.2457765 0,36.3333207 C0,35.5399842 1.03583529,24.1396663 11.9445158,21 C12.377088,23.9173474 13.7394099,30.6448747 17.732548,38 Z" id="Combined-Shape" stroke-width="2" fill="#32C4F5"></path>
                    <path d="M25,7.18868799 C25,11.8831711 21.8658444,17 18.0002315,17 C14.1341556,17 11,11.8831711 11,7.18868799 C11,2.49420491 14.1341556,0 18.0002315,0 C21.8658444,0 25,2.49420491 25,7.18868799 L25,7.18868799 Z" id="Stroke-7" stroke-width="2" fill="#32C4F5"></path>
                    <path d="M17,25 C17,25 15,30.4896778 15,36" id="Stroke-15" stroke-linejoin="round"></path>
                    <path d="M19,25 C19,25 21,31.286592 21,37" id="Stroke-19" stroke-linejoin="round"></path>
                    <path d="M21,20.9514371 C21,21.477329 19.6566366,25 17.9997031,25 C16.3427695,25 15,21.477329 15,20.9514371 C15,20.4255451 16.3427695,20 17.9997031,20 C19.6566366,20 21,20.4255451 21,20.9514371 L21,20.9514371 Z" id="Stroke-31" stroke-linejoin="round" fill="#FFFFFF"></path>
                </g>
                <g id="Page-1-Copy-8" transform="translate(152.000000, 37.000000)" stroke="#32C4F5">
                    <path d="M18.6024336,37.9992656 C28.2643593,37.96986 36,37.2353927 36,36.3333207 C36,35.5476331 34.9840424,24.3585125 24.3686309,21.0931 C23.7445293,23.8518965 22.0273365,30.5285112 18.6024336,37.9992656 Z M17.732548,38 C7.91475509,37.9867466 0,37.2457765 0,36.3333207 C0,35.5399842 1.03583529,24.1396663 11.9445158,21 C12.377088,23.9173474 13.7394099,30.6448747 17.732548,38 Z" id="Combined-Shape" stroke-width="2" fill="#32C4F5"></path>
                    <path d="M25,7.18868799 C25,11.8831711 21.8658444,17 18.0002315,17 C14.1341556,17 11,11.8831711 11,7.18868799 C11,2.49420491 14.1341556,0 18.0002315,0 C21.8658444,0 25,2.49420491 25,7.18868799 L25,7.18868799 Z" id="Stroke-7" stroke-width="2" fill="#32C4F5"></path>
                    <path d="M17,25 C17,25 15,30.4896778 15,36" id="Stroke-15" stroke-linejoin="round"></path>
                    <path d="M19,25 C19,25 21,31.286592 21,37" id="Stroke-19" stroke-linejoin="round"></path>
                    <path d="M21,20.9514371 C21,21.477329 19.6566366,25 17.9997031,25 C16.3427695,25 15,21.477329 15,20.9514371 C15,20.4255451 16.3427695,20 17.9997031,20 C19.6566366,20 21,20.4255451 21,20.9514371 L21,20.9514371 Z" id="Stroke-31" stroke-linejoin="round" fill="#FFFFFF"></path>
                </g>
                <g id="Page-1-Copy-9" transform="translate(213.000000, 37.000000)" stroke="#32C4F5">
                    <path d="M18.6024336,37.9992656 C28.2643593,37.96986 36,37.2353927 36,36.3333207 C36,35.5476331 34.9840424,24.3585125 24.3686309,21.0931 C23.7445293,23.8518965 22.0273365,30.5285112 18.6024336,37.9992656 Z M17.732548,38 C7.91475509,37.9867466 0,37.2457765 0,36.3333207 C0,35.5399842 1.03583529,24.1396663 11.9445158,21 C12.377088,23.9173474 13.7394099,30.6448747 17.732548,38 Z" id="Combined-Shape" stroke-width="2" fill="#32C4F5"></path>
                    <path d="M25,7.18868799 C25,11.8831711 21.8658444,17 18.0002315,17 C14.1341556,17 11,11.8831711 11,7.18868799 C11,2.49420491 14.1341556,0 18.0002315,0 C21.8658444,0 25,2.49420491 25,7.18868799 L25,7.18868799 Z" id="Stroke-7" stroke-width="2" fill="#32C4F5"></path>
                    <path d="M17,25 C17,25 15,30.4896778 15,36" id="Stroke-15" stroke-linejoin="round"></path>
                    <path d="M19,25 C19,25 21,31.286592 21,37" id="Stroke-19" stroke-linejoin="round"></path>
                    <path d="M21,20.9514371 C21,21.477329 19.6566366,25 17.9997031,25 C16.3427695,25 15,21.477329 15,20.9514371 C15,20.4255451 16.3427695,20 17.9997031,20 C19.6566366,20 21,20.4255451 21,20.9514371 L21,20.9514371 Z" id="Stroke-31" stroke-linejoin="round" fill="#FFFFFF"></path>
                </g>
                <g id="Page-1-Copy-10" transform="translate(274.000000, 37.000000)" stroke="#E9EFF3">
                    <path d="M18.6024336,37.9992656 C28.2643593,37.96986 36,37.2353927 36,36.3333207 C36,35.5476331 34.9840424,24.3585125 24.3686309,21.0931 C23.7445293,23.8518965 22.0273365,30.5285112 18.6024336,37.9992656 Z M17.732548,38 C7.91475509,37.9867466 0,37.2457765 0,36.3333207 C0,35.5399842 1.03583529,24.1396663 11.9445158,21 C12.377088,23.9173474 13.7394099,30.6448747 17.732548,38 Z" id="Combined-Shape" stroke-width="2" fill="#E9EFF3"></path>
                    <path d="M25,7.18868799 C25,11.8831711 21.8658444,17 18.0002315,17 C14.1341556,17 11,11.8831711 11,7.18868799 C11,2.49420491 14.1341556,0 18.0002315,0 C21.8658444,0 25,2.49420491 25,7.18868799 L25,7.18868799 Z" id="Stroke-7" stroke-width="2" fill="#E9EFF3"></path>
                    <path d="M17,25 C17,25 15,30.4896778 15,36" id="Stroke-15" stroke-linejoin="round"></path>
                    <path d="M19,25 C19,25 21,31.286592 21,37" id="Stroke-19" stroke-linejoin="round"></path>
                    <path d="M21,20.9514371 C21,21.477329 19.6566366,25 17.9997031,25 C16.3427695,25 15,21.477329 15,20.9514371 C15,20.4255451 16.3427695,20 17.9997031,20 C19.6566366,20 21,20.4255451 21,20.9514371 L21,20.9514371 Z" id="Stroke-31" stroke-linejoin="round"></path>
                </g>
                <g id="Page-1-Copy-12" transform="translate(264.000000, 0.000000)">
                    <mask id="mask-2" fill="white">
                        <use xlink:href="#path-1"></use>
                    </mask>
                    <g id="Mask"></g>
                    <g mask="url(#mask-2)" stroke="#E9EFF3">
                        <g transform="translate(-20.000000, 14.000000)">
                            <path d="M18.6024336,37.9992656 C28.2643593,37.96986 36,37.2353927 36,36.3333207 C36,35.5476331 34.9840424,24.3585125 24.3686309,21.0931 C23.7445293,23.8518965 22.0273365,30.5285112 18.6024336,37.9992656 Z M17.732548,38 C7.91475509,37.9867466 0,37.2457765 0,36.3333207 C0,35.5399842 1.03583529,24.1396663 11.9445158,21 C12.377088,23.9173474 13.7394099,30.6448747 17.732548,38 Z" id="Combined-Shape" stroke-width="2" fill="#E9EFF3" fill-rule="evenodd"></path>
                            <path d="M25,7.18868799 C25,11.8831711 21.8658444,17 18.0002315,17 C14.1341556,17 11,11.8831711 11,7.18868799 C11,2.49420491 14.1341556,0 18.0002315,0 C21.8658444,0 25,2.49420491 25,7.18868799 L25,7.18868799 Z" id="Stroke-7" stroke-width="2" fill="#E9EFF3" fill-rule="evenodd"></path>
                            <path d="M17,25 C17,25 15,30.4896778 15,36" id="Stroke-15" stroke-width="1" stroke-linejoin="round" fill="none"></path>
                            <path d="M19,25 C19,25 21,31.286592 21,37" id="Stroke-19" stroke-width="1" stroke-linejoin="round" fill="none"></path>
                            <path d="M21,20.9514371 C21,21.477329 19.6566366,25 17.9997031,25 C16.3427695,25 15,21.477329 15,20.9514371 C15,20.4255451 16.3427695,20 17.9997031,20 C19.6566366,20 21,20.4255451 21,20.9514371 L21,20.9514371 Z" id="Stroke-31" stroke-width="1" stroke-linejoin="round" fill="none"></path>
                        </g>
                    </g>
                </g>
                <path id="Path-44" stroke="#6A6460" stroke-width="2" stroke-dasharray="5,4"></path>
            </g>
        </g>
    </g>
</svg>