<?xml version="1.0" encoding="UTF-8" standalone="no"?>
<svg width="186px" height="146px" viewBox="0 0 186 146" version="1.1" xmlns="http://www.w3.org/2000/svg" xmlns:xlink="http://www.w3.org/1999/xlink">
    <!-- Generator: Sketch 3.8.3 (29802) - http://www.bohemiancoding.com/sketch -->
    <title>thumbs_up</title>
    <desc>Created with Sketch.</desc>
    <defs>
        <rect id="path-1" x="0" y="0" width="182" height="134"></rect>
    </defs>
    <g id="Page-1" stroke="none" stroke-width="1" fill="none" fill-rule="evenodd">
        <g id="Ecommerce-Survey-Webpage" transform="translate(-575.000000, -13795.000000)">
            <g id="Group-8" transform="translate(564.000000, 13795.000000)">
                <g id="thumbs_up">
                    <g id="Group-35" transform="translate(0.000000, 2.000000)">
                        <g id="Group-10-Copy" transform="translate(86.000000, 70.500000) scale(1, -1) translate(-86.000000, -70.500000) translate(13.000000, 0.000000)">
                            <path d="M97,2.99122479 C97,1.33921696 98.3513418,0 100.005196,0 L142.622711,0 C144.282435,0 145.627907,1.33799292 145.627907,2.99122479 L145.627907,79.0087752 C145.627907,80.660783 144.276565,82 142.622711,82 L100.005196,82 C98.345472,82 97,80.6620071 97,79.0087752 L97,2.99122479 Z M121.921802,16.8300376 L120.706105,16.8300376 C118.354945,16.8300376 116.451163,14.9546905 116.451163,12.6225282 L116.451163,11.4203826 C116.451163,9.08822028 118.354945,7.21287324 120.706105,7.21287324 L121.921802,7.21287324 C124.272962,7.21287324 126.176744,9.08822028 126.176744,11.4203826 L126.176744,12.6225282 C126.176744,14.9546905 124.272962,16.8300376 121.921802,16.8300376 Z" id="Combined-Shape" fill="#32C4F5"></path>
                            <path d="M46.2295889,84.2823629 L47.8315708,84.4149781 C49.2464791,84.5475934 50.5480894,85.2371925 51.4492042,86.3511605 C52.3450493,87.4386053 52.7639886,88.8708498 52.6058983,90.2765712 C52.4583473,91.6292465 52.447808,93.061491 52.4399035,94.4672124 C52.4267293,96.6155791 52.4135551,98.6313305 51.9234751,100.487944 C51.0091861,103.988986 49.525772,107.330889 48.0924198,110.566701 C46.3455218,114.518635 44.6961129,118.231861 44.3588535,121.547242 C43.2785697,132.182983 48.3479991,136.532763 53.6334853,140.060328 C55.0167756,140.988634 56.8269097,141.174296 58.3814645,140.856019 C58.4157174,136.294055 58.9268761,128.655418 61.5617146,121.971611 C63.416641,117.250508 68.0724008,109.611871 73.0021838,101.548866 C77.3865552,94.3611202 82.645693,85.502423 83.9973652,81.6831044 L84,79.8530143 L83.9999999,9.69162238 L83.9999999,2.99403374 C83.9999999,1.89275932 83.1114208,1 82.0039791,1 L75.3939986,1 L43.0953845,1 L33.9445901,1 C33.9445901,1 28.7606091,1 27.1191047,1 C25.5118532,1 21.2460495,1 19.8601244,1.82221441 C19.5044212,2.00787573 19.1302741,2.167014 18.7376832,2.29962923 C17.4360729,2.69747491 16.5165142,3.78491978 16.3294407,5.19064119 C16.2003336,6.17199387 16.5112446,6.94116219 16.798442,7.41857701 C17.9393271,9.2751902 18.2528729,11.8214026 17.6389555,14.2084767 C17.1040832,16.2772742 15.9105014,17.921703 14.2689969,18.8500096 C12.5326383,19.8313623 11.3864835,21.5288372 11.1256345,23.4915426 C10.9728139,24.6585566 11.1440784,25.8255706 11.6183493,26.8864924 C12.8198357,29.538797 13.1307467,35.957374 9.41562427,38.7157707 C7.49746178,40.1214921 6.269627,42.2168127 5.95344637,44.5773638 C5.67942316,46.6196383 6.15632894,48.7149589 7.29457921,50.4654799 C9.60796748,54.019568 8.33534045,60.3585759 4.82310062,62.772173 C2.23041945,64.549217 0.509869859,67.3606599 0.0988350401,70.4638562 C-0.29112107,73.4079142 0.480886634,76.3254493 2.27257687,78.6860003 C4.06426711,81.0465514 6.66221795,82.2135654 9.58952361,82.611411 C10.0611597,82.6644571 10.530161,82.3196575 10.9938926,82.3196575 L11.3680397,82.3196575 C12.5985093,82.3196575 14.4297221,82.7175032 16.9565323,82.6909802 C19.1381786,82.6644571 21.841523,82.9827337 25.1666893,82.9827337 C31.864449,82.9827337 39.1655867,83.6458098 46.2295889,84.2823629 Z" id="Fill-713" stroke="#DFE8ED" stroke-width="3" fill="#DFE8ED"></path>
                        </g>
                        <g id="Group-10-Copy" transform="translate(0.000000, 29.000000)">
                            <mask id="mask-2" fill="white">
                                <use xlink:href="#path-1"></use>
                            </mask>
                            <g id="Mask"></g>
                            <g mask="url(#mask-2)" fill="#32C4F5">
                                <g transform="translate(86.000000, 41.500000) scale(1, -1) translate(-86.000000, -41.500000) translate(13.000000, -29.000000)">
                                    <path d="M97,2.99122479 C97,1.33921696 98.3513418,0 100.005196,0 L142.622711,0 C144.282435,0 145.627907,1.33799292 145.627907,2.99122479 L145.627907,79.0087752 C145.627907,80.660783 144.276565,82 142.622711,82 L100.005196,82 C98.345472,82 97,80.6620071 97,79.0087752 L97,2.99122479 Z M121.921802,16.8300376 L120.706105,16.8300376 C118.354945,16.8300376 116.451163,14.9546905 116.451163,12.6225282 L116.451163,11.4203826 C116.451163,9.08822028 118.354945,7.21287324 120.706105,7.21287324 L121.921802,7.21287324 C124.272962,7.21287324 126.176744,9.08822028 126.176744,11.4203826 L126.176744,12.6225282 C126.176744,14.9546905 124.272962,16.8300376 121.921802,16.8300376 Z" id="Combined-Shape" stroke="none"></path>
                                    <path d="M46.2295889,84.2823629 L47.8315708,84.4149781 C49.2464791,84.5475934 50.5480894,85.2371925 51.4492042,86.3511605 C52.3450493,87.4386053 52.7639886,88.8708498 52.6058983,90.2765712 C52.4583473,91.6292465 52.447808,93.061491 52.4399035,94.4672124 C52.4267293,96.6155791 52.4135551,98.6313305 51.9234751,100.487944 C51.0091861,103.988986 49.525772,107.330889 48.0924198,110.566701 C46.3455218,114.518635 44.6961129,118.231861 44.3588535,121.547242 C43.2785697,132.182983 48.3479991,136.532763 53.6334853,140.060328 C55.0167756,140.988634 56.8269097,141.174296 58.3814645,140.856019 C58.4157174,136.294055 58.9268761,128.655418 61.5617146,121.971611 C63.416641,117.250508 68.0724008,109.611871 73.0021838,101.548866 C77.3865552,94.3611202 82.645693,85.502423 83.9973652,81.6831044 L84,79.8530143 L83.9999999,9.69162238 L83.9999999,2.99403374 C83.9999999,1.89275932 83.1114208,1 82.0039791,1 L75.3939986,1 L43.0953845,1 L33.9445901,1 C33.9445901,1 28.7606091,1 27.1191047,1 C25.5118532,1 21.2460495,1 19.8601244,1.82221441 C19.5044212,2.00787573 19.1302741,2.167014 18.7376832,2.29962923 C17.4360729,2.69747491 16.5165142,3.78491978 16.3294407,5.19064119 C16.2003336,6.17199387 16.5112446,6.94116219 16.798442,7.41857701 C17.9393271,9.2751902 18.2528729,11.8214026 17.6389555,14.2084767 C17.1040832,16.2772742 15.9105014,17.921703 14.2689969,18.8500096 C12.5326383,19.8313623 11.3864835,21.5288372 11.1256345,23.4915426 C10.9728139,24.6585566 11.1440784,25.8255706 11.6183493,26.8864924 C12.8198357,29.538797 13.1307467,35.957374 9.41562427,38.7157707 C7.49746178,40.1214921 6.269627,42.2168127 5.95344637,44.5773638 C5.67942316,46.6196383 6.15632894,48.7149589 7.29457921,50.4654799 C9.60796748,54.019568 8.33534045,60.3585759 4.82310062,62.772173 C2.23041945,64.549217 0.509869859,67.3606599 0.0988350401,70.4638562 C-0.29112107,73.4079142 0.480886634,76.3254493 2.27257687,78.6860003 C4.06426711,81.0465514 6.66221795,82.2135654 9.58952361,82.611411 C10.0611597,82.6644571 10.530161,82.3196575 10.9938926,82.3196575 L11.3680397,82.3196575 C12.5985093,82.3196575 14.4297221,82.7175032 16.9565323,82.6909802 C19.1381786,82.6644571 21.841523,82.9827337 25.1666893,82.9827337 C31.864449,82.9827337 39.1655867,83.6458098 46.2295889,84.2823629 Z" id="Fill-713" stroke="#32C4F5" stroke-width="3"></path>
                                </g>
                            </g>
                        </g>
                    </g>
                    <path d="M185,143.679996 L185,30" id="Path-32-Copy" stroke="#6A6460" stroke-width="2" stroke-dasharray="5,4"></path>
                    <path d="M185,3 L185,30.0585938" id="Path-32-Copy" stroke="#6A6460" stroke-width="2" stroke-dasharray="5,4" opacity="0.2"></path>
                    <path d="M173,144.652344 L199.195312,144" id="Path-33" stroke="#6A6460" stroke-width="2" stroke-dasharray="5,4"></path>
                    <path d="M173,28.6523438 L199.195312,28" id="Path-33-Copy" stroke="#6A6460" stroke-width="2" stroke-dasharray="5,4"></path>
                    <path d="M172,1.65234375 L198.195312,1" id="Path-33" stroke="#6A6460" stroke-width="2" stroke-dasharray="5,4" opacity="0.2"></path>
                </g>
            </g>
        </g>
    </g>
</svg>