<?xml version="1.0" encoding="UTF-8" standalone="no"?>
<svg width="293px" height="230px" viewBox="0 0 293 230" version="1.1" xmlns="http://www.w3.org/2000/svg" xmlns:xlink="http://www.w3.org/1999/xlink">
    <!-- Generator: Sketch 3.8.3 (29802) - http://www.bohemiancoding.com/sketch -->
    <title>top3</title>
    <desc>Created with Sketch.</desc>
    <defs>
        <rect id="path-1" x="0" y="114" width="91" height="116"></rect>
        <mask id="mask-2" maskContentUnits="userSpaceOnUse" maskUnits="objectBoundingBox" x="0" y="0" width="91" height="116" fill="white">
            <use xlink:href="#path-1"></use>
        </mask>
        <rect id="path-3" x="101" y="78" width="91" height="152"></rect>
        <mask id="mask-4" maskContentUnits="userSpaceOnUse" maskUnits="objectBoundingBox" x="0" y="0" width="91" height="152" fill="white">
            <use xlink:href="#path-3"></use>
        </mask>
        <rect id="path-5" x="202" y="134" width="91" height="96"></rect>
        <mask id="mask-6" maskContentUnits="userSpaceOnUse" maskUnits="objectBoundingBox" x="0" y="0" width="91" height="96" fill="white">
            <use xlink:href="#path-5"></use>
        </mask>
        <ellipse id="path-7" cx="64" cy="34" rx="16" ry="16"></ellipse>
        <mask id="mask-8" maskContentUnits="userSpaceOnUse" maskUnits="objectBoundingBox" x="0" y="0" width="32" height="32" fill="white">
            <use xlink:href="#path-7"></use>
        </mask>
    </defs>
    <g id="Page-1" stroke="none" stroke-width="1" fill="none" fill-rule="evenodd">
        <g id="Ecommerce-Survey-Webpage" transform="translate(-152.000000, -5388.000000)">
            <g id="top3" transform="translate(152.000000, 5388.000000)">
                <polygon id="Rectangle-23-Copy-2" fill="#DFE8ED" transform="translate(196.500000, 182.000000) scale(-1, 1) translate(-196.500000, -182.000000) " points="191 134 202 144 202 220 191 230"></polygon>
                <polygon id="Rectangle-23" fill="#DFE8ED" transform="translate(96.500000, 172.000000) scale(-1, 1) translate(-96.500000, -172.000000) " points="91 126 102 114 102 230 91 218"></polygon>
                <use id="Rectangle-23" stroke="#DFE8ED" mask="url(#mask-2)" stroke-width="6" fill="#FFFFFF" xlink:href="#path-1"></use>
                <use id="Rectangle-23-Copy" stroke="#DFE8ED" mask="url(#mask-4)" stroke-width="6" fill="#FFFFFF" xlink:href="#path-3"></use>
                <use id="Rectangle-23-Copy-2" stroke="#DFE8ED" mask="url(#mask-6)" stroke-width="6" fill="#FFFFFF" xlink:href="#path-5"></use>
                <path d="M151.4235,102.621 L151.4235,135 L145.6615,135 L145.6615,111.307 C145.374832,111.536334 145.009336,111.751332 144.565,111.952 C144.120665,112.152668 143.647669,112.331833 143.146,112.4895 C142.644331,112.647167 142.135503,112.776166 141.6195,112.8765 C141.103498,112.976834 140.630502,113.055666 140.2005,113.113 L140.2005,108.641 C140.945837,108.497666 141.683996,108.289835 142.415,108.0175 C143.146004,107.745165 143.812497,107.372502 144.4145,106.8995 C145.016503,106.426498 145.546831,105.838837 146.0055,105.1365 C146.464169,104.434163 146.808166,103.595672 147.0375,102.621 L151.4235,102.621 Z" id="1" fill="#313335"></path>
                <path d="M34.3850001,143.354 C34.5370008,142.391329 34.8473311,141.359006 35.3160001,140.257 C35.7846691,139.154994 36.4813288,138.135338 37.4060001,137.198 C38.3306714,136.260662 39.5276594,135.488003 40.9970001,134.88 C42.4663407,134.271997 44.2649894,133.968 46.3930001,133.968 C47.9383411,133.968 49.3506603,134.170665 50.6300001,134.576 C51.9093398,134.981335 53.0113288,135.563996 53.9360001,136.324 C54.8606714,137.084004 55.5826641,138.021328 56.1020001,139.136 C56.621336,140.250672 56.8810001,141.517326 56.8810001,142.936 C56.8810001,144.17734 56.6846687,145.272995 56.2920001,146.223 C55.8993314,147.173005 55.3610035,148.008996 54.6770001,148.731 C53.9929966,149.453004 53.1760048,150.092664 52.2260001,150.65 C51.2759953,151.207336 50.2310058,151.739331 49.0910001,152.246 C46.5576541,153.360672 44.63234,154.386662 43.3150001,155.324 C41.9976601,156.261338 41.2503343,157.299994 41.0730001,158.44 L56.9950001,158.44 L56.9950001,163 L34.4610001,163 C34.511667,161.277325 34.7649978,159.73834 35.2210001,158.383 C35.6770023,157.02766 36.3356624,155.799006 37.1970001,154.697 C38.0583377,153.594994 39.1286603,152.600671 40.4080001,151.714 C41.6873398,150.827329 43.1756582,150.004004 44.8730001,149.244 C46.2156734,148.635997 47.3113292,148.097669 48.1600001,147.629 C49.008671,147.160331 49.6799976,146.679002 50.1740001,146.185 C50.6680025,145.690998 51.0099991,145.171669 51.2000001,144.627 C51.390001,144.082331 51.4850001,143.430004 51.4850001,142.67 C51.4850001,141.225993 50.9973383,140.181003 50.0220001,139.535 C49.0466619,138.888997 47.6976753,138.566 45.9750001,138.566 C43.9989902,138.566 42.447339,139.059995 41.3200001,140.048 C40.1926611,141.036005 39.3756693,142.593989 38.8690001,144.722 L34.3850001,143.354 Z" id="2" fill="#313335"></path>
                <path d="M241.217,170.5 C241.419668,171.184003 241.666665,171.842663 241.958,172.476 C242.249335,173.109336 242.654664,173.666664 243.174,174.148 C243.693336,174.629336 244.358329,175.015665 245.169,175.307 C245.979671,175.598335 246.992994,175.744 248.209,175.744 C250.235677,175.744 251.692329,175.357671 252.579,174.585 C253.465671,173.812329 253.909,172.856006 253.909,171.716 C253.909,170.499994 253.56067,169.550003 252.864,168.866 C252.16733,168.181997 250.907009,167.84 249.083,167.84 L246.005,167.84 L246.005,163.28 L249.387,163.28 C252.148347,163.28 253.529,162.026013 253.529,159.518 C253.529,158.149993 253.028672,157.13667 252.028,156.478 C251.027328,155.81933 249.691008,155.49 248.019,155.49 C247.005662,155.49 246.138004,155.629332 245.416,155.908 C244.693996,156.186668 244.073336,156.566664 243.554,157.048 C243.034664,157.529336 242.623002,158.092997 242.319,158.739 C242.014999,159.385003 241.774334,160.062663 241.597,160.772 L236.923,158.986 C237.50567,156.503321 238.753324,154.533674 240.666,153.077 C242.578676,151.620326 245.092984,150.892 248.209,150.892 C249.881008,150.892 251.369327,151.094665 252.674,151.5 C253.978673,151.905335 255.074329,152.487996 255.961,153.248 C256.847671,154.008004 257.525331,154.913661 257.994,155.965 C258.462669,157.016339 258.697,158.187994 258.697,159.48 C258.697,160.316004 258.595668,161.056997 258.393,161.703 C258.190332,162.349003 257.918002,162.906331 257.576,163.375 C257.233998,163.843669 256.847669,164.236332 256.417,164.553 C255.986331,164.869668 255.530336,165.129332 255.049,165.332 C256.341007,165.864003 257.360663,166.680994 258.108,167.783 C258.855337,168.885006 259.229,170.246659 259.229,171.868 C259.229,173.286674 258.944003,174.534328 258.374,175.611 C257.803997,176.687672 257.031338,177.586996 256.056,178.309 C255.080662,179.031004 253.928007,179.575665 252.598,179.943 C251.267993,180.310335 249.843008,180.494 248.323,180.494 C245.206984,180.494 242.610344,179.810007 240.533,178.442 C238.455656,177.073993 237.062337,175.110679 236.353,172.552 L241.217,170.5 Z" id="3" fill="#313335"></path>
                <path d="M113.152174,4.625 L117.277174,4.625 L117.277174,43.8125 L117.277174,52.0625 L137.902174,52.0625 L129.652174,66.5 L135.864424,66.4731875 L144.089674,52.0625 L148.214674,52.0625 L156.439924,66.4731875 L162.652174,66.5 L154.402174,52.0625 L175.027174,52.0625 L175.027174,43.8125 L175.027174,4.625 L179.152174,4.625 L179.152174,0.5 L113.152174,0.5 L113.152174,4.625 Z M135.152174,42.0312494 L135.152174,13.86 L130.752174,13.86 L130.752174,42.0312494 L135.152174,42.0312494 Z M161.552174,42.0737302 L161.552174,26.9672852 L157.152174,26.9672852 L157.152174,42.0737302 L161.552174,42.0737302 Z M148.352174,42.1552734 L148.352174,31.7114286 L143.952174,31.7114286 L143.952174,42.1552734 L148.352174,42.1552734 Z" id="Fill-205-Copy" fill="#32C4F5"></path>
                <g id="Group-29" transform="translate(5.000000, 51.000000)">
                    <ellipse id="Oval-29" fill="#32C4F5" cx="16" cy="34" rx="16" ry="16"></ellipse>
                    <use id="Oval-29-Copy" stroke="#32C4F5" mask="url(#mask-8)" stroke-width="10" xlink:href="#path-7"></use>
                    <g id="Group-28" transform="translate(44.000000, 13.500000) rotate(-10.000000) translate(-44.000000, -13.500000) translate(25.000000, 4.000000)">
                        <polygon id="Combined-Shape-Copy-4" fill="#32C4F5" transform="translate(28.170338, 9.703290) rotate(46.000000) translate(-28.170338, -9.703290) " points="31.3493268 0.46670771 31.3493271 12.782151 18.8336275 12.7821508"></polygon>
                        <path d="M26.5919596,6.90234375 C26.5919596,6.90234375 15.044113,-6.22818943 0.472821595,6.90234375" id="Path-210" stroke="#32C4F5" stroke-width="5"></path>
                    </g>
                </g>
                <g id="Group-10" transform="translate(219.000000, 67.000000)" fill="#32C4F5">
                    <path d="M35.2798783,3.0558621 C35.2798783,1.40001865 36.6239787,0.0576923077 38.285568,0.0576923077 L50.3532847,0.0576923077 C52.0132813,0.0576923077 53.3589744,1.40224296 53.3589744,3.0558621 L53.3589744,27.8895224 C53.3589744,29.5453659 52.014874,30.8876922 50.3532847,30.8876922 L38.285568,30.8876922 C36.6255714,30.8876922 35.2798783,29.5431416 35.2798783,27.8895224 L35.2798783,3.0558621 Z M44.545415,6.38537592 L44.0934376,6.38537592 C43.2193133,6.38537592 42.5115167,5.68029118 42.5115167,4.80345502 L42.5115167,4.35147762 C42.5115167,3.47464146 43.2193133,2.76955671 44.0934376,2.76955671 L44.545415,2.76955671 C45.4195393,2.76955671 46.1273359,3.47464146 46.1273359,4.35147762 L46.1273359,4.80345502 C46.1273359,5.68029118 45.4195393,6.38537592 44.545415,6.38537592 Z" id="Combined-Shape"></path>
                    <path d="M16.5880175,31.4527029 L17.1628377,31.5003983 C17.6705325,31.5480937 18.137574,31.7961097 18.4609104,32.1967509 C18.7823559,32.5878531 18.9326789,33.1029633 18.8759533,33.6085344 C18.8230093,34.0950273 18.8192276,34.6101375 18.8163913,35.1157086 C18.8116642,35.8883738 18.806937,36.6133437 18.6310874,37.2810791 C18.3030239,38.5402373 17.7707479,39.7421611 17.2564351,40.9059285 C16.6296163,42.3272511 16.0377784,43.6627219 15.9167636,44.8551066 C15.5291381,48.6802766 17.3481416,50.2446853 19.2446702,51.5133825 C19.7410199,51.8472503 20.3905289,51.9140238 20.9483315,51.7995549 C20.960622,50.1588336 21.1440351,47.4115793 22.0894631,45.0077318 C22.7550444,43.309776 24.4256157,40.5625217 26.1945115,37.6626422 C27.7677037,35.0775523 29.654778,31.8915004 30.1397826,30.5178733 L30.140728,29.859677 L30.140728,4.62596297 L30.140728,3.4974186 C30.140728,2.39427477 29.2475534,1.5 28.1327672,1.5 L27.0527382,1.5 L15.4634079,1.5 L12.1799364,1.5 C12.1799364,1.5 10.3198297,1.5 9.73082809,1.5 C9.154117,1.5 7.62346905,1.5 7.12617391,1.7957114 C6.99854113,1.86248494 6.86429035,1.9197194 6.72342158,1.96741479 C6.25638014,2.11050095 5.92642576,2.50160312 5.85930037,3.00717422 C5.8129744,3.36012008 5.92453491,3.63675333 6.02758656,3.80845672 C6.43695689,4.47619213 6.54946282,5.39194356 6.3291781,6.25046052 C6.13725621,6.99450855 5.70897732,7.58593135 5.11997567,7.91979906 C4.49693861,8.27274492 4.08567742,8.88324587 3.99208005,9.58913759 C3.93724522,10.008857 3.99869804,10.4285764 4.16887508,10.8101395 C4.59999026,11.7640472 4.71155076,14.0725039 3.37849727,15.064568 C2.69022567,15.5701391 2.24965622,16.3237262 2.13620486,17.1727041 C2.03788034,17.907213 2.20900281,18.6608002 2.61742771,19.2903793 C3.44751351,20.5686156 2.99087178,22.8484551 1.73061624,23.7165111 C0.800315073,24.3556293 0.18295058,25.3667715 0.0354638103,26.4828436 C-0.104459536,27.5416812 0.172550872,28.5909797 0.815441921,29.4399576 C1.45833297,30.2889354 2.39052499,30.7086548 3.44089551,30.851741 C3.61012713,30.8708192 3.77841332,30.7468112 3.94480865,30.7468112 L4.07905942,30.7468112 C4.52057431,30.7468112 5.17764677,30.8898973 6.08431224,30.8803582 C6.86712663,30.8708192 7.83713578,30.9852881 9.03026593,30.9852881 C11.4335439,30.9852881 14.053325,31.223765 16.5880175,31.4527029 Z" id="Fill-713" stroke="#32C4F5" stroke-width="3"></path>
                </g>
            </g>
        </g>
    </g>
</svg>