<?xml version="1.0" encoding="UTF-8" standalone="no"?>
<svg width="113px" height="120px" viewBox="0 0 113 120" version="1.1" xmlns="http://www.w3.org/2000/svg" xmlns:xlink="http://www.w3.org/1999/xlink">
    <!-- Generator: Sketch 3.8.3 (29802) - http://www.bohemiancoding.com/sketch -->
    <title>Page 1</title>
    <desc>Created with Sketch.</desc>
    <defs></defs>
    <g id="Page-1" stroke="none" stroke-width="1" fill="none" fill-rule="evenodd">
        <g id="Ecommerce-Survey-Webpage" transform="translate(-538.000000, -6347.000000)" stroke="#32C4F5">
            <g id="Group-18" transform="translate(162.000000, 6348.000000)">
                <g id="small_vs_big" transform="translate(205.000000, 0.000000)">
                    <g id="Page-1" transform="translate(172.000000, 0.000000)">
                        <path d="M57.3575036,117.997754 C87.1484413,117.907807 111,115.661201 111,112.901922 C111,110.498642 107.867464,76.2730971 75.136612,66.2847765 C73.2122986,74.7234482 67.9176209,95.1460344 57.3575036,117.997754 Z M54.6753562,118 C24.4038282,117.95946 0,115.692963 0,112.901922 C0,110.475246 3.19382547,75.6036853 36.8289236,66 C38.1626881,74.9236509 42.3631806,95.5019695 54.6753562,118 Z" id="Combined-Shape" stroke-width="2" fill="#32C4F5"></path>
                        <path d="M78,21.988928 C78,36.3485233 68.3736649,52 56.500711,52 C44.6263351,52 35,36.3485233 35,21.988928 C35,7.62933268 44.6263351,0 56.500711,0 C68.3736649,0 78,7.62933268 78,21.988928 L78,21.988928 Z" id="Stroke-7" stroke-width="2" fill="#32C4F5"></path>
                        <path d="M53,78 C53,78 46,95.4671567 46,113" id="Stroke-15" stroke-width="3" stroke-linejoin="round"></path>
                        <path d="M58,78 C58,78 65,96.859776 65,114" id="Stroke-19" stroke-width="3" stroke-linejoin="round"></path>
                        <path d="M65,65.0445986 C65,66.7274529 60.746016,78 55.4990597,78 C50.2521033,78 46,66.7274529 46,65.0445986 C46,63.3617443 50.2521033,62 55.4990597,62 C60.746016,62 65,63.3617443 65,65.0445986 L65,65.0445986 Z" id="Stroke-31" stroke-width="3" stroke-linejoin="round" fill="#FFFFFF"></path>
                    </g>
                </g>
            </g>
        </g>
    </g>
</svg>