<?xml version="1.0" encoding="UTF-8" standalone="no"?>
<svg width="223px" height="181px" viewBox="0 0 223 181" version="1.1" xmlns="http://www.w3.org/2000/svg" xmlns:xlink="http://www.w3.org/1999/xlink">
    <!-- Generator: Sketch 3.8.3 (29802) - http://www.bohemiancoding.com/sketch -->
    <title>now_hiring</title>
    <desc>Created with Sketch.</desc>
    <defs>
        <rect id="path-1" x="4.86808101" y="4.51716421" width="203" height="107" rx="4"></rect>
        <mask id="mask-2" maskContentUnits="userSpaceOnUse" maskUnits="objectBoundingBox" x="0" y="0" width="203" height="107" fill="white">
            <use xlink:href="#path-1"></use>
        </mask>
    </defs>
    <g id="Page-1" stroke="none" stroke-width="1" fill="none" fill-rule="evenodd">
        <g id="Ecommerce-Survey-Webpage" transform="translate(-191.000000, -9153.000000)">
            <g id="now_hiring" transform="translate(190.000000, 9148.000000)">
                <path d="M25.7805564,77.42188 L97.3608613,8.58520868 C99.7500881,6.28755966 103.788711,6.10468457 106.373169,8.17018466 L183.39116,69.7230022" id="Path-232" stroke="#32C4F5" stroke-width="4" transform="translate(104.585858, 42.077860) rotate(-5.000000) translate(-104.585858, -42.077860) "></path>
                <g id="Group-23" transform="translate(-0.000000, 48.000000)">
                    <g id="Group-22" transform="translate(112.549525, 69.444997) rotate(-6.000000) translate(-112.549525, -69.444997) translate(6.049525, 10.944997)">
                        <rect id="Rectangle-244" fill="#32C4F5" x="0.31358539" y="0.0164343139" width="212" height="116" rx="7"></rect>
                        <use id="Rectangle-244" stroke="#FFFFFF" mask="url(#mask-2)" stroke-width="6" fill="#32C4F5" xlink:href="#path-1"></use>
                        <path d="M68.2119146,33.5715657 L74.9079146,33.5715657 L83.1159146,47.2335657 L82.9269146,33.5715657 L87.8949146,33.5715657 L87.8949146,53.9835657 L81.7119146,53.9835657 L72.9639146,39.5655657 L73.1799146,53.9835657 L68.2119146,53.9835657 L68.2119146,33.5715657 Z M102.023915,54.4695657 C100.367906,54.4695657 98.8694213,54.1995684 97.5284146,53.6595657 C96.1874079,53.119563 95.0444193,52.3725705 94.0994146,51.4185657 C93.1544099,50.4645609 92.4254172,49.3350722 91.9124146,48.0300657 C91.399412,46.7250592 91.1429146,45.3075733 91.1429146,43.7775657 C91.1429146,42.247558 91.4354117,40.8390721 92.0204146,39.5520657 C92.6054175,38.2650593 93.3974096,37.1490704 94.3964146,36.2040657 C95.3954196,35.259061 96.560908,34.5210683 97.8929146,33.9900657 C99.2249213,33.459063 100.646907,33.1935657 102.158915,33.1935657 C103.670922,33.1935657 105.092908,33.4410632 106.424915,33.9360657 C107.756921,34.4310682 108.92241,35.1285612 109.921415,36.0285657 C110.92042,36.9285702 111.712412,38.0220593 112.297415,39.3090657 C112.882418,40.5960721 113.174915,42.0315578 113.174915,43.6155657 C113.174915,45.1455733 112.904917,46.5720591 112.364915,47.8950657 C111.824912,49.2180723 111.068919,50.3655608 110.096915,51.3375657 C109.12491,52.3095705 107.954921,53.0745629 106.586915,53.6325657 C105.218908,54.1905685 103.697923,54.4695657 102.023915,54.4695657 L102.023915,54.4695657 Z M102.185915,49.7985657 C103.859923,49.7985657 105.19641,49.2810709 106.195415,48.2460657 C107.19442,47.2110605 107.693915,45.7125755 107.693915,43.7505657 C107.693915,42.7605607 107.558916,41.8920694 107.288915,41.1450657 C107.018913,40.398062 106.636417,39.7725682 106.141415,39.2685657 C105.646412,38.7645632 105.056918,38.3865669 104.372915,38.1345657 C103.688911,37.8825644 102.941919,37.7565657 102.131915,37.7565657 C100.493906,37.7565657 99.1664197,38.2605606 98.1494146,39.2685657 C97.1324095,40.2765707 96.6239146,41.7705558 96.6239146,43.7505657 C96.6239146,45.7485757 97.1324095,47.2560606 98.1494146,48.2730657 C99.1664197,49.2900708 100.511906,49.7985657 102.185915,49.7985657 L102.185915,49.7985657 Z M114.559915,33.5715657 L120.256915,33.5715657 L123.874915,47.9625657 L127.843915,33.5715657 L132.244915,33.5715657 L136.510915,48.2055657 L139.939915,33.5715657 L145.123915,33.5715657 L139.588915,53.9835657 L133.378915,53.9835657 L129.922915,41.1585657 L126.412915,53.9835657 L120.229915,53.9835657 L114.559915,33.5715657 Z M55.4464146,75.5595657 L55.4464146,83.9835657 L50.1544146,83.9835657 L50.1544146,63.5715657 L55.4464146,63.5715657 L55.4464146,71.2665657 L64.9234146,71.2665657 L64.9234146,63.5715657 L70.2154146,63.5715657 L70.2154146,83.9835657 L64.9234146,83.9835657 L64.9234146,75.5595657 L55.4464146,75.5595657 Z M74.7594146,63.5715657 L80.0514146,63.5715657 L80.0514146,83.9835657 L74.7594146,83.9835657 L74.7594146,63.5715657 Z M89.8874146,83.9835657 L84.5954146,83.9835657 L84.5954146,63.5715657 L96.0704146,63.5715657 C98.7704281,63.5715657 100.732408,64.0890605 101.956415,65.1240657 C103.180421,66.1590709 103.792415,67.6575559 103.792415,69.6195657 C103.792415,70.3935696 103.693416,71.0685628 103.495415,71.6445657 C103.297414,72.2205686 103.031916,72.7065637 102.698915,73.1025657 C102.365913,73.4985677 101.978917,73.8225644 101.537915,74.0745657 C101.096912,74.3265669 100.624417,74.524565 100.120415,74.6685657 C100.714418,74.8125664 101.245412,75.0645639 101.713415,75.4245657 C102.181417,75.7845675 102.505414,76.1985633 102.685415,76.6665657 C102.829415,77.0445676 102.941914,77.4585634 103.022915,77.9085657 C103.103915,78.3585679 103.166914,78.8220633 103.211915,79.2990657 C103.256915,79.7760681 103.297414,80.2575633 103.333415,80.7435657 C103.369415,81.2295681 103.414414,81.6975634 103.468415,82.1475657 C103.576415,83.0655703 103.738414,83.6145648 103.954415,83.7945657 L103.954415,83.9835657 L98.5544146,83.9835657 C98.5184144,83.8215649 98.4824148,83.6415667 98.4464146,83.4435657 C98.4104144,83.2455647 98.3744148,82.9890673 98.3384146,82.6740657 C98.3024144,82.3590641 98.2709147,81.9765679 98.2439146,81.5265657 C98.2169145,81.0765634 98.1854148,80.5275689 98.1494146,79.8795657 C98.1134144,78.6735597 97.8209174,77.8320681 97.2719146,77.3550657 C96.7229119,76.8780633 95.8004211,76.6395657 94.5044146,76.6395657 L89.8874146,76.6395657 L89.8874146,83.9835657 Z M95.6654146,72.4005657 C96.7274199,72.4005657 97.4744125,72.1935678 97.9064146,71.7795657 C98.3384168,71.3655636 98.5544146,70.7805695 98.5544146,70.0245657 C98.5544146,69.286562 98.3339168,68.7510674 97.8929146,68.4180657 C97.4519124,68.085064 96.7184197,67.9185657 95.6924146,67.9185657 L89.8874146,67.9185657 L89.8874146,72.4005657 L95.6654146,72.4005657 Z M107.445415,63.5715657 L112.737415,63.5715657 L112.737415,83.9835657 L107.445415,83.9835657 L107.445415,63.5715657 Z M117.281415,63.5715657 L123.977415,63.5715657 L132.185415,77.2335657 L131.996415,63.5715657 L136.964415,63.5715657 L136.964415,83.9835657 L130.781415,83.9835657 L122.033415,69.5655657 L122.249415,83.9835657 L117.281415,83.9835657 L117.281415,63.5715657 Z M151.147415,84.4695657 C149.491406,84.4695657 147.992921,84.2040683 146.651915,83.6730657 C145.310908,83.142063 144.163419,82.4085704 143.209415,81.4725657 C142.25541,80.536561 141.517417,79.4295721 140.995415,78.1515657 C140.473412,76.8735593 140.212415,75.4875732 140.212415,73.9935657 C140.212415,72.4095578 140.464412,70.9560723 140.968415,69.6330657 C141.472417,68.3100591 142.20591,67.1715705 143.168915,66.2175657 C144.131919,65.2635609 145.310908,64.5210683 146.705915,63.9900657 C148.100922,63.459063 149.689406,63.1935657 151.471415,63.1935657 C153.937427,63.1935657 155.944407,63.5760619 157.492415,64.3410657 C159.040422,65.1060695 160.23741,66.1725588 161.083415,67.5405657 L156.817415,70.2405657 C156.277412,69.4485617 155.602419,68.8320679 154.792415,68.3910657 C153.982411,67.9500635 152.866422,67.7295657 151.444415,67.7295657 C149.626406,67.7295657 148.21342,68.2785602 147.205415,69.3765657 C146.19741,70.4745712 145.693415,72.0045559 145.693415,73.9665657 C145.693415,75.9285755 146.206409,77.4225606 147.232415,78.4485657 C148.25842,79.4745708 149.797404,79.9875657 151.849415,79.9875657 C152.785419,79.9875657 153.577411,79.8345672 154.225415,79.5285657 C154.873418,79.2225642 155.399913,78.8670677 155.804915,78.4620657 C156.209917,78.0570637 156.502414,77.6385678 156.682415,77.2065657 C156.862416,76.7745635 156.952415,76.4415669 156.952415,76.2075657 L156.952415,76.0995657 L152.578415,76.0995657 L152.578415,71.9955657 L161.758415,71.9955657 L161.758415,83.9835657 L159.085415,83.9835657 L158.248415,81.3645657 C157.474411,82.3005704 156.53842,83.0520629 155.440415,83.6190657 C154.342409,84.1860685 152.911423,84.4695657 151.147415,84.4695657 L151.147415,84.4695657 Z" id="NOW" fill="#FFFFFF"></path>
                    </g>
                </g>
            </g>
        </g>
    </g>
</svg>