<?xml version="1.0" encoding="UTF-8" standalone="no"?>
<svg width="261px" height="185px" viewBox="0 0 261 185" version="1.1" xmlns="http://www.w3.org/2000/svg" xmlns:xlink="http://www.w3.org/1999/xlink">
    <!-- Generator: Sketch 3.8.3 (29802) - http://www.bohemiancoding.com/sketch -->
    <title>pouring_data</title>
    <desc>Created with Sketch.</desc>
    <defs>
        <path d="M91.830984,26.8631596 C100.032356,29.3584299 106,36.9806897 106,46 C106,57.045695 97.0538543,66 85.999936,66 L20.000064,66 C8.95433368,66 0,57.0481236 0,46 C0,36.6644838 6.39037801,28.8228816 15.0426685,26.6184754 C15.7556539,15.1118014 25.3137393,6 37,6 C41.3784832,6 45.4582193,7.27908814 48.8859315,9.48398758 C53.2695816,3.72067689 60.2002855,0 68,0 C81.254834,0 92,10.745166 92,24 C92,24.9688677 91.9425892,25.9243263 91.830984,26.8631596 Z" id="path-1"></path>
        <mask id="mask-2" maskContentUnits="userSpaceOnUse" maskUnits="objectBoundingBox" x="0" y="0" width="106" height="66" fill="white">
            <use xlink:href="#path-1"></use>
        </mask>
        <path d="M105.085106,52 C102.53837,60.1142139 94.9618866,66 85.999936,66 L20.000064,66 C11.0444184,66 3.4635785,60.1153721 0.915322878,52 L105.085106,52 Z" id="path-3"></path>
        <mask id="mask-4" maskContentUnits="userSpaceOnUse" maskUnits="objectBoundingBox" x="0" y="0" width="104.169783" height="14" fill="white">
            <use xlink:href="#path-3"></use>
        </mask>
        <path d="M91.830984,26.8631596 C100.032356,29.3584299 106,36.9806897 106,46 C106,57.045695 97.0538543,66 85.999936,66 L20.000064,66 C8.95433368,66 0,57.0481236 0,46 C0,36.6644838 6.39037801,28.8228816 15.0426685,26.6184754 C15.7556539,15.1118014 25.3137393,6 37,6 C41.3784832,6 45.4582193,7.27908814 48.8859315,9.48398758 C53.2695816,3.72067689 60.2002855,0 68,0 C81.254834,0 92,10.745166 92,24 C92,24.9688677 91.9425892,25.9243263 91.830984,26.8631596 Z" id="path-5"></path>
        <mask id="mask-6" maskContentUnits="userSpaceOnUse" maskUnits="objectBoundingBox" x="0" y="0" width="106" height="66" fill="white">
            <use xlink:href="#path-5"></use>
        </mask>
        <path d="M18.5578677,15.9999905 C16.5435242,19.0894005 15.2844663,22.7162216 15.0426736,26.6184741 C6.39037801,28.8228816 0,36.6644838 0,46 C0,57.0481236 8.95433368,66 20.000064,66 L85.999936,66 C97.0538543,66 106,57.045695 106,46 C106,36.9806897 100.032356,29.3584299 91.830984,26.8631596 C91.9425892,25.9243263 92,24.9688677 92,24 C92,21.1949166 91.5187662,18.5022314 90.6343543,16 L18.5578614,16 Z" id="path-7"></path>
        <mask id="mask-8" maskContentUnits="userSpaceOnUse" maskUnits="objectBoundingBox" x="0" y="0" width="106" height="50.0000095" fill="white">
            <use xlink:href="#path-7"></use>
        </mask>
    </defs>
    <g id="Page-1" stroke="none" stroke-width="1" fill="none" fill-rule="evenodd">
        <g id="Ecommerce-Survey-Webpage" transform="translate(-606.000000, -10472.000000)">
            <g id="pouring_data" transform="translate(606.000000, 10472.000000)">
                <path d="M131,0 L131,185" id="Rectangle-259" stroke="#6A6460" stroke-width="2" stroke-dasharray="5,4" opacity="0.2"></path>
                <g id="Group-33" transform="translate(155.000000, 13.000000)">
                    <path d="M31.7102052,3.922 L31.6762052,5.503 C31.8348727,4.99299745 32.0672037,4.57933492 32.3732052,4.262 C32.6792068,3.94466508 33.1042025,3.786 33.6482052,3.786 C33.9882069,3.786 34.277204,3.8426661 34.5152052,3.956 C34.7532064,4.0693339 34.9402045,4.19966593 35.0762052,4.347 L34.3282052,6.353 L34.2602052,6.353 C34.1695381,6.21699932 34.0505393,6.09800051 33.9032052,5.996 C33.7558712,5.89399949 33.54054,5.843 33.2572052,5.843 C32.9965373,5.843 32.7698729,5.91383262 32.5772052,6.0555 C32.3845376,6.19716737 32.2230392,6.3841655 32.0927052,6.6165 C31.9623712,6.84883449 31.8660389,7.11516516 31.8037052,7.4155 C31.7413716,7.71583483 31.7102052,8.02466508 31.7102052,8.342 L31.7102052,13 L29.6702052,13 L29.6702052,3.922 L31.7102052,3.922 Z M37.6688787,8.903 C37.7255457,9.74167086 37.9295436,10.3706646 38.2808787,10.79 C38.6322138,11.2093354 39.1988748,11.419 39.9808787,11.419 C40.5815484,11.419 41.0547103,11.2915013 41.4003787,11.0365 C41.7460471,10.7814987 42.0095445,10.3876693 42.1908787,9.855 L43.9248787,10.484 C43.8115448,10.8693353 43.6557131,11.2234984 43.4573787,11.5465 C43.2590444,11.8695016 42.9983803,12.1499988 42.6753787,12.388 C42.3523771,12.6260012 41.9642143,12.8129993 41.5108787,12.949 C41.0575431,13.0850007 40.5248818,13.153 39.9128787,13.153 C39.3008757,13.153 38.7342147,13.0538343 38.2128787,12.8555 C37.6915428,12.6571657 37.2410473,12.3596686 36.8613787,11.963 C36.4817102,11.5663313 36.1842131,11.070503 35.9688787,10.4755 C35.7535443,9.88049702 35.6458787,9.1863373 35.6458787,8.393 C35.6458787,7.67899643 35.750711,7.03583619 35.9603787,6.4635 C36.1700464,5.8911638 36.4590436,5.40100204 36.8273787,4.993 C37.1957139,4.58499796 37.6377095,4.27333441 38.1533787,4.058 C38.669048,3.84266559 39.2328757,3.735 39.8448787,3.735 C40.4455484,3.735 40.9980429,3.83133237 41.5023787,4.024 C42.0067146,4.21666763 42.4402103,4.51983126 42.8028787,4.9335 C43.1655472,5.34716873 43.4488777,5.87983007 43.6528787,6.5315 C43.8568798,7.18316992 43.9588787,7.97366202 43.9588787,8.903 L37.6688787,8.903 Z M41.7998787,7.339 C41.7432118,6.72699694 41.5562137,6.2510017 41.2388787,5.911 C40.9215438,5.5709983 40.4568818,5.401 39.8448787,5.401 C39.2442091,5.401 38.7682138,5.55399847 38.4168787,5.86 C38.0655436,6.16600153 37.8332126,6.6589966 37.7198787,7.339 L41.7998787,7.339 Z M50.7675522,6.897 C50.7675522,6.35299728 50.6117205,5.98466763 50.3000522,5.792 C49.988384,5.59933237 49.5775548,5.503 49.0675522,5.503 C48.5008827,5.503 48.0135543,5.60499898 47.6055522,5.809 C47.1975502,6.01300102 46.8745534,6.36999745 46.6365522,6.88 L45.1235522,5.894 C45.5315543,5.11199609 46.0868821,4.55666831 46.7895522,4.228 C47.4922224,3.89933169 48.3252141,3.735 49.2885522,3.735 C49.7872214,3.735 50.2490501,3.7944994 50.6740522,3.9135 C51.0990544,4.03250059 51.4702173,4.21949872 51.7875522,4.4745 C52.1048872,4.72950127 52.354218,5.05249804 52.5355522,5.4435 C52.7168865,5.83450195 52.8075522,6.30766389 52.8075522,6.863 L52.8075522,10.79 C52.8075522,11.1413351 52.9208844,11.3509997 53.1475522,11.419 C53.37422,11.4870003 53.6235509,11.4870003 53.8955522,11.419 L53.9295522,11.419 L53.6405522,13.085 C53.5385517,13.1076668 53.3883866,13.1246666 53.1900522,13.136 C52.9917179,13.1473334 52.8075531,13.153 52.6375522,13.153 C52.1162163,13.153 51.7167203,13.0311679 51.4390522,12.7875 C51.1613842,12.5438321 50.9658861,12.218002 50.8525522,11.81 C50.5805509,12.218002 50.2263878,12.5438321 49.7900522,12.7875 C49.3537167,13.0311679 48.7332229,13.153 47.9285522,13.153 C47.543217,13.153 47.1663874,13.1076671 46.7980522,13.017 C46.4297171,12.9263329 46.1067203,12.779001 45.8290522,12.575 C45.5513842,12.370999 45.3275531,12.1075016 45.1575522,11.7845 C44.9875514,11.4614984 44.9025522,11.0620024 44.9025522,10.586 C44.9025522,10.0079971 45.0272177,9.52350195 45.2765522,9.1325 C45.5258868,8.74149804 45.8970498,8.42133458 46.3900522,8.172 C46.8830547,7.92266542 47.4950486,7.73000068 48.2260522,7.594 C48.9570559,7.45799932 49.8042141,7.35600034 50.7675522,7.288 L50.7675522,6.897 Z M50.7675522,8.818 C50.1895493,8.86333356 49.6625546,8.91716635 49.1865522,8.9795 C48.7105499,9.04183364 48.3025539,9.1324994 47.9625522,9.2515 C47.6225505,9.37050059 47.3590532,9.52633237 47.1720522,9.719 C46.9850513,9.91166763 46.8915522,10.1609985 46.8915522,10.467 C46.8915522,11.13567 47.3335478,11.47 48.2175522,11.47 C48.5575539,11.47 48.8805507,11.4190005 49.1865522,11.317 C49.4925538,11.2149995 49.764551,11.0733342 50.0025522,10.892 C50.2405534,10.7106658 50.4275516,10.489668 50.5635522,10.229 C50.6995529,9.96833203 50.7675522,9.67933492 50.7675522,9.362 L50.7675522,8.818 Z M57.2192257,0.114 L57.2192257,13 L55.1792257,13 L55.1792257,0.114 L57.2192257,0.114 Z M61.5798993,3.922 L61.5798993,13 L59.5398993,13 L59.5398993,3.922 L61.5798993,3.922 Z M61.6478993,0.114 L61.6478993,2.392 L59.4718993,2.392 L59.4718993,0.114 L61.6478993,0.114 Z M66.5695728,10.756 C66.5695728,11.2093356 66.813237,11.436 67.3005728,11.436 C67.5839075,11.436 67.8219051,11.4048336 68.0145728,11.3425 C68.2072404,11.2801664 68.3659055,11.1980005 68.4905728,11.096 L68.5415728,11.096 L68.4225728,12.949 C68.2525719,13.0283337 68.048574,13.0934997 67.8105728,13.1445 C67.5725716,13.1955003 67.2722412,13.221 66.9095728,13.221 C66.161569,13.221 65.5779082,13.017002 65.1585728,12.609 C64.7392373,12.200998 64.5295728,11.5663376 64.5295728,10.705 L64.5295728,5.656 L62.9655728,5.656 L62.9655728,3.922 L64.5295728,3.922 L64.5295728,2.63 C64.8809079,2.39199881 65.2124045,2.13700136 65.5240728,1.865 C65.835741,1.59299864 66.1672377,1.25866865 66.5185728,0.862 L66.5695728,0.862 L66.5695728,3.922 L68.4735728,3.922 L68.4735728,5.656 L66.5695728,5.656 L66.5695728,10.756 Z M69.2982463,3.922 L71.4742463,3.922 L73.4802463,10.144 L75.3672463,3.922 L77.3562463,3.922 L74.1092463,13.986 C73.984579,14.3486685 73.8202473,14.6943317 73.6162463,15.023 C73.4122452,15.3516683 73.1629144,15.6293322 72.8682463,15.856 C72.6415785,16.0373342 72.3695812,16.1676663 72.0522463,16.247 C71.7349113,16.3263337 71.4119146,16.366 71.0832463,16.366 C70.3805761,16.366 69.8139151,16.2413346 69.3832463,15.992 L69.9102463,14.275 L69.9442463,14.275 C70.1482473,14.4563342 70.442911,14.547 70.8282463,14.547 C71.1002476,14.547 71.3495785,14.4875006 71.5762463,14.3685 C71.8029141,14.2494994 71.9842456,14.0086685 72.1202463,13.646 L72.4262463,12.881 L69.2982463,3.922 Z" id="reality" fill="#32C4F5"></path>
                    <g id="Group-30" transform="translate(0.000000, 34.000000)">
                        <use id="Combined-Shape-Copy-5" stroke="#32C4F5" mask="url(#mask-2)" stroke-width="6" xlink:href="#path-1"></use>
                        <use id="Combined-Shape" stroke="#32C4F5" mask="url(#mask-4)" stroke-width="6" fill="#32C4F5" xlink:href="#path-3"></use>
                        <path d="M37.5611632,74.199 L37.5611632,87 L35.2831632,87 L35.2831632,77.633 C35.1698293,77.7236671 35.0253308,77.8086663 34.8496632,77.888 C34.6739957,77.9673337 34.4869976,78.0381664 34.2886632,78.1005 C34.0903289,78.1628336 33.8891643,78.2138331 33.6851632,78.2535 C33.4811622,78.2931669 33.2941641,78.3243332 33.1241632,78.347 L33.1241632,76.579 C33.4188314,76.5223331 33.7106618,76.4401672 33.9996632,76.3325 C34.2886647,76.2248328 34.5521621,76.0775009 34.7901632,75.8905 C35.0281644,75.7034991 35.237829,75.4711681 35.4191632,75.1935 C35.6004975,74.9158319 35.7364961,74.5843353 35.8271632,74.199 L37.5611632,74.199 Z" id="1-copy-2" fill="#32C4F5"></path>
                        <path d="M84.5611632,74.199 L84.5611632,87 L82.2831632,87 L82.2831632,77.633 C82.1698293,77.7236671 82.0253308,77.8086663 81.8496632,77.888 C81.6739957,77.9673337 81.4869976,78.0381664 81.2886632,78.1005 C81.0903289,78.1628336 80.8891643,78.2138331 80.6851632,78.2535 C80.4811622,78.2931669 80.2941641,78.3243332 80.1241632,78.347 L80.1241632,76.579 C80.4188314,76.5223331 80.7106618,76.4401672 80.9996632,76.3325 C81.2886647,76.2248328 81.5521621,76.0775009 81.7901632,75.8905 C82.0281644,75.7034991 82.237829,75.4711681 82.4191632,75.1935 C82.6004975,74.9158319 82.7364961,74.5843353 82.8271632,74.199 L84.5611632,74.199 Z" id="1-copy-2" fill="#32C4F5"></path>
                        <path d="M44.4366632,80.574 C44.4366632,79.6333286 44.5669953,78.763504 44.8276632,77.9645 C45.0883312,77.165496 45.4651608,76.468503 45.9581632,75.8735 C46.4511657,75.278497 47.0546597,74.813835 47.7686632,74.4795 C48.4826668,74.145165 49.2873254,73.978 50.1826632,73.978 C51.0893344,73.978 51.902493,74.1394984 52.6221632,74.4625 C53.3418335,74.7855016 53.9509941,75.2359971 54.4496632,75.814 C54.9483324,76.3920029 55.3279953,77.0833293 55.5886632,77.888 C55.8493312,78.6926707 55.9796632,79.5766618 55.9796632,80.54 C55.9796632,81.5146715 55.8634977,82.4128292 55.6311632,83.2345 C55.3988288,84.0561708 55.0446656,84.7616637 54.5686632,85.351 C54.0926609,85.9403363 53.4920002,86.3993317 52.7666632,86.728 C52.0413263,87.0566683 51.1856682,87.221 50.1996632,87.221 C49.2136583,87.221 48.3580002,87.053835 47.6326632,86.7195 C46.9073263,86.385165 46.3094989,85.9233363 45.8391632,85.334 C45.3688276,84.7446637 45.0174977,84.0448374 44.7851632,83.2345 C44.5528288,82.4241626 44.4366632,81.5373381 44.4366632,80.574 L44.4366632,80.574 Z M50.1656632,76.001 C49.5876604,76.001 49.0889987,76.1171655 48.6696632,76.3495 C48.2503278,76.5818345 47.9046646,76.901998 47.6326632,77.31 C47.3606619,77.718002 47.1594972,78.1996639 47.0291632,78.755 C46.8988293,79.3103361 46.8336632,79.9109968 46.8336632,80.557 C46.8336632,82.0530075 47.0999939,83.1948294 47.6326632,83.9825 C48.1653326,84.7701706 49.0153241,85.164 50.1826632,85.164 C51.3613358,85.164 52.2226605,84.7701706 52.7666632,83.9825 C53.310666,83.1948294 53.5826632,82.0416743 53.5826632,80.523 C53.5826632,79.1403264 53.3021661,78.0410041 52.7411632,77.225 C52.1801604,76.4089959 51.321669,76.001 50.1656632,76.001 L50.1656632,76.001 Z" id="0-copy-2" fill="#32C4F5"></path>
                    </g>
                </g>
                <g id="Group-32" transform="translate(0.000000, 13.000000)">
                    <path d="M38.5443787,7.101 C38.3517111,6.54566389 38.1023803,6.12916805 37.7963787,5.8515 C37.4903772,5.57383194 37.0653815,5.435 36.5213787,5.435 C35.8073752,5.435 35.2435475,5.67016431 34.8298787,6.1405 C34.41621,6.61083568 34.2093787,7.32766185 34.2093787,8.291 C34.2093787,9.26567154 34.3963769,10.0334972 34.7703787,10.5945 C35.1443806,11.1555028 35.7280414,11.436 36.5213787,11.436 C37.110715,11.436 37.575377,11.2971681 37.9153787,11.0195 C38.2553804,10.7418319 38.5217111,10.3310027 38.7143787,9.787 L40.3803787,10.824 C40.0517104,11.5380036 39.5813818,12.1046646 38.9693787,12.524 C38.3573757,12.9433354 37.5130508,13.153 36.4363787,13.153 C35.8130423,13.153 35.2378814,13.0425011 34.7108787,12.8215 C34.1838761,12.6004989 33.7305473,12.2831687 33.3508787,11.8695 C32.9712102,11.4558313 32.6765464,10.9543363 32.4668787,10.365 C32.257211,9.77566372 32.1523787,9.11833696 32.1523787,8.393 C32.1523787,7.69032982 32.2600443,7.05283619 32.4753787,6.4805 C32.6907131,5.9081638 32.9938768,5.41800204 33.3848787,5.01 C33.7758807,4.60199796 34.2405427,4.2875011 34.7788787,4.0665 C35.3172148,3.84549889 35.9150421,3.735 36.5723787,3.735 C37.5017167,3.735 38.2837089,3.94466457 38.9183787,4.364 C39.5530486,4.78333543 40.0007108,5.40099592 40.2613787,6.217 L38.5443787,7.101 Z M43.8570522,0.114 L43.8570522,13 L41.8170522,13 L41.8170522,0.114 L43.8570522,0.114 Z M51.3287257,6.897 C51.3287257,6.35299728 51.172894,5.98466763 50.8612257,5.792 C50.5495575,5.59933237 50.1387283,5.503 49.6287257,5.503 C49.0620562,5.503 48.5747278,5.60499898 48.1667257,5.809 C47.7587237,6.01300102 47.4357269,6.36999745 47.1977257,6.88 L45.6847257,5.894 C46.0927278,5.11199609 46.6480556,4.55666831 47.3507257,4.228 C48.0533959,3.89933169 48.8863876,3.735 49.8497257,3.735 C50.3483949,3.735 50.8102236,3.7944994 51.2352257,3.9135 C51.6602279,4.03250059 52.0313908,4.21949872 52.3487257,4.4745 C52.6660607,4.72950127 52.9153915,5.05249804 53.0967257,5.4435 C53.27806,5.83450195 53.3687257,6.30766389 53.3687257,6.863 L53.3687257,10.79 C53.3687257,11.1413351 53.4820579,11.3509997 53.7087257,11.419 C53.9353935,11.4870003 54.1847244,11.4870003 54.4567257,11.419 L54.4907257,11.419 L54.2017257,13.085 C54.0997252,13.1076668 53.9495601,13.1246666 53.7512257,13.136 C53.5528914,13.1473334 53.3687266,13.153 53.1987257,13.153 C52.6773898,13.153 52.2778938,13.0311679 52.0002257,12.7875 C51.7225577,12.5438321 51.5270596,12.218002 51.4137257,11.81 C51.1417244,12.218002 50.7875613,12.5438321 50.3512257,12.7875 C49.9148902,13.0311679 49.2943964,13.153 48.4897257,13.153 C48.1043905,13.153 47.7275609,13.1076671 47.3592257,13.017 C46.9908906,12.9263329 46.6678938,12.779001 46.3902257,12.575 C46.1125577,12.370999 45.8887266,12.1075016 45.7187257,11.7845 C45.5487249,11.4614984 45.4637257,11.0620024 45.4637257,10.586 C45.4637257,10.0079971 45.5883912,9.52350195 45.8377257,9.1325 C46.0870603,8.74149804 46.4582233,8.42133458 46.9512257,8.172 C47.4442282,7.92266542 48.0562221,7.73000068 48.7872257,7.594 C49.5182294,7.45799932 50.3653876,7.35600034 51.3287257,7.288 L51.3287257,6.897 Z M51.3287257,8.818 C50.7507229,8.86333356 50.2237281,8.91716635 49.7477257,8.9795 C49.2717234,9.04183364 48.8637274,9.1324994 48.5237257,9.2515 C48.183724,9.37050059 47.9202267,9.52633237 47.7332257,9.719 C47.5462248,9.91166763 47.4527257,10.1609985 47.4527257,10.467 C47.4527257,11.13567 47.8947213,11.47 48.7787257,11.47 C49.1187274,11.47 49.4417242,11.4190005 49.7477257,11.317 C50.0537273,11.2149995 50.3257246,11.0733342 50.5637257,10.892 C50.8017269,10.7106658 50.9887251,10.489668 51.1247257,10.229 C51.2607264,9.96833203 51.3287257,9.67933492 51.3287257,9.362 L51.3287257,8.818 Z M57.7293993,3.922 L57.7293993,13 L55.6893993,13 L55.6893993,3.922 L57.7293993,3.922 Z M57.7973993,0.114 L57.7973993,2.392 L55.6213993,2.392 L55.6213993,0.114 L57.7973993,0.114 Z M67.3600728,5.435 C67.7114079,4.84566372 68.1392369,4.41500136 68.6435728,4.143 C69.1479086,3.87099864 69.7797356,3.735 70.5390728,3.735 C70.8677411,3.735 71.210571,3.7944994 71.5675728,3.9135 C71.9245745,4.03250059 72.2532379,4.22233203 72.5535728,4.483 C72.8539076,4.74366797 73.1032384,5.08366457 73.3015728,5.503 C73.4999071,5.92233543 73.5990728,6.43233033 73.5990728,7.033 L73.5990728,13 L71.5590728,13 L71.5590728,7.509 C71.5590728,6.89699694 71.440074,6.40966848 71.2020728,6.047 C70.9640716,5.68433152 70.550409,5.503 69.9610728,5.503 C69.3150695,5.503 68.7909081,5.72116448 68.3885728,6.1575 C67.9862374,6.59383551 67.7850728,7.28232863 67.7850728,8.223 L67.7850728,13 L65.7450728,13 L65.7450728,7.509 C65.7450728,6.89699694 65.626074,6.40966848 65.3880728,6.047 C65.1500716,5.68433152 64.736409,5.503 64.1470728,5.503 C63.5010695,5.503 62.9769081,5.72116448 62.5745728,6.1575 C62.1722374,6.59383551 61.9710728,7.28232863 61.9710728,8.223 L61.9710728,13 L59.9310728,13 L59.9310728,3.922 L61.9710728,3.922 L61.9370728,5.384 C62.0390733,5.19133237 62.1694053,4.99866763 62.3280728,4.806 C62.4867402,4.61333237 62.6765717,4.43766746 62.8975728,4.279 C63.1185739,4.12033254 63.3792379,3.99000051 63.6795728,3.888 C63.9799076,3.78599949 64.3284041,3.735 64.7250728,3.735 C65.2237419,3.735 65.716737,3.86816533 66.2040728,4.1345 C66.6914085,4.40083466 67.076738,4.83433033 67.3600728,5.435 L67.3600728,5.435 Z" id="claim" fill="#32C4F5"></path>
                    <g id="Group-31" transform="translate(0.000000, 34.000000)">
                        <use id="Combined-Shape" stroke="#32C4F5" mask="url(#mask-6)" stroke-width="6" xlink:href="#path-5"></use>
                        <use id="Combined-Shape" stroke="#32C4F5" mask="url(#mask-8)" stroke-width="6" fill="#32C4F5" xlink:href="#path-7"></use>
                        <path d="M16.0611632,74.199 L16.0611632,87 L13.7831632,87 L13.7831632,77.633 C13.6698293,77.7236671 13.5253308,77.8086663 13.3496632,77.888 C13.1739957,77.9673337 12.9869976,78.0381664 12.7886632,78.1005 C12.5903289,78.1628336 12.3891643,78.2138331 12.1851632,78.2535 C11.9811622,78.2931669 11.7941641,78.3243332 11.6241632,78.347 L11.6241632,76.579 C11.9188314,76.5223331 12.2106618,76.4401672 12.4996632,76.3325 C12.7886647,76.2248328 13.0521621,76.0775009 13.2901632,75.8905 C13.5281644,75.7034991 13.737829,75.4711681 13.9191632,75.1935 C14.1004975,74.9158319 14.2364961,74.5843353 14.3271632,74.199 L16.0611632,74.199 Z" id="1" fill="#32C4F5"></path>
                        <path d="M43.0611632,74.199 L43.0611632,87 L40.7831632,87 L40.7831632,77.633 C40.6698293,77.7236671 40.5253308,77.8086663 40.3496632,77.888 C40.1739957,77.9673337 39.9869976,78.0381664 39.7886632,78.1005 C39.5903289,78.1628336 39.3891643,78.2138331 39.1851632,78.2535 C38.9811622,78.2931669 38.7941641,78.3243332 38.6241632,78.347 L38.6241632,76.579 C38.9188314,76.5223331 39.2106618,76.4401672 39.4996632,76.3325 C39.7886647,76.2248328 40.0521621,76.0775009 40.2901632,75.8905 C40.5281644,75.7034991 40.737829,75.4711681 40.9191632,75.1935 C41.1004975,74.9158319 41.2364961,74.5843353 41.3271632,74.199 L43.0611632,74.199 Z" id="1" fill="#32C4F5"></path>
                        <path d="M54.0611632,74.199 L54.0611632,87 L51.7831632,87 L51.7831632,77.633 C51.6698293,77.7236671 51.5253308,77.8086663 51.3496632,77.888 C51.1739957,77.9673337 50.9869976,78.0381664 50.7886632,78.1005 C50.5903289,78.1628336 50.3891643,78.2138331 50.1851632,78.2535 C49.9811622,78.2931669 49.7941641,78.3243332 49.6241632,78.347 L49.6241632,76.579 C49.9188314,76.5223331 50.2106618,76.4401672 50.4996632,76.3325 C50.7886647,76.2248328 51.0521621,76.0775009 51.2901632,75.8905 C51.5281644,75.7034991 51.737829,75.4711681 51.9191632,75.1935 C52.1004975,74.9158319 52.2364961,74.5843353 52.3271632,74.199 L54.0611632,74.199 Z" id="1" fill="#32C4F5"></path>
                        <path d="M81.5611632,74.199 L81.5611632,87 L79.2831632,87 L79.2831632,77.633 C79.1698293,77.7236671 79.0253308,77.8086663 78.8496632,77.888 C78.6739957,77.9673337 78.4869976,78.0381664 78.2886632,78.1005 C78.0903289,78.1628336 77.8891643,78.2138331 77.6851632,78.2535 C77.4811622,78.2931669 77.2941641,78.3243332 77.1241632,78.347 L77.1241632,76.579 C77.4188314,76.5223331 77.7106618,76.4401672 77.9996632,76.3325 C78.2886647,76.2248328 78.5521621,76.0775009 78.7901632,75.8905 C79.0281644,75.7034991 79.237829,75.4711681 79.4191632,75.1935 C79.6004975,74.9158319 79.7364961,74.5843353 79.8271632,74.199 L81.5611632,74.199 Z" id="1-copy" fill="#32C4F5"></path>
                        <path d="M60.4366632,80.574 C60.4366632,79.6333286 60.5669953,78.763504 60.8276632,77.9645 C61.0883312,77.165496 61.4651608,76.468503 61.9581632,75.8735 C62.4511657,75.278497 63.0546597,74.813835 63.7686632,74.4795 C64.4826668,74.145165 65.2873254,73.978 66.1826632,73.978 C67.0893344,73.978 67.902493,74.1394984 68.6221632,74.4625 C69.3418335,74.7855016 69.9509941,75.2359971 70.4496632,75.814 C70.9483324,76.3920029 71.3279953,77.0833293 71.5886632,77.888 C71.8493312,78.6926707 71.9796632,79.5766618 71.9796632,80.54 C71.9796632,81.5146715 71.8634977,82.4128292 71.6311632,83.2345 C71.3988288,84.0561708 71.0446656,84.7616637 70.5686632,85.351 C70.0926609,85.9403363 69.4920002,86.3993317 68.7666632,86.728 C68.0413263,87.0566683 67.1856682,87.221 66.1996632,87.221 C65.2136583,87.221 64.3580002,87.053835 63.6326632,86.7195 C62.9073263,86.385165 62.3094989,85.9233363 61.8391632,85.334 C61.3688276,84.7446637 61.0174977,84.0448374 60.7851632,83.2345 C60.5528288,82.4241626 60.4366632,81.5373381 60.4366632,80.574 L60.4366632,80.574 Z M66.1656632,76.001 C65.5876604,76.001 65.0889987,76.1171655 64.6696632,76.3495 C64.2503278,76.5818345 63.9046646,76.901998 63.6326632,77.31 C63.3606619,77.718002 63.1594972,78.1996639 63.0291632,78.755 C62.8988293,79.3103361 62.8336632,79.9109968 62.8336632,80.557 C62.8336632,82.0530075 63.0999939,83.1948294 63.6326632,83.9825 C64.1653326,84.7701706 65.0153241,85.164 66.1826632,85.164 C67.3613358,85.164 68.2226605,84.7701706 68.7666632,83.9825 C69.310666,83.1948294 69.5826632,82.0416743 69.5826632,80.523 C69.5826632,79.1403264 69.3021661,78.0410041 68.7411632,77.225 C68.1801604,76.4089959 67.321669,76.001 66.1656632,76.001 L66.1656632,76.001 Z" id="0" fill="#32C4F5"></path>
                        <path d="M86.4366632,80.574 C86.4366632,79.6333286 86.5669953,78.763504 86.8276632,77.9645 C87.0883312,77.165496 87.4651608,76.468503 87.9581632,75.8735 C88.4511657,75.278497 89.0546597,74.813835 89.7686632,74.4795 C90.4826668,74.145165 91.2873254,73.978 92.1826632,73.978 C93.0893344,73.978 93.902493,74.1394984 94.6221632,74.4625 C95.3418335,74.7855016 95.9509941,75.2359971 96.4496632,75.814 C96.9483324,76.3920029 97.3279953,77.0833293 97.5886632,77.888 C97.8493312,78.6926707 97.9796632,79.5766618 97.9796632,80.54 C97.9796632,81.5146715 97.8634977,82.4128292 97.6311632,83.2345 C97.3988288,84.0561708 97.0446656,84.7616637 96.5686632,85.351 C96.0926609,85.9403363 95.4920002,86.3993317 94.7666632,86.728 C94.0413263,87.0566683 93.1856682,87.221 92.1996632,87.221 C91.2136583,87.221 90.3580002,87.053835 89.6326632,86.7195 C88.9073263,86.385165 88.3094989,85.9233363 87.8391632,85.334 C87.3688276,84.7446637 87.0174977,84.0448374 86.7851632,83.2345 C86.5528288,82.4241626 86.4366632,81.5373381 86.4366632,80.574 L86.4366632,80.574 Z M92.1656632,76.001 C91.5876604,76.001 91.0889987,76.1171655 90.6696632,76.3495 C90.2503278,76.5818345 89.9046646,76.901998 89.6326632,77.31 C89.3606619,77.718002 89.1594972,78.1996639 89.0291632,78.755 C88.8988293,79.3103361 88.8336632,79.9109968 88.8336632,80.557 C88.8336632,82.0530075 89.0999939,83.1948294 89.6326632,83.9825 C90.1653326,84.7701706 91.0153241,85.164 92.1826632,85.164 C93.3613358,85.164 94.2226605,84.7701706 94.7666632,83.9825 C95.310666,83.1948294 95.5826632,82.0416743 95.5826632,80.523 C95.5826632,79.1403264 95.3021661,78.0410041 94.7411632,77.225 C94.1801604,76.4089959 93.321669,76.001 92.1656632,76.001 L92.1656632,76.001 Z" id="0-copy" fill="#32C4F5"></path>
                        <path d="M22.4366632,80.574 C22.4366632,79.6333286 22.5669953,78.763504 22.8276632,77.9645 C23.0883312,77.165496 23.4651608,76.468503 23.9581632,75.8735 C24.4511657,75.278497 25.0546597,74.813835 25.7686632,74.4795 C26.4826668,74.145165 27.2873254,73.978 28.1826632,73.978 C29.0893344,73.978 29.902493,74.1394984 30.6221632,74.4625 C31.3418335,74.7855016 31.9509941,75.2359971 32.4496632,75.814 C32.9483324,76.3920029 33.3279953,77.0833293 33.5886632,77.888 C33.8493312,78.6926707 33.9796632,79.5766618 33.9796632,80.54 C33.9796632,81.5146715 33.8634977,82.4128292 33.6311632,83.2345 C33.3988288,84.0561708 33.0446656,84.7616637 32.5686632,85.351 C32.0926609,85.9403363 31.4920002,86.3993317 30.7666632,86.728 C30.0413263,87.0566683 29.1856682,87.221 28.1996632,87.221 C27.2136583,87.221 26.3580002,87.053835 25.6326632,86.7195 C24.9073263,86.385165 24.3094989,85.9233363 23.8391632,85.334 C23.3688276,84.7446637 23.0174977,84.0448374 22.7851632,83.2345 C22.5528288,82.4241626 22.4366632,81.5373381 22.4366632,80.574 L22.4366632,80.574 Z M28.1656632,76.001 C27.5876604,76.001 27.0889987,76.1171655 26.6696632,76.3495 C26.2503278,76.5818345 25.9046646,76.901998 25.6326632,77.31 C25.3606619,77.718002 25.1594972,78.1996639 25.0291632,78.755 C24.8988293,79.3103361 24.8336632,79.9109968 24.8336632,80.557 C24.8336632,82.0530075 25.0999939,83.1948294 25.6326632,83.9825 C26.1653326,84.7701706 27.0153241,85.164 28.1826632,85.164 C29.3613358,85.164 30.2226605,84.7701706 30.7666632,83.9825 C31.310666,83.1948294 31.5826632,82.0416743 31.5826632,80.523 C31.5826632,79.1403264 31.3021661,78.0410041 30.7411632,77.225 C30.1801604,76.4089959 29.321669,76.001 28.1656632,76.001 L28.1656632,76.001 Z" id="0" fill="#32C4F5"></path>
                        <path d="M93.0611632,94.199 L93.0611632,107 L90.7831632,107 L90.7831632,97.633 C90.6698293,97.7236671 90.5253308,97.8086663 90.3496632,97.888 C90.1739957,97.9673337 89.9869976,98.0381664 89.7886632,98.1005 C89.5903289,98.1628336 89.3891643,98.2138331 89.1851632,98.2535 C88.9811622,98.2931669 88.7941641,98.3243332 88.6241632,98.347 L88.6241632,96.579 C88.9188314,96.5223331 89.2106618,96.4401672 89.4996632,96.3325 C89.7886647,96.2248328 90.0521621,96.0775009 90.2901632,95.8905 C90.5281644,95.7034991 90.737829,95.4711681 90.9191632,95.1935 C91.1004975,94.9158319 91.2364961,94.5843353 91.3271632,94.199 L93.0611632,94.199 Z" id="1" fill="#32C4F5"></path>
                        <path d="M29.0611632,94.199 L29.0611632,107 L26.7831632,107 L26.7831632,97.633 C26.6698293,97.7236671 26.5253308,97.8086663 26.3496632,97.888 C26.1739957,97.9673337 25.9869976,98.0381664 25.7886632,98.1005 C25.5903289,98.1628336 25.3891643,98.2138331 25.1851632,98.2535 C24.9811622,98.2931669 24.7941641,98.3243332 24.6241632,98.347 L24.6241632,96.579 C24.9188314,96.5223331 25.2106618,96.4401672 25.4996632,96.3325 C25.7886647,96.2248328 26.0521621,96.0775009 26.2901632,95.8905 C26.5281644,95.7034991 26.737829,95.4711681 26.9191632,95.1935 C27.1004975,94.9158319 27.2364961,94.5843353 27.3271632,94.199 L29.0611632,94.199 Z" id="1" fill="#32C4F5"></path>
                        <path d="M40.0611632,94.199 L40.0611632,107 L37.7831632,107 L37.7831632,97.633 C37.6698293,97.7236671 37.5253308,97.8086663 37.3496632,97.888 C37.1739957,97.9673337 36.9869976,98.0381664 36.7886632,98.1005 C36.5903289,98.1628336 36.3891643,98.2138331 36.1851632,98.2535 C35.9811622,98.2931669 35.7941641,98.3243332 35.6241632,98.347 L35.6241632,96.579 C35.9188314,96.5223331 36.2106618,96.4401672 36.4996632,96.3325 C36.7886647,96.2248328 37.0521621,96.0775009 37.2901632,95.8905 C37.5281644,95.7034991 37.737829,95.4711681 37.9191632,95.1935 C38.1004975,94.9158319 38.2364961,94.5843353 38.3271632,94.199 L40.0611632,94.199 Z" id="1" fill="#32C4F5"></path>
                        <path d="M40.0611632,114.199 L40.0611632,127 L37.7831632,127 L37.7831632,117.633 C37.6698293,117.723667 37.5253308,117.808666 37.3496632,117.888 C37.1739957,117.967334 36.9869976,118.038166 36.7886632,118.1005 C36.5903289,118.162834 36.3891643,118.213833 36.1851632,118.2535 C35.9811622,118.293167 35.7941641,118.324333 35.6241632,118.347 L35.6241632,116.579 C35.9188314,116.522333 36.2106618,116.440167 36.4996632,116.3325 C36.7886647,116.224833 37.0521621,116.077501 37.2901632,115.8905 C37.5281644,115.703499 37.737829,115.471168 37.9191632,115.1935 C38.1004975,114.915832 38.2364961,114.584335 38.3271632,114.199 L40.0611632,114.199 Z" id="1" fill="#32C4F5"></path>
                        <path d="M67.5611632,94.199 L67.5611632,107 L65.2831632,107 L65.2831632,97.633 C65.1698293,97.7236671 65.0253308,97.8086663 64.8496632,97.888 C64.6739957,97.9673337 64.4869976,98.0381664 64.2886632,98.1005 C64.0903289,98.1628336 63.8891643,98.2138331 63.6851632,98.2535 C63.4811622,98.2931669 63.2941641,98.3243332 63.1241632,98.347 L63.1241632,96.579 C63.4188314,96.5223331 63.7106618,96.4401672 63.9996632,96.3325 C64.2886647,96.2248328 64.5521621,96.0775009 64.7901632,95.8905 C65.0281644,95.7034991 65.237829,95.4711681 65.4191632,95.1935 C65.6004975,94.9158319 65.7364961,94.5843353 65.8271632,94.199 L67.5611632,94.199 Z" id="1-copy" fill="#32C4F5"></path>
                        <path d="M67.5611632,113.199 L67.5611632,126 L65.2831632,126 L65.2831632,116.633 C65.1698293,116.723667 65.0253308,116.808666 64.8496632,116.888 C64.6739957,116.967334 64.4869976,117.038166 64.2886632,117.1005 C64.0903289,117.162834 63.8891643,117.213833 63.6851632,117.2535 C63.4811622,117.293167 63.2941641,117.324333 63.1241632,117.347 L63.1241632,115.579 C63.4188314,115.522333 63.7106618,115.440167 63.9996632,115.3325 C64.2886647,115.224833 64.5521621,115.077501 64.7901632,114.8905 C65.0281644,114.703499 65.237829,114.471168 65.4191632,114.1935 C65.6004975,113.915832 65.7364961,113.584335 65.8271632,113.199 L67.5611632,113.199 Z" id="1-copy" fill="#32C4F5"></path>
                        <path d="M46.4366632,100.574 C46.4366632,99.6333286 46.5669953,98.763504 46.8276632,97.9645 C47.0883312,97.165496 47.4651608,96.468503 47.9581632,95.8735 C48.4511657,95.278497 49.0546597,94.813835 49.7686632,94.4795 C50.4826668,94.145165 51.2873254,93.978 52.1826632,93.978 C53.0893344,93.978 53.902493,94.1394984 54.6221632,94.4625 C55.3418335,94.7855016 55.9509941,95.2359971 56.4496632,95.814 C56.9483324,96.3920029 57.3279953,97.0833293 57.5886632,97.888 C57.8493312,98.6926707 57.9796632,99.5766618 57.9796632,100.54 C57.9796632,101.514672 57.8634977,102.412829 57.6311632,103.2345 C57.3988288,104.056171 57.0446656,104.761664 56.5686632,105.351 C56.0926609,105.940336 55.4920002,106.399332 54.7666632,106.728 C54.0413263,107.056668 53.1856682,107.221 52.1996632,107.221 C51.2136583,107.221 50.3580002,107.053835 49.6326632,106.7195 C48.9073263,106.385165 48.3094989,105.923336 47.8391632,105.334 C47.3688276,104.744664 47.0174977,104.044837 46.7851632,103.2345 C46.5528288,102.424163 46.4366632,101.537338 46.4366632,100.574 L46.4366632,100.574 Z M52.1656632,96.001 C51.5876604,96.001 51.0889987,96.1171655 50.6696632,96.3495 C50.2503278,96.5818345 49.9046646,96.901998 49.6326632,97.31 C49.3606619,97.718002 49.1594972,98.1996639 49.0291632,98.755 C48.8988293,99.3103361 48.8336632,99.9109968 48.8336632,100.557 C48.8336632,102.053007 49.0999939,103.194829 49.6326632,103.9825 C50.1653326,104.770171 51.0153241,105.164 52.1826632,105.164 C53.3613358,105.164 54.2226605,104.770171 54.7666632,103.9825 C55.310666,103.194829 55.5826632,102.041674 55.5826632,100.523 C55.5826632,99.1403264 55.3021661,98.0410041 54.7411632,97.225 C54.1801604,96.4089959 53.321669,96.001 52.1656632,96.001 L52.1656632,96.001 Z" id="0" fill="#32C4F5"></path>
                        <path d="M72.4366632,100.574 C72.4366632,99.6333286 72.5669953,98.763504 72.8276632,97.9645 C73.0883312,97.165496 73.4651608,96.468503 73.9581632,95.8735 C74.4511657,95.278497 75.0546597,94.813835 75.7686632,94.4795 C76.4826668,94.145165 77.2873254,93.978 78.1826632,93.978 C79.0893344,93.978 79.902493,94.1394984 80.6221632,94.4625 C81.3418335,94.7855016 81.9509941,95.2359971 82.4496632,95.814 C82.9483324,96.3920029 83.3279953,97.0833293 83.5886632,97.888 C83.8493312,98.6926707 83.9796632,99.5766618 83.9796632,100.54 C83.9796632,101.514672 83.8634977,102.412829 83.6311632,103.2345 C83.3988288,104.056171 83.0446656,104.761664 82.5686632,105.351 C82.0926609,105.940336 81.4920002,106.399332 80.7666632,106.728 C80.0413263,107.056668 79.1856682,107.221 78.1996632,107.221 C77.2136583,107.221 76.3580002,107.053835 75.6326632,106.7195 C74.9073263,106.385165 74.3094989,105.923336 73.8391632,105.334 C73.3688276,104.744664 73.0174977,104.044837 72.7851632,103.2345 C72.5528288,102.424163 72.4366632,101.537338 72.4366632,100.574 L72.4366632,100.574 Z M78.1656632,96.001 C77.5876604,96.001 77.0889987,96.1171655 76.6696632,96.3495 C76.2503278,96.5818345 75.9046646,96.901998 75.6326632,97.31 C75.3606619,97.718002 75.1594972,98.1996639 75.0291632,98.755 C74.8988293,99.3103361 74.8336632,99.9109968 74.8336632,100.557 C74.8336632,102.053007 75.0999939,103.194829 75.6326632,103.9825 C76.1653326,104.770171 77.0153241,105.164 78.1826632,105.164 C79.3613358,105.164 80.2226605,104.770171 80.7666632,103.9825 C81.310666,103.194829 81.5826632,102.041674 81.5826632,100.523 C81.5826632,99.1403264 81.3021661,98.0410041 80.7411632,97.225 C80.1801604,96.4089959 79.321669,96.001 78.1656632,96.001 L78.1656632,96.001 Z" id="0-copy" fill="#32C4F5"></path>
                        <path d="M72.4366632,119.574 C72.4366632,118.633329 72.5669953,117.763504 72.8276632,116.9645 C73.0883312,116.165496 73.4651608,115.468503 73.9581632,114.8735 C74.4511657,114.278497 75.0546597,113.813835 75.7686632,113.4795 C76.4826668,113.145165 77.2873254,112.978 78.1826632,112.978 C79.0893344,112.978 79.902493,113.139498 80.6221632,113.4625 C81.3418335,113.785502 81.9509941,114.235997 82.4496632,114.814 C82.9483324,115.392003 83.3279953,116.083329 83.5886632,116.888 C83.8493312,117.692671 83.9796632,118.576662 83.9796632,119.54 C83.9796632,120.514672 83.8634977,121.412829 83.6311632,122.2345 C83.3988288,123.056171 83.0446656,123.761664 82.5686632,124.351 C82.0926609,124.940336 81.4920002,125.399332 80.7666632,125.728 C80.0413263,126.056668 79.1856682,126.221 78.1996632,126.221 C77.2136583,126.221 76.3580002,126.053835 75.6326632,125.7195 C74.9073263,125.385165 74.3094989,124.923336 73.8391632,124.334 C73.3688276,123.744664 73.0174977,123.044837 72.7851632,122.2345 C72.5528288,121.424163 72.4366632,120.537338 72.4366632,119.574 L72.4366632,119.574 Z M78.1656632,115.001 C77.5876604,115.001 77.0889987,115.117166 76.6696632,115.3495 C76.2503278,115.581834 75.9046646,115.901998 75.6326632,116.31 C75.3606619,116.718002 75.1594972,117.199664 75.0291632,117.755 C74.8988293,118.310336 74.8336632,118.910997 74.8336632,119.557 C74.8336632,121.053007 75.0999939,122.194829 75.6326632,122.9825 C76.1653326,123.770171 77.0153241,124.164 78.1826632,124.164 C79.3613358,124.164 80.2226605,123.770171 80.7666632,122.9825 C81.310666,122.194829 81.5826632,121.041674 81.5826632,119.523 C81.5826632,118.140326 81.3021661,117.041004 80.7411632,116.225 C80.1801604,115.408996 79.321669,115.001 78.1656632,115.001 L78.1656632,115.001 Z" id="0-copy" fill="#32C4F5"></path>
                        <path d="M8.43666325,100.574 C8.43666325,99.6333286 8.56699528,98.763504 8.82766325,97.9645 C9.08833122,97.165496 9.46516078,96.468503 9.95816325,95.8735 C10.4511657,95.278497 11.0546597,94.813835 11.7686632,94.4795 C12.4826668,94.145165 13.2873254,93.978 14.1826632,93.978 C15.0893344,93.978 15.902493,94.1394984 16.6221632,94.4625 C17.3418335,94.7855016 17.9509941,95.2359971 18.4496632,95.814 C18.9483324,96.3920029 19.3279953,97.0833293 19.5886632,97.888 C19.8493312,98.6926707 19.9796632,99.5766618 19.9796632,100.54 C19.9796632,101.514672 19.8634977,102.412829 19.6311632,103.2345 C19.3988288,104.056171 19.0446656,104.761664 18.5686632,105.351 C18.0926609,105.940336 17.4920002,106.399332 16.7666632,106.728 C16.0413263,107.056668 15.1856682,107.221 14.1996632,107.221 C13.2136583,107.221 12.3580002,107.053835 11.6326632,106.7195 C10.9073263,106.385165 10.3094989,105.923336 9.83916325,105.334 C9.36882756,104.744664 9.01749774,104.044837 8.78516325,103.2345 C8.55282875,102.424163 8.43666325,101.537338 8.43666325,100.574 L8.43666325,100.574 Z M14.1656632,96.001 C13.5876604,96.001 13.0889987,96.1171655 12.6696632,96.3495 C12.2503278,96.5818345 11.9046646,96.901998 11.6326632,97.31 C11.3606619,97.718002 11.1594972,98.1996639 11.0291632,98.755 C10.8988293,99.3103361 10.8336632,99.9109968 10.8336632,100.557 C10.8336632,102.053007 11.0999939,103.194829 11.6326632,103.9825 C12.1653326,104.770171 13.0153241,105.164 14.1826632,105.164 C15.3613358,105.164 16.2226605,104.770171 16.7666632,103.9825 C17.310666,103.194829 17.5826632,102.041674 17.5826632,100.523 C17.5826632,99.1403264 17.3021661,98.0410041 16.7411632,97.225 C16.1801604,96.4089959 15.321669,96.001 14.1656632,96.001 L14.1656632,96.001 Z" id="0" fill="#32C4F5"></path>
                    </g>
                </g>
            </g>
        </g>
    </g>
</svg>