<?xml version="1.0" encoding="UTF-8" standalone="no"?>
<svg width="24px" height="24px" viewBox="0 0 24 24" version="1.1" xmlns="http://www.w3.org/2000/svg" xmlns:xlink="http://www.w3.org/1999/xlink">
    <!-- Generator: Sketch 3.8.3 (29802) - http://www.bohemiancoding.com/sketch -->
    <title>Facebook</title>
    <desc>Created with Sketch.</desc>
    <defs></defs>
    <g id="Page-1" stroke="none" stroke-width="1" fill="none" fill-rule="evenodd">
        <g id="Ecommerce-Survey-Webpage" transform="translate(-795.000000, -18.000000)" fill="#FFFFFF">
            <path d="M807.757249,41.884058 L796.318217,41.884058 C795.589972,41.884058 795,41.2937195 795,40.5657589 L795,19.3182064 C795,18.5900605 795.590065,18 796.318217,18 L817.565934,18 C818.2939,18 818.884058,18.5900605 818.884058,19.3182064 L818.884058,40.5657589 C818.884058,41.2938121 818.293808,41.884058 817.565934,41.884058 L811.479654,41.884058 L811.479654,32.6348344 L814.584192,32.6348344 L815.049052,29.0302479 L811.479654,29.0302479 L811.479654,26.7289472 C811.479654,25.6853362 811.769451,24.9741497 813.265975,24.9741497 L815.17472,24.9733157 L815.17472,21.7493446 C814.84461,21.7054167 813.711559,21.6072741 812.393342,21.6072741 C809.641343,21.6072741 807.757249,23.2870976 807.757249,26.3719638 L807.757249,29.0302479 L804.644742,29.0302479 L804.644742,32.6348344 L807.757249,32.6348344 L807.757249,41.884058 L807.757249,41.884058 Z" id="Facebook"></path>
        </g>
    </g>
</svg>