<?xml version="1.0" encoding="UTF-8" standalone="no"?>
<svg width="24px" height="20px" viewBox="0 0 24 20" version="1.1" xmlns="http://www.w3.org/2000/svg" xmlns:xlink="http://www.w3.org/1999/xlink">
    <!-- Generator: Sketch 3.8.3 (29802) - http://www.bohemiancoding.com/sketch -->
    <title>Twitter</title>
    <desc>Created with Sketch.</desc>
    <defs></defs>
    <g id="Page-1" stroke="none" stroke-width="1" fill="none" fill-rule="evenodd">
        <g id="Ecommerce-Survey-Webpage" transform="translate(-838.000000, -21.000000)" fill="#FFFFFF">
            <path d="M861.884058,23.3562039 C861.006473,23.7558528 860.061597,24.0261191 859.070458,24.1468763 C860.082625,23.525839 860.859274,22.5410925 861.225168,21.3680221 C860.277488,21.9430566 859.230274,22.3613942 858.111563,22.5856576 C857.219959,21.6095366 855.945637,21 854.535333,21 C851.83108,21 849.637117,23.2498225 849.637117,26.0243639 C849.637117,26.4182626 849.679174,26.8006605 849.763288,27.1686826 C845.690787,26.958795 842.080912,24.9605501 839.662646,21.91718 C839.240676,22.6618497 838.99955,23.525839 838.99955,24.4458942 C838.99955,26.1882488 839.864518,27.7264661 841.179494,28.6278326 C840.377611,28.6033937 839.620589,28.3748175 838.958895,28.001045 L838.958895,28.0628613 C838.958895,30.4981324 840.648177,32.5294417 842.891206,32.9894693 C842.480451,33.1073514 842.047266,33.1662924 841.600062,33.1662924 C841.284636,33.1662924 840.97622,33.1361031 840.677616,33.0771621 C841.301459,35.0725318 843.109901,36.5259315 845.254798,36.5647463 C843.578134,37.9132022 841.464079,38.716813 839.169179,38.716813 C838.773845,38.716813 838.382717,38.6938116 838,38.6478088 C840.168729,40.0710192 842.745409,40.9033816 845.511345,40.9033816 C854.525519,40.9033816 859.453175,33.2482349 859.453175,26.608024 C859.453175,26.3895109 859.448969,26.1709977 859.440558,25.9567974 C860.398051,25.2480674 861.229374,24.3639518 861.884058,23.3562039" id="Twitter"></path>
        </g>
    </g>
</svg>