<?xml version="1.0" encoding="UTF-8"?>
<svg width="147px" height="43px" viewBox="0 0 147 43" version="1.1" xmlns="http://www.w3.org/2000/svg" xmlns:xlink="http://www.w3.org/1999/xlink">
    <!-- Generator: Sketch 46.2 (44496) - http://www.bohemiancoding.com/sketch -->
    <title>python-logo-inkscape</title>
    <desc>Created with Sketch.</desc>
    <defs>
        <polygon id="path-1" points="141.058105 39.2421739 0.274193684 39.2421739 0.274193684 0.274202899 141.058105 0.274202899"></polygon>
    </defs>
    <g id="CH.me-Competencies-Page" stroke="none" stroke-width="1" fill="none" fill-rule="evenodd" opacity="0.5">
        <g id="CH.me-Research-&amp;-Analytics" transform="translate(-191.000000, -2772.000000)">
            <g id="python-logo-inkscape" transform="translate(191.000000, 2772.000000)">
                <g>
                    <path d="M58.5728463,18.5298841 C58.5728463,20.835058 58.0359095,22.748558 56.9561558,24.2700725 C55.7526126,25.9922536 54.0845495,26.8787391 51.9519663,26.9276594 C50.3439411,26.9793841 48.6879474,26.4721087 46.9836758,25.4092609 L46.9836758,35.2525217 L44.2265747,34.2622754 L44.2265747,12.4129783 C44.6790253,11.8542899 45.2611453,11.3744348 45.9670547,10.9674928 C47.6078842,10.0046667 49.6018232,9.50954348 51.9488716,9.48523913 L51.9878653,9.52481159 C54.1325179,9.4973913 55.7857263,10.3845 56.9471811,12.1823986 C58.0300295,13.8313551 58.5728463,15.9452101 58.5728463,18.5298841 Z M55.4025979,18.3416812 C55.4025979,13.8042464 54.1176632,11.4747681 51.5474842,11.3470145 C50.5249832,11.2984058 49.5266211,11.4623043 48.5551832,11.8421377 C47.7799516,12.1216377 47.2581789,12.3980217 46.9836758,12.6772101 L46.9836758,23.5076014 C48.6276,24.5464565 50.0876968,25.0294275 51.3605621,24.9533986 C54.0542211,24.7742319 55.4025979,22.5721957 55.4025979,18.3416812 L55.4025979,18.3416812 Z" id="Fill-1" fill="#282927"></path>
                    <path d="M75.42276,24.9898551 C75.42276,28.0818043 75.1151432,30.2227681 74.4999095,31.4133696 C73.8815811,32.6042826 72.7049621,33.5546449 70.9675768,34.2622754 C69.5588526,34.8212754 68.0356232,35.1247681 66.4006737,35.1761812 L65.9451284,33.4268913 C67.6070021,33.1994275 68.7777411,32.9713406 69.4564168,32.7438768 C70.7924147,32.2883261 71.7096947,31.5897319 72.2132084,30.6543261 C72.6176905,29.8915435 72.8166821,28.4370217 72.8166821,26.2835942 L72.8166821,25.5610072 C70.9313684,26.4235 68.9556884,26.8516304 66.8893326,26.8516304 C65.5316716,26.8516304 64.3343179,26.4235 63.3025326,25.5610072 C62.1444821,24.6221739 61.5651474,23.4318841 61.5651474,21.9892029 L61.5651474,10.435913 L64.3222484,9.48523913 L64.3222484,21.114558 C64.3222484,22.3568841 64.7205411,23.3134783 65.5171263,23.9843406 C66.3134021,24.6558261 67.3448779,24.9777029 68.6087684,24.9533986 C69.8726589,24.9262899 71.2272253,24.4342826 72.6659684,23.4714565 L72.6659684,9.90433333 L75.42276,9.90433333 L75.42276,24.9898551" id="Fill-2" fill="#282927"></path>
                    <path d="M86.1856358,26.7756014 C85.8569747,26.8030217 85.5552379,26.8151739 85.27764,26.8151739 C83.7182021,26.8151739 82.5025895,26.4415725 81.6338968,25.6915652 C80.7682989,24.9412464 80.3334884,23.9055072 80.3334884,22.5843478 L80.3334884,11.6508188 L78.4453895,11.6508188 L78.4453895,9.90433333 L80.3334884,9.90433333 L80.3334884,5.26687681 L83.0878042,4.27974638 L83.0878042,9.90433333 L86.1856358,9.90433333 L86.1856358,11.6508188 L83.0878042,11.6508188 L83.0878042,22.5086304 C83.0878042,23.5502899 83.3650926,24.2881449 83.9202884,24.7197029 C84.3968779,25.0749203 85.15416,25.2783913 86.1856358,25.3301159 L86.1856358,26.7756014" id="Fill-3" fill="#282927"></path>
                    <path d="M102.878646,26.5478261 L100.121855,26.5478261 L100.121855,15.8330362 C100.121855,14.7424565 99.8683958,13.8042464 99.3648821,13.020587 C98.7824526,12.1337899 97.9737979,11.6900797 96.9364421,11.6900797 C95.6725516,11.6900797 94.0920695,12.3615652 92.1946863,13.703913 L92.1946863,26.5478261 L89.4372758,26.5478261 L89.4372758,0.935717391 L92.1946863,0.0610724638 L92.1946863,11.7268478 C93.9562105,10.435913 95.8805179,9.78904348 97.9710126,9.78904348 C99.4308,9.78904348 100.613608,10.2841667 101.518509,11.2712971 C102.426196,12.2581159 102.878646,13.4882899 102.878646,14.9583913 L102.878646,26.5478261" id="Fill-4" fill="#282927"></path>
                    <path d="M120.552069,17.9222754 C120.552069,20.4038116 119.921672,22.469058 118.663971,24.1183261 C117.279385,25.9648333 115.367147,26.8912029 112.926638,26.8912029 C110.507173,26.8912029 108.622168,25.9648333 107.261722,24.1183261 C106.02816,22.469058 105.412926,20.4038116 105.412926,17.9222754 C105.412926,15.5899928 106.079223,13.6278841 107.412436,12.0303406 C108.82116,10.3355797 110.67336,9.48523913 112.962846,9.48523913 C115.252333,9.48523913 117.116602,10.3355797 118.55256,12.0303406 C119.885463,13.6278841 120.552069,15.5899928 120.552069,17.9222754 Z M117.532844,17.9042029 C117.532844,16.1611449 117.203874,14.7212681 116.549337,13.5823913 C115.771011,12.1942391 114.561587,11.4623043 112.926638,11.386587 C109.904008,11.5626377 108.395943,13.7434855 108.395943,17.9222754 C108.395943,19.8388913 108.709749,21.4395507 109.343242,22.723942 C110.151587,24.361058 111.364105,25.1690217 112.981105,25.1416014 C116.015495,25.1172971 117.532844,22.7058696 117.532844,17.9042029 L117.532844,17.9042029 Z" id="Fill-5" fill="#282927"></path>
                    <g id="Group-9" transform="translate(0.000000, 0.934783)" fill="#282927">
                        <path d="M136.358747,25.6130435 L133.601646,25.6130435 L133.601646,14.2906449 C133.601646,13.0486304 133.230278,12.0795725 132.488469,11.3812899 C131.746352,10.6855 130.756964,10.3486667 129.523402,10.3757754 C128.214019,10.4000797 126.968387,10.8316377 125.785888,11.6667101 L125.785888,25.6130435 L123.028787,25.6130435 L123.028787,11.3233333 C124.615459,10.1601522 126.075246,9.4007971 127.408768,9.04557971 C128.666469,8.71466667 129.776552,8.55045652 130.732825,8.55045652 C131.387362,8.55045652 132.002596,8.61433333 132.58224,8.74208696 C133.665088,8.99385507 134.545541,9.46186957 135.224526,10.148 C135.981499,10.9073551 136.358747,11.8184565 136.358747,12.8844203 L136.358747,25.6130435" id="Fill-6"></path>
                        <path d="M12.5086168,2.66444203 C13.3655495,2.66444203 14.0655789,3.3807971 14.0655789,4.26136232 C14.0655789,5.13912319 13.3655495,5.84862319 12.5086168,5.84862319 C11.64828,5.84862319 10.9516547,5.13912319 10.9516547,4.26136232 C10.9516547,3.3807971 11.64828,2.66444203 12.5086168,2.66444203 Z M16.9959853,0.103449275 C15.5773579,0.110304348 14.2227916,0.231826087 13.0306989,0.444333333 C9.51941053,1.06876812 8.88189474,2.37621739 8.88189474,4.78733333 L8.88189474,7.9712029 L17.1798126,7.9712029 L17.1798126,9.03280435 L5.76797053,9.03280435 C3.35624211,9.03280435 1.24470316,10.492 0.584286316,13.2683043 C-0.177637895,16.4506159 -0.21168,18.4367174 0.584286316,21.759558 C1.17383368,24.2326812 2.58255789,25.9953696 4.99428632,25.9953696 L7.84701474,25.9953696 L7.84701474,22.1783406 C7.84701474,19.4204203 10.2169642,16.9881159 13.0306989,16.9881159 L21.3190232,16.9881159 C23.6261495,16.9881159 25.4678274,15.0755507 25.4678274,12.7426449 L25.4678274,4.78733333 C25.4678274,2.52328986 23.5707537,0.822297101 21.3190232,0.444333333 C19.8935874,0.20534058 18.4143032,0.0969057971 16.9959853,0.103449275 L16.9959853,0.103449275 Z" id="Fill-8"></path>
                    </g>
                    <path d="M21.8411053,30.1140217 C22.7011326,30.1140217 23.3980674,30.8238333 23.3980674,31.7012826 C23.3980674,32.5818478 22.7011326,33.2982029 21.8411053,33.2982029 C20.9841726,33.2982029 20.2841432,32.5818478 20.2841432,31.7012826 C20.2841432,30.8238333 20.9841726,30.1140217 21.8411053,30.1140217 Z M26.5027074,9.96758696 L26.5027074,13.6774275 C26.5027074,16.5537536 24.0807663,18.974529 21.3190232,18.974529 L13.0306989,18.974529 C10.7604,18.974529 8.88189474,20.931029 8.88189474,23.22 L8.88189474,31.1756232 C8.88189474,33.4393551 10.8371495,34.7714203 13.0306989,35.4210942 C15.6575116,36.1985217 18.1760084,36.3390507 21.3190232,35.4210942 C23.4079705,34.8116159 25.4678274,33.5864275 25.4678274,31.1756232 L25.4678274,27.991442 L17.1798126,27.991442 L17.1798126,26.9301522 L29.6166316,26.9301522 C32.02836,26.9301522 32.9267621,25.2363261 33.7654358,22.6943406 C34.6319621,20.0769493 34.5951347,17.5602029 33.7654358,14.203087 C33.1696989,11.7860507 32.0311453,9.96758696 29.6166316,9.96758696 L26.5027074,9.96758696 L26.5027074,9.96758696 Z" id="Fill-10" fill="#282927"></path>
                    <g id="Group-14" transform="translate(5.880000, 3.739130)">
                        <mask id="mask-2" fill="white">
                            <use xlink:href="#path-1"></use>
                        </mask>
                        <g id="Clip-12"></g>
                        <path d="M137.904568,3.69052174 L138.317716,3.69052174 L138.317716,0.902688406 L139.213952,3.69021014 L139.673829,3.69021014 L140.607821,0.912036232 L140.607821,3.69052174 L141.058105,3.69052174 L141.058105,0.274202899 L140.462059,0.274202899 L139.441724,3.20100725 L138.570865,0.274202899 L137.904568,0.274202899 L137.904568,3.69052174 M135.847497,3.69052174 L136.330895,3.69052174 L136.330895,0.638144928 L137.475947,0.638144928 L137.475947,0.274202899 L134.702444,0.274202899 L134.702444,0.638144928 L135.847497,0.638144928 L135.847497,3.69052174" id="Fill-11" fill="#282927" mask="url(#mask-2)"></path>
                        <path d="M11.3938926,39.2608696 C5.25269684,39.2608696 0.274193684,38.2886957 0.274193684,37.0896812 C0.274193684,35.8906667 5.25269684,34.9188043 11.3938926,34.9188043 C17.5350884,34.9188043 22.5135916,35.8906667 22.5135916,37.0896812 C22.5135916,38.2886957 17.5350884,39.2608696 11.3938926,39.2608696" id="Fill-13" fill="#9A9A96" mask="url(#mask-2)"></path>
                    </g>
                </g>
            </g>
        </g>
    </g>
</svg>