<?xml version="1.0" encoding="UTF-8"?>
<svg width="46px" height="36px" viewBox="0 0 46 36" version="1.1" xmlns="http://www.w3.org/2000/svg" xmlns:xlink="http://www.w3.org/1999/xlink">
    <!-- Generator: Sketch 46.2 (44496) - http://www.bohemiancoding.com/sketch -->
    <title>R_logo</title>
    <desc>Created with Sketch.</desc>
    <defs>
        <polygon id="path-1" points="0 36 46 36 46 0 0 0"></polygon>
    </defs>
    <g id="CH.me-Competencies-Page" stroke="none" stroke-width="1" fill="none" fill-rule="evenodd" opacity="0.400000006">
        <g id="CH.me-Research-&amp;-Analytics" transform="translate(-925.000000, -2775.000000)">
            <g id="R_logo" transform="translate(925.000000, 2775.000000)">
                <g>
                    <mask id="mask-2" fill="white">
                        <use xlink:href="#path-1"></use>
                    </mask>
                    <g id="Clip-2"></g>
                    <path d="M26.5205507,6.11355006 C16.8655099,6.11355006 9.03855531,10.8996893 9.03855531,16.8036822 C9.03855531,22.7076752 16.8655099,27.4938791 26.5205507,27.4938791 C36.1755277,27.4938791 43.3007708,24.221654 43.3007708,16.8036822 C43.3007708,9.38804171 36.1755277,6.11355006 26.5205507,6.11355006 Z M23,31.2741313 C10.2974896,31.2741313 0,24.2731367 0,15.6370656 C0,7.00092985 10.2974896,0 23,0 C35.7025741,0 46,7.00092985 46,15.6370656 C46,24.2731367 35.7025741,31.2741313 23,31.2741313 L23,31.2741313 Z" id="Fill-1" fill="#282927" mask="url(#mask-2)"></path>
                    <path d="M31.5247293,15.4275888 L26.7861545,15.4244839 L26.7838,19.8909959 L31.5247293,19.8894434 C31.5247293,19.8894434 33.7201932,19.8825221 33.7201932,17.6173764 C33.7201932,15.3066922 31.5247293,15.4275888 31.5247293,15.4275888 Z M34.9292893,24.2232214 C34.9292893,24.2232214 36.317968,24.6491733 37.1247532,25.0641288 C37.4046908,25.208118 37.8890292,25.4954496 38.2383944,25.8726936 C38.5806322,26.2421753 38.7474874,26.6165732 38.7474874,26.6165732 L44.2202381,35.9959248 L35.3747458,36 L31.2383644,28.1043324 C31.2383644,28.1043324 30.3913608,26.6250469 29.8701768,26.1961195 C29.4354113,25.8383457 29.2500378,25.7109806 28.8201723,25.7109806 C28.5209528,25.7109806 26.7185088,25.7109806 26.7185088,25.7109806 L26.7201633,35.994243 L18.8928571,35.9976066 L18.8928571,9.72972973 L34.6111061,9.72972973 C34.6111061,9.72972973 41.7702276,9.86097597 41.7702276,16.7844252 C41.7702276,23.7078745 34.9292893,24.2232214 34.9292893,24.2232214 L34.9292893,24.2232214 Z" id="Fill-3" fill="#282927" mask="url(#mask-2)"></path>
                </g>
            </g>
        </g>
    </g>
</svg>