<?xml version="1.0" encoding="UTF-8"?>
<svg width="138px" height="36px" viewBox="0 0 138 36" version="1.1" xmlns="http://www.w3.org/2000/svg" xmlns:xlink="http://www.w3.org/1999/xlink">
    <!-- Generator: Sketch 46.2 (44496) - http://www.bohemiancoding.com/sketch -->
    <title>usertesting</title>
    <desc>Created with Sketch.</desc>
    <defs></defs>
    <g id="CH.me-Competencies-Page" stroke="none" stroke-width="1" fill="none" fill-rule="evenodd" opacity="0.5">
        <g id="CH.me-Research-&amp;-Analytics" transform="translate(-423.000000, -2775.000000)" fill-rule="nonzero">
            <g id="usertesting" transform="translate(423.000000, 2775.000000)">
                <path d="M59.9314286,23.9118158 C59.9314286,27.0063119 57.484456,29.438329 54.5056266,29.438329 L48.6543931,29.438329 L50.5692394,36 L40.9354637,29.438329 L5.42580195,29.438329 C2.44697256,29.438329 0,26.9459369 0,23.9118158 L0,5.52651319 C0,2.49239213 2.44697256,0 5.42580195,0 L54.4466212,0 C57.484456,0 59.8724232,2.49239213 59.8724232,5.52651319 L59.8724232,23.8997408 L59.9314286,23.8997408 L59.9314286,23.9118158 Z" id="Shape" fill="#313335"></path>
                <path d="M5.52,7.29880154 C5.52,6.12993604 6.31635742,5.47826087 7.36998313,5.47826087 C8.42387572,5.47826087 9.21996626,6.14120716 9.21996626,7.29880154 L9.21996626,15.4921311 C9.21996626,17.6723227 10.6485525,19.3919357 13.0136059,19.3919357 C15.2265402,19.3919357 16.7605423,17.5711389 16.7605423,15.4921311 L16.7605423,7.29880154 C16.7605423,6.12993604 17.5566329,5.47826087 18.6105255,5.47826087 C19.6641512,5.47826087 20.4605086,6.14120716 20.4605086,7.29880154 L20.4605086,15.6944988 C20.4605086,19.6391317 17.0882658,22.628794 13.0253485,22.628794 C8.91546096,22.628794 5.59018834,19.6952311 5.59018834,15.6944988 L5.59018834,7.29880154 L5.52,7.29880154 Z M30.0381478,13.525066 C29.3472063,13.525066 28.0360454,12.5134837 26.8767369,12.5134837 C26.2445081,12.5134837 25.6589826,12.8170353 25.6589826,13.4799816 C25.6589826,15.0535824 31.7709724,14.8512147 31.7709724,18.6949199 C31.7709724,20.9762953 29.7688701,22.6956522 26.7595784,22.6956522 C24.7574761,22.6956522 21.8538672,21.6282267 21.8538672,20.0658969 C21.8538672,19.5602339 22.3806801,18.5486516 23.3876025,18.5486516 C24.7574761,18.5486516 25.3897049,19.7175171 27.0288561,19.7175171 C28.0830156,19.7175171 28.3989965,19.3578662 28.3989965,18.7510193 C28.3989965,17.1776746 22.2870067,17.4361417 22.2870067,13.5363371 C22.2870067,11.2098772 24.289109,9.59144808 27.0875688,9.59144808 C28.832136,9.59144808 31.5134373,10.3558344 31.5134373,12.0190918 C31.5134373,12.772207 30.8809416,13.525066 30.0381478,13.525066 L30.0381478,13.525066 Z M36.5130887,17.2225029 C36.7823664,18.8970314 38.1989432,19.6501466 39.8383614,19.6501466 C41.6296318,19.6501466 42.8940894,18.2789134 43.842566,18.2789134 C44.5802108,18.2789134 45.2711523,18.9869442 45.2711523,19.7513305 C45.2711523,21.2234913 42.1097414,22.6395528 39.5221135,22.6395528 C35.5646121,22.6395528 32.8833108,19.8525143 32.8833108,16.109993 C32.8833108,12.6710231 35.4709387,9.53534869 39.2061326,9.53534869 C43.058218,9.53534869 45.5286874,12.8731347 45.5286874,15.7052576 C45.5286874,16.7168398 45.0485778,17.2225029 43.9949521,17.2225029 L36.5130887,17.2225029 L36.5130887,17.2225029 Z M42.0512956,14.9972269 C41.8404637,13.525066 40.8919871,12.4125561 39.2528358,12.4125561 C37.6721304,12.4125561 36.6185047,13.5811654 36.4543761,14.9972269 L42.0512956,14.9972269 L42.0512956,14.9972269 Z M47.3786706,11.4009738 C47.3786706,10.2884639 48.3271472,9.72644526 49.1702079,9.72644526 C50.1184177,9.72644526 50.9147751,10.0860962 50.9147751,11.1425067 L50.9734878,11.1425067 C51.6641624,10.1760089 52.3430944,9.72644526 53.4554328,9.72644526 C54.2987604,9.72644526 55.2,10.3332921 55.2,11.5469859 C55.2,12.659752 54.1463743,12.7158514 53.0924817,13.2215145 C52.038856,13.6826054 50.9849634,14.1319129 50.9849634,15.5031461 L50.9849634,20.7178283 C50.9849634,21.8303382 50.2473187,22.5947245 49.2403962,22.5947245 C48.1865036,22.5947245 47.495829,21.8303382 47.495829,20.7178283 L47.495829,11.4009738 L47.3786706,11.4009738 L47.3786706,11.4009738 Z" id="Shape" fill="#FFFFFF"></path>
                <g id="Group" transform="translate(61.508571, 5.478261)" fill="#313335">
                    <path d="M4.67467886,4.82852659 L1.9571868,4.82852659 C0.78723779,4.82852659 0.255320364,3.95152153 0.255320364,3.07423876 C0.255320364,2.19667828 0.893621275,1.31967322 1.95691748,1.31967322 L11.0555334,1.31967322 C12.1188296,1.31967322 12.7568612,2.19695599 12.7568612,3.07423876 C12.7568612,3.95152153 12.272345,4.82852659 11.0555334,4.82852659 L8.33777198,4.82852659 L8.33777198,17.6095284 C8.33777198,18.8767147 7.53410535,19.5834841 6.47080915,19.5834841 C5.40724362,19.5834841 4.60384631,18.8644955 4.60384631,17.6095284 L4.60384631,4.82852659 L4.67467886,4.82852659 L4.67467886,4.82852659 Z M14.1985594,13.881285 C14.4703086,15.6966688 15.9001565,16.5131333 17.5543523,16.5131333 C19.3620636,16.5131333 20.6381268,15.0265569 21.5953088,15.0265569 C22.3397239,15.0265569 23.037007,15.7941446 23.037007,16.6228283 C23.037007,18.218822 19.8465798,19.7539974 17.2352019,19.7539974 C13.2413773,19.7539974 10.5354663,16.7325234 10.5354663,12.6751947 C10.5354663,8.94695124 13.1468442,5.54751522 16.9163208,5.54751522 C20.8037618,5.54751522 23.2969059,9.16606365 23.2969059,12.2364145 C23.2969059,13.3330874 22.8123898,13.881285 21.7490936,13.881285 L14.1985594,13.881285 L14.1985594,13.881285 Z M19.7757472,11.4688268 C19.5629803,9.87283308 18.6057982,8.66674284 16.9516024,8.66674284 C15.3563887,8.66674284 14.2930925,9.93365136 14.1277268,11.4688268 L19.7754779,11.4688268 L19.7757472,11.4688268 Z M32.714403,9.87283308 C32.0173891,9.87283308 30.6939247,8.77616019 29.5239757,8.77616019 C28.8859441,8.77616019 28.2950445,9.10524537 28.2950445,9.8239563 C28.2950445,11.5299228 34.463132,11.3105326 34.463132,15.4775564 C34.463132,17.9508328 32.4426538,19.8148157 29.4060112,19.8148157 C27.3852637,19.8148157 24.4550046,18.6576023 24.4550046,16.963855 C24.4550046,16.4156574 24.9866527,15.3189845 26.002817,15.3189845 C27.3852637,15.3189845 28.0232953,16.5861707 29.6777604,16.5861707 C30.7410566,16.5861707 31.0602071,16.1962673 31.0602071,15.5383746 C31.0602071,13.8326859 24.8921196,14.1128943 24.8921196,9.88505228 C24.8921196,7.36289903 26.9125978,5.6083335 29.7367427,5.6083335 C31.497322,5.6083335 34.2032331,6.43701719 34.2032331,8.2401818 C34.2032331,9.0566463 33.5649322,9.87283308 32.714403,9.87283308 Z M37.2872769,9.10524537 L36.4838796,9.10524537 C35.5266975,9.10524537 34.9357979,8.4959518 34.9357979,7.50925168 C34.9357979,6.57087293 35.633081,5.91298028 36.4838796,5.91298028 L37.2872769,5.91298028 L37.2872769,3.71991221 C37.2872769,2.51382198 38.0316919,1.68513828 39.0478562,1.68513828 C40.1114217,1.68513828 40.8084356,2.51382198 40.8084356,3.71991221 L40.8084356,5.91298028 L41.8245998,5.91298028 C42.7343806,5.91298028 43.5261969,6.35176052 43.5261969,7.50925168 C43.5261969,8.66674284 42.7227996,9.10524537 41.8245998,9.10524537 L40.8084356,9.10524537 L40.8084356,17.5487102 C40.8084356,18.7550781 40.0640205,19.5834841 39.0478562,19.5834841 C37.9842907,19.5834841 37.2872769,18.7550781 37.2872769,17.5487102 L37.2872769,9.10524537 Z M48.4535029,2.24555507 C48.4535029,3.40304623 47.5437221,4.39002406 46.4330247,4.39002406 C45.3694592,4.39002406 44.4122771,3.40304623 44.4122771,2.24555507 C44.4122771,1.19775897 45.3694592,0.211058849 46.4330247,0.211058849 C47.4963209,0.223000337 48.4535029,1.14915989 48.4535029,2.24555507 Z M44.6842956,7.78973778 C44.6842956,6.58336984 45.4287107,5.75496385 46.444875,5.75496385 C47.5081712,5.75496385 48.2054543,6.58336984 48.2054543,7.78973778 L48.2054543,17.6095284 C48.2054543,18.8158964 47.4610393,19.6443024 46.444875,19.6443024 C45.3813095,19.6443024 44.6842956,18.8158964 44.6842956,17.6095284 L44.6842956,7.78973778 Z M50.0487165,7.78946008 C50.0487165,6.58309213 50.7931316,5.75468614 51.8092959,5.75468614 C52.7190767,5.75468614 53.298126,6.25428466 53.4634918,7.13156743 C54.1607749,6.1445896 55.2240711,5.64499109 56.9256682,5.64499109 C59.7498131,5.64499109 61.8176926,7.4603749 61.8176926,10.5796025 L61.8176926,17.6095284 C61.8176926,18.8158964 61.0732775,19.6443024 60.0571132,19.6443024 C58.9935477,19.6443024 58.2962646,18.8158964 58.2962646,17.6095284 L58.2962646,11.1400193 C58.2962646,9.43433055 57.2329684,8.61786606 55.9569052,8.61786606 C54.515207,8.61786606 53.6644084,9.71453895 53.6644084,11.1400193 L53.6644084,17.5609294 C53.6644084,18.7670196 52.9199933,19.5957033 51.9038291,19.5957033 C50.8402635,19.5957033 50.1432497,18.7670196 50.1432497,17.5609294 L50.1432497,7.78946008 L50.0487165,7.78946008 L50.0487165,7.78946008 Z M75.8551954,18.3771162 C75.8551954,22.76353 73.0310506,25.0174163 68.9900941,25.0174163 C67.5483959,25.0174163 63.3536546,24.2987054 63.3536546,22.2761507 C63.3536546,21.557162 64.0980697,20.6798793 64.7953529,20.6798793 C65.9179006,20.6798793 67.1939638,21.8373704 69.2618433,21.8373704 C71.0224226,21.8373704 72.2984858,20.7895743 72.2984858,18.9255915 L72.2984858,18.048031 L72.2392342,18.048031 C71.4950885,19.1449816 70.2661572,19.8028742 68.6709436,19.8028742 C64.9488683,19.8028742 63.1882889,16.4034382 63.1882889,12.7848898 C63.1882889,9.10524537 65.4805164,5.65721028 69.037226,5.65721028 C70.2661572,5.65721028 71.6486039,6.20540787 72.2866355,7.36289903 C72.4994025,6.3759212 73.0903021,5.82772362 74.0472148,5.82772362 C75.1107804,5.82772362 75.8080635,6.6561296 75.8080635,7.86249755 L75.8080635,18.4015545 L75.8551954,18.4015545 L75.8551954,18.3771162 L75.8551954,18.3771162 Z M69.4743409,8.94695124 C67.6076474,8.94695124 66.7094476,10.9206292 66.7094476,12.6265956 C66.7094476,14.6002736 67.6192284,16.3548391 69.4743409,16.3548391 C71.388705,16.3548391 72.2984858,14.5391776 72.2984858,12.7362907 C72.2984858,10.969506 71.4476872,8.94695124 69.4743409,8.94695124 L69.4743409,8.94695124 Z" id="Shape"></path>
                </g>
            </g>
        </g>
    </g>
</svg>