<?xml version="1.0" encoding="UTF-8"?>
<svg width="75px" height="78px" viewBox="0 0 75 78" version="1.1" xmlns="http://www.w3.org/2000/svg" xmlns:xlink="http://www.w3.org/1999/xlink">
    <!-- Generator: Sketch 46.2 (44496) - http://www.bohemiancoding.com/sketch -->
    <title>Logo_Keurig_Black</title>
    <desc>Created with Sketch.</desc>
    <defs></defs>
    <g id="CH.me-Design" stroke="none" stroke-width="1" fill="none" fill-rule="evenodd" opacity="0.400000006">
        <g id="CH.me-Homepage" transform="translate(-577.000000, -3658.000000)" fill="#282828">
            <g id="Group-16" transform="translate(0.000000, 3021.000000)">
                <g id="Group-40" transform="translate(130.000000, 464.000000)">
                    <g id="Logo_Keurig_Black" transform="translate(447.000000, 173.000000)">
                        <polygon id="Fill-1" points="52.1179108 7.20509772 52.1567162 0 48.9558539 4.45379432 40.7579069 1.14759596 44.8801049 7.41486021 35 9.16186469 46.0795463 11.8253605 50.481026 20 52.2790122 12.029635 59 12.7692917"></polygon>
                        <g id="Group-26" transform="translate(0.000000, 15.000000)">
                            <path d="M20.3746063,11.0718934 C20.3746063,11.0718934 12.6041339,8.76585566 10.8076772,15.7814406 C8.77322835,23.727167 18.3454724,28.6607802 18.3454724,28.6607802 C18.3454724,28.6607802 12.6484252,23.2499123 12.8734252,18.5754311 C13.2419291,10.9797708 20.3746063,11.0718934 20.3746063,11.0718934" id="Fill-2"></path>
                            <path d="M18.9541535,14.1196075 C18.2413583,15.9495792 18.0559252,20.2870698 18.6370276,24.3838528 C19.2907677,28.9816642 20.1033661,31.5533717 21.3210827,34.1952113 C24.2596654,40.5742585 31.2559252,41.4318906 31.2559252,41.4318906 C31.2559252,41.4318906 27.5159646,40.2444 25.4779724,37.817117 C23.066752,34.9464566 22.3096654,31.546834 21.8502165,28.4384377 C21.2744291,24.5318434 21.3517913,22.165183 21.3234449,19.9744472 C21.2809252,16.7091453 21.4580906,13.4456264 20.6756102,12.8911075 C19.8901772,12.3407491 19.2565157,13.3445887 18.9541535,14.1196075" id="Fill-4"></path>
                            <path d="M50.8647047,30.2764925 C49.2223819,33.0633509 43.5336024,45.7566623 28.240689,42.3041434 C28.240689,42.3041434 33.432815,45.8053981 41.9444291,42.0289642 C46.1710039,40.152634 50.2989567,36.4118604 53.5889173,31.5222283 C56.8782874,26.6302189 57.0070276,24.7075302 55.2158858,25.0867189 C53.476122,25.4522377 51.8054528,28.6771245 50.8647047,30.2764925" id="Fill-6"></path>
                            <path d="M48.8958071,4.86936509 C40.2259252,0.569317925 31.6818307,0.0427330189 31.6818307,0.0427330189 C40.6900984,2.27091226 48.9684449,5.34840283 54.9601772,11.5984783 C57.9849803,14.753233 58.2660827,19.4604028 53.0172638,21.0894877 C58.361752,18.4125821 45.9767126,9.47846887 34.1875394,8.46690283 C34.1875394,8.46690283 23.4341929,7.42264811 24.5556496,12.6332236 C24.4050591,12.3776575 24.2869488,12.1292236 24.2089961,11.8902991 C23.7170669,10.3878085 22.6357677,6.92102547 27.7316339,5.4018934 C33.2296654,3.76270472 42.6188386,6.97927075 42.6188386,6.97927075 C42.6188386,6.97927075 39.7133268,4.54188396 32.8162795,3.62481792 C19.2566339,1.81861981 14.0745472,15.6500915 34.9889173,21.8544028 C54.9926575,27.788884 59.793248,21.6885821 60.1269094,17.2970066 C60.4458071,13.0766009 55.9505315,8.37002547 48.8958071,4.86936509" id="Fill-8"></path>
                            <path d="M3.51188976,49.392 C3.03885827,50.2561698 3.03885827,50.6882547 3.03885827,52.6573019 L3.03885827,55.2153396 L7.07822835,51.2558491 C8.06503937,50.2561698 8.12173228,49.9322547 8.07035433,49.4044811 L11.8717323,49.4044811 C10.4508661,49.860934 9.29456693,50.6508113 7.86011811,52.067717 L5.13826772,54.7398679 L9.81307087,59.8767453 C11.0325591,61.1884528 12.3170079,62.1839717 13.7101181,62.5275 C13.7101181,62.5275 12.9524409,62.5275 12.0937795,62.5251226 C11.3998819,62.5227453 10.9498819,62.499566 10.1254724,62.2053679 C9.40559055,61.9480189 8.17015748,61.0559151 7.33688976,60.1483585 L3.04240157,55.4905189 L3.03885827,59.2604151 C3.03885827,61.2294623 3.04240157,61.6550094 3.5053937,62.5168019 L0.550275591,62.5168019 C1.02212598,61.6550094 1.01858268,61.2217358 1.01858268,59.2556604 L1.02212598,52.6573019 C1.01444882,50.6876604 1.02212598,50.2561698 0.556181102,49.392 L3.51188976,49.392 Z" id="Fill-10"></path>
                            <path d="M22.5176575,49.3955066 L22.1916732,50.9217708 C21.6424606,50.2614594 18.9164764,50.2584877 17.2334055,50.2632425 L17.2334055,55.1243462 L21.7139173,55.1243462 L21.4605709,56.1323462 C21.2025,55.8547896 18.9773031,55.857167 17.2310433,55.857167 L17.2239567,61.65495 C19.9475787,61.6597047 22.2324213,61.6692142 23.0763189,60.7985066 L22.7019094,62.5167425 L14.7424606,62.5167425 C15.2084055,61.6650538 15.2084055,61.2210821 15.2149016,59.2597613 L15.2095866,52.6614028 C15.2149016,50.6959217 15.2084055,50.2584877 14.7430512,49.3972896 L22.5176575,49.3955066 Z" id="Fill-12"></path>
                            <path d="M27.4963583,49.3943179 C27.0209646,50.2477896 27.0262795,50.6935443 27.0262795,52.6625915 C27.0262795,52.6625915 26.9896654,53.4310726 26.9896654,55.3668368 C26.967815,58.2333368 26.9991142,58.5192142 26.9991142,58.5192142 C26.9991142,59.8142802 27.9806102,61.6246387 30.8778543,61.6246387 C32.7504921,61.6246387 33.896752,60.7753274 34.4855315,59.8434028 C34.8044291,59.3370255 34.9910433,58.6160915 34.9910433,57.8898085 C34.9910433,56.8312896 34.9922244,54.474733 34.9922244,55.3602991 C34.9922244,56.650016 34.9768701,52.6590255 34.9768701,52.6590255 C34.9768701,50.689384 34.9768701,50.2584877 34.5115157,49.3966953 L37.1229331,49.3961009 C36.6534449,50.2561104 36.6534449,50.689384 36.6534449,52.6590255 C36.6534449,52.6590255 36.7278543,54.2863274 36.6522638,57.9320066 C36.642815,59.8249783 36.0186024,60.5738462 35.2219488,61.2757613 C34.1707677,62.2284877 32.6583661,62.5363557 30.9044291,62.5583462 C29.0813976,62.5708274 27.4485236,62.4044123 26.2544291,61.2234594 C25.5020669,60.4787519 24.9941929,59.3685255 25.0219488,57.3156764 C25.0219488,57.3156764 25.0337598,57.0987425 25.0337598,55.3692142 C25.0337598,53.6384972 25.0136811,52.6625915 25.0136811,52.6625915 C25.0095472,50.689384 25.0136811,50.2620538 24.5400591,49.3961009 L27.4963583,49.3943179 Z" id="Fill-14"></path>
                            <path d="M41.9222244,55.4796425 C44.8182874,55.4796425 46.7375787,54.7581142 46.7375787,52.7468689 C46.7375787,51.3888028 46.1021457,50.1020575 41.929311,50.1020575 L41.9222244,55.4796425 Z M39.9102165,52.6583123 C39.9102165,50.6892651 39.8919094,50.2583689 39.4360039,49.3941991 L42.3893504,49.3941991 C46.2739961,49.3989538 48.7590354,50.1175104 48.7613976,52.7540009 C48.7590354,55.3910858 45.7560827,55.6561613 44.6186811,55.844567 C45.476752,56.8276047 48.2741929,59.8682462 48.2741929,59.8682462 C49.526752,61.1912462 50.8891535,62.2438217 52.2149409,62.5190009 C52.2149409,62.5190009 51.4407283,62.5195953 50.5549016,62.5154349 C49.6962402,62.496416 48.8724213,62.3597179 48.3515551,62.0976142 C46.9159252,61.2637557 46.8663189,61.1549915 45.6545079,59.9900858 C45.6545079,59.9900858 43.5893504,57.7476425 41.9222244,55.8511047 L41.9157283,59.2548877 C41.9275394,61.2298783 41.9275394,61.6560198 42.3905315,62.5190009 L39.4360039,62.5178123 C39.9155315,61.6530481 39.9102165,60.762133 39.9054921,59.2548877 L39.9102165,52.6583123 Z" id="Fill-16"></path>
                            <path d="M56.1998031,49.3943179 C55.7267717,50.2638368 55.7267717,50.6935443 55.7267717,52.6715066 L55.7185039,59.2585726 C55.7226378,61.2317802 55.7338583,61.6727802 56.1980315,62.5179311 L53.2464567,62.5143651 C53.7129921,61.653167 53.7059055,61.2317802 53.7029528,59.2680821 L53.7100394,52.6614028 C53.7100394,50.689384 53.7100394,50.2584877 53.238189,49.3943179 L56.1998031,49.3943179 Z" id="Fill-18"></path>
                            <path d="M70.2351969,52.3193009 C69.5418898,50.8762443 67.4914961,50.2587255 66.1019291,50.2587255 C62.2834252,50.2587255 60.4373622,52.7472255 60.4373622,55.8514613 C60.4373622,58.720933 62.2952362,61.6248764 66.1574409,61.6248764 C67.5180709,61.6248764 68.2893307,61.2254802 68.8940551,60.5633858 L68.8964173,59.1191406 C68.9035039,57.1619802 68.9035039,56.7263292 68.431063,55.8514613 L71.396811,55.8556217 C70.9243701,56.7096877 70.9243701,57.1619802 70.9190551,59.1167632 L70.9243701,60.3125745 C70.9125591,61.0299425 70.9078346,61.3158198 71.3909055,61.7520651 C70.3704331,62.1009425 68.9058661,62.558584 66.1432677,62.558584 C59.3979921,62.558584 58.4312598,58.5146972 58.4312598,55.8514613 C58.4312598,53.6726123 59.3979921,49.3541406 66.1019291,49.3541406 C69.0393307,49.524716 69.8383465,50.1570934 70.6125591,50.527367 L70.2351969,52.3193009 Z" id="Fill-20"></path>
                            <path d="M72.6510827,51.8822236 L72.9327756,51.8822236 C73.1258858,51.8822236 73.2900591,51.8572613 73.2900591,51.6201198 C73.2900591,51.415667 73.1034449,51.382384 72.9386811,51.382384 L72.6510827,51.382384 L72.6510827,51.8822236 Z M72.3298228,51.13395 L72.9723425,51.13395 C73.3886811,51.13395 73.6125,51.2795632 73.6125,51.6468651 C73.6125,51.9458179 73.4441929,52.0908368 73.1589567,52.1175821 L73.6272638,52.8819028 L73.2930118,52.8819028 L72.845374,52.1294689 L72.6510827,52.1294689 L72.6510827,52.8819028 L72.3298228,52.8819028 L72.3298228,51.13395 Z M74.0778543,52.014167 C74.0778543,51.293233 73.5563976,50.7714028 72.9180118,50.7714028 C72.2766732,50.7714028 71.7593504,51.293233 71.7593504,52.014167 C71.7593504,52.7362896 72.2766732,53.2575255 72.9180118,53.2575255 C73.5563976,53.2575255 74.0778543,52.7362896 74.0778543,52.014167 L74.0778543,52.014167 Z M71.3831693,52.014167 C71.3831693,51.163667 72.0735236,50.47245 72.9180118,50.47245 C73.7636811,50.47245 74.4499016,51.163667 74.4499016,52.014167 C74.4499016,52.8652613 73.7636811,53.5564783 72.9180118,53.5564783 C72.0735236,53.5564783 71.3831693,52.8652613 71.3831693,52.014167 L71.3831693,52.014167 Z" id="Fill-22"></path>
                            <path d="M61.3827165,11.202767 L61.6342913,11.202767 C61.8067323,11.202767 61.953189,11.1801821 61.953189,10.9685972 C61.953189,10.7861349 61.786063,10.7564179 61.6396063,10.7564179 L61.3827165,10.7564179 L61.3827165,11.202767 Z M61.0962992,10.5347292 L61.6691339,10.5347292 C62.0411811,10.5347292 62.2407874,10.6648896 62.2407874,10.9923708 C62.2407874,11.2592292 62.0901969,11.3887953 61.8362598,11.4131632 L62.2543701,12.0948708 L61.9561417,12.0948708 L61.5563386,11.423267 L61.3827165,11.423267 L61.3827165,12.0948708 L61.0962992,12.0948708 L61.0962992,10.5347292 Z M62.6559449,11.3204462 C62.6559449,10.6767764 62.1911811,10.2108142 61.6207087,10.2108142 C61.0490551,10.2108142 60.586063,10.6767764 60.586063,11.3204462 C60.586063,11.9653047 61.0490551,12.431267 61.6207087,12.431267 C62.1911811,12.431267 62.6559449,11.9653047 62.6559449,11.3204462 L62.6559449,11.3204462 Z M60.2506299,11.3204462 C60.2506299,10.5614745 60.8671654,9.94395566 61.6207087,9.94395566 C62.3760236,9.94395566 62.9890157,10.5614745 62.9890157,11.3204462 C62.9890157,12.0806066 62.3760236,12.6975311 61.6207087,12.6975311 C60.8671654,12.6975311 60.2506299,12.0806066 60.2506299,11.3204462 L60.2506299,11.3204462 Z" id="Fill-24"></path>
                        </g>
                    </g>
                </g>
            </g>
        </g>
    </g>
</svg>