<?xml version="1.0" encoding="UTF-8"?>
<svg width="176px" height="33px" viewBox="0 0 176 33" version="1.1" xmlns="http://www.w3.org/2000/svg" xmlns:xlink="http://www.w3.org/1999/xlink">
    <!-- Generator: Sketch 46.2 (44496) - http://www.bohemiancoding.com/sketch -->
    <title>Patagonia</title>
    <desc>Created with Sketch.</desc>
    <defs>
        <polygon id="path-1" points="175.481412 32.0689696 0.0564705882 32.0689696 0.0564705882 0.715618075 175.481412 0.715618075"></polygon>
    </defs>
    <g id="CH.me-Design" stroke="none" stroke-width="1" fill="none" fill-rule="evenodd" opacity="0.5">
        <g id="CH.me-Homepage" transform="translate(-632.000000, -3267.000000)">
            <g id="Group-16" transform="translate(0.000000, 3021.000000)">
                <g id="Group-17" transform="translate(218.000000, 233.000000)">
                    <g id="Patagonia" transform="translate(414.000000, 13.000000)">
                        <g id="Group-3" transform="translate(0.000000, 0.783476)">
                            <mask id="mask-2" fill="white">
                                <use xlink:href="#path-1"></use>
                            </mask>
                            <g id="Clip-2"></g>
                            <path d="M9.00235294,7.99850427 C10.8028235,6.97415321 12.1232941,6.29154994 13.9237647,6.29154994 C18.6042353,6.29154994 22.3256471,9.93299304 22.3256471,15.2813905 C22.3256471,20.5155745 18.8442353,25.7497586 12.8432941,25.7497586 C11.6423529,25.7497586 10.0818824,25.6364376 9.00235294,25.0671553 C9.00235294,25.0671553 8.88188235,25.0671553 8.88188235,25.1813687 C8.88188235,25.4089031 8.88188235,28.481064 8.88188235,28.481064 C8.88188235,28.481064 8.88188235,28.7085984 9.12188235,28.7085984 C9.36188235,28.7085984 11.2828235,28.7085984 11.2828235,28.7085984 C11.2828235,28.7085984 11.5228235,28.7085984 11.5228235,28.9361329 C11.5228235,29.3912017 11.5228235,30.5288739 11.5228235,30.7573006 C11.5228235,30.8706216 11.2828235,30.984835 11.2828235,30.984835 L0.360470588,30.984835 C0.360470588,30.984835 0,30.984835 0,30.7573006 C0,30.7519468 0,30.7457008 0,30.740347 C0,30.734101 0,30.7287472 0,30.7225012 C0,30.7153629 0,30.7091168 0,30.7028708 C0,30.6966247 0,30.6903787 0,30.6832403 C0,30.6769943 0,30.6689637 0,30.6618253 C0,30.654687 0,30.648441 0,30.6404103 C0,30.633272 0,30.6252414 0,30.6172107 C0,30.6100724 0,30.6020418 0,30.5940112 C0,30.5859805 0,30.5779499 0,30.569027 C0,30.5609964 0,30.5520734 0,30.5440428 C0,30.5351199 0,30.526197 0,30.5172741 C0,30.5083511 0,30.4994282 0,30.4905053 C0,30.4815824 0,30.4717672 0,30.461952 C0,30.453029 0,30.4432138 0,30.4342909 C0,30.4244757 0,30.4146605 0,30.4048453 C0,30.3950301 0,30.3861072 0,30.3762919 C0,30.3664767 0,30.3557692 0,30.3450617 C0,30.3352465 0,30.324539 0,30.3147238 C0,30.3040163 0,30.2933088 0,30.2826013 C0,30.2727861 0,30.2620786 0,30.2513711 C0,30.2406636 0,30.2290638 0,30.2183563 C0,30.2076488 0,30.1978336 0,30.1862338 C0,30.1755263 0,30.1639265 0,30.1523267 C0,30.1416192 0,30.1309117 0,30.1202042 C0,30.1086044 0,30.0961123 0,30.0854048 C0,30.0746973 0,30.0630975 0,30.0514977 C0,30.0407902 0,30.0291904 0,30.0175906 C0,30.0068831 0,29.9952833 0,29.9845758 C0,29.972976 0,29.9613762 0,29.9497764 C0,29.9372843 0,29.9265768 0,29.914977 C0,29.9033773 0,29.8908852 0,29.8801777 C0,29.8685779 0,29.8578704 0,29.8462706 C0,29.8346708 0,29.823071 0,29.8114712 C0,29.7998714 0,29.7873793 0,29.7766718 C0,29.765072 0,29.7525799 0,29.7409801 C0,29.7293803 0,29.7186728 0,29.707073 C0,29.6954733 0,29.6838735 0,29.6722737 C0,29.6606739 0,29.6499664 0,29.6383666 C0,29.6267668 0,29.6160593 0,29.6044595 C0,29.593752 0,29.5821522 0,29.5714447 C0,29.5598449 0,29.5482451 0,29.5375376 C0,29.5268301 0,29.5152303 0,29.5045228 C0,29.4938153 0,29.4822155 0,29.471508 C0,29.4608005 0,29.450093 0,29.4402778 C0,29.428678 0,29.4179705 0,29.407263 C0,29.3965555 0,29.3867403 0,29.3769251 C0,29.3662176 0,29.3564023 0,29.3456948 C0,29.3358796 0,29.3269567 0,29.3162492 C0,29.306434 0,29.2957265 0,29.2859113 C0,29.2760961 0,29.2662809 0,29.2573579 C0,29.2475427 0,29.2377275 0,29.2288046 C0,29.2189894 0,29.2091742 0,29.2002513 C0,29.1922206 0,29.1824054 0,29.1734825 C0,29.1645596 0,29.1556367 0,29.147606 C0,29.1386831 0,29.1306525 0,29.1217296 C0,29.113699 0,29.1056683 0,29.0976377 C0,29.0896071 0,29.0806842 0,29.0735458 C0,29.0655152 0,29.0583769 0,29.0512385 C0,29.0441002 0,29.0360696 0,29.0289312 C0,29.0217929 0,29.0155469 0,29.0084085 C0,29.0021625 0,28.9941318 0,28.9878858 C0,28.9825321 0,28.9753937 0,28.97004 C0,28.9637939 0,28.9575479 0,28.9521941 C0,28.9468404 0,28.9414866 0,28.9361329 C0,28.7085984 0.24,28.7085984 0.24,28.7085984 C0.24,28.7085984 0.96,28.7085984 1.2,28.7085984 C1.44,28.7085984 1.44,28.481064 1.44,28.481064 C1.44,28.481064 1.44,10.8431307 1.44,10.6155963 C1.44,10.3880619 1.2,10.501383 1.2,10.501383 L0.24,10.7298097 C0.24,10.7298097 0,10.7298097 0,10.501383 C0,10.4987061 0,10.4942446 0,10.4897832 C0,10.4853217 0,10.4808602 0,10.4763988 C0,10.4719373 0,10.4665836 0,10.4612298 C0,10.4567684 0,10.4514146 0,10.4460609 C0,10.4398148 0,10.4335688 0,10.4273227 C0,10.421969 0,10.4157229 0,10.4085846 C0,10.4023386 0,10.3952002 0,10.3889542 C0,10.3809236 0,10.3746775 0,10.3675392 C0,10.3595085 0,10.3514779 0,10.3434473 C0,10.3354167 0,10.3282783 0,10.3202477 C0,10.3122171 0,10.3024019 0,10.2934789 C0,10.2854483 0,10.2765254 0,10.2676025 C0,10.2586796 0,10.2497566 0,10.2399414 C0,10.2310185 0,10.2212033 0,10.2122804 C0,10.2024652 0,10.19265 0,10.1819425 C0,10.1721273 0,10.162312 0,10.1524968 C0,10.1426816 0,10.1310818 0,10.1212666 C0,10.1105591 0,10.1007439 0,10.0891441 C0,10.0793289 0,10.0677291 0,10.0561293 C0,10.0454218 0,10.0347143 0,10.0240068 C0,10.012407 0,10.0008072 0,9.98920742 C0,9.97760763 0,9.96690013 0,9.95530033 C0,9.94370054 0,9.93210074 0,9.92050095 C0,9.90890116 0,9.89730136 0,9.88480928 C0,9.87320948 0,9.86071739 0,9.8491176 C0,9.83662551 0,9.82502572 0,9.81253363 C0,9.80093384 0,9.78844175 0,9.77594967 C0,9.76345758 0,9.75185779 0,9.7393657 C0,9.72776591 0,9.71438153 0,9.70188944 C0,9.68939736 0,9.67779756 0,9.66530548 C0,9.65281339 0,9.6403213 0,9.62782922 C0,9.61533713 0,9.60373734 0,9.59124525 C0,9.57875317 0,9.56626108 0,9.55376899 C0,9.54127691 0,9.52878482 0,9.51629274 C0,9.50380065 0,9.49130856 0,9.47881648 C0,9.46632439 0,9.4547246 0,9.44134022 C0,9.42974042 0,9.41635605 0,9.40386396 C0,9.39226417 0,9.38066437 0,9.36817229 C0,9.3556802 0,9.34318811 0,9.33158832 C0,9.31909623 0,9.30838873 0,9.29589664 C0,9.28429685 0,9.27180476 0,9.26020497 C0,9.24860518 0,9.23700538 0,9.22540559 C0,9.21380579 0,9.202206 0,9.1906062 C0,9.1798987 0,9.16829891 0,9.15759141 C0,9.14599161 0,9.13439182 0,9.12368431 C0,9.11297681 0,9.10226931 0,9.09156181 C0,9.08085431 0,9.0701468 0,9.0594393 C0,9.04962409 0,9.03891659 0,9.02910138 C0,9.01928617 0,9.00857866 0,8.99787116 C0,8.98805595 0,8.97824074 0,8.96842553 C0,8.95950261 0,8.94879511 0,8.93987219 C0,8.93094927 0,8.92202635 0,8.91310343 C0,8.90418052 0,8.89436531 0,8.88633468 C0,8.87741176 0,8.86938113 0,8.86135051 C0,8.85331988 0,8.84528925 0,8.83725863 C0,8.829228 0,8.82208966 0,8.81405904 C0,8.8069207 0,8.79978237 0,8.79264403 C0,8.7855057 0,8.77925965 0,8.77212132 C0,8.76498299 0,8.75873694 0,8.7524909 C0,8.74624486 0,8.7408911 0,8.73553735 C0,8.7301836 0,8.72393756 0,8.7194761 C0,8.71412235 0,8.70966089 0,8.70430714 C0,8.70073797 0,8.69627651 0,8.69181505 C0,8.68824588 0,8.68467672 0,8.68110755 C0,8.45357312 0.24,8.45357312 0.24,8.45357312 L8.64188235,6.404871 C8.64188235,6.404871 8.88188235,6.29154994 8.88188235,6.51908436 C8.88188235,6.74661879 8.88188235,7.77096985 8.88188235,7.88429091 C8.88188235,8.11182534 9.00235294,7.99850427 9.00235294,7.99850427 Z M8.88188235,10.7298097 C8.88188235,10.9564518 8.88188235,19.9462923 8.88188235,19.9462923 C8.88188235,21.5399256 9.48235294,22.9051322 11.4023529,22.9051322 C13.8032941,22.9051322 14.8837647,21.5399256 14.8837647,17.3292003 C14.8837647,10.6155963 11.2828235,10.2738485 10.0818824,10.2738485 L9.12188235,10.3880619 C9.12188235,10.3880619 8.88188235,10.501383 8.88188235,10.7298097 Z M174.281412,22.9051322 C174.521412,22.9051322 175.001412,22.9051322 175.241412,22.9051322 C175.481412,22.9051322 175.481412,23.1326666 175.481412,23.1326666 C175.481412,23.1326666 175.481412,24.7262999 175.481412,24.9538343 C175.481412,25.2946898 175.120941,25.1813687 175.120941,25.1813687 C173.680941,25.1813687 167.439059,25.1813687 167.439059,25.1813687 C167.439059,25.1813687 167.319529,25.1813687 167.199059,24.9538343 C167.079529,24.4987654 166.959059,24.0428043 166.959059,23.7019488 C166.839529,23.2468799 166.599529,23.7019488 166.599529,23.7019488 C164.918588,24.8396209 163.238588,25.7497586 161.077647,25.7497586 C157.357176,25.7497586 154.596706,23.5877354 154.596706,20.0605057 C154.596706,15.7364593 157.597176,13.2326884 161.198118,13.2326884 L166.599529,13.1193673 C166.599529,13.1193673 166.719059,13.1193673 166.719059,12.8918329 C166.719059,12.7776195 166.719059,12.3225506 166.719059,12.3225506 C166.719059,10.8431307 165.879529,10.1605275 164.079059,10.1605275 C161.798588,10.1605275 160.718118,10.9564518 159.637647,12.2083373 C159.637647,12.2083373 159.517176,12.3225506 159.397647,12.2083373 C159.157647,12.2083373 157.236706,11.525734 157.236706,11.525734 C157.236706,11.525734 156.996706,11.525734 157.117176,11.2981996 C157.236706,11.0706652 159.517176,5.60894666 159.517176,5.60894666 C159.517176,5.60894666 159.517176,5.38051994 159.758118,5.4947333 C159.998118,5.60894666 161.557647,6.06401551 161.798588,6.06401551 C162.038588,6.17733658 162.038588,6.404871 162.038588,6.404871 C162.038588,6.404871 161.918118,6.63240543 161.798588,6.85993985 C161.557647,7.315901 161.918118,7.08747428 161.918118,7.08747428 C163.478588,6.51908436 165.039059,6.29154994 166.599529,6.29154994 C171.160471,6.29154994 174.160941,8.11182534 174.160941,12.5500851 L174.160941,22.5642767 C174.160941,22.5642767 174.160941,22.9051322 174.281412,22.9051322 Z M166.479059,15.5089249 C166.239059,15.5089249 165.519059,15.5089249 165.519059,15.5089249 C163.478588,15.5089249 162.038588,16.8741314 162.038588,18.6944069 C162.038588,20.1738268 162.518588,21.8807811 164.438588,21.8807811 C166.359529,21.8807811 166.719059,20.5155745 166.719059,19.150368 L166.719059,15.7364593 C166.719059,15.7364593 166.719059,15.5089249 166.479059,15.5089249 Z M86.4207059,26.0915064 C86.0602353,26.4332542 85.8202353,27.6842474 85.8202353,28.481064 C85.8202353,29.3912017 86.3002353,30.4155528 87.5002353,30.4155528 C88.4611765,30.4155528 89.0607059,29.9604839 89.0607059,29.0503462 C89.0607059,27.3433919 87.9802353,26.7741097 86.6607059,25.9781853 C86.6607059,25.9781853 86.5402353,25.9781853 86.4207059,26.0915064 Z M83.2997647,11.1848785 C83.2997647,13.2326884 84.4997647,18.8086202 87.5002353,18.8086202 C89.0607059,18.8086202 89.6611765,18.1260169 89.6611765,16.3048492 C89.6611765,14.2570394 88.3407059,8.68110755 85.3402353,8.68110755 C83.9002353,8.68110755 83.2997647,9.36371083 83.2997647,11.1848785 Z M75.3778824,22.9051322 C75.6178824,22.9051322 76.0978824,22.9051322 76.2183529,22.9051322 C76.5778824,22.9051322 76.5778824,23.1326666 76.5778824,23.1326666 C76.5778824,23.1326666 76.5778824,24.7262999 76.5778824,24.9538343 C76.5778824,25.2946898 76.2183529,25.1813687 76.2183529,25.1813687 C74.7774118,25.1813687 68.5364706,25.1813687 68.5364706,25.1813687 C68.5364706,25.1813687 68.416,25.1813687 68.2964706,24.9538343 C68.176,24.4987654 68.0564706,24.0428043 68.0564706,23.7019488 C67.936,23.2468799 67.696,23.7019488 67.696,23.7019488 C66.016,24.8396209 64.3350588,25.7497586 62.1750588,25.7497586 C58.4536471,25.7497586 55.6931765,23.5877354 55.6931765,20.0605057 C55.6931765,15.7364593 58.6936471,13.2326884 62.2945882,13.2326884 L67.696,13.1193673 C67.696,13.1193673 67.8155294,13.1193673 67.8155294,12.8918329 C67.8155294,12.7776195 67.8155294,12.3225506 67.8155294,12.3225506 C67.8155294,10.8431307 66.976,10.1605275 65.1755294,10.1605275 C62.8950588,10.1605275 61.8145882,10.9564518 60.7341176,12.2083373 C60.7341176,12.2083373 60.6145882,12.3225506 60.4941176,12.2083373 C60.2541176,12.2083373 58.2136471,11.525734 58.2136471,11.525734 C58.2136471,11.525734 58.0941176,11.525734 58.2136471,11.2981996 C58.3331765,11.0706652 60.6145882,5.60894666 60.6145882,5.60894666 C60.6145882,5.60894666 60.6145882,5.38051994 60.8545882,5.4947333 C61.0945882,5.60894666 62.6550588,6.06401551 62.8950588,6.06401551 C63.1350588,6.17733658 63.0145882,6.404871 63.0145882,6.404871 C63.0145882,6.404871 63.0145882,6.63240543 62.8950588,6.85993985 C62.6550588,7.315901 63.0145882,7.08747428 63.0145882,7.08747428 C64.5750588,6.51908436 66.1355294,6.29154994 67.696,6.29154994 C72.2569412,6.29154994 75.2574118,8.11182534 75.2574118,12.5500851 L75.2574118,22.5642767 C75.2574118,22.5642767 75.1378824,22.9051322 75.3778824,22.9051322 Z M67.5755294,15.5089249 C67.3364706,15.5089249 66.6155294,15.5089249 66.6155294,15.5089249 C64.5750588,15.5089249 63.1350588,16.8741314 63.1350588,18.6944069 C63.1350588,20.1738268 63.6150588,21.8807811 65.5350588,21.8807811 C67.456,21.8807811 67.8155294,20.5155745 67.8155294,19.150368 L67.8155294,15.7364593 C67.8155294,15.7364593 67.8155294,15.5089249 67.5755294,15.5089249 Z M150.035765,0.715618075 C151.715765,0.715618075 153.635765,1.17068693 153.635765,3.10517569 C153.635765,5.38051994 150.395294,6.29154994 148.354824,6.29154994 C146.674824,6.29154994 145.594353,5.4947333 145.594353,3.90199232 C145.594353,2.08082463 148.235294,0.715618075 150.035765,0.715618075 Z M153.036235,6.404871 L144.513882,8.56689419 C144.513882,8.56689419 144.394353,8.56689419 144.394353,8.79442862 C144.394353,8.90864198 144.394353,10.3880619 144.394353,10.6155963 C144.394353,10.8431307 144.634353,10.7298097 144.634353,10.7298097 C144.634353,10.7298097 145.233882,10.6155963 145.714824,10.501383 C145.954824,10.501383 145.834353,10.7298097 145.834353,10.8431307 C145.834353,11.0706652 145.834353,22.7918111 145.834353,22.7918111 C145.834353,22.7918111 145.954824,22.9051322 145.714824,22.9051322 C145.473882,22.9051322 144.513882,22.9051322 144.513882,22.9051322 C144.513882,22.9051322 144.273882,22.9051322 144.273882,23.1326666 C144.273882,23.360201 144.273882,24.8396209 144.273882,25.0671553 C144.273882,25.2946898 144.513882,25.1813687 144.513882,25.1813687 C144.513882,25.1813687 154.116706,25.1813687 154.476235,25.1813687 C154.716235,25.1813687 154.596706,24.9538343 154.596706,24.9538343 C154.596706,24.9538343 154.596706,23.4744144 154.596706,23.1326666 C154.596706,22.9051322 154.356706,22.9051322 154.356706,22.9051322 C154.356706,22.9051322 153.756235,22.9051322 153.395765,22.9051322 C153.156706,22.9051322 153.276235,22.7918111 153.276235,22.7918111 C153.276235,22.7918111 153.276235,6.74661879 153.276235,6.51908436 C153.276235,6.29154994 153.036235,6.404871 153.036235,6.404871 Z M142.833882,25.1813687 L132.751059,25.1813687 C132.751059,25.1813687 132.631529,25.1813687 132.631529,25.0671553 C132.631529,24.8396209 132.631529,23.2468799 132.631529,23.1326666 C132.631529,22.9051322 132.871529,22.9051322 132.871529,22.9051322 C132.871529,22.9051322 133.831529,22.9051322 134.071529,22.9051322 C134.192,22.9051322 134.192,22.7918111 134.192,22.7918111 L134.192,12.4358717 C134.192,11.2981996 133.111529,10.8431307 132.031059,10.8431307 C130.710588,10.8431307 129.750588,11.4124129 128.790588,12.2083373 C128.790588,12.2083373 128.670118,12.3225506 128.670118,12.4358717 C128.670118,12.6642984 128.670118,22.7918111 128.670118,22.7918111 C128.670118,22.7918111 128.670118,22.9051322 128.790588,22.9051322 C129.030588,22.9051322 130.111059,22.9051322 130.111059,22.9051322 C130.111059,22.9051322 130.230588,22.9051322 130.230588,23.1326666 C130.230588,23.360201 130.230588,24.9538343 130.230588,25.0671553 C130.230588,25.1813687 130.111059,25.1813687 130.111059,25.1813687 L120.028235,25.1813687 C120.028235,25.1813687 119.908706,25.2946898 119.908706,24.9538343 C119.908706,24.8396209 119.908706,23.2468799 119.908706,23.1326666 C119.908706,22.9051322 120.028235,22.9051322 120.028235,22.9051322 C120.028235,22.9051322 120.988235,22.9051322 121.108706,22.9051322 C121.348706,22.9051322 121.228235,22.7918111 121.228235,22.7918111 L121.228235,10.6155963 C121.228235,10.6155963 121.348706,10.3880619 121.108706,10.3880619 C120.748235,10.501383 120.028235,10.7298097 120.028235,10.7298097 C120.028235,10.7298097 119.908706,10.8431307 119.908706,10.6155963 C119.908706,10.3880619 119.908706,8.90864198 119.908706,8.68110755 C119.908706,8.45357312 120.028235,8.56689419 120.028235,8.56689419 L128.550588,6.404871 C128.550588,6.404871 128.790588,6.29154994 128.790588,6.51908436 C128.790588,6.63240543 128.790588,8.90864198 128.790588,9.1361764 C128.790588,9.47792418 128.910118,9.25038976 128.910118,9.25038976 C130.950588,7.77096985 132.991059,6.29154994 135.751529,6.29154994 C140.912941,6.29154994 141.632941,9.59124525 141.632941,11.6399474 L141.632941,22.7918111 C141.632941,22.7918111 141.513412,22.9051322 141.753412,22.9051322 C141.873882,22.9051322 142.833882,22.9051322 142.833882,22.9051322 C142.833882,22.9051322 142.953412,22.9051322 142.953412,23.1326666 C142.953412,23.360201 142.953412,24.8396209 142.953412,24.9538343 C142.953412,25.2946898 142.833882,25.1813687 142.833882,25.1813687 Z M104.544941,13.3469017 C104.544941,16.0773148 105.744941,22.9051322 109.825882,22.9051322 C111.986824,22.9051322 112.586353,20.743109 112.586353,18.6944069 C112.586353,15.9639937 111.386353,9.1361764 107.184941,9.1361764 C104.544941,9.1361764 104.544941,11.9808029 104.544941,13.3469017 Z M97.1030588,15.9639937 C97.1030588,10.0463141 102.024471,6.29154994 108.505412,6.29154994 C114.987294,6.29154994 120.028235,10.0463141 120.028235,15.9639937 C120.028235,22.1083155 114.987294,25.7497586 108.505412,25.7497586 C102.024471,25.7497586 97.1030588,22.1083155 97.1030588,15.9639937 Z M42.3698824,7.65675649 C45.4908235,6.85993985 48.1317647,4.92545109 49.4512941,2.19503799 C49.4512941,2.19503799 49.4512941,2.08082463 49.6922353,2.08082463 C49.9312941,2.08082463 51.4917647,2.42257241 51.7317647,2.42257241 C51.9727059,2.53589348 51.8522353,2.65010684 51.8522353,2.65010684 C51.7317647,3.56024454 51.6122353,4.5845956 51.6122353,5.38051994 C51.6122353,5.38051994 51.6122353,6.51908436 51.6122353,6.74661879 C51.6122353,6.97415321 51.8522353,6.85993985 51.8522353,6.85993985 C51.8522353,6.85993985 54.9731765,6.85993985 55.0927059,6.85993985 C55.3327059,6.85993985 55.2131765,7.08747428 55.2131765,7.08747428 C55.2131765,7.08747428 54.7331765,9.36371083 54.7331765,9.59124525 C54.6127059,9.81877968 54.4931765,9.81877968 54.4931765,9.81877968 C54.4931765,9.81877968 52.0922353,9.81877968 51.8522353,9.81877968 C51.6122353,9.81877968 51.6122353,9.93299304 51.6122353,9.93299304 L51.6122353,20.5155745 C51.6122353,21.76746 52.6927059,21.9949945 53.2931765,21.9949945 C53.8927059,21.9949945 54.0131765,21.9949945 54.4931765,21.76746 C54.4931765,21.76746 54.7331765,21.5399256 54.7331765,21.76746 C54.8527059,21.9949945 55.4531765,23.4744144 55.5736471,23.7019488 C55.6931765,23.8152699 55.4531765,23.9294832 55.4531765,23.9294832 C52.9327059,25.6364376 52.6927059,25.7497586 49.3317647,25.7497586 C45.6103529,25.7497586 44.2898824,24.0428043 44.2898824,20.8573223 L44.2898824,9.93299304 C44.2898824,9.93299304 44.2898824,9.81877968 44.0498824,9.81877968 C43.6903529,9.81877968 42.3698824,9.81877968 42.3698824,9.81877968 C42.3698824,9.81877968 42.2503529,9.81877968 42.2503529,9.59124525 C42.2503529,9.1361764 42.2503529,8.11182534 42.2503529,7.88429091 C42.2503529,7.77096985 42.3698824,7.65675649 42.3698824,7.65675649 Z M41.8898824,22.9051322 C42.1298824,22.9051322 42.6098824,22.9051322 42.8498824,22.9051322 C43.0898824,22.9051322 43.0898824,23.1326666 43.0898824,23.1326666 C43.0898824,23.1326666 43.0898824,24.7262999 43.0898824,24.9538343 C43.0898824,25.2946898 42.7303529,25.1813687 42.7303529,25.1813687 C41.4098824,25.1813687 35.0484706,25.1813687 35.0484706,25.1813687 C35.0484706,25.1813687 34.928,25.1813687 34.928,24.9538343 C34.8084706,24.4987654 34.5684706,24.0428043 34.5684706,23.7019488 C34.448,23.2468799 34.208,23.7019488 34.208,23.7019488 C32.6475294,24.8396209 30.8470588,25.7497586 28.6870588,25.7497586 C25.0861176,25.7497586 22.3256471,23.5877354 22.3256471,20.0605057 C22.3256471,15.7364593 25.2065882,13.3469017 28.8065882,13.3469017 L34.3284706,13.1193673 C34.3284706,13.1193673 34.3284706,13.1193673 34.3284706,12.8918329 C34.3284706,12.7776195 34.3284706,12.3225506 34.3284706,12.3225506 C34.3284706,10.8431307 33.488,10.1605275 31.6875294,10.1605275 C29.4070588,10.1605275 28.3265882,10.9564518 27.2461176,12.2083373 C27.2461176,12.2083373 27.2461176,12.3225506 27.0061176,12.3225506 C26.7661176,12.2083373 24.8461176,11.525734 24.8461176,11.525734 C24.8461176,11.525734 24.6061176,11.525734 24.7256471,11.2981996 C24.8461176,11.0706652 27.2461176,5.60894666 27.2461176,5.60894666 C27.2461176,5.60894666 27.2461176,5.38051994 27.3665882,5.4947333 C27.7261176,5.60894666 29.1670588,6.06401551 29.5275294,6.06401551 C29.7675294,6.17733658 29.6470588,6.404871 29.6470588,6.404871 C29.6470588,6.404871 29.5275294,6.63240543 29.4070588,6.85993985 C29.2865882,7.315901 29.5275294,7.08747428 29.5275294,7.08747428 C31.0870588,6.51908436 32.6475294,6.29154994 34.208,6.29154994 C38.7689412,6.29154994 41.7694118,8.11182534 41.7694118,12.5500851 L41.7694118,22.5642767 C41.7694118,22.5642767 41.7694118,22.9051322 41.8898824,22.9051322 Z M88.9035294,32.1225071 L85.1228235,32.1225071 C82.4103529,31.8173433 80.0592941,30.8331454 80.0592941,28.481064 C80.0592941,26.7741097 82.0988235,25.5222242 83.7797647,25.2946898 C83.7797647,25.2946898 84.2597647,25.1813687 83.7797647,25.1813687 C83.1792941,25.0671553 79.9388235,24.8396209 78.8583529,25.0671553 C78.8583529,25.0671553 78.6183529,25.0671553 78.4988235,24.8396209 C78.3783529,24.6120865 77.7788235,23.0193455 77.6583529,22.9051322 C77.5378824,22.6775977 77.7788235,22.5642767 77.7788235,22.5642767 C80.1788235,22.2225289 82.3397647,21.0848568 83.2997647,20.743109 C83.9002353,20.6288956 83.2997647,20.5155745 83.2997647,20.5155745 C79.9388235,19.9462923 76.5778824,17.7842692 76.5778824,14.029505 C76.5778824,8.68110755 81.2592941,6.29154994 85.7007059,6.29154994 C87.7402353,6.29154994 88.9411765,6.63240543 90.0207059,6.74661879 C90.0207059,6.74661879 90.1411765,6.85993985 90.2616471,6.63240543 C90.2616471,6.29154994 90.6211765,5.38051994 90.6211765,5.38051994 C91.1011765,4.01531339 91.8221176,3.44603118 93.9821176,3.44603118 C94.4621176,3.44603118 94.9421176,3.44603118 95.3025882,3.56024454 C95.3025882,3.56024454 95.5425882,3.44603118 95.5425882,3.78777896 C95.4230588,3.90199232 94.7021176,6.63240543 94.7021176,6.74661879 C94.5825882,7.08747428 94.4621176,6.85993985 94.4621176,6.85993985 C94.1025882,6.63240543 93.9821176,6.51908436 93.1425882,6.63240543 C92.6616471,6.63240543 92.4216471,6.97415321 92.4216471,7.42922206 C92.4216471,8.2260387 96.2625882,9.36371083 96.2625882,13.6877572 C96.2625882,19.4912235 90.6211765,20.743109 85.7007059,21.8807811 C85.7007059,21.8807811 85.2197647,21.9949945 85.7007059,21.9949945 C88.9411765,22.3367422 95.6630588,23.1326666 95.6630588,27.1158575 C95.6630588,30.4708749 91.7167059,31.7638058 88.9035294,32.1225071 Z M34.208,15.5089249 C33.968,15.5089249 33.1275294,15.5089249 33.1275294,15.5089249 C31.2075294,15.5089249 29.6470588,16.8741314 29.6470588,18.6944069 C29.6470588,20.1738268 30.1270588,21.8807811 32.1675294,21.8807811 C33.968,21.8807811 34.3284706,20.5155745 34.3284706,19.150368 L34.3284706,15.7364593 C34.3284706,15.7364593 34.448,15.5089249 34.208,15.5089249 L34.208,15.5089249 Z" id="Fill-1" fill="#2D2E2C" mask="url(#mask-2)"></path>
                        </g>
                        <path d="M173.408049,2.5591631 C173.859476,2.5591631 174.422214,2.68148307 174.422214,2.07179447 C174.422214,1.58442585 174.084748,1.46210588 173.746399,1.46210588 L172.957506,1.46210588 L172.957506,2.5591631 L173.408049,2.5591631 Z M174.760563,4.26495329 L174.31002,4.26495329 L173.521127,2.80284741 L172.957506,2.80284741 L172.957506,4.26495329 L172.62004,4.26495329 L172.62004,1.21842157 L173.746399,1.21842157 C173.97167,1.21842157 174.31002,1.21842157 174.422214,1.34074154 C174.647486,1.46210588 174.760563,1.82811016 174.760563,2.07179447 C174.760563,2.5591631 174.422214,2.80284741 173.859476,2.80284741 L174.760563,4.26495329 Z M175.661651,2.68148307 C175.661651,1.46210588 174.760563,0.366004282 173.521127,0.366004282 C172.28169,0.366004282 171.267525,1.46210588 171.267525,2.68148307 C171.267525,4.02222461 172.28169,5.1183262 173.521127,5.1183262 C174.760563,5.1183262 175.661651,4.02222461 175.661651,2.68148307 Z M171.042254,2.68148307 C171.042254,1.21842157 172.168613,0 173.521127,0 C174.872758,0 176,1.21842157 176,2.68148307 C176,4.26495329 174.872758,5.48433048 173.521127,5.48433048 C172.168613,5.48433048 171.042254,4.26495329 171.042254,2.68148307 L171.042254,2.68148307 Z" id="Fill-4" fill="#2D2E2C"></path>
                    </g>
                </g>
            </g>
        </g>
    </g>
</svg>