<?xml version="1.0" encoding="UTF-8"?>
<svg width="134px" height="24px" viewBox="0 0 134 24" version="1.1" xmlns="http://www.w3.org/2000/svg" xmlns:xlink="http://www.w3.org/1999/xlink">
    <!-- Generator: Sketch 46.2 (44496) - http://www.bohemiancoding.com/sketch -->
    <title>sonos</title>
    <desc>Created with Sketch.</desc>
    <defs></defs>
    <g id="CH.me-Design" stroke="none" stroke-width="1" fill="none" fill-rule="evenodd" opacity="0.5">
        <g id="CH.me-Homepage" transform="translate(-653.000000, -3382.000000)" fill-rule="nonzero" fill="#222222">
            <g id="Group-16" transform="translate(0.000000, 3021.000000)">
                <g id="Group-17" transform="translate(218.000000, 233.000000)">
                    <g id="sonos" transform="translate(435.000000, 128.000000)">
                        <path d="M60.7849483,8.50934313 L60.7849483,23.001981 L57.2055532,23.001981 L57.2055532,0.325378691 L73.2232696,15.4597863 L73.2232696,0.889516046 L76.8046148,0.889516046 L76.8046148,23.6489609 L60.7849483,8.50934313 Z M97.8895891,0 C90.8820645,0 85.1831405,5.37474017 85.1831405,11.986258 C85.1831405,18.5946497 90.8820645,23.9689991 97.8895891,23.9689991 C104.895024,23.9689991 110.596595,18.5946497 110.596595,11.986258 C110.596595,5.37474017 104.895024,0 97.8895891,0 Z M97.8895891,20.5652879 C92.9227571,20.5652879 88.8787008,16.7158418 88.8787008,11.986258 C88.8787008,7.25602297 92.9227571,3.4072281 97.8895891,3.4072281 C102.85851,3.4072281 106.89811,7.25602297 106.89811,11.986258 C106.89811,16.7159721 102.85851,20.5652879 97.8895891,20.5652879 Z M36.1086001,0 C29.1012148,0 23.4020122,5.37474017 23.4020122,11.986258 C23.4020122,18.5946497 29.1012148,23.9689991 36.1086001,23.9689991 C43.1173783,23.9689991 48.8150488,18.5946497 48.8150488,11.986258 C48.8150488,5.37474017 43.1175176,0 36.1086001,0 Z M36.1086001,20.5652879 C31.1396788,20.5652879 27.1006369,16.7158418 27.1006369,11.986258 C27.1006369,7.25602297 31.1396788,3.4072281 36.1086001,3.4072281 C41.07585,3.4072281 45.1190706,7.25602297 45.1190706,11.986258 C45.1192098,16.7159721 41.07585,20.5652879 36.1086001,20.5652879 Z M7.81580657,13.669943 L7.80132073,13.6642117 C5.40892871,12.947545 3.80754706,12.2412986 2.60104382,11.3714512 C0.876393259,10.1323289 0,8.55102495 0,6.67247752 C0,4.91324429 0.86733961,3.19881902 2.37874191,1.95930595 C3.92287663,0.694914058 6.05062352,0 8.36807918,0 C13.2190245,0 15.9911127,3.04863421 16.1074172,3.17941092 L13.1640062,5.05509273 C12.482336,4.57470977 10.6912456,3.49632299 8.36793989,3.49632299 C5.45001835,3.49632299 3.70586762,5.11097241 3.70586762,6.67247752 C3.70586762,7.76180578 4.33920521,8.95963702 8.92188395,10.3352673 L8.93957339,10.3380026 C11.3256975,11.0525853 12.9329292,11.7609157 14.1380396,12.6282883 C15.8643616,13.8701459 16.7395012,15.4514499 16.7395012,17.3302579 C16.7395012,19.0893608 15.8718831,20.8065215 14.3572772,22.0434294 C12.8164853,23.3053465 10.6894349,24 8.36947205,24 C3.52005887,24 0.747692151,20.9542314 0.631666152,20.8228034 L3.57744508,18.9472519 C4.25814023,19.4285466 6.04923065,20.5065426 8.36933276,20.5065426 C11.2885079,20.5065426 13.0340515,18.8951496 13.0340515,17.3302579 C13.0344694,16.2409296 12.4028032,15.0428378 7.81580657,13.669943 Z M125.076862,13.669943 L125.060984,13.6642117 C122.670402,12.947545 121.067349,12.2412986 119.863214,11.371321 C118.139678,10.1319382 117.259524,8.55063418 117.259524,6.67208675 C117.259524,4.91285352 118.129231,3.1985585 119.641748,1.95904544 C121.18059,0.694914058 123.306247,0 125.629971,0 C130.480638,0 133.254258,3.04863421 133.372095,3.17941092 L130.424923,5.05509273 C129.744785,4.57470977 127.953694,3.49632299 125.629971,3.49632299 C122.709681,3.49632299 120.964973,5.11097241 120.964973,6.67247752 C120.964973,7.76180578 121.599147,8.95963702 126.185308,10.3352673 L126.203136,10.3380026 C128.592046,11.0525853 130.193707,11.7609157 131.400906,12.6282883 C133.122492,13.8701459 134,15.4514499 134,17.3302579 C134,19.0893608 133.132939,20.8065215 131.62279,22.0434294 C130.079631,23.3053465 127.952023,24 125.630528,24 C120.780975,24 118.010837,20.9542314 117.893697,20.8228034 L120.837944,18.9472519 C121.520589,19.4285466 123.306665,20.5065426 125.630528,20.5065426 C128.552628,20.5065426 130.293297,18.8951496 130.293297,17.3302579 C130.29274,16.2409296 129.661631,15.0428378 125.076862,13.669943 L125.076862,13.669943 Z" id="Shape"></path>
                    </g>
                </g>
            </g>
        </g>
    </g>
</svg>