<?xml version="1.0" encoding="UTF-8"?>
<svg width="129px" height="37px" viewBox="0 0 129 37" version="1.1" xmlns="http://www.w3.org/2000/svg" xmlns:xlink="http://www.w3.org/1999/xlink">
    <!-- Generator: Sketch 46.2 (44496) - http://www.bohemiancoding.com/sketch -->
    <title>Tesco</title>
    <desc>Created with Sketch.</desc>
    <defs>
        <polygon id="path-1" points="0.0439772727 0.172135129 0.0439772727 6.42828283 128.814562 6.42828283 128.814562 0.172135129"></polygon>
    </defs>
    <g id="CH.me-Design" stroke="none" stroke-width="1" fill="none" fill-rule="evenodd" opacity="0.5">
        <g id="CH.me-Homepage" transform="translate(-884.000000, -3261.000000)">
            <g id="Group-16" transform="translate(0.000000, 3021.000000)">
                <g id="Group-17" transform="translate(218.000000, 233.000000)">
                    <g id="Tesco" transform="translate(666.000000, 7.000000)">
                        <g id="Group-4" transform="translate(0.000000, 29.730808)">
                            <mask id="mask-2" fill="white">
                                <use xlink:href="#path-1"></use>
                            </mask>
                            <g id="Clip-2"></g>
                            <path d="M9.88242614,0.172135129 L25.5654545,0.172135129 C25.7494261,0.172135129 25.7494261,0.261416835 25.5654545,0.350698541 C23.8232216,1.15494815 21.2549489,3.65769293 21.2549489,3.65769293 C19.5127159,5.3561881 18.1369602,6.42828283 15.1105909,6.42828283 L0.0688977273,6.42828283 C-0.0227215909,6.42828283 -0.0227215909,6.24971942 0.0688977273,6.24971942 C1.71951136,5.3561881 4.19616477,2.85344332 4.19616477,2.85344332 C5.20471023,1.69135264 7.31415341,0.172135129 9.88242614,0.172135129" id="Fill-1" fill="#2D2E2C" mask="url(#mask-2)"></path>
                            <path d="M112.971017,0.172135129 L128.746398,0.172135129 C128.838017,0.172135129 128.838017,0.261416835 128.746398,0.350698541 C126.911812,1.15494815 124.435892,3.65769293 124.435892,3.65769293 C122.601307,5.3561881 121.225551,6.42828283 118.290801,6.42828283 L103.249108,6.42828283 C103.157489,6.42828283 103.157489,6.24971942 103.249108,6.24971942 C104.899722,5.3561881 107.376375,2.85344332 107.376375,2.85344332 C108.38492,1.69135264 110.402744,0.172135129 112.971017,0.172135129" id="Fill-3" fill="#2D2E2C" mask="url(#mask-2)"></path>
                        </g>
                        <path d="M35.2592089,29.7308081 L50.805896,29.7308081 C50.9882682,29.7308081 50.9882682,29.8225463 50.805896,29.9142846 C49.0788092,30.7406628 46.5328639,33.3122695 46.5328639,33.3122695 C44.8057772,35.057498 43.4419817,36.1590909 40.4411957,36.1590909 L25.6218178,36.1590909 C25.4401721,36.1590909 25.4401721,35.9756144 25.5309949,35.9756144 C27.1672589,35.057498 29.6223814,32.4858913 29.6223814,32.4858913 C30.622159,31.2918262 32.7132636,29.7308081 35.2592089,29.7308081" id="Fill-5" fill="#2D2E2C"></path>
                        <path d="M61.5153835,29.7308081 L77.0985685,29.7308081 C77.2813689,29.7308081 77.2813689,29.8225463 77.0985685,29.9142846 C75.3674272,30.7406628 72.8155049,33.3122695 72.8155049,33.3122695 C71.0843636,35.057498 69.7173664,36.1590909 66.8013,36.1590909 L51.8553672,36.1590909 C51.7643312,36.1590909 51.7643312,35.9756144 51.7643312,35.9756144 C53.4954725,35.057498 55.8653227,32.4858913 55.8653227,32.4858913 C56.8674474,31.2918262 58.9634612,29.7308081 61.5153835,29.7308081" id="Fill-6" fill="#2D2E2C"></path>
                        <path d="M86.967188,29.7308081 L102.646607,29.7308081 C102.738401,29.7308081 102.738401,29.8225463 102.556269,29.9142846 C100.823825,30.7406628 98.2710566,33.3122695 98.2710566,33.3122695 C96.5393412,35.057498 95.1718908,36.1590909 92.2541288,36.1590909 L77.3039685,36.1590909 C77.2129022,36.1590909 77.2129022,35.9756144 77.3039685,35.9756144 C78.9446176,35.057498 81.4063199,32.4858913 81.4063199,32.4858913 C82.3177107,31.2918262 84.4144195,29.7308081 86.967188,29.7308081" id="Fill-7" fill="#2D2E2C"></path>
                        <path d="M91.4597285,0 C81.4466081,0 74.7707006,4.98101403 74.7707006,12.5417483 C74.7707006,19.4804779 80.890159,24.1060606 89.9763581,24.1060606 C92.9430988,24.1060606 95.5393674,23.7499185 98.5987261,22.9494872 L98.5987261,17.1673311 C96.4662886,19.4804779 93.870761,20.3697669 91.0892563,20.3697669 C85.7114831,20.3697669 82.0030573,16.9896154 82.0030573,12.0086014 C82.0030573,7.11573432 85.8041012,3.55786716 91.1818744,3.55786716 C94.055997,3.55786716 96.3736706,4.62558274 98.228254,6.49301871 L98.228254,0.622715611 C96.2810526,0.266573464 93.870761,0 91.4597285,0" id="Fill-8" fill="#2D2E2C"></path>
                        <path d="M17.9376138,4.09402506 C21.640696,4.09402506 26.0851346,4.80542467 27.9363057,6.31706001 L27.9363057,0.803535354 L1.6433121,0.803535354 L1.6433121,6.31706001 C3.49448328,4.80542467 7.47575909,4.18286118 11.7344886,4.18286118 L11.7344886,19.3006359 C11.7344886,21.5243816 11.5495195,22.1462344 10.623194,23.3025253 L19.0489084,23.3025253 C18.1225829,22.1462344 17.9376138,21.5243816 17.9376138,19.3006359 L17.9376138,4.09402506" id="Fill-9" fill="#2D2E2C"></path>
                        <path d="M44.7297741,9.51871361 C43.2426877,10.052441 40.4542152,10.1412771 39.0599789,10.1412771 L36.8293494,10.1412771 L36.8293494,4.18286118 L39.803522,4.18286118 C42.4991446,4.18286118 47.0532536,4.71658856 48.8196329,6.2282239 L48.8196329,0.803535354 L29.5796178,0.803535354 C30.5088611,1.87027943 30.6945612,2.58238973 30.6945612,4.71658856 L30.6945612,19.3006359 C30.6945612,21.5243816 30.5088611,22.1462344 29.6724679,23.3025253 L50.1210191,23.3025253 L50.1210191,17.7890006 C47.3325465,19.8343633 41.9413015,19.8343633 39.803522,19.8343633 L36.8293494,19.8343633 L36.8293494,13.5206029 L38.9671288,13.5206029 C40.4542152,13.5206029 43.1498377,13.6982752 44.7297741,14.2320025 L44.7297741,9.51871361" id="Fill-10" fill="#2D2E2C"></path>
                        <path d="M72.8355806,1.50645172 C69.7718855,0.531897153 65.78018,0 62.7172267,0 C57.1476812,0 51.7643312,1.68351469 51.7643312,7.35590391 C51.7643312,17.1042826 68.4722259,11.9644988 68.4722259,17.991014 C68.4722259,19.9408314 65.5019995,20.738323 63.0888759,20.738323 C58.8189899,20.738323 55.8480217,20.0293628 52.1352386,17.7247113 L52.1352386,22.6874321 C54.9200114,23.5741635 58.7262631,24.1060606 62.8099536,24.1060606 C68.5649528,24.1060606 73.9490446,22.5103691 73.9490446,16.7501567 C73.9490446,6.46917257 57.3331349,11.0777675 57.3331349,6.11504664 C57.3331349,4.07669776 60.0251808,3.36773764 62.3463193,3.36773764 C66.2445561,3.36773764 70.5144421,4.51935517 72.8355806,6.73547527 L72.8355806,1.50645172" id="Fill-11" fill="#2D2E2C"></path>
                        <path d="M114.163136,20.751936 C109.342007,20.751936 106.281561,17.0444114 106.281561,12.4551507 C106.281561,7.86518452 109.342007,4.15766 114.163136,4.15766 C118.892377,4.15766 122.045451,7.86518452 122.045451,12.4551507 C122.045451,17.0444114 118.892377,20.751936 114.163136,20.751936 Z M114.812276,0.803535354 C105.818419,0.803535354 99.4203822,5.74690139 99.4203822,12.7196715 C99.4203822,19.6042681 105.169278,24.1060606 113.607365,24.1060606 C122.694592,24.1060606 129,19.3397472 129,12.278098 C129,5.39350151 123.250363,0.803535354 114.812276,0.803535354 L114.812276,0.803535354 Z" id="Fill-12" fill="#2D2E2C"></path>
                    </g>
                </g>
            </g>
        </g>
    </g>
</svg>