<?xml version="1.0" encoding="UTF-8"?>
<svg width="64px" height="63px" viewBox="0 0 64 63" version="1.1" xmlns="http://www.w3.org/2000/svg" xmlns:xlink="http://www.w3.org/1999/xlink">
    <!-- Generator: Sketch 46.2 (44496) - http://www.bohemiancoding.com/sketch -->
    <title>usaa</title>
    <desc>Created with Sketch.</desc>
    <defs>
        <polygon id="path-1" points="28.1994672 0.161666667 0.0207129456 0.161666667 0.0207129456 62.9583333 56.3782214 62.9583333 56.3782214 0.161666667"></polygon>
    </defs>
    <g id="CH.me-Design" stroke="none" stroke-width="1" fill="none" fill-rule="evenodd" opacity="0.5">
        <g id="CH.me-Homepage" transform="translate(-232.000000, -3363.000000)">
            <g id="Group-16" transform="translate(0.000000, 3021.000000)">
                <g id="Group-17" transform="translate(218.000000, 233.000000)">
                    <g id="usaa" transform="translate(14.000000, 109.000000)">
                        <path d="M0,45.8888889 L0,56.2529168 C0,62.0437731 3.5993012,63 6.61228165,63 C11.0655274,63 13.1282051,60.1082496 13.1282051,56.1940721 L13.1282051,45.8888889 L10.179577,45.8888889 L10.179577,56.5434627 C10.179577,57.8895359 9.73183492,60.403142 6.61228165,60.3536589 C3.77363118,60.3048445 3.24859831,57.7354028 3.24859831,56.0890878 L3.24859831,45.8888889 L0,45.8888889" id="Fill-1" fill="#2D2E2C"></path>
                        <path d="M26.5827928,46.7998872 C26.5827928,46.7998872 24.7176534,45.8888889 22.5986984,45.8888889 C19.9596241,45.8888889 16.640108,47.221034 16.640108,50.8442175 C16.640108,53.3605282 18.5295489,54.5536123 19.8209031,55.1666699 C20.5026949,55.4940083 21.3370461,55.8590022 22.0198504,56.2183807 C22.3728971,56.4059975 23.7746206,56.8690938 23.7746206,58.3607792 C23.7746206,59.9499064 21.9965615,60.4949199 21.1973125,60.4949199 C18.3489753,60.4949199 16.4102564,59.224543 16.4102564,59.224543 L16.7076121,62.4176614 C16.7076121,62.4176614 17.871046,62.9976878 21.3566223,63 C24.6801886,62.9910816 27.0769231,60.9015329 27.0769231,58.0202283 C27.0769231,55.8038402 25.5334409,54.4895319 24.2157601,53.8632619 C23.1768714,53.3605282 22.5733844,53.0946277 21.6715291,52.6771144 C20.7689987,52.2622435 19.8384542,51.5421651 19.8384542,50.4250526 C19.8384542,49.2309776 20.95261,48.3741504 22.5986984,48.3741504 C25.0173718,48.3741504 25.9914565,49.443698 26.5827928,49.7835883 L26.5827928,46.7998872" id="Fill-2" fill="#2D2E2C"></path>
                        <g id="Group-9">
                            <mask id="mask-2" fill="white">
                                <use xlink:href="#path-1"></use>
                            </mask>
                            <g id="Clip-4"></g>
                            <path d="M50.2903415,46.247 L46.7028593,46.247 L47.275227,47.645 L41.7068968,62.0083333 L35.9659587,46.247 L32.3788218,46.247 L32.9504991,47.645 L27.0141689,62.9583333 L30.2550544,62.9583333 L31.2920826,60.043 L37.4293283,60.043 L38.4594522,62.9583333 L44.5811632,62.9583333 L45.619227,60.043 L51.7550919,60.043 L52.7886679,62.9583333 L56.3782214,62.9583333 L50.2903415,46.247 Z M32.1016135,57.7796667 L34.4839475,51.2346667 L36.606334,57.7796667 L32.1016135,57.7796667 Z M46.4294484,57.7796667 L48.8069493,51.2346667 L50.9331332,57.7796667 L46.4294484,57.7796667 L46.4294484,57.7796667 Z" id="Fill-3" fill="#2D2E2C" mask="url(#mask-2)"></path>
                            <path d="M0,27.479 L0.150859287,32.7003333 C0.150859287,32.7003333 1.47752345,31.753 2.95953471,31.753 C4.44775985,31.753 6.12205629,32.7853333 6.12205629,32.7853333 L19.4097561,40.294 L20.5330882,35.575 L6.12205629,27.4333333 C6.12205629,27.4333333 4.45362852,26.407 2.95953471,26.407 C1.46889306,26.407 0,27.479 0,27.479" id="Fill-5" fill="#2D2E2C" mask="url(#mask-2)"></path>
                            <path d="M0,20.6513333 L0.150859287,25.8733333 C0.150859287,25.8733333 1.47752345,24.9266667 2.95953471,24.9266667 C4.44775985,24.9266667 6.12205629,25.958 6.12205629,25.958 L20.8430919,34.274 L21.9643527,29.556 L6.12205629,20.6066667 C6.12205629,20.6066667 4.45362852,19.5793333 2.95953471,19.5793333 C1.46889306,19.5793333 0,20.6513333 0,20.6513333" id="Fill-6" fill="#2D2E2C" mask="url(#mask-2)"></path>
                            <path d="M0,13.8263333 L0.150859287,19.0473333 C0.150859287,19.0473333 1.47752345,18.1013333 2.95953471,18.1013333 C4.44775985,18.1013333 6.12205629,19.13 6.12205629,19.13 L22.2784991,28.263 L23.3990694,23.541 L6.12205629,13.7773333 C6.12205629,13.7773333 4.45362852,12.754 2.95953471,12.754 C1.46889306,12.754 0,13.8263333 0,13.8263333" id="Fill-7" fill="#2D2E2C" mask="url(#mask-2)"></path>
                            <path d="M27.6935535,5.51466667 L29.1734934,11.678 L49.4086604,23.1056667 C49.4086604,23.1056667 51.0011407,24.1313333 52.5615159,24.1313333 C54.1253433,24.1313333 55.5269193,23.0576667 55.5269193,23.0576667 L55.3757148,17.8366667 C55.3757148,17.8366667 54.1046304,18.7846667 52.5615159,18.7846667 C51.020818,18.7846667 49.4086604,17.7546667 49.4086604,17.7546667 L33.7527805,8.909 L32.6715647,4.945 C32.6715647,4.77866667 32.8258762,4.699 32.8835272,4.685 L35.534439,3.88333333 C35.8907017,3.88333333 36.0967955,4.17933333 36.0967955,4.43133333 L36.2376435,4.714 C36.3332683,4.763 36.7319925,4.57366667 36.7630619,4.55866667 L36.7630619,2.99433333 C36.7713471,1.96 35.9148668,1.04033333 34.7463114,1.04033333 L32.0985066,1.04033333 C32.0985066,1.04033333 31.7122101,0.161666667 30.5864615,0.161666667 L25.5566679,0.161666667 C24.2279325,0.161666667 23.9068818,1.37166667 23.9068818,1.37166667 L20.4150244,15.0336667 L6.12343715,6.955 C6.12343715,6.955 4.57514447,5.92633333 2.95953471,5.92633333 C1.34875797,5.92633333 0,6.99833333 0,6.99833333 L0.150859287,12.2183333 C0.150859287,12.2183333 1.34530582,11.2746667 2.95953471,11.2746667 C4.57618011,11.2746667 6.12343715,12.3066667 6.12343715,12.3066667 L23.7063114,22.2386667 L27.6935535,5.51466667" id="Fill-8" fill="#2D2E2C" mask="url(#mask-2)"></path>
                        </g>
                        <path d="M29.5384615,13.2222222 L31.0319736,19.2421559 L49.6060678,29.3301732 C49.6060678,29.3301732 51.2685909,30.3333333 52.7956258,30.3333333 C54.3216131,30.3333333 55.7948718,29.285754 55.7948718,29.285754 L55.6398287,24.2080257 C55.6398287,24.2080257 54.4508157,25.1275351 52.7956258,25.1275351 C51.1369439,25.1275351 49.6060678,24.1289142 49.6060678,24.1289142 L29.5384615,13.2222222" id="Fill-10" fill="#2D2E2C"></path>
                        <path d="M32,21.7777778 L33.4616752,27.8956542 L49.74789,37.0928925 C49.74789,37.0928925 51.3757267,38.1111111 52.8664034,38.1111111 C54.3584449,38.1111111 55.7948718,37.048751 55.7948718,37.048751 L55.6467936,31.888481 C55.6467936,31.888481 54.4826395,32.821052 52.8664034,32.821052 C51.2457318,32.821052 49.74789,31.8067864 49.74789,31.8067864 L32,21.7777778" id="Fill-11" fill="#2D2E2C"></path>
                        <path d="M33.6410256,28.7777778 L35.1171675,34.997049 L49.6852368,43.2944407 C49.6852368,43.2944407 51.3309471,44.3333333 52.836729,44.3333333 C54.3428555,44.3333333 55.7948718,43.2451453 55.7948718,43.2451453 L55.6452931,37.9950154 C55.6452931,37.9950154 54.4693426,38.9487308 52.836729,38.9487308 C51.1996349,38.9487308 49.6852368,37.9088322 49.6852368,37.9088322 L33.6410256,28.7777778" id="Fill-12" fill="#2D2E2C"></path>
                        <path d="M59.6174209,48.478009 L60.0978899,48.478009 C60.6478157,48.478009 61.1114575,48.2925031 61.1114575,47.8119961 C61.1114575,47.4697813 60.8461613,47.1299104 60.0978899,47.1299104 C59.8827171,47.1299104 59.7344949,47.1433044 59.6174209,47.1590422 L59.6174209,48.478009 Z M59.6174209,50.63644 L58.9529272,50.63644 L58.9529272,46.7411518 C59.3030753,46.6939382 59.634248,46.6470594 60.1340504,46.6470594 C60.7623835,46.6470594 61.1784081,46.7702836 61.4268772,46.9434 C61.6753463,47.1141726 61.8092475,47.3770284 61.8092475,47.7490446 C61.8092475,48.2633713 61.4451365,48.5741104 60.9968897,48.6969997 L60.9968897,48.7261314 C61.3624328,48.788748 61.6087537,49.0998219 61.6936055,49.6737516 C61.7938524,50.2798267 61.8919512,50.5122113 61.9585437,50.63644 L61.2621859,50.63644 C61.161581,50.5122113 61.0609761,50.1559329 60.9786304,49.6452895 C60.8783835,49.1473704 60.6141614,48.9598554 60.0810627,48.9598554 L59.6174209,48.9598554 L59.6174209,50.63644 Z M60.3144948,45.6545696 C58.67331,45.6545696 57.3274955,46.9735364 57.3274955,48.6032422 C57.3274955,50.2620798 58.67331,51.5676526 60.3298898,51.5676526 C61.992198,51.5823859 63.3190372,50.2620798 63.3190372,48.6176406 C63.3190372,46.9735364 61.992198,45.6545696 60.3298898,45.6545696 L60.3144948,45.6545696 Z M60.3298898,45.1111111 C62.3734942,45.1111111 64,46.6638019 64,48.6032422 C64,50.5738234 62.3734942,52.1111111 60.3144948,52.1111111 C58.2726805,52.1111111 56.6153846,50.5738234 56.6153846,48.6032422 C56.6153846,46.6638019 58.2726805,45.1111111 60.3144948,45.1111111 L60.3298898,45.1111111 L60.3298898,45.1111111 Z" id="Fill-13" fill="#2D2E2C"></path>
                    </g>
                </g>
            </g>
        </g>
    </g>
</svg>