<svg width="21px" height="17px" viewBox="0 0 21 17" version="1.1" xmlns="http://www.w3.org/2000/svg" xmlns:xlink="http://www.w3.org/1999/xlink">
    <!-- Generator: Sketch 3.8.3 (29802) - http://www.bohemiancoding.com/sketch -->
    <title>Fill 1</title>
    <desc>Created with Sketch.</desc>
    <defs></defs>
    <g id="Page-1" stroke="none" stroke-width="1" fill="none" fill-rule="evenodd">
        <g id="Clearhead-Home-Photography-1" transform="translate(-215.000000, -7933.000000)" fill="#FFFFFF">
            <g id="Footer" transform="translate(0.000000, 7529.000000)">
                <path d="M233.453623,406.688124 C234.339519,406.157005 235.0201,405.315979 235.340571,404.313777 C234.511259,404.805674 233.592835,405.162752 232.615211,405.355201 C231.832443,404.521078 230.717072,404 229.482675,404 C227.112615,404 225.190942,405.921464 225.190942,408.291523 C225.190942,408.627892 225.228909,408.955474 225.302124,409.269565 C221.73532,409.090608 218.572975,407.381989 216.456342,404.785488 C216.086922,405.419316 215.875228,406.156587 215.875228,406.94312 C215.875228,408.432095 216.632894,409.745669 217.784454,410.515258 C217.080967,410.49298 216.419212,410.299903 215.840608,409.978491 C215.840189,409.996376 215.840189,410.014261 215.840189,410.032461 C215.840189,412.111754 217.319542,413.846311 219.282842,414.240624 C218.922731,414.338731 218.543584,414.391236 218.1522,414.391236 C217.875658,414.391236 217.606752,414.364252 217.344748,414.314152 C217.890824,416.01911 219.47571,417.259992 221.353768,417.294507 C219.884979,418.445649 218.034534,419.131774 216.023749,419.131774 C215.677339,419.131774 215.335741,419.111378 215,419.071738 C216.89929,420.289401 219.155135,421 221.578746,421 C229.472634,421 233.789468,414.460476 233.789468,408.789173 C233.789468,408.603103 233.78518,408.41808 233.776917,408.233997 C234.615537,407.628827 235.343081,406.873044 235.918443,406.012354 C235.148853,406.353743 234.321633,406.584474 233.453623,406.688124 Z" id="Fill-1"></path>
            </g>
        </g>
    </g>
</svg>
