<?xml version="1.0" encoding="utf-8"?>
<!-- Generator: Adobe Illustrator 18.1.0, SVG Export Plug-In . SVG Version: 6.00 Build 0)  -->
<!DOCTYPE svg PUBLIC "-//W3C//DTD SVG 1.1//EN" "http://www.w3.org/Graphics/SVG/1.1/DTD/svg11.dtd">
<svg version="1.1" id="Layer_1" xmlns="http://www.w3.org/2000/svg" xmlns:xlink="http://www.w3.org/1999/xlink" x="0px" y="0px"
	 viewBox="0 0 406.3 476.5" enable-background="new 0 0 406.3 476.5" xml:space="preserve">
<g>
	<g>
		<g>
			
				<rect x="283.8" y="38.1" fill="none" stroke="#3BC5F3" stroke-width="2" stroke-linecap="round" stroke-linejoin="round" stroke-miterlimit="10" width="35" height="102.3"/>
			
				<line fill="none" stroke="#95D8EB" stroke-width="2" stroke-linecap="round" stroke-linejoin="round" stroke-miterlimit="10" x1="295.8" y1="71.6" x2="306.8" y2="71.6"/>
			
				<line fill="none" stroke="#95D8EB" stroke-width="2" stroke-linecap="round" stroke-linejoin="round" stroke-miterlimit="10" x1="295.8" y1="82.6" x2="306.8" y2="82.6"/>
			
				<line fill="none" stroke="#95D8EB" stroke-width="2" stroke-linecap="round" stroke-linejoin="round" stroke-miterlimit="10" x1="293.3" y1="77.1" x2="309.3" y2="77.1"/>
		</g>
		<g>
			
				<rect x="334.9" y="44.3" transform="matrix(0.9383 -0.3459 0.3459 0.9383 -10.698 124.602)" fill="none" stroke="#3BC5F3" stroke-width="2" stroke-linecap="round" stroke-linejoin="round" stroke-miterlimit="10" width="17.7" height="96"/>
			<g>
				
					<line fill="none" stroke="#95D8EB" stroke-width="2" stroke-linecap="round" stroke-linejoin="round" stroke-miterlimit="10" x1="338.9" y1="91.1" x2="346.6" y2="88.3"/>
				
					<line fill="none" stroke="#95D8EB" stroke-width="2" stroke-linecap="round" stroke-linejoin="round" stroke-miterlimit="10" x1="340.8" y1="96.3" x2="348.6" y2="93.4"/>
				
					<line fill="none" stroke="#95D8EB" stroke-width="2" stroke-linecap="round" stroke-linejoin="round" stroke-miterlimit="10" x1="350.5" y1="110.5" x2="358" y2="130.6"/>
			</g>
		</g>
		<g>
			
				<rect x="36.1" y="104.8" fill="none" stroke="#3BC5F3" stroke-width="2" stroke-linecap="round" stroke-linejoin="round" stroke-miterlimit="10" width="122.7" height="35.6"/>
			
				<line fill="none" stroke="#95D8EB" stroke-width="2" stroke-linecap="round" stroke-linejoin="round" stroke-miterlimit="10" x1="65.2" y1="128" x2="65.2" y2="117.1"/>
			
				<line fill="none" stroke="#95D8EB" stroke-width="2" stroke-linecap="round" stroke-linejoin="round" stroke-miterlimit="10" x1="76.2" y1="128" x2="76.2" y2="117.1"/>
			
				<line fill="none" stroke="#95D8EB" stroke-width="2" stroke-linecap="round" stroke-linejoin="round" stroke-miterlimit="10" x1="70.7" y1="130.5" x2="70.7" y2="114.6"/>
		</g>
		<g>
			
				<rect x="229.5" y="1.9" transform="matrix(0.9874 0.1584 -0.1584 0.9874 14.2362 -37.2437)" fill="none" stroke="#3BC5F3" stroke-width="2" stroke-linecap="round" stroke-linejoin="round" stroke-miterlimit="10" width="22.7" height="137.5"/>
			
				<line fill="none" stroke="#95D8EB" stroke-width="2" stroke-linecap="round" stroke-linejoin="round" stroke-miterlimit="10" x1="234.9" y1="107.2" x2="246.6" y2="34.2"/>
		</g>
		<g>
			
				<rect x="261.2" y="17.7" fill="none" stroke="#3BC5F3" stroke-width="2" stroke-linecap="round" stroke-linejoin="round" stroke-miterlimit="10" width="22.7" height="122.7"/>
			
				<line fill="none" stroke="#95D8EB" stroke-width="2" stroke-linecap="round" stroke-linejoin="round" stroke-miterlimit="10" x1="272.5" y1="68.8" x2="272.5" y2="34.7"/>
			
				<line fill="none" stroke="#95D8EB" stroke-width="2" stroke-linecap="round" stroke-linejoin="round" stroke-miterlimit="10" x1="272.5" y1="112.9" x2="272.5" y2="78.8"/>
		</g>
		<g>
			
				<rect x="49.6" y="86.5" fill="none" stroke="#3BC5F3" stroke-width="2" stroke-linecap="round" stroke-linejoin="round" stroke-miterlimit="10" width="109.2" height="18.2"/>
			
				<line fill="none" stroke="#95D8EB" stroke-width="2" stroke-linecap="round" stroke-linejoin="round" stroke-miterlimit="10" x1="65.2" y1="100" x2="65.2" y2="91.7"/>
			
				<line fill="none" stroke="#95D8EB" stroke-width="2" stroke-linecap="round" stroke-linejoin="round" stroke-miterlimit="10" x1="70.7" y1="100" x2="70.7" y2="91.7"/>
			
				<line fill="none" stroke="#95D8EB" stroke-width="2" stroke-linecap="round" stroke-linejoin="round" stroke-miterlimit="10" x1="92.3" y1="95.6" x2="126.4" y2="95.6"/>
		</g>
		<g>
			
				<rect x="164.8" y="124.7" fill="none" stroke="#3BC5F3" stroke-width="2" stroke-linecap="round" stroke-linejoin="round" stroke-miterlimit="10" width="49.6" height="15.7"/>
			
				<rect x="170.8" y="117.7" fill="none" stroke="#3BC5F3" stroke-width="2" stroke-linecap="round" stroke-linejoin="round" stroke-miterlimit="10" width="37.5" height="6.9"/>
			
				<rect x="170.8" y="71.4" fill="none" stroke="#3BC5F3" stroke-width="2" stroke-linecap="round" stroke-linejoin="round" stroke-miterlimit="10" width="37.5" height="6.9"/>
			
				<rect x="176.2" y="112.8" fill="none" stroke="#3BC5F3" stroke-width="2" stroke-linecap="round" stroke-linejoin="round" stroke-miterlimit="10" width="26.8" height="4.9"/>
			
				<rect x="176.2" y="66.4" fill="none" stroke="#3BC5F3" stroke-width="2" stroke-linecap="round" stroke-linejoin="round" stroke-miterlimit="10" width="26.8" height="4.9"/>
			
				<rect x="188.1" y="62.5" fill="none" stroke="#3BC5F3" stroke-width="2" stroke-linecap="round" stroke-linejoin="round" stroke-miterlimit="10" width="3" height="3.9"/>
			<path fill="none" stroke="#95D8EB" stroke-width="2" stroke-linecap="round" stroke-linejoin="round" stroke-miterlimit="10" d="
				M198.9,135.3v-1.8c0.6,0,1-0.5,1-1s-0.5-1-1-1v-1.8h-18.5v1.8c-0.6,0-1,0.5-1,1s0.5,1,1,1v1.8H198.9z"/>
			<g>
				
					<rect x="178.9" y="78.2" fill="none" stroke="#3BC5F3" stroke-width="2" stroke-linecap="round" stroke-linejoin="round" stroke-miterlimit="10" width="21.4" height="34.5"/>
				<g>
					
						<line fill="none" stroke="#95D8EB" stroke-width="2" stroke-linecap="round" stroke-linejoin="round" stroke-miterlimit="10" x1="185.3" y1="100.7" x2="185.3" y2="90.3"/>
					
						<line fill="none" stroke="#95D8EB" stroke-width="2" stroke-linecap="round" stroke-linejoin="round" stroke-miterlimit="10" x1="193.9" y1="100.7" x2="193.9" y2="90.3"/>
					
						<line fill="none" stroke="#95D8EB" stroke-width="2" stroke-linecap="round" stroke-linejoin="round" stroke-miterlimit="10" x1="189.6" y1="106.7" x2="189.6" y2="84.3"/>
				</g>
			</g>
			<g>
				<path fill="#95D8EB" d="M184,47.5v-3.7h-3.4l3.4-3.4v-1.1v-0.5c0-2.6,1.4-3.7,2.5-4.3c1.2-0.6,2.3-0.6,2.4-0.6
					c0.3,0,0.6,0.2,0.6,0.6c0,0.4-0.3,0.6-0.6,0.6c-0.1,0-1,0-1.9,0.5c-1.2,0.6-1.8,1.6-1.8,3.2v0l0,0.5v1.6l-1.7,1.6h1.7v3.7h3.5
					c0.3,0,0.6,0.3,0.6,0.6c0,0.3-0.3,0.6-0.6,0.6H184z"/>
				<path fill="#95D8EB" d="M190.9,46.9c0-0.3,0.2-0.6,0.6-0.6c0.2,0,3.8-0.2,3.8-3.7v-3.7c0-0.1,0-1-0.5-2
					c-0.6-1.2-1.7-1.8-3.3-1.8c-0.3,0-0.6-0.2-0.6-0.6c0-0.4,0.2-0.6,0.6-0.6h0.1c2.5,0,3.7,1.4,4.3,2.5c0.6,1.2,0.6,2.4,0.6,2.5
					v3.7c0,3.8-3.2,4.8-4.9,5C191.1,47.5,190.9,47.2,190.9,46.9z"/>
			</g>
			
				<circle fill="none" stroke="#3BC5F3" stroke-width="2" stroke-linecap="round" stroke-linejoin="round" stroke-miterlimit="10" cx="189.6" cy="40.7" r="21.8"/>
			
				<circle fill="none" stroke="#95D8EB" stroke-width="2" stroke-linecap="round" stroke-linejoin="round" stroke-miterlimit="10" cx="189.6" cy="40.7" r="16.6"/>
		</g>
	</g>
	
		<line fill="none" stroke="#3BC5F3" stroke-width="2" stroke-linecap="round" stroke-linejoin="round" stroke-miterlimit="10" x1="1" y1="140.4" x2="405.3" y2="140.4"/>
	<g>
		<g>
			
				<rect x="112.5" y="205.6" fill="none" stroke="#3BC5F3" stroke-width="2" stroke-linecap="round" stroke-linejoin="round" stroke-miterlimit="10" width="35" height="102.3"/>
			
				<line fill="none" stroke="#95D8EB" stroke-width="2" stroke-linecap="round" stroke-linejoin="round" stroke-miterlimit="10" x1="124.5" y1="239.2" x2="135.5" y2="239.2"/>
			
				<line fill="none" stroke="#95D8EB" stroke-width="2" stroke-linecap="round" stroke-linejoin="round" stroke-miterlimit="10" x1="124.5" y1="250.2" x2="135.5" y2="250.2"/>
			
				<line fill="none" stroke="#95D8EB" stroke-width="2" stroke-linecap="round" stroke-linejoin="round" stroke-miterlimit="10" x1="122" y1="244.7" x2="138" y2="244.7"/>
		</g>
		<g>
			
				<rect x="67.2" y="170.4" fill="none" stroke="#3BC5F3" stroke-width="2" stroke-linecap="round" stroke-linejoin="round" stroke-miterlimit="10" width="22.7" height="137.5"/>
			
				<line fill="none" stroke="#95D8EB" stroke-width="2" stroke-linecap="round" stroke-linejoin="round" stroke-miterlimit="10" x1="78.5" y1="276.1" x2="78.5" y2="202.2"/>
		</g>
		<g>
			
				<rect x="89.9" y="185.3" fill="none" stroke="#3BC5F3" stroke-width="2" stroke-linecap="round" stroke-linejoin="round" stroke-miterlimit="10" width="22.7" height="122.7"/>
			
				<line fill="none" stroke="#95D8EB" stroke-width="2" stroke-linecap="round" stroke-linejoin="round" stroke-miterlimit="10" x1="101.2" y1="236.3" x2="101.2" y2="202.2"/>
			
				<line fill="none" stroke="#95D8EB" stroke-width="2" stroke-linecap="round" stroke-linejoin="round" stroke-miterlimit="10" x1="101.2" y1="280.4" x2="101.2" y2="246.3"/>
		</g>
		<g>
			
				<rect x="36.1" y="195.4" fill="none" stroke="#3BC5F3" stroke-width="2" stroke-linecap="round" stroke-linejoin="round" stroke-miterlimit="10" width="31.1" height="112.5"/>
			
				<line fill="none" stroke="#95D8EB" stroke-width="2" stroke-linecap="round" stroke-linejoin="round" stroke-miterlimit="10" x1="42.9" y1="210.4" x2="60.4" y2="210.4"/>
			
				<line fill="none" stroke="#95D8EB" stroke-width="2" stroke-linecap="round" stroke-linejoin="round" stroke-miterlimit="10" x1="42.9" y1="216.7" x2="60.4" y2="216.7"/>
			
				<line fill="none" stroke="#95D8EB" stroke-width="2" stroke-linecap="round" stroke-linejoin="round" stroke-miterlimit="10" x1="42.9" y1="286.6" x2="60.4" y2="286.6"/>
			
				<line fill="none" stroke="#95D8EB" stroke-width="2" stroke-linecap="round" stroke-linejoin="round" stroke-miterlimit="10" x1="42.9" y1="292.9" x2="60.4" y2="292.9"/>
		</g>
		<g>
			
				<rect x="223.9" y="205.6" fill="none" stroke="#3BC5F3" stroke-width="2" stroke-linecap="round" stroke-linejoin="round" stroke-miterlimit="10" width="35" height="102.3"/>
			
				<line fill="none" stroke="#95D8EB" stroke-width="2" stroke-linecap="round" stroke-linejoin="round" stroke-miterlimit="10" x1="235.9" y1="239.2" x2="246.8" y2="239.2"/>
			
				<line fill="none" stroke="#95D8EB" stroke-width="2" stroke-linecap="round" stroke-linejoin="round" stroke-miterlimit="10" x1="235.9" y1="250.2" x2="246.8" y2="250.2"/>
			
				<line fill="none" stroke="#95D8EB" stroke-width="2" stroke-linecap="round" stroke-linejoin="round" stroke-miterlimit="10" x1="233.4" y1="244.7" x2="249.3" y2="244.7"/>
		</g>
		<g>
			
				<rect x="178.6" y="170.4" fill="none" stroke="#3BC5F3" stroke-width="2" stroke-linecap="round" stroke-linejoin="round" stroke-miterlimit="10" width="22.7" height="137.5"/>
			
				<line fill="none" stroke="#95D8EB" stroke-width="2" stroke-linecap="round" stroke-linejoin="round" stroke-miterlimit="10" x1="189.9" y1="276.1" x2="189.9" y2="202.2"/>
		</g>
		<g>
			
				<rect x="201.2" y="185.3" fill="none" stroke="#3BC5F3" stroke-width="2" stroke-linecap="round" stroke-linejoin="round" stroke-miterlimit="10" width="22.7" height="122.7"/>
			
				<line fill="none" stroke="#95D8EB" stroke-width="2" stroke-linecap="round" stroke-linejoin="round" stroke-miterlimit="10" x1="212.6" y1="236.3" x2="212.6" y2="202.2"/>
			
				<line fill="none" stroke="#95D8EB" stroke-width="2" stroke-linecap="round" stroke-linejoin="round" stroke-miterlimit="10" x1="212.6" y1="280.4" x2="212.6" y2="246.3"/>
		</g>
		<g>
			
				<rect x="147.5" y="195.4" fill="none" stroke="#3BC5F3" stroke-width="2" stroke-linecap="round" stroke-linejoin="round" stroke-miterlimit="10" width="31.1" height="112.5"/>
			
				<line fill="none" stroke="#95D8EB" stroke-width="2" stroke-linecap="round" stroke-linejoin="round" stroke-miterlimit="10" x1="154.3" y1="210.4" x2="171.8" y2="210.4"/>
			
				<line fill="none" stroke="#95D8EB" stroke-width="2" stroke-linecap="round" stroke-linejoin="round" stroke-miterlimit="10" x1="154.3" y1="216.7" x2="171.8" y2="216.7"/>
			
				<line fill="none" stroke="#95D8EB" stroke-width="2" stroke-linecap="round" stroke-linejoin="round" stroke-miterlimit="10" x1="154.3" y1="286.6" x2="171.8" y2="286.6"/>
			
				<line fill="none" stroke="#95D8EB" stroke-width="2" stroke-linecap="round" stroke-linejoin="round" stroke-miterlimit="10" x1="154.3" y1="292.9" x2="171.8" y2="292.9"/>
		</g>
		<g>
			
				<rect x="335.3" y="205.6" fill="none" stroke="#3BC5F3" stroke-width="2" stroke-linecap="round" stroke-linejoin="round" stroke-miterlimit="10" width="35" height="102.3"/>
			
				<line fill="none" stroke="#95D8EB" stroke-width="2" stroke-linecap="round" stroke-linejoin="round" stroke-miterlimit="10" x1="347.3" y1="239.2" x2="358.2" y2="239.2"/>
			
				<line fill="none" stroke="#95D8EB" stroke-width="2" stroke-linecap="round" stroke-linejoin="round" stroke-miterlimit="10" x1="347.3" y1="250.2" x2="358.2" y2="250.2"/>
			
				<line fill="none" stroke="#95D8EB" stroke-width="2" stroke-linecap="round" stroke-linejoin="round" stroke-miterlimit="10" x1="344.8" y1="244.7" x2="360.7" y2="244.7"/>
		</g>
		<g>
			
				<rect x="289.9" y="170.4" fill="none" stroke="#3BC5F3" stroke-width="2" stroke-linecap="round" stroke-linejoin="round" stroke-miterlimit="10" width="22.7" height="137.5"/>
			
				<line fill="none" stroke="#95D8EB" stroke-width="2" stroke-linecap="round" stroke-linejoin="round" stroke-miterlimit="10" x1="301.3" y1="276.1" x2="301.3" y2="202.2"/>
		</g>
		<g>
			
				<rect x="312.6" y="185.3" fill="none" stroke="#3BC5F3" stroke-width="2" stroke-linecap="round" stroke-linejoin="round" stroke-miterlimit="10" width="22.7" height="122.7"/>
			
				<line fill="none" stroke="#95D8EB" stroke-width="2" stroke-linecap="round" stroke-linejoin="round" stroke-miterlimit="10" x1="323.9" y1="236.3" x2="323.9" y2="202.2"/>
			
				<line fill="none" stroke="#95D8EB" stroke-width="2" stroke-linecap="round" stroke-linejoin="round" stroke-miterlimit="10" x1="323.9" y1="280.4" x2="323.9" y2="246.3"/>
		</g>
		<g>
			
				<rect x="258.9" y="195.4" fill="none" stroke="#3BC5F3" stroke-width="2" stroke-linecap="round" stroke-linejoin="round" stroke-miterlimit="10" width="31.1" height="112.5"/>
			
				<line fill="none" stroke="#95D8EB" stroke-width="2" stroke-linecap="round" stroke-linejoin="round" stroke-miterlimit="10" x1="265.6" y1="210.4" x2="283.2" y2="210.4"/>
			
				<line fill="none" stroke="#95D8EB" stroke-width="2" stroke-linecap="round" stroke-linejoin="round" stroke-miterlimit="10" x1="265.6" y1="216.7" x2="283.2" y2="216.7"/>
			
				<line fill="none" stroke="#95D8EB" stroke-width="2" stroke-linecap="round" stroke-linejoin="round" stroke-miterlimit="10" x1="265.6" y1="286.6" x2="283.2" y2="286.6"/>
			
				<line fill="none" stroke="#95D8EB" stroke-width="2" stroke-linecap="round" stroke-linejoin="round" stroke-miterlimit="10" x1="265.6" y1="292.9" x2="283.2" y2="292.9"/>
		</g>
	</g>
	
		<line fill="none" stroke="#3BC5F3" stroke-width="2" stroke-linecap="round" stroke-linejoin="round" stroke-miterlimit="10" x1="1" y1="307.9" x2="405.3" y2="307.9"/>
	<g>
		<g>
			
				<rect x="112.5" y="373.2" fill="none" stroke="#3BC5F3" stroke-width="2" stroke-linecap="round" stroke-linejoin="round" stroke-miterlimit="10" width="35" height="102.3"/>
			
				<line fill="none" stroke="#95D8EB" stroke-width="2" stroke-linecap="round" stroke-linejoin="round" stroke-miterlimit="10" x1="124.5" y1="406.7" x2="135.5" y2="406.7"/>
			
				<line fill="none" stroke="#95D8EB" stroke-width="2" stroke-linecap="round" stroke-linejoin="round" stroke-miterlimit="10" x1="124.5" y1="417.7" x2="135.5" y2="417.7"/>
			
				<line fill="none" stroke="#95D8EB" stroke-width="2" stroke-linecap="round" stroke-linejoin="round" stroke-miterlimit="10" x1="122" y1="412.2" x2="138" y2="412.2"/>
		</g>
		<g>
			
				<rect x="67.2" y="337.9" fill="none" stroke="#3BC5F3" stroke-width="2" stroke-linecap="round" stroke-linejoin="round" stroke-miterlimit="10" width="22.7" height="137.5"/>
			
				<line fill="none" stroke="#95D8EB" stroke-width="2" stroke-linecap="round" stroke-linejoin="round" stroke-miterlimit="10" x1="78.5" y1="443.6" x2="78.5" y2="369.8"/>
		</g>
		<g>
			
				<rect x="89.9" y="352.8" fill="none" stroke="#3BC5F3" stroke-width="2" stroke-linecap="round" stroke-linejoin="round" stroke-miterlimit="10" width="22.7" height="122.7"/>
			
				<line fill="none" stroke="#95D8EB" stroke-width="2" stroke-linecap="round" stroke-linejoin="round" stroke-miterlimit="10" x1="101.2" y1="403.9" x2="101.2" y2="369.8"/>
			
				<line fill="none" stroke="#95D8EB" stroke-width="2" stroke-linecap="round" stroke-linejoin="round" stroke-miterlimit="10" x1="101.2" y1="448" x2="101.2" y2="413.9"/>
		</g>
		<g>
			
				<rect x="36.1" y="362.9" fill="none" stroke="#3BC5F3" stroke-width="2" stroke-linecap="round" stroke-linejoin="round" stroke-miterlimit="10" width="31.1" height="112.5"/>
			
				<line fill="none" stroke="#95D8EB" stroke-width="2" stroke-linecap="round" stroke-linejoin="round" stroke-miterlimit="10" x1="42.9" y1="377.9" x2="60.4" y2="377.9"/>
			
				<line fill="none" stroke="#95D8EB" stroke-width="2" stroke-linecap="round" stroke-linejoin="round" stroke-miterlimit="10" x1="42.9" y1="384.3" x2="60.4" y2="384.3"/>
			
				<line fill="none" stroke="#95D8EB" stroke-width="2" stroke-linecap="round" stroke-linejoin="round" stroke-miterlimit="10" x1="42.9" y1="454.2" x2="60.4" y2="454.2"/>
			
				<line fill="none" stroke="#95D8EB" stroke-width="2" stroke-linecap="round" stroke-linejoin="round" stroke-miterlimit="10" x1="42.9" y1="460.5" x2="60.4" y2="460.5"/>
		</g>
		<g>
			
				<rect x="223.9" y="373.2" fill="none" stroke="#3BC5F3" stroke-width="2" stroke-linecap="round" stroke-linejoin="round" stroke-miterlimit="10" width="35" height="102.3"/>
			
				<line fill="none" stroke="#95D8EB" stroke-width="2" stroke-linecap="round" stroke-linejoin="round" stroke-miterlimit="10" x1="235.9" y1="406.7" x2="246.8" y2="406.7"/>
			
				<line fill="none" stroke="#95D8EB" stroke-width="2" stroke-linecap="round" stroke-linejoin="round" stroke-miterlimit="10" x1="235.9" y1="417.7" x2="246.8" y2="417.7"/>
			
				<line fill="none" stroke="#95D8EB" stroke-width="2" stroke-linecap="round" stroke-linejoin="round" stroke-miterlimit="10" x1="233.4" y1="412.2" x2="249.3" y2="412.2"/>
		</g>
		<g>
			
				<rect x="178.6" y="337.9" fill="none" stroke="#3BC5F3" stroke-width="2" stroke-linecap="round" stroke-linejoin="round" stroke-miterlimit="10" width="22.7" height="137.5"/>
			
				<line fill="none" stroke="#95D8EB" stroke-width="2" stroke-linecap="round" stroke-linejoin="round" stroke-miterlimit="10" x1="189.9" y1="443.6" x2="189.9" y2="369.8"/>
		</g>
		<g>
			
				<rect x="201.2" y="352.8" fill="none" stroke="#3BC5F3" stroke-width="2" stroke-linecap="round" stroke-linejoin="round" stroke-miterlimit="10" width="22.7" height="122.7"/>
			
				<line fill="none" stroke="#95D8EB" stroke-width="2" stroke-linecap="round" stroke-linejoin="round" stroke-miterlimit="10" x1="212.6" y1="403.9" x2="212.6" y2="369.8"/>
			
				<line fill="none" stroke="#95D8EB" stroke-width="2" stroke-linecap="round" stroke-linejoin="round" stroke-miterlimit="10" x1="212.6" y1="448" x2="212.6" y2="413.9"/>
		</g>
		<g>
			
				<rect x="147.5" y="362.9" fill="none" stroke="#3BC5F3" stroke-width="2" stroke-linecap="round" stroke-linejoin="round" stroke-miterlimit="10" width="31.1" height="112.5"/>
			
				<line fill="none" stroke="#95D8EB" stroke-width="2" stroke-linecap="round" stroke-linejoin="round" stroke-miterlimit="10" x1="154.3" y1="377.9" x2="171.8" y2="377.9"/>
			
				<line fill="none" stroke="#95D8EB" stroke-width="2" stroke-linecap="round" stroke-linejoin="round" stroke-miterlimit="10" x1="154.3" y1="384.3" x2="171.8" y2="384.3"/>
			
				<line fill="none" stroke="#95D8EB" stroke-width="2" stroke-linecap="round" stroke-linejoin="round" stroke-miterlimit="10" x1="154.3" y1="454.2" x2="171.8" y2="454.2"/>
			
				<line fill="none" stroke="#95D8EB" stroke-width="2" stroke-linecap="round" stroke-linejoin="round" stroke-miterlimit="10" x1="154.3" y1="460.5" x2="171.8" y2="460.5"/>
		</g>
		<g>
			
				<rect x="335.3" y="373.2" fill="none" stroke="#3BC5F3" stroke-width="2" stroke-linecap="round" stroke-linejoin="round" stroke-miterlimit="10" width="35" height="102.3"/>
			
				<line fill="none" stroke="#95D8EB" stroke-width="2" stroke-linecap="round" stroke-linejoin="round" stroke-miterlimit="10" x1="347.3" y1="406.7" x2="358.2" y2="406.7"/>
			
				<line fill="none" stroke="#95D8EB" stroke-width="2" stroke-linecap="round" stroke-linejoin="round" stroke-miterlimit="10" x1="347.3" y1="417.7" x2="358.2" y2="417.7"/>
			
				<line fill="none" stroke="#95D8EB" stroke-width="2" stroke-linecap="round" stroke-linejoin="round" stroke-miterlimit="10" x1="344.8" y1="412.2" x2="360.7" y2="412.2"/>
		</g>
		<g>
			
				<rect x="289.9" y="337.9" fill="none" stroke="#3BC5F3" stroke-width="2" stroke-linecap="round" stroke-linejoin="round" stroke-miterlimit="10" width="22.7" height="137.5"/>
			
				<line fill="none" stroke="#95D8EB" stroke-width="2" stroke-linecap="round" stroke-linejoin="round" stroke-miterlimit="10" x1="301.3" y1="443.6" x2="301.3" y2="369.8"/>
		</g>
		<g>
			
				<rect x="312.6" y="352.8" fill="none" stroke="#3BC5F3" stroke-width="2" stroke-linecap="round" stroke-linejoin="round" stroke-miterlimit="10" width="22.7" height="122.7"/>
			
				<line fill="none" stroke="#95D8EB" stroke-width="2" stroke-linecap="round" stroke-linejoin="round" stroke-miterlimit="10" x1="323.9" y1="403.9" x2="323.9" y2="369.8"/>
			
				<line fill="none" stroke="#95D8EB" stroke-width="2" stroke-linecap="round" stroke-linejoin="round" stroke-miterlimit="10" x1="323.9" y1="448" x2="323.9" y2="413.9"/>
		</g>
		<g>
			
				<rect x="258.9" y="362.9" fill="none" stroke="#3BC5F3" stroke-width="2" stroke-linecap="round" stroke-linejoin="round" stroke-miterlimit="10" width="31.1" height="112.5"/>
			
				<line fill="none" stroke="#95D8EB" stroke-width="2" stroke-linecap="round" stroke-linejoin="round" stroke-miterlimit="10" x1="265.6" y1="377.9" x2="283.2" y2="377.9"/>
			
				<line fill="none" stroke="#95D8EB" stroke-width="2" stroke-linecap="round" stroke-linejoin="round" stroke-miterlimit="10" x1="265.6" y1="384.3" x2="283.2" y2="384.3"/>
			
				<line fill="none" stroke="#95D8EB" stroke-width="2" stroke-linecap="round" stroke-linejoin="round" stroke-miterlimit="10" x1="265.6" y1="454.2" x2="283.2" y2="454.2"/>
			
				<line fill="none" stroke="#95D8EB" stroke-width="2" stroke-linecap="round" stroke-linejoin="round" stroke-miterlimit="10" x1="265.6" y1="460.5" x2="283.2" y2="460.5"/>
		</g>
	</g>
	
		<line fill="none" stroke="#3BC5F3" stroke-width="2" stroke-linecap="round" stroke-linejoin="round" stroke-miterlimit="10" x1="1" y1="475.5" x2="405.3" y2="475.5"/>
</g>
</svg>
