<?xml version="1.0" encoding="utf-8"?>
<!-- Generator: Adobe Illustrator 18.1.0, SVG Export Plug-In . SVG Version: 6.00 Build 0)  -->
<!DOCTYPE svg PUBLIC "-//W3C//DTD SVG 1.1//EN" "http://www.w3.org/Graphics/SVG/1.1/DTD/svg11.dtd">
<svg version="1.1" id="Layer_1" xmlns="http://www.w3.org/2000/svg" xmlns:xlink="http://www.w3.org/1999/xlink" x="0px" y="0px"
	 viewBox="0 0 311.3 138" enable-background="new 0 0 311.3 138" xml:space="preserve">
<g>
	<circle fill="#B799C8" cx="71.6" cy="69" r="64.1"/>
	<circle fill="#3DC6F3" cx="239.8" cy="69" r="64.1"/>
	<g>
		<path fill="#333333" d="M220.7,91.2V78.6h-11.6l11.6-11.4v-3.9v-1.8c0-8.8,4.8-12.6,8.5-14.6c4.1-2.1,8-2.1,8.3-2.1
			c1.1,0,2,0.8,2,1.9c0,1.3-0.9,2.1-2,2.1c-0.2,0-3.4,0.1-6.6,1.7c-4.1,2.1-6,5.6-6,10.9v0.1l-0.2,1.8v5.4l-5.7,5.6h5.7V87h12.1
			c1.2,0,2,0.9,2,2.1c0,1.1-0.9,2.1-2,2.1H220.7z"/>
		<path fill="#333333" d="M244.1,89.1C244,88,244.9,87,246,87c0.6,0,13-0.7,13-12.7V61.8c0-0.2-0.2-3.5-1.9-6.7
			c-2-4.1-5.7-6.2-11.1-6.2c-1.1,0-1.9-0.8-1.9-2c0-1.3,0.8-2.1,1.9-2.1h0.2c8.7,0,12.7,4.6,14.7,8.5c2.1,4.2,2.1,8.1,2.1,8.5v12.5
			c0,12.8-11,16.5-16.8,16.9C245.1,91.2,244.1,90.2,244.1,89.1z"/>
	</g>
	<g>
		<path fill="#333333" d="M42.5,62.8h6l3.4,9.6l3.5-9.6h5.5l-6.4,15.7c-1.2,3-2.2,4.7-3.6,5.8c-1,0.7-2.3,1.1-3.8,1.1
			c-1.3,0-2.3-0.3-3-0.7V80h0.2c0.3,0.4,1,0.7,2,0.7c1.5,0,2.2-0.5,2.6-1.7L42.5,62.8z"/>
		<path fill="#333333" d="M61.6,71.2c0-5.6,3.7-8.9,8.9-8.9s8.8,3.6,8.8,8.7c0,5.6-3.7,8.8-8.9,8.8S61.6,76.7,61.6,71.2z M73.7,71.1
			c0-2.8-1.1-4.2-3.2-4.2c-2,0-3.2,1.3-3.2,4.2c0,2.8,1.1,4.4,3.2,4.4C72.5,75.5,73.7,73.8,73.7,71.1z"/>
		<path fill="#333333" d="M82.1,74.2V62.8h5.6v9.4c0,1.7,0.6,2.8,2.3,2.8c2.1,0,3.3-1.1,3.3-4.6v-7.6h5.6v16.5h-5.6l0.1-2.9
			c-1.1,2-2.9,3.4-5.9,3.4C84.3,79.8,82.1,78.2,82.1,74.2z"/>
	</g>
	<g>
		<path fill="#4A286E" d="M159,77.5h-4.9v-5.2h-5.6v-5.1h5.6V62h4.9v5.2h5.6v5.1H159V77.5z"/>
	</g>
</g>
</svg>
