<?xml version="1.0" encoding="UTF-8" standalone="no"?>
<svg width="34px" height="28px" viewBox="0 0 34 28" version="1.1" xmlns="http://www.w3.org/2000/svg" xmlns:xlink="http://www.w3.org/1999/xlink" xmlns:sketch="http://www.bohemiancoding.com/sketch/ns">
    <!-- Generator: Sketch Beta 3.3.2 (12041) - http://www.bohemiancoding.com/sketch -->
    <title>menu</title>
    <desc>Created with Sketch Beta.</desc>
    <defs></defs>
    <g id="Page-1" stroke="none" stroke-width="1" fill="none" fill-rule="evenodd" sketch:type="MSPage">
        <g id="menu" sketch:type="MSArtboardGroup" fill="#1E6F84">
            <path d="M29.7923571,24.1740909 L4.85028571,24.1740909 C4.32,24.1740909 3.89121429,23.7412727 3.89121429,23.206 C3.89121429,22.6707273 4.32,22.2379091 4.85028571,22.2379091 L29.7923571,22.2379091 C30.3226429,22.2379091 30.7514286,22.6707273 30.7514286,23.206 C30.7514286,23.7412727 30.3226429,24.1740909 29.7923571,24.1740909" id="Fill-2" sketch:type="MSShapeGroup"></path>
            <path d="M29.7923571,15.0723636 L4.85028571,15.0723636 C4.32,15.0723636 3.89121429,14.6395455 3.89121429,14.1021818 C3.89121429,13.569 4.32,13.1340909 4.85028571,13.1340909 L29.7923571,13.1340909 C30.3226429,13.1340909 30.7514286,13.569 30.7514286,14.1021818 C30.7514286,14.6395455 30.3226429,15.0723636 29.7923571,15.0723636" id="Fill-3" sketch:type="MSShapeGroup"></path>
            <path d="M29.7923571,5.96854545 L4.85028571,5.96854545 C4.32,5.96854545 3.89121429,5.53572727 3.89121429,5.00045455 C3.89121429,4.46518182 4.32,4.03236364 4.85028571,4.03236364 L29.7923571,4.03236364 C30.3226429,4.03236364 30.7514286,4.46518182 30.7514286,5.00045455 C30.7514286,5.53572727 30.3226429,5.96854545 29.7923571,5.96854545" id="Fill-4" sketch:type="MSShapeGroup"></path>
        </g>
    </g>
</svg>