<?xml version="1.0" encoding="utf-8"?>
<!-- Generator: Adobe Illustrator 18.1.0, SVG Export Plug-In . SVG Version: 6.00 Build 0)  -->
<!DOCTYPE svg PUBLIC "-//W3C//DTD SVG 1.1//EN" "http://www.w3.org/Graphics/SVG/1.1/DTD/svg11.dtd">
<svg version="1.1" id="Layer_1" xmlns:sketch="http://www.bohemiancoding.com/sketch/ns"
	 xmlns="http://www.w3.org/2000/svg" xmlns:xlink="http://www.w3.org/1999/xlink" x="0px" y="0px" viewBox="-234 167 34 28"
	 enable-background="new -234 167 34 28" xml:space="preserve">
<title>menu</title>
<desc>Created with Sketch Beta.</desc>
<path fill="#117893" d="M-215.8,181l8.6-8.6c0.4-0.4,0.4-1,0-1.4c-0.4-0.4-1-0.4-1.4,0l-8.6,8.6l-8.6-8.6c-0.4-0.4-1-0.4-1.4,0
	c-0.4,0.4-0.4,1,0,1.4l8.6,8.6l-8.6,8.6c-0.4,0.4-0.4,1,0,1.4c0.4,0.4,1,0.4,1.4,0l8.6-8.6l8.6,8.6c0.4,0.4,1,0.4,1.4,0
	c0.4-0.4,0.4-1,0-1.4L-215.8,181z"/>
</svg>
