<?xml version="1.0" encoding="utf-8"?>
<!-- Generator: Adobe Illustrator 18.1.0, SVG Export Plug-In . SVG Version: 6.00 Build 0)  -->
<!DOCTYPE svg PUBLIC "-//W3C//DTD SVG 1.1//EN" "http://www.w3.org/Graphics/SVG/1.1/DTD/svg11.dtd">
<svg version="1.1" id="Layer_1" xmlns="http://www.w3.org/2000/svg" xmlns:xlink="http://www.w3.org/1999/xlink" x="0px" y="0px"
	 viewBox="0 0 270.8 163.3" enable-background="new 0 0 270.8 163.3" xml:space="preserve">
<g>
	<g>
		<g>
			
				<polyline fill="none" stroke="#F27327" stroke-width="2" stroke-linecap="round" stroke-linejoin="round" stroke-miterlimit="10" points="
				90.5,124.7 82.9,119.5 50,119.5 			"/>
		</g>
		<path fill="none" stroke="#3BC5F3" stroke-width="2" stroke-linecap="round" stroke-linejoin="round" stroke-miterlimit="10" d="
			M169.8,95.8c-2.8,4.5-7.6,7-12.3,8.2"/>
		<g>
			
				<polyline fill="none" stroke="#3BC5F3" stroke-width="2" stroke-linecap="round" stroke-linejoin="round" stroke-miterlimit="10" points="
				186.1,123.5 192,119.5 258,119.5 			"/>
			
				<line fill="none" stroke="#3BC5F3" stroke-width="2" stroke-linecap="round" stroke-linejoin="round" stroke-miterlimit="10" x1="130.9" y1="161.2" x2="137.4" y2="156.8"/>
		</g>
		<g>
			<path fill="none" stroke="#F27327" stroke-width="2" stroke-linecap="round" stroke-linejoin="round" stroke-miterlimit="10" d="
				M181.6,137.3c2.4,2.9,2.1,7.2-0.8,9.7"/>
			<path fill="none" stroke="#F27327" stroke-width="2" stroke-linecap="round" stroke-linejoin="round" stroke-miterlimit="10" d="
				M151.5,149.8c0.5,0.3,0.9,0.7,1.3,1.2c2.4,2.9,2.1,7.2-0.8,9.7c-2.4,2-5.7,2.1-8.2,0.5l-9.8-6.7"/>
			<path fill="none" stroke="#F27327" stroke-width="2" stroke-linecap="round" stroke-linejoin="round" stroke-miterlimit="10" d="
				M169,145c0.6,0.4,1.1,0.8,1.5,1.4c2.4,2.9,2.1,7.2-0.8,9.7c-2.3,1.9-5.5,2.1-8,0.6l-33.9-23.1"/>
			<path fill="none" stroke="#F27327" stroke-width="2" stroke-linecap="round" stroke-linejoin="round" stroke-miterlimit="10" d="
				M137.2,123.4l35.4,24.1c2.5,1.6,5.8,1.5,8.2-0.5c2.9-2.4,3.3-6.8,0.8-9.7c-0.4-0.5-0.9-1-1.5-1.3l-10.8-7.4"/>
			<path fill="none" stroke="#F27327" stroke-width="2" stroke-linecap="round" stroke-linejoin="round" stroke-miterlimit="10" d="
				M127.9,84.1l57.3,38.7c0.5,0.4,1,0.8,1.5,1.3c2.4,2.9,2.1,7.2-0.8,9.7c-2.4,2-5.7,2.1-8.2,0.5l-29.5-20"/>
		</g>
		<g>
			<path fill="none" stroke="#3BC5F3" stroke-width="2" stroke-linecap="round" stroke-linejoin="round" stroke-miterlimit="10" d="
				M124.2,143.5l-3.7,9.9c-0.8,2.6,0,5.4,2.1,7.3c2.4,2,5.7,2.1,8.2,0.5l5.7-11.6c1.3-2.7,0.7-5.9-1.6-8c-2.8-2.5-7.1-2.3-9.7,0.5
				C124.8,142.5,124.5,143,124.2,143.5"/>
			<path fill="none" stroke="#3BC5F3" stroke-width="2" stroke-linecap="round" stroke-linejoin="round" stroke-miterlimit="10" d="
				M116.4,125.1l-6.5,21.5c-0.8,2.6,0,5.4,2.1,7.3c2.4,2,5.7,2.1,8.2,0.5l8.5-23.2c1.3-2.7,0.7-5.9-1.6-8c-2.8-2.5-7.1-2.3-9.7,0.5
				C117.1,124.1,116.7,124.6,116.4,125.1"/>
			<path fill="none" stroke="#3BC5F3" stroke-width="2" stroke-linecap="round" stroke-linejoin="round" stroke-miterlimit="10" d="
				M92.5,113.5l-3.1,17.4c-0.8,2.6,0,5.4,2.1,7.3c2.4,2,5.7,2.1,8.2,0.5l5.1-19.1c1.3-2.7,0.7-5.9-1.6-8c-2.8-2.5-7.1-2.3-9.7,0.5
				C93.1,112.4,92.8,112.9,92.5,113.5"/>
			<path fill="none" stroke="#3BC5F3" stroke-width="2" stroke-linecap="round" stroke-linejoin="round" stroke-miterlimit="10" d="
				M105,116.3l-5.7,23.8c-0.8,2.6,0,5.4,2.1,7.3c2.4,2,5.7,2.1,8.2,0.5l7.7-25.5c1.3-2.7,0.7-5.9-1.6-8c-2.8-2.5-7.1-2.3-9.7,0.5
				C105.6,115.2,105.3,115.7,105,116.3"/>
		</g>
		<g>
			
				<polyline fill="none" stroke="#F27327" stroke-width="2" stroke-linecap="round" stroke-linejoin="round" stroke-miterlimit="10" points="
				118.6,67.2 93.9,70.4 61.3,70.4 			"/>
			<path fill="none" stroke="#F27327" stroke-width="2" stroke-linecap="round" stroke-linejoin="round" stroke-miterlimit="10" d="
				M155.8,67.1c-2.2-2.6-5.6-4-9.2-3.6l-10,1.1"/>
		</g>
		<g>
			<path fill="none" stroke="#3BC5F3" stroke-width="2" stroke-linecap="round" stroke-linejoin="round" stroke-miterlimit="10" d="
				M119.7,91c0.2,0.6,0.4,1.2,0.5,1.8l0.2,5.8c-0.1,2.7-1.8,5.3-4.6,6.3c-3,1.1-6.2,0.1-8-2.3l-1.5-13.1c-0.2-1.5,0.2-3,1-4.3
				l11-16.9l0,0c2.2-3.2,5.9-5.1,10-4.6l52.6,6.9h88.9"/>
			
				<line fill="none" stroke="#3BC5F3" stroke-width="2" stroke-linecap="round" stroke-linejoin="round" stroke-miterlimit="10" x1="119.7" y1="91" x2="129.8" y2="82.4"/>
		</g>
	</g>
	
		<polygon fill="none" stroke="#F27327" stroke-width="2" stroke-linecap="round" stroke-linejoin="round" stroke-miterlimit="10" points="
		31.6,121.9 49.4,121.9 61.3,68 43.4,68 	"/>
	
		<polyline fill="none" stroke="#F27327" stroke-width="2" stroke-linecap="round" stroke-linejoin="round" stroke-miterlimit="10" points="
		12.8,124.3 31.1,124.3 43.8,66.8 1,66.8 	"/>
	
		<circle fill="none" stroke="#F27327" stroke-width="2" stroke-linecap="round" stroke-linejoin="round" stroke-miterlimit="10" cx="42.2" cy="115" r="1.6"/>
</g>
<g>
	<g>
		<path fill="#F27227" d="M46.2,0.8h6l3.4,9.6L59,0.8h5.5l-6.4,15.7c-1.2,3-2.2,4.7-3.6,5.8c-1,0.7-2.3,1.1-3.8,1.1
			c-1.3,0-2.3-0.3-3-0.7V18H48c0.3,0.4,1,0.7,2,0.7c1.5,0,2.2-0.5,2.6-1.7L46.2,0.8z"/>
		<path fill="#F27227" d="M65.2,9.3c0-5.6,3.7-8.9,8.9-8.9s8.8,3.6,8.8,8.7c0,5.6-3.7,8.8-8.9,8.8C68.9,17.9,65.2,14.7,65.2,9.3z
			 M77.3,9.1c0-2.8-1.1-4.2-3.2-4.2c-2,0-3.2,1.3-3.2,4.2c0,2.8,1.1,4.4,3.2,4.4C76.2,13.5,77.3,11.8,77.3,9.1z"/>
		<path fill="#F27227" d="M85.8,12.2V0.8h5.6v9.4c0,1.7,0.6,2.8,2.3,2.8c2.1,0,3.3-1.1,3.3-4.6V0.8h5.6v16.5H97l0.1-2.9
			c-1.1,2-2.9,3.4-5.9,3.4C88,17.8,85.8,16.2,85.8,12.2z"/>
	</g>
	<g>
		<path fill="#49296E" d="M145.7,18.1h-5.5v-5.9h-6.3V6.6h6.3V0.7h5.5v5.9h6.3v5.7h-6.3V18.1z"/>
	</g>
	<g>
		<path fill="#40C4F2" d="M182.1,11.8V0.4h5.6v9.4c0,1.7,0.6,2.8,2.3,2.8c2.1,0,3.3-1.1,3.3-4.6V0.4h5.6V17h-5.6l0.1-2.9
			c-1.1,2-2.9,3.4-5.9,3.4C184.3,17.4,182.1,15.8,182.1,11.8z"/>
		<path fill="#40C4F2" d="M201.3,14.5l2.9-3.3c1.3,1.1,2.7,2,5.8,2c2.1,0,2.6-0.4,2.6-1.1c0-0.9-0.6-0.8-3.7-1.1
			c-4.1-0.5-6.9-1.5-6.9-5.5c0-3.9,3.5-5.4,7.8-5.4c3.6,0,6.3,0.9,7.6,1.8l-2.6,3.7c-1-0.7-2.5-1.3-5.2-1.3c-2.2,0-2.5,0.5-2.5,1
			c0,0.6,0.5,0.9,3.1,1.1c3.7,0.3,7.9,1.1,7.9,5.5c0,4-3,5.7-7.9,5.7C206.2,17.4,203.3,16.4,201.3,14.5z"/>
	</g>
</g>
</svg>
