<?xml version="1.0" encoding="UTF-8"?>
<svg width="113px" height="99px" viewBox="0 0 113 99" version="1.1" xmlns="http://www.w3.org/2000/svg" xmlns:xlink="http://www.w3.org/1999/xlink">
    <!-- Generator: Sketch 46.2 (44496) - http://www.bohemiancoding.com/sketch -->
    <title>Icon_Experimentation</title>
    <desc>Created with Sketch.</desc>
    <defs>
        <path d="M92.8263586,50.6333333 L92.8263586,90.50943 C93.159263,93.574606 95.1224326,95.107194 98.7158674,95.107194 C102.309302,95.107194 104.10602,93.574606 104.10602,90.50943 L104.10602,50.6333333 L92.8263586,50.6333333 Z" id="path-1"></path>
        <rect id="path-2" x="89" y="47" width="19" height="3" rx="1.5"></rect>
        <rect id="path-3" x="0" y="-1.27897692e-13" width="32.0357143" height="32.0666667"></rect>
        <path d="M26,95 L45.3136661,95 C53.1537304,95 51.1594064,86.9362528 49.3933038,83.8527255 C47.6272011,80.7691983 42.8614085,75.8004016 37.4736018,67.466607 C32.0857951,59.1328125 32.0857951,50.0457376 32.0857951,50.0457376 L32.0857951,37.9088534 L36.9388849,34 L26,34 L15.0611151,34 L19.9142049,37.9088534 L19.9142049,50.0457376 C19.9142049,50.0457376 19.1972656,59.3061523 14.5263982,67.466607 C9.85553071,75.6270617 4.37279891,80.7691983 2.60669624,83.8527255 C0.840593567,86.9362528 -1.15373039,95 6.68633393,95 L26,95 Z" id="path-5"></path>
        <rect id="path-6" x="0" y="0" width="14" height="77"></rect>
    </defs>
    <g id="CH.me-Design" stroke="none" stroke-width="1" fill="none" fill-rule="evenodd">
        <g id="CH.me-Homepage" transform="translate(-810.000000, -1416.000000)">
            <g id="Group-30" transform="translate(0.000000, 900.000000)">
                <g id="Icon_Experimentation" transform="translate(810.000000, 517.000000)">
                    <g id="Path-11" stroke-linejoin="round">
                        <use fill="#FFFFFF" fill-rule="evenodd" xlink:href="#path-1"></use>
                        <path stroke="#BCBDBF" stroke-width="2" d="M91.8263586,49.6333333 L105.10602,49.6333333 L105.10602,90.50943 C105.10602,94.1652885 102.829442,96.107194 98.7158674,96.107194 C94.6388661,96.107194 92.2236643,94.2217179 91.8322049,90.6174036 L91.8263586,90.50943 L91.8263586,49.6333333 Z"></path>
                    </g>
                    <g id="Rectangle-6" stroke-linejoin="round">
                        <use fill="#FFFFFF" fill-rule="evenodd" xlink:href="#path-2"></use>
                        <rect stroke="#BCBDBF" stroke-width="2" x="88" y="46" width="21" height="5" rx="2.5"></rect>
                    </g>
                    <path d="M96.8789062,44.6777344 L96.8789062,39.4490592 C88.421224,38.7388791 84.156901,35.1871745 84.0859375,28.7939453 C90.0559896,27.4873047 94.3203125,29.6083984 96.8789062,35.1572266 L97.8808594,26.046875 L99.3027344,32.7636719 C100.240234,25.5032552 104.418294,21.749349 111.836914,21.5019531 C112.115234,33.1927232 106.852539,33.2589487 100.708984,35.1572266 C100.708984,35.1572266 100.708984,38.3993155 100.708984,44.8834933" id="Path-38" stroke="#8FF0FF" stroke-width="2"></path>
                    <g id="Group-6" transform="translate(26.000000, 0.000000)">
                        <g id="Group-5" transform="translate(9.000000, 21.498020)">
                            <g id="Group-34" transform="translate(0.482143, 0.000000)">
                                <mask id="mask-4" fill="white">
                                    <use xlink:href="#path-3"></use>
                                </mask>
                                <g id="Rectangle-13"></g>
                            </g>
                        </g>
                        <ellipse id="Oval" stroke="#9AEFFF" stroke-width="2" cx="29.2442494" cy="23.3621753" rx="4.63983051" ry="4.65326446"></ellipse>
                        <ellipse id="Oval" stroke="#9AEFFF" stroke-width="2" cx="19.5228511" cy="12.7479839" rx="3.10487288" ry="3.1146506"></ellipse>
                        <g id="Combined-Shape" stroke-linejoin="round">
                            <use fill="#FFFFFF" fill-rule="evenodd" xlink:href="#path-5"></use>
                            <path stroke="#BCBDBF" stroke-width="2" d="M18.9142049,38.387445 L12.2253496,33 L39.7746504,33 L33.0857951,38.387445 L33.0857951,50.0457376 C33.0857951,50.0943031 33.0876522,50.1994501 33.0934163,50.3573642 C33.1032773,50.627518 33.1211395,50.9428808 33.1490438,51.2996334 C33.2293337,52.3261307 33.3742306,53.4729103 33.5998948,54.709378 C34.2447898,58.2429097 35.4051624,61.7751073 37.2057219,65.063671 C37.5531605,65.698237 37.9221942,66.3185959 38.3133856,66.923686 C41.5446106,71.921706 49.6640016,82.3133013 50.261051,83.3557198 C51.4334162,85.402611 52.2053272,88.3380001 51.9499578,90.6905994 C51.5927371,93.9815065 49.3639259,96 45.3136661,96 L6.68633393,96 C2.63607412,96 0.407262873,93.9815065 0.0500422149,90.6905994 C-0.205327214,88.3380001 0.566583766,85.402611 1.73894899,83.3557198 C2.39323946,82.2133612 8.95433566,74.2266303 11.1341568,71.0092029 C12.0331792,69.6822411 12.8729398,68.342314 13.6585103,66.9698468 C14.1272544,66.1509059 14.5669189,65.2996853 14.9783117,64.4192843 C16.4548677,61.2593813 17.5120511,57.8637386 18.216502,54.4667122 C18.4631449,53.2773427 18.6478567,52.1738431 18.7794329,51.1853951 C18.8252487,50.8412103 18.8611157,50.5366082 18.8881451,50.2752277 C18.9040578,50.1213485 18.9133668,50.0179108 18.9142049,50.0457376 L18.9142049,38.387445 Z"></path>
                        </g>
                        <path d="M0.160714286,85.9 L18.6428571,85.9" id="Path-6" stroke="#AEB1B5" stroke-width="2"></path>
                        <path d="M30.4285714,66.4666667 L37.8214286,66.4666667" id="Path-6" stroke="#AEB1B5" stroke-width="2"></path>
                        <path d="M16.875,58.8333333 L34.125,58.8333333" id="Path-6" stroke="#AEB1B5" stroke-width="2"></path>
                        <path d="M15.1785714,78.033375 L37.7503587,78.033375 C37.7503587,78.033375 41.0535714,77.987516 41.0535714,80.9403012 C41.0535714,83.8930865 38.1455037,83.7558887 38.1455037,83.7558887 L33.6158407,83.7558887 C33.6158407,83.7558887 31.5954739,83.8989764 31.5954739,85.9464865 C31.5954739,87.9939966 33.5633214,87.8993216 33.5633214,87.8993216 L40.2604367,87.8993216" id="Path-6" stroke="#AEB1B5" stroke-width="2"></path>
                        <path d="M12.4821429,68.6333333 L21.1071429,68.6333333" id="Path-6" stroke="#AEB1B5" stroke-width="2"></path>
                        <g id="Group-7" transform="translate(27.196429, 0.000000)" stroke="#9AEFFF" stroke-width="2" stroke-linecap="round">
                            <path d="M4.62053571,1.86878221 L6.25414178,2.27373675e-13" id="Path-7"></path>
                            <path d="M0,7.15449649 L1.63360607,5.28571429" id="Path-7"></path>
                            <path d="M4.62053571,7.15449649 L6.25414178,5.28571429" id="Path-7" transform="translate(5.437339, 6.220105) rotate(90.000000) translate(-5.437339, -6.220105) "></path>
                            <path d="M-1.13020704e-13,1.13131726e-13 L1.63360607,1.86878221" id="Path-7"></path>
                        </g>
                    </g>
                    <g id="Group-10" transform="translate(0.000000, 20.000000)">
                        <g id="Rectangle-10">
                            <use fill="#FFFFFF" fill-rule="evenodd" xlink:href="#path-6"></use>
                            <rect stroke="#AEB1B5" stroke-width="2" x="1" y="1" width="12" height="75"></rect>
                        </g>
                        <rect id="Rectangle-20" stroke="#AEB1B5" stroke-width="2" x="3" y="7" width="1" height="1"></rect>
                        <rect id="Rectangle-20" stroke="#AEB1B5" stroke-width="2" x="3" y="32" width="1" height="1"></rect>
                        <rect id="Rectangle-20" stroke="#AEB1B5" stroke-width="2" x="3" y="20" width="1" height="1"></rect>
                        <rect id="Rectangle-20" stroke="#AEB1B5" stroke-width="2" x="3" y="45" width="1" height="1"></rect>
                        <rect id="Rectangle-20" stroke="#AEB1B5" stroke-width="2" x="3" y="57" width="1" height="1"></rect>
                        <rect id="Rectangle-20" stroke="#AEB1B5" stroke-width="2" x="3" y="69" width="1" height="1"></rect>
                        <rect id="Rectangle-20" stroke="#AEB1B5" stroke-width="2" x="3" y="13" width="3" height="1"></rect>
                        <rect id="Rectangle-20" stroke="#AEB1B5" stroke-width="2" x="3" y="38" width="3" height="1"></rect>
                        <rect id="Rectangle-20" stroke="#AEB1B5" stroke-width="2" x="3" y="26" width="3" height="1"></rect>
                        <rect id="Rectangle-20" stroke="#AEB1B5" stroke-width="2" x="3" y="51" width="3" height="1"></rect>
                        <rect id="Rectangle-20" stroke="#AEB1B5" stroke-width="2" x="3" y="63" width="3" height="1"></rect>
                    </g>
                    <g id="Group-18" transform="translate(9.937822, 58.274991) scale(-1, 1) translate(-9.937822, -58.274991) translate(2.437822, 19.274991)"></g>
                </g>
            </g>
        </g>
    </g>
</svg>