<svg xmlns="http://www.w3.org/2000/svg" viewBox="0 0 652.96 390.99"><title>map-update</title><g id="dcf88ef0-981f-4c6f-ae38-13bf756670aa" data-name="Layer 2"><g id="3c4f0dac-3ff2-4d9c-8b9c-565280f3d36d" data-name="Layer 1"><path d="M2.52,8.72C2.52,6.41,4.31,5.24,7,5.24c1.61,0,3.23.37,4,1.61a2.19,2.19,0,0,1,2.33-1.56V8.15h-.05a1.36,1.36,0,0,0-1.85,1.28C11,11.28,9.61,12.15,7,12.15a6.59,6.59,0,0,1-1.92-.25.65.65,0,0,0-.33.58c0,.54.37.64,2.78.68,3.11.06,5.27.39,5.27,3s-2.1,3.44-5.87,3.44-5.13-.66-5.13-2.43a1.92,1.92,0,0,1,1.67-1.8,1.8,1.8,0,0,1-1.34-1.89,2.33,2.33,0,0,1,1.81-2.16A3.06,3.06,0,0,1,2.52,8.72Zm2.2,7.71c0,.66.64,1,2.29,1,2.08,0,2.53-.18,2.53-.84s-.31-.72-2.7-.76A16.18,16.18,0,0,1,5,15.73,1,1,0,0,0,4.72,16.43Zm4-7.7c0-.86-.6-1.19-1.59-1.19s-1.57.39-1.57,1.19S6.16,9.9,7.13,9.9s1.55-.32,1.55-1.16Z" fill="#0094c7"/><path d="M14,10.67a5.1,5.1,0,0,1,5.4-5.42,5.1,5.1,0,0,1,5.37,4.82q0,.25,0,.49a5,5,0,0,1-5.39,5.37C16.24,15.92,14,14,14,10.67Zm7.35-.1C21.34,8.88,20.68,8,19.4,8s-2,.8-2,2.53.68,2.68,2,2.68S21.34,12.24,21.34,10.57Z" fill="#0094c7"/><path d="M31,7.92a3.34,3.34,0,0,0-2.8,1.24L26,7.43a6.91,6.91,0,0,1,5.37-2.14c2.16,0,4.45.49,4.45,3.25v3.79c0,.89.27,1.09.76,1.09a1,1,0,0,0,.51-.1h.08l-.66,2.22a4.39,4.39,0,0,1-1.36.23,2.39,2.39,0,0,1-2.46-1.34,4.15,4.15,0,0,1-3.44,1.5c-2,0-3.42-.87-3.42-2.88,0-2.9,2.92-3.46,6.75-3.67C32.57,8.27,32.38,7.92,31,7.92Zm1.67,3.51c-2.12,0-3.5.41-3.5,1.34a.81.81,0,0,0,.87.74l.13,0C31.19,13.43,32.65,12.73,32.65,11.43Z" fill="#0094c7"/><path d="M38.9.87h3.42v14.7H38.9Z" fill="#0094c7"/><path d="M43.88,14.07l1.79-2a4.74,4.74,0,0,0,3.52,1.19c1.3,0,1.59-.25,1.59-.68s-.39-.47-2.26-.68C46,11.61,44.34,11,44.34,8.54s2.1-3.29,4.74-3.29a8.59,8.59,0,0,1,4.61,1.07L52.13,8.58A5.23,5.23,0,0,0,49,7.76c-1.34,0-1.5.33-1.5.62s.29.54,1.87.66c2.27.18,4.78.64,4.78,3.34,0,2.41-1.83,3.46-4.8,3.46C46.81,15.86,45.08,15.24,43.88,14.07Z" fill="#0094c7"/><path d="M113.19,5.51h3.42V7a3.26,3.26,0,0,1,3.09-1.75c2.62,0,4.22,1.89,4.22,5.23s-1.48,5.37-4,5.37a3.53,3.53,0,0,1-3.29-1.63V19h-3.42V5.51Zm7.25,5c0-1.69-.62-2.49-1.92-2.49s-2,1-2,2.51.8,2.49,2,2.49,1.94-.84,1.94-2.53Z" fill="#8e6aae"/><path d="M125.77,5.51h3.42V6.73a2.66,2.66,0,0,1,2.27-1.4,2.36,2.36,0,0,1,1.69.54l-1.38,3.07h0a1.34,1.34,0,0,0-1.11-.47c-1,0-1.4.58-1.4,1.89v5.19h-3.42v-10Z" fill="#8e6aae"/><path d="M133.46,10.67a5.39,5.39,0,0,1,10.77-.12,5,5,0,0,1-5.39,5.37C135.68,15.92,133.46,14,133.46,10.67Zm7.35-.1c0-1.69-.66-2.55-1.94-2.55s-2,.8-2,2.53.68,2.68,2,2.68,1.9-1,1.9-2.66Z" fill="#8e6aae"/><path d="M149.38,14.09v1.48H146V.87h3.5v6a3.35,3.35,0,0,1,3-1.63c2.62,0,4.22,1.89,4.22,5.23s-1.48,5.37-4,5.37A3.55,3.55,0,0,1,149.38,14.09Zm3.87-3.6c0-1.69-.62-2.49-1.92-2.49s-2,1-2,2.51.8,2.49,2,2.49S153.25,12.18,153.25,10.49Z" fill="#8e6aae"/><path d="M158.67.87h3.42v14.7h-3.42Z" fill="#8e6aae"/><path d="M169.4,13.23A2.2,2.2,0,0,0,171.71,12l2.9.91a5.23,5.23,0,0,1-5.17,3c-3.15,0-5.44-1.92-5.44-5.25a5,5,0,0,1,5.39-5.42c2.51,0,5.64,1.44,5.25,6.12h-7.33A2,2,0,0,0,169.4,13.23Zm2-3.83a1.73,1.73,0,0,0-1.92-1.51h-.08a1.79,1.79,0,0,0-2.06,1.48v0h4.06Z" fill="#8e6aae"/><path d="M182.76,15.57V9.75c0-1.13-.43-1.61-1.26-1.61-1.15,0-1.61.72-1.61,2.43v5h-3.43V5.51h3.42V7.07a3.33,3.33,0,0,1,3-1.83c1.4,0,2.53.41,3,1.63a3.68,3.68,0,0,1,3.25-1.63c1.94,0,3.36.82,3.36,3.38v6.94h-3.42V9.75c0-1.13-.43-1.61-1.26-1.61-1.15,0-1.61.72-1.61,2.43v5Z" fill="#8e6aae"/><path d="M193.85,14.07l1.79-2a4.74,4.74,0,0,0,3.52,1.19c1.3,0,1.59-.25,1.59-.68s-.39-.47-2.26-.68c-2.51-.29-4.18-.93-4.18-3.36s2.1-3.29,4.74-3.29a8.59,8.59,0,0,1,4.61,1.07L202.1,8.58a5.23,5.23,0,0,0-3.17-.82c-1.34,0-1.5.33-1.5.62s.29.54,1.87.66c2.27.18,4.78.64,4.78,3.34,0,2.41-1.83,3.46-4.8,3.46A7.32,7.32,0,0,1,193.85,14.07Z" fill="#8e6aae"/><path d="M238.84.87h3.42V7.25a3.76,3.76,0,0,1,3.52-2c1.94,0,3.27,1,3.27,3.4v6.92h-3.42V9.83c0-1-.35-1.69-1.38-1.69-1.28,0-2,.68-2,2.82v4.61h-3.42V.87Z" fill="#44c2f1"/><path d="M250.26,5.51h3.67l2,5.81L258,5.51h3.43l-3.87,9.55c-.74,1.83-1.32,2.88-2.18,3.5a3.77,3.77,0,0,1-2.29.66,3.3,3.3,0,0,1-1.81-.45V16h.12a1.6,1.6,0,0,0,1.22.43,1.42,1.42,0,0,0,1.59-1Z" fill="#44c2f1"/><path d="M262.9,5.51h3.42V7a3.26,3.26,0,0,1,3.09-1.75c2.62,0,4.22,1.89,4.22,5.23s-1.48,5.37-4,5.37a3.53,3.53,0,0,1-3.29-1.63V19h-3.42V5.51Zm7.25,5c0-1.69-.62-2.49-1.92-2.49s-2,1-2,2.51.8,2.49,2,2.49,1.92-.84,1.92-2.53Z" fill="#44c2f1"/><path d="M274.79,10.67a5.39,5.39,0,0,1,10.77-.12,5,5,0,0,1-5.39,5.37C277,15.92,274.79,14,274.79,10.67Zm7.35-.1c0-1.69-.66-2.55-1.94-2.55s-2,.8-2,2.53.68,2.68,2,2.68S282.14,12.24,282.14,10.57Z" fill="#44c2f1"/><path d="M286.46,8.22V5.52h1.63V4.12a21.61,21.61,0,0,0,3.27-2.57h.1v4h2.06v2.7h-2.06v3.68a.69.69,0,0,0,.76.86,1.92,1.92,0,0,0,1-.21h0v2.85a6.4,6.4,0,0,1-2.24.39,2.93,2.93,0,0,1-2.31-.7,3.21,3.21,0,0,1-.62-2.22V8.22Z" fill="#44c2f1"/><path d="M295.26.87h3.42V7.25a3.76,3.76,0,0,1,3.52-2c1.94,0,3.27,1,3.27,3.4v6.92H302V9.83c0-1-.35-1.69-1.38-1.69-1.28,0-2,.68-2,2.82v4.61h-3.41Z" fill="#44c2f1"/><path d="M312.6,13.23A2.2,2.2,0,0,0,314.91,12l2.9.91a5.23,5.23,0,0,1-5.17,3c-3.15,0-5.44-1.92-5.44-5.25a5,5,0,0,1,5.39-5.42c2.51,0,5.64,1.44,5.25,6.12h-7.38a2,2,0,0,0,2.13,1.86Zm2-3.83a1.73,1.73,0,0,0-1.92-1.51h-.08a1.79,1.79,0,0,0-2.06,1.48v0h4.06Z" fill="#44c2f1"/><path d="M318.46,14.07l1.79-2a4.74,4.74,0,0,0,3.52,1.19c1.3,0,1.59-.25,1.59-.68s-.39-.47-2.26-.68c-2.51-.29-4.18-.93-4.18-3.36s2.1-3.29,4.75-3.29a8.58,8.58,0,0,1,4.61,1.07l-1.55,2.26a5.23,5.23,0,0,0-3.17-.82c-1.34,0-1.5.33-1.5.62s.29.54,1.87.66c2.28.18,4.78.64,4.78,3.34,0,2.41-1.83,3.46-4.8,3.46C321.36,15.86,319.63,15.24,318.46,14.07Z" fill="#44c2f1"/><path d="M335.1,13.23A2.2,2.2,0,0,0,337.46,12l2.9.91a5.23,5.23,0,0,1-5.17,3c-3.15,0-5.45-1.92-5.45-5.25a5,5,0,0,1,5.39-5.42c2.51,0,5.64,1.44,5.25,6.12H333A2,2,0,0,0,335.1,13.23Zm2-3.83a1.73,1.73,0,0,0-1.92-1.51h-.08A1.79,1.79,0,0,0,333,9.38v0h4.06Z" fill="#44c2f1"/><path d="M340.95,14.07l1.79-2a4.73,4.73,0,0,0,3.52,1.19c1.3,0,1.59-.25,1.59-.68s-.39-.47-2.25-.68c-2.51-.29-4.18-.93-4.18-3.36s2.1-3.29,4.74-3.29a8.59,8.59,0,0,1,4.61,1.07l-1.56,2.26A5.23,5.23,0,0,0,346,7.76c-1.34,0-1.5.33-1.5.62s.29.54,1.87.66c2.27.18,4.78.64,4.78,3.34,0,2.41-1.83,3.46-4.8,3.46A7.33,7.33,0,0,1,340.95,14.07Z" fill="#44c2f1"/><path d="M245.46,36l-.72,3.74h-1l1.75-9h1l-.26,1.2a2.37,2.37,0,0,1,2.07-1.36c1.28,0,2.15.94,2.15,2.63,0,2.51-1.29,4.09-3,4.09A1.89,1.89,0,0,1,245.46,36Zm1.84.46c1.4,0,2.1-1.57,2.1-3.26,0-1.14-.51-1.75-1.32-1.75-1.35,0-2.36,1.42-2.36,3.09C245.72,35.76,246.3,36.43,247.3,36.43Z" fill="#a7a9ac"/><path d="M253.57,30.71,253.28,32A2,2,0,0,1,255,30.55a1.26,1.26,0,0,1,.89.34l-.4.87a1,1,0,0,0-.73-.31c-.71,0-1.54.87-1.92,2.84l-.56,2.87h-1l1.26-6.45h1Z" fill="#a7a9ac"/><path d="M258.37,30.71l-1.26,6.45h-1l1.26-6.45Zm.66-3.3-.22,1.18H257.7l.22-1.16H259Z" fill="#a7a9ac"/><path d="M259.29,34.49c0-2,1.4-3.94,3.42-3.94a2.47,2.47,0,0,1,2.54,2.76c0,2-1.19,4-3.35,4a2.48,2.48,0,0,1-2.61-2.82Zm1,0c0,1.13.48,1.92,1.59,1.92,1.57,0,2.29-1.61,2.29-3.15,0-1.17-.51-1.88-1.54-1.88-1.49.05-2.32,1.61-2.32,3.15Z" fill="#a7a9ac"/><path d="M268.37,30.71,268.08,32a2,2,0,0,1,1.74-1.48,1.26,1.26,0,0,1,.89.34l-.4.87a1,1,0,0,0-.73-.31c-.71,0-1.54.87-1.92,2.84l-.56,2.87h-1l1.26-6.45h1Z" fill="#a7a9ac"/><path d="M273.16,30.71l-1.26,6.45h-1l1.26-6.45Zm.66-3.3-.22,1.18h-1.14l.26-1.16h1.1Z" fill="#a7a9ac"/><path d="M274.33,31.51l.16-.8h1l.36-1.87a3.85,3.85,0,0,0,1.13-.79h0l-.49,2.66h1.22l-.16.8H276.3l-.84,4.17a2,2,0,0,0,0,.35.34.34,0,0,0,.43.39,1.51,1.51,0,0,0,.66-.14h0l-.25.87a1.81,1.81,0,0,1-.71.14,1,1,0,0,1-1.18-1.1,2.81,2.81,0,0,1,0-.45l.83-4.22h-1Z" fill="#a7a9ac"/><path d="M280.26,30.71,279,37.16h-1l1.26-6.45Zm.66-3.3-.22,1.18h-1.11l.23-1.16h1.1Z" fill="#a7a9ac"/><path d="M282,31.55l.17-.84h4.51l-.23,1.06L282,36.29h3.69l-.17.87h-4.93l.17-.87,4.73-4.74H282Z" fill="#a7a9ac"/><path d="M288.06,34.58c0,1,.4,1.87,1.54,1.87a2,2,0,0,0,1.89-1.5l.84.34a2.81,2.81,0,0,1-2.73,2c-1.75,0-2.56-1.1-2.56-2.86,0-2.19,1.44-3.87,3.26-3.87,1.45,0,2.34.92,2.34,2.69a6.28,6.28,0,0,1,0,.83H288.1A3.4,3.4,0,0,0,288.06,34.58Zm3.61-1.26c0-1.18-.34-1.9-1.42-1.9a2.17,2.17,0,0,0-2,1.9h3.42Z" fill="#a7a9ac"/><path d="M298.66,31.81l.87-4.46h1l-1.9,9.8h-1l.25-1.17a2.42,2.42,0,0,1-2.08,1.29c-1.42,0-2.2-1-2.2-2.56,0-2.37,1.4-4.17,3.26-4.17A1.73,1.73,0,0,1,298.66,31.81Zm-1.88-.38c-1.27,0-2.16,1.45-2.16,3.35,0,1.07.48,1.66,1.32,1.66,1.32,0,2.4-1.26,2.4-3.22C298.33,32.06,297.83,31.43,296.78,31.43Z" fill="#a7a9ac"/><path d="M310.38,33.19c0,2.51-1.29,4.09-3,4.09a1.94,1.94,0,0,1-2-1.35l-.21,1.23h-1l1.9-9.8h1l-.88,4.52a2.36,2.36,0,0,1,2-1.32C309.52,30.56,310.38,31.5,310.38,33.19Zm-3.1,3.24c1.4,0,2.1-1.57,2.1-3.26,0-1.14-.51-1.75-1.32-1.75-1.35,0-2.36,1.42-2.36,3.09C305.7,35.76,306.28,36.43,307.28,36.43Z" fill="#a7a9ac"/><path d="M311.62,30.71h1l.76,5.17,2.71-5.17h1.07l-4.27,7.85a3.61,3.61,0,0,1-.7,1,1.43,1.43,0,0,1-1.07.44,1.33,1.33,0,0,1-.91-.34l.31-.79h0a.73.73,0,0,0,.62.27,1.33,1.33,0,0,0,1-1l.49-1Z" fill="#a7a9ac"/><path d="M325.91,31.81l.87-4.46h1l-1.9,9.8h-1l.25-1.17A2.42,2.42,0,0,1,323,37.27c-1.42,0-2.2-1-2.2-2.56,0-2.37,1.4-4.17,3.26-4.17A1.73,1.73,0,0,1,325.91,31.81ZM324,31.43c-1.27,0-2.16,1.45-2.16,3.35,0,1.07.48,1.66,1.32,1.66,1.32,0,2.4-1.26,2.4-3.22C325.58,32.06,325.08,31.43,324,31.43Z" fill="#a7a9ac"/><path d="M333,30.71h1l-1,5.08c-.08.39,0,.63.34.63a1.53,1.53,0,0,0,.51-.1h0l-.25.85a1.5,1.5,0,0,1-.61.13A1,1,0,0,1,332,36a2.21,2.21,0,0,1-2,1.24c-1.28,0-2.09-1-2.09-2.51,0-2.27,1.26-4.22,3.26-4.22a1.65,1.65,0,0,1,1.63,1.17Zm-1.86.73c-1.31,0-2.18,1.48-2.18,3.38,0,1,.42,1.63,1.23,1.63,1.26,0,2.26-1.34,2.26-3.45a1.37,1.37,0,0,0-1.15-1.56h-.16Z" fill="#a7a9ac"/><path d="M335.21,31.51l.15-.8h1l.36-1.87a3.87,3.87,0,0,0,1.13-.79h0l-.52,2.66h1.22l-.16.8h-1.18l-.82,4.17a2.09,2.09,0,0,0,0,.35.34.34,0,0,0,.43.39,1.5,1.5,0,0,0,.66-.14h0l-.25.87a1.81,1.81,0,0,1-.71.14,1,1,0,0,1-1.18-1.1,2.94,2.94,0,0,1,0-.45l.83-4.22h-1Z" fill="#a7a9ac"/><path d="M343.94,30.71h1l-1,5.08c-.08.39,0,.63.34.63a1.53,1.53,0,0,0,.51-.1h0l-.25.85a1.5,1.5,0,0,1-.61.13,1,1,0,0,1-1-1.26,2.21,2.21,0,0,1-2,1.24c-1.28,0-2.09-1-2.09-2.51,0-2.27,1.26-4.22,3.26-4.22a1.65,1.65,0,0,1,1.63,1.17Zm-1.86.73c-1.31,0-2.18,1.48-2.18,3.38,0,1,.42,1.63,1.23,1.63,1.24,0,2.28-1.33,2.28-3.44a1.37,1.37,0,0,0-1.14-1.56l-.19,0Z" fill="#a7a9ac"/><path d="M386.54,30.71l.67,5.34,2.67-5.34h1.06l-3.38,6.45h-1.1l-1-6.45h1.08Z" fill="#a7a9ac"/><path d="M396.14,30.71h1l-1,5.08c-.08.39,0,.63.34.63a1.53,1.53,0,0,0,.51-.1h0l-.25.85a1.5,1.5,0,0,1-.61.13,1,1,0,0,1-1-1.26,2.21,2.21,0,0,1-2,1.24c-1.28,0-2.09-1-2.09-2.51,0-2.27,1.26-4.22,3.26-4.22a1.65,1.65,0,0,1,1.63,1.17Zm-1.86.73c-1.31,0-2.18,1.48-2.18,3.38,0,1,.42,1.63,1.23,1.63,1.24,0,2.28-1.33,2.28-3.44a1.37,1.37,0,0,0-1.14-1.56l-.19,0Z" fill="#a7a9ac"/><path d="M401,27.36l-1.9,9.8h-1l1.9-9.8h1Z" fill="#a7a9ac"/><path d="M403.58,30.71l-1.26,6.45h-1l1.25-6.45h1Zm.66-3.3L404,28.59h-1.11l.23-1.16h1.1Z" fill="#a7a9ac"/><path d="M409.58,31.81l.88-4.45h1l-1.9,9.8h-1l.25-1.17a2.42,2.42,0,0,1-2.09,1.29c-1.43,0-2.2-1-2.2-2.56,0-2.37,1.4-4.17,3.26-4.17A1.73,1.73,0,0,1,409.58,31.81Zm-1.88-.38c-1.27,0-2.16,1.45-2.16,3.35,0,1.07.48,1.66,1.32,1.66,1.32,0,2.4-1.26,2.4-3.22C409.26,32.06,408.75,31.43,407.7,31.43Z" fill="#a7a9ac"/><path d="M416.68,30.71h1l-1,5.08c-.08.39,0,.63.34.63a1.53,1.53,0,0,0,.51-.1h0l-.25.85a1.5,1.5,0,0,1-.61.13,1,1,0,0,1-1-1.26,2.21,2.21,0,0,1-2,1.24c-1.28,0-2.09-1-2.09-2.51,0-2.27,1.26-4.22,3.26-4.22a1.65,1.65,0,0,1,1.62,1.17Zm-1.86.73c-1.31,0-2.18,1.48-2.18,3.38,0,1,.42,1.63,1.23,1.63,1.24,0,2.28-1.33,2.28-3.44A1.37,1.37,0,0,0,415,31.45l-.2,0Z" fill="#a7a9ac"/><path d="M418.88,31.51l.15-.8h1l.36-1.87a3.87,3.87,0,0,0,1.13-.79h0L421,30.71h1.22l-.16.8h-1.22L420,35.68a2.09,2.09,0,0,0,0,.35.34.34,0,0,0,.43.39,1.5,1.5,0,0,0,.66-.14h0l-.25.87a1.81,1.81,0,0,1-.71.14,1,1,0,0,1-1.18-1.1,2.94,2.94,0,0,1,0-.45l.83-4.22h-.92Z" fill="#a7a9ac"/><path d="M423.56,34.58c0,1,.4,1.87,1.54,1.87A2,2,0,0,0,427,35l.84.34a2.82,2.82,0,0,1-2.73,2c-1.75,0-2.56-1.1-2.56-2.86,0-2.19,1.44-3.87,3.26-3.87,1.45,0,2.34.92,2.34,2.69a6.12,6.12,0,0,1,0,.83H423.6A3.14,3.14,0,0,0,423.56,34.58Zm3.61-1.26c0-1.18-.34-1.9-1.42-1.9a2.17,2.17,0,0,0-2,1.9h3.42Z" fill="#a7a9ac"/><path d="M434.16,31.81l.87-4.46h1l-1.9,9.8h-1l.25-1.17a2.42,2.42,0,0,1-2.09,1.29c-1.42,0-2.2-1-2.2-2.56,0-2.37,1.4-4.17,3.26-4.17A1.73,1.73,0,0,1,434.16,31.81Zm-1.88-.38c-1.27,0-2.16,1.45-2.16,3.35,0,1.07.48,1.66,1.32,1.66,1.32,0,2.4-1.26,2.4-3.22C433.83,32.06,433.33,31.43,432.28,31.43Z" fill="#a7a9ac"/><path d="M445.88,33.19c0,2.51-1.29,4.09-3,4.09a1.94,1.94,0,0,1-2-1.35l-.21,1.23h-1l1.9-9.8h1l-.88,4.52a2.37,2.37,0,0,1,2-1.32C445,30.56,445.88,31.5,445.88,33.19Zm-3.11,3.24c1.4,0,2.1-1.57,2.1-3.26,0-1.14-.51-1.75-1.32-1.75-1.35,0-2.36,1.42-2.36,3.09C441.19,35.76,441.78,36.43,442.77,36.43Z" fill="#a7a9ac"/><path d="M447.1,30.71h1l.76,5.17,2.71-5.17h1.07l-4.27,7.85a3.57,3.57,0,0,1-.7,1,1.43,1.43,0,0,1-1.07.44,1.33,1.33,0,0,1-.91-.34l.31-.79h0a.72.72,0,0,0,.62.27,1.33,1.33,0,0,0,1-1l.49-1Z" fill="#a7a9ac"/><path d="M461.39,31.81l.87-4.46h1l-1.9,9.8h-1l.25-1.17a2.42,2.42,0,0,1-2.09,1.29c-1.42,0-2.2-1-2.2-2.56,0-2.37,1.4-4.17,3.26-4.17A1.73,1.73,0,0,1,461.39,31.81Zm-1.87-.38c-1.27,0-2.16,1.45-2.16,3.35,0,1.07.48,1.66,1.32,1.66,1.32,0,2.4-1.26,2.4-3.22C461.07,32.06,460.56,31.43,459.52,31.43Z" fill="#a7a9ac"/><path d="M468.46,30.71h1l-1,5.08c-.08.39,0,.63.34.63a1.53,1.53,0,0,0,.51-.1h0l-.25.85a1.5,1.5,0,0,1-.61.13,1,1,0,0,1-1-1.26,2.21,2.21,0,0,1-2,1.24c-1.28,0-2.09-1-2.09-2.51,0-2.27,1.26-4.22,3.26-4.22a1.65,1.65,0,0,1,1.63,1.17Zm-1.86.73c-1.31,0-2.18,1.48-2.18,3.38,0,1,.42,1.63,1.23,1.63,1.24,0,2.28-1.33,2.28-3.44a1.37,1.37,0,0,0-1.14-1.56l-.16,0Z" fill="#a7a9ac"/><path d="M470.7,31.51l.15-.8h1l.36-1.87a3.87,3.87,0,0,0,1.13-.79h0l-.52,2.66H474l-.16.8h-1.22l-.82,4.17a2.09,2.09,0,0,0,0,.35.34.34,0,0,0,.43.39,1.5,1.5,0,0,0,.66-.14h0l-.25.87a1.81,1.81,0,0,1-.71.14,1,1,0,0,1-1.18-1.1,2.94,2.94,0,0,1,0-.45l.83-4.22h-.92Z" fill="#a7a9ac"/><path d="M479.46,30.71h1l-1,5.08c-.08.39,0,.63.34.63a1.53,1.53,0,0,0,.51-.1h0l-.25.85a1.5,1.5,0,0,1-.61.13,1,1,0,0,1-1-1.26,2.21,2.21,0,0,1-2,1.24c-1.28,0-2.09-1-2.09-2.51,0-2.27,1.26-4.22,3.26-4.22a1.65,1.65,0,0,1,1.63,1.17Zm-1.9.72c-1.31,0-2.18,1.48-2.18,3.38,0,1,.42,1.63,1.23,1.63,1.24,0,2.28-1.33,2.28-3.44a1.37,1.37,0,0,0-1.16-1.56Z" fill="#a7a9ac"/><path d="M158.69,124.51a26,26,0,1,0-26-26,26,26,0,0,0,26,26" fill="#8e6aae"/><path d="M147.68,105.91h-3.81V91.21h7.89c3.81,0,5.31,1.94,5.31,4.8,0,2.57-1.48,4.47-4.9,4.47h-4.49v5.42Zm3.85-8.48c1.46,0,1.85-.56,1.85-1.59s-.41-1.5-1.83-1.5h-3.87v3.09h3.85Z" fill="#fff"/><path d="M157.94,103.43l2.51-2.24a6.3,6.3,0,0,0,5,2c2.08,0,2.9-.43,2.9-1.38s-.76-1.23-3.42-1.59c-2.9-.41-6.42-1-6.42-4.71,0-3.15,2.53-4.61,6.34-4.61,3.3,0,5.29.89,6.82,2.53l-2.35,2.24A5.26,5.26,0,0,0,165,93.86c-2,0-2.82.39-2.82,1.32s.8,1.21,3.6,1.54c3,.37,6.34,1.17,6.34,4.72,0,3.21-2.08,4.78-6.59,4.78C161.79,106.26,159.54,105.15,157.94,103.43Z" fill="#fff"/><path d="M26,124.51a26,26,0,1,0-26-26H0a26,26,0,0,0,26,26" fill="#0094c7"/><path d="M23.68,95.82a4.86,4.86,0,0,1-2.43.6V93.87A3,3,0,0,0,24,91.21h3.54v14.7H23.68Z" fill="#fff"/><path d="M293.66,124.51a26,26,0,1,0-26-26,26,26,0,0,0,26,26" fill="#44c2f1"/><path d="M291.08,93.95a5.92,5.92,0,0,1-3,.74V91.58c1.62-.33,3-.88,3.42-3.26h4.32v18H291V93.95Z" fill="#fff"/><path d="M431,124.51a26,26,0,1,0-26-26,26,26,0,0,0,26,26" fill="#52b648"/><path d="M428.46,93.95a5.92,5.92,0,0,1-3,.74V91.58c1.62-.33,3-.88,3.42-3.26h4.32v18h-4.74Z" fill="#fff"/><path d="M158.69,212.74a26,26,0,1,0-26-26,26,26,0,0,0,26,26" fill="#8e6aae"/><path d="M149.76,194.15H146V179.43h7.89c3.81,0,5.31,1.94,5.31,4.8,0,2.57-1.48,4.47-4.9,4.47h-4.49v5.45Zm3.85-8.48c1.46,0,1.85-.56,1.85-1.59s-.41-1.5-1.83-1.5h-3.87v3.09Z" fill="#fff"/><path d="M159.92,192.65l1.79-2a4.74,4.74,0,0,0,3.52,1.19c1.3,0,1.59-.25,1.59-.68s-.39-.47-2.26-.68c-2.51-.29-4.18-.93-4.18-3.36s2.1-3.29,4.74-3.29a8.59,8.59,0,0,1,4.61,1.07l-1.56,2.26a5.23,5.23,0,0,0-3.17-.82c-1.34,0-1.5.33-1.5.62s.29.54,1.87.66c2.27.18,4.78.64,4.78,3.34,0,2.41-1.83,3.46-4.8,3.46C162.86,194.43,161.13,193.82,159.92,192.65Z" fill="#fff"/><path d="M26,262.79a26,26,0,1,0-26-26H0a26,26,0,0,0,26,26" fill="#0094c7"/><path d="M22.46,237.71c2.33-1.38,4.8-2.06,4.8-3.71,0-1.3-1-1.75-2.37-1.75a3.4,3.4,0,0,0-3.38,2.7l-3.32-1.4c1.11-2.88,3.29-4.33,6.71-4.33,4.32,0,6.38,1.81,6.38,4.68s-2.41,4.16-4.67,5.19c-1.75.8-2.53,1.28-2.84,2h7.41v3.09H18.26C18.4,240.73,20.32,239,22.46,237.71Z" fill="#fff"/><path d="M293.66,212.74a26,26,0,1,0-26-26,26,26,0,0,0,26,26" fill="#44c2f1"/><path d="M289.57,186.61c2.85-1.69,5.87-2.52,5.87-4.54,0-1.59-1.19-2.14-2.9-2.14a4.16,4.16,0,0,0-4.13,3.3l-4.06-1.71c1.35-3.52,4-5.3,8.2-5.3,5.27,0,7.79,2.21,7.79,5.73s-3,5.08-5.7,6.34c-2.14,1-3.09,1.57-3.47,2.45h9v3.78H284.46C284.63,190.3,287,188.13,289.57,186.61Z" fill="#fff"/><path d="M431,212.74a26,26,0,1,0-26-26,26,26,0,0,0,26,26" fill="#d34b01"/><path d="M426.92,186.61c2.85-1.69,5.87-2.52,5.87-4.54,0-1.59-1.19-2.14-2.9-2.14a4.16,4.16,0,0,0-4.13,3.3l-4.06-1.71c1.35-3.52,4-5.3,8.2-5.3,5.27,0,7.79,2.21,7.79,5.73s-2.94,5.08-5.7,6.34c-2.14,1-3.09,1.57-3.47,2.45h9v3.78H421.81C422,190.3,424.33,188.13,426.92,186.61Z" fill="#fff"/><path d="M158.69,300.21a26,26,0,1,0-26-26,26,26,0,0,0,26,26h0" fill="#8e6aae"/><path d="M144.89,271.56h3.42V273a3.26,3.26,0,0,1,3.09-1.75c2.62,0,4.22,1.89,4.22,5.23s-1.48,5.37-4,5.37a3.53,3.53,0,0,1-3.29-1.63v4.84h-3.42V271.56Zm7.25,5c0-1.69-.62-2.49-1.92-2.49s-2,1-2,2.51.8,2.49,2,2.49,1.92-.85,1.92-2.54Z" fill="#fff"/><path d="M156.53,279.12l2.51-2.24a6.3,6.3,0,0,0,5,2c2.08,0,2.9-.43,2.9-1.38s-.76-1.22-3.42-1.59c-2.9-.41-6.42-1-6.42-4.71,0-3.15,2.53-4.61,6.34-4.61,3.3,0,5.29.89,6.82,2.53l-2.37,2.31a5.26,5.26,0,0,0-4.33-1.81c-2,0-2.82.39-2.82,1.32s.8,1.2,3.6,1.54c3,.37,6.34,1.17,6.34,4.72,0,3.21-2.08,4.78-6.59,4.78C160.38,282,158.13,280.85,156.53,279.12Z" fill="#fff"/><path d="M26,391A26,26,0,1,0,0,365H0a26,26,0,0,0,26,26" fill="#0094c7"/><path d="M17.82,368.16l3.29-.91a3.2,3.2,0,0,0,3.5,2.49c1.65,0,2.76-.45,2.76-1.69,0-1.79-2.06-1.75-4.24-1.71v-2.91c2.26.06,4.18.06,4.18-1.54,0-1-1-1.55-2.51-1.55a3.3,3.3,0,0,0-3.48,2.09l-3.31-1c.89-2.41,3.09-4.1,6.9-4.1s6.24,1.69,6.24,4.28A3,3,0,0,1,29,364.55,3.45,3.45,0,0,1,31.46,368c0,3.15-2.39,4.78-6.82,4.78C21.34,372.74,18.63,371.25,17.82,368.16Z" fill="#fff"/><path d="M293.66,300.21a26,26,0,1,0-26-26,26,26,0,0,0,26,26h0" fill="#44c2f1"/><path d="M283.92,276.81l4-1.12q.78,3,4.28,3c2,0,3.37-.55,3.37-2.07,0-2.19-2.52-2.14-5.18-2.09V271c2.76.07,5.11.07,5.11-1.88,0-1.28-1.26-1.9-3.07-1.9-2.07,0-3.47.69-4.25,2.59l-4-1.16c1.09-3,3.78-5,8.43-5s7.63,2.07,7.63,5.23a3.69,3.69,0,0,1-2.59,3.59,4.22,4.22,0,0,1,3,4.06c0,3.85-2.92,5.85-8.34,5.85C288.22,282.43,284.92,280.58,283.92,276.81Z" fill="#fff"/><path d="M431,300.21a26,26,0,1,0-26-26,26,26,0,0,0,26,26h0" fill="#52b648"/><path d="M421.27,276.81l4-1.12q.78,3,4.28,3c2,0,3.37-.55,3.37-2.07,0-2.19-2.52-2.14-5.18-2.09V271c2.76.07,5.11.07,5.11-1.88,0-1.28-1.26-1.9-3.06-1.9-2.07,0-3.47.69-4.25,2.59l-4-1.16c1.09-3,3.78-5,8.43-5s7.63,2.07,7.63,5.23a3.7,3.7,0,0,1-2.59,3.59,4.22,4.22,0,0,1,3,4.06c0,3.85-2.92,5.85-8.34,5.85C425.57,282.43,422.26,280.58,421.27,276.81Z" fill="#fff"/><path d="M158.69,390.22a26,26,0,1,0-26-26,26,26,0,0,0,26,26h0" fill="#8e6aae"/><path d="M147,361.57h3.42v1.48a3.26,3.26,0,0,1,3.09-1.75c2.62,0,4.22,1.89,4.22,5.23s-1.48,5.37-4,5.37a3.53,3.53,0,0,1-3.29-1.63v4.84H147V361.57Zm7.25,5c0-1.69-.62-2.49-1.92-2.49s-2,1-2,2.51.8,2.49,2,2.49,1.92-.84,1.92-2.54Z" fill="#fff"/><path d="M158.52,370.12l1.79-2a4.74,4.74,0,0,0,3.52,1.19c1.3,0,1.59-.25,1.59-.68s-.39-.47-2.26-.68c-2.51-.29-4.18-.93-4.18-3.36s2.1-3.29,4.74-3.29a8.59,8.59,0,0,1,4.61,1.07l-1.56,2.25a5.25,5.25,0,0,0-3.17-.82c-1.34,0-1.5.33-1.5.62s.29.54,1.87.66c2.27.18,4.78.64,4.78,3.34,0,2.41-1.83,3.46-4.8,3.46A7.26,7.26,0,0,1,158.52,370.12Z" fill="#fff"/><path d="M293.66,390.22a26,26,0,1,0-26-26,26,26,0,0,0,26,26h0" fill="#44c2f1"/><path d="M301.19,364.43V368h-2.85v4h-4.77v-4h-9.91v-4a42.81,42.81,0,0,0,9.88-10h4.8v10.39Zm-7.51-4.8a23.48,23.48,0,0,1-4.8,4.8h4.8Z" fill="#fff"/><path d="M431,390.22a26,26,0,1,0-26-26,26,26,0,0,0,26,26h0" fill="#d34b01"/><path d="M438.54,364.43V368h-2.85v4h-4.78v-4H421v-4a42.79,42.79,0,0,0,9.88-10h4.8v10.39h2.86Zm-7.51-4.8a23.51,23.51,0,0,1-4.8,4.8H431Z" fill="#fff"/><rect x="514.4" y="78.64" width="138.56" height="38.87" fill="#52b648"/><path d="M569.84,98.8V91.12h3.38v7.49c0,2.07.6,2.88,2.87,2.88s2.85-.81,2.85-2.88V91.12h3.38V98.8c0,4-2.43,5.68-6.25,5.68C572,104.48,569.84,102.58,569.84,98.8Z" fill="#fff"/><path d="M584.17,91.12h4.11l2.93,3.78,2.85-3.78h3.68L593,97.18l5.42,7H594.3l-3.44-4.44-3.4,4.43h-3.68l5.3-6.68Z" fill="#fff"/><rect x="514.4" y="166.49" width="138.56" height="38.87" fill="#52b648"/><path d="M550.46,183.1h3v1.31a2.9,2.9,0,0,1,2.74-1.55c2.33,0,3.75,1.67,3.75,4.64s-1.31,4.77-3.54,4.77a3.14,3.14,0,0,1-2.92-1.45v4.3h-3v-12Zm6.44,4.42c0-1.5-.55-2.21-1.71-2.21s-1.74.92-1.74,2.23.71,2.21,1.74,2.21,1.68-.73,1.68-2.23Z" fill="#fff"/><path d="M561.61,183.1h3v1.09a2.36,2.36,0,0,1,2-1.24,2.1,2.1,0,0,1,1.5.48l-1.23,2.73h0a1.19,1.19,0,0,0-1-.42c-.86,0-1.24.52-1.24,1.68V192h-3V183.1Z" fill="#fff"/><path d="M568.46,187.67a4.79,4.79,0,1,1,4.84,4.74A4.79,4.79,0,0,1,568.46,187.67Zm6.53-.09c0-1.5-.59-2.26-1.73-2.26s-1.74.71-1.74,2.24.6,2.38,1.74,2.38,1.68-.87,1.68-2.35Z" fill="#fff"/><path d="M579.06,187.5c0-3,1.45-4.64,3.73-4.64a3,3,0,0,1,2.76,1.42V179h3V192h-3v-1.31a3,3,0,0,1-2.85,1.55C580.35,192.26,579.06,190.49,579.06,187.5Zm6.54,0c0-1.31-.64-2.23-1.79-2.23s-1.69.69-1.69,2.21.54,2.19,1.69,2.19a1.9,1.9,0,0,0,1.8-2s0-.1,0-.15Z" fill="#fff"/><path d="M590.73,189.24v-6.15h3v5.09c0,.9.31,1.5,1.23,1.5,1.14,0,1.76-.6,1.76-2.5v-4.09h3V192h-3v-1.57a3.42,3.42,0,0,1-3.16,1.81C591.91,192.26,590.73,191.43,590.73,189.24Z" fill="#fff"/><path d="M601.41,187.67a4.49,4.49,0,0,1,4.68-4.82,4.22,4.22,0,0,1,4.33,2.76L608,186.82a1.87,1.87,0,0,0-1.78-1.5c-1.11,0-1.71.71-1.71,2.24s.59,2.38,1.73,2.38a1.81,1.81,0,0,0,1.76-1.62l2.57,1.12a4.32,4.32,0,0,1-4.44,2.88,4.41,4.41,0,0,1-4.69-4.65Z" fill="#fff"/><path d="M611.28,185.5v-2.4h1.45v-1.24a19.24,19.24,0,0,0,2.9-2.28h.14v3.52h1.83v2.4h-1.83v3.3a.61.61,0,0,0,.67.76,1.69,1.69,0,0,0,.85-.19h0v2.56a5.68,5.68,0,0,1-2,.34,2.6,2.6,0,0,1-2-.62,2.85,2.85,0,0,1-.55-2v-4.18h-1.45Z" fill="#fff"/><rect x="514.4" y="254.34" width="138.56" height="38.87" fill="#52b648"/><path d="M532.08,277.28v-4.52c0-.88-.33-1.26-1-1.26-.89,0-1.26.56-1.26,1.89v3.89h-2.66v-7.85h2.66v1.21a2.59,2.59,0,0,1,2.33-1.42,2.26,2.26,0,0,1,2.36,1.27,2.87,2.87,0,0,1,2.53-1.27,2.31,2.31,0,0,1,2.62,2.63v5.4H537v-4.52c0-.88-.33-1.26-1-1.26-.89,0-1.25.56-1.25,1.89v3.89h-2.66Z" fill="#fff"/><path d="M545.18,275.43a1.71,1.71,0,0,0,1.8-1l2.25.71a4.07,4.07,0,0,1-4,2.33,4.15,4.15,0,0,1,0-8.3h0c2,0,4.38,1.12,4.08,4.76h-5.7A1.57,1.57,0,0,0,545.18,275.43Zm1.53-3a1.35,1.35,0,0,0-1.5-1.17h0a1.39,1.39,0,0,0-1.6,1.15v0h3.14Z" fill="#fff"/><path d="M550.67,269.43h2.66v1a2.07,2.07,0,0,1,1.77-1.09,1.84,1.84,0,0,1,1.32.42l-1.07,2.39h0a1,1,0,0,0-.86-.36c-.76,0-1.09.46-1.09,1.47v4h-2.66v-7.83Z" fill="#fff"/><path d="M556.62,273.43a3.93,3.93,0,0,1,3.62-4.21h.48a3.7,3.7,0,0,1,3.8,2.42l-2.15,1.06a1.64,1.64,0,0,0-1.56-1.32c-1,0-1.5.62-1.5,2s.51,2.09,1.51,2.09a1.58,1.58,0,0,0,1.54-1.42l2.25,1a3.78,3.78,0,0,1-3.89,2.53,3.86,3.86,0,0,1-4.1-4.14Z" fill="#fff"/><path d="M565.86,265.85h2.66v5a2.93,2.93,0,0,1,2.74-1.56,2.31,2.31,0,0,1,2.54,2.65v5.38h-2.66v-4.46a1.07,1.07,0,0,0-1.07-1.32c-1,0-1.54.53-1.54,2.19v3.59h-2.67Z" fill="#fff"/><path d="M579.11,271.34a2.6,2.6,0,0,0-2.18,1l-1.68-1.39a5.38,5.38,0,0,1,4.18-1.66c1.68,0,3.46.38,3.46,2.52v3c0,.7.21.85.59.85a.82.82,0,0,0,.39-.08h.06l-.47,1.64a3.43,3.43,0,0,1-1.06.18,1.86,1.86,0,0,1-1.91-1,3.23,3.23,0,0,1-2.68,1.16c-1.54,0-2.66-.68-2.66-2.24,0-2.25,2.27-2.69,5.25-2.86C580.35,271.61,580.19,271.34,579.11,271.34Zm1.3,2.69c-1.65,0-2.72.32-2.72,1a.63.63,0,0,0,.68.57h.09A1.85,1.85,0,0,0,580.41,274Z" fill="#fff"/><path d="M585.19,269.43h2.66v1.38a3,3,0,0,1,2.77-1.59,2.31,2.31,0,0,1,2.54,2.65v5.38h-2.7v-4.46a1.07,1.07,0,0,0-1.07-1.32c-1,0-1.54.53-1.54,2.19v3.59h-2.66v-7.82Z" fill="#fff"/><path d="M594.54,273.32c0-2.6,1.27-4.07,3.27-4.07a2.59,2.59,0,0,1,2.42,1.24v-4.64h2.66v11.43h-2.66v-1.15a2.59,2.59,0,0,1-2.5,1.36C595.67,277.49,594.54,275.94,594.54,273.32Zm5.73,0c0-1.15-.56-2-1.57-2s-1.48.61-1.48,1.94.47,1.92,1.48,1.92a1.66,1.66,0,0,0,1.58-1.74s0-.06,0-.09Z" fill="#fff"/><path d="M604.89,265.86h2.66v2.57h-2.66v-2.57Zm0,3.6h2.66v7.82h-2.66v-7.82Z" fill="#fff"/><path d="M608.76,276.12l1.39-1.54a3.68,3.68,0,0,0,2.74.92c1,0,1.24-.2,1.24-.53s-.3-.36-1.75-.53c-2-.23-3.25-.73-3.25-2.62s1.63-2.56,3.69-2.56a6.7,6.7,0,0,1,3.59.83l-1.21,1.75a4.08,4.08,0,0,0-2.47-.63c-1,0-1.16.26-1.16.49s.23.42,1.45.51c1.77.14,3.72.5,3.72,2.6,0,1.87-1.42,2.69-3.73,2.69A5.78,5.78,0,0,1,608.76,276.12Z" fill="#fff"/><path d="M618.13,265.86h2.66v2.57h-2.66v-2.57Zm0,3.6h2.66v7.82h-2.66v-7.82Z" fill="#fff"/><path d="M622.8,269.43h2.66v1.38a3,3,0,0,1,2.77-1.59,2.31,2.31,0,0,1,2.54,2.65v5.38h-2.66v-4.46a1.07,1.07,0,0,0-1.07-1.32c-1,0-1.54.53-1.54,2.19v3.59h-2.66v-7.82Z" fill="#fff"/><path d="M632.52,272c0-1.8,1.39-2.71,3.51-2.71a3.5,3.5,0,0,1,3.11,1.25,1.71,1.71,0,0,1,1.82-1.21v2.22h0a1.05,1.05,0,0,0-1.42,1c-.32,1.44-1.44,2.12-3.48,2.12a5.09,5.09,0,0,1-1.5-.2.5.5,0,0,0-.26.45c0,.42.29.5,2.16.53,2.42,0,4.1.3,4.1,2.36s-1.67,2.66-4.6,2.66-4-.51-4-1.89a1.5,1.5,0,0,1,1.25-1.39,1.4,1.4,0,0,1-1-1.47,1.81,1.81,0,0,1,1.41-1.68A2.38,2.38,0,0,1,632.52,272Zm1.71,6c0,.51.5.74,1.79.74,1.62,0,2-.13,2-.65s-.24-.56-2.1-.59a12.29,12.29,0,0,1-1.46,0A.8.8,0,0,0,634.23,278Zm3.09-6c0-.67-.47-.92-1.24-.92a1,1,0,1,0-.17,1.86l.17,0c.76,0,1.24-.25,1.24-.9Z" fill="#fff"/><rect x="514.4" y="345.56" width="138.56" height="38.87" fill="#52b648"/><path d="M545.35,371.09v-5.16c0-1-.38-1.43-1.12-1.43-1,0-1.43.64-1.43,2.16v4.44h-3v-8.93h3v1.38a3,3,0,0,1,2.66-1.62,2.58,2.58,0,0,1,2.69,1.45,3.27,3.27,0,0,1,2.88-1.45c1.73,0,3,.73,3,3v6.16h-3v-5.16c0-1-.38-1.43-1.12-1.43-1,0-1.43.64-1.43,2.16v4.44h-3.13Z" fill="#fff"/><path d="M560.05,364.3a3,3,0,0,0-2.49,1.13l-1.92-1.59a6.14,6.14,0,0,1,4.76-1.9c1.92,0,4,.43,4,2.89v3.37c0,.8.24,1,.67,1a1,1,0,0,0,.45-.09h.07l-.59,2a3.91,3.91,0,0,1-1.21.21,2.13,2.13,0,0,1-2.18-1.17,3.68,3.68,0,0,1-3.06,1.33c-1.76,0-3-.78-3-2.56,0-2.57,2.59-3.07,6-3.26C561.46,364.62,561.29,364.3,560.05,364.3Zm1.48,3.07c-1.88,0-3.11.36-3.11,1.19a.72.72,0,0,0,.78.66l.1,0a2.12,2.12,0,0,0,2.23-1.82Z" fill="#fff"/><path d="M567,362.16h3v1.09a2.36,2.36,0,0,1,2-1.24,2.1,2.1,0,0,1,1.5.49l-1.23,2.73h0a1.19,1.19,0,0,0-1-.41c-.86,0-1.24.52-1.24,1.67v4.61h-3v-8.93Z" fill="#fff"/><path d="M577.72,371.09h-3V358h3v7.25l2.68-3.13h3.35l-3.23,3.44,3.51,5.49h-3.44l-2.07-3.35-.8.85v2.5Z" fill="#fff"/><path d="M589,369a2,2,0,0,0,2-1.09l2.57.81a4.64,4.64,0,0,1-4.59,2.66c-2.8,0-4.84-1.71-4.84-4.66a4.48,4.48,0,0,1,4.78-4.82c2.23,0,5,1.28,4.66,5.44h-6.51A1.8,1.8,0,0,0,589,369Zm1.74-3.4a1.54,1.54,0,0,0-1.72-1.34h0a1.59,1.59,0,0,0-1.83,1.31v0Z" fill="#fff"/><path d="M594.46,364.56v-2.4h1.45v-1.24a19.32,19.32,0,0,0,2.9-2.28H599v3.52h1.83v2.4H599v3.3a.61.61,0,0,0,.67.76,1.7,1.7,0,0,0,.83-.19h0V371a5.7,5.7,0,0,1-2,.35,2.6,2.6,0,0,1-2-.62,2.86,2.86,0,0,1-.55-2v-4.18h-1.4Z" fill="#fff"/><path d="M602.46,358h3v2.9h-3Zm0,4.11h3v8.93h-3Z" fill="#fff"/><path d="M607.75,362.16h3v1.57a3.42,3.42,0,0,1,3.16-1.81c1.73,0,2.9.86,2.9,3v6.15h-3V366c0-.9-.31-1.5-1.23-1.5-1.14,0-1.76.61-1.76,2.51v4.09h-3v-8.93Z" fill="#fff"/><path d="M618.86,365c0-2,1.59-3.09,4-3.09,1.43,0,2.87.33,3.56,1.43a2,2,0,0,1,2.07-1.38v2.54h0a1.21,1.21,0,0,0-1.62,1.09c-.36,1.64-1.64,2.42-4,2.42a5.82,5.82,0,0,1-1.71-.23.57.57,0,0,0-.3.52c0,.48.33.57,2.47.6,2.76,0,4.68.35,4.68,2.7s-1.86,3.06-5.22,3.06-4.56-.59-4.56-2.16a1.71,1.71,0,0,1,1.43-1.59,1.6,1.6,0,0,1-1.19-1.67,2.06,2.06,0,0,1,1.6-1.92A2.72,2.72,0,0,1,618.86,365Zm2,6.85c0,.59.57.85,2,.85,1.85,0,2.25-.16,2.25-.74s-.28-.64-2.4-.67a14.07,14.07,0,0,1-1.6-.09.91.91,0,0,0-.3.66Zm3.52-6.84c0-.76-.54-1-1.42-1s-1.4.34-1.4,1,.54,1,1.4,1,1.37-.25,1.37-1Z" fill="#fff"/><rect x="6.6" y="279.09" width="164.67" height="1.62" transform="translate(-189.36 186.06) rotate(-53.74)" fill="#0094c7"/><rect x="90.81" y="220.87" width="1.62" height="134.85" transform="translate(-170.75 137.73) rotate(-42.52)" fill="#0094c7"/><rect x="180.28" y="274.1" width="77.74" height="1.62" fill="#8e6aae"/><rect x="219.63" y="79.77" width="1.62" height="114.2" transform="translate(-31.42 199.27) rotate(-45.75)" fill="#8e6aae"/><rect x="170.1" y="142.83" width="102.45" height="1.62" transform="translate(-40.96 172.39) rotate(-39.24)" fill="#8e6aae"/><rect x="45.78" y="96.83" width="77.74" height="1.62" fill="#0094c7"/><polygon points="123.22 101.39 126.95 97.66 123.22 93.93 123.22 101.39" fill="#0094c7"/><rect x="-36.06" y="233.34" width="240.6" height="1.62" transform="translate(-164.21 220.25) rotate(-67.01)" fill="#0094c7"/><polygon points="134.44 125.56 132.46 120.67 127.57 122.65 134.44 125.56" fill="#0094c7"/><polygon points="262.44 114.78 263.18 109.56 257.95 108.82 262.44 114.78" fill="#8e6aae"/><polygon points="258.8 179.26 264.04 178.62 263.4 173.38 258.8 179.26" fill="#8e6aae"/><rect x="316.95" y="97.55" width="77.74" height="1.62" fill="#44c2f1"/><polygon points="394.52 102.01 398.25 98.28 394.52 94.55 394.52 102.01" fill="#44c2f1"/><rect x="316.95" y="186.39" width="77.74" height="1.62" fill="#44c2f1"/><polygon points="394.52 190.85 398.25 187.12 394.52 183.38 394.52 190.85" fill="#44c2f1"/><rect x="316.95" y="273.69" width="77.74" height="1.62" fill="#44c2f1"/><polygon points="394.52 278.15 398.25 274.42 394.52 270.68 394.52 278.15" fill="#44c2f1"/><rect x="316.95" y="363.44" width="77.74" height="1.62" fill="#44c2f1"/><polygon points="394.52 367.89 398.25 364.16 394.52 360.43 394.52 367.89" fill="#44c2f1"/><polygon points="257.34 278.44 261.08 274.71 257.34 270.97 257.34 278.44" fill="#8e6aae"/><rect x="180.28" y="362.92" width="77.74" height="1.62" fill="#8e6aae"/><polygon points="257.34 367.89 261.08 364.16 257.34 360.43 257.34 367.89" fill="#8e6aae"/><polygon points="133.64 340.37 138.91 340.37 138.91 335.09 133.64 340.37" fill="#0094c7"/><polygon points="140.2 217.28 139.47 212.05 134.24 212.79 140.2 217.28" fill="#0094c7"/><rect x="40.28" y="204.12" width="91.38" height="1.62" transform="translate(-71.85 48.47) rotate(-22.49)" fill="#0094c7"/><polygon points="128.82 191.24 131.29 186.58 126.64 184.1 128.82 191.24" fill="#0094c7"/><rect x="86.61" y="87.22" width="1.62" height="98.78" transform="translate(-73.42 115.76) rotate(-50)" fill="#0094c7"/><polygon points="122.89 170.99 128.13 170.44 127.58 165.19 122.89 170.99" fill="#0094c7"/><polygon points="503.23 278.32 506.96 274.59 503.23 270.86 503.23 278.32" fill="#52b648"/><rect x="453.47" y="273.58" width="50.07" height="1.62" fill="#52b648"/><polygon points="502.98 176.16 508.09 176.49 508.36 170.12 502.98 176.16" fill="#52b648"/><rect x="476.24" y="90.26" width="1.62" height="94.41" transform="translate(18.73 328.3) rotate(-38.68)" fill="#52b648"/><path d="M373.46,11.32a2.42,2.42,0,0,0,.77,1.51,2.25,2.25,0,0,0,1.5.5,3.87,3.87,0,0,0,1.49-.26,2,2,0,0,0,1-1.06l3.13,1a5.17,5.17,0,0,1-2.2,2.42,6.87,6.87,0,0,1-3.4.8,7,7,0,0,1-2.35-.38,5.33,5.33,0,0,1-1.86-1.1A5,5,0,0,1,370.31,13a6.21,6.21,0,0,1-.44-2.4,6.8,6.8,0,0,1,.42-2.46,5,5,0,0,1,3-3,6.75,6.75,0,0,1,2.37-.4,7.14,7.14,0,0,1,2.08.33,5,5,0,0,1,1.92,1.09,5.25,5.25,0,0,1,1.34,2,7,7,0,0,1,.33,3.16h-7.87Zm4.39-2.12a1.87,1.87,0,0,0-.64-1.2,2.33,2.33,0,0,0-1.5-.42,2.82,2.82,0,0,0-1.45.34,1.86,1.86,0,0,0-.78,1.28h4.37Z" fill="#52b648"/><path d="M385.89,10.43l-4-5.4h4.43l2,2.81,2-2.81h3.91l-4,5.1,4.35,5.75H390.1l-2.25-3.19-2.33,3.19h-3.91Z" fill="#52b648"/><path d="M395.53,5h3.7V6.6a4.55,4.55,0,0,1,1.23-1.35,3.52,3.52,0,0,1,2.09-.55,4.09,4.09,0,0,1,3.34,1.46,6.43,6.43,0,0,1,1.2,4.19A7,7,0,0,1,406,14.62a3.71,3.71,0,0,1-3.16,1.52,4.64,4.64,0,0,1-2.14-.44,3.54,3.54,0,0,1-1.4-1.32v5.23h-3.7V5Zm5.75,8.09q2.08,0,2.08-2.71t-2.08-2.69a1.85,1.85,0,0,0-1.53.76,3.09,3.09,0,0,0-.59,2,3,3,0,0,0,.59,1.94,1.86,1.86,0,0,0,1.54.69Z" fill="#52b648"/><path d="M411.46,11.32a2.42,2.42,0,0,0,.77,1.51,2.25,2.25,0,0,0,1.5.5,3.87,3.87,0,0,0,1.49-.26,2,2,0,0,0,1-1.06l3.13,1a5.17,5.17,0,0,1-2.21,2.42,6.87,6.87,0,0,1-3.4.8,7,7,0,0,1-2.35-.38,5.33,5.33,0,0,1-1.86-1.1A5,5,0,0,1,408.3,13a6.21,6.21,0,0,1-.44-2.4,6.8,6.8,0,0,1,.42-2.46,5,5,0,0,1,3-3,6.75,6.75,0,0,1,2.37-.4,7.14,7.14,0,0,1,2.08.33,5,5,0,0,1,1.92,1.09,5.25,5.25,0,0,1,1.34,2,7,7,0,0,1,.33,3.16h-7.86Zm4.39-2.12a1.87,1.87,0,0,0-.64-1.2,2.33,2.33,0,0,0-1.5-.42,2.82,2.82,0,0,0-1.45.34,1.86,1.86,0,0,0-.78,1.28h4.37Z" fill="#52b648"/><path d="M420.79,5h3.67V6.32a3,3,0,0,1,1.08-1.12,2.68,2.68,0,0,1,1.38-.39A3.06,3.06,0,0,1,428,5a2.55,2.55,0,0,1,.71.42l-1.49,3.32h0a1.51,1.51,0,0,0-1.2-.5,1.34,1.34,0,0,0-1.15.48,2.65,2.65,0,0,0-.36,1.55v5.61h-3.7V5Z" fill="#52b648"/><path d="M429.7,0h3.7V3.53h-3.7Zm0,5h3.7V15.85h-3.7Z" fill="#52b648"/><path d="M442.46,15.85V9.57a2.06,2.06,0,0,0-.35-1.33,1.26,1.26,0,0,0-1-.41,1.47,1.47,0,0,0-1.34.62,3.82,3.82,0,0,0-.4,2v5.4h-3.7V5h3.7V6.68a4.4,4.4,0,0,1,1.25-1.4,3.27,3.27,0,0,1,2-.58,4.92,4.92,0,0,1,2,.38,2.46,2.46,0,0,1,1.21,1.35,4,4,0,0,1,1.55-1.36,4.6,4.6,0,0,1,2-.4,5.61,5.61,0,0,1,1.46.18,2.79,2.79,0,0,1,1.14.61,2.9,2.9,0,0,1,.76,1.12A4.8,4.8,0,0,1,453,8.32v7.5h-3.7V9.57A2.06,2.06,0,0,0,449,8.24a1.26,1.26,0,0,0-1-.41,1.47,1.47,0,0,0-1.34.62,3.82,3.82,0,0,0-.4,2v5.4Z" fill="#52b648"/><path d="M457.88,11.32a2.42,2.42,0,0,0,.77,1.51,2.25,2.25,0,0,0,1.5.5,3.87,3.87,0,0,0,1.49-.26,2,2,0,0,0,1-1.06l3.13,1a5.17,5.17,0,0,1-2.18,2.42,6.87,6.87,0,0,1-3.4.8,7,7,0,0,1-2.35-.38,5.33,5.33,0,0,1-1.86-1.1A5,5,0,0,1,454.75,13a6.21,6.21,0,0,1-.44-2.4,6.8,6.8,0,0,1,.42-2.46,5,5,0,0,1,3-3,6.75,6.75,0,0,1,2.37-.4,7.14,7.14,0,0,1,2.08.33,5,5,0,0,1,1.92,1.09,5.25,5.25,0,0,1,1.34,2,7,7,0,0,1,.33,3.16h-7.92Zm4.39-2.12a1.87,1.87,0,0,0-.64-1.2,2.33,2.33,0,0,0-1.5-.42,2.82,2.82,0,0,0-1.45.34,1.86,1.86,0,0,0-.78,1.28h4.37Z" fill="#52b648"/><path d="M467.25,5H471V6.91a4.63,4.63,0,0,1,1.47-1.59,4.18,4.18,0,0,1,2.37-.62,3.75,3.75,0,0,1,2.55.85,3.57,3.57,0,0,1,1,2.82v7.48h-3.7V9.66a2.41,2.41,0,0,0-.33-1.32,1.28,1.28,0,0,0-1.17-.5,2,2,0,0,0-1.58.65,3.79,3.79,0,0,0-.56,2.39v5h-3.7V5Z" fill="#52b648"/><path d="M479.32,7.91V5h1.76V3.48a21,21,0,0,0,1.75-1.24A20.08,20.08,0,0,0,484.61.71h.17V5H487V7.91h-2.23v4a1.18,1.18,0,0,0,.17.68.74.74,0,0,0,.65.24,2.55,2.55,0,0,0,.61-.06,1.46,1.46,0,0,0,.42-.17h0v3.13a7,7,0,0,1-1,.27,6.58,6.58,0,0,1-1.46.15,5.93,5.93,0,0,1-1.51-.17,1.9,1.9,0,0,1-1-.59,2.45,2.45,0,0,1-.5-.94A5.2,5.2,0,0,1,481,13V7.91h-1.67Z" fill="#52b648"/><path d="M493.12,16.17a10.67,10.67,0,0,1-3.46-.49,6.5,6.5,0,0,1-2.42-1.44l1.93-2.14a6,6,0,0,0,.67.5,4.72,4.72,0,0,0,.8.41,4.78,4.78,0,0,0,1,.27,8.15,8.15,0,0,0,1.32.09,3.28,3.28,0,0,0,1.4-.19.6.6,0,0,0,.33-.55.5.5,0,0,0-.09-.34.72.72,0,0,0-.37-.17,5.75,5.75,0,0,0-.75-.1l-1.23-.13a15.59,15.59,0,0,1-1.85-.34,4.3,4.3,0,0,1-1.43-.62,2.81,2.81,0,0,1-.91-1,3.58,3.58,0,0,1-.33-1.63,3.16,3.16,0,0,1,.4-1.64,3.22,3.22,0,0,1,1.09-1.1,4.91,4.91,0,0,1,1.63-.62,10.11,10.11,0,0,1,2-.19,11.53,11.53,0,0,1,3.07.36,6.46,6.46,0,0,1,1.91.8L496.15,8.3a4.94,4.94,0,0,0-1.29-.62,7,7,0,0,0-2.13-.26,4.61,4.61,0,0,0-.86.06,1.69,1.69,0,0,0-.48.16.49.49,0,0,0-.22.21.58.58,0,0,0,0,.24.48.48,0,0,0,.07.26.58.58,0,0,0,.29.2,3.24,3.24,0,0,0,.62.15q.4.06,1,.1A16.68,16.68,0,0,1,495,9a5.73,5.73,0,0,1,1.66.56,3.3,3.3,0,0,1,1.2,1.06,3.06,3.06,0,0,1,.46,1.76,3.13,3.13,0,0,1-1.39,2.85A7,7,0,0,1,493.12,16.17Z" fill="#52b648"/><path d="M540,16.23a7,7,0,0,1-2.33-.38,5.22,5.22,0,0,1-1.85-1.1A4.94,4.94,0,0,1,534.61,13a6.34,6.34,0,0,1-.43-2.4,6.65,6.65,0,0,1,.43-2.46,5.1,5.1,0,0,1,3.06-3,6.69,6.69,0,0,1,2.35-.4,6.31,6.31,0,0,1,2.34.42,5.28,5.28,0,0,1,3,3,6.09,6.09,0,0,1,.43,2.33,6.55,6.55,0,0,1-.43,2.46,5.13,5.13,0,0,1-1.21,1.82,5.19,5.19,0,0,1-1.85,1.13A6.79,6.79,0,0,1,540,16.23Zm0-2.9a1.81,1.81,0,0,0,1.57-.76,3.61,3.61,0,0,0,.54-2.12q0-2.75-2.11-2.75a2,2,0,0,0-1.57.66,3.16,3.16,0,0,0-.56,2.07,3.66,3.66,0,0,0,.54,2.14,1.83,1.83,0,0,0,1.6.76Z" fill="#52b648"/><path d="M550.69,16.15a3.75,3.75,0,0,1-2.55-.85,3.58,3.58,0,0,1-1-2.82V5h3.7v6.2a2.41,2.41,0,0,0,.33,1.32,1.28,1.28,0,0,0,1.17.5,2,2,0,0,0,1.6-.66,3.85,3.85,0,0,0,.55-2.38V5h3.7V15.85h-3.73V13.94A4.62,4.62,0,0,1,553,15.53,4.18,4.18,0,0,1,550.69,16.15Z" fill="#52b648"/><path d="M559.32,7.91V5h1.76V3.48a21,21,0,0,0,1.75-1.24A20.08,20.08,0,0,0,564.61.71h.17V5H567V7.91h-2.23v4a1.18,1.18,0,0,0,.17.68.74.74,0,0,0,.65.24,2.55,2.55,0,0,0,.61-.06,1.46,1.46,0,0,0,.42-.17h0v3.13a7,7,0,0,1-1,.27,6.58,6.58,0,0,1-1.46.15,5.93,5.93,0,0,1-1.51-.17,1.9,1.9,0,0,1-1-.59,2.45,2.45,0,0,1-.5-.94A5.2,5.2,0,0,1,561,13V7.91h-1.67Z" fill="#52b648"/><path d="M573.33,16.23a6.65,6.65,0,0,1-2.27-.38,5.14,5.14,0,0,1-1.82-1.1A5,5,0,0,1,568,13a6.34,6.34,0,0,1-.43-2.4A6.65,6.65,0,0,1,568,8.11a5.35,5.35,0,0,1,1.19-1.85A5.07,5.07,0,0,1,571,5.11a6.33,6.33,0,0,1,2.27-.4,5.83,5.83,0,0,1,3.33.86,5.39,5.39,0,0,1,1.94,2.5l-3,1.47a3.53,3.53,0,0,0-.78-1.3,1.83,1.83,0,0,0-1.39-.52,1.87,1.87,0,0,0-1.54.66,3.26,3.26,0,0,0-.54,2.07,3.72,3.72,0,0,0,.53,2.14,1.79,1.79,0,0,0,1.58.76,1.87,1.87,0,0,0,1.39-.53,3,3,0,0,0,.76-1.45l3.13,1.36a5.34,5.34,0,0,1-2,2.6A6,6,0,0,1,573.33,16.23Z" fill="#52b648"/><path d="M585,16.23a7,7,0,0,1-2.33-.38,5.22,5.22,0,0,1-1.85-1.1A4.94,4.94,0,0,1,579.61,13a6.34,6.34,0,0,1-.43-2.4,6.65,6.65,0,0,1,.43-2.46,5.1,5.1,0,0,1,3.06-3,6.69,6.69,0,0,1,2.35-.4,6.31,6.31,0,0,1,2.34.42,5.28,5.28,0,0,1,3,3,6.09,6.09,0,0,1,.43,2.33,6.55,6.55,0,0,1-.43,2.46,5.13,5.13,0,0,1-1.21,1.82,5.19,5.19,0,0,1-1.85,1.13A6.79,6.79,0,0,1,585,16.23Zm0-2.9a1.81,1.81,0,0,0,1.57-.76,3.61,3.61,0,0,0,.54-2.12q0-2.75-2.11-2.75a2,2,0,0,0-1.57.66,3.16,3.16,0,0,0-.56,2.07,3.66,3.66,0,0,0,.54,2.14,1.83,1.83,0,0,0,1.6.76Z" fill="#52b648"/><path d="M599.05,15.85V9.57a2.06,2.06,0,0,0-.35-1.33,1.26,1.26,0,0,0-1-.41,1.47,1.47,0,0,0-1.34.62,3.82,3.82,0,0,0-.4,2v5.4h-3.7V5H596V6.68a4.4,4.4,0,0,1,1.25-1.4,3.27,3.27,0,0,1,2-.58,4.92,4.92,0,0,1,2,.38,2.46,2.46,0,0,1,1.25,1.35A4,4,0,0,1,604,5.07a4.6,4.6,0,0,1,2-.4,5.61,5.61,0,0,1,1.46.18,2.79,2.79,0,0,1,1.14.61,2.9,2.9,0,0,1,.76,1.12,4.8,4.8,0,0,1,.27,1.74v7.5h-3.7V9.57a2.06,2.06,0,0,0-.35-1.33,1.26,1.26,0,0,0-1-.41,1.47,1.47,0,0,0-1.34.62,3.82,3.82,0,0,0-.4,2v5.4h-3.8Z" fill="#52b648"/><path d="M614.46,11.32a2.42,2.42,0,0,0,.77,1.51,2.25,2.25,0,0,0,1.5.5,3.87,3.87,0,0,0,1.49-.26,2,2,0,0,0,1-1.06l3.13,1a5.17,5.17,0,0,1-2.17,2.42,6.87,6.87,0,0,1-3.4.8,7,7,0,0,1-2.35-.38,5.33,5.33,0,0,1-1.86-1.1A5,5,0,0,1,611.34,13a6.21,6.21,0,0,1-.44-2.4,6.8,6.8,0,0,1,.42-2.46,5,5,0,0,1,3-3,6.75,6.75,0,0,1,2.37-.4,7.14,7.14,0,0,1,2.08.33,5,5,0,0,1,1.92,1.09,5.25,5.25,0,0,1,1.34,2,7,7,0,0,1,.33,3.16h-7.9Zm4.39-2.12a1.87,1.87,0,0,0-.64-1.2,2.33,2.33,0,0,0-1.5-.42,2.82,2.82,0,0,0-1.45.34,1.86,1.86,0,0,0-.78,1.28h4.37Z" fill="#52b648"/><path d="M628.6,16.17a10.67,10.67,0,0,1-3.46-.49,6.5,6.5,0,0,1-2.42-1.44l1.93-2.14a6,6,0,0,0,.67.5,4.72,4.72,0,0,0,.8.41,4.78,4.78,0,0,0,1,.27,8.15,8.15,0,0,0,1.32.09,3.28,3.28,0,0,0,1.4-.19.6.6,0,0,0,.33-.55.5.5,0,0,0-.09-.34.72.72,0,0,0-.37-.17A5.75,5.75,0,0,0,629,12l-1.23-.13a15.59,15.59,0,0,1-1.85-.34,4.3,4.3,0,0,1-1.43-.62,2.81,2.81,0,0,1-.91-1,3.58,3.58,0,0,1-.33-1.63,3.16,3.16,0,0,1,.4-1.64,3.22,3.22,0,0,1,1.09-1.1,4.91,4.91,0,0,1,1.63-.62,10.11,10.11,0,0,1,2-.19,11.53,11.53,0,0,1,3.07.36,6.46,6.46,0,0,1,1.91.8L631.63,8.3a4.94,4.94,0,0,0-1.29-.62,7,7,0,0,0-2.13-.26,4.61,4.61,0,0,0-.86.06,1.69,1.69,0,0,0-.48.16.49.49,0,0,0-.22.21.58.58,0,0,0,0,.24.48.48,0,0,0,.07.26.58.58,0,0,0,.29.2,3.24,3.24,0,0,0,.62.15q.4.06,1,.1a16.68,16.68,0,0,1,1.85.23,5.73,5.73,0,0,1,1.66.56,3.3,3.3,0,0,1,1.2,1.06,3.06,3.06,0,0,1,.46,1.76,3.13,3.13,0,0,1-1.39,2.85A7,7,0,0,1,628.6,16.17Z" fill="#52b648"/></g></g></svg>