<svg xmlns="http://www.w3.org/2000/svg" viewBox="0 0 653 390.13"><title>Asset 3</title><g id="c4b54b01-41b2-4e96-93c4-f7ad1e8ddbfc" data-name="Layer 2"><g id="07dbf6cc-042c-438d-a047-6b2ea4434902" data-name="Layer 1"><path d="M2.56,7.85c0-2.31,1.79-3.48,4.51-3.48,1.61,0,3.23.37,4,1.61a2.19,2.19,0,0,1,2.33-1.56V7.29h-.06c-1.07-.23-1.59.21-1.83,1.23-.41,1.85-1.85,2.72-4.47,2.72A6.59,6.59,0,0,1,5.13,11a.65.65,0,0,0-.33.58c0,.54.37.64,2.78.68,3.11.06,5.27.39,5.27,3S10.75,18.72,7,18.72s-5.13-.66-5.13-2.43c0-1.05.78-1.5,1.61-1.79a1.8,1.8,0,0,1-1.34-1.89,2.33,2.33,0,0,1,1.81-2.16A3.06,3.06,0,0,1,2.56,7.85Zm2.2,7.72c0,.66.64,1,2.29,1,2.08,0,2.53-.18,2.53-.84s-.31-.72-2.7-.76a16.18,16.18,0,0,1-1.81-.1A1,1,0,0,0,4.76,15.57Zm4-7.7c0-.86-.6-1.19-1.59-1.19s-1.57.39-1.57,1.19S6.16,9,7.13,9,8.72,8.71,8.72,7.87Z" fill="#0094c7"/><path d="M14,9.8a5.1,5.1,0,0,1,5.4-5.42A5.1,5.1,0,0,1,24.8,9.68,5,5,0,0,1,19.41,15C16.28,15,14,13.12,14,9.8Zm7.35-.1c0-1.69-.66-2.55-1.94-2.55s-2,.8-2,2.53.68,2.68,2,2.68S21.38,11.37,21.38,9.7Z" fill="#0094c7"/><path d="M31,7.06a3.34,3.34,0,0,0-2.8,1.24L26.06,6.51a6.91,6.91,0,0,1,5.37-2.14c2.16,0,4.45.49,4.45,3.25v3.79c0,.89.27,1.09.76,1.09a1,1,0,0,0,.51-.1h.08l-.66,2.22a4.39,4.39,0,0,1-1.36.23,2.39,2.39,0,0,1-2.45-1.32A4.15,4.15,0,0,1,29.31,15c-2,0-3.42-.87-3.42-2.88,0-2.9,2.92-3.46,6.75-3.67C32.61,7.41,32.42,7.06,31,7.06Zm1.67,3.46c-2.12,0-3.5.41-3.5,1.34,0,.51.43.72,1,.72C31.23,12.58,32.69,11.86,32.69,10.52Z" fill="#0094c7"/><path d="M38.94,0h3.42V14.7H38.94Z" fill="#0094c7"/><path d="M43.92,13.2l1.79-2a4.74,4.74,0,0,0,3.52,1.19c1.3,0,1.59-.25,1.59-.68s-.39-.47-2.26-.68c-2.51-.29-4.18-.93-4.18-3.36s2.1-3.29,4.74-3.29a8.59,8.59,0,0,1,4.61,1.07L52.18,7.72A5.23,5.23,0,0,0,49,6.9c-1.34,0-1.5.33-1.5.62s.29.54,1.87.66c2.27.18,4.78.64,4.78,3.34,0,2.41-1.83,3.46-4.8,3.46C46.86,15,45.12,14.37,43.92,13.2Z" fill="#0094c7"/><path d="M113.23,4.65h3.42l0,1.48a3.26,3.26,0,0,1,3.09-1.75c2.62,0,4.22,1.89,4.22,5.23s-1.48,5.37-4,5.37a3.53,3.53,0,0,1-3.29-1.63v4.84h-3.42Zm7.25,5c0-1.69-.62-2.49-1.92-2.49s-2,1-2,2.51.8,2.49,2,2.49S120.49,11.32,120.49,9.62Z" fill="#8e6aae"/><path d="M125.81,4.65h3.42l0,1.22a2.66,2.66,0,0,1,2.27-1.4,2.36,2.36,0,0,1,1.69.54l-1.38,3.07h0a1.34,1.34,0,0,0-1.11-.47c-1,0-1.4.58-1.4,1.89V14.7h-3.42Z" fill="#8e6aae"/><path d="M133.47,9.8a5.39,5.39,0,0,1,10.77-.12A5,5,0,0,1,138.85,15C135.72,15,133.47,13.12,133.47,9.8Zm7.35-.1c0-1.69-.66-2.55-1.94-2.55s-2,.8-2,2.53.68,2.68,2,2.68S140.82,11.37,140.82,9.7Z" fill="#8e6aae"/><path d="M149.42,13.22l0,1.48H146V0h3.42V6a3.35,3.35,0,0,1,3.05-1.59c2.62,0,4.22,1.89,4.22,5.23s-1.48,5.37-4,5.37A3.55,3.55,0,0,1,149.42,13.22Zm3.87-3.6c0-1.69-.62-2.49-1.92-2.49s-2,1-2,2.51.8,2.49,2,2.49S153.29,11.32,153.29,9.62Z" fill="#8e6aae"/><path d="M158.71,0h3.42V14.7h-3.42Z" fill="#8e6aae"/><path d="M169.44,12.36a2.2,2.2,0,0,0,2.31-1.22l2.9.91a5.23,5.23,0,0,1-5.17,3C166.33,15,164,13.12,164,9.8a5,5,0,0,1,5.39-5.42c2.51,0,5.64,1.44,5.25,6.12h-7.33A2,2,0,0,0,169.44,12.36Zm2-3.83a1.73,1.73,0,0,0-2-1.5,1.79,1.79,0,0,0-2.06,1.5Z" fill="#8e6aae"/><path d="M182.8,14.7V8.88c0-1.13-.43-1.61-1.26-1.61-1.15,0-1.61.72-1.61,2.43v5H176.5V4.65h3.42l0,1.56a3.33,3.33,0,0,1,3-1.83c1.4,0,2.53.41,3,1.63a3.68,3.68,0,0,1,3.25-1.63c1.94,0,3.36.82,3.36,3.38V14.7h-3.42V8.88c0-1.13-.43-1.61-1.26-1.61-1.15,0-1.61.72-1.61,2.43v5Z" fill="#8e6aae"/><path d="M193.89,13.2l1.79-2a4.74,4.74,0,0,0,3.52,1.19c1.3,0,1.59-.25,1.59-.68s-.39-.47-2.26-.68c-2.51-.29-4.18-.93-4.18-3.36s2.1-3.29,4.74-3.29a8.59,8.59,0,0,1,4.61,1.07l-1.56,2.26A5.23,5.23,0,0,0,199,6.9c-1.34,0-1.5.33-1.5.62s.29.54,1.87.66c2.27.18,4.78.64,4.78,3.34,0,2.41-1.83,3.46-4.8,3.46C196.83,15,195.1,14.37,193.89,13.2Z" fill="#8e6aae"/><path d="M238.88,0h3.42V6.38a3.76,3.76,0,0,1,3.52-2c1.94,0,3.27,1,3.27,3.4V14.7h-3.42V9c0-1-.35-1.69-1.38-1.69-1.28,0-2,.68-2,2.82V14.7h-3.42Z" fill="#44c2f1"/><path d="M250.31,4.65H254l2,5.81,2.1-5.81h3.34l-3.87,9.55c-.74,1.83-1.32,2.88-2.18,3.5a3.77,3.77,0,0,1-2.29.66,3.3,3.3,0,0,1-1.81-.45V15.13h.12a1.6,1.6,0,0,0,1.22.43,1.42,1.42,0,0,0,1.59-1Z" fill="#44c2f1"/><path d="M262.94,4.65h3.42l0,1.48a3.26,3.26,0,0,1,3.09-1.75c2.62,0,4.22,1.89,4.22,5.23s-1.48,5.37-4,5.37a3.53,3.53,0,0,1-3.29-1.63v4.84h-3.42Zm7.25,5c0-1.69-.62-2.49-1.92-2.49s-2,1-2,2.51.8,2.49,2,2.49S270.19,11.32,270.19,9.62Z" fill="#44c2f1"/><path d="M274.83,9.8a5.39,5.39,0,0,1,10.77-.12A5,5,0,0,1,280.22,15C277.09,15,274.83,13.12,274.83,9.8Zm7.35-.1c0-1.69-.66-2.55-1.94-2.55s-2,.8-2,2.53.68,2.68,2,2.68S282.18,11.37,282.18,9.7Z" fill="#44c2f1"/><path d="M286.46,7.35V4.65h1.63V3.25A21.61,21.61,0,0,0,291.36.68h.16v4h2.06v2.7h-2.06v3.71c0,.54.16.86.76.86a1.92,1.92,0,0,0,1-.21h0v2.88A6.4,6.4,0,0,1,291,15a2.93,2.93,0,0,1-2.31-.7,3.21,3.21,0,0,1-.62-2.22V7.35Z" fill="#44c2f1"/><path d="M295.3,0h3.42V6.38a3.76,3.76,0,0,1,3.52-2c1.94,0,3.27,1,3.27,3.4V14.7h-3.42V9c0-1-.35-1.69-1.38-1.69-1.28,0-2,.68-2,2.82V14.7H295.3Z" fill="#44c2f1"/><path d="M312.64,12.36a2.2,2.2,0,0,0,2.31-1.22l2.9.91a5.23,5.23,0,0,1-5.17,3c-3.15,0-5.44-1.92-5.44-5.25a5,5,0,0,1,5.39-5.42c2.51,0,5.64,1.44,5.25,6.12h-7.33A2,2,0,0,0,312.64,12.36Zm2-3.83a1.73,1.73,0,0,0-2-1.5,1.79,1.79,0,0,0-2.06,1.5Z" fill="#44c2f1"/><path d="M318.47,13.2l1.79-2a4.74,4.74,0,0,0,3.52,1.19c1.3,0,1.59-.25,1.59-.68s-.39-.47-2.26-.68c-2.51-.29-4.18-.93-4.18-3.36s2.1-3.29,4.75-3.29a8.58,8.58,0,0,1,4.61,1.07l-1.55,2.26a5.23,5.23,0,0,0-3.17-.82c-1.34,0-1.5.33-1.5.62s.29.54,1.87.66c2.28.18,4.78.64,4.78,3.34,0,2.41-1.83,3.46-4.8,3.46C321.4,15,319.67,14.37,318.47,13.2Z" fill="#44c2f1"/><path d="M335.14,12.36a2.2,2.2,0,0,0,2.31-1.22l2.9.91a5.23,5.23,0,0,1-5.17,3c-3.15,0-5.45-1.92-5.45-5.25a5,5,0,0,1,5.39-5.42c2.51,0,5.64,1.44,5.25,6.12H333A2,2,0,0,0,335.14,12.36Zm2-3.83a1.73,1.73,0,0,0-2-1.5,1.79,1.79,0,0,0-2.06,1.5Z" fill="#44c2f1"/><path d="M341,13.2l1.79-2a4.73,4.73,0,0,0,3.52,1.19c1.3,0,1.59-.25,1.59-.68s-.39-.47-2.25-.68c-2.51-.29-4.18-.93-4.18-3.36s2.1-3.29,4.74-3.29a8.59,8.59,0,0,1,4.61,1.07l-1.56,2.26a5.23,5.23,0,0,0-3.17-.82c-1.34,0-1.5.33-1.5.62s.29.54,1.87.66c2.27.18,4.78.64,4.78,3.34,0,2.41-1.83,3.46-4.8,3.46C343.93,15,342.2,14.37,341,13.2Z" fill="#44c2f1"/><path d="M245.46,35.1l-.72,3.74h-1l1.75-9h1l-.26,1.2a2.37,2.37,0,0,1,2.07-1.36c1.28,0,2.15.94,2.15,2.63,0,2.51-1.29,4.09-3,4.09A1.89,1.89,0,0,1,245.46,35.1Zm1.88.48c1.4,0,2.1-1.57,2.1-3.26,0-1.14-.51-1.75-1.32-1.75-1.35,0-2.36,1.42-2.36,3.09C245.76,34.9,246.34,35.58,247.34,35.58Z" fill="#a7a9ac"/><path d="M253.61,29.84l-.29,1.32c.38-.84.92-1.48,1.74-1.48A1.26,1.26,0,0,1,256,30l-.4.87a1,1,0,0,0-.73-.31c-.71,0-1.54.87-1.92,2.84l-.56,2.87h-1l1.26-6.45Z" fill="#a7a9ac"/><path d="M258.41,29.84l-1.26,6.45h-1l1.26-6.45Zm.66-3.3-.22,1.18h-1.11l.23-1.18Z" fill="#a7a9ac"/><path d="M259.33,33.63c0-2,1.4-3.94,3.42-3.94a2.47,2.47,0,0,1,2.54,2.76c0,2-1.19,4-3.35,4A2.48,2.48,0,0,1,259.33,33.63Zm1,0c0,1.13.48,1.92,1.59,1.92,1.57,0,2.29-1.61,2.29-3.15,0-1.17-.51-1.88-1.54-1.88C261.18,30.56,260.35,32.12,260.35,33.66Z" fill="#a7a9ac"/><path d="M268.41,29.84l-.29,1.32c.38-.84.92-1.48,1.74-1.48a1.26,1.26,0,0,1,.89.34l-.4.87a1,1,0,0,0-.73-.31c-.71,0-1.54.87-1.92,2.84l-.56,2.87h-1l1.26-6.45Z" fill="#a7a9ac"/><path d="M273.2,29.84l-1.26,6.45h-1l1.26-6.45Zm.66-3.3-.22,1.18h-1.11l.23-1.18Z" fill="#a7a9ac"/><path d="M274.37,30.65l.16-.8h.94l.36-1.87a3.85,3.85,0,0,0,1.13-.79h0l-.52,2.66h1.22l-.16.8h-1.22l-.82,4.17a2,2,0,0,0,0,.35c0,.3.13.39.43.39a1.51,1.51,0,0,0,.66-.14h0l-.25.87a1.81,1.81,0,0,1-.71.14,1,1,0,0,1-1.18-1.1,2.81,2.81,0,0,1,.05-.45l.83-4.22Z" fill="#a7a9ac"/><path d="M280.3,29.84,279,36.29h-1l1.26-6.45Zm.66-3.3-.22,1.18h-1.11l.23-1.18Z" fill="#a7a9ac"/><path d="M282.05,30.69l.17-.84h4.51l-.21,1.06L282,35.43h3.69l-.17.87H280.6l.17-.87,4.71-4.74Z" fill="#a7a9ac"/><path d="M288.1,33.72c0,1,.4,1.87,1.54,1.87a2,2,0,0,0,1.89-1.5l.84.34a2.81,2.81,0,0,1-2.73,2c-1.75,0-2.56-1.1-2.56-2.86,0-2.19,1.44-3.87,3.26-3.87,1.45,0,2.34.92,2.34,2.69a6.28,6.28,0,0,1-.05.83h-4.49A3.4,3.4,0,0,0,288.1,33.72Zm3.61-1.26c0-1.18-.34-1.9-1.42-1.9a2.17,2.17,0,0,0-2,1.9Z" fill="#a7a9ac"/><path d="M298.7,30.95l.87-4.46h1l-1.9,9.8h-1l.25-1.17a2.42,2.42,0,0,1-2.08,1.29c-1.42,0-2.2-1-2.2-2.56,0-2.37,1.4-4.17,3.26-4.17A1.73,1.73,0,0,1,298.7,30.95Zm-1.88-.38c-1.27,0-2.16,1.45-2.16,3.35,0,1.07.48,1.66,1.32,1.66,1.32,0,2.4-1.26,2.4-3.22C298.37,31.19,297.87,30.57,296.82,30.57Z" fill="#a7a9ac"/><path d="M310.43,32.32c0,2.51-1.29,4.09-3,4.09a1.94,1.94,0,0,1-2-1.35l-.21,1.23h-1l1.9-9.8h1L306.23,31a2.36,2.36,0,0,1,2-1.32C309.56,29.69,310.43,30.63,310.43,32.32Zm-3.11,3.26c1.4,0,2.1-1.57,2.1-3.26,0-1.14-.51-1.75-1.32-1.75-1.35,0-2.36,1.42-2.36,3.09C305.74,34.9,306.32,35.58,307.32,35.58Z" fill="#a7a9ac"/><path d="M311.66,29.84h1l.76,5.17,2.71-5.17h1.07l-4.27,7.85a3.61,3.61,0,0,1-.7,1,1.43,1.43,0,0,1-1.07.44,1.33,1.33,0,0,1-.91-.34l.31-.79h0a.73.73,0,0,0,.62.27c.39,0,.66-.32,1-1l.49-1Z" fill="#a7a9ac"/><path d="M325.95,30.95l.87-4.46h1l-1.9,9.8h-1l.25-1.17a2.42,2.42,0,0,1-2.09,1.29c-1.42,0-2.2-1-2.2-2.56,0-2.37,1.4-4.17,3.26-4.17A1.73,1.73,0,0,1,325.95,30.95Zm-1.88-.38c-1.27,0-2.16,1.45-2.16,3.35,0,1.07.48,1.66,1.32,1.66,1.32,0,2.4-1.26,2.4-3.22C325.62,31.19,325.12,30.57,324.07,30.57Z" fill="#a7a9ac"/><path d="M333,29.84h1l-1,5.08c-.08.39,0,.63.34.63a1.53,1.53,0,0,0,.51-.1h0l-.25.85a1.5,1.5,0,0,1-.61.13c-.7,0-1.06-.49-1-1.26a2.21,2.21,0,0,1-2,1.24c-1.28,0-2.09-1-2.09-2.51,0-2.27,1.26-4.22,3.26-4.22a1.65,1.65,0,0,1,1.63,1.17Zm-1.86.73c-1.31,0-2.18,1.48-2.18,3.38,0,1,.42,1.63,1.23,1.63,1.24,0,2.28-1.33,2.28-3.44C332.52,31.15,332,30.57,331.18,30.57Z" fill="#a7a9ac"/><path d="M335.25,30.65l.15-.8h.95l.36-1.87a3.87,3.87,0,0,0,1.13-.79h0l-.52,2.66h1.22l-.16.8H337.2l-.82,4.17a2.09,2.09,0,0,0,0,.35c0,.3.13.39.43.39a1.5,1.5,0,0,0,.66-.14h0l-.25.87a1.81,1.81,0,0,1-.71.14,1,1,0,0,1-1.18-1.1,2.94,2.94,0,0,1,.05-.45l.83-4.22Z" fill="#a7a9ac"/><path d="M344,29.84h1l-1,5.08c-.08.39,0,.63.34.63a1.53,1.53,0,0,0,.51-.1h0l-.25.85a1.5,1.5,0,0,1-.61.13c-.7,0-1.06-.49-1-1.26a2.21,2.21,0,0,1-2,1.24c-1.28,0-2.09-1-2.09-2.51,0-2.27,1.26-4.22,3.26-4.22a1.65,1.65,0,0,1,1.63,1.17Zm-1.86.73c-1.31,0-2.18,1.48-2.18,3.38,0,1,.42,1.63,1.23,1.63,1.24,0,2.28-1.33,2.28-3.44C343.45,31.15,342.9,30.57,342.12,30.57Z" fill="#a7a9ac"/><path d="M387.54,0H391V14.7h-3.42Z" fill="#52b648"/><path d="M398.27,12.36a2.2,2.2,0,0,0,2.31-1.22l2.9.91a5.23,5.23,0,0,1-5.17,3c-3.15,0-5.45-1.92-5.45-5.25a5,5,0,0,1,5.39-5.42c2.51,0,5.64,1.44,5.25,6.12h-7.33A2,2,0,0,0,398.27,12.36Zm2-3.83a1.73,1.73,0,0,0-2-1.5,1.79,1.79,0,0,0-2.06,1.5Z" fill="#52b648"/><path d="M409.74,7.06a3.34,3.34,0,0,0-2.8,1.24l-2.16-1.79a6.91,6.91,0,0,1,5.37-2.14c2.16,0,4.45.49,4.45,3.25v3.79c0,.89.27,1.09.76,1.09a1,1,0,0,0,.51-.1h.08l-.66,2.22a4.38,4.38,0,0,1-1.36.23,2.39,2.39,0,0,1-2.45-1.32A4.15,4.15,0,0,1,408,15c-2,0-3.42-.87-3.42-2.88,0-2.9,2.92-3.46,6.75-3.67C411.33,7.41,411.14,7.06,409.74,7.06Zm1.67,3.46c-2.12,0-3.5.41-3.5,1.34,0,.51.43.72,1,.72C410,12.58,411.41,11.86,411.41,10.52Z" fill="#52b648"/><path d="M417.57,4.65H421l0,1.22a2.67,2.67,0,0,1,2.28-1.4,2.36,2.36,0,0,1,1.69.54l-1.38,3.07h0a1.34,1.34,0,0,0-1.11-.47c-1,0-1.4.58-1.4,1.89V14.7h-3.42Z" fill="#52b648"/><path d="M426.2,4.65h3.42l0,1.77a3.85,3.85,0,0,1,3.56-2c1.94,0,3.27,1,3.27,3.4V14.7H433V9c0-1-.35-1.69-1.38-1.69-1.28,0-2,.68-2,2.82V14.7H426.2Z" fill="#52b648"/><path d="M438.91,0h3.42V3.29h-3.42Zm0,4.63h3.42V14.7h-3.42Z" fill="#52b648"/><path d="M444.91,4.65h3.42l0,1.77a3.85,3.85,0,0,1,3.56-2c1.94,0,3.27,1,3.27,3.4V14.7H451.7V9c0-1-.35-1.69-1.38-1.69-1.28,0-2,.68-2,2.82V14.7h-3.42Z" fill="#52b648"/><path d="M457.41,7.85c0-2.31,1.79-3.48,4.51-3.48,1.62,0,3.23.37,4,1.61a2.2,2.2,0,0,1,2.33-1.56V7.29h-.06c-1.07-.23-1.59.21-1.83,1.23-.41,1.85-1.85,2.72-4.47,2.72A6.58,6.58,0,0,1,460,11a.64.64,0,0,0-.33.58c0,.54.37.64,2.78.68,3.11.06,5.27.39,5.27,3s-2.1,3.44-5.87,3.44-5.13-.66-5.13-2.43c0-1.05.78-1.5,1.61-1.79A1.8,1.8,0,0,1,457,12.62a2.33,2.33,0,0,1,1.81-2.16A3.06,3.06,0,0,1,457.41,7.85Zm2.2,7.72c0,.66.64,1,2.29,1,2.08,0,2.53-.18,2.53-.84s-.31-.72-2.7-.76a16.16,16.16,0,0,1-1.81-.1A1,1,0,0,0,459.61,15.57Zm4-7.7c0-.86-.6-1.19-1.59-1.19s-1.58.39-1.58,1.19S461,9,462,9,463.57,8.71,463.57,7.87Z" fill="#52b648"/><path d="M468.72,13.2l1.79-2A4.73,4.73,0,0,0,474,12.4c1.3,0,1.59-.25,1.59-.68s-.39-.47-2.25-.68c-2.51-.29-4.18-.93-4.18-3.36s2.1-3.29,4.74-3.29a8.59,8.59,0,0,1,4.61,1.07L477,7.72a5.23,5.23,0,0,0-3.17-.82c-1.34,0-1.5.33-1.5.62s.29.54,1.87.66c2.27.18,4.78.64,4.78,3.34,0,2.41-1.83,3.46-4.8,3.46C471.66,15,469.93,14.37,468.72,13.2Z" fill="#52b648"/><path d="M386.58,29.84l.67,5.34,2.67-5.34H391l-3.38,6.45h-1.09l-1-6.45Z" fill="#a7a9ac"/><path d="M396.18,29.84h1l-1,5.08c-.08.39,0,.63.34.63a1.53,1.53,0,0,0,.51-.1h0l-.25.85a1.5,1.5,0,0,1-.61.13c-.7,0-1.06-.49-1-1.26a2.21,2.21,0,0,1-2,1.24c-1.28,0-2.09-1-2.09-2.51,0-2.27,1.26-4.22,3.26-4.22A1.65,1.65,0,0,1,396,30.85Zm-1.86.73c-1.31,0-2.18,1.48-2.18,3.38,0,1,.42,1.63,1.23,1.63,1.24,0,2.28-1.33,2.28-3.44C395.65,31.15,395.09,30.57,394.32,30.57Z" fill="#a7a9ac"/><path d="M401.07,26.49l-1.9,9.8h-1l1.9-9.8Z" fill="#a7a9ac"/><path d="M403.62,29.84l-1.26,6.45h-1l1.25-6.45Zm.66-3.3-.22,1.18h-1.11l.23-1.18Z" fill="#a7a9ac"/><path d="M409.62,30.95l.87-4.46h1l-1.9,9.8h-1l.25-1.17a2.42,2.42,0,0,1-2.09,1.29c-1.43,0-2.2-1-2.2-2.56,0-2.37,1.4-4.17,3.26-4.17A1.73,1.73,0,0,1,409.62,30.95Zm-1.88-.38c-1.27,0-2.16,1.45-2.16,3.35,0,1.07.48,1.66,1.32,1.66,1.32,0,2.4-1.26,2.4-3.22C409.3,31.19,408.79,30.57,407.74,30.57Z" fill="#a7a9ac"/><path d="M416.72,29.84h1l-1,5.08c-.08.39,0,.63.34.63a1.53,1.53,0,0,0,.51-.1h0l-.25.85a1.5,1.5,0,0,1-.61.13c-.7,0-1.06-.49-1-1.26a2.21,2.21,0,0,1-2,1.24c-1.28,0-2.09-1-2.09-2.51,0-2.27,1.26-4.22,3.26-4.22a1.65,1.65,0,0,1,1.63,1.17Zm-1.86.73c-1.31,0-2.18,1.48-2.18,3.38,0,1,.42,1.63,1.23,1.63,1.24,0,2.28-1.33,2.28-3.44C416.19,31.15,415.63,30.57,414.85,30.57Z" fill="#a7a9ac"/><path d="M418.93,30.65l.15-.8H420l.36-1.87a3.87,3.87,0,0,0,1.13-.79h0L421,29.84h1.22l-.16.8h-1.22l-.82,4.17a2.09,2.09,0,0,0,0,.35c0,.3.13.39.43.39a1.5,1.5,0,0,0,.66-.14h0l-.25.87a1.81,1.81,0,0,1-.71.14,1,1,0,0,1-1.18-1.1,2.94,2.94,0,0,1,.05-.45l.83-4.22Z" fill="#a7a9ac"/><path d="M423.6,33.72c0,1,.4,1.87,1.54,1.87a2,2,0,0,0,1.89-1.5l.84.34a2.82,2.82,0,0,1-2.73,2c-1.75,0-2.56-1.1-2.56-2.86,0-2.19,1.44-3.87,3.26-3.87,1.45,0,2.34.92,2.34,2.69a6.12,6.12,0,0,1-.05.83h-4.49A3.14,3.14,0,0,0,423.6,33.72Zm3.61-1.26c0-1.18-.34-1.9-1.42-1.9a2.17,2.17,0,0,0-2,1.9Z" fill="#a7a9ac"/><path d="M434.2,30.95l.87-4.46h1l-1.9,9.8h-1l.25-1.17a2.42,2.42,0,0,1-2.09,1.29c-1.42,0-2.2-1-2.2-2.56,0-2.37,1.4-4.17,3.26-4.17A1.73,1.73,0,0,1,434.2,30.95Zm-1.88-.38c-1.27,0-2.16,1.45-2.16,3.35,0,1.07.48,1.66,1.32,1.66,1.32,0,2.4-1.26,2.4-3.22C433.88,31.19,433.37,30.57,432.32,30.57Z" fill="#a7a9ac"/><path d="M445.92,32.32c0,2.51-1.29,4.09-3,4.09a1.94,1.94,0,0,1-2-1.35l-.21,1.23h-1l1.9-9.8h1L441.73,31a2.37,2.37,0,0,1,2-1.32C445.05,29.69,445.92,30.63,445.92,32.32Zm-3.11,3.26c1.4,0,2.1-1.57,2.1-3.26,0-1.14-.51-1.75-1.32-1.75-1.35,0-2.36,1.42-2.36,3.09C441.24,34.9,441.82,35.58,442.82,35.58Z" fill="#a7a9ac"/><path d="M447.14,29.84h1l.76,5.17,2.71-5.17h1.07l-4.27,7.85a3.57,3.57,0,0,1-.7,1,1.43,1.43,0,0,1-1.07.44,1.33,1.33,0,0,1-.91-.34l.31-.79h0a.72.72,0,0,0,.62.27c.39,0,.66-.32,1-1l.49-1Z" fill="#a7a9ac"/><path d="M461.43,30.95l.87-4.46h1l-1.9,9.8h-1l.25-1.17a2.42,2.42,0,0,1-2.09,1.29c-1.42,0-2.2-1-2.2-2.56,0-2.37,1.4-4.17,3.26-4.17A1.73,1.73,0,0,1,461.43,30.95Zm-1.88-.38c-1.27,0-2.16,1.45-2.16,3.35,0,1.07.48,1.66,1.32,1.66,1.32,0,2.4-1.26,2.4-3.22C461.11,31.19,460.6,30.57,459.56,30.57Z" fill="#a7a9ac"/><path d="M468.53,29.84h1l-1,5.08c-.08.39,0,.63.34.63a1.53,1.53,0,0,0,.51-.1h0l-.25.85a1.5,1.5,0,0,1-.61.13c-.7,0-1.06-.49-1-1.26a2.21,2.21,0,0,1-2,1.24c-1.28,0-2.09-1-2.09-2.51,0-2.27,1.26-4.22,3.26-4.22a1.65,1.65,0,0,1,1.63,1.17Zm-1.86.73c-1.31,0-2.18,1.48-2.18,3.38,0,1,.42,1.63,1.23,1.63,1.24,0,2.28-1.33,2.28-3.44C468,31.15,467.45,30.57,466.67,30.57Z" fill="#a7a9ac"/><path d="M470.74,30.65l.15-.8h.95L472.2,28a3.87,3.87,0,0,0,1.13-.79h0l-.52,2.66h1.22l-.16.8h-1.22l-.82,4.17a2.09,2.09,0,0,0,0,.35c0,.3.13.39.43.39a1.5,1.5,0,0,0,.66-.14h0l-.25.87a1.81,1.81,0,0,1-.71.14,1,1,0,0,1-1.18-1.1,2.94,2.94,0,0,1,.05-.45l.83-4.22Z" fill="#a7a9ac"/><path d="M479.47,29.84h1l-1,5.08c-.08.39,0,.63.34.63a1.53,1.53,0,0,0,.51-.1h0l-.25.85a1.5,1.5,0,0,1-.61.13c-.7,0-1.06-.49-1-1.26a2.21,2.21,0,0,1-2,1.24c-1.28,0-2.09-1-2.09-2.51,0-2.27,1.26-4.22,3.26-4.22a1.65,1.65,0,0,1,1.63,1.17Zm-1.86.73c-1.31,0-2.18,1.48-2.18,3.38,0,1,.42,1.63,1.23,1.63,1.24,0,2.28-1.33,2.28-3.44C478.94,31.15,478.38,30.57,477.6,30.57Z" fill="#a7a9ac"/><path d="M523,0h3.42V3.29H523Zm0,4.63h3.42V14.7H523Z" fill="#52b648"/><path d="M529.06,4.65h3.42l0,1.77a3.85,3.85,0,0,1,3.56-2c1.94,0,3.27,1,3.27,3.4V14.7h-3.42V9c0-1-.35-1.69-1.38-1.69-1.28,0-2,.68-2,2.82V14.7h-3.42Z" fill="#52b648"/><path d="M540.37,4.65H544l1.94,6.1,2.14-6.1h3.4L547.68,14.7H544.1Z" fill="#52b648"/><path d="M557.33,12.36a2.2,2.2,0,0,0,2.31-1.22l2.9.91a5.23,5.23,0,0,1-5.17,3c-3.15,0-5.45-1.92-5.45-5.25a5,5,0,0,1,5.39-5.42c2.51,0,5.64,1.44,5.25,6.12h-7.33A2,2,0,0,0,557.33,12.36Zm2-3.83a1.73,1.73,0,0,0-2-1.5,1.79,1.79,0,0,0-2.06,1.5Z" fill="#52b648"/><path d="M563.18,13.2l1.79-2a4.73,4.73,0,0,0,3.52,1.19c1.3,0,1.59-.25,1.59-.68s-.39-.47-2.25-.68c-2.51-.29-4.18-.93-4.18-3.36s2.1-3.29,4.74-3.29A8.59,8.59,0,0,1,573,5.46l-1.56,2.26a5.23,5.23,0,0,0-3.17-.82c-1.34,0-1.5.33-1.5.62s.29.54,1.87.66c2.27.18,4.78.64,4.78,3.34,0,2.41-1.83,3.46-4.8,3.46C566.12,15,564.39,14.37,563.18,13.2Z" fill="#52b648"/><path d="M574.18,7.35V4.65h1.63V3.25A21.55,21.55,0,0,0,579.08.68h.16v4h2.06v2.7h-2.06v3.71c0,.54.16.86.76.86a1.91,1.91,0,0,0,1-.21h0v2.88a6.41,6.41,0,0,1-2.24.39,2.93,2.93,0,0,1-2.31-.7,3.2,3.2,0,0,1-.62-2.22V7.35Z" fill="#52b648"/><path d="M589.33,14.7V8.88c0-1.13-.43-1.61-1.26-1.61-1.15,0-1.61.72-1.61,2.43v5H583V4.65h3.42l0,1.56a3.33,3.33,0,0,1,3-1.83c1.4,0,2.53.41,3,1.63a3.68,3.68,0,0,1,3.25-1.63c1.94,0,3.36.82,3.36,3.38V14.7h-3.42V8.88c0-1.13-.43-1.61-1.26-1.61-1.15,0-1.62.72-1.62,2.43v5Z" fill="#52b648"/><path d="M606.18,12.36a2.2,2.2,0,0,0,2.31-1.22l2.9.91a5.23,5.23,0,0,1-5.17,3c-3.15,0-5.45-1.92-5.45-5.25a5,5,0,0,1,5.39-5.42c2.51,0,5.64,1.44,5.25,6.12h-7.33A2,2,0,0,0,606.18,12.36Zm2-3.83a1.73,1.73,0,0,0-2-1.5,1.79,1.79,0,0,0-2.06,1.5Z" fill="#52b648"/><path d="M613.23,4.65h3.42l0,1.77a3.85,3.85,0,0,1,3.56-2c1.94,0,3.27,1,3.27,3.4V14.7H620V9c0-1-.35-1.69-1.38-1.69-1.28,0-2,.68-2,2.82V14.7h-3.42Z" fill="#52b648"/><path d="M624.89,7.35V4.65h1.63V3.25A21.55,21.55,0,0,0,629.79.68h.16v4H632v2.7h-2.06v3.71c0,.54.16.86.76.86a1.91,1.91,0,0,0,1-.21h0v2.88a6.41,6.41,0,0,1-2.24.39,2.93,2.93,0,0,1-2.31-.7,3.2,3.2,0,0,1-.62-2.22V7.35Z" fill="#52b648"/><path d="M632.88,13.2l1.79-2a4.73,4.73,0,0,0,3.52,1.19c1.3,0,1.59-.25,1.59-.68s-.39-.47-2.25-.68c-2.51-.29-4.18-.93-4.18-3.36s2.1-3.29,4.74-3.29a8.59,8.59,0,0,1,4.61,1.07l-1.56,2.26A5.23,5.23,0,0,0,638,6.9c-1.34,0-1.5.33-1.5.62s.29.54,1.87.66c2.27.18,4.78.64,4.78,3.34,0,2.41-1.83,3.46-4.8,3.46C635.81,15,634.08,14.37,632.88,13.2Z" fill="#52b648"/><path d="M158.73,123.64a26,26,0,1,0-26-26,26,26,0,0,0,26,26" fill="#8e6aae"/><path d="M147.72,105h-3.81V90.34h7.89c3.81,0,5.31,1.94,5.31,4.8,0,2.57-1.48,4.47-4.9,4.47h-4.49Zm3.85-8.48c1.46,0,1.85-.56,1.85-1.59s-.41-1.5-1.83-1.5h-3.87v3.09Z" fill="#fff"/><path d="M158,102.55l2.51-2.24a6.3,6.3,0,0,0,5,2c2.08,0,2.9-.43,2.9-1.38s-.76-1.23-3.42-1.59c-2.9-.41-6.42-1-6.42-4.71,0-3.15,2.53-4.61,6.34-4.61,3.3,0,5.29.89,6.82,2.53l-2.35,2.24A5.26,5.26,0,0,0,165,93c-2,0-2.82.39-2.82,1.32s.8,1.21,3.6,1.54c3,.37,6.34,1.17,6.34,4.72,0,3.21-2.08,4.78-6.59,4.78C161.83,105.39,159.58,104.28,158,102.55Z" fill="#fff"/><path d="M26,123.64a26,26,0,1,0-26-26,26,26,0,0,0,26,26" fill="#0094c7"/><path d="M23.72,95a4.86,4.86,0,0,1-2.43.6V93a3,3,0,0,0,2.8-2.66h3.54V105H23.72Z" fill="#fff"/><path d="M293.7,123.64a26,26,0,1,0-26-26,26,26,0,0,0,26,26" fill="#44c2f1"/><path d="M291.12,93.09a5.92,5.92,0,0,1-3,.74V90.71c1.62-.33,2.95-.88,3.42-3.26h4.32v18h-4.78Z" fill="#fff"/><path d="M431,123.64a26,26,0,1,0-26-26,26,26,0,0,0,26,26" fill="#52b648"/><path d="M428.47,93.09a5.92,5.92,0,0,1-3,.74V90.71c1.62-.33,2.95-.88,3.42-3.26h4.32v18h-4.77Z" fill="#fff"/><path d="M158.73,211.88a26,26,0,1,0-26-26,26,26,0,0,0,26,26" fill="#8e6aae"/><path d="M149.8,193.28H146v-14.7h7.89c3.81,0,5.31,1.94,5.31,4.8,0,2.57-1.48,4.47-4.9,4.47H149.8Zm3.85-8.48c1.46,0,1.85-.56,1.85-1.59s-.41-1.5-1.83-1.5H149.8v3.09Z" fill="#fff"/><path d="M160,191.78l1.79-2a4.74,4.74,0,0,0,3.52,1.19c1.3,0,1.59-.25,1.59-.68s-.39-.47-2.26-.68c-2.51-.29-4.18-.93-4.18-3.36s2.1-3.29,4.74-3.29a8.59,8.59,0,0,1,4.61,1.07l-1.56,2.26a5.23,5.23,0,0,0-3.17-.82c-1.34,0-1.5.33-1.5.62s.29.54,1.87.66c2.27.18,4.78.64,4.78,3.34,0,2.41-1.83,3.46-4.8,3.46C162.9,193.57,161.17,192.95,160,191.78Z" fill="#fff"/><path d="M26,261.92a26,26,0,1,0-26-26,26,26,0,0,0,26,26" fill="#0094c7"/><path d="M22.48,236.85c2.33-1.38,4.8-2.06,4.8-3.71,0-1.3-1-1.75-2.37-1.75a3.4,3.4,0,0,0-3.38,2.7l-3.32-1.4c1.11-2.88,3.29-4.33,6.71-4.33,4.32,0,6.38,1.81,6.38,4.68s-2.41,4.16-4.67,5.19c-1.75.8-2.53,1.28-2.84,2h7.41v3.09H18.3C18.44,239.86,20.36,238.09,22.48,236.85Z" fill="#fff"/><path d="M293.7,211.88a26,26,0,1,0-26-26,26,26,0,0,0,26,26" fill="#44c2f1"/><path d="M289.61,185.75c2.85-1.69,5.87-2.52,5.87-4.54,0-1.59-1.19-2.14-2.9-2.14a4.16,4.16,0,0,0-4.13,3.3l-4.06-1.71c1.35-3.52,4-5.3,8.2-5.3,5.27,0,7.79,2.21,7.79,5.73s-2.95,5.08-5.7,6.34c-2.14,1-3.09,1.57-3.47,2.45h9.05v3.78H284.51C284.67,189.43,287,187.27,289.61,185.75Z" fill="#fff"/><path d="M431,211.88a26,26,0,1,0-26-26,26,26,0,0,0,26,26" fill="#d34b01"/><path d="M427,185.75c2.85-1.69,5.87-2.52,5.87-4.54,0-1.59-1.19-2.14-2.9-2.14a4.16,4.16,0,0,0-4.13,3.3l-4.06-1.71c1.35-3.52,4-5.3,8.2-5.3,5.27,0,7.79,2.21,7.79,5.73s-2.94,5.08-5.7,6.34c-2.14,1-3.09,1.57-3.47,2.45h9.05v3.78H421.85C422,189.43,424.37,187.27,427,185.75Z" fill="#fff"/><path d="M158.73,299.34a26,26,0,1,0-26-26,26,26,0,0,0,26,26" fill="#8e6aae"/><path d="M144.93,270.69h3.42l0,1.48a3.26,3.26,0,0,1,3.09-1.75c2.62,0,4.22,1.89,4.22,5.23s-1.48,5.37-4,5.37a3.53,3.53,0,0,1-3.29-1.63v4.84h-3.42Zm7.25,5c0-1.69-.62-2.49-1.92-2.49s-2,1-2,2.51.8,2.49,2,2.49S152.18,277.36,152.18,275.67Z" fill="#fff"/><path d="M156.57,278.25l2.51-2.24a6.3,6.3,0,0,0,5,2c2.08,0,2.9-.43,2.9-1.38s-.76-1.22-3.42-1.59c-2.9-.41-6.42-1-6.42-4.71,0-3.15,2.53-4.61,6.34-4.61,3.3,0,5.29.89,6.82,2.53l-2.35,2.24a5.26,5.26,0,0,0-4.33-1.81c-2,0-2.82.39-2.82,1.32s.8,1.2,3.6,1.54c3,.37,6.34,1.17,6.34,4.72,0,3.21-2.08,4.78-6.59,4.78C160.42,281.09,158.17,280,156.57,278.25Z" fill="#fff"/><path d="M26,390.13a26,26,0,1,0-26-26,26,26,0,0,0,26,26" fill="#0094c7"/><path d="M17.86,367.29l3.29-.91a3.2,3.2,0,0,0,3.5,2.49c1.65,0,2.76-.45,2.76-1.69,0-1.79-2.06-1.75-4.24-1.71v-2.88c2.26.06,4.18.06,4.18-1.54,0-1.05-1-1.55-2.51-1.55a3.3,3.3,0,0,0-3.48,2.12l-3.31-1c.89-2.41,3.09-4.1,6.9-4.1s6.24,1.69,6.24,4.28a3,3,0,0,1-2.12,2.94,3.45,3.45,0,0,1,2.45,3.32c0,3.15-2.39,4.78-6.82,4.78C21.38,371.88,18.67,370.38,17.86,367.29Z" fill="#fff"/><path d="M293.7,299.34a26,26,0,1,0-26-26,26,26,0,0,0,26,26" fill="#44c2f1"/><path d="M284,275.94l4-1.12c.52,2,1.95,3,4.28,3,2,0,3.37-.55,3.37-2.07,0-2.19-2.52-2.14-5.18-2.09v-3.52c2.76.07,5.11.07,5.11-1.88,0-1.28-1.26-1.9-3.07-1.9-2.07,0-3.47.69-4.25,2.59l-4-1.16c1.09-2.95,3.78-5,8.43-5s7.63,2.07,7.63,5.23a3.69,3.69,0,0,1-2.59,3.59,4.22,4.22,0,0,1,3,4.06c0,3.85-2.92,5.85-8.34,5.85C288.26,281.55,285,279.72,284,275.94Z" fill="#fff"/><path d="M431,299.34a26,26,0,1,0-26-26,26,26,0,0,0,26,26" fill="#52b648"/><path d="M421.31,275.94l4-1.12c.52,2,1.95,3,4.28,3,2,0,3.37-.55,3.37-2.07,0-2.19-2.52-2.14-5.18-2.09v-3.52c2.76.07,5.11.07,5.11-1.88,0-1.28-1.26-1.9-3.06-1.9-2.07,0-3.47.69-4.25,2.59l-4-1.16c1.09-2.95,3.78-5,8.43-5s7.63,2.07,7.63,5.23a3.7,3.7,0,0,1-2.59,3.59,4.22,4.22,0,0,1,3,4.06c0,3.85-2.92,5.85-8.34,5.85C425.61,281.55,422.3,279.72,421.31,275.94Z" fill="#fff"/><path d="M158.73,389.35a26,26,0,1,0-26-26,26,26,0,0,0,26,26" fill="#8e6aae"/><path d="M147,360.7h3.42l0,1.48a3.26,3.26,0,0,1,3.09-1.75c2.62,0,4.22,1.89,4.22,5.23s-1.48,5.37-4,5.37a3.53,3.53,0,0,1-3.29-1.63v4.84H147Zm7.25,5c0-1.69-.62-2.49-1.92-2.49s-2,1-2,2.51.8,2.49,2,2.49S154.26,367.37,154.26,365.68Z" fill="#fff"/><path d="M158.56,369.25l1.79-2a4.74,4.74,0,0,0,3.52,1.19c1.3,0,1.59-.25,1.59-.68s-.39-.47-2.26-.68c-2.51-.29-4.18-.93-4.18-3.36s2.1-3.29,4.74-3.29a8.59,8.59,0,0,1,4.61,1.07l-1.56,2.25a5.25,5.25,0,0,0-3.17-.82c-1.34,0-1.5.33-1.5.62s.29.54,1.87.66c2.27.18,4.78.64,4.78,3.34C168.8,370,167,371,164,371,161.49,371,159.76,370.42,158.56,369.25Z" fill="#fff"/><path d="M293.7,389.35a26,26,0,1,0-26-26,26,26,0,0,0,26,26" fill="#44c2f1"/><path d="M301.23,363.53v3.61h-2.85v4h-4.77v-4H283.7v-4a42.81,42.81,0,0,0,9.88-10h4.8v10.36Zm-7.51-4.8a23.48,23.48,0,0,1-4.8,4.8h4.8Z" fill="#fff"/><path d="M431,389.35a26,26,0,1,0-26-26,26,26,0,0,0,26,26" fill="#d34b01"/><path d="M438.58,363.53v3.61h-2.85v4H431v-4H421v-4a42.79,42.79,0,0,0,9.88-10h4.8v10.36Zm-7.51-4.8a23.51,23.51,0,0,1-4.8,4.8h4.8Z" fill="#fff"/><rect x="514.45" y="77.77" width="138.56" height="38.87" fill="#52b648"/><path d="M569.88,97.94V90.25h3.38v7.49c0,2.07.6,2.88,2.87,2.88s2.85-.81,2.85-2.88V90.25h3.38v7.68c0,4-2.43,5.68-6.25,5.68C572,103.62,569.88,101.72,569.88,97.94Z" fill="#fff"/><path d="M584.21,90.25h4.11L591.26,94l2.85-3.78h3.68L593,96.31l5.42,7h-4.11l-3.44-4.44-3.38,4.44h-3.68l5.3-6.68Z" fill="#fff"/><rect x="514.45" y="165.62" width="138.56" height="38.87" fill="#52b648"/><path d="M550.47,182.23h3l0,1.31a2.9,2.9,0,0,1,2.74-1.55c2.33,0,3.75,1.67,3.75,4.64s-1.31,4.77-3.54,4.77a3.14,3.14,0,0,1-2.92-1.45v4.3h-3Zm6.44,4.42c0-1.5-.55-2.21-1.71-2.21s-1.74.92-1.74,2.23.71,2.21,1.74,2.21S556.91,188.15,556.91,186.65Z" fill="#fff"/><path d="M561.65,182.23h3l0,1.09a2.36,2.36,0,0,1,2-1.24,2.1,2.1,0,0,1,1.5.48l-1.23,2.73h0a1.19,1.19,0,0,0-1-.42c-.86,0-1.24.52-1.24,1.68v4.61h-3Z" fill="#fff"/><path d="M568.45,186.8a4.78,4.78,0,0,1,9.57-.1,4.78,4.78,0,0,1-9.57.1Zm6.53-.09c0-1.5-.59-2.26-1.73-2.26s-1.74.71-1.74,2.24.6,2.38,1.74,2.38S575,188.2,575,186.72Z" fill="#fff"/><path d="M579.1,186.63c0-3,1.45-4.64,3.73-4.64a3,3,0,0,1,2.76,1.42v-5.3h3v13.05h-3l0-1.31a3,3,0,0,1-2.85,1.55C580.39,191.4,579.1,189.62,579.1,186.63Zm6.54,0c0-1.31-.64-2.23-1.79-2.23s-1.69.69-1.69,2.21.54,2.19,1.69,2.19S585.64,188,585.64,186.67Z" fill="#fff"/><path d="M590.77,188.38v-6.15h3v5.09c0,.9.31,1.5,1.23,1.5,1.14,0,1.76-.6,1.76-2.5v-4.09h3v8.93h-3l0-1.57a3.42,3.42,0,0,1-3.16,1.81C591.95,191.4,590.77,190.53,590.77,188.38Z" fill="#fff"/><path d="M601.45,186.8a4.49,4.49,0,0,1,4.68-4.82,4.22,4.22,0,0,1,4.33,2.76L608,186a1.87,1.87,0,0,0-1.78-1.5c-1.11,0-1.71.71-1.71,2.24s.59,2.38,1.73,2.38a1.81,1.81,0,0,0,1.76-1.62l2.57,1.12a4.32,4.32,0,0,1-4.44,2.88A4.41,4.41,0,0,1,601.45,186.8Z" fill="#fff"/><path d="M611.32,184.63v-2.4h1.45V181a19.24,19.24,0,0,0,2.9-2.28h.14v3.52h1.83v2.4h-1.83v3.3c0,.48.14.76.67.76a1.69,1.69,0,0,0,.85-.19h0v2.56a5.68,5.68,0,0,1-2,.34,2.6,2.6,0,0,1-2.05-.62,2.85,2.85,0,0,1-.55-2v-4.18Z" fill="#fff"/><rect x="514.45" y="253.47" width="138.56" height="38.87" fill="#52b648"/><path d="M532.12,276.41v-4.52c0-.88-.33-1.26-1-1.26-.89,0-1.26.56-1.26,1.89v3.89h-2.66v-7.82h2.66l0,1.21a2.59,2.59,0,0,1,2.33-1.42,2.26,2.26,0,0,1,2.36,1.27,2.87,2.87,0,0,1,2.53-1.27,2.31,2.31,0,0,1,2.62,2.63v5.4H537v-4.52c0-.88-.33-1.26-1-1.26-.89,0-1.25.56-1.25,1.89v3.89Z" fill="#fff"/><path d="M545.22,274.6a1.71,1.71,0,0,0,1.8-1l2.25.71a4.07,4.07,0,0,1-4,2.33,4.15,4.15,0,1,1,0-8.3c2,0,4.38,1.12,4.08,4.76h-5.7A1.57,1.57,0,0,0,545.22,274.6Zm1.53-3a1.35,1.35,0,0,0-1.54-1.17,1.39,1.39,0,0,0-1.6,1.17Z" fill="#fff"/><path d="M550.71,268.59h2.66l0,1a2.07,2.07,0,0,1,1.77-1.09,1.84,1.84,0,0,1,1.32.42l-1.07,2.39h0a1,1,0,0,0-.86-.36c-.76,0-1.09.46-1.09,1.47v4h-2.66Z" fill="#fff"/><path d="M556.67,272.6a3.93,3.93,0,0,1,4.1-4.22,3.7,3.7,0,0,1,3.8,2.42l-2.15,1.06a1.64,1.64,0,0,0-1.56-1.32c-1,0-1.5.62-1.5,2s.51,2.09,1.51,2.09a1.58,1.58,0,0,0,1.54-1.42l2.25,1a3.78,3.78,0,0,1-3.89,2.53A3.86,3.86,0,0,1,556.67,272.6Z" fill="#fff"/><path d="M565.9,265h2.66v5a2.93,2.93,0,0,1,2.74-1.56,2.31,2.31,0,0,1,2.54,2.65v5.38h-2.66V272c0-.79-.27-1.32-1.07-1.32-1,0-1.54.53-1.54,2.19v3.59H565.9Z" fill="#fff"/><path d="M579.15,270.47a2.6,2.6,0,0,0-2.18,1L575.29,270a5.38,5.38,0,0,1,4.18-1.66c1.68,0,3.46.38,3.46,2.52v3c0,.7.21.85.59.85a.82.82,0,0,0,.39-.08H584l-.51,1.72a3.43,3.43,0,0,1-1.06.18,1.86,1.86,0,0,1-1.91-1,3.23,3.23,0,0,1-2.68,1.16c-1.54,0-2.66-.68-2.66-2.24,0-2.25,2.27-2.69,5.25-2.86C580.39,270.74,580.23,270.47,579.15,270.47Zm1.3,2.69c-1.65,0-2.72.32-2.72,1,0,.39.33.56.77.56C579.31,274.77,580.45,274.21,580.45,273.16Z" fill="#fff"/><path d="M585.23,268.59h2.66l0,1.38a3,3,0,0,1,2.77-1.59,2.31,2.31,0,0,1,2.54,2.65v5.38h-2.66V272c0-.79-.27-1.32-1.07-1.32-1,0-1.54.53-1.54,2.19v3.59h-2.66Z" fill="#fff"/><path d="M594.58,272.45c0-2.6,1.27-4.07,3.27-4.07a2.59,2.59,0,0,1,2.42,1.24V265h2.66v11.43h-2.66l0-1.15a2.59,2.59,0,0,1-2.5,1.36C595.71,276.63,594.58,275.07,594.58,272.45Zm5.73,0c0-1.15-.56-2-1.57-2s-1.48.61-1.48,1.94.47,1.92,1.48,1.92S600.31,273.63,600.31,272.48Z" fill="#fff"/><path d="M604.93,265h2.66v2.54h-2.66Zm0,3.6h2.66v7.82h-2.66Z" fill="#fff"/><path d="M608.8,275.25l1.39-1.54a3.68,3.68,0,0,0,2.74.92c1,0,1.24-.2,1.24-.53s-.3-.36-1.75-.53c-2-.23-3.25-.73-3.25-2.62s1.63-2.56,3.69-2.56a6.7,6.7,0,0,1,3.59.83L615.23,271a4.08,4.08,0,0,0-2.47-.63c-1,0-1.16.26-1.16.49s.23.42,1.45.51c1.77.14,3.72.5,3.72,2.6,0,1.87-1.42,2.69-3.73,2.69A5.78,5.78,0,0,1,608.8,275.25Z" fill="#fff"/><path d="M618.17,265h2.66v2.54h-2.66Zm0,3.6h2.66v7.82h-2.66Z" fill="#fff"/><path d="M622.85,268.59h2.66l0,1.38a3,3,0,0,1,2.77-1.59,2.31,2.31,0,0,1,2.54,2.65v5.38h-2.66V272c0-.79-.27-1.32-1.07-1.32-1,0-1.54.53-1.54,2.19v3.59h-2.66Z" fill="#fff"/><path d="M632.57,271.09c0-1.8,1.39-2.71,3.51-2.71a3.5,3.5,0,0,1,3.11,1.25,1.71,1.71,0,0,1,1.82-1.21v2.22h0c-.83-.18-1.24.16-1.42,1-.32,1.44-1.44,2.12-3.48,2.12a5.09,5.09,0,0,1-1.5-.2.5.5,0,0,0-.26.45c0,.42.29.5,2.16.53,2.42,0,4.1.3,4.1,2.36s-1.63,2.68-4.57,2.68-4-.51-4-1.89c0-.82.6-1.16,1.25-1.39a1.4,1.4,0,0,1-1-1.47,1.81,1.81,0,0,1,1.41-1.68A2.38,2.38,0,0,1,632.57,271.09Zm1.71,6c0,.51.5.74,1.79.74,1.62,0,2-.13,2-.65s-.24-.56-2.1-.59a12.29,12.29,0,0,1-1.41-.08A.8.8,0,0,0,634.27,277.1Zm3.09-6c0-.67-.47-.92-1.24-.92s-1.23.3-1.23.92.47.91,1.23.91S637.36,271.76,637.36,271.11Z" fill="#fff"/><rect x="514.45" y="344.69" width="138.56" height="38.87" fill="#52b648"/><path d="M545.39,370.22v-5.16c0-1-.38-1.43-1.12-1.43-1,0-1.43.64-1.43,2.16v4.44h-3V361.3h3l0,1.38a3,3,0,0,1,2.66-1.62,2.58,2.58,0,0,1,2.69,1.45,3.27,3.27,0,0,1,2.88-1.45c1.73,0,3,.73,3,3v6.16h-3v-5.16c0-1-.38-1.43-1.12-1.43-1,0-1.43.64-1.43,2.16v4.44Z" fill="#fff"/><path d="M560.09,363.44a3,3,0,0,0-2.49,1.11L555.69,363a6.14,6.14,0,0,1,4.76-1.9c1.92,0,4,.43,4,2.89v3.37c0,.8.24,1,.67,1a1,1,0,0,0,.45-.09h.07l-.59,2a3.91,3.91,0,0,1-1.21.21,2.13,2.13,0,0,1-2.18-1.17,3.68,3.68,0,0,1-3.06,1.33c-1.76,0-3-.78-3-2.56,0-2.57,2.59-3.07,6-3.26C561.51,363.75,561.33,363.44,560.09,363.44Zm1.48,3.07c-1.88,0-3.11.36-3.11,1.19,0,.45.38.64.88.64C560.28,368.34,561.57,367.7,561.57,366.51Z" fill="#fff"/><path d="M567.05,361.3h3l0,1.09a2.36,2.36,0,0,1,2-1.24,2.1,2.1,0,0,1,1.5.49l-1.23,2.73h0a1.19,1.19,0,0,0-1-.41c-.86,0-1.24.52-1.24,1.67v4.61h-3Z" fill="#fff"/><path d="M577.76,370.22h-3V357.17h3v7.25l2.68-3.13h3.35l-3.23,3.44,3.51,5.49h-3.44l-2.07-3.35-.8.85Z" fill="#fff"/><path d="M589.08,368.15a2,2,0,0,0,2.05-1.09l2.57.81a4.64,4.64,0,0,1-4.59,2.66c-2.8,0-4.84-1.71-4.84-4.66a4.48,4.48,0,0,1,4.78-4.82c2.23,0,5,1.28,4.66,5.44h-6.51A1.8,1.8,0,0,0,589.08,368.15Zm1.74-3.4a1.54,1.54,0,0,0-1.76-1.33,1.59,1.59,0,0,0-1.83,1.33Z" fill="#fff"/><path d="M594.51,363.7v-2.4H596v-1.24a19.32,19.32,0,0,0,2.9-2.28H599v3.52h1.83v2.4H599V367c0,.48.14.76.67.76a1.7,1.7,0,0,0,.85-.19h0v2.56a5.7,5.7,0,0,1-2,.35,2.6,2.6,0,0,1-2.05-.62,2.86,2.86,0,0,1-.55-2V363.7Z" fill="#fff"/><path d="M602.45,357.19h3v2.9h-3Zm0,4.11h3v8.93h-3Z" fill="#fff"/><path d="M607.79,361.3h3l0,1.57a3.42,3.42,0,0,1,3.16-1.81c1.73,0,2.9.86,2.9,3v6.15h-3v-5.09c0-.9-.31-1.5-1.23-1.5-1.14,0-1.76.61-1.76,2.51v4.09h-3Z" fill="#fff"/><path d="M618.9,364.15c0-2.05,1.59-3.09,4-3.09,1.43,0,2.87.33,3.56,1.43a2,2,0,0,1,2.07-1.38v2.54h-.05c-.95-.21-1.42.19-1.62,1.09-.36,1.64-1.64,2.42-4,2.42a5.82,5.82,0,0,1-1.71-.23.57.57,0,0,0-.3.52c0,.48.33.57,2.47.6,2.76.05,4.68.35,4.68,2.7s-1.86,3.06-5.22,3.06-4.56-.59-4.56-2.16c0-.93.69-1.33,1.43-1.59a1.6,1.6,0,0,1-1.19-1.67,2.06,2.06,0,0,1,1.6-1.92A2.72,2.72,0,0,1,618.9,364.15Zm2,6.85c0,.59.57.85,2,.85,1.85,0,2.25-.16,2.25-.74s-.28-.64-2.4-.67a14.07,14.07,0,0,1-1.6-.09A.91.91,0,0,0,620.85,371Zm3.52-6.84c0-.76-.54-1.05-1.42-1.05s-1.4.34-1.4,1.05.54,1,1.4,1S624.37,364.9,624.37,364.16Z" fill="#fff"/><rect x="6.64" y="278.21" width="164.67" height="1.62" transform="translate(-188.64 185.75) rotate(-53.74)" fill="#0094c7"/><rect x="90.86" y="219.98" width="1.62" height="134.85" transform="translate(-170.15 137.55) rotate(-42.52)" fill="#0094c7"/><rect x="180.32" y="273.23" width="77.74" height="1.62" fill="#8e6aae"/><rect x="219.67" y="78.88" width="1.62" height="114.2" transform="translate(-30.77 199.04) rotate(-45.75)" fill="#8e6aae"/><rect x="170.13" y="141.96" width="102.45" height="1.62" transform="translate(-40.4 172.23) rotate(-39.24)" fill="#8e6aae"/><rect x="45.82" y="95.96" width="77.74" height="1.62" fill="#0094c7"/><polygon points="123.26 100.52 126.99 96.79 123.26 93.06 123.26 100.52" fill="#0094c7"/><rect x="-36.02" y="232.48" width="240.6" height="1.62" transform="translate(-163.39 219.75) rotate(-67.01)" fill="#0094c7"/><polygon points="134.48 124.7 132.51 119.8 127.61 121.78 134.48 124.7" fill="#0094c7"/><polygon points="262.48 113.92 263.22 108.69 257.99 107.96 262.48 113.92" fill="#8e6aae"/><polygon points="258.84 178.4 264.08 177.75 263.44 172.52 258.84 178.4" fill="#8e6aae"/><rect x="316.99" y="96.69" width="77.74" height="1.62" fill="#44c2f1"/><polygon points="394.56 101.14 398.29 97.41 394.56 93.68 394.56 101.14" fill="#44c2f1"/><rect x="316.99" y="185.52" width="77.74" height="1.62" fill="#44c2f1"/><polygon points="394.56 189.98 398.29 186.25 394.56 182.52 394.56 189.98" fill="#44c2f1"/><rect x="316.99" y="272.82" width="77.74" height="1.62" fill="#44c2f1"/><polygon points="394.56 277.28 398.29 273.55 394.56 269.82 394.56 277.28" fill="#44c2f1"/><rect x="316.99" y="362.57" width="77.74" height="1.62" fill="#44c2f1"/><polygon points="394.56 367.03 398.29 363.3 394.56 359.56 394.56 367.03" fill="#44c2f1"/><polygon points="257.38 277.57 261.12 273.84 257.38 270.11 257.38 277.57" fill="#8e6aae"/><rect x="180.32" y="362.05" width="77.74" height="1.62" fill="#8e6aae"/><polygon points="257.38 367.03 261.12 363.3 257.38 359.56 257.38 367.03" fill="#8e6aae"/><polygon points="133.68 339.5 138.95 339.5 138.95 334.22 133.68 339.5" fill="#0094c7"/><polygon points="140.24 216.41 139.51 211.19 134.28 211.92 140.24 216.41" fill="#0094c7"/><rect x="40.33" y="203.24" width="91.38" height="1.62" transform="translate(-71.52 48.43) rotate(-22.49)" fill="#0094c7"/><polygon points="128.86 190.37 131.33 185.71 126.67 183.23 128.86 190.37" fill="#0094c7"/><rect x="86.65" y="86.35" width="1.62" height="98.78" transform="translate(-72.74 115.49) rotate(-50)" fill="#0094c7"/><polygon points="122.93 170.12 128.17 169.57 127.62 164.32 122.93 170.12" fill="#0094c7"/><polygon points="503.27 277.45 507 273.72 503.27 269.99 503.27 277.45" fill="#52b648"/><rect x="453.51" y="272.72" width="50.07" height="1.62" fill="#52b648"/><polygon points="503.02 175.29 508.13 175.63 508.4 169.25 503.02 175.29" fill="#52b648"/><rect x="476.3" y="89.43" width="1.62" height="94.41" transform="translate(19.25 328.12) rotate(-38.68)" fill="#52b648"/></g></g></svg>