<svg xmlns="http://www.w3.org/2000/svg" xmlns:xlink="http://www.w3.org/1999/xlink" viewBox="0 0 628.24 509.5"><defs><linearGradient id="d4ec5842-765a-4afb-9fd3-4d3556da5eee" x1="661.83" y1="279.08" x2="443.18" y2="301.7" gradientUnits="userSpaceOnUse"><stop offset="0" stop-color="#fff"/><stop offset="1" stop-color="#dfe1e1"/></linearGradient></defs><title>next-steps</title><g id="8c1740cd-df52-42cd-b8df-a31e204d6bfe" data-name="Layer 2"><g id="0b0e9ca0-50ad-4d0d-82d1-683e5f3e5835" data-name="Layer 1"><path d="M173.14,333.59" transform="translate(0 -3.07)" fill="none" stroke="#313335" stroke-miterlimit="10" stroke-width="0.93"/><path d="M628.24,111.5v-4.82c-95,1.5-391.87,42.89-465.37,136.9-38.7,49.5,185.53,64.89,188.59,141.08,1.69,42-76.37,68.48-287.5,82.65L31,443.77,0,483l127.36,29.57-26.52-18.93c105.23-5.1,205-25.45,262.94-65.05,130.5-89.16-172.41-132.12-178.84-176.46C180.39,220.77,398.78,122.09,628.24,111.5Z" transform="translate(0 -3.07)" opacity="0.59" fill="url(#d4ec5842-765a-4afb-9fd3-4d3556da5eee)"/><path d="M198.22,333.23" transform="translate(0 -3.07)" fill="none" stroke="#323335" stroke-miterlimit="10" stroke-width="1.01"/><path d="M290.19,69h0a38,38,0,0,1,38,38v0a38,38,0,0,1-38,38h-38a0,0,0,0,1,0,0V107A38,38,0,0,1,290.19,69Z" transform="translate(9.34 233.47) rotate(-45)" fill="#fff" stroke="#43c1f0" stroke-miterlimit="10" stroke-width="2.37"/><path d="M252.16,69.24l2.17-1.87.78,1a3.51,3.51,0,0,1,0-1.41,2.72,2.72,0,0,1,1-1.38,3.17,3.17,0,0,1,2.7-.83,5,5,0,0,1,2.82,1.85,5.46,5.46,0,0,1,1.5,3.08A2.88,2.88,0,0,1,262,72.12a3.6,3.6,0,0,1-1.48.82,2.73,2.73,0,0,1-1.49-.07l2.64,3.07-2.17,1.87Zm7.46,1.83q1.22-1.05-.15-2.64t-2.58-.52a1.43,1.43,0,0,0-.52,1.22,2.39,2.39,0,0,0,.64,1.44,2.35,2.35,0,0,0,1.33.84A1.44,1.44,0,0,0,259.62,71.07Z" transform="translate(0 -3.07)" fill="#3294b0"/><path d="M261.3,62l2.48-1.43.48.9a2.31,2.31,0,0,1,.29-1.17,2.07,2.07,0,0,1,.77-.79,2.38,2.38,0,0,1,.81-.32,2,2,0,0,1,.64,0l.28,2.8,0,0a1.17,1.17,0,0,0-1,.13,1,1,0,0,0-.59.77,2.05,2.05,0,0,0,.36,1.18L268,67.81l-2.48,1.43Z" transform="translate(0 -3.07)" fill="#3294b0"/><path d="M275.22,64.82a5.38,5.38,0,0,1-1.8.33,4,4,0,0,1-1.63-.33,3.83,3.83,0,0,1-1.34-1,4.92,4.92,0,0,1-.94-1.64,5.15,5.15,0,0,1-.32-1.9,4,4,0,0,1,1.45-3,5.18,5.18,0,0,1,1.61-.9,4.88,4.88,0,0,1,1.82-.3,4.09,4.09,0,0,1,3,1.4,4.72,4.72,0,0,1,.92,1.59,5.08,5.08,0,0,1,.32,1.9,3.91,3.91,0,0,1-1.47,2.94A5.26,5.26,0,0,1,275.22,64.82Zm-.74-2.12a1.4,1.4,0,0,0,1-1,2.8,2.8,0,0,0-.15-1.69q-.71-2-2.25-1.46a1.51,1.51,0,0,0-1,.89,2.45,2.45,0,0,0,.13,1.65,2.83,2.83,0,0,0,.95,1.42A1.42,1.42,0,0,0,274.48,62.7Z" transform="translate(0 -3.07)" fill="#3294b0"/><path d="M286,62.37a3.49,3.49,0,0,1-1.7-.16,2.79,2.79,0,0,1-1.23-1l.18,1.22-2.84.35L279,50.62l2.84-.35.6,5a4.23,4.23,0,0,1,.32-.53,2.31,2.31,0,0,1,.47-.49,2.88,2.88,0,0,1,.67-.39,3.46,3.46,0,0,1,.9-.22,3.17,3.17,0,0,1,2.71.81,5,5,0,0,1,1.32,3.11,5.45,5.45,0,0,1-.47,3.39A2.87,2.87,0,0,1,286,62.37Zm-1.43-2.22q1.6-.19,1.34-2.28T284.12,56a1.43,1.43,0,0,0-1.11.72,2.39,2.39,0,0,0-.27,1.56,2.35,2.35,0,0,0,.63,1.44A1.44,1.44,0,0,0,284.62,60.15Z" transform="translate(0 -3.07)" fill="#3294b0"/><path d="M291.12,49.67l2.86.12-.5,12.28L290.62,62Z" transform="translate(0 -3.07)" fill="#3294b0"/><path d="M298.1,59.07a1.87,1.87,0,0,0,.35,1.26,1.74,1.74,0,0,0,1.06.61,3,3,0,0,0,1.17,0,1.55,1.55,0,0,0,.93-.65l2.23,1.22a4,4,0,0,1-2,1.52,5.31,5.31,0,0,1-2.7.09,5.43,5.43,0,0,1-1.73-.64,4.12,4.12,0,0,1-1.24-1.12,3.86,3.86,0,0,1-.66-1.54,4.8,4.8,0,0,1,0-1.89,5.24,5.24,0,0,1,.69-1.8,3.88,3.88,0,0,1,2.75-1.82,5.23,5.23,0,0,1,1.86.06,5.53,5.53,0,0,1,1.53.56,3.89,3.89,0,0,1,1.29,1.12,4.06,4.06,0,0,1,.71,1.75,5.44,5.44,0,0,1-.23,2.45Zm3.65-.95a1.44,1.44,0,0,0-.31-1,1.8,1.8,0,0,0-1.08-.55,2.18,2.18,0,0,0-1.15,0,1.44,1.44,0,0,0-.78.86Z" transform="translate(0 -3.07)" fill="#3294b0"/><path d="M309.32,66.19l2.2-4.33a1.59,1.59,0,0,0,.23-1,1,1,0,0,0-.56-.64,1.14,1.14,0,0,0-1.15,0,3,3,0,0,0-1,1.24l-1.89,3.72-2.55-1.3,3.81-7.49,2.55,1.3-.62,1.14a3.4,3.4,0,0,1,1.35-.53,2.53,2.53,0,0,1,1.57.3,3.82,3.82,0,0,1,1.24,1,1.9,1.9,0,0,1,.4,1.41,3.13,3.13,0,0,1,1.55-.4,3.56,3.56,0,0,1,1.49.41,4.34,4.34,0,0,1,.94.64,2.16,2.16,0,0,1,.58.82,2.25,2.25,0,0,1,.13,1,3.73,3.73,0,0,1-.42,1.3l-2.63,5.17L314,68.58l2.2-4.33a1.59,1.59,0,0,0,.23-1,1,1,0,0,0-.56-.64,1.14,1.14,0,0,0-1.15,0,3,3,0,0,0-1,1.24l-1.89,3.72Z" transform="translate(0 -3.07)" fill="#3294b0"/><path d="M320.23,73.79a8.28,8.28,0,0,1-1.74-2.08,5,5,0,0,1-.64-2.08l2.22-.23a4.62,4.62,0,0,0,.13.64,3.67,3.67,0,0,0,.25.65,3.71,3.71,0,0,0,.44.68,6.3,6.3,0,0,0,.71.74,2.54,2.54,0,0,0,.9.61.46.46,0,0,0,.47-.15.38.38,0,0,0,.12-.24A.55.55,0,0,0,323,72a4.5,4.5,0,0,0-.37-.45l-.64-.71a12.07,12.07,0,0,1-.89-1.15,3.32,3.32,0,0,1-.5-1.1,2.18,2.18,0,0,1,0-1.08,2.78,2.78,0,0,1,.66-1.1,2.44,2.44,0,0,1,1.08-.74,2.49,2.49,0,0,1,1.2-.07,3.8,3.8,0,0,1,1.26.49,7.81,7.81,0,0,1,1.25.93,8.93,8.93,0,0,1,1.58,1.79,5,5,0,0,1,.69,1.45l-2.23.53a3.83,3.83,0,0,0-.42-1,5.4,5.4,0,0,0-1.09-1.25,3.56,3.56,0,0,0-.53-.41,1.32,1.32,0,0,0-.36-.16.38.38,0,0,0-.24,0,.45.45,0,0,0-.16.11.37.37,0,0,0-.09.19.45.45,0,0,0,.07.27,2.49,2.49,0,0,0,.28.41q.2.24.54.59a12.8,12.8,0,0,1,.94,1.09,4.43,4.43,0,0,1,.67,1.18,2.56,2.56,0,0,1,.14,1.23,2.37,2.37,0,0,1-.65,1.25,2.43,2.43,0,0,1-2.27.92A5.4,5.4,0,0,1,320.23,73.79Z" transform="translate(0 -3.07)" fill="#3294b0"/><circle cx="289.8" cy="104.52" r="22.69" fill="#fff"/><circle cx="289.8" cy="104.52" r="22.69" fill="none" stroke="#17758f" stroke-linecap="round" stroke-miterlimit="10" stroke-width="1.87"/><circle cx="289.8" cy="104.52" r="18" fill="none" stroke="#17758f" stroke-linecap="round" stroke-miterlimit="10" stroke-width="1.87"/><circle cx="289.8" cy="104.52" r="13.3" fill="none" stroke="#17758f" stroke-linecap="round" stroke-miterlimit="10" stroke-width="1.87"/><circle cx="289.8" cy="104.52" r="8.61" fill="none" stroke="#17758f" stroke-linecap="round" stroke-miterlimit="10" stroke-width="1.87"/><circle cx="289.8" cy="104.52" r="3.91" fill="none" stroke="#17758f" stroke-linecap="round" stroke-miterlimit="10" stroke-width="1.87"/><rect x="288.66" y="103.37" width="2.28" height="2.28" rx="1.14" ry="1.14" fill="#17758f"/><rect x="292.14" y="103.44" width="3.13" height="2.16" fill="#fff"/><rect x="279.63" y="103.44" width="3.13" height="2.16" fill="#fff"/><rect x="288.72" y="94.34" width="2.16" height="3.13" fill="#fff"/><rect x="288.72" y="116.25" width="2.16" height="3.13" fill="#fff"/><rect x="310.92" y="103.44" width="3.13" height="2.16" fill="#fff"/><rect x="270.24" y="103.44" width="3.13" height="2.16" fill="#fff"/><line x1="289.8" y1="108.43" x2="289.8" y2="113.12" fill="none" stroke="#17758f" stroke-linecap="round" stroke-miterlimit="10" stroke-width="1.87"/><line x1="283.54" y1="98.26" x2="280.41" y2="95.13" fill="none" stroke="#17758f" stroke-linecap="round" stroke-miterlimit="10" stroke-width="1.87"/><line x1="296.06" y1="110.77" x2="299.19" y2="113.9" fill="none" stroke="#17758f" stroke-linecap="round" stroke-miterlimit="10" stroke-width="1.87"/><line x1="303.1" y1="104.52" x2="307.79" y2="104.52" fill="none" stroke="#17758f" stroke-linecap="round" stroke-miterlimit="10" stroke-width="1.87"/><line x1="289.8" y1="86.52" x2="289.8" y2="91.21" fill="none" stroke="#17758f" stroke-linecap="round" stroke-miterlimit="10" stroke-width="1.87"/><line x1="277.28" y1="117.03" x2="274.15" y2="120.16" fill="none" stroke="#17758f" stroke-miterlimit="10" stroke-width="1.87"/><circle cx="289.8" cy="169.89" r="5.46" fill="#fff" stroke="#3ec3f2" stroke-miterlimit="10" stroke-width="2.34"/><path d="M176.87,160.83h0a38,38,0,0,1,38,38v0a38,38,0,0,1-38,38h-38a0,0,0,0,1,0,0v-38a38,38,0,0,1,38-38Z" transform="translate(-88.79 180.24) rotate(-45)" fill="#fff" stroke="#43c1f0" stroke-miterlimit="10" stroke-width="2.37"/><path d="M129.29,166.61l1.78-2.24,4.18,3.31A3.49,3.49,0,0,1,135,166a3.24,3.24,0,0,1,.77-1.71,2.9,2.9,0,0,1,1.74-1.14,2.77,2.77,0,0,1,2.18.76l4.54,3.59-1.78,2.24-3.76-3a1.86,1.86,0,0,0-1-.44,1,1,0,0,0-.87.47,1.53,1.53,0,0,0-.37,1.28,2.94,2.94,0,0,0,1.19,1.49l3,2.39-1.78,2.24Z" transform="translate(0 -3.07)" fill="#3294b0"/><path d="M139.38,160.49l2.37-2,4.41,2.67-1.73-4.87,2.16-1.78,2.57,8.22a14.75,14.75,0,0,1,.49,2,3.51,3.51,0,0,1,0,1.43,3.14,3.14,0,0,1-1.13,1.65,3.54,3.54,0,0,1-.73.48,2,2,0,0,1-.67.19l-1.48-1.79.08-.06a1,1,0,0,0,.46-.05,1.7,1.7,0,0,0,.56-.32,1.55,1.55,0,0,0,.55-.71,1.3,1.3,0,0,0-.06-.79Z" transform="translate(0 -3.07)" fill="#3294b0"/><path d="M148.85,153.13l2.55-1.3.53,1.12a3.51,3.51,0,0,1,.38-1.36,2.73,2.73,0,0,1,1.25-1.11,3.17,3.17,0,0,1,2.82-.17,5,5,0,0,1,2.31,2.46,5.45,5.45,0,0,1,.73,3.34,2.87,2.87,0,0,1-1.64,2.16,3.59,3.59,0,0,1-1.63.45,2.73,2.73,0,0,1-1.43-.42l1.84,3.6-2.55,1.3Zm6.81,3.55q1.43-.73.48-2.6T153.77,153A1.43,1.43,0,0,0,153,154a2.39,2.39,0,0,0,.28,1.55,2.36,2.36,0,0,0,1.09,1.13A1.44,1.44,0,0,0,155.67,156.68Z" transform="translate(0 -3.07)" fill="#3294b0"/><path d="M165.65,155.52a5.38,5.38,0,0,1-1.82.17,4,4,0,0,1-1.6-.47,3.82,3.82,0,0,1-1.25-1.1,4.91,4.91,0,0,1-.79-1.72,5.16,5.16,0,0,1-.15-1.93,4,4,0,0,1,1.71-2.84,5.19,5.19,0,0,1,1.69-.75,4.89,4.89,0,0,1,1.84-.14,4.09,4.09,0,0,1,2.84,1.65,4.72,4.72,0,0,1,.77,1.66A5.08,5.08,0,0,1,169,152a3.91,3.91,0,0,1-1.72,2.8A5.24,5.24,0,0,1,165.65,155.52Zm-.55-2.17a1.4,1.4,0,0,0,1-.87,2.8,2.8,0,0,0,0-1.69q-.53-2.06-2.11-1.66a1.51,1.51,0,0,0-1.05.8,2.45,2.45,0,0,0,0,1.66,2.82,2.82,0,0,0,.82,1.5A1.42,1.42,0,0,0,165.1,153.34Z" transform="translate(0 -3.07)" fill="#3294b0"/><path d="M169.82,148.06l-.17-2.25,1.36-.11-.09-1.17q.59-.44,1.28-1.06a15.51,15.51,0,0,0,1.28-1.29h.13l.26,3.31,1.72-.13.17,2.25-1.72.13.24,3.1a.92.92,0,0,0,.17.52.57.57,0,0,0,.52.15,2,2,0,0,0,.47-.08,1.12,1.12,0,0,0,.31-.15h0l.19,2.4a5.41,5.41,0,0,1-.72.27,5.09,5.09,0,0,1-1.12.2,4.61,4.61,0,0,1-1.18,0,1.46,1.46,0,0,1-.8-.4,1.89,1.89,0,0,1-.45-.7,4,4,0,0,1-.22-1.11l-.3-3.92Z" transform="translate(0 -3.07)" fill="#3294b0"/><path d="M178.5,141.39l2.85.29-.54,5.31a3.49,3.49,0,0,1,1.24-1.09,3.24,3.24,0,0,1,1.86-.28,2.9,2.9,0,0,1,1.9.85,2.76,2.76,0,0,1,.53,2.25l-.58,5.76-2.85-.29.48-4.77a1.87,1.87,0,0,0-.15-1,1,1,0,0,0-.86-.48,1.53,1.53,0,0,0-1.27.38,2.94,2.94,0,0,0-.62,1.8l-.39,3.83-2.85-.29Z" transform="translate(0 -3.07)" fill="#3294b0"/><path d="M190.53,152.21a1.87,1.87,0,0,0,.2,1.3,1.74,1.74,0,0,0,1,.73,3,3,0,0,0,1.16.17,1.55,1.55,0,0,0,1-.54l2.06,1.48a4,4,0,0,1-2.2,1.26,5.31,5.31,0,0,1-2.69-.24,5.43,5.43,0,0,1-1.64-.85,4.13,4.13,0,0,1-1.1-1.26,3.87,3.87,0,0,1-.47-1.61,4.81,4.81,0,0,1,.26-1.87,5.27,5.27,0,0,1,.9-1.7,3.88,3.88,0,0,1,3-1.47,5.24,5.24,0,0,1,1.84.28,5.53,5.53,0,0,1,1.45.74,3.89,3.89,0,0,1,1.15,1.27,4.06,4.06,0,0,1,.49,1.82,5.46,5.46,0,0,1-.53,2.4Zm3.74-.49a1.44,1.44,0,0,0-.18-1,1.8,1.8,0,0,0-1-.67,2.18,2.18,0,0,0-1.15-.1,1.44,1.44,0,0,0-.88.75Z" transform="translate(0 -3.07)" fill="#3294b0"/><path d="M199.32,160.07a8.27,8.27,0,0,1-2.13-1.67,5,5,0,0,1-1.06-1.9l2.12-.69a4.63,4.63,0,0,0,.26.6,3.61,3.61,0,0,0,.38.58,3.69,3.69,0,0,0,.57.57,6.29,6.29,0,0,0,.85.57,2.54,2.54,0,0,0,1,.41.46.46,0,0,0,.43-.24.39.39,0,0,0,.07-.26.56.56,0,0,0-.18-.25,4.48,4.48,0,0,0-.46-.36l-.78-.56a12,12,0,0,1-1.11-.94,3.33,3.33,0,0,1-.72-1,2.17,2.17,0,0,1-.21-1.06,2.77,2.77,0,0,1,.41-1.22,2.45,2.45,0,0,1,.9-.94,2.5,2.5,0,0,1,1.16-.32,3.8,3.8,0,0,1,1.33.21,7.84,7.84,0,0,1,1.42.65,8.91,8.91,0,0,1,1.92,1.42,5,5,0,0,1,1,1.27l-2.07,1a3.84,3.84,0,0,0-.63-.91,5.38,5.38,0,0,0-1.33-1,3.52,3.52,0,0,0-.6-.29,1.3,1.3,0,0,0-.39-.08.38.38,0,0,0-.23.06.45.45,0,0,0-.13.14.37.37,0,0,0-.05.2.45.45,0,0,0,.12.25,2.55,2.55,0,0,0,.36.34q.24.2.65.47a12.94,12.94,0,0,1,1.15.87,4.43,4.43,0,0,1,.9,1,2.56,2.56,0,0,1,.39,1.17,2.37,2.37,0,0,1-.37,1.36,2.43,2.43,0,0,1-2,1.37A5.4,5.4,0,0,1,199.32,160.07Z" transform="translate(0 -3.07)" fill="#3294b0"/><path d="M207.7,161.31a1.87,1.87,0,0,0-.33,1.27,1.74,1.74,0,0,0,.61,1.06,3,3,0,0,0,1,.61,1.55,1.55,0,0,0,1.13-.1l1.31,2.18a4,4,0,0,1-2.52.29,5.32,5.32,0,0,1-2.38-1.28,5.44,5.44,0,0,1-1.17-1.42,4.13,4.13,0,0,1-.51-1.59,3.87,3.87,0,0,1,.2-1.67,4.8,4.8,0,0,1,1-1.62,5.25,5.25,0,0,1,1.5-1.21,3.88,3.88,0,0,1,3.29-.19,5.23,5.23,0,0,1,1.58,1,5.52,5.52,0,0,1,1,1.25,3.89,3.89,0,0,1,.55,1.62,4.06,4.06,0,0,1-.26,1.87,5.45,5.45,0,0,1-1.43,2Zm3.63,1a1.44,1.44,0,0,0,.24-1,1.8,1.8,0,0,0-.66-1,2.18,2.18,0,0,0-1-.55,1.44,1.44,0,0,0-1.11.35Z" transform="translate(0 -3.07)" fill="#3294b0"/><path d="M212.71,172a8.28,8.28,0,0,1-1.31-2.37,5,5,0,0,1-.24-2.16l2.22.19a4.59,4.59,0,0,0,0,.65,3.67,3.67,0,0,0,.12.68,3.71,3.71,0,0,0,.3.75,6.34,6.34,0,0,0,.56.86,2.55,2.55,0,0,0,.77.77.46.46,0,0,0,.49-.05.38.38,0,0,0,.16-.22.56.56,0,0,0-.07-.31,4.47,4.47,0,0,0-.28-.51l-.5-.82a12.09,12.09,0,0,1-.66-1.3A3.33,3.33,0,0,1,214,167a2.19,2.19,0,0,1,.22-1.05,2.77,2.77,0,0,1,.85-1,2.45,2.45,0,0,1,1.2-.52,2.5,2.5,0,0,1,1.19.16,3.79,3.79,0,0,1,1.14.72,7.82,7.82,0,0,1,1.05,1.15,8.93,8.93,0,0,1,1.21,2.06,5,5,0,0,1,.4,1.55l-2.29.1a3.82,3.82,0,0,0-.22-1.09,5.38,5.38,0,0,0-.83-1.44,3.56,3.56,0,0,0-.44-.5,1.31,1.31,0,0,0-.32-.22.38.38,0,0,0-.23,0,.44.44,0,0,0-.17.08.37.37,0,0,0-.13.17.45.45,0,0,0,0,.27,2.48,2.48,0,0,0,.2.45q.15.28.42.68a12.84,12.84,0,0,1,.72,1.25,4.44,4.44,0,0,1,.43,1.28,2.56,2.56,0,0,1-.1,1.23,2.36,2.36,0,0,1-.87,1.11,2.42,2.42,0,0,1-2.4.47A5.4,5.4,0,0,1,212.71,172Z" transform="translate(0 -3.07)" fill="#3294b0"/><circle cx="176.87" cy="195.77" r="24.08" fill="#fff"/><line x1="169.11" y1="205.87" x2="184.64" y2="205.87" fill="none" stroke="#17758f" stroke-linecap="round" stroke-miterlimit="10" stroke-width="1.87"/><line x1="169.11" y1="208.98" x2="184.64" y2="208.98" fill="none" stroke="#17758f" stroke-linecap="round" stroke-miterlimit="10" stroke-width="1.87"/><polyline points="169.1 212.08 173.77 212.08 175.32 213.64 178.43 213.64 179.98 212.08 184.64 212.08" fill="none" stroke="#17758f" stroke-linecap="round" stroke-miterlimit="10" stroke-width="1.87"/><path d="M182.31,215.15V204.28c3.88-1.55,6.21-5.52,6.21-10.1a11.65,11.65,0,1,0-23.3,0c0,4.63,2.33,8.54,6.21,10.1v10.87" transform="translate(0 -3.07)" fill="none" stroke="#17758f" stroke-linecap="round" stroke-miterlimit="10" stroke-width="1.87"/><path d="M161.34,212h-4.66a24.15,24.15,0,0,0,35.93,5" transform="translate(0 -3.07)" fill="none" stroke="#17758f" stroke-linecap="round" stroke-linejoin="round" stroke-width="1.87"/><path d="M194.74,207.38l3.11,3.11A23.76,23.76,0,0,0,201,198.84a24.09,24.09,0,0,0-15.53-22.52" transform="translate(0 -3.07)" fill="none" stroke="#17758f" stroke-linecap="round" stroke-linejoin="round" stroke-width="1.87"/><path d="M176.87,178.64v-3.88a24.1,24.1,0,0,0-23.27,30.29" transform="translate(0 -3.07)" fill="none" stroke="#17758f" stroke-linecap="round" stroke-linejoin="round" stroke-width="1.87"/><circle cx="176.87" cy="190.72" r="8.15" fill="#17758f"/><polyline points="178.86 185.24 173.57 190.53 180.18 190.53 174.89 195.82" fill="none" stroke="#fff" stroke-linecap="round" stroke-miterlimit="10" stroke-width="1.32"/><circle cx="176.87" cy="261.32" r="5.42" fill="#fff" stroke="#3ec3f2" stroke-miterlimit="10" stroke-width="2.34"/><path d="M144.28,369.06h0a38,38,0,0,1,38,38v0a38,38,0,0,1-38,38h-38a0,0,0,0,1,0,0v-38A38,38,0,0,1,144.28,369.06Z" transform="translate(-245.59 218.19) rotate(-45)" fill="#fff" stroke="#43c1f0" stroke-miterlimit="10" stroke-width="2.37"/><path d="M94.38,378.88l1.47-2.46,2.34,1.4-1.47,2.46Zm3.32,2,1.47-2.46,7.21,4.32-1.47,2.46Z" transform="translate(0 -3.07)" fill="#3294b0"/><path d="M100.82,375.71l1.85-2.18,1.11,1a3.58,3.58,0,0,1-.2-1.66,3.23,3.23,0,0,1,.83-1.71,2.9,2.9,0,0,1,1.78-1.08,2.77,2.77,0,0,1,2.16.84l4.41,3.75-1.85,2.18-3.65-3.11a1.86,1.86,0,0,0-.94-.47,1,1,0,0,0-.88.43,1.53,1.53,0,0,0-.41,1.26,2.94,2.94,0,0,0,1.13,1.53l2.94,2.5-1.85,2.18Z" transform="translate(0 -3.07)" fill="#3294b0"/><path d="M108.2,367.4l2.44-1.87L115,368.6l-1.68-5.14,2.26-1.73,2.55,8.63-2.38,1.82Z" transform="translate(0 -3.07)" fill="#3294b0"/><path d="M121.94,363.93a1.87,1.87,0,0,0,1,.8,1.74,1.74,0,0,0,1.22-.15,3,3,0,0,0,1-.68,1.55,1.55,0,0,0,.35-1.08l2.52-.35a4,4,0,0,1-.72,2.43,5.33,5.33,0,0,1-2.11,1.69,5.44,5.44,0,0,1-1.77.52,4.13,4.13,0,0,1-1.67-.15,3.87,3.87,0,0,1-1.45-.84,4.81,4.81,0,0,1-1.11-1.53,5.27,5.27,0,0,1-.52-1.86,3.88,3.88,0,0,1,1.12-3.1,5.22,5.22,0,0,1,1.53-1.07,5.53,5.53,0,0,1,1.56-.46,3.89,3.89,0,0,1,1.71.13,4.05,4.05,0,0,1,1.62,1,5.45,5.45,0,0,1,1.28,2.1Zm2.36-2.94a1.44,1.44,0,0,0-.85-.62,1.8,1.8,0,0,0-1.19.21,2.18,2.18,0,0,0-.9.72,1.44,1.44,0,0,0-.12,1.15Z" transform="translate(0 -3.07)" fill="#3294b0"/><path d="M133.73,363.54a8.27,8.27,0,0,1-2.7.27,5.05,5.05,0,0,1-2.08-.64l1.06-2a4.62,4.62,0,0,0,.6.26,3.66,3.66,0,0,0,.68.16,3.7,3.7,0,0,0,.81,0,6.32,6.32,0,0,0,1-.17,2.54,2.54,0,0,0,1-.4.46.46,0,0,0,.14-.47.38.38,0,0,0-.13-.24.56.56,0,0,0-.31-.06,4.5,4.5,0,0,0-.58.06l-.95.13a12,12,0,0,1-1.45.09,3.32,3.32,0,0,1-1.19-.2,2.18,2.18,0,0,1-.88-.62,2.77,2.77,0,0,1-.54-1.16,2.45,2.45,0,0,1,0-1.31,2.5,2.5,0,0,1,.62-1,3.78,3.78,0,0,1,1.11-.76,7.81,7.81,0,0,1,1.47-.51,8.93,8.93,0,0,1,2.37-.29,5,5,0,0,1,1.58.25l-.82,2.14a3.82,3.82,0,0,0-1.08-.23,5.39,5.39,0,0,0-1.65.19,3.55,3.55,0,0,0-.64.21,1.3,1.3,0,0,0-.33.21.38.38,0,0,0-.13.2.44.44,0,0,0,0,.19.37.37,0,0,0,.1.18.45.45,0,0,0,.26.1,2.51,2.51,0,0,0,.49,0q.31,0,.79-.11a12.88,12.88,0,0,1,1.43-.17,4.42,4.42,0,0,1,1.35.11,2.55,2.55,0,0,1,1.09.58,2.37,2.37,0,0,1,.67,1.24,2.43,2.43,0,0,1-.52,2.39A5.4,5.4,0,0,1,133.73,363.54Z" transform="translate(0 -3.07)" fill="#3294b0"/><path d="M137.38,356.28l-.17-2.25,1.36-.1-.09-1.17q.59-.44,1.28-1.06a15.45,15.45,0,0,0,1.28-1.29h.13l.25,3.31,1.72-.13.17,2.25-1.72.13.23,3.1a.92.92,0,0,0,.17.52.58.58,0,0,0,.52.15,2,2,0,0,0,.47-.08,1.15,1.15,0,0,0,.31-.15h0l.18,2.4a5.39,5.39,0,0,1-.72.27,5.1,5.1,0,0,1-1.12.2,4.59,4.59,0,0,1-1.18,0,1.46,1.46,0,0,1-.8-.4,1.89,1.89,0,0,1-.44-.7,4,4,0,0,1-.21-1.11l-.29-3.92Z" transform="translate(0 -3.07)" fill="#3294b0"/><path d="M150,362.4l.76-4.8a1.59,1.59,0,0,0-.1-1.06,1,1,0,0,0-.73-.44,1.14,1.14,0,0,0-1.1.31,3,3,0,0,0-.55,1.48l-.65,4.13-2.83-.45,1.31-8.3,2.83.45-.24,1.28a3.4,3.4,0,0,1,1.12-.92,2.53,2.53,0,0,1,1.59-.2,3.81,3.81,0,0,1,1.48.53,1.9,1.9,0,0,1,.81,1.21,3.12,3.12,0,0,1,1.35-.86,3.56,3.56,0,0,1,1.54-.07,4.35,4.35,0,0,1,1.09.31,2.16,2.16,0,0,1,.8.6,2.24,2.24,0,0,1,.44,1,3.71,3.71,0,0,1,0,1.37l-.91,5.73-2.83-.45.76-4.8a1.59,1.59,0,0,0-.1-1.06,1,1,0,0,0-.73-.44,1.14,1.14,0,0,0-1.1.31,3,3,0,0,0-.55,1.48l-.65,4.13Z" transform="translate(0 -3.07)" fill="#3294b0"/><path d="M163,362.22a1.87,1.87,0,0,0,.05,1.31,1.74,1.74,0,0,0,.89.84,3,3,0,0,0,1.13.3,1.55,1.55,0,0,0,1.05-.42L168,366a4,4,0,0,1-2.32,1,5.32,5.32,0,0,1-2.65-.54,5.44,5.44,0,0,1-1.53-1,4.13,4.13,0,0,1-1-1.38,3.86,3.86,0,0,1-.29-1.65,4.8,4.8,0,0,1,.47-1.83,5.26,5.26,0,0,1,1.09-1.59,3.88,3.88,0,0,1,3.1-1.14,5.23,5.23,0,0,1,1.8.48,5.54,5.54,0,0,1,1.36.9,3.89,3.89,0,0,1,1,1.39,4.05,4.05,0,0,1,.29,1.87,5.45,5.45,0,0,1-.79,2.33Zm3.77-.08a1.44,1.44,0,0,0-.06-1,1.8,1.8,0,0,0-.92-.78,2.17,2.17,0,0,0-1.13-.23,1.44,1.44,0,0,0-1,.65Z" transform="translate(0 -3.07)" fill="#3294b0"/><path d="M173.12,361.88l2.28,1.73-.92,1.16a3.58,3.58,0,0,1,1.65-.29,3.24,3.24,0,0,1,1.75.73,2.9,2.9,0,0,1,1.18,1.72,2.77,2.77,0,0,1-.72,2.2l-3.5,4.61L172.56,372l2.9-3.82a1.86,1.86,0,0,0,.42-1,1,1,0,0,0-.48-.86,1.53,1.53,0,0,0-1.28-.34,2.93,2.93,0,0,0-1.46,1.22l-2.33,3.07L168,368.58Z" transform="translate(0 -3.07)" fill="#3294b0"/><path d="M179.9,370.21l1.66-1.53.92,1,.86-.79q.71.19,1.63.35a15.58,15.58,0,0,0,1.8.21l.09.1-2.44,2.24,1.17,1.27-1.66,1.53-1.17-1.27-2.29,2.1a.92.92,0,0,0-.3.45.58.58,0,0,0,.2.5,2,2,0,0,0,.35.31,1.12,1.12,0,0,0,.32.15l0,0-1.77,1.63a5.37,5.37,0,0,1-.66-.4,5,5,0,0,1-.85-.75,4.6,4.6,0,0,1-.7-.95,1.47,1.47,0,0,1-.18-.87,1.88,1.88,0,0,1,.27-.78,4,4,0,0,1,.74-.85l2.9-2.66Z" transform="translate(0 -3.07)" fill="#3294b0"/><path d="M181.9,382.77a8.28,8.28,0,0,1-1.14-2.46,5,5,0,0,1-.09-2.17l2.21.35a4.68,4.68,0,0,0,0,.65,3.7,3.7,0,0,0,.07.69,3.74,3.74,0,0,0,.25.77,6.37,6.37,0,0,0,.5.9,2.53,2.53,0,0,0,.71.83.46.46,0,0,0,.49,0,.38.38,0,0,0,.18-.2.55.55,0,0,0,0-.31,4.44,4.44,0,0,0-.25-.53l-.44-.85a12.13,12.13,0,0,1-.56-1.34,3.32,3.32,0,0,1-.2-1.19,2.17,2.17,0,0,1,.29-1,2.77,2.77,0,0,1,.92-.9,2.45,2.45,0,0,1,1.23-.43,2.5,2.5,0,0,1,1.18.24,3.8,3.8,0,0,1,1.09.79,7.81,7.81,0,0,1,1,1.22,8.91,8.91,0,0,1,1.06,2.14,5,5,0,0,1,.29,1.58l-2.29-.06a3.83,3.83,0,0,0-.14-1.1,5.38,5.38,0,0,0-.73-1.49,3.55,3.55,0,0,0-.4-.53,1.31,1.31,0,0,0-.31-.25.39.39,0,0,0-.23-.05.44.44,0,0,0-.18.07.36.36,0,0,0-.14.16.45.45,0,0,0,0,.28,2.51,2.51,0,0,0,.17.46q.13.28.37.71a12.93,12.93,0,0,1,.63,1.3,4.44,4.44,0,0,1,.34,1.31,2.55,2.55,0,0,1-.18,1.22,2.37,2.37,0,0,1-.95,1,2.43,2.43,0,0,1-2.43.3A5.4,5.4,0,0,1,181.9,382.77Z" transform="translate(0 -3.07)" fill="#3294b0"/><circle cx="144.28" cy="404.01" r="10.98" fill="#17758f"/><circle cx="144.28" cy="404.01" r="18.2" fill="none" stroke="#17758f" stroke-linecap="round" stroke-miterlimit="10" stroke-width="1.87"/><path d="M144.28,407.08c1.34.67,2.68,1.2,2.68,2.68a2.68,2.68,0,1,1-5.37,0" transform="translate(0 -3.07)" fill="none" stroke="#fff" stroke-miterlimit="10" stroke-width="1.56"/><path d="M144.28,407.08c-1.34-.67-2.68-1.2-2.68-2.68a2.68,2.68,0,1,1,5.37,0" transform="translate(0 -3.07)" fill="none" stroke="#fff" stroke-miterlimit="10" stroke-width="1.56"/><line x1="144.28" y1="398.64" x2="144.28" y2="396.63" fill="none" stroke="#fff" stroke-miterlimit="10" stroke-width="1.56"/><line x1="144.28" y1="409.38" x2="144.28" y2="411.39" fill="none" stroke="#fff" stroke-miterlimit="10" stroke-width="1.56"/><line x1="144.28" y1="389.25" x2="144.28" y2="377.13" fill="none" stroke="#17758f" stroke-linecap="round" stroke-miterlimit="10" stroke-width="1.87"/><line x1="144.28" y1="430.89" x2="144.28" y2="418.78" fill="none" stroke="#17758f" stroke-linecap="round" stroke-miterlimit="10" stroke-width="1.87"/><line x1="129.51" y1="404.01" x2="117.4" y2="404.01" fill="none" stroke="#17758f" stroke-linecap="round" stroke-miterlimit="10" stroke-width="1.87"/><line x1="171.16" y1="404.01" x2="159.05" y2="404.01" fill="none" stroke="#17758f" stroke-linecap="round" stroke-miterlimit="10" stroke-width="1.87"/><circle cx="144.44" cy="469.97" r="5.46" fill="#fff" stroke="#3ec3f2" stroke-miterlimit="10" stroke-width="2.34"/><path d="M369.24,280.85h0a38,38,0,0,1,38,38v0a38,38,0,0,1-38,38h-38a0,0,0,0,1,0,0v-38A38,38,0,0,1,369.24,280.85Z" transform="translate(-117.32 351.42) rotate(-45)" fill="#fff" stroke="#43c1f0" stroke-miterlimit="10" stroke-width="2.37"/><path d="M328.35,278.68l2.06-2,8.55,8.83-2.06,2Z" transform="translate(0 -3.07)" fill="#3294b0"/><path d="M340,280.11a1.87,1.87,0,0,0,1.16.61,1.74,1.74,0,0,0,1.17-.35,3,3,0,0,0,.83-.83,1.55,1.55,0,0,0,.16-1.12l2.42-.77a4,4,0,0,1-.29,2.52,5.32,5.32,0,0,1-1.8,2,5.45,5.45,0,0,1-1.66.81,4.12,4.12,0,0,1-1.67.13,3.86,3.86,0,0,1-1.57-.58,4.81,4.81,0,0,1-1.35-1.32,5.26,5.26,0,0,1-.83-1.74,3.88,3.88,0,0,1,.57-3.25,5.22,5.22,0,0,1,1.32-1.31,5.52,5.52,0,0,1,1.46-.72,3.89,3.89,0,0,1,1.7-.17,4.06,4.06,0,0,1,1.76.69,5.46,5.46,0,0,1,1.62,1.85Zm1.83-3.3a1.44,1.44,0,0,0-.94-.47,1.8,1.8,0,0,0-1.14.4,2.18,2.18,0,0,0-.77.86,1.44,1.44,0,0,0,.08,1.16Z" transform="translate(0 -3.07)" fill="#3294b0"/><path d="M350.64,272.17a2.8,2.8,0,0,0-.27-.51.69.69,0,0,0-.32-.26.84.84,0,0,0-.45,0,3.4,3.4,0,0,0-.67.22,3,3,0,0,0-1.23.85,2.83,2.83,0,0,0-.53,1l-2.24-.68a5,5,0,0,1,1.27-2,7,7,0,0,1,2.17-1.39,9.33,9.33,0,0,1,1.28-.43,3.48,3.48,0,0,1,1.25-.1,2.28,2.28,0,0,1,1.11.43,2.67,2.67,0,0,1,.84,1.16l1.23,2.92q.22.53.44.62a.62.62,0,0,0,.5,0,1,1,0,0,0,.22-.12l.14-.12.06,0,.21,1.92a2.16,2.16,0,0,1-.42.33,3.73,3.73,0,0,1-.55.29,4,4,0,0,1-.58.19,2.34,2.34,0,0,1-.61.07,1.72,1.72,0,0,1-.6-.12,1.37,1.37,0,0,1-.53-.37,3,3,0,0,1-.79,1.37,4.36,4.36,0,0,1-1.38.9,4.52,4.52,0,0,1-1.11.32,2.53,2.53,0,0,1-1,0,2,2,0,0,1-.84-.46,2.57,2.57,0,0,1-.62-.92,2.39,2.39,0,0,1-.18-1.53,2.93,2.93,0,0,1,.74-1.29,6.8,6.8,0,0,1,1.46-1.14Q349.56,272.7,350.64,272.17Zm-.56,4a2.4,2.4,0,0,0,.6-.38,2.34,2.34,0,0,0,.5-.57,1.94,1.94,0,0,0,.26-.69,1.34,1.34,0,0,0-.1-.76,6.86,6.86,0,0,0-1.86,1.07q-.63.56-.4,1.1a.49.49,0,0,0,.4.34A1.16,1.16,0,0,0,350.09,276.13Z" transform="translate(0 -3.07)" fill="#3294b0"/><path d="M355.4,267.17l2.8-.6.18,1a2.31,2.31,0,0,1,.64-1,2.08,2.08,0,0,1,1-.52,2.37,2.37,0,0,1,.87-.05,2,2,0,0,1,.61.2l-.59,2.75h0a1.17,1.17,0,0,0-1-.19,1,1,0,0,0-.8.55,2.05,2.05,0,0,0,0,1.23l.91,4.24-2.8.6Z" transform="translate(0 -3.07)" fill="#3294b0"/><path d="M363.65,265.56l2.86-.07V267a3.58,3.58,0,0,1,1.11-1.26,3.24,3.24,0,0,1,1.82-.52,2.9,2.9,0,0,1,2,.61,2.77,2.77,0,0,1,.81,2.17l.14,5.79-2.86.07-.12-4.79a1.86,1.86,0,0,0-.28-1,1,1,0,0,0-.91-.37,1.53,1.53,0,0,0-1.21.53,2.93,2.93,0,0,0-.38,1.86l.1,3.85-2.86.07Z" transform="translate(0 -3.07)" fill="#3294b0"/><path d="M375.23,265.75l2.83.39-1.15,8.33-2.83-.39Zm.53-3.83,2.83.39-.37,2.71-2.83-.39Z" transform="translate(0 -3.07)" fill="#3294b0"/><path d="M381.21,266.6l2.73.85-.47,1.4a3.58,3.58,0,0,1,1.45-.83,3.24,3.24,0,0,1,1.9.09,2.9,2.9,0,0,1,1.69,1.22,2.77,2.77,0,0,1,.07,2.31l-1.73,5.52-2.73-.85,1.43-4.58a1.86,1.86,0,0,0,.07-1.05,1,1,0,0,0-.74-.64,1.53,1.53,0,0,0-1.32.11,2.93,2.93,0,0,0-1,1.64l-1.15,3.68-2.73-.85Z" transform="translate(0 -3.07)" fill="#3294b0"/><path d="M391,275.32a2.88,2.88,0,0,1-.26-1.2,2.79,2.79,0,0,1,2.36-2.61,4.64,4.64,0,0,1,2.74.75,7.75,7.75,0,0,1,.83.56,4.62,4.62,0,0,1,.7.66,3.24,3.24,0,0,1,.49.76,2.25,2.25,0,0,1,.2.87,2.17,2.17,0,0,1,1.26-.5,1.89,1.89,0,0,1,1.08.36l-1.2,2.07,0,0a1.23,1.23,0,0,0-1-.41,1.52,1.52,0,0,0-.88.53,2.56,2.56,0,0,1-1.88.9,5,5,0,0,1-2.5-.81,7.11,7.11,0,0,1-.71-.47,4.16,4.16,0,0,1-.58-.52.56.56,0,0,0-.48.28.43.43,0,0,0-.06.27.59.59,0,0,0,.2.31,3.64,3.64,0,0,0,.57.43l1,.64q.83.5,1.49,1a4.61,4.61,0,0,1,1,1,2.06,2.06,0,0,1,.4,1.11,2.39,2.39,0,0,1-.39,1.31,2.76,2.76,0,0,1-1,1.06,2.3,2.3,0,0,1-1.26.28,4.81,4.81,0,0,1-1.56-.38,15,15,0,0,1-1.88-.94,15.71,15.71,0,0,1-1.66-1.09,4.45,4.45,0,0,1-1-1,1.69,1.69,0,0,1-.33-.92,1.79,1.79,0,0,1,.27-.93,1.19,1.19,0,0,1,.85-.64,3.08,3.08,0,0,1,1.07,0,1.67,1.67,0,0,1-.45-1,1.79,1.79,0,0,1,.27-.93,1.62,1.62,0,0,1,.45-.51,1.74,1.74,0,0,1,.54-.27,2,2,0,0,1,.6-.07A4.46,4.46,0,0,1,391,275.32ZM390,279a.91.91,0,0,0-.31.14.84.84,0,0,0-.23.26.63.63,0,0,0,.07.75,4.14,4.14,0,0,0,1.18.91q.56.33.94.51a2.62,2.62,0,0,0,.61.22.63.63,0,0,0,.38,0,.59.59,0,0,0,.25-.25.61.61,0,0,0,.1-.31.49.49,0,0,0-.17-.32,3.43,3.43,0,0,0-.54-.42l-1-.64q-.38-.22-.69-.43Zm3.93-3.32a1.8,1.8,0,0,0,1,.29.82.82,0,0,0,.69-.47.83.83,0,0,0,.08-.84,1.81,1.81,0,0,0-.73-.69,1.67,1.67,0,0,0-1-.28.85.85,0,0,0-.68.47.83.83,0,0,0-.07.81A1.71,1.71,0,0,0,393.92,275.64Z" transform="translate(0 -3.07)" fill="#3294b0"/><path d="M399.25,285.63a8.27,8.27,0,0,1-1.74-2.08,5,5,0,0,1-.65-2.08l2.22-.23a4.71,4.71,0,0,0,.13.64,3.61,3.61,0,0,0,.69,1.33,6.31,6.31,0,0,0,.71.74,2.54,2.54,0,0,0,.9.61.46.46,0,0,0,.47-.15.38.38,0,0,0,.12-.24.55.55,0,0,0-.12-.29,4.46,4.46,0,0,0-.37-.45l-.64-.71a12.09,12.09,0,0,1-.89-1.15,3.33,3.33,0,0,1-.5-1.1,2.18,2.18,0,0,1,0-1.08,2.78,2.78,0,0,1,.65-1.11,2.45,2.45,0,0,1,1.08-.74,2.49,2.49,0,0,1,1.2-.07,3.78,3.78,0,0,1,1.26.49,7.83,7.83,0,0,1,1.25.93,8.94,8.94,0,0,1,1.58,1.79,5,5,0,0,1,.69,1.45l-2.23.53a3.83,3.83,0,0,0-.42-1,5.39,5.39,0,0,0-1.09-1.25A3.55,3.55,0,0,0,403,280a1.32,1.32,0,0,0-.36-.16.39.39,0,0,0-.24,0,.45.45,0,0,0-.16.11.37.37,0,0,0-.09.19.45.45,0,0,0,.07.27,2.5,2.5,0,0,0,.28.4q.2.24.54.59a12.87,12.87,0,0,1,.94,1.09,4.43,4.43,0,0,1,.67,1.18,2.56,2.56,0,0,1,.14,1.23,2.37,2.37,0,0,1-.65,1.25,2.43,2.43,0,0,1-2.27.92A5.39,5.39,0,0,1,399.25,285.63Z" transform="translate(0 -3.07)" fill="#3294b0"/><polyline points="382.1 297.95 375.84 297.95 375.84 291.69" fill="none" stroke="#17758f" stroke-linecap="round" stroke-miterlimit="10" stroke-width="1.87"/><line x1="360.22" y1="296.38" x2="360.97" y2="296.38" fill="none" stroke="#17758f" stroke-linecap="round" stroke-linejoin="round" stroke-width="1.62"/><line x1="363.34" y1="296.38" x2="364.1" y2="296.38" fill="none" stroke="#17758f" stroke-linecap="round" stroke-linejoin="round" stroke-width="1.62"/><line x1="366.47" y1="296.38" x2="367.23" y2="296.38" fill="none" stroke="#17758f" stroke-linecap="round" stroke-linejoin="round" stroke-width="1.62"/><line x1="354.26" y1="301.08" x2="377.59" y2="301.08" fill="none" stroke="#17758f" stroke-linecap="round" stroke-linejoin="round" stroke-width="1.62"/><line x1="354.26" y1="304.21" x2="374.36" y2="304.21" fill="none" stroke="#17758f" stroke-linecap="round" stroke-linejoin="round" stroke-width="1.62"/><line x1="354.26" y1="307.34" x2="369.53" y2="307.34" fill="none" stroke="#17758f" stroke-linecap="round" stroke-linejoin="round" stroke-width="1.62"/><line x1="369.58" y1="328.46" x2="369.58" y2="315.94" fill="none" stroke="#17758f" stroke-linecap="round" stroke-linejoin="round" stroke-width="1.62"/><line x1="372.71" y1="328.46" x2="372.71" y2="322.2" fill="none" stroke="#17758f" stroke-linecap="round" stroke-linejoin="round" stroke-width="1.62"/><line x1="366.45" y1="328.46" x2="366.45" y2="318.83" fill="none" stroke="#17758f" stroke-linecap="round" stroke-linejoin="round" stroke-width="1.62"/><line x1="363.32" y1="328.46" x2="363.32" y2="318.29" fill="none" stroke="#17758f" stroke-linecap="round" stroke-linejoin="round" stroke-width="1.62"/><line x1="360.19" y1="328.46" x2="360.19" y2="322.2" fill="none" stroke="#17758f" stroke-linecap="round" stroke-linejoin="round" stroke-width="1.62"/><polyline points="375.84 333.94 350.8 333.94 350.8 291.69 375.84 291.69 382.1 297.95 382.1 303.43" fill="none" stroke="#17758f" stroke-linecap="round" stroke-linejoin="round" stroke-width="1.87"/><path d="M384.44,326.44v14.87a2.35,2.35,0,1,1-4.69,0V326.44" transform="translate(0 -3.07)" fill="#fff" stroke="#17758f" stroke-linecap="round" stroke-miterlimit="10" stroke-width="1.87"/><path d="M384.44,326.44v14.87a2.35,2.35,0,1,1-4.69,0V326.44" transform="translate(0 -3.07)" fill="none" stroke="#17758f" stroke-linecap="round" stroke-linejoin="round" stroke-width="1.87" opacity="0.8"/><circle cx="382.1" cy="314.77" r="8.61" fill="#fff" stroke="#17758f" stroke-linecap="round" stroke-miterlimit="10" stroke-width="1.87"/><circle cx="382.1" cy="314.77" r="8.61" fill="none" stroke="#17758f" stroke-linecap="round" stroke-linejoin="round" stroke-width="1.87" opacity="0.8"/><circle cx="369.24" cy="381.76" r="5.46" fill="#fff" stroke="#3ec3f2" stroke-miterlimit="10" stroke-width="2.34"/><path d="M456.64,21.2h0a38,38,0,0,1,38,38v0a38,38,0,0,1-38,38h-38a0,0,0,0,1,0,0v-38a38,38,0,0,1,38-38Z" transform="translate(91.87 337.17) rotate(-45)" fill="#fff" stroke="#43c1f0" stroke-miterlimit="10" stroke-width="2.37"/><path d="M436.65,14.82a2.88,2.88,0,0,1-1.1-.56,2.49,2.49,0,0,1-.74-1.08,2.5,2.5,0,0,1,.2-2.4,4.64,4.64,0,0,1,2.31-1.65,7.76,7.76,0,0,1,1-.29,4.61,4.61,0,0,1,1-.12,3.24,3.24,0,0,1,.9.1,2.25,2.25,0,0,1,.8.39,2.17,2.17,0,0,1,.41-1.29,1.89,1.89,0,0,1,1-.61l.84,2.24,0,0a1.23,1.23,0,0,0-.92.48,1.52,1.52,0,0,0-.15,1,2.56,2.56,0,0,1-.49,2,5,5,0,0,1-2.21,1.42,7.09,7.09,0,0,1-.81.25,4.17,4.17,0,0,1-.77.12.55.55,0,0,0-.09.55.43.43,0,0,0,.17.22.6.6,0,0,0,.36,0,3.65,3.65,0,0,0,.69-.17l1.15-.39q.92-.33,1.71-.53a4.63,4.63,0,0,1,1.42-.16,2.07,2.07,0,0,1,1.11.39,2.38,2.38,0,0,1,.77,1.13,2.76,2.76,0,0,1,.19,1.44,2.31,2.31,0,0,1-.58,1.16,4.81,4.81,0,0,1-1.28,1,15,15,0,0,1-1.92.86,15.83,15.83,0,0,1-1.89.6,4.46,4.46,0,0,1-1.36.14,1.69,1.69,0,0,1-.92-.33,1.79,1.79,0,0,1-.55-.8,1.19,1.19,0,0,1,0-1.07,3.07,3.07,0,0,1,.69-.81,1.67,1.67,0,0,1-1.05-.28,1.79,1.79,0,0,1-.55-.8,1.63,1.63,0,0,1-.11-.67,1.74,1.74,0,0,1,.13-.59,2,2,0,0,1,.32-.51A4.55,4.55,0,0,1,436.65,14.82Zm2.09-2.06a1.8,1.8,0,0,0,.83-.56.82.82,0,0,0,.07-.83.84.84,0,0,0-.6-.59,1.81,1.81,0,0,0-1,.13,1.67,1.67,0,0,0-.82.57.85.85,0,0,0-.06.82.83.83,0,0,0,.59.57A1.71,1.71,0,0,0,438.74,12.77Zm.1,5.14a.91.91,0,0,0-.08.33.83.83,0,0,0,.06.34.63.63,0,0,0,.63.42,4.13,4.13,0,0,0,1.45-.35q.61-.23,1-.41a2.62,2.62,0,0,0,.56-.33.63.63,0,0,0,.22-.31.6.6,0,0,0,0-.35.61.61,0,0,0-.18-.27.49.49,0,0,0-.35-.07,3.4,3.4,0,0,0-.67.16l-1.13.38-.77.26Z" transform="translate(0 -3.07)" fill="#3294b0"/><path d="M450.11,15a5.39,5.39,0,0,1-1.83,0,4,4,0,0,1-1.54-.64,3.83,3.83,0,0,1-1.12-1.23,4.92,4.92,0,0,1-.6-1.79,5.14,5.14,0,0,1,.06-1.93,3.95,3.95,0,0,1,2-2.64,5.17,5.17,0,0,1,1.76-.57,4.89,4.89,0,0,1,1.84.06,4.09,4.09,0,0,1,2.65,1.95,4.73,4.73,0,0,1,.59,1.74,5.07,5.07,0,0,1-.06,1.93,3.91,3.91,0,0,1-2,2.6A5.25,5.25,0,0,1,450.11,15Zm-.31-2.22a1.4,1.4,0,0,0,1.12-.75,2.8,2.8,0,0,0,.18-1.69q-.31-2.11-1.92-1.87A1.51,1.51,0,0,0,448,9.1a2.45,2.45,0,0,0-.2,1.65,2.83,2.83,0,0,0,.65,1.58A1.42,1.42,0,0,0,449.8,12.73Z" transform="translate(0 -3.07)" fill="#3294b0"/><path d="M461,9.17a2.77,2.77,0,0,0,0-.57.68.68,0,0,0-.17-.38.85.85,0,0,0-.39-.22,3.45,3.45,0,0,0-.69-.1,3,3,0,0,0-1.48.21,2.82,2.82,0,0,0-.93.67l-1.7-1.61a5,5,0,0,1,2-1.22,7,7,0,0,1,2.56-.27,9.33,9.33,0,0,1,1.34.19,3.5,3.5,0,0,1,1.17.47,2.28,2.28,0,0,1,.8.88,2.67,2.67,0,0,1,.23,1.42l-.21,3.16a1.14,1.14,0,0,0,.11.75.62.62,0,0,0,.46.2,1,1,0,0,0,.25,0l.17,0h.06L464,14.52a2.21,2.21,0,0,1-.52.1,3.82,3.82,0,0,1-.63,0,4.07,4.07,0,0,1-.6-.09,2.35,2.35,0,0,1-.58-.21,1.72,1.72,0,0,1-.48-.37,1.37,1.37,0,0,1-.3-.57,3,3,0,0,1-1.32.87,4.37,4.37,0,0,1-1.63.18,4.52,4.52,0,0,1-1.13-.22,2.53,2.53,0,0,1-.88-.49,2,2,0,0,1-.54-.79,2.57,2.57,0,0,1-.14-1.1,2.39,2.39,0,0,1,.53-1.45A2.93,2.93,0,0,1,457,9.59a6.8,6.8,0,0,1,1.82-.36Q459.82,9.15,461,9.17Zm-2.27,3.28a2.4,2.4,0,0,0,.71-.07,2.36,2.36,0,0,0,.7-.29,1.94,1.94,0,0,0,.55-.5,1.34,1.34,0,0,0,.25-.72,6.86,6.86,0,0,0-2.14.12q-.81.21-.85.8a.49.49,0,0,0,.2.48A1.16,1.16,0,0,0,458.75,12.45Z" transform="translate(0 -3.07)" fill="#3294b0"/><path d="M468.28,3.07l2.79.65-2.78,12L465.51,15Z" transform="translate(0 -3.07)" fill="#3294b0"/><path d="M473.37,17.65A8.26,8.26,0,0,1,471,16.31a5,5,0,0,1-1.32-1.73l2-1a4.52,4.52,0,0,0,.34.56,3.63,3.63,0,0,0,.46.52,3.68,3.68,0,0,0,.65.48,6.31,6.31,0,0,0,.92.45,2.54,2.54,0,0,0,1.06.26.46.46,0,0,0,.39-.3.38.38,0,0,0,0-.27.55.55,0,0,0-.22-.23,4.45,4.45,0,0,0-.51-.29l-.85-.44a12.07,12.07,0,0,1-1.23-.77,3.32,3.32,0,0,1-.85-.85,2.18,2.18,0,0,1-.36-1,2.78,2.78,0,0,1,.23-1.26,2.44,2.44,0,0,1,.76-1.06,2.5,2.5,0,0,1,1.1-.48,3.8,3.8,0,0,1,1.35,0,7.84,7.84,0,0,1,1.5.44,8.94,8.94,0,0,1,2.1,1.14,5,5,0,0,1,1.15,1.12l-1.91,1.27a3.85,3.85,0,0,0-.75-.82,5.4,5.4,0,0,0-1.46-.8,3.58,3.58,0,0,0-.64-.2,1.32,1.32,0,0,0-.39,0,.39.39,0,0,0-.22.09.45.45,0,0,0-.11.16.37.37,0,0,0,0,.21.45.45,0,0,0,.15.23,2.51,2.51,0,0,0,.4.28c.18.11.42.23.71.37a13,13,0,0,1,1.26.7,4.44,4.44,0,0,1,1,.88,2.56,2.56,0,0,1,.56,1.11,2.37,2.37,0,0,1-.17,1.4,2.43,2.43,0,0,1-1.81,1.65A5.4,5.4,0,0,1,473.37,17.65Z" transform="translate(0 -3.07)" fill="#3294b0"/><path d="M470.39,55.56,463,62.94,450.2,50.12,436,64.34c.05.24.11.48.17.72A22.54,22.54,0,0,0,479.81,65Z" transform="translate(0 -3.07)" fill="#fff"/><path d="M468.07,39.3a22.53,22.53,0,1,1-24.86,3.12" transform="translate(0 -3.07)" fill="none" stroke="#17758f" stroke-linecap="round" stroke-linejoin="round" stroke-width="1.87"/><polyline points="436.22 61.04 450.2 47.06 474.28 71.14" fill="none" stroke="#17758f" stroke-linecap="round" stroke-linejoin="round" stroke-width="1.87"/><polyline points="463.4 59.48 470.39 52.49 479.72 61.81" fill="none" stroke="#17758f" stroke-linecap="round" stroke-linejoin="round" stroke-width="1.87"/><rect x="450.2" y="29.97" width="11.65" height="7.77" fill="#17758f"/><line x1="450.2" y1="47.06" x2="450.2" y2="29.97" fill="none" stroke="#17758f" stroke-linecap="round" stroke-linejoin="round" stroke-width="1.87"/><path d="M468.06,74.2A17.76,17.76,0,0,1,458,77.31a18,18,0,0,1-17.09-12.43" transform="translate(0 -3.07)" fill="none" stroke="#17758f" stroke-linecap="round" stroke-linejoin="round" stroke-width="1.87"/><line x1="450.2" y1="51.72" x2="450.2" y2="52.49" fill="none" stroke="#17758f" stroke-linecap="round" stroke-linejoin="round" stroke-width="1.87"/><line x1="450.2" y1="54.91" x2="450.2" y2="55.6" fill="none" stroke="#17758f" stroke-linecap="round" stroke-linejoin="round" stroke-width="1.87"/><line x1="450.2" y1="58.08" x2="450.2" y2="58.71" fill="none" stroke="#17758f" stroke-linecap="round" stroke-linejoin="round" stroke-width="1.87"/><circle cx="455.25" cy="121.7" r="5.42" fill="#fff" stroke="#3ec3f2" stroke-miterlimit="10" stroke-width="2.34"/></g></g></svg>