<svg width="21px" height="18px" viewBox="0 0 21 18" version="1.1" xmlns="http://www.w3.org/2000/svg" xmlns:xlink="http://www.w3.org/1999/xlink">
    <title>Twitter</title>
    <g id="CH.me-Design" stroke="none" stroke-width="1" fill="none" fill-rule="evenodd">
        <g id="CH.me-Homepage" transform="translate(-192.000000, -6290.000000)" fill="#313335">
            <g id="Footer-#2" transform="translate(0.000000, 6191.000000)">
                <g id="Social" transform="translate(150.000000, 96.000000)">
                    <path d="M62.4207941,3.33276729 C61.5875898,3.8529685 60.6669159,4.23129666 59.6828825,4.43372529 C58.8990201,3.55134408 57.778736,3 56.5384615,3 C54.1610819,3 52.2317037,5.03466726 52.2317037,7.54397488 C52.2317037,7.90038768 52.2687101,8.24584281 52.3427229,8.57861011 C48.7620751,8.38886931 45.5879369,6.58200634 43.4617521,3.829323 C43.0905668,4.50293166 42.8786212,5.28438691 42.8786212,6.11659351 C42.8786212,7.69219186 43.6389341,9.08323988 44.7956639,9.89814488 C44.0902998,9.87622953 43.4247457,9.66976387 42.8427362,9.33180609 L42.8427362,9.38717119 C42.8427362,11.5896639 44.3280378,13.427093 46.3005901,13.8429079 C45.9394975,13.9496011 45.5582196,14.003236 45.165167,14.003236 C44.8876191,14.003236 44.6167997,13.9755535 44.3543908,13.9224953 C44.9027581,15.7270514 46.4929111,17.0413957 48.3785545,17.0765756 C46.9044669,18.2957611 45.0457373,19.022428 43.0277681,19.022428 C42.6801324,19.022428 42.3364216,19.0016661 42,18.9601423 C43.9063893,20.2473807 46.1721891,21 48.6045177,21 C56.530051,21 60.8626011,14.0770562 60.8626011,8.07167345 C60.8626011,7.87385858 60.8592369,7.67662042 60.8519478,7.48284259 C61.6935626,6.84210695 62.424719,6.04219666 63,5.13097946 C62.228473,5.49200602 61.3975115,5.7365352 60.5261795,5.84611195 C61.4160147,5.28438691 62.0989507,4.39393163 62.4207941,3.33276729" id="Twitter"></path>
                </g>
            </g>
        </g>
    </g>
</svg>
