<svg xmlns="http://www.w3.org/2000/svg" xmlns:xlink="http://www.w3.org/1999/xlink" viewBox="0 0 628.24 509.5"><defs><linearGradient id="9c70c2d0-e55b-4ccd-921b-56b1a1fef946" x1="661.83" y1="279.08" x2="443.18" y2="301.7" gradientUnits="userSpaceOnUse"><stop offset="0" stop-color="#fff"/><stop offset="1" stop-color="#dfe1e1"/></linearGradient></defs><title>Asset 1</title><g id="3b4e53ef-4ae1-46eb-b60e-5d8367a6f636" data-name="Layer 2"><g id="3c29a62f-ac60-4a3d-8990-a93614f01d1f" data-name="Layer 1"><path d="M173.14,333.59" transform="translate(0 -3.07)" fill="none" stroke="#313335" stroke-miterlimit="10" stroke-width="0.93"/><path d="M628.24,111.5v-4.82c-95,1.5-391.87,42.89-465.37,136.9-38.7,49.5,185.53,64.89,188.59,141.08,1.69,42-76.37,68.48-287.5,82.65L31,443.77,0,483l127.36,29.57-26.52-18.93c105.23-5.1,205-25.45,262.94-65.05,130.5-89.16-172.41-132.12-178.84-176.46C180.39,220.77,398.78,122.09,628.24,111.5Z" transform="translate(0 -3.07)" opacity="0.59" fill="url(#9c70c2d0-e55b-4ccd-921b-56b1a1fef946)"/><path d="M198.22,333.23" transform="translate(0 -3.07)" fill="none" stroke="#323335" stroke-miterlimit="10" stroke-width="1.01"/><path d="M290.19,69h0a38,38,0,0,1,38,38v0a38,38,0,0,1-38,38h-38a0,0,0,0,1,0,0V107a38,38,0,0,1,38-38Z" transform="translate(9.34 233.47) rotate(-45)" fill="#fff" stroke="#43c1f0" stroke-miterlimit="10" stroke-width="2.37"/><path d="M252.16,69.24l2.17-1.87.78,1a3.51,3.51,0,0,1,0-1.41,2.72,2.72,0,0,1,1-1.38,3.17,3.17,0,0,1,2.7-.83,5,5,0,0,1,2.82,1.85,5.46,5.46,0,0,1,1.5,3.08A2.88,2.88,0,0,1,262,72.12a3.59,3.59,0,0,1-1.48.82,2.73,2.73,0,0,1-1.49-.07l2.64,3.07-2.17,1.87Zm7.46,1.83q1.22-1.05-.15-2.64t-2.58-.52a1.43,1.43,0,0,0-.52,1.22,2.39,2.39,0,0,0,.64,1.44,2.35,2.35,0,0,0,1.33.84A1.44,1.44,0,0,0,259.62,71.07Z" transform="translate(0 -3.07)" fill="#3294b0"/><path d="M261.3,62l2.48-1.43.48.9a2.31,2.31,0,0,1,.29-1.17,2.07,2.07,0,0,1,.77-.79,2.37,2.37,0,0,1,.81-.32,2,2,0,0,1,.64,0l.29,2.8,0,0a1.17,1.17,0,0,0-1,.13,1,1,0,0,0-.59.77,2,2,0,0,0,.36,1.18L268,67.81l-2.48,1.43Z" transform="translate(0 -3.07)" fill="#3294b0"/><path d="M275.22,64.82a5.38,5.38,0,0,1-1.8.33,4,4,0,0,1-1.63-.33,3.82,3.82,0,0,1-1.34-1,4.9,4.9,0,0,1-.94-1.64,5.14,5.14,0,0,1-.32-1.9,4,4,0,0,1,1.45-3,5.19,5.19,0,0,1,1.61-.9,4.89,4.89,0,0,1,1.82-.3,4.09,4.09,0,0,1,3,1.4,4.73,4.73,0,0,1,.92,1.59,5.09,5.09,0,0,1,.32,1.9,3.91,3.91,0,0,1-1.47,2.94A5.27,5.27,0,0,1,275.22,64.82Zm-.74-2.12a1.4,1.4,0,0,0,1-1,2.79,2.79,0,0,0-.16-1.69q-.71-2-2.25-1.46a1.51,1.51,0,0,0-1,.89,2.45,2.45,0,0,0,.13,1.65,2.83,2.83,0,0,0,.95,1.42A1.42,1.42,0,0,0,274.48,62.7Z" transform="translate(0 -3.07)" fill="#3294b0"/><path d="M286,62.37a3.49,3.49,0,0,1-1.7-.16,2.79,2.79,0,0,1-1.23-1l.18,1.22-2.84.35L279,50.62l2.84-.35.6,5a4.17,4.17,0,0,1,.32-.53,2.31,2.31,0,0,1,.47-.49,2.88,2.88,0,0,1,.67-.39,3.45,3.45,0,0,1,.9-.22,3.17,3.17,0,0,1,2.71.81,5,5,0,0,1,1.32,3.11,5.45,5.45,0,0,1-.47,3.39A2.87,2.87,0,0,1,286,62.37Zm-1.43-2.22q1.6-.19,1.34-2.28T284.12,56a1.43,1.43,0,0,0-1.11.72,2.39,2.39,0,0,0-.27,1.56,2.35,2.35,0,0,0,.63,1.44A1.44,1.44,0,0,0,284.62,60.15Z" transform="translate(0 -3.07)" fill="#3294b0"/><path d="M291.12,49.67l2.86.12-.5,12.28L290.62,62Z" transform="translate(0 -3.07)" fill="#3294b0"/><path d="M298.1,59.07a1.87,1.87,0,0,0,.35,1.26,1.74,1.74,0,0,0,1.06.61,3,3,0,0,0,1.17,0,1.55,1.55,0,0,0,.93-.65l2.23,1.22a4,4,0,0,1-2,1.52,5.31,5.31,0,0,1-2.7.09,5.43,5.43,0,0,1-1.73-.64,4.12,4.12,0,0,1-1.24-1.12,3.85,3.85,0,0,1-.66-1.54,4.81,4.81,0,0,1,0-1.89,5.23,5.23,0,0,1,.69-1.8,3.88,3.88,0,0,1,2.75-1.82,5.23,5.23,0,0,1,1.86.06,5.53,5.53,0,0,1,1.53.56,3.9,3.9,0,0,1,1.29,1.12,4.06,4.06,0,0,1,.71,1.75,5.44,5.44,0,0,1-.23,2.45Zm3.65-.95a1.45,1.45,0,0,0-.31-1,1.8,1.8,0,0,0-1.08-.55,2.18,2.18,0,0,0-1.15,0,1.44,1.44,0,0,0-.78.86Z" transform="translate(0 -3.07)" fill="#3294b0"/><path d="M309.32,66.19l2.2-4.33a1.59,1.59,0,0,0,.23-1,1,1,0,0,0-.56-.64,1.14,1.14,0,0,0-1.15,0,3,3,0,0,0-1,1.24l-1.89,3.72-2.55-1.3,3.81-7.49,2.55,1.3-.62,1.14a3.41,3.41,0,0,1,1.35-.53,2.53,2.53,0,0,1,1.57.3,3.83,3.83,0,0,1,1.24,1,1.91,1.91,0,0,1,.4,1.41,3.13,3.13,0,0,1,1.55-.4,3.57,3.57,0,0,1,1.49.41,4.35,4.35,0,0,1,.94.64,2.17,2.17,0,0,1,.58.82,2.25,2.25,0,0,1,.13,1,3.73,3.73,0,0,1-.42,1.3l-2.63,5.17L314,68.58l2.2-4.33a1.59,1.59,0,0,0,.23-1,1,1,0,0,0-.56-.64,1.14,1.14,0,0,0-1.14,0,3,3,0,0,0-1,1.24l-1.89,3.72Z" transform="translate(0 -3.07)" fill="#3294b0"/><path d="M320.23,73.79a8.27,8.27,0,0,1-1.74-2.08,5,5,0,0,1-.64-2.08l2.22-.23a4.55,4.55,0,0,0,.13.64,3.63,3.63,0,0,0,.25.65,3.71,3.71,0,0,0,.44.68,6.25,6.25,0,0,0,.71.74,2.54,2.54,0,0,0,.9.61.47.47,0,0,0,.47-.15.39.39,0,0,0,.12-.24A.55.55,0,0,0,323,72a4.45,4.45,0,0,0-.37-.45l-.64-.71a12.06,12.06,0,0,1-.89-1.15,3.32,3.32,0,0,1-.5-1.1,2.18,2.18,0,0,1,0-1.08,2.78,2.78,0,0,1,.66-1.1,2.44,2.44,0,0,1,1.08-.74,2.49,2.49,0,0,1,1.2-.07,3.79,3.79,0,0,1,1.26.49,7.84,7.84,0,0,1,1.25.93,8.93,8.93,0,0,1,1.58,1.79,5,5,0,0,1,.69,1.45l-2.23.53a3.84,3.84,0,0,0-.42-1,5.4,5.4,0,0,0-1.09-1.25,3.59,3.59,0,0,0-.53-.41,1.32,1.32,0,0,0-.36-.16.38.38,0,0,0-.24,0,.44.44,0,0,0-.16.11.37.37,0,0,0-.09.19.45.45,0,0,0,.07.27,2.52,2.52,0,0,0,.28.41c.13.16.31.36.54.59a12.71,12.71,0,0,1,.94,1.09,4.43,4.43,0,0,1,.67,1.18,2.56,2.56,0,0,1,.14,1.23,2.37,2.37,0,0,1-.65,1.25,2.43,2.43,0,0,1-2.27.92A5.4,5.4,0,0,1,320.23,73.79Z" transform="translate(0 -3.07)" fill="#3294b0"/><circle cx="289.8" cy="104.52" r="22.69" fill="#fff"/><circle cx="289.8" cy="104.52" r="22.69" fill="none" stroke="#17758f" stroke-linecap="round" stroke-miterlimit="10" stroke-width="1.87"/><circle cx="289.8" cy="104.52" r="18" fill="none" stroke="#17758f" stroke-linecap="round" stroke-miterlimit="10" stroke-width="1.87"/><circle cx="289.8" cy="104.52" r="13.3" fill="none" stroke="#17758f" stroke-linecap="round" stroke-miterlimit="10" stroke-width="1.87"/><circle cx="289.8" cy="104.52" r="8.61" fill="none" stroke="#17758f" stroke-linecap="round" stroke-miterlimit="10" stroke-width="1.87"/><circle cx="289.8" cy="104.52" r="3.91" fill="none" stroke="#17758f" stroke-linecap="round" stroke-miterlimit="10" stroke-width="1.87"/><rect x="288.66" y="103.37" width="2.28" height="2.28" rx="1.14" ry="1.14" fill="#17758f"/><rect x="292.14" y="103.44" width="3.13" height="2.16" fill="#fff"/><rect x="279.63" y="103.44" width="3.13" height="2.16" fill="#fff"/><rect x="288.72" y="94.34" width="2.16" height="3.13" fill="#fff"/><rect x="288.72" y="116.25" width="2.16" height="3.13" fill="#fff"/><rect x="310.92" y="103.44" width="3.13" height="2.16" fill="#fff"/><rect x="270.24" y="103.44" width="3.13" height="2.16" fill="#fff"/><line x1="289.8" y1="108.43" x2="289.8" y2="113.12" fill="none" stroke="#17758f" stroke-linecap="round" stroke-miterlimit="10" stroke-width="1.87"/><line x1="283.54" y1="98.26" x2="280.41" y2="95.13" fill="none" stroke="#17758f" stroke-linecap="round" stroke-miterlimit="10" stroke-width="1.87"/><line x1="296.06" y1="110.77" x2="299.19" y2="113.9" fill="none" stroke="#17758f" stroke-linecap="round" stroke-miterlimit="10" stroke-width="1.87"/><line x1="303.1" y1="104.52" x2="307.79" y2="104.52" fill="none" stroke="#17758f" stroke-linecap="round" stroke-miterlimit="10" stroke-width="1.87"/><line x1="289.8" y1="86.52" x2="289.8" y2="91.21" fill="none" stroke="#17758f" stroke-linecap="round" stroke-miterlimit="10" stroke-width="1.87"/><line x1="277.28" y1="117.03" x2="274.15" y2="120.16" fill="none" stroke="#17758f" stroke-miterlimit="10" stroke-width="1.87"/><circle cx="289.8" cy="169.89" r="5.46" fill="#fff" stroke="#3ec3f2" stroke-miterlimit="10" stroke-width="2.34"/><path d="M176.87,160.83h0a38,38,0,0,1,38,38v0a38,38,0,0,1-38,38h-38a0,0,0,0,1,0,0v-38a38,38,0,0,1,38-38Z" transform="translate(-88.79 180.24) rotate(-45)" fill="#fff" stroke="#43c1f0" stroke-miterlimit="10" stroke-width="2.37"/><path d="M129.29,166.61l1.78-2.24,4.18,3.31A3.48,3.48,0,0,1,135,166a3.24,3.24,0,0,1,.77-1.71,2.9,2.9,0,0,1,1.74-1.14,2.77,2.77,0,0,1,2.18.76l4.54,3.59-1.78,2.24-3.76-3a1.86,1.86,0,0,0-1-.44,1,1,0,0,0-.87.47,1.53,1.53,0,0,0-.37,1.28,2.94,2.94,0,0,0,1.19,1.49l3,2.39-1.78,2.24Z" transform="translate(0 -3.07)" fill="#3294b0"/><path d="M139.38,160.49l2.37-2,4.41,2.67-1.73-4.87,2.16-1.78,2.57,8.22a14.84,14.84,0,0,1,.5,2,3.53,3.53,0,0,1,0,1.43,3.15,3.15,0,0,1-1.13,1.65,3.53,3.53,0,0,1-.73.48,2,2,0,0,1-.67.19l-1.48-1.79.08-.06a1,1,0,0,0,.46-.05,1.7,1.7,0,0,0,.56-.32,1.55,1.55,0,0,0,.55-.71,1.31,1.31,0,0,0-.06-.79Z" transform="translate(0 -3.07)" fill="#3294b0"/><path d="M148.85,153.13l2.55-1.3.53,1.12a3.53,3.53,0,0,1,.38-1.36,2.72,2.72,0,0,1,1.25-1.11,3.17,3.17,0,0,1,2.82-.17,5,5,0,0,1,2.31,2.46,5.46,5.46,0,0,1,.73,3.34,2.88,2.88,0,0,1-1.64,2.16,3.6,3.6,0,0,1-1.63.45,2.74,2.74,0,0,1-1.43-.42l1.84,3.6-2.55,1.3Zm6.81,3.55q1.43-.73.48-2.6T153.77,153A1.43,1.43,0,0,0,153,154a2.39,2.39,0,0,0,.28,1.55,2.35,2.35,0,0,0,1.09,1.13A1.44,1.44,0,0,0,155.67,156.68Z" transform="translate(0 -3.07)" fill="#3294b0"/><path d="M165.65,155.52a5.38,5.38,0,0,1-1.82.17,4,4,0,0,1-1.6-.47,3.82,3.82,0,0,1-1.25-1.1,4.91,4.91,0,0,1-.79-1.72,5.18,5.18,0,0,1-.15-1.93,3.95,3.95,0,0,1,1.71-2.84,5.19,5.19,0,0,1,1.69-.75,4.89,4.89,0,0,1,1.84-.14,4.09,4.09,0,0,1,2.84,1.65,4.73,4.73,0,0,1,.77,1.66A5.09,5.09,0,0,1,169,152a3.91,3.91,0,0,1-1.72,2.8A5.24,5.24,0,0,1,165.65,155.52Zm-.55-2.17a1.4,1.4,0,0,0,1-.87,2.8,2.8,0,0,0,0-1.69q-.53-2.06-2.11-1.66a1.51,1.51,0,0,0-1.05.8,2.45,2.45,0,0,0,0,1.66,2.82,2.82,0,0,0,.82,1.5A1.42,1.42,0,0,0,165.1,153.34Z" transform="translate(0 -3.07)" fill="#3294b0"/><path d="M169.82,148.06l-.17-2.25,1.36-.11-.09-1.17q.59-.44,1.28-1.06a15.64,15.64,0,0,0,1.28-1.29h.13l.26,3.31,1.72-.13.17,2.25-1.72.13.24,3.1a.92.92,0,0,0,.17.52.58.58,0,0,0,.52.15,2,2,0,0,0,.47-.08,1.14,1.14,0,0,0,.31-.15h0l.19,2.4a5.36,5.36,0,0,1-.72.27,5.09,5.09,0,0,1-1.12.2,4.6,4.6,0,0,1-1.18,0,1.46,1.46,0,0,1-.8-.4,1.88,1.88,0,0,1-.45-.7,4,4,0,0,1-.22-1.11l-.3-3.92Z" transform="translate(0 -3.07)" fill="#3294b0"/><path d="M178.51,141.39l2.85.29-.54,5.3a3.48,3.48,0,0,1,1.24-1.09,3.24,3.24,0,0,1,1.86-.28,2.9,2.9,0,0,1,1.9.85,2.77,2.77,0,0,1,.53,2.25l-.58,5.76-2.85-.29.48-4.77a1.86,1.86,0,0,0-.15-1,1,1,0,0,0-.86-.48,1.53,1.53,0,0,0-1.27.38,2.93,2.93,0,0,0-.62,1.8l-.39,3.83-2.85-.29Z" transform="translate(0 -3.07)" fill="#3294b0"/><path d="M190.53,152.21a1.87,1.87,0,0,0,.2,1.3,1.74,1.74,0,0,0,1,.73,3,3,0,0,0,1.16.17,1.55,1.55,0,0,0,1-.54l2.06,1.48a4,4,0,0,1-2.2,1.26,5.32,5.32,0,0,1-2.69-.24,5.45,5.45,0,0,1-1.64-.85,4.12,4.12,0,0,1-1.1-1.26,3.87,3.87,0,0,1-.47-1.61,4.82,4.82,0,0,1,.26-1.87,5.26,5.26,0,0,1,.9-1.7,3.88,3.88,0,0,1,3-1.47,5.23,5.23,0,0,1,1.84.28,5.5,5.5,0,0,1,1.45.74,3.87,3.87,0,0,1,1.15,1.27,4.05,4.05,0,0,1,.49,1.82,5.45,5.45,0,0,1-.53,2.4Zm3.74-.49a1.44,1.44,0,0,0-.18-1,1.8,1.8,0,0,0-1-.67,2.18,2.18,0,0,0-1.15-.1,1.44,1.44,0,0,0-.88.75Z" transform="translate(0 -3.07)" fill="#3294b0"/><path d="M199.32,160.07a8.27,8.27,0,0,1-2.13-1.67,5,5,0,0,1-1.06-1.9l2.12-.69a4.56,4.56,0,0,0,.26.6,3.61,3.61,0,0,0,.38.58,3.71,3.71,0,0,0,.57.57,6.3,6.3,0,0,0,.85.57,2.53,2.53,0,0,0,1,.41.46.46,0,0,0,.43-.24.39.39,0,0,0,.07-.26.56.56,0,0,0-.18-.25,4.55,4.55,0,0,0-.46-.36l-.78-.56a12.14,12.14,0,0,1-1.11-.94,3.31,3.31,0,0,1-.72-1,2.18,2.18,0,0,1-.21-1.06,2.78,2.78,0,0,1,.41-1.22,2.45,2.45,0,0,1,.9-.94,2.49,2.49,0,0,1,1.16-.32,3.8,3.8,0,0,1,1.33.21,7.81,7.81,0,0,1,1.42.65,8.93,8.93,0,0,1,1.92,1.42,5,5,0,0,1,1,1.27l-2.07,1a3.84,3.84,0,0,0-.63-.91,5.38,5.38,0,0,0-1.33-1,3.59,3.59,0,0,0-.6-.29,1.31,1.31,0,0,0-.38-.08.38.38,0,0,0-.23.06.44.44,0,0,0-.13.14.36.36,0,0,0-.05.2.45.45,0,0,0,.12.25,2.52,2.52,0,0,0,.36.34q.24.2.65.47a12.87,12.87,0,0,1,1.15.87,4.45,4.45,0,0,1,.9,1,2.55,2.55,0,0,1,.39,1.17,2.37,2.37,0,0,1-.37,1.36,2.43,2.43,0,0,1-2,1.37A5.4,5.4,0,0,1,199.32,160.07Z" transform="translate(0 -3.07)" fill="#3294b0"/><path d="M207.7,161.31a1.87,1.87,0,0,0-.33,1.27,1.75,1.75,0,0,0,.61,1.06,3,3,0,0,0,1,.61,1.55,1.55,0,0,0,1.13-.1l1.31,2.18a4,4,0,0,1-2.52.29,5.32,5.32,0,0,1-2.38-1.28,5.45,5.45,0,0,1-1.17-1.42,4.12,4.12,0,0,1-.51-1.59,3.87,3.87,0,0,1,.2-1.67,4.8,4.8,0,0,1,1-1.62,5.27,5.27,0,0,1,1.5-1.21,3.88,3.88,0,0,1,3.29-.19,5.23,5.23,0,0,1,1.58,1,5.52,5.52,0,0,1,1,1.25,3.88,3.88,0,0,1,.55,1.62,4,4,0,0,1-.26,1.87,5.46,5.46,0,0,1-1.43,2Zm3.63,1a1.44,1.44,0,0,0,.24-1,1.8,1.8,0,0,0-.66-1,2.18,2.18,0,0,0-1-.55,1.44,1.44,0,0,0-1.11.35Z" transform="translate(0 -3.07)" fill="#3294b0"/><path d="M212.71,172a8.25,8.25,0,0,1-1.31-2.37,5,5,0,0,1-.24-2.16l2.22.19a4.67,4.67,0,0,0,0,.65,3.6,3.6,0,0,0,.42,1.43,6.34,6.34,0,0,0,.56.86,2.55,2.55,0,0,0,.77.77.46.46,0,0,0,.49-.05.38.38,0,0,0,.16-.22.55.55,0,0,0-.07-.31,4.33,4.33,0,0,0-.28-.51l-.5-.82a12.09,12.09,0,0,1-.66-1.3A3.34,3.34,0,0,1,214,167a2.18,2.18,0,0,1,.22-1.05,2.77,2.77,0,0,1,.85-1,2.45,2.45,0,0,1,1.2-.52,2.5,2.5,0,0,1,1.19.16,3.81,3.81,0,0,1,1.14.72,7.82,7.82,0,0,1,1.05,1.15,8.93,8.93,0,0,1,1.21,2.06,5,5,0,0,1,.4,1.55l-2.29.1a3.82,3.82,0,0,0-.22-1.09,5.39,5.39,0,0,0-.83-1.44,3.56,3.56,0,0,0-.44-.5,1.3,1.3,0,0,0-.32-.22.38.38,0,0,0-.23,0,.44.44,0,0,0-.17.08.37.37,0,0,0-.13.17.45.45,0,0,0,0,.27,2.47,2.47,0,0,0,.2.45q.15.28.42.68a12.73,12.73,0,0,1,.72,1.25,4.44,4.44,0,0,1,.43,1.28,2.56,2.56,0,0,1-.1,1.23,2.36,2.36,0,0,1-.87,1.11,2.42,2.42,0,0,1-2.4.47A5.39,5.39,0,0,1,212.71,172Z" transform="translate(0 -3.07)" fill="#3294b0"/><circle cx="176.87" cy="195.77" r="24.08" fill="#fff"/><line x1="169.11" y1="205.87" x2="184.64" y2="205.87" fill="none" stroke="#17758f" stroke-linecap="round" stroke-miterlimit="10" stroke-width="1.87"/><line x1="169.11" y1="208.98" x2="184.64" y2="208.98" fill="none" stroke="#17758f" stroke-linecap="round" stroke-miterlimit="10" stroke-width="1.87"/><polyline points="169.1 212.08 173.77 212.08 175.32 213.64 178.43 213.64 179.98 212.08 184.64 212.08" fill="none" stroke="#17758f" stroke-linecap="round" stroke-miterlimit="10" stroke-width="1.87"/><path d="M182.31,215.15V204.27c3.88-1.55,6.21-5.52,6.21-10.1a11.65,11.65,0,1,0-23.3,0c0,4.63,2.33,8.54,6.21,10.1v10.87" transform="translate(0 -3.07)" fill="none" stroke="#17758f" stroke-linecap="round" stroke-miterlimit="10" stroke-width="1.87"/><path d="M161.34,212h-4.66a24.15,24.15,0,0,0,35.93,5" transform="translate(0 -3.07)" fill="none" stroke="#17758f" stroke-linecap="round" stroke-linejoin="round" stroke-width="1.87"/><path d="M194.74,207.38l3.11,3.11A23.76,23.76,0,0,0,201,198.84a24.09,24.09,0,0,0-15.53-22.52" transform="translate(0 -3.07)" fill="none" stroke="#17758f" stroke-linecap="round" stroke-linejoin="round" stroke-width="1.87"/><path d="M176.87,178.64v-3.88a24.1,24.1,0,0,0-23.27,30.29" transform="translate(0 -3.07)" fill="none" stroke="#17758f" stroke-linecap="round" stroke-linejoin="round" stroke-width="1.87"/><circle cx="176.87" cy="190.72" r="8.15" fill="#17758f"/><polyline points="178.86 185.24 173.57 190.53 180.18 190.53 174.89 195.82" fill="none" stroke="#fff" stroke-linecap="round" stroke-miterlimit="10" stroke-width="1.32"/><circle cx="176.87" cy="261.32" r="5.42" fill="#fff" stroke="#3ec3f2" stroke-miterlimit="10" stroke-width="2.34"/><path d="M144.28,369.06h0a38,38,0,0,1,38,38v0a38,38,0,0,1-38,38h-38a0,0,0,0,1,0,0v-38a38,38,0,0,1,38-38Z" transform="translate(-245.59 218.19) rotate(-45)" fill="#fff" stroke="#43c1f0" stroke-miterlimit="10" stroke-width="2.37"/><path d="M113.78,374.36a5.38,5.38,0,0,1-1.52,1,4,4,0,0,1-1.63.35,3.83,3.83,0,0,1-1.63-.37,4.92,4.92,0,0,1-1.51-1.13,5.17,5.17,0,0,1-1.05-1.62,3.95,3.95,0,0,1,.14-3.31,5.19,5.19,0,0,1,1.12-1.47,4.89,4.89,0,0,1,1.55-1,4.09,4.09,0,0,1,3.29.09A4.72,4.72,0,0,1,114,368a5.07,5.07,0,0,1,1.05,1.62,4,4,0,0,1,.28,1.67,4,4,0,0,1-.45,1.62A5.23,5.23,0,0,1,113.78,374.36Zm-1.53-1.65a1.4,1.4,0,0,0,.49-1.26,2.79,2.79,0,0,0-.82-1.48q-1.45-1.56-2.65-.44a1.51,1.51,0,0,0-.54,1.21,2.46,2.46,0,0,0,.78,1.47,2.83,2.83,0,0,0,1.44.93A1.42,1.42,0,0,0,112.25,372.71Z" transform="translate(0 -3.07)" fill="#3294b0"/><path d="M120.17,369.27a2.9,2.9,0,0,1-2,.44,2.77,2.77,0,0,1-1.76-1.5l-2.95-5,2.46-1.46,2.44,4.13a1.87,1.87,0,0,0,.74.75,1,1,0,0,0,1-.12,1.51,1.51,0,0,0,.8-1.07,3,3,0,0,0-.58-1.8l-2-3.32,2.46-1.46,4.28,7.23-2.46,1.46-.73-1.29a3.57,3.57,0,0,1-.35,1.64A3.24,3.24,0,0,1,120.17,369.27Z" transform="translate(0 -3.07)" fill="#3294b0"/><path d="M123.82,360.05l-.78-2.12,1.28-.47-.4-1.1q.45-.58.95-1.37a15.54,15.54,0,0,0,.88-1.59l.12,0,1.14,3.11,1.62-.59.78,2.12-1.62.59,1.07,2.92a.91.91,0,0,0,.3.45.58.58,0,0,0,.54,0,2,2,0,0,0,.43-.21,1.11,1.11,0,0,0,.26-.23h0l.83,2.26a5.37,5.37,0,0,1-.62.45,5.08,5.08,0,0,1-1,.49,4.6,4.6,0,0,1-1.14.28,1.46,1.46,0,0,1-.87-.17,1.89,1.89,0,0,1-.62-.55,4,4,0,0,1-.51-1l-1.35-3.7Z" transform="translate(0 -3.07)" fill="#3294b0"/><path d="M136.37,363a5.15,5.15,0,0,1-1.78,0,4,4,0,0,1-1.54-.59,3.87,3.87,0,0,1-1.16-1.19,4.89,4.89,0,0,1-.66-1.77,5.14,5.14,0,0,1,0-1.93,4.15,4.15,0,0,1,.65-1.57,3.93,3.93,0,0,1,1.21-1.13,4.9,4.9,0,0,1,1.67-.62,4.51,4.51,0,0,1,2.65.19,4.17,4.17,0,0,1,1.83,1.63l-2.07,1.53a2.74,2.74,0,0,0-.77-.88,1.42,1.42,0,0,0-1.13-.21,1.45,1.45,0,0,0-1.08.72,2.53,2.53,0,0,0-.12,1.65,2.88,2.88,0,0,0,.7,1.56,1.39,1.39,0,0,0,1.3.36,1.45,1.45,0,0,0,1-.59,2.35,2.35,0,0,0,.37-1.21l2.57.6a4.14,4.14,0,0,1-1.15,2.26A4.62,4.62,0,0,1,136.37,363Z" transform="translate(0 -3.07)" fill="#3294b0"/><path d="M145.29,362.36a5.39,5.39,0,0,1-1.8-.33,4,4,0,0,1-1.41-.88,3.81,3.81,0,0,1-.9-1.4,4.89,4.89,0,0,1-.29-1.87,5.14,5.14,0,0,1,.38-1.89,4,4,0,0,1,1-1.41,4.06,4.06,0,0,1,1.45-.86,5.19,5.19,0,0,1,1.83-.27,4.88,4.88,0,0,1,1.8.36,4.09,4.09,0,0,1,2.29,2.36,4.7,4.7,0,0,1,.29,1.81,5.09,5.09,0,0,1-.37,1.89,3.91,3.91,0,0,1-2.42,2.23A5.25,5.25,0,0,1,145.29,362.36Zm.06-2.24a1.4,1.4,0,0,0,1.23-.56,2.8,2.8,0,0,0,.45-1.63q0-2.13-1.59-2.16a1.51,1.51,0,0,0-1.23.49,2.45,2.45,0,0,0-.47,1.59,2.83,2.83,0,0,0,.38,1.67A1.41,1.41,0,0,0,145.35,360.11Z" transform="translate(0 -3.07)" fill="#3294b0"/><path d="M156,363.56l1.4-4.65a1.59,1.59,0,0,0,0-1.07,1,1,0,0,0-.66-.53,1.14,1.14,0,0,0-1.13.16,3,3,0,0,0-.74,1.4l-1.21,4-2.74-.83,2.42-8,2.74.83-.41,1.24a3.4,3.4,0,0,1,1.24-.76,2.53,2.53,0,0,1,1.6,0,3.81,3.81,0,0,1,1.39.73,1.9,1.9,0,0,1,.64,1.31,3.12,3.12,0,0,1,1.46-.66,3.55,3.55,0,0,1,1.54.14,4.32,4.32,0,0,1,1,.46,2.15,2.15,0,0,1,.71.71,2.26,2.26,0,0,1,.31,1,3.73,3.73,0,0,1-.19,1.35l-1.67,5.56-2.74-.83,1.4-4.65a1.59,1.59,0,0,0,0-1.07,1,1,0,0,0-.66-.53,1.14,1.14,0,0,0-1.13.16,3,3,0,0,0-.74,1.4l-1.21,4Z" transform="translate(0 -3.07)" fill="#3294b0"/><path d="M168.81,365.14a1.87,1.87,0,0,0-.13,1.31,1.74,1.74,0,0,0,.77,1,3,3,0,0,0,1.08.45,1.55,1.55,0,0,0,1.1-.27l1.63,1.94a4,4,0,0,1-2.44.68,5.32,5.32,0,0,1-2.55-.89,5.44,5.44,0,0,1-1.38-1.22,4.13,4.13,0,0,1-.76-1.49,3.86,3.86,0,0,1-.06-1.68,4.81,4.81,0,0,1,.71-1.75,5.27,5.27,0,0,1,1.29-1.43,3.88,3.88,0,0,1,3.22-.71,5.23,5.23,0,0,1,1.72.73,5.52,5.52,0,0,1,1.22,1.08,3.89,3.89,0,0,1,.8,1.51,4.06,4.06,0,0,1,0,1.89,5.45,5.45,0,0,1-1.1,2.2Zm3.75.44a1.44,1.44,0,0,0,.08-1,1.8,1.8,0,0,0-.81-.9,2.18,2.18,0,0,0-1.09-.38,1.44,1.44,0,0,0-1,.51Z" transform="translate(0 -3.07)" fill="#3294b0"/><path d="M175.44,374.91a8.27,8.27,0,0,1-1.67-2.14,5,5,0,0,1-.58-2.1l2.23-.16a4.57,4.57,0,0,0,.1.64,3.67,3.67,0,0,0,.22.66,3.74,3.74,0,0,0,.42.69,6.25,6.25,0,0,0,.69.76,2.53,2.53,0,0,0,.88.64.46.46,0,0,0,.47-.13.38.38,0,0,0,.13-.24.56.56,0,0,0-.12-.29,4.43,4.43,0,0,0-.36-.46l-.62-.73a12.06,12.06,0,0,1-.85-1.18,3.33,3.33,0,0,1-.46-1.11,2.17,2.17,0,0,1,.05-1.08,2.76,2.76,0,0,1,.69-1.08,2.45,2.45,0,0,1,1.1-.7,2.5,2.5,0,0,1,1.2,0,3.78,3.78,0,0,1,1.24.53,7.81,7.81,0,0,1,1.22,1,8.92,8.92,0,0,1,1.52,1.84,5,5,0,0,1,.64,1.47l-2.25.46a3.84,3.84,0,0,0-.39-1,5.41,5.41,0,0,0-1-1.29,3.58,3.58,0,0,0-.51-.43,1.3,1.3,0,0,0-.35-.17.38.38,0,0,0-.24,0,.44.44,0,0,0-.16.11.37.37,0,0,0-.1.19.45.45,0,0,0,.06.27,2.49,2.49,0,0,0,.27.41c.13.17.3.37.52.61a13,13,0,0,1,.91,1.12,4.44,4.44,0,0,1,.63,1.2,2.55,2.55,0,0,1,.1,1.23,2.36,2.36,0,0,1-.69,1.23,2.42,2.42,0,0,1-2.3.84A5.4,5.4,0,0,1,175.44,374.91Z" transform="translate(0 -3.07)" fill="#3294b0"/><circle cx="144.28" cy="404.01" r="10.98" fill="#17758f"/><circle cx="144.28" cy="404.01" r="18.2" fill="none" stroke="#17758f" stroke-linecap="round" stroke-miterlimit="10" stroke-width="1.87"/><path d="M144.28,407.08c1.34.67,2.68,1.2,2.68,2.68a2.68,2.68,0,1,1-5.37,0" transform="translate(0 -3.07)" fill="none" stroke="#fff" stroke-miterlimit="10" stroke-width="1.56"/><path d="M144.28,407.08c-1.34-.67-2.68-1.2-2.68-2.68a2.68,2.68,0,1,1,5.37,0" transform="translate(0 -3.07)" fill="none" stroke="#fff" stroke-miterlimit="10" stroke-width="1.56"/><line x1="144.28" y1="398.64" x2="144.28" y2="396.63" fill="none" stroke="#fff" stroke-miterlimit="10" stroke-width="1.56"/><line x1="144.28" y1="409.38" x2="144.28" y2="411.39" fill="none" stroke="#fff" stroke-miterlimit="10" stroke-width="1.56"/><line x1="144.28" y1="389.25" x2="144.28" y2="377.13" fill="none" stroke="#17758f" stroke-linecap="round" stroke-miterlimit="10" stroke-width="1.87"/><line x1="144.28" y1="430.89" x2="144.28" y2="418.78" fill="none" stroke="#17758f" stroke-linecap="round" stroke-miterlimit="10" stroke-width="1.87"/><line x1="129.51" y1="404.01" x2="117.4" y2="404.01" fill="none" stroke="#17758f" stroke-linecap="round" stroke-miterlimit="10" stroke-width="1.87"/><line x1="171.16" y1="404.01" x2="159.05" y2="404.01" fill="none" stroke="#17758f" stroke-linecap="round" stroke-miterlimit="10" stroke-width="1.87"/><circle cx="144.44" cy="469.97" r="5.46" fill="#fff" stroke="#3ec3f2" stroke-miterlimit="10" stroke-width="2.34"/><path d="M369.24,280.85h0a38,38,0,0,1,38,38v0a38,38,0,0,1-38,38h-38a0,0,0,0,1,0,0v-38a38,38,0,0,1,38-38Z" transform="translate(-117.32 351.42) rotate(-45)" fill="#fff" stroke="#43c1f0" stroke-miterlimit="10" stroke-width="2.37"/><path d="M327.49,294a1.87,1.87,0,0,0,1.31.13,1.74,1.74,0,0,0,1-.77,3,3,0,0,0,.45-1.08,1.55,1.55,0,0,0-.27-1.1l2-1.62a4,4,0,0,1,.67,2.44,5.31,5.31,0,0,1-.9,2.55,5.44,5.44,0,0,1-1.23,1.37,4.13,4.13,0,0,1-1.5.75,3.86,3.86,0,0,1-1.68.05,4.81,4.81,0,0,1-1.75-.72,5.25,5.25,0,0,1-1.42-1.3,3.88,3.88,0,0,1-.69-3.23,5.23,5.23,0,0,1,.73-1.71,5.53,5.53,0,0,1,1.08-1.22,3.9,3.9,0,0,1,1.52-.79,4.06,4.06,0,0,1,1.89,0,5.45,5.45,0,0,1,2.19,1.11Zm.46-3.75a1.45,1.45,0,0,0-1-.08,1.8,1.8,0,0,0-.9.8,2.18,2.18,0,0,0-.39,1.08,1.44,1.44,0,0,0,.51,1Z" transform="translate(0 -3.07)" fill="#3294b0"/><path d="M333.24,285.19l-5.17-.78,2.44-2.41,2.62.48-.41-2.66,2.16-2.12.57,5,5.52.81-2.44,2.41-3-.54.45,3-2.16,2.12Z" transform="translate(0 -3.07)" fill="#3294b0"/><path d="M337.06,276l2.41-1.54.64,1.06a3.5,3.5,0,0,1,.25-1.39,2.72,2.72,0,0,1,1.14-1.23,3.17,3.17,0,0,1,2.79-.43,5,5,0,0,1,2.53,2.24,5.45,5.45,0,0,1,1,3.26,2.87,2.87,0,0,1-1.43,2.31,3.6,3.6,0,0,1-1.58.6,2.74,2.74,0,0,1-1.47-.28l2.17,3.42-2.41,1.54Zm7.12,2.89q1.36-.86.23-2.63t-2.47-.89a1.43,1.43,0,0,0-.69,1.13,2.39,2.39,0,0,0,.43,1.52,2.36,2.36,0,0,0,1.19,1A1.44,1.44,0,0,0,344.18,278.88Z" transform="translate(0 -3.07)" fill="#3294b0"/><path d="M351.1,273.79a1.86,1.86,0,0,0,1,.9,1.74,1.74,0,0,0,1.23,0,3,3,0,0,0,1-.58,1.55,1.55,0,0,0,.45-1l2.54-.11a4,4,0,0,1-.95,2.35,5.31,5.31,0,0,1-2.27,1.48,5.45,5.45,0,0,1-1.81.34,4.12,4.12,0,0,1-1.64-.31,3.86,3.86,0,0,1-1.36-1,4.79,4.79,0,0,1-1-1.63,5.24,5.24,0,0,1-.34-1.9,3.88,3.88,0,0,1,1.41-3,5.24,5.24,0,0,1,1.62-.92,5.53,5.53,0,0,1,1.6-.31,3.89,3.89,0,0,1,1.69.29,4.06,4.06,0,0,1,1.51,1.13,5.44,5.44,0,0,1,1.07,2.21Zm2.64-2.7a1.44,1.44,0,0,0-.78-.7,1.8,1.8,0,0,0-1.2.09,2.18,2.18,0,0,0-1,.63,1.45,1.45,0,0,0-.23,1.14Z" transform="translate(0 -3.07)" fill="#3294b0"/><path d="M357.83,266.59l2.82-.47.14,1a2.31,2.31,0,0,1,.68-1,2.07,2.07,0,0,1,1-.47,2.37,2.37,0,0,1,.87,0,2,2,0,0,1,.6.23l-.72,2.72h0a1.16,1.16,0,0,0-1-.23,1,1,0,0,0-.82.52,2.05,2.05,0,0,0-.07,1.23l.71,4.28-2.82.47Z" transform="translate(0 -3.07)" fill="#3294b0"/><path d="M365.59,261.66l2.86-.11.1,2.73-2.86.11Zm.15,3.87,2.86-.11.32,8.4-2.86.11Z" transform="translate(0 -3.07)" fill="#3294b0"/><path d="M375.89,274.3l.86-4.78a1.59,1.59,0,0,0-.08-1.06,1,1,0,0,0-.72-.45,1.14,1.14,0,0,0-1.11.29,3,3,0,0,0-.58,1.47l-.74,4.11-2.82-.5,1.48-8.27,2.82.5-.26,1.27a3.41,3.41,0,0,1,1.14-.89,2.53,2.53,0,0,1,1.59-.17,3.8,3.8,0,0,1,1.47.56,1.91,1.91,0,0,1,.79,1.23,3.13,3.13,0,0,1,1.37-.83,3.57,3.57,0,0,1,1.54,0,4.35,4.35,0,0,1,1.09.34,2.16,2.16,0,0,1,.79.62,2.25,2.25,0,0,1,.42,1,3.72,3.72,0,0,1,0,1.37l-1,5.71-2.82-.5.86-4.78a1.59,1.59,0,0,0-.08-1.06,1,1,0,0,0-.72-.45,1.14,1.14,0,0,0-1.11.29,3,3,0,0,0-.58,1.47l-.74,4.11Z" transform="translate(0 -3.07)" fill="#3294b0"/><path d="M388.82,274.4a1.86,1.86,0,0,0,0,1.31,1.74,1.74,0,0,0,.88.86,3,3,0,0,0,1.13.32,1.55,1.55,0,0,0,1.06-.4l1.85,1.74a4,4,0,0,1-2.34,1,5.32,5.32,0,0,1-2.64-.59,5.46,5.46,0,0,1-1.51-1.06,4.12,4.12,0,0,1-.92-1.4,3.85,3.85,0,0,1-.25-1.66,4.81,4.81,0,0,1,.5-1.82,5.27,5.27,0,0,1,1.12-1.57,3.89,3.89,0,0,1,3.12-1.07,5.24,5.24,0,0,1,1.79.52,5.5,5.5,0,0,1,1.34.93,3.89,3.89,0,0,1,1,1.41,4.07,4.07,0,0,1,.25,1.87,5.45,5.45,0,0,1-.84,2.31Zm3.77,0a1.45,1.45,0,0,0,0-1.05,1.8,1.8,0,0,0-.91-.8,2.17,2.17,0,0,0-1.12-.25,1.44,1.44,0,0,0-1,.63Z" transform="translate(0 -3.07)" fill="#3294b0"/><path d="M399,274.26l2.25,1.77-.94,1.14a3.57,3.57,0,0,1,1.65-.26,3.24,3.24,0,0,1,1.74.76,2.9,2.9,0,0,1,1.14,1.74,2.77,2.77,0,0,1-.76,2.18l-3.59,4.54-2.25-1.77,3-3.76a1.86,1.86,0,0,0,.44-1,1,1,0,0,0-.47-.87,1.53,1.53,0,0,0-1.28-.37,2.94,2.94,0,0,0-1.49,1.19l-2.39,3-2.25-1.77Z" transform="translate(0 -3.07)" fill="#3294b0"/><path d="M405.58,282.72l1.69-1.5.9,1,.88-.77q.7.2,1.62.38a15.56,15.56,0,0,0,1.8.24l.09.1-2.49,2.2,1.14,1.29-1.69,1.5-1.14-1.29-2.33,2.06a.92.92,0,0,0-.31.45.58.58,0,0,0,.19.5,2,2,0,0,0,.35.32,1.12,1.12,0,0,0,.31.16l0,0-1.8,1.59a5.46,5.46,0,0,1-.65-.41,5.11,5.11,0,0,1-.83-.77,4.62,4.62,0,0,1-.68-1,1.47,1.47,0,0,1-.16-.87,1.89,1.89,0,0,1,.29-.78,4,4,0,0,1,.75-.84l2.95-2.6Z" transform="translate(0 -3.07)" fill="#3294b0"/><path d="M407.33,295.32a8.25,8.25,0,0,1-1.09-2.48,5,5,0,0,1,0-2.18l2.2.39a4.58,4.58,0,0,0-.06.65,3.59,3.59,0,0,0,.06.69,3.64,3.64,0,0,0,.23.77,6.23,6.23,0,0,0,.48.91,2.53,2.53,0,0,0,.7.84.46.46,0,0,0,.49,0,.39.39,0,0,0,.18-.2.55.55,0,0,0,0-.31,4.34,4.34,0,0,0-.24-.53l-.42-.86a12,12,0,0,1-.54-1.35,3.31,3.31,0,0,1-.18-1.19,2.18,2.18,0,0,1,.32-1,2.78,2.78,0,0,1,.94-.88,2.44,2.44,0,0,1,1.24-.41,2.5,2.5,0,0,1,1.17.27,3.81,3.81,0,0,1,1.07.82,7.87,7.87,0,0,1,.95,1.24,9,9,0,0,1,1,2.16,5,5,0,0,1,.26,1.58l-2.29-.11a3.84,3.84,0,0,0-.12-1.1,5.37,5.37,0,0,0-.7-1.51,3.53,3.53,0,0,0-.39-.54,1.27,1.27,0,0,0-.3-.25.38.38,0,0,0-.23-.06.44.44,0,0,0-.18.06.37.37,0,0,0-.14.16.45.45,0,0,0,0,.27,2.54,2.54,0,0,0,.16.47c.08.19.2.43.35.72a12.9,12.9,0,0,1,.6,1.31,4.41,4.41,0,0,1,.31,1.32,2.55,2.55,0,0,1-.21,1.22,2.36,2.36,0,0,1-1,1,2.43,2.43,0,0,1-2.44.25A5.4,5.4,0,0,1,407.33,295.32Z" transform="translate(0 -3.07)" fill="#3294b0"/><polyline points="382.1 297.95 375.84 297.95 375.84 291.69" fill="none" stroke="#17758f" stroke-linecap="round" stroke-miterlimit="10" stroke-width="1.87"/><line x1="360.22" y1="296.38" x2="360.97" y2="296.38" fill="none" stroke="#17758f" stroke-linecap="round" stroke-linejoin="round" stroke-width="1.62"/><line x1="363.34" y1="296.38" x2="364.1" y2="296.38" fill="none" stroke="#17758f" stroke-linecap="round" stroke-linejoin="round" stroke-width="1.62"/><line x1="366.47" y1="296.38" x2="367.23" y2="296.38" fill="none" stroke="#17758f" stroke-linecap="round" stroke-linejoin="round" stroke-width="1.62"/><line x1="354.26" y1="301.08" x2="377.59" y2="301.08" fill="none" stroke="#17758f" stroke-linecap="round" stroke-linejoin="round" stroke-width="1.62"/><line x1="354.26" y1="304.21" x2="374.36" y2="304.21" fill="none" stroke="#17758f" stroke-linecap="round" stroke-linejoin="round" stroke-width="1.62"/><line x1="354.26" y1="307.34" x2="369.53" y2="307.34" fill="none" stroke="#17758f" stroke-linecap="round" stroke-linejoin="round" stroke-width="1.62"/><line x1="369.58" y1="328.46" x2="369.58" y2="315.94" fill="none" stroke="#17758f" stroke-linecap="round" stroke-linejoin="round" stroke-width="1.62"/><line x1="372.71" y1="328.46" x2="372.71" y2="322.2" fill="none" stroke="#17758f" stroke-linecap="round" stroke-linejoin="round" stroke-width="1.62"/><line x1="366.45" y1="328.46" x2="366.45" y2="318.83" fill="none" stroke="#17758f" stroke-linecap="round" stroke-linejoin="round" stroke-width="1.62"/><line x1="363.32" y1="328.46" x2="363.32" y2="318.29" fill="none" stroke="#17758f" stroke-linecap="round" stroke-linejoin="round" stroke-width="1.62"/><line x1="360.19" y1="328.46" x2="360.19" y2="322.2" fill="none" stroke="#17758f" stroke-linecap="round" stroke-linejoin="round" stroke-width="1.62"/><polyline points="375.84 333.94 350.8 333.94 350.8 291.69 375.84 291.69 382.1 297.95 382.1 303.43" fill="none" stroke="#17758f" stroke-linecap="round" stroke-linejoin="round" stroke-width="1.87"/><path d="M384.44,326.44v14.87a2.35,2.35,0,1,1-4.69,0V326.44" transform="translate(0 -3.07)" fill="#fff" stroke="#17758f" stroke-linecap="round" stroke-miterlimit="10" stroke-width="1.87"/><path d="M384.44,326.44v14.87a2.35,2.35,0,1,1-4.69,0V326.44" transform="translate(0 -3.07)" fill="none" stroke="#17758f" stroke-linecap="round" stroke-linejoin="round" stroke-width="1.87" opacity="0.8"/><circle cx="382.1" cy="314.77" r="8.61" fill="#fff" stroke="#17758f" stroke-linecap="round" stroke-miterlimit="10" stroke-width="1.87"/><circle cx="382.1" cy="314.77" r="8.61" fill="none" stroke="#17758f" stroke-linecap="round" stroke-linejoin="round" stroke-width="1.87" opacity="0.8"/><circle cx="369.24" cy="381.76" r="5.46" fill="#fff" stroke="#3ec3f2" stroke-miterlimit="10" stroke-width="2.34"/><path d="M456.64,21.2h0a38,38,0,0,1,38,38v0a38,38,0,0,1-38,38h-38a0,0,0,0,1,0,0v-38A38,38,0,0,1,456.64,21.2Z" transform="translate(91.88 337.17) rotate(-45)" fill="#fff" stroke="#43c1f0" stroke-miterlimit="10" stroke-width="2.37"/><path d="M436.65,14.82a2.89,2.89,0,0,1-1.1-.56,2.5,2.5,0,0,1-.74-1.08,2.5,2.5,0,0,1,.2-2.4,4.65,4.65,0,0,1,2.31-1.65,7.7,7.7,0,0,1,1-.29,4.65,4.65,0,0,1,1-.12,3.23,3.23,0,0,1,.9.1,2.26,2.26,0,0,1,.8.39,2.17,2.17,0,0,1,.41-1.29,1.88,1.88,0,0,1,1-.61l.84,2.24,0,0a1.23,1.23,0,0,0-.92.48,1.52,1.52,0,0,0-.15,1,2.56,2.56,0,0,1-.49,2,5,5,0,0,1-2.21,1.42,7.16,7.16,0,0,1-.81.25,4.08,4.08,0,0,1-.77.12.55.55,0,0,0-.09.55.42.42,0,0,0,.17.22.6.6,0,0,0,.36,0,3.66,3.66,0,0,0,.69-.17l1.15-.39q.92-.33,1.71-.53a4.62,4.62,0,0,1,1.42-.16,2.06,2.06,0,0,1,1.11.39,2.39,2.39,0,0,1,.77,1.13,2.76,2.76,0,0,1,.19,1.44,2.31,2.31,0,0,1-.58,1.16,4.79,4.79,0,0,1-1.28,1,14.9,14.9,0,0,1-1.92.86,15.66,15.66,0,0,1-1.89.6,4.44,4.44,0,0,1-1.36.14,1.69,1.69,0,0,1-.92-.33,1.79,1.79,0,0,1-.55-.8,1.18,1.18,0,0,1,0-1.07,3.05,3.05,0,0,1,.69-.81,1.67,1.67,0,0,1-1.05-.28,1.79,1.79,0,0,1-.55-.8,1.62,1.62,0,0,1-.11-.67,1.74,1.74,0,0,1,.13-.59,2,2,0,0,1,.32-.51A4.61,4.61,0,0,1,436.65,14.82Zm2.09-2.06a1.81,1.81,0,0,0,.83-.56.82.82,0,0,0,.07-.83.84.84,0,0,0-.6-.59,1.81,1.81,0,0,0-1,.13,1.67,1.67,0,0,0-.82.57.85.85,0,0,0-.06.82.83.83,0,0,0,.59.57A1.71,1.71,0,0,0,438.74,12.77Zm.1,5.14a.91.91,0,0,0-.08.33.84.84,0,0,0,.06.34.63.63,0,0,0,.63.42,4.15,4.15,0,0,0,1.45-.35q.61-.23,1-.41a2.64,2.64,0,0,0,.56-.33.63.63,0,0,0,.22-.31.59.59,0,0,0,0-.35.61.61,0,0,0-.18-.27.5.5,0,0,0-.36-.07,3.42,3.42,0,0,0-.67.16l-1.13.38-.77.26Z" transform="translate(0 -3.07)" fill="#3294b0"/><path d="M450.11,15a5.38,5.38,0,0,1-1.83,0,4,4,0,0,1-1.54-.64,3.84,3.84,0,0,1-1.12-1.23,4.92,4.92,0,0,1-.6-1.79,5.15,5.15,0,0,1,.06-1.93,3.95,3.95,0,0,1,2-2.64,5.16,5.16,0,0,1,1.76-.57,4.89,4.89,0,0,1,1.84.06,4.09,4.09,0,0,1,2.65,1.95,4.73,4.73,0,0,1,.59,1.74,5.07,5.07,0,0,1-.06,1.93,3.91,3.91,0,0,1-2,2.6A5.26,5.26,0,0,1,450.11,15Zm-.31-2.22a1.4,1.4,0,0,0,1.12-.75,2.8,2.8,0,0,0,.18-1.69q-.31-2.11-1.92-1.87A1.51,1.51,0,0,0,448,9.1a2.45,2.45,0,0,0-.2,1.65,2.83,2.83,0,0,0,.65,1.58A1.42,1.42,0,0,0,449.8,12.73Z" transform="translate(0 -3.07)" fill="#3294b0"/><path d="M461,9.17a2.74,2.74,0,0,0,0-.57.69.69,0,0,0-.17-.38.84.84,0,0,0-.39-.22,3.41,3.41,0,0,0-.69-.1,3,3,0,0,0-1.48.21,2.83,2.83,0,0,0-.92.67l-1.7-1.61a5,5,0,0,1,2-1.22,7,7,0,0,1,2.56-.27,9.33,9.33,0,0,1,1.34.19,3.48,3.48,0,0,1,1.17.47,2.28,2.28,0,0,1,.8.88,2.67,2.67,0,0,1,.23,1.42l-.21,3.16a1.14,1.14,0,0,0,.11.75.62.62,0,0,0,.46.2,1,1,0,0,0,.25,0l.17,0h.06L464,14.52a2.16,2.16,0,0,1-.52.1,3.71,3.71,0,0,1-.63,0,4,4,0,0,1-.61-.09,2.36,2.36,0,0,1-.58-.21,1.71,1.71,0,0,1-.48-.37,1.38,1.38,0,0,1-.3-.57,3,3,0,0,1-1.32.87,4.35,4.35,0,0,1-1.63.18,4.49,4.49,0,0,1-1.13-.21,2.53,2.53,0,0,1-.88-.49,2,2,0,0,1-.54-.79,2.57,2.57,0,0,1-.14-1.1,2.39,2.39,0,0,1,.53-1.45A2.93,2.93,0,0,1,457,9.59a6.8,6.8,0,0,1,1.82-.36Q459.82,9.15,461,9.17Zm-2.27,3.28a2.4,2.4,0,0,0,.71-.07,2.34,2.34,0,0,0,.7-.29,2,2,0,0,0,.55-.5,1.34,1.34,0,0,0,.25-.72,6.87,6.87,0,0,0-2.14.12q-.81.21-.85.8a.49.49,0,0,0,.2.48A1.16,1.16,0,0,0,458.75,12.45Z" transform="translate(0 -3.07)" fill="#3294b0"/><path d="M468.28,3.07l2.79.65-2.78,12L465.51,15Z" transform="translate(0 -3.07)" fill="#3294b0"/><path d="M473.37,17.65A8.27,8.27,0,0,1,471,16.31a5,5,0,0,1-1.32-1.73l2-1a4.62,4.62,0,0,0,.34.56,3.61,3.61,0,0,0,.46.52,3.68,3.68,0,0,0,.65.49,6.3,6.3,0,0,0,.92.45,2.54,2.54,0,0,0,1.06.26.46.46,0,0,0,.39-.3.38.38,0,0,0,0-.27.56.56,0,0,0-.22-.23,4.59,4.59,0,0,0-.51-.29l-.85-.44a12.07,12.07,0,0,1-1.23-.77,3.31,3.31,0,0,1-.85-.85,2.18,2.18,0,0,1-.36-1,2.78,2.78,0,0,1,.23-1.26,2.44,2.44,0,0,1,.76-1.06,2.5,2.5,0,0,1,1.1-.48,3.8,3.8,0,0,1,1.35,0,7.84,7.84,0,0,1,1.5.44,8.93,8.93,0,0,1,2.1,1.14,5,5,0,0,1,1.15,1.12l-1.91,1.27a3.85,3.85,0,0,0-.75-.82,5.4,5.4,0,0,0-1.46-.8,3.57,3.57,0,0,0-.64-.2,1.3,1.3,0,0,0-.39,0,.38.38,0,0,0-.22.09.44.44,0,0,0-.11.16.37.37,0,0,0,0,.21.45.45,0,0,0,.15.23,2.53,2.53,0,0,0,.4.28q.27.16.71.37a12.86,12.86,0,0,1,1.26.7,4.42,4.42,0,0,1,1,.88,2.57,2.57,0,0,1,.56,1.11,2.37,2.37,0,0,1-.17,1.4,2.43,2.43,0,0,1-1.81,1.65A5.4,5.4,0,0,1,473.37,17.65Z" transform="translate(0 -3.07)" fill="#3294b0"/><path d="M470.39,55.56,463,62.94,450.2,50.12,436,64.34c.05.24.11.48.17.72A22.54,22.54,0,0,0,479.81,65Z" transform="translate(0 -3.07)" fill="#fff"/><path d="M468.07,39.3a22.53,22.53,0,1,1-24.86,3.12" transform="translate(0 -3.07)" fill="none" stroke="#17758f" stroke-linecap="round" stroke-linejoin="round" stroke-width="1.87"/><polyline points="436.22 61.04 450.2 47.06 474.28 71.14" fill="none" stroke="#17758f" stroke-linecap="round" stroke-linejoin="round" stroke-width="1.87"/><polyline points="463.4 59.48 470.39 52.49 479.72 61.81" fill="none" stroke="#17758f" stroke-linecap="round" stroke-linejoin="round" stroke-width="1.87"/><rect x="450.2" y="29.97" width="11.65" height="7.77" fill="#17758f"/><line x1="450.2" y1="47.06" x2="450.2" y2="29.97" fill="none" stroke="#17758f" stroke-linecap="round" stroke-linejoin="round" stroke-width="1.87"/><path d="M468.06,74.2A17.76,17.76,0,0,1,458,77.31a18,18,0,0,1-17.09-12.43" transform="translate(0 -3.07)" fill="none" stroke="#17758f" stroke-linecap="round" stroke-linejoin="round" stroke-width="1.87"/><line x1="450.2" y1="51.72" x2="450.2" y2="52.49" fill="none" stroke="#17758f" stroke-linecap="round" stroke-linejoin="round" stroke-width="1.87"/><line x1="450.2" y1="54.91" x2="450.2" y2="55.6" fill="none" stroke="#17758f" stroke-linecap="round" stroke-linejoin="round" stroke-width="1.87"/><line x1="450.2" y1="58.08" x2="450.2" y2="58.71" fill="none" stroke="#17758f" stroke-linecap="round" stroke-linejoin="round" stroke-width="1.87"/><circle cx="455.25" cy="121.7" r="5.42" fill="#fff" stroke="#3ec3f2" stroke-miterlimit="10" stroke-width="2.34"/></g></g></svg>