<?xml version="1.0" encoding="UTF-8"?>
<svg width="150px" height="26px" viewBox="0 0 150 26" version="1.1" xmlns="http://www.w3.org/2000/svg" xmlns:xlink="http://www.w3.org/1999/xlink">
    <!-- Generator: Sketch 46.2 (44496) - http://www.bohemiancoding.com/sketch -->
    <title>google_analytics</title>
    <desc>Created with Sketch.</desc>
    <defs></defs>
    <g id="CH.me-Design" stroke="none" stroke-width="1" fill="none" fill-rule="evenodd" opacity="0.5">
        <g id="CH.me-Homepage" transform="translate(-512.000000, -3940.000000)">
            <g id="Group-16" transform="translate(0.000000, 3021.000000)">
                <g id="google_analytics" transform="translate(512.000000, 919.000000)">
                    <g>
                        <path d="M44.5423729,19.292 L44.5423729,16.952 C44.5423729,16.744 44.5423729,16.224 44.5932203,16.016 C44.6440678,15.86 44.6440678,15.808 44.7966102,15.704 L45.3050847,15.236 L41.3389831,15.236 L39.8135593,16.068 L42.6610169,15.912 L42.6610169,18.98 C42.1016949,19.188 41.4915254,19.448 40.2711864,19.448 C36.1525424,19.448 33.6101695,16.068 33.6101695,12.428 C33.6101695,9.048 35.8474576,6.76 38.7966102,6.76 C41.0338983,6.76 42.1525424,7.956 42.8135593,8.58 L42.3559322,9.36 L43.0169492,9.204 L44.5932203,7.696 C44.1864407,7.384 43.5254237,6.916 42.1016949,6.5 C41.2372881,6.24 40.220339,6.084 39.2033898,6.084 C34.4237288,6.084 31.6271186,9.516 31.6271186,13.26 C31.6271186,16.328 33.6101695,20.228 38.7966102,20.228 C39.8135593,20.228 40.8305085,20.072 41.8983051,19.916 L44.5423729,19.292 Z M53.2372881,18.356 C53.6949153,17.68 53.8474576,16.9 53.8474576,16.068 C53.8474576,14.248 52.9830508,10.816 50.5423729,10.816 C49.8813559,10.816 49.220339,11.076 48.7627119,11.492 C48,12.22 47.8474576,13.104 47.8474576,13.988 C47.8474576,16.016 48.8135593,19.344 51.2542373,19.344 C51.9661017,19.396 52.779661,18.98 53.2372881,18.356 Z M50.7457627,20.02 C47.5423729,20.02 45.8644068,17.472 45.8644068,15.184 C45.8644068,12.48 48,10.192 51.0508475,10.192 C54,10.192 55.8305085,12.532 55.8305085,15.028 C55.8305085,17.42 54,20.02 50.7457627,20.02 Z M63.9152542,18.356 C64.3728814,17.68 64.5254237,16.9 64.5254237,16.068 C64.5254237,14.248 63.6610169,10.816 61.220339,10.816 C60.559322,10.816 59.8983051,11.076 59.440678,11.492 C58.6779661,12.22 58.5254237,13.104 58.5254237,13.988 C58.5254237,16.016 59.4915254,19.344 61.9322034,19.344 C62.6440678,19.396 63.4576271,18.98 63.9152542,18.356 Z M61.3728814,20.02 C58.1694915,20.02 56.4915254,17.472 56.4915254,15.184 C56.4915254,12.48 58.6271186,10.192 61.6779661,10.192 C64.6271186,10.192 66.4576271,12.532 66.4576271,15.028 C66.4576271,17.42 64.6779661,20.02 61.3728814,20.02 Z M72.9661017,16.38 C73.4237288,15.912 73.4745763,15.236 73.4745763,14.872 C73.4745763,13.416 72.6101695,11.076 70.9322034,11.076 C70.4237288,11.076 69.8644068,11.336 69.5084746,11.752 C69.1525424,12.168 69.0508475,12.74 69.0508475,13.26 C69.0508475,14.612 69.8135593,16.9 71.5423729,16.9 C72.1016949,16.952 72.6610169,16.744 72.9661017,16.38 Z M72.4067797,20.28 C72.2542373,20.28 72.1525424,20.28 71.9491525,20.28 C71.7457627,20.28 70.6779661,20.332 69.8644068,20.592 C69.4067797,20.748 68.1355932,21.268 68.1355932,22.724 C68.1355932,24.18 69.5084746,25.22 71.6440678,25.22 C73.5762712,25.22 74.5932203,24.284 74.5932203,22.984 C74.5932203,21.944 73.9322034,21.372 72.4067797,20.28 Z M73.8305085,11.18 C74.2881356,11.544 75.2542373,12.376 75.2542373,13.936 C75.2542373,15.444 74.3898305,16.172 73.5762712,16.848 C73.3220339,17.108 73.0169492,17.42 73.0169492,17.836 C73.0169492,18.304 73.3220339,18.512 73.5254237,18.72 L74.2372881,19.292 C75.1016949,20.072 75.9152542,20.748 75.9152542,22.152 C75.9152542,24.076 74.0847458,26 70.6271186,26 C67.7288136,26 66.3050847,24.596 66.3050847,23.088 C66.3050847,22.36 66.6610169,21.32 67.8305085,20.592 C69.0508475,19.812 70.779661,19.708 71.6440678,19.656 C71.3389831,19.292 71.0338983,18.876 71.0338983,18.252 C71.0338983,17.888 71.1355932,17.68 71.2372881,17.472 C71.0338983,17.472 70.779661,17.524 70.5762712,17.524 C68.440678,17.524 67.2711864,15.912 67.2711864,14.3 C67.2711864,13.364 67.6779661,12.324 68.5423729,11.544 C69.6610169,10.556 71.0338983,10.4 72.1525424,10.4 L76.2711864,10.4 L75,11.128 L73.8305085,11.128 L73.8305085,11.18 Z M80.3898305,19.76 L81.1525424,19.292 C80.7966102,19.24 80.4915254,19.24 80.1355932,19.188 C79.4745763,19.136 79.3220339,18.98 79.3220339,18.2 L79.3220339,13.468 C79.3220339,10.556 79.3220339,8.06 79.5254237,6.5 C79.6271186,5.772 79.8305085,5.668 80.440678,5.304 L77.5932203,5.304 L76.0677966,6.032 L77.6440678,6.032 C77.6440678,6.968 77.5423729,8.268 77.5423729,9.308 C77.4915254,11.44 77.440678,13.728 77.440678,15.288 L77.440678,18.616 C77.440678,19.032 77.3389831,19.084 76.8813559,19.708 L80.3898305,19.708 L80.3898305,19.76 Z M86.2881356,13.156 C86.6440678,13 86.8474576,12.896 86.8474576,12.584 C86.8474576,11.752 85.9322034,10.816 84.8644068,10.816 C84.0508475,10.816 82.5762712,11.44 82.5762712,13.676 C82.5762712,14.04 82.6271186,14.404 82.6271186,14.768 L86.2881356,13.156 Z M88.1694915,19.292 C87.9661017,19.396 87.7118644,19.552 87.5084746,19.656 C86.8474576,19.968 86.1864407,20.02 85.5762712,20.02 C84.9152542,20.02 83.9491525,19.968 82.9322034,19.24 C81.5084746,18.2 80.8983051,16.432 80.8983051,14.924 C80.8983051,11.752 83.440678,10.192 85.4745763,10.192 C86.1864407,10.192 86.9491525,10.4 87.559322,10.764 C88.5762712,11.44 88.8305085,12.324 88.9830508,12.792 L84.2542373,14.716 L82.7288136,14.82 C83.2372881,17.42 84.9661017,18.928 86.8474576,18.928 C87.8644068,18.928 88.6271186,18.564 89.2881356,18.2 L88.1694915,19.292 L88.1694915,19.292 Z" id="Fill-1" fill="#282927"></path>
                        <path d="M0.0508474576,2.028 L0.0508474576,16.796 L6.61016949,9.932 L12.4067797,15.86 L24.6610169,3.328 L24.6610169,2.184 C24.6610169,1.092 23.7966102,0.26 22.779661,0.26 C18.1525424,0.26 6.25423729,0.312 1.77966102,0.26 C0.813559322,0.26 0.0508474576,1.04 0.0508474576,2.028" id="Fill-3" fill="#424240"></path>
                        <polyline id="Fill-4" fill="#454543" points="9.50847458 12.844 6.55932203 15.912 9.50847458 18.98 9.50847458 12.844"></polyline>
                        <path d="M0,22.568 L0,23.608 C0,24.596 0.813559322,25.428 1.77966102,25.428 L22.9322034,25.428 C23.8983051,25.428 24.6610169,24.648 24.6610169,23.66 L24.6610169,9.256 L12.4067797,21.788 L6.61016949,15.86 C6.61016949,15.86 0.0508474576,22.62 0,22.568" id="Fill-5" fill="#282927"></path>
                        <path d="M96.4576271,14.924 L100.322034,14.924 L98.8474576,10.92 C98.7457627,10.608 98.5932203,10.192 98.3898305,9.62 C98.2372881,10.088 98.1355932,10.556 97.9322034,10.92 L96.4576271,14.924 Z M100.576271,15.6 L96.2033898,15.6 L94.6779661,19.5 L93.8644068,19.5 L98.2372881,8.424 L98.6949153,8.424 L102.966102,19.5 L102.101695,19.5 L100.576271,15.6 L100.576271,15.6 Z" id="Fill-6" fill="#282927"></path>
                        <path d="M109.881356,19.5 L109.881356,14.196 C109.881356,13.364 109.728814,12.792 109.372881,12.376 C109.016949,11.96 108.508475,11.804 107.79661,11.804 C106.830508,11.804 106.118644,12.064 105.661017,12.532 C105.20339,13.052 105,13.832 105,14.924 L105,19.448 L104.288136,19.448 L104.288136,11.284 L104.898305,11.284 L105.050847,12.428 L105.101695,12.428 C105.610169,11.596 106.576271,11.128 107.898305,11.128 C109.728814,11.128 110.644068,12.116 110.644068,14.144 L110.644068,19.5 L109.881356,19.5" id="Fill-7" fill="#282927"></path>
                        <path d="M114.508475,18.98 C115.372881,18.98 116.033898,18.72 116.542373,18.252 C117.050847,17.784 117.305085,17.056 117.305085,16.172 L117.305085,15.34 L115.881356,15.392 C114.762712,15.444 113.949153,15.652 113.491525,15.912 C113.033898,16.224 112.779661,16.692 112.779661,17.316 C112.779661,17.836 112.932203,18.252 113.237288,18.512 C113.542373,18.824 113.949153,18.98 114.508475,18.98 Z M117.457627,19.5 L117.254237,18.2 L117.20339,18.2 C116.79661,18.72 116.389831,19.084 115.932203,19.344 C115.525424,19.552 115.016949,19.656 114.40678,19.656 C113.59322,19.656 112.983051,19.448 112.576271,19.032 C112.118644,18.616 111.915254,18.044 111.915254,17.316 C111.915254,16.536 112.220339,15.912 112.881356,15.444 C113.542373,14.976 114.457627,14.768 115.728814,14.716 L117.254237,14.664 L117.254237,14.144 C117.254237,13.364 117.101695,12.792 116.79661,12.376 C116.491525,11.96 115.983051,11.804 115.271186,11.804 C114.508475,11.804 113.745763,12.012 112.932203,12.428 L112.677966,11.752 C113.542373,11.336 114.457627,11.128 115.271186,11.128 C116.135593,11.128 116.79661,11.388 117.254237,11.856 C117.711864,12.324 117.915254,13.052 117.915254,14.04 L117.915254,19.5 L117.457627,19.5 L117.457627,19.5 Z" id="Fill-8" fill="#282927"></path>
                        <polygon id="Fill-9" fill="#282927" points="120.355932 19.5 121.067797 19.5 121.067797 7.748 120.355932 7.748"></polygon>
                        <path d="M122.084746,11.284 L122.847458,11.284 L124.525424,15.912 C125.033898,17.316 125.389831,18.304 125.491525,18.772 L125.542373,18.772 C125.745763,18.148 126.101695,17.16 126.559322,15.86 L128.237288,11.284 L129,11.284 L125.389831,20.852 C125.084746,21.632 124.830508,22.152 124.677966,22.412 C124.525424,22.672 124.271186,22.88 123.966102,23.036 C123.711864,23.192 123.40678,23.244 123,23.244 C122.694915,23.244 122.389831,23.192 122.084746,23.088 L122.084746,22.412 C122.389831,22.516 122.694915,22.516 123,22.516 C123.254237,22.516 123.457627,22.464 123.661017,22.36 C123.864407,22.256 124.016949,22.048 124.169492,21.788 C124.322034,21.528 124.525424,21.112 124.728814,20.592 C124.932203,20.072 125.084746,19.656 125.135593,19.5 L122.084746,11.284" id="Fill-10" fill="#282927"></path>
                        <path d="M133.118644,18.98 C133.576271,18.98 133.983051,18.928 134.338983,18.876 L134.338983,19.5 C133.983051,19.604 133.576271,19.656 133.118644,19.656 C132.40678,19.656 131.898305,19.448 131.542373,19.084 C131.186441,18.72 131.033898,18.096 131.033898,17.264 L131.033898,11.96 L129.813559,11.96 L129.813559,11.544 L130.983051,11.18 L131.338983,9.308 L131.694915,9.308 L131.694915,11.284 L134.033898,11.284 L134.033898,11.96 L131.694915,11.96 L131.694915,17.16 C131.694915,17.784 131.79661,18.252 132,18.564 C132.305085,18.824 132.661017,18.98 133.118644,18.98" id="Fill-11" fill="#282927"></path>
                        <path d="M135.508475,19.5 L136.220339,19.5 L136.220339,11.284 L135.508475,11.284 L135.508475,19.5 Z M135.355932,8.996 C135.355932,8.528 135.508475,8.268 135.813559,8.268 C135.966102,8.268 136.067797,8.32 136.169492,8.476 C136.271186,8.58 136.322034,8.788 136.322034,8.996 C136.322034,9.204 136.271186,9.412 136.169492,9.516 C136.067797,9.672 135.966102,9.724 135.813559,9.724 C135.508475,9.724 135.355932,9.516 135.355932,8.996 L135.355932,8.996 Z" id="Fill-12" fill="#282927"></path>
                        <path d="M141.20339,19.656 C140.033898,19.656 139.169492,19.292 138.508475,18.564 C137.847458,17.836 137.542373,16.796 137.542373,15.444 C137.542373,14.092 137.898305,13 138.559322,12.272 C139.220339,11.544 140.135593,11.128 141.355932,11.128 C142.067797,11.128 142.728814,11.232 143.338983,11.492 L143.135593,12.168 C142.423729,11.908 141.813559,11.804 141.305085,11.804 C140.338983,11.804 139.576271,12.116 139.067797,12.74 C138.559322,13.364 138.305085,14.248 138.305085,15.444 C138.305085,16.536 138.559322,17.42 139.067797,18.044 C139.576271,18.668 140.288136,18.98 141.20339,18.98 C141.915254,18.98 142.627119,18.824 143.237288,18.564 L143.237288,19.24 C142.677966,19.552 142.016949,19.656 141.20339,19.656" id="Fill-13" fill="#282927"></path>
                        <path d="M149.847458,17.368 C149.847458,18.096 149.59322,18.668 149.033898,19.084 C148.474576,19.5 147.711864,19.656 146.694915,19.656 C145.627119,19.656 144.762712,19.5 144.152542,19.136 L144.152542,18.304 C144.966102,18.72 145.830508,18.928 146.694915,18.928 C147.508475,18.928 148.067797,18.772 148.525424,18.512 C148.983051,18.252 149.135593,17.888 149.135593,17.42 C149.135593,17.004 148.983051,16.64 148.627119,16.38 C148.322034,16.12 147.762712,15.808 147,15.548 C146.186441,15.236 145.627119,14.976 145.322034,14.768 C145.016949,14.56 144.762712,14.3 144.610169,14.04 C144.457627,13.78 144.355932,13.416 144.355932,13.052 C144.355932,12.428 144.610169,11.96 145.118644,11.596 C145.627119,11.232 146.338983,11.076 147.254237,11.076 C148.118644,11.076 148.932203,11.232 149.745763,11.596 L149.491525,12.272 C148.677966,11.96 147.966102,11.752 147.305085,11.752 C146.644068,11.752 146.135593,11.856 145.728814,12.064 C145.322034,12.272 145.169492,12.584 145.169492,13 C145.169492,13.416 145.322034,13.78 145.627119,14.04 C145.932203,14.3 146.491525,14.56 147.355932,14.924 C148.067797,15.184 148.627119,15.444 148.932203,15.652 C149.237288,15.86 149.491525,16.12 149.694915,16.38 C149.79661,16.692 149.847458,17.004 149.847458,17.368" id="Fill-14" fill="#282927"></path>
                    </g>
                </g>
            </g>
        </g>
    </g>
</svg>