<?xml version="1.0" encoding="UTF-8"?>
<svg width="152px" height="23px" viewBox="0 0 152 23" version="1.1" xmlns="http://www.w3.org/2000/svg" xmlns:xlink="http://www.w3.org/1999/xlink">
    <!-- Generator: Sketch 46.2 (44496) - http://www.bohemiancoding.com/sketch -->
    <title>maxymiser</title>
    <desc>Created with Sketch.</desc>
    <defs></defs>
    <g id="CH.me-Design" stroke="none" stroke-width="1" fill="none" fill-rule="evenodd" opacity="0.600000024">
        <g id="CH.me-Homepage" transform="translate(-719.000000, -3941.000000)" fill="#474847">
            <g id="Group-16" transform="translate(0.000000, 3021.000000)">
                <g id="maxymiser" transform="translate(719.000000, 920.000000)">
                    <g>
                        <path d="M13.7639472,2.03929898 C13.7493664,2.00720179 13.7347856,1.97503828 13.7202048,1.94287478 C13.5632468,1.93319256 13.3950727,1.88199622 13.251244,1.92112296 C12.6306692,2.09023006 12.0145149,2.27764051 11.4033088,2.47857954 C11.2768319,2.52015999 11.1646718,2.63568335 11.0719089,2.74039712 C11.0130579,2.80691258 11.0022377,2.91640113 10.9698433,3.00659159 C11.0580539,3.03663296 11.147518,3.09605256 11.2341451,3.09207357 C12.0263906,3.05579844 12.7572121,2.79683247 13.4455447,2.42008838 C13.5804666,2.3462781 13.6592425,2.16894776 13.7639472,2.03929898 Z M17.4437854,2.53329066 C18.1371322,2.34309491 18.7988103,2.17126883 19.4519775,1.97132456 C19.5426951,1.94360426 19.6425175,1.77714982 19.6420557,1.67535398 C19.6417918,1.60539006 19.484042,1.51427118 19.3806569,1.47295599 C19.2836055,1.43422715 19.1626706,1.42779445 19.0573721,1.44304724 C18.4945268,1.52468287 17.9302299,1.60174265 17.3731246,1.71408282 C17.1309249,1.76289177 16.819252,1.88093516 16.8707137,2.17392149 C16.8954548,2.31444618 17.220389,2.40165239 17.4437854,2.53329066 Z M11.0089014,4.31176681 C11.8378299,4.21030255 12.5674638,3.9646662 13.2439206,3.56265552 C13.335298,3.5083423 13.4200778,3.42484981 13.4770815,3.33505726 C13.5313141,3.24950896 13.593464,3.11773806 13.5627849,3.04386146 C13.5334914,2.97349965 13.3881452,2.91301899 13.2948544,2.91447795 C12.4646724,2.92754231 11.7209855,3.23750567 11.0023697,3.62134563 C10.937053,3.65629443 10.8675138,3.71412242 10.8376924,3.77884734 C10.7768621,3.91101614 10.7082466,4.0566472 10.7141844,4.19352447 C10.7162957,4.24180289 10.9268266,4.28092963 11.0089014,4.31176681 Z M1.86066868,13.7185647 C2.51099884,13.7232732 3.54986449,12.7366825 3.58667936,12.0794859 C3.60106224,11.822642 3.47405751,11.7167346 3.1891051,11.747837 C2.47616326,11.8256926 1.66775345,12.5453593 1.48823145,13.2620419 C1.41295229,13.5627209 1.53817565,13.7162436 1.86066868,13.7185647 Z M17.6399994,3.63056362 C17.649566,3.6602071 17.6591326,3.6899169 17.6686992,3.71956038 C18.3309051,3.5127855 18.9983892,3.32093184 19.6505007,3.08583981 C19.7724252,3.04187197 19.8325958,2.82461908 19.9212682,2.68734391 C19.7909646,2.60371879 19.6695019,2.46969313 19.528906,2.44489075 C18.7565854,2.30854401 18.0328234,2.54522763 17.3320212,2.8238896 C17.1553362,2.8941851 16.9442774,3.14074988 16.9363603,3.31496335 C16.9238907,3.58832001 17.2360254,3.56776189 17.444709,3.60775074 C17.5089042,3.6200193 17.5748806,3.62320249 17.6399994,3.63056362 Z M1.7012695,15.7495741 C2.37799026,15.743672 3.30014351,14.8373905 3.31465834,14.1609621 C3.32000243,13.9136679 3.21820073,13.7935024 2.94921462,13.7633947 C2.24834647,13.6849422 1.32104705,14.5974574 1.22313796,15.2790585 C1.1795275,15.5823902 1.36485543,15.7524921 1.7012695,15.7495741 Z M7.86663958,7.14096173 C8.03006332,7.09009697 8.35255635,7.03657954 8.62893182,6.89320325 C9.09254855,6.6528059 9.54574098,6.38070927 9.96277831,6.06743008 C10.1025825,5.96238473 10.1188787,5.6911502 10.1916507,5.4959144 C9.99781182,5.46587302 9.78332229,5.36726037 9.61402664,5.4187883 C9.13569716,5.56428672 8.6547946,5.73180222 8.21605101,5.967889 C7.91836514,6.12810968 7.65215004,6.38866725 7.44102531,6.65897334 C7.20826029,6.95706605 7.33559489,7.14454282 7.86663958,7.14096173 Z M3.25085908,20.9117175 C3.15737041,20.7638317 3.08941464,20.5877614 2.96511495,20.473697 C2.67020009,20.2029267 2.30205133,20.2231532 1.98015208,20.3836392 C1.61246516,20.5670043 1.31016093,20.8495127 1.26938747,21.3068976 C1.22458944,21.8085157 1.59623495,22.1705375 2.10009732,22.122458 C2.68227378,22.0669511 3.16607931,21.5467644 3.25085908,20.9117175 Z M1.64301227,17.8713708 C2.33655703,17.8658666 3.17980241,17.0157552 3.1503769,16.3356794 C3.13922688,16.0776419 3.00146799,15.9059485 2.72298127,15.8781618 C2.03009628,15.8089937 1.11876317,16.6336395 1.11236345,17.338584 C1.10932853,17.6714929 1.31101863,17.8739572 1.64301227,17.8713708 Z M2.34797096,18.0815942 C1.84813315,18.1319284 1.45187841,18.485528 1.20934887,19.033435 C1.09375808,19.2945231 1.05087337,19.5647629 1.27090493,19.8027065 C1.51303861,20.0647231 1.82279818,20.0860107 2.11692133,19.9560303 C2.59439311,19.7450112 2.95205161,19.406797 3.0701495,18.8618079 C3.17261098,18.3888386 2.94321076,18.0828542 2.34797096,18.0815942 Z M6.29369432,8.45581916 C5.49366353,8.63374636 4.72272837,9.02249373 4.26603918,9.8727377 C4.06738399,10.2425849 4.21457752,10.4775443 4.62792017,10.4077793 C5.53318344,10.2548534 6.26162976,9.79315789 6.72062812,8.97673534 C6.91545667,8.63023158 6.79584131,8.46954668 6.29369432,8.45581916 Z M10.7432141,5.76476153 C11.6447827,5.63962227 12.4213259,5.37044356 13.122128,4.89647947 C13.2179918,4.83168824 13.301584,4.73247874 13.3604351,4.63134607 C13.5447074,4.31448578 13.4276651,4.0691147 13.080167,4.13085537 C12.4952195,4.23483966 11.9127132,4.38869396 11.3538924,4.59069405 C11.0484213,4.70104472 10.7750148,4.93189249 10.5256237,5.1524612 C10.4290341,5.23794318 10.3807393,5.46268983 10.4195335,5.59048174 C10.4477714,5.6835238 10.6551355,5.72152316 10.7432141,5.76476153 Z M14.047778,4.63917141 C14.8710325,4.57597178 15.5532953,4.38657183 16.1950485,4.06407464 C16.3655318,3.97839371 16.5335739,3.84993864 16.6487688,3.69940016 C16.8424757,3.44620373 16.7192976,3.18677354 16.3993117,3.17079126 C15.4968194,3.1255634 14.6651859,3.38094828 13.9184641,3.87513891 C13.7694233,3.97375156 13.6701287,4.23457439 13.6641908,4.42423961 C13.6616837,4.50408468 13.960887,4.59354566 14.047778,4.63917141 Z M4.53344185,12.3976725 C5.0227894,12.3436908 5.53483286,11.9400886 6.00491527,11.4959006 C6.20251483,11.3092196 6.32457132,11.0259818 6.43560973,10.7670158 C6.54480081,10.5121615 6.40717387,10.3400038 6.13290964,10.3257458 C5.34884516,10.2848948 4.17967596,11.0495242 3.8970987,11.7879585 C3.73380691,12.2147052 3.88542086,12.4277139 4.53344185,12.3976725 Z M19.239995,3.5895137 C18.914599,3.65384072 18.5633402,3.69270219 18.2326661,3.79721701 C17.8940089,3.90425186 17.5527125,4.04066492 17.2581276,4.23424281 C17.1208305,4.32449958 16.9869642,4.62398493 17.0392836,4.74952209 C17.1022251,4.90032583 17.3616446,5.0452274 17.5422882,5.05345065 C17.9083917,5.07016241 18.294816,5.04695163 18.6434357,4.94164101 C19.1176087,4.79846367 19.5734402,4.58121078 20.0158124,4.35374516 C20.1197254,4.30029405 20.19098,4.07335896 20.1773888,3.9361501 C20.1681521,3.84237855 19.9977349,3.72771731 19.8782515,3.69011585 C19.683159,3.62877308 19.4709127,3.62267196 19.239995,3.5895137 Z M7.46002653,8.91366834 C7.47817006,8.91134726 7.52164856,8.90610826 7.56492913,8.89980819 C8.30478938,8.79323756 8.91691916,8.40349544 9.50549533,7.98145717 C9.67399926,7.86062849 9.80364304,7.65411888 9.89317313,7.45994414 C10.0404986,7.14016593 9.93381464,6.98724006 9.57595821,6.96402928 C8.99160453,6.92622887 8.47105011,7.1621167 7.99661324,7.44939982 C7.65003879,7.65929157 7.32926115,7.95745059 7.0864677,8.28359519 C6.78686851,8.6861364 6.93623926,8.91015357 7.46002653,8.91366834 Z M10.5730607,7.45795464 C11.5050445,7.29375497 12.3473662,7.04460384 13.0373482,6.43641513 C13.1681136,6.32109072 13.2555984,6.13440975 13.3139216,5.96371106 C13.3771271,5.77848904 13.2854858,5.63272536 13.0753507,5.6208547 C12.0524514,5.56289407 11.1713355,5.92617591 10.3842361,6.55571853 C10.3259129,6.60233904 10.2640269,6.66852292 10.2457514,6.73696155 C10.1996339,6.91024659 10.1119511,7.11529724 10.1669095,7.25887248 C10.2084747,7.36736629 10.4445386,7.40059086 10.5730607,7.45795464 Z M14.1201542,6.27871448 C14.6752143,6.13122656 15.1763717,6.04196454 15.6418358,5.86012467 C16.0005499,5.7200642 16.3321477,5.48663009 16.6383445,5.24656432 C16.7448965,5.16300552 16.8034177,4.91663969 16.7640957,4.77916557 C16.7344722,4.67551286 16.5204445,4.58068025 16.3777374,4.56131583 C15.4428507,4.43412077 14.6428859,4.80569217 13.8842883,5.29384799 C13.6497419,5.44478437 13.3820753,5.65971618 13.5398251,5.95416148 C13.6311366,6.12459491 13.932781,6.18116289 14.1201542,6.27871448 Z M5.73335608,12.3914387 C4.8982258,12.3823534 3.82755949,13.1441974 3.60066638,13.9088931 C3.48230457,14.3078532 3.67627542,14.5601875 4.08592339,14.5576012 C4.83073186,14.5528264 5.98103179,13.7839528 6.16728339,12.9719071 C6.25318477,12.5972852 6.12116583,12.395683 5.73335608,12.3914387 Z M5.22401766,14.6389715 C4.66301965,14.6741193 4.10584828,15.0418443 3.66789641,15.5983725 C3.54445442,15.7551447 3.46924123,15.9711376 3.4322944,16.1712808 C3.35582766,16.5845653 3.54933668,16.7965129 3.9686172,16.8116993 C4.71811001,16.8388891 5.72662648,16.1400457 5.96928797,15.425419 C6.1366703,14.9325547 5.91248223,14.6246472 5.22401766,14.6389715 Z M9.07638431,8.79973658 C8.22634334,8.90199664 7.42373947,9.27655228 6.82177007,10.0297089 C6.74233439,10.1291173 6.6917964,10.2606893 6.65682887,10.385497 C6.57600768,10.6743053 6.67536826,10.8565431 6.96718223,10.85966 C7.27654594,10.8630421 7.60616443,10.839765 7.89283224,10.7343218 C8.58571723,10.4794011 9.2497705,10.1550471 9.58275379,9.42291282 C9.78998591,8.9673184 9.67967324,8.80855667 9.07638431,8.79973658 Z M4.34639853,21.4837637 C5.01658761,21.4023271 5.56340067,21.0940879 5.88807093,20.4705138 C6.16655765,19.9358038 5.90733606,19.4861115 5.31110661,19.4025527 C4.58668487,19.3010222 4.07345383,19.6377774 3.65061057,20.183098 C3.4365169,20.45924 3.35483801,20.7682086 3.51648039,21.0761162 C3.67924437,21.3861458 4.00259509,21.459094 4.34639853,21.4837637 Z M5.20053003,16.9814033 C4.41791703,16.980077 3.63741528,17.5341514 3.40847689,18.2535529 C3.25204666,18.7451572 3.47696048,19.0903346 3.9837918,19.1367562 C4.64665749,19.1974358 5.58062053,18.6285728 5.82288617,18.0165377 C6.09246606,17.3356661 5.88015375,16.982597 5.20053003,16.9814033 Z M19.6437711,5.0608781 C19.2747646,5.11777766 18.9200091,5.14085581 18.5833971,5.23170943 C18.0772915,5.36838775 17.5568031,5.50765242 17.2234239,5.97001112 C16.9477742,6.3523258 17.091273,6.69153475 17.5507992,6.74909748 C18.4453743,6.86123869 19.2604477,6.59026944 20.0417412,6.19369671 C20.1816113,6.12267173 20.3028101,5.98824816 20.3965627,5.85707411 C20.5770744,5.60440821 20.4797591,5.26500031 20.2039114,5.17514144 C20.0184515,5.1147271 19.8197963,5.09529637 19.6437711,5.0608781 Z M12.6729601,7.29700448 C12.2970262,7.36982 11.9808669,7.41126782 11.6759896,7.49429609 C11.0503346,7.6646632 10.4868295,7.96779597 10.081602,8.48154997 C9.95110048,8.64707597 9.91243826,8.93011484 9.93341878,9.14955617 C9.94146791,9.23384445 10.2298511,9.30069149 10.3969035,9.35573419 C10.4749537,9.381465 10.5769534,9.38425029 10.6534201,9.35659631 C11.2563791,9.13854763 11.8648142,8.93150748 12.4516091,8.67499523 C12.6709149,8.57910155 12.8848106,8.39149215 13.0137946,8.18929311 C13.130639,8.00612691 13.2019596,7.72739862 13.1511577,7.5272554 C13.1209404,7.4083499 12.8157992,7.36000516 12.6729601,7.29700448 Z M8.93928518,10.8578031 C8.21770042,10.8652969 7.59428867,11.1545032 7.04780549,11.5919269 C6.80798098,11.7838469 6.59936336,12.0540203 6.46496927,12.3318865 C6.23081874,12.815997 6.47908823,13.1309341 7.01316784,13.0929348 C7.60893545,13.0505585 8.13186502,12.8131454 8.6155386,12.4785786 C8.96983229,12.2335391 9.30354133,11.9611109 9.43978276,11.5287936 C9.57952094,11.0854014 9.39801965,10.8518346 8.93928518,10.8578031 Z M14.0822837,8.0827888 C14.9642573,8.07045393 15.6899986,7.72998497 16.3861164,7.33626385 C16.5858272,7.22332683 16.7425214,6.97954735 16.8451808,6.76076918 C16.9822139,6.46877759 16.8554731,6.2527184 16.5410292,6.21306113 C15.4509658,6.07558701 14.4947027,6.40670534 13.6620136,7.10899717 C13.5593541,7.19560653 13.4857904,7.3364628 13.439013,7.46677474 C13.3329229,7.76221479 13.4704838,7.98338035 13.778462,8.04266731 C13.896296,8.06534755 14.0166371,8.07443292 14.0822837,8.0827888 Z M6.93412801,15.4574499 C7.07432803,15.438815 7.22976862,15.4529404 7.35215499,15.3957092 C7.81629952,15.1785227 8.30327192,14.9858069 8.71654859,14.6914942 C9.04709075,14.4561369 9.32274048,14.1108932 9.32947008,13.6438923 C9.33369258,13.3537576 9.19883665,13.1754325 8.91375229,13.1477122 C7.91585803,13.0506248 6.78218418,13.6577525 6.33651306,14.4438684 C6.04489702,14.9581529 6.18562485,15.5299339 6.93412801,15.4574499 Z M12.5281418,9.24863303 C11.6810697,9.32502965 10.9671383,9.63684988 10.3306632,10.1020602 C10.0707158,10.292057 9.85464286,10.5933992 9.71813753,10.8903645 C9.55200875,11.2515906 9.70909875,11.4227535 10.0832514,11.5305841 C10.8847996,11.7614982 12.6688036,10.8300828 12.9949254,10.2220268 C13.0962652,10.0331573 13.1268783,9.73460041 13.0496199,9.54367518 C12.9907688,9.39830939 12.7101049,9.34359827 12.5281418,9.24863303 Z M18.3364471,8.81366305 C18.9878329,8.74303596 19.8091081,8.55449813 20.4853671,7.95738428 C20.6979433,7.76970856 20.8487655,7.55152724 20.7662949,7.26683046 C20.6780844,6.96230505 20.4094941,6.84976594 20.1233541,6.84326692 C19.2523986,6.8235046 18.4219527,6.98796954 17.6894158,7.49283713 C17.287817,7.76964224 17.1068435,8.14121364 17.2052804,8.42186511 C17.3109087,8.72280943 17.5889336,8.84370442 18.3364471,8.81366305 Z M6.95853931,17.916864 C7.85430197,17.8641423 8.56928908,17.4516537 9.08971156,16.7329816 C9.47890681,16.1954863 9.24198527,15.5965156 8.64687743,15.5751617 C7.69859748,15.541274 6.92475935,15.9442131 6.32820002,16.6698483 C6.11410635,16.9302069 6.01138097,17.2598 6.18285384,17.59503 C6.34449621,17.9110944 6.64686642,17.926082 6.95853931,17.916864 Z M16.0172419,8.04445785 C15.7570307,8.09711316 15.4688454,8.1241703 15.2024324,8.21555445 C14.5810659,8.42862939 13.9502648,8.6423675 13.5311822,9.20214516 C13.3599072,9.43093712 13.2158146,9.73208038 13.4157893,9.95802073 C13.5638405,10.125271 13.8703013,10.2327037 14.1029344,10.2273321 C14.8577053,10.2098245 15.5697894,9.98315469 16.2136539,9.58280192 C16.4334875,9.4461236 16.6419072,9.26793114 16.8055289,9.06745633 C17.1605483,8.63261898 17.0060314,8.21986502 16.4639687,8.09956687 C16.3264737,8.06906128 16.1832387,8.06415386 16.0172419,8.04445785 Z M10.4088453,13.9697053 C10.864215,13.9778623 11.4193411,13.7626652 11.9302629,13.4607261 C12.2724169,13.2584608 12.580857,12.9851704 12.8675248,12.7055137 C13.0907232,12.4877966 13.1707527,12.176109 13.0415048,11.879409 C12.9053293,11.5667929 12.6037508,11.5565802 12.3061309,11.5739551 C11.5293898,11.6193156 10.8263445,11.8823269 10.2061655,12.3411045 C9.98342895,12.505901 9.78378412,12.7346267 9.64529949,12.9757535 C9.31726443,13.5469376 9.59667483,13.9838308 10.4088453,13.9697053 Z M18.3431108,11.1369293 C19.2319459,11.0541 20.1259272,10.8142995 20.8297643,10.0954949 C21.0397014,9.88109358 21.1698071,9.60183476 21.0319162,9.34976571 C20.9267497,9.15758046 20.6683198,8.94994347 20.4615495,8.93104327 C19.4469632,8.83806752 18.499475,9.06752264 17.7039966,9.74295629 C17.4118527,9.99098004 17.172754,10.3190478 17.3414558,10.7264964 C17.5075846,11.1279103 17.9054228,11.1231355 18.3431108,11.1369293 Z M16.2701298,10.2549861 C15.2931501,10.3359585 14.3775944,10.5697905 13.6548881,11.3055722 C13.3488892,11.6171272 13.1875107,12.0322685 13.3434791,12.304763 C13.5445754,12.6563069 13.902102,12.6241434 14.2455095,12.6244086 C14.9533052,12.6250718 15.559761,12.3121242 16.1567162,11.993606 C16.4187088,11.8538771 16.6589292,11.6439854 16.8562648,11.4191061 C17.0495759,11.1988026 17.2023114,10.921268 17.0305747,10.6043414 C16.8665571,10.3016729 16.5908414,10.2307142 16.2701298,10.2549861 Z M16.1585635,12.7136043 C15.2902471,12.7577711 14.5112628,13.0522164 13.8357956,13.5964097 C13.6535686,13.7431681 13.4934436,13.9453009 13.3875514,14.154861 C13.0950777,14.7334063 13.3730366,15.2195726 14.0196061,15.2249442 C15.175448,15.2345601 16.1990071,14.8849395 16.9692825,13.9663232 C17.1813309,13.7135247 17.2529154,13.4086013 17.1296713,13.1002296 C17.007351,12.7942452 16.7184399,12.7305814 16.4219416,12.7144001 C16.3343909,12.7096253 16.2463782,12.7136043 16.1585635,12.7136043 Z M14.37324,17.9611634 C15.4157344,17.9241588 16.3109692,17.5545106 17.0217338,16.7726389 C17.520516,16.2240024 17.346602,15.5367645 16.6640753,15.4020093 C16.4429222,15.358373 16.2041533,15.3703763 15.9775241,15.3951124 C15.0825531,15.4928629 14.2776401,15.8111822 13.6385919,16.4665882 C13.3459202,16.7668031 13.2049285,17.156081 13.3765333,17.558158 C13.5371861,17.9343715 13.9089635,17.9732993 14.2746052,17.961296 C14.3074615,17.960235 14.3403837,17.9611634 14.37324,17.9611634 Z M0.030811016,0 C7.46154399,0 14.8677997,0 22.2912753,0 C22.2912753,0.673046254 22.2912753,1.33137024 22.2912753,2.01317028 C21.9224008,2.0377737 21.5523387,2.04838434 21.1860373,2.09168902 C20.9266177,2.12239357 20.6596769,2.16609615 20.4205122,2.26411195 C20.2803781,2.32154204 20.188143,2.49688289 20.0743336,2.61917054 C20.2038454,2.73708129 20.3299265,2.95095203 20.4635288,2.95585946 C20.9520847,2.97363228 21.4433455,2.92482333 21.9330889,2.89385352 C22.0406966,2.88702292 22.1464569,2.85001831 22.2633012,2.82475172 C22.3542168,3.02734865 22.3120578,3.09439464 22.0911026,3.11561593 C21.7218323,3.15116158 21.3507805,3.20799482 20.9916706,3.30010846 C20.5746332,3.4071433 20.3462886,3.65118806 20.3687866,3.88780536 C20.3922742,4.13423751 20.6858036,4.30964468 21.1368848,4.30904783 C21.5091901,4.30858361 21.8814953,4.27283902 22.3722944,4.24631241 C22.2570335,4.35692835 22.2029987,4.44426719 22.1260702,4.47676228 C21.7270444,4.64527253 21.307302,4.77160548 20.9277394,4.97479927 C20.7990852,5.0436358 20.6832965,5.31215135 20.7138436,5.45705292 C20.7445886,5.60321451 20.9499074,5.7887681 21.1040945,5.81695262 C21.4846468,5.88651864 21.879714,5.87584168 22.2901537,5.89858824 C22.3409555,6.05018778 22.319909,6.15311101 22.0991517,6.22804866 C21.81222,6.32546761 21.5085303,6.44748999 21.2884328,6.64498056 C21.1257348,6.79100951 21.0193147,7.07099781 21.007373,7.29766764 C20.9938478,7.55464412 21.2409297,7.67726334 21.4818758,7.72222593 C21.7385903,7.77004014 21.9984716,7.80047942 22.2856673,7.84278935 C22.3474872,8.06143488 22.3275623,8.22357875 22.0560031,8.36635819 C21.8035111,8.49905753 21.5600579,8.70768926 21.3979537,8.94238339 C21.119467,9.34552145 21.2994508,9.74468052 21.7705229,9.88149148 C21.938433,9.93030043 22.109642,9.96737136 22.2820385,10.0104771 C22.3637174,10.4043972 22.3223502,10.7222522 21.9253697,10.9839371 C21.4376056,11.3054396 21.3525619,12.1991872 22.1440817,12.3919029 C22.1945537,12.4041715 22.2543284,12.4277802 22.2841498,12.4662437 C22.3740757,12.5820987 22.2660722,13.4095298 22.1840635,13.5397091 C22.0461067,13.7586199 21.8658589,13.9861518 21.8351139,14.2270797 C21.8086573,14.4341862 21.9029377,14.7560202 22.0570588,14.8641824 C22.2930566,15.0298411 22.3112661,15.2014682 22.3108703,15.4374223 C22.3068457,17.6476853 22.3084951,19.8579482 22.3084951,22.0681448 C22.3084951,22.1876472 22.3084951,22.3070832 22.3084951,22.4462816 C16.923099,22.4462816 11.5622461,22.4462816 6.19479558,22.4462816 C5.71890723,21.6019398 4.63095508,21.5204368 3.91827715,22.2731292 C3.82175356,22.3750576 3.64955495,22.4553669 3.51087239,22.457887 C2.61055735,22.4742671 1.70978047,22.4662428 0.767900247,22.4662428 C1.05463403,22.0310739 1.27130079,21.605123 0.88309518,21.1575528 C0.667813927,20.9092638 0.464144534,20.9040248 0.0274462155,21.0962764 C0.0274462155,20.9741214 0.0274462155,20.8597254 0.0274462155,20.7349177 C0.463154887,20.6319282 0.742433326,20.3529346 0.875969721,19.9200868 C0.966093592,19.6279625 0.987074112,19.3141528 0.729897795,19.1298592 C0.55644563,19.0055158 0.288581122,19.0143359 0,18.949412 C0.0383323347,18.8933746 0.108399356,18.777188 0.191859603,18.6717448 C0.39394556,18.4164262 0.63495764,18.1855122 0.798249427,17.9079776 C0.943595612,17.6609486 0.995980937,17.3575505 0.776543166,17.1036909 C0.550639699,16.8423376 0.293331429,17.0111794 0.0434125236,17.0822044 C-0.0499441951,16.881199 0.0349675342,16.7771484 0.211718523,16.6713736 C0.60460846,16.4362816 0.881445768,16.0875894 0.969260463,15.6348466 C1.00409604,15.4551288 0.978695099,15.1710952 0.865413484,15.0809048 C0.752263821,14.9907806 0.492382468,15.0692994 0.301842394,15.1029218 C0.214687465,15.1183073 0.139672207,15.2031924 0.030811016,15.2753448 C0.030811016,10.1735494 0.030811016,5.09980589 0.030811016,0 L0.030811016,0 Z" id="Fill-1"></path>
                        <path d="M95.8615413,18.6127168 C94.8548325,18.6127168 93.8929249,18.6127168 92.8967576,18.6127168 C92.8967576,18.4907649 92.8967576,18.3832582 92.8967576,18.2757514 C92.8967576,15.6796141 92.9020283,13.0834767 92.8928045,10.4874059 C92.8901691,9.85195141 92.6971288,9.26415928 92.174668,8.874073 C91.9539563,8.709185 91.64496,8.60620488 91.3689056,8.58962954 C90.8879518,8.56067263 90.4023861,8.52512552 89.9253854,8.73514637 C89.1512474,9.07597261 88.6650228,9.66622773 88.4317932,10.4483308 C88.2756479,10.9729502 88.1735276,11.5337824 88.1649626,12.0801695 C88.134656,14.1321831 88.1531035,16.1849289 88.1531035,18.2374085 C88.1531035,18.3568974 88.1531035,18.4763197 88.1531035,18.6109194 C87.1819721,18.6109194 86.2418062,18.6109194 85.2779221,18.6109194 C85.2779221,14.5027651 85.2779221,10.394411 85.2779221,6.26602004 C86.1528627,6.26602004 87.0264857,6.26602004 87.9323918,6.26602004 C87.9323918,7.06995724 87.9323918,7.8848781 87.9323918,8.77841533 C88.1979047,8.38559977 88.4146633,8.05875274 88.6373515,7.73669857 C89.3113457,6.76394587 90.2192284,6.20198199 91.3959181,6.03616204 C92.2174926,5.92033437 92.9929483,6.01712369 93.722944,6.3814483 C94.314583,6.67647602 94.7757716,7.13299678 95.0630262,7.75027837 C95.2178538,8.08291679 95.3865171,8.40909815 95.5584745,8.7581122 C95.7976338,8.41875045 96.0361342,8.08404844 96.2706815,7.74701655 C96.6047138,7.26799593 97.030325,6.9004095 97.5231379,6.58834048 C98.2425921,6.13275166 99.0266127,5.94682828 99.8527991,5.98829991 C100.860826,6.03889131 101.791109,6.34949584 102.490798,7.12906929 C103.039612,7.73969411 103.434917,8.44258166 103.500142,9.29138544 C103.529131,9.67434898 103.566026,10.0581779 103.566685,10.441674 C103.572615,13.0377448 103.569979,15.6338821 103.569979,18.2300195 C103.569979,18.3497746 103.569979,18.4695298 103.569979,18.6083233 C102.582377,18.6083233 101.620469,18.6083233 100.605195,18.6083233 C100.605195,18.4898995 100.605195,18.3626888 100.605195,18.235478 C100.605195,15.6726245 100.620349,13.1096378 100.594654,10.5470505 C100.588066,9.89502066 100.395684,9.29052006 99.7869151,8.88818534 C99.2585247,8.53883845 98.6932393,8.54229996 98.1187301,8.60460726 C97.4934901,8.6723731 96.9670763,8.98011523 96.5803367,9.474047 C96.3780726,9.7331282 96.2212684,10.0472608 96.1145362,10.360994 C95.8865773,11.0284676 95.8556118,11.7280268 95.8582471,12.4317131 C95.8668121,14.3621077 95.8615413,16.2925688 95.8615413,18.2230299 C95.8615413,18.3434507 95.8615413,18.463805 95.8615413,18.6127168" id="Fill-3"></path>
                        <path d="M31.2234804,6.27161839 C31.2234804,7.07593409 31.2234804,7.85248033 31.2234804,8.66745098 C31.4770948,8.286936 31.692247,7.92233686 31.9477648,7.58970257 C32.4299865,6.96212588 33.032452,6.50749239 33.7894226,6.24158474 C34.3206739,6.0549233 34.8594076,5.96688676 35.4043766,5.98719776 C36.3179528,6.02129361 37.1731138,6.28174059 37.7854245,7.02079471 C38.2259679,7.55261002 38.5555878,8.16413768 38.7409416,8.8513155 C38.9692865,8.5005012 39.1869984,8.15108536 39.4195439,7.8120581 C39.8102702,7.24248431 40.2977428,6.79877215 40.9155012,6.46826885 C41.546518,6.13064005 42.2006383,5.96508873 42.8951899,5.98413446 C43.8902194,6.01130459 44.8414703,6.25210651 45.5561719,6.99821953 C46.2653602,7.73853893 46.7237564,8.61577446 46.7185712,9.70151409 C46.7049191,12.5316026 46.7139767,15.3617577 46.7139767,18.1918462 C46.7139767,18.3234348 46.7139767,18.4549569 46.7139767,18.608255 C45.7491394,18.608255 44.8050428,18.608255 43.8260282,18.608255 C43.8260282,18.4823934 43.8260282,18.3637238 43.8260282,18.2450543 C43.8260282,15.7812298 43.836136,13.3172721 43.8162486,10.8535808 C43.8128355,10.4364394 43.735386,10.0002523 43.5961081,9.60801689 C43.3291698,8.85664298 42.6691423,8.66065845 41.9666488,8.57541883 C41.4356601,8.51095637 40.9242963,8.63914876 40.4620277,8.86829683 C39.8956616,9.14898823 39.5412972,9.66934945 39.374912,10.2726861 C39.2317616,10.7915823 39.1197223,11.3377818 39.1123055,11.8736593 C39.0830322,13.9929959 39.1002943,16.113065 39.1002943,18.2328677 C39.1002943,18.3526027 39.1002943,18.4724044 39.1002943,18.6109853 C38.1160289,18.6109853 37.1576895,18.6109853 36.1467106,18.6109853 C36.1467106,18.4919828 36.1467106,18.3646562 36.1467106,18.2373295 C36.1467106,15.7956806 36.1536023,13.3539651 36.1412629,10.9123828 C36.1386375,10.3793688 36.0375593,9.86380233 35.7956936,9.36714837 C35.5371566,8.83619879 35.1000262,8.63109096 34.587481,8.58667313 C34.1099193,8.545252 33.6292071,8.54551837 33.1532207,8.74230202 C32.6593815,8.94647754 32.3058704,9.29829074 32.0238359,9.70977168 C31.4931098,10.4839871 31.3547508,11.384264 31.355079,12.3113114 C31.3558666,14.2868062 31.3553415,16.2623675 31.3553415,18.2378622 C31.3553415,18.3574641 31.3553415,18.4771325 31.3553415,18.6127168 C30.4113105,18.6127168 29.4967497,18.6127168 28.5575758,18.6127168 C28.5575758,14.5051661 28.5575758,10.3952847 28.5575758,6.27161839 C29.4424038,6.27161839 30.3284133,6.27161839 31.2234804,6.27161839" id="Fill-4"></path>
                        <path d="M57.4272528,12.3307083 C56.9502395,12.3640387 56.5084828,12.4040751 56.0658742,12.4239936 C55.2474349,12.4607102 54.4442648,12.57896 53.6860501,12.9044294 C53.0947476,13.1582583 52.5590169,13.4835284 52.3063879,14.141173 C52.1411797,14.5711484 52.2037635,14.9934883 52.2599251,15.4289745 C52.3369917,16.0265978 52.7546323,16.3646158 53.2191289,16.5467379 C54.086128,16.8867478 54.9706243,16.8263945 55.8303493,16.4114245 C56.4792552,16.0981719 56.888442,15.5592419 57.1653182,14.9405049 C57.5250933,14.1365253 57.4803999,13.2592454 57.4272528,12.3307083 Z M60.4051948,18.5939679 C59.6151312,18.5939679 58.753768,18.5939679 57.8286413,18.5939679 C57.6975756,17.8624254 57.5656581,17.1260361 57.4287601,16.3618936 C57.312767,16.5601497 57.2083077,16.7513016 57.0921835,16.9349507 C56.4142466,18.0070342 55.4731299,18.6494743 54.2061841,18.8052374 C53.4804737,18.8944726 52.7581711,18.9374967 52.0568389,18.7241025 C51.4580656,18.541914 50.9150608,18.2533604 50.4503676,17.7870669 C49.8607034,17.1953527 49.4790403,16.5171256 49.3721563,15.6954849 C49.3251692,15.3342286 49.366586,14.9587636 49.3887361,14.5910669 C49.4429972,13.6896855 49.820073,12.9319834 50.4882456,12.3514236 C51.2032741,11.7301636 52.064965,11.381456 52.9754123,11.1677962 C53.94248,10.9408574 54.9244892,10.8263256 55.9188841,10.8319692 C56.417982,10.8348242 56.9170799,10.8325004 57.4351823,10.8325004 C57.4351823,10.3607624 57.4867566,9.91405541 57.4238451,9.48454479 C57.3126359,8.72551472 56.8236956,8.28976295 56.0868447,8.15531264 C55.1009035,7.97544801 54.1226297,7.92412451 53.170438,8.34925306 C52.6077733,8.60042614 52.2573693,9.01280681 52.142818,9.62118613 C52.1079545,9.80616319 52.0571666,9.93736013 51.8416292,9.90243625 C51.166248,9.79288415 50.491129,9.68167217 49.8160755,9.56992903 C49.7863236,9.56501578 49.7583411,9.54888175 49.6386782,9.50346742 C49.7996923,9.09400815 49.9430126,8.68521283 50.1192958,8.29162201 C50.3841795,7.69984149 50.8822288,7.31229263 51.3760841,6.93888596 C51.6403124,6.73903637 51.9445157,6.55312978 52.2587455,6.46987018 C52.9272457,6.29286055 53.6103597,6.16026931 54.2947844,6.06120765 C54.7748778,5.99169187 55.269585,5.96466901 55.7531516,5.99494523 C56.6490507,6.05104919 57.567493,6.08650423 58.3670588,6.56169476 C59.2645307,7.09498111 59.9786417,7.79412269 60.0694047,8.93585475 C60.1126563,9.47989712 60.1883467,10.0236739 60.1932617,10.5681146 C60.2091862,12.3377462 60.1772062,14.1079754 60.2083998,15.8772086 C60.2242587,16.7777269 60.335599,17.6765188 60.4051948,18.5939679 L60.4051948,18.5939679 Z" id="Fill-5"></path>
                        <path d="M126.360304,10.9321086 C128.163066,10.9321086 129.964511,10.9321086 131.76464,10.9321086 C131.919313,9.59071493 130.945861,8.20700204 129.661089,8.04377069 C128.00576,7.83343677 126.724279,8.42676977 126.360304,10.9321086 Z M126.233933,12.8100995 C126.414275,13.6602047 126.472195,14.4873897 126.775617,15.209142 C127.097468,15.9738779 127.815545,16.4145427 128.640906,16.5940507 C129.220107,16.7200119 129.800623,16.6990848 130.355471,16.4805129 C130.927432,16.2550982 131.419752,15.9181387 131.666571,15.3151062 C131.94564,14.6324178 132.021989,14.5976057 132.892764,14.7380498 C133.359416,14.8133873 133.830016,14.8687279 134.297984,14.9386177 C134.380257,14.9509083 134.45858,14.9904372 134.532955,15.0155497 C134.215711,16.0394494 133.664154,16.9102159 132.868412,17.5869251 C132.112818,18.2290216 131.222297,18.6382626 130.234366,18.786546 C128.958808,18.9779459 127.70168,18.8944368 126.536697,18.3117999 C125.814671,17.9505251 125.165703,17.4488063 124.697077,16.759408 C124.242273,16.0894752 123.85592,15.3905101 123.686109,14.5787381 C123.481414,13.6012102 123.374788,12.6296615 123.489312,11.6258916 C123.590014,10.7448941 123.739421,9.88283062 124.163949,9.10507343 C124.610855,8.28738867 125.151881,7.55028984 125.928536,6.98598903 C126.754555,6.38514884 127.65824,6.13628249 128.650121,6.01948936 C129.409663,5.93000111 130.141562,6.01065348 130.859639,6.18504594 C131.504658,6.3415009 132.094389,6.64942817 132.615011,7.10025762 C133.232387,7.63539336 133.70562,8.26891967 134.043925,9.00282961 C134.421064,9.82157734 134.671832,10.6794554 134.691577,11.5944013 C134.697501,11.8668522 134.731726,12.1387716 134.756737,12.4106245 C134.784381,12.7144328 134.644846,12.8148829 134.351955,12.8140857 C131.80808,12.80711 129.264205,12.8100995 126.72033,12.8100995 C126.601857,12.8100995 126.482726,12.8100995 126.233933,12.8100995 L126.233933,12.8100995 Z" id="Fill-6"></path>
                        <g id="Group-10" transform="translate(72.907359, 5.982659)">
                            <path d="M38.5509673,9.75484312 C39.5056982,9.5725523 40.3866335,9.40423292 41.2300121,9.24332966 C41.5838358,9.93077727 42.0160673,10.4240815 42.7441402,10.603194 C43.5835655,10.8097196 44.4236496,10.7936293 45.2531916,10.5971022 C45.9997134,10.4201748 46.6612385,9.67915899 46.2968726,8.78525197 C46.1209491,8.35286584 45.668292,8.17766006 45.2248593,8.0828397 C44.3544662,7.89664218 43.4840732,7.70951764 42.6077501,7.55596428 C41.9060328,7.43293619 41.2530732,7.15926821 40.6646849,6.79985138 C39.9458364,6.36117478 39.3653548,5.73464528 39.2197402,4.84762466 C39.1004812,4.11594521 39.0253678,3.36910245 39.3574481,2.66443886 C39.5399605,2.27694672 39.7119306,1.86773595 39.978122,1.54102949 C40.3194268,1.12042968 40.6989472,0.712013495 41.2352832,0.509394571 C41.8216949,0.288102922 42.4087655,0.0750881896 43.0445939,0.0689301635 C43.6066266,0.0635005061 44.1699772,0.0389346169 44.7300333,0.074161175 C45.5701174,0.126934797 46.3522193,0.352199366 47.0730444,0.835438879 C47.7253451,1.2729236 48.1463755,1.85747257 48.4488058,2.55650786 C48.5594992,2.81262878 48.5133769,2.93108801 48.1957922,2.98498729 C47.5000048,3.10318166 46.8147597,3.28130092 46.1104068,3.43803261 C46.0800979,3.38896705 46.0326579,3.3399677 46.0168445,3.2820955 C45.7842565,2.45307951 45.1451337,2.13557698 44.3841163,2.06750761 C43.7621246,2.01182052 43.1269551,2.00135849 42.5155056,2.23231758 C42.1748597,2.36097398 41.7452637,2.80435186 41.7162726,3.13165426 C41.6589492,3.78202128 41.809176,4.02410454 42.3086143,4.31187639 C43.0393228,4.73307213 43.8616169,4.78107825 44.6509665,4.96972574 C45.5022518,5.17327168 46.3733038,5.3288115 47.1929623,5.62505891 C48.2458678,6.00579708 48.8573173,6.85613441 49.0806808,7.93762947 C49.2961377,8.97754131 49.1874209,10.002025 48.5654292,10.9001036 C48.2847423,11.3050765 47.8973152,11.6105941 47.474967,11.889162 C46.8035586,12.332275 46.0768035,12.585946 45.3026083,12.7285076 C44.2562917,12.9211942 43.2027274,12.9435088 42.1695886,12.6722908 C41.5798825,12.5174793 40.9809519,12.3325399 40.4459336,12.0479464 C39.9043264,11.7600421 39.3943459,11.379635 39.1017989,10.7901861 C38.9370766,10.4571892 38.7532464,10.1333962 38.5509673,9.75484312" id="Fill-7"></path>
                            <path d="M10.6852114,0.266119431 C10.449329,0.991574638 10.2318955,1.67862495 10.0026019,2.36190099 C9.65339045,3.40525602 9.29561344,4.44583001 8.94244865,5.48792695 C8.6624206,6.31568485 8.38436922,7.14436976 8.1030234,7.97173037 C7.81442978,8.81975016 7.52188283,9.66618079 7.23328922,10.5141344 C6.95194339,11.341495 6.68443424,12.1740204 6.39056952,12.9968121 C6.11844814,13.7572952 5.88651903,14.5430064 5.516882,15.2545564 C4.93376477,16.3766415 4.00341276,17.0468069 2.68233926,17.0163478 C2.13743762,17.0037669 1.59319487,16.9663552 1.02259654,16.9390083 C1.02259654,16.2097126 1.02259654,15.4777021 1.02259654,14.7009962 C1.54904928,14.7009962 2.08340868,14.72 2.61579142,14.6952355 C3.06713075,14.6742452 3.54680232,14.6219351 3.81628814,14.2015339 C4.03372168,13.8629087 4.1582518,13.4652194 4.3341753,13.0989162 C4.53052438,12.6907649 4.41719538,12.3330034 4.246543,11.9388897 C4.00538943,11.3815553 3.85450373,10.7854848 3.64629464,10.2127884 C3.43808555,9.63896629 3.19627309,9.0772616 2.988064,8.50330708 C2.75745267,7.8690966 2.55715025,7.22396059 2.32851559,6.58915418 C2.12096539,6.01433886 1.88837738,5.44892612 1.67621496,4.87576618 C1.47525365,4.33240314 1.29010569,3.78314694 1.09243883,3.23872446 C0.873028622,2.63603248 0.643076178,2.03731342 0.425642634,1.43395929 C0.288593613,1.05388327 0.166040161,0.668443805 0.0309678077,0.266185646 C0.96000204,0.266185646 1.86004513,0.261351926 2.76008823,0.273601763 C2.85101498,0.274859855 2.99267623,0.359747914 3.02232626,0.438941454 C3.29905986,1.19359762 3.54614343,1.95931176 3.82287703,2.71410036 C4.07325505,3.3978399 4.35789533,4.06866746 4.61090891,4.75141378 C4.81977689,5.31351576 4.99570039,5.88773514 5.19995614,6.45129385 C5.41804858,7.05233045 5.65327214,7.6471428 5.8944257,8.2801614 C6.19817377,7.38579087 6.49269739,6.54207508 6.76943099,5.69273098 C7.06395461,4.79259972 7.34530044,3.8883631 7.6246696,2.98346434 C7.85923427,2.22364337 8.08786894,1.46183595 8.30793804,0.697777198 C8.39754701,0.387359709 8.54579716,0.235461731 8.90291528,0.256650638 C9.48932696,0.291479904 10.0790331,0.266119431 10.6852114,0.266119431" id="Fill-9"></path>
                        </g>
                        <path d="M61.8528139,18.4595495 C62.2300767,17.8887536 62.5749952,17.3840024 62.9018428,16.8675807 C63.2248275,16.3572594 63.5199201,15.8288356 63.8449344,15.3199068 C64.1981027,14.7669483 64.5752345,14.2297052 64.9353431,13.6811231 C65.208109,13.2654925 65.4672562,12.8406447 65.7391709,12.424351 C65.8734586,12.2191217 65.8599709,12.0252978 65.7396947,11.8229862 C65.4736727,11.3756594 65.2116446,10.9259454 64.9463428,10.4781545 C64.6261081,9.93766219 64.303058,9.39876136 63.9832816,8.85800386 C63.6754215,8.33740458 63.3688054,7.81600957 63.0640881,7.29355361 C62.8467135,6.92089179 62.6332673,6.54590912 62.3915363,6.125902 C62.7493532,6.125902 63.0710284,6.125902 63.392769,6.125902 C63.9818411,6.125902 64.5718954,6.14632546 65.1594616,6.11675123 C65.4303287,6.1031577 65.6050141,6.21117658 65.7202488,6.41408497 C65.9670869,6.84934337 66.1792235,7.30522416 66.4214784,7.74326758 C66.6801018,8.20982427 66.962296,8.66311897 67.2248478,9.1272885 C67.3296067,9.31229321 67.4114496,9.51069253 67.5410886,9.78090551 C67.8200091,9.32084719 68.059645,8.92119723 68.303864,8.52453121 C68.5120723,8.18707996 68.7274826,7.85433672 68.9363456,7.51728333 C69.1432443,7.18268341 69.3455599,6.84523216 69.5504944,6.50923973 C69.6906093,6.27868009 69.8438192,6.10574379 70.1613694,6.11847529 C70.7873036,6.14360676 71.415202,6.125902 72.1072651,6.125902 C72.003161,6.3281473 71.9416152,6.47641631 71.8558439,6.60830677 C71.3431803,7.39520674 70.822005,8.1760062 70.3099961,8.96343665 C69.788166,9.76664887 69.2578243,10.5652857 68.7759336,11.3928337 C68.7091498,11.5081466 68.874145,11.7916216 68.9756302,11.9725151 C69.312168,12.5752061 69.6657291,13.1679506 70.017326,13.7619549 C70.2392838,14.1370702 70.4749913,14.5038968 70.6930206,14.8810677 C71.1087823,15.5996021 71.5121039,16.3256296 71.9298298,17.043103 C72.1963102,17.5009731 72.4791591,17.948963 72.7757576,18.4359432 C71.687575,18.4359432 70.6373675,18.4359432 69.5878147,18.4359432 C68.7451607,16.9689685 67.8985782,15.4954292 67.0316987,13.9849553 C66.6774828,14.5745832 66.3442187,15.1439866 65.9958955,15.7033109 C65.7807471,16.0483214 65.5333197,16.3726433 65.3154868,16.7159961 C65.0791246,17.0885254 64.860506,17.4725925 64.6335721,17.8513548 C64.4199295,18.2079033 64.2220008,18.5282466 63.6976827,18.4736735 C63.1071702,18.4122042 62.5057234,18.4595495 61.8528139,18.4595495" id="Fill-11"></path>
                        <path d="M143.445887,5.86039818 C143.445887,6.87275515 143.445887,7.86101154 143.445887,8.84900308 C143.006176,8.90634128 142.560504,8.92977976 142.132712,9.02816841 C141.484402,9.17740665 140.930789,9.51832398 140.661929,10.1492429 C140.393069,10.7794996 140.198378,11.4414712 139.979846,12.0924518 C139.946073,12.1926281 139.952695,12.3085625 139.952033,12.41728 C139.950709,14.3360573 139.951371,16.2548346 139.951371,18.1736781 C139.951371,18.2700805 139.951371,18.366549 139.951371,18.4797688 C138.999104,18.4797688 138.076636,18.4797688 137.129004,18.4797688 C137.129004,14.3986261 137.129004,10.314173 137.129004,6.20575161 C137.962073,6.20575161 138.80375,6.20575161 139.671916,6.20575161 C139.671916,7.0609251 139.671916,7.91662827 139.671916,8.77226523 C139.698404,8.78405068 139.724893,8.79583613 139.751382,8.80762158 C140.018255,7.98787066 140.440749,7.28491487 141.069192,6.68988204 C141.741342,6.05340149 142.50554,5.79160558 143.445887,5.86039818" id="Fill-12"></path>
                        <path d="M109.624242,6.11560694 C109.624242,10.2483546 109.624242,14.3552913 109.624242,18.4797688 C108.701726,18.4797688 107.794205,18.4797688 106.860606,18.4797688 C106.860606,14.3687637 106.860606,10.2539569 106.860606,6.11560694 C107.768779,6.11560694 108.684776,6.11560694 109.624242,6.11560694" id="Fill-13"></path>
                        <path d="M148.154903,2.86172272 C148.154903,3.88396048 148.154903,4.90626358 148.154903,5.95541609 C147.85978,5.95541609 147.572511,5.95541609 147.262338,5.95541609 C147.262338,4.52494955 147.262338,3.08507592 147.262338,1.62521221 C147.781256,1.62521221 148.300174,1.62521221 148.854428,1.62521221 C149.084767,2.41122734 149.319687,3.21625265 149.555262,4.02134328 C149.582091,4.02278048 149.609575,4.02415235 149.636404,4.02552421 C149.840568,3.35337414 150.070908,2.68769144 150.237118,2.00626493 C150.314335,1.69093123 150.426232,1.57484505 150.75211,1.59829747 C151.161093,1.62775997 151.574003,1.60541812 152,1.60541812 C152,3.06920145 152,4.50136649 152,5.95789852 C151.671505,5.95789852 151.341046,5.95789852 150.981141,5.95789852 C150.981141,4.87836892 150.981141,3.79642223 150.981141,2.71454086 C150.960201,2.71088255 150.939261,2.70722423 150.917667,2.70350059 C150.579356,3.78904027 150.241045,4.87457995 149.903388,5.95698394 C149.877213,5.96541113 149.856928,5.97717 149.835988,5.97782327 C149.078878,6.00356213 149.051394,5.95502412 148.872096,5.10805885 C148.756272,4.5605528 148.57043,4.02774533 148.41338,3.48905843 C148.349906,3.27086607 148.280542,3.05456819 148.213142,2.83742106 C148.193511,2.84552161 148.174534,2.85362216 148.154903,2.86172272" id="Fill-14"></path>
                        <path d="M106.860606,1.86127168 C107.791165,1.86127168 108.699552,1.86127168 109.624242,1.86127168 C109.624242,2.83689775 109.624242,3.79796022 109.624242,4.78612717 C108.715203,4.78612717 107.799642,4.78612717 106.860606,4.78612717 C106.860606,3.82661545 106.860606,2.85759693 106.860606,1.86127168" id="Fill-15"></path>
                        <path d="M145.729265,2.50271868 C145.729265,3.69031996 145.729265,4.82817671 145.729265,5.98265896 C145.38197,5.98265896 145.056464,5.98265896 144.696624,5.98265896 C144.696624,4.84071181 144.696624,3.69487218 144.696624,2.51360442 C144.308393,2.51360442 143.952515,2.51360442 143.577489,2.51360442 C143.577489,2.18927533 143.577489,1.90037438 143.577489,1.59537572 C144.662951,1.59537572 145.735207,1.59537572 146.857643,1.59537572 C146.857643,1.81652119 146.887355,2.04723291 146.843778,2.26349628 C146.825291,2.35843313 146.665509,2.47791238 146.557227,2.49196488 C146.300387,2.52547977 146.035624,2.50271868 145.729265,2.50271868" id="Fill-16"></path>
                    </g>
                </g>
            </g>
        </g>
    </g>
</svg>