<?xml version="1.0" encoding="UTF-8"?>
<svg width="110px" height="24px" viewBox="0 0 110 24" version="1.1" xmlns="http://www.w3.org/2000/svg" xmlns:xlink="http://www.w3.org/1999/xlink">
    <!-- Generator: Sketch 46.2 (44496) - http://www.bohemiancoding.com/sketch -->
    <title>optimizely</title>
    <desc>Created with Sketch.</desc>
    <defs></defs>
    <g id="CH.me-Design" stroke="none" stroke-width="1" fill="none" fill-rule="evenodd" opacity="0.5">
        <g id="CH.me-Homepage" transform="translate(-150.000000, -3941.000000)" fill-rule="nonzero" fill="#313335">
            <g id="Group-16" transform="translate(0.000000, 3021.000000)">
                <g id="optimizely" transform="translate(150.000000, 920.000000)">
                    <path d="M19.1823788,10.9398698 L19.4109724,8.61126005 C19.367574,7.54150025 19.1179257,6.57613394 18.6691174,5.68911747 L17.4681416,7.38086119 C17.6342157,7.94441101 17.7010321,8.5526071 17.6511883,9.18794113 C17.4225947,12.0973902 14.8277135,14.4559829 11.8547074,14.4559829 C11.1568954,14.4559829 10.4999036,14.3259835 9.90693518,14.089402 L17.0844309,6.45138699 L20.1154447,3.31958199 L17.9558366,4.48257373 C16.5241187,2.64682388 14.2235732,1.55692947 11.5852935,1.66438693 C7.0469369,1.84931882 3.19113844,5.61032992 2.97307216,10.0651092 C2.75500589,14.5196695 6.25652722,17.9810691 10.794669,17.7963561 C14.7972057,17.6335285 18.2688637,14.6879685 19.1823788,10.9396509 L19.1823788,10.9398698 Z M27.33462,12.781091 C27.4577254,11.5323084 27.3556747,10.6253762 27.0297569,10.0620452 C26.7117884,9.49915194 26.1519059,9.2172676 25.3520431,9.21661104 C25.0003441,9.21661104 24.6434888,9.27395087 24.2814773,9.38797396 C23.9263408,9.50199705 23.5694856,9.67335996 23.2100522,9.9020627 L22.5766932,16.3569514 C22.7764978,16.4482136 22.9980015,16.5134322 23.241849,16.5517317 C23.491927,16.5898123 23.7890557,16.6081961 24.1336649,16.6081961 C25.0907932,16.6081961 25.8320037,16.2926082 26.3577261,15.6603381 C26.8828039,15.0204082 27.2085068,14.0605132 27.33462,12.781091 L27.33462,12.781091 Z M36.1904741,19.5441265 C34.5901039,19.5441265 33.4568038,19.209936 32.7899292,18.5389287 C32.1299296,17.868578 31.8751251,16.7718991 32.0250859,15.2484543 L32.6139723,9.25075231 L31.180106,9.25075231 C31.4291097,10.2172129 31.4881917,11.3675111 31.3575668,12.7012092 C31.156688,14.7499043 30.4820791,16.4029108 29.3345993,17.6595721 C28.1942093,18.9162335 26.8763586,19.5441265 25.3814767,19.5441265 C24.7530591,19.5441265 24.2140164,19.4719046 23.7652081,19.3274607 C23.3155404,19.1823603 22.8443883,18.9580347 22.3511074,18.6533895 L21.8260296,24 L17.9008366,24 L18.6115393,16.7563605 C16.515525,19.6152541 13.1991988,21.4956503 9.60379083,21.4956503 C3.85264195,21.4956503 -0.43112501,16.6841385 0.0346559602,10.7477157 C0.501296305,4.81173059 5.54109796,0 11.2922468,0 C14.2076748,0 16.746267,1.23630793 18.4798402,3.22963287 L21.7877874,1.93883022 L19.8335698,5.2579745 C20.0275751,5.64788416 20.1958833,6.05051796 20.3373781,6.46320512 L23.5471418,6.46320512 L23.4158724,7.79996717 C24.0406376,7.29725885 24.6675513,6.88953329 25.2963986,6.57722821 C25.9252459,6.26514198 26.6314368,6.10931772 27.41712,6.10888001 C28.0693852,6.10888001 28.643877,6.22706133 29.1405955,6.46276741 L32.8870386,6.46276741 L33.2469016,2.79476938 L37.1727391,2.79476938 L36.8122315,6.46276741 L40.5921902,6.46276741 L40.3184794,9.25053346 L36.5387356,9.25053346 L36.0920757,13.7976692 C36.05306,14.1894503 36.0183248,14.5816615 35.9878765,14.9742299 C35.9620953,15.3097335 35.9923882,15.6106582 36.0785405,15.876785 C36.1571733,16.1437873 36.3193802,16.3567325 36.565591,16.516715 C36.8199659,16.6694753 37.2008836,16.7454177 37.7094185,16.7454177 C37.9186762,16.7454177 38.1958244,16.6994583 38.5417227,16.6079772 C38.8944959,16.516715 39.1417809,16.4331127 39.2842222,16.3567325 L39.6204525,16.3567325 L39.3439487,19.1786398 C38.8889229,19.2960755 38.4270004,19.3837956 37.9610003,19.441265 C37.4756686,19.5099852 36.8854932,19.5441265 36.1906889,19.5441265 L36.1904741,19.5441265 Z M6.88472997,9.18772227 C7.11353842,6.27849209 9.70884936,3.91924276 12.6816405,3.91924276 C14.1720107,3.91924276 15.4746076,4.51255677 16.3741579,5.47026317 L7.55869441,12.1103026 C7.05359705,11.2742791 6.80029642,10.2690814 6.88472997,9.18815998 L6.88472997,9.18772227 Z M44.1147662,19.2926629 L40.1895732,19.2926629 L41.4489865,6.46276741 L45.3741795,6.46276741 L44.1147662,19.2926629 Z M45.6659371,4.63489632 L41.5162326,4.63489632 L41.8221699,1.51622257 L45.9718744,1.51622257 L45.6659371,4.63489632 Z M60.065616,19.2926629 L60.6951078,12.8837337 C60.7571976,12.2512447 60.7982327,11.7189911 60.8182132,11.2843464 C60.8379788,10.8503584 60.8057522,10.4958144 60.7202445,10.2218088 C60.6351664,9.94714669 60.4787602,9.74952126 60.2514557,9.62783827 C60.0323152,9.49871423 59.7100498,9.4337145 59.2838,9.4337145 C58.9845229,9.4337145 58.6826676,9.50243475 58.3771599,9.63921869 C58.0731562,9.76878043 57.736926,9.95546315 57.3695434,10.199048 L56.4762236,19.2931006 L52.5289017,19.2931006 L53.1583936,12.8841714 C53.2191943,12.2597801 53.2561474,11.7308092 53.269038,11.2963834 C53.2900927,10.8545166 53.2578661,10.4969087 53.1723584,10.2224654 C53.0872803,9.94780325 52.9302296,9.75017782 52.7033548,9.62849483 C52.4842143,9.49937079 52.1653863,9.43437107 51.7470858,9.43437107 C51.4252501,9.43437107 51.1036292,9.51097007 50.7824379,9.66307381 C50.4538554,9.81926301 50.1364643,9.9988018 49.8326143,10.2003611 L48.9399391,19.2944137 L45.0147461,19.2944137 L46.2741594,6.46451825 L50.1999969,6.46451825 L50.0603485,7.88116212 C50.7579458,7.3252722 51.4059141,6.89062756 52.0048982,6.57854134 C52.6038822,6.26623625 53.2585107,6.11041199 53.9685688,6.10997428 C54.7387832,6.10997428 55.3968492,6.296657 55.9436263,6.66980358 C56.4904033,7.04360672 56.8801296,7.59927778 57.114524,8.33769218 C57.9395235,7.62203863 58.7037222,7.0733709 59.4069054,6.69256443 C60.117823,6.30387919 60.8169241,6.10997428 61.5054979,6.10997428 C62.0885835,6.10997428 62.6024894,6.20539476 63.0474306,6.39536029 C63.4921569,6.58576353 63.8565316,6.87158724 64.1409846,7.25195601 C64.4514336,7.66340209 64.665203,8.15451113 64.7812186,8.72572085 C64.9056131,9.28927067 64.9225857,10.0283416 64.8327811,10.9422772 L64.0131526,19.2937572 L60.065616,19.2937572 L60.065616,19.2926629 L60.065616,19.2926629 Z M70.2887348,4.63489632 L66.1392451,4.63489632 L66.4456121,1.51622257 L70.5953167,1.51622257 L70.2887348,4.63489632 Z M80.4785529,16.2308913 C80.0144907,15.2403567 79.8527134,14.032281 79.9927915,12.6060076 C80.1983968,10.5117908 80.9531425,8.83974394 82.2572432,7.59030475 C83.5611292,6.34152213 85.2745071,5.71691197 87.3984511,5.71647426 C89.3268874,5.71647426 90.7257342,6.24610166 91.5937025,7.30448104 C92.4616707,8.36351699 92.7985455,9.879083 92.6051862,11.8513979 L92.4638191,13.2908026 L83.8614806,13.2908026 C83.8406407,13.8847732 83.9151915,14.3844176 84.0849179,14.7873283 C84.2555038,15.1836735 84.50107,15.4994802 84.8220464,15.7354052 C85.1357181,15.9717678 85.5112647,16.1431307 85.949116,16.249275 C86.3880415,16.3490726 86.8727287,16.398096 87.4036073,16.398096 C87.860848,16.3981841 88.316778,16.3482916 88.7635675,16.249275 C89.2149539,16.1431307 89.6321802,16.0056902 90.0154612,15.837829 C90.335286,15.7015445 90.6464792,15.5451264 90.947238,15.3694808 C91.2402847,15.2022761 91.4794057,15.053674 91.6639563,14.9234557 L92.0788194,14.9234557 L91.7548352,18.2253105 C91.446681,18.3446229 91.1394452,18.4663826 90.8331561,18.5905783 C90.5603047,18.6973792 90.1871213,18.8079006 89.7125317,18.9219237 C89.275325,19.035728 88.8252276,19.1237074 88.3633138,19.1845489 C88.022357,19.2364174 87.6257556,19.2681512 87.1743692,19.2812825 L68.7369193,19.2909121 L64.8119412,19.2909121 L66.0717842,6.46101658 L69.9969772,6.46101658 L69.0441457,16.1680801 L75.3092005,9.46544838 L70.633344,9.48273787 L70.9732266,6.54133611 L80.4826349,6.46101658 L80.2282601,9.05422115 L73.5015063,16.2289216 L80.4785529,16.2289216 L80.4785529,16.2308913 L80.4785529,16.2308913 Z M88.8316729,10.8807791 C88.8920439,10.0355638 88.7607745,9.39191333 88.4378645,8.95026536 C88.1226889,8.50839853 87.5905213,8.28823111 86.8432952,8.28757455 C86.08103,8.28757455 85.4597023,8.51977896 84.9803861,8.98418778 C84.5085895,9.44925316 84.2110311,10.0808667 84.0879257,10.8807791 L88.8316729,10.8807791 L88.8316729,10.8807791 Z M110,6.11632106 L101.919302,23.6533348 L97.7023511,23.6533348 L100.10151,18.6382886 L97.4262771,8.76226952 L96.4266097,18.9464354 L92.5007722,18.9464354 L94.245947,1.16955737 L98.1711399,1.16955737 L97.6853785,6.11653991 L100.836275,6.11653991 L102.693383,14.1598731 L105.961799,6.11653991 L110,6.11653991 L110,6.11632106 Z" id="Shape"></path>
                </g>
            </g>
        </g>
    </g>
</svg>