<?xml version="1.0" encoding="UTF-8"?>
<svg width="144px" height="33px" viewBox="0 0 144 33" version="1.1" xmlns="http://www.w3.org/2000/svg" xmlns:xlink="http://www.w3.org/1999/xlink">
    <!-- Generator: Sketch 46.2 (44496) - http://www.bohemiancoding.com/sketch -->
    <title>tealium_logo_rgb</title>
    <desc>Created with Sketch.</desc>
    <defs>
        <polygon id="path-1" points="7.84088707 8.95425635 7.00809274e-15 8.95425635 0 0 7.84088707 0"></polygon>
    </defs>
    <g id="CH.me-Design" stroke="none" stroke-width="1" fill="none" fill-rule="evenodd" opacity="0.5">
        <g id="CH.me-Homepage" transform="translate(-928.000000, -3936.000000)">
            <g id="Group-16" transform="translate(0.000000, 3021.000000)">
                <g id="tealium_logo_rgb" transform="translate(928.000000, 915.000000)">
                    <path d="M9.9444764,16.9599597 C9.91556302,15.3050965 9.01307993,13.9779862 7.92169606,14.0002767 C6.83069771,14.0221544 5.97216296,15.383526 6.00069084,17.0383892 C6.02960422,18.6949035 6.93478589,20.0220138 8.02616976,19.9997233 C9.11639709,19.9778456 9.9737753,18.616474 9.9444764,16.9599597" id="Fill-1" fill="#313335"></path>
                    <path d="M3.08031795,21.7570009 C2.77474552,20.3865704 3.36694016,19.1573066 4.41773032,19.013911 C5.46662546,18.869401 6.5572111,19.867226 6.86562607,21.2417428 C7.16977723,22.6136593 6.57663508,23.8406942 5.52063361,23.9866902 C4.47837105,24.1278568 3.38589039,23.1300318 3.08031795,21.7570009" id="Fill-2" fill="#313335"></path>
                    <path d="M2.74600639,25.1567371 C2.31923971,23.7834392 1.40898138,22.8350313 0.710112156,23.0239638 C0.0178903892,23.2145609 -0.210338938,24.4817404 0.213768764,25.8442183 C0.639205957,27.2154355 1.54813479,28.1675887 2.24656085,27.975327 C2.9463164,27.7855622 3.16612562,26.5171343 2.74600639,25.1567371" id="Fill-3" fill="#313335"></path>
                    <g id="Group-7" transform="translate(0.000000, 6.000000)" fill="#313335">
                        <path d="M6.2235233,5.53659439 C6.19477966,4.12202918 5.44702232,2.98450744 4.55808299,3.00015961 C3.67252526,3.01502918 2.97211038,4.17681179 3.00085402,5.59255092 C3.02875226,7.00515961 3.7752415,8.14033352 4.66037653,8.12546396 C5.54931586,8.10981179 6.25142154,6.9499857 6.2235233,5.53659439" id="Fill-4"></path>
                        <path d="M2.62245993,2.26302077 C2.59709789,1.00184686 1.98967715,-0.0120227094 1.26728185,0.000107725334 C0.543195739,0.0130207688 -0.0253365502,1.04723816 0.000870886229,2.30841207 C0.0262329215,3.56919468 0.634921767,4.58345555 1.35900787,4.5701512 C2.08140318,4.55880338 2.64782196,3.52419468 2.62245993,2.26302077" id="Fill-6"></path>
                    </g>
                    <path d="M21.8897207,17.9263778 C21.8485324,15.7188023 20.05026,13.959802 17.8723759,14.0006989 C15.6927933,14.0411654 13.9607618,15.8681838 14.0006762,18.0736069 C14.0414399,20.2833349 15.840137,22.0406132 18.0188703,21.9992857 C20.1971791,21.9579583 21.9300598,20.1352448 21.8897207,17.9263778" id="Fill-8" fill="#313335"></path>
                    <path d="M10.0138883,20.2942278 C11.2492454,19.5189314 13.1105849,20.3289166 14.1879559,22.1002173 C15.2619203,23.8741197 15.1358721,25.9329045 13.9073285,26.7060328 C12.6732489,27.4800284 10.815742,26.6730784 9.72942831,24.9022113 C8.65205726,23.1261408 8.78577051,21.0634536 10.0138883,20.2942278" id="Fill-9" fill="#313335"></path>
                    <g id="Group-13" transform="translate(2.958904, 24.000000)">
                        <mask id="mask-2" fill="white">
                            <use xlink:href="#path-1"></use>
                        </mask>
                        <g id="Clip-11"></g>
                        <path d="M4.04230774,0.0978472605 C5.12154062,-0.322698194 6.57688308,0.651756351 7.29491048,2.2652109 C8.01512966,3.88561999 7.72406117,5.53302908 6.64658171,5.94948362 C5.57348582,6.36266544 4.12033514,5.39680181 3.39397897,3.77884726 C2.67463651,2.16007453 2.96921185,0.513074533 4.04230774,0.0978472605" id="Fill-10" fill="#313335" mask="url(#mask-2)"></path>
                        <path d="M0.648232583,3.0421347 C1.3960682,2.77418016 2.50072573,3.81245289 3.11486272,5.35472561 C3.73031478,6.89208925 3.62072573,8.35295289 2.87069834,8.61027107 C2.12373943,8.87454379 1.01250656,7.8391347 0.395301076,6.29890743 C-0.220150978,4.75499834 -0.102671526,3.30068016 0.648232583,3.0421347" id="Fill-12" fill="#313335" mask="url(#mask-2)"></path>
                    </g>
                    <path d="M13.0937173,8.07257213 C14.6051185,8.46644257 15.3121689,10.3146355 14.6950057,12.2051314 C14.0732091,14.1026095 12.3375533,15.3158454 10.8340288,14.9277249 C9.31938419,14.5309795 8.60723713,12.6905901 9.21884033,10.7918799 C9.84805029,8.89070551 11.5864861,7.68445162 13.0937173,8.07257213" id="Fill-14" fill="#313335"></path>
                    <g id="Group-18" transform="translate(1.972603, 0.000000)" fill="#313335">
                        <path d="M6.11643755,3.04641463 C7.24432796,3.33516463 7.75632796,4.96391463 7.25879372,6.6843313 C6.76345125,8.40224797 5.45978002,9.55849797 4.32882111,9.26766463 C3.20750604,8.97516463 2.69638276,7.3555813 3.18558824,5.6243313 C3.67917728,3.90641463 4.9999444,2.74974797 6.11643755,3.04641463" id="Fill-15"></path>
                        <path d="M2.2221532,0.0129242471 C3.01119429,0.174174247 3.3491669,1.62542425 2.98445457,3.26250758 C2.61842717,4.90209091 1.68823539,6.09917425 0.904454567,5.93917425 C0.128564156,5.78334091 -0.217298857,4.33125758 0.142591554,2.68959091 C0.511687444,1.04834091 1.44450936,-0.137909086 2.2221532,0.0129242471" id="Fill-17"></path>
                    </g>
                    <polyline id="Fill-19" fill="#313335" points="41.7808219 12.7342838 35.5842395 12.7342838 35.5842395 23 32.13365 23 32.13365 12.7342838 26 12.7342838 26 10 41.7808219 10 41.7808219 12.7342838"></polyline>
                    <polyline id="Fill-20" fill="#313335" points="57.8219178 23 45 23 45 10 57.8219178 10 57.8219178 12.7342838 48.3022156 12.7342838 48.3022156 15.2057697 56.6913941 15.2057697 56.6913941 17.7938351 48.3022156 17.7938351 48.3022156 20.3668835 57.8219178 20.3668835 57.8219178 23"></polyline>
                    <path d="M70.6603265,17.9633694 L67.8763106,12.7342838 L65.0553351,17.9633694 L70.6603265,17.9633694 Z M76.7534247,23 L73.1651374,23 L71.8687421,20.3668835 L63.829645,20.3668835 L62.4942815,23 L59,23 L65.7700197,10 L69.9512662,10 L76.7534247,23 L76.7534247,23 Z" id="Fill-21" fill="#313335"></path>
                    <polyline id="Fill-22" fill="#313335" points="91.8356164 23 80 23 80 10 83.3377202 10 83.3377202 20.1321437 91.8356164 20.1321437 91.8356164 23"></polyline>
                    <polygon id="Fill-23" fill="#313335" points="94 23 97.9452055 23 97.9452055 10 94 10"></polygon>
                    <path d="M118.767123,18.0117253 C118.767123,22.5724456 116.6248,24 110.285134,24 C103.961838,24 102,22.7721943 102,18.0117253 L102,10 L105.443919,10 L105.443919,17.7818258 C105.443919,20.6959799 107.122856,21.0125628 110.285134,21.0125628 C113.24468,21.0125628 115.298859,20.4970687 115.298859,17.7818258 L115.298859,10 L118.767123,10 L118.767123,18.0117253" id="Fill-24" fill="#313335"></path>
                    <polyline id="Fill-25" fill="#313335" points="141.69863 23 138.206207 23 136.631498 12.9002614 132.632361 23 128.916204 23 124.994633 12.9002614 123.379777 23 120 23 122.251756 10 127.104509 10 130.739982 19.5298821 134.601527 10 139.409066 10 141.69863 23"></polyline>
                    <path d="M142.843243,9.95170193 L142.948538,9.95170193 C143.071603,9.95170193 143.171122,9.90938362 143.171122,9.80588776 C143.171122,9.71527139 143.106257,9.65455382 142.966309,9.65455382 C142.907664,9.65455382 142.866346,9.66053358 142.843243,9.66651334 L142.843243,9.95170193 Z M142.837023,10.5151794 L142.614883,10.5151794 L142.614883,9.52115915 C142.702407,9.50275989 142.825472,9.49080037 142.983636,9.49080037 C143.164902,9.49080037 143.247094,9.52115915 143.31729,9.56393744 C143.369715,9.60579577 143.411033,9.68445262 143.411033,9.78196872 C143.411033,9.89098436 143.328841,9.97562098 143.211551,10.0119595 L143.211551,10.024379 C143.305739,10.0607176 143.358164,10.1333947 143.387486,10.2663293 C143.416809,10.4181233 143.434136,10.4788408 143.457238,10.5151794 L143.217771,10.5151794 C143.188004,10.4788408 143.171122,10.3877645 143.141355,10.2723091 C143.124028,10.1632935 143.065383,10.1149954 142.942762,10.1149954 L142.837023,10.1149954 L142.837023,10.5151794 Z M142.245687,9.99356026 C142.245687,10.4360626 142.562014,10.7874885 142.995187,10.7874885 C143.416809,10.7874885 143.726916,10.4360626 143.726916,10 C143.726916,9.5574977 143.416809,9.200092 142.989411,9.200092 C142.562014,9.200092 142.245687,9.5574977 142.245687,9.99356026 L142.245687,9.99356026 Z M143.972603,9.99356026 C143.972603,10.5574977 143.54565,11 142.989411,11 C142.438949,11 142,10.5574977 142,9.99356026 C142,9.4425023 142.438949,9 142.989411,9 C143.54565,9 143.972603,9.4425023 143.972603,9.99356026 L143.972603,9.99356026 Z" id="Fill-26" fill="#1A1919"></path>
                </g>
            </g>
        </g>
    </g>
</svg>