<svg xmlns="http://www.w3.org/2000/svg" viewBox="0 0 264.23 178.52">
  <title>button-jillian</title>
  <g id="df34bc14-3d4c-4be3-8ec9-121403ff3aaf" data-name="Layer 2">
    <rect width="264.23" height="178.52" style="fill: #bc6666"/>
  </g>
  <g id="2b1ee697-a55b-4520-ac2f-982b695c7af1" data-name="Layer 1">
    <path d="M179,0H2A2,2,0,0,0,0,2V42a2,2,0,0,0,2,2H179a2,2,0,0,0,2-2V2A2,2,0,0,0,179,0ZM36.38,24.81a2.39,2.39,0,0,1-.83.88,3.81,3.81,0,0,1-1.29.5,8.17,8.17,0,0,1-1.67.16,5.5,5.5,0,0,1-3-.7,3.35,3.35,0,0,1-1.47-1.87l1.63-.73a4,4,0,0,0,.42.72,2.2,2.2,0,0,0,.57.54,2.62,2.62,0,0,0,.81.34,4.65,4.65,0,0,0,1.12.12,3.41,3.41,0,0,0,1.6-.3,1,1,0,0,0,.55-.95,1.11,1.11,0,0,0-.16-.62,1.18,1.18,0,0,0-.49-.4,3.73,3.73,0,0,0-.85-.27q-.52-.11-1.25-.23t-1.38-.29a4.13,4.13,0,0,1-1.16-.48,2.3,2.3,0,0,1-.79-.83,3,3,0,0,1,0-2.5,2.41,2.41,0,0,1,.73-.9,3.58,3.58,0,0,1,1.19-.58,5.86,5.86,0,0,1,1.64-.21,5.26,5.26,0,0,1,2.63.57,3.7,3.7,0,0,1,1.51,1.59l-1.48.95a3.05,3.05,0,0,0-1-1.13,2.91,2.91,0,0,0-1.67-.43,3.07,3.07,0,0,0-1.56.29,1,1,0,0,0-.47.9,1,1,0,0,0,.16.58,1.06,1.06,0,0,0,.47.34,3.81,3.81,0,0,0,.79.21l1.12.19a14.32,14.32,0,0,1,1.6.34,4.15,4.15,0,0,1,1.23.56,2.4,2.4,0,0,1,.8.92,3.14,3.14,0,0,1,.28,1.4A2.68,2.68,0,0,1,36.38,24.81ZM47.1,26.19H39.3V16.4h7.55V18H41.08V20.4H46V22h-4.9v2.6h6Zm10.65,0h-7.8V16.4H57.5V18H51.73V20.4h4.9V22h-4.9v2.6h6ZM72.48,18H69v8.18H67.26V18H63.9V16.4h8.58Zm10.84,8.18H81.54V22H76.87v4.21H75.09V16.4h1.78v4h4.67v-4h1.78Zm11.09,0h-7.8V16.4h7.55V18H88.39V20.4h4.9V22h-4.9v2.6h6Zm14.27-1.37a2.39,2.39,0,0,1-.83.88,3.81,3.81,0,0,1-1.29.5,8.16,8.16,0,0,1-1.67.16,5.51,5.51,0,0,1-3-.7,3.35,3.35,0,0,1-1.47-1.87l1.63-.73a4,4,0,0,0,.42.72,2.2,2.2,0,0,0,.57.54,2.62,2.62,0,0,0,.81.34,4.66,4.66,0,0,0,1.12.12,3.4,3.4,0,0,0,1.6-.3,1,1,0,0,0,.55-.95,1.12,1.12,0,0,0-.16-.62,1.18,1.18,0,0,0-.49-.4,3.73,3.73,0,0,0-.85-.27q-.52-.11-1.25-.23T103,21.71a4.13,4.13,0,0,1-1.16-.48,2.29,2.29,0,0,1-.79-.83,2.67,2.67,0,0,1-.29-1.33,2.71,2.71,0,0,1,.25-1.16,2.41,2.41,0,0,1,.73-.9,3.57,3.57,0,0,1,1.19-.58,5.86,5.86,0,0,1,1.64-.21,5.26,5.26,0,0,1,2.63.57,3.7,3.7,0,0,1,1.51,1.59l-1.48.95a3.05,3.05,0,0,0-1-1.13,2.91,2.91,0,0,0-1.67-.43,3.07,3.07,0,0,0-1.56.29,1,1,0,0,0-.47.9,1,1,0,0,0,.16.58,1.06,1.06,0,0,0,.47.34,3.8,3.8,0,0,0,.79.21l1.12.19a14.34,14.34,0,0,1,1.6.34,4.15,4.15,0,0,1,1.23.56,2.4,2.4,0,0,1,.8.92,3.14,3.14,0,0,1,.28,1.4A2.68,2.68,0,0,1,108.67,24.81ZM119.5,18h-3.43v8.18h-1.78V18h-3.37V16.4h8.58Zm10.7,4.46a6,6,0,0,1-.22,1.72,2.81,2.81,0,0,1-.71,1.21,3,3,0,0,1-1.26.71,6.49,6.49,0,0,1-1.87.23,4.59,4.59,0,0,1-3.11-.93,3.84,3.84,0,0,1-1.06-3v-6h1.78v6.3a1.9,1.9,0,0,0,.62,1.64,2.94,2.94,0,0,0,1.75.46,2.61,2.61,0,0,0,1.72-.48,2.15,2.15,0,0,0,.57-1.7V16.4h1.78Zm11.4.68a4.16,4.16,0,0,1-.75,1.57,3.64,3.64,0,0,1-1.4,1.07,5.34,5.34,0,0,1-2.2.4h-3.91V16.4h3.93a4.93,4.93,0,0,1,2,.38,3.89,3.89,0,0,1,1.42,1,4.38,4.38,0,0,1,.84,1.55,6.32,6.32,0,0,1,.28,1.9A7.81,7.81,0,0,1,141.6,23.15Zm7.37-.73v3.77h-1.78V22.56l-3.55-6.16h2.07l2.38,4.26,2.31-4.26h1.92ZM137.36,18h-2.24v6.63h2.25a2.43,2.43,0,0,0,2-.83,3.83,3.83,0,0,0,.7-2.53,3.73,3.73,0,0,0-.7-2.41A2.39,2.39,0,0,0,137.36,18Z" transform="translate(23.38 67.62)" style="fill: #fff"/>
  </g>
</svg>
