<?xml version="1.0" encoding="UTF-8"?>
<svg width="87px" height="52px" viewBox="0 0 87 52" version="1.1" xmlns="http://www.w3.org/2000/svg" xmlns:xlink="http://www.w3.org/1999/xlink">
    <!-- Generator: Sketch 46.2 (44496) - http://www.bohemiancoding.com/sketch -->
    <title>Steve Madden Logo</title>
    <desc>Created with Sketch.</desc>
    <defs></defs>
    <g id="CH.me-Design" stroke="none" stroke-width="1" fill="none" fill-rule="evenodd">
        <g id="CH.me-Homepage" transform="translate(-960.000000, -2699.000000)" fill="#FFFFFF">
            <g id="Contents-#3" transform="translate(0.000000, 1673.000000)">
                <g id="Group-11" transform="translate(930.000000, 658.000000)">
                    <g id="Steve-Madden-Logo" transform="translate(30.000000, 368.000000)">
                        <g id="Logo_SteveMadden_Black">
                            <path d="M8.98814894,43.251 C9.71314894,38.3487619 10.438766,33.4459048 11.1736383,28.4761905 L17.2068723,28.4761905 L17.2068723,51.9517143 L13.4794468,51.9517143 L13.4794468,34.6784286 C13.455383,34.6728571 13.4313191,34.6666667 13.4066383,34.6610952 C12.5175106,40.3940952 11.627766,46.1277143 10.7262979,51.9380952 L7.05070213,51.9380952 C6.177,46.3041429 5.29897872,40.6460476 4.42157447,34.9873333 C4.3907234,34.9879524 4.35987234,34.9885714 4.3296383,34.9891905 L4.3296383,51.9665714 L0.617021277,51.9665714 L0.617021277,28.4916667 L6.59965957,28.4916667 C7.32959574,33.3988571 8.06261702,38.3308095 8.7956383,43.2627619 C8.85980851,43.2590476 8.92397872,43.2547143 8.98814894,43.251" id="Fill-1"></path>
                            <path d="M78.7948511,27.8571429 C78.7948511,27.8571429 79.0027872,28.5195238 79.0607872,28.7095714 C80.1356383,32.253 81.1728511,35.8069524 82.2217872,39.3584286 C82.3124894,39.6667143 82.4062766,39.9737619 82.621,40.273381 L82.621,27.9382381 L86.4119787,27.9382381 L86.4119787,51.4818571 C85.1921277,51.4818571 84.0062128,51.5357143 82.8320213,51.441619 C82.563,51.4199524 82.2069787,50.9284286 82.1064043,50.5891905 C80.9760213,46.7597619 79.8875957,42.9173333 78.7880638,39.078619 C78.6905745,38.74 78.59,38.402 78.4906596,38.064 C78.4499362,38.0831905 78.4092128,38.102381 78.3684894,38.1221905 L78.3684894,51.3927143 L74.6595745,51.3927143 L74.6595745,27.8689048" id="Fill-3"></path>
                            <path d="M11.8366894,7.98385714 L8.04385957,7.98385714 C8.04385957,7.24719048 8.06668936,6.53342857 8.03830638,5.82214286 C7.99017872,4.60261905 7.32996596,3.92971429 6.24462553,3.94828571 C5.06179574,3.96809524 4.59841277,4.52585714 4.4978383,5.82214286 C4.39417872,7.16795238 4.83164681,8.18071429 5.87441277,9.05790476 C7.31577447,10.270619 8.66273191,11.596 10.0374553,12.8867143 C11.4103277,14.1743333 12.0810298,15.756619 12.0063702,17.6570952 C11.9712,18.564 12.0273489,19.474619 11.9878596,20.3815238 C11.8817319,22.8292381 10.316966,24.5539048 7.88713617,24.8108095 C6.9252,24.9123333 5.92685957,24.9049048 4.9704766,24.7693333 C2.4388383,24.4109048 0.814838298,22.7270952 0.590242553,20.2385238 C0.490285106,19.1267143 0.573582979,17.9981905 0.573582979,16.7842381 L4.4312,16.7842381 C4.4312,17.705381 4.39294468,18.6710952 4.44045532,19.6324762 C4.51449787,21.1008571 5.17162553,21.6406667 6.60434894,21.5527619 C7.57122128,21.4939524 8.00745532,20.9968571 8.10802979,20.0472381 C8.34866809,17.7784286 7.92477447,15.8432857 5.94537021,14.377381 C4.70145532,13.455619 3.62968936,12.2930476 2.51349787,11.2047619 C1.44111489,10.1598095 0.800029787,8.80904762 0.648242553,7.31961905 C0.576051064,6.60647619 0.624178723,5.90757143 0.688965957,5.19814286 C0.779668085,4.19342857 0.925285106,3.24938095 1.5515617,2.4297619 C3.16137021,0.321285714 6.78328511,0.065 9.06811489,1.0647619 C9.69624255,1.33961905 10.2762426,1.73828571 10.7161787,2.26942857 C10.7180298,2.27066667 10.7186468,2.27252381 10.7198809,2.27438095 C11.2844553,2.95904762 11.6299872,3.9247619 11.7953489,4.81433333 C11.9779872,5.79552381 11.8366894,6.8367619 11.8366894,7.98385714" id="Fill-5"></path>
                            <path d="M47.2015106,24.5778 C45.8002553,24.5778 44.5008085,24.6093714 43.2050638,24.5505619 C42.9601064,24.539419 42.5584255,24.1995619 42.5189362,23.9630857 C41.2608298,16.3698476 40.0391277,8.77041905 38.8131064,1.17160952 C38.8081702,1.14251429 38.8334681,1.10846667 38.8661702,1.01622857 L42.8107872,1.01622857 C43.4784043,6.1425619 44.1423191,11.240419 44.806234,16.3376571 C44.8697872,16.3388952 44.9327234,16.3395143 44.9962766,16.3407524 C45.6601915,11.2428952 46.3234894,6.1450381 46.9923404,1.00818095 L51.0449362,1.00818095 C49.765234,8.85646667 48.4960213,16.6434667 47.2015106,24.5778" id="Fill-7"></path>
                            <polygon id="Fill-9" points="62.755383 4.27074762 56.9399574 4.27074762 56.9399574 9.91522381 61.420766 9.91522381 61.420766 13.2487952 56.9084894 13.2487952 56.9084894 21.2128429 63.277383 21.2128429 63.277383 24.5185571 53.0749362 24.5185571 53.0749362 1.04612857 62.755383 1.04612857"></polygon>
                            <polygon id="Fill-11" points="31.2125766 4.24419048 31.2125766 9.85895238 35.6921511 9.85895238 35.6921511 13.1987143 31.2508319 13.1987143 31.2508319 21.2042381 37.574683 21.2042381 37.574683 24.4938571 27.3747043 24.4938571 27.3747043 1.03752381 37.0748957 1.03752381 37.0748957 4.24419048"></polygon>
                            <polygon id="Fill-13" points="62.3191489 28.4761905 71.9798511 28.4761905 71.9798511 31.7181429 66.1940426 31.7181429 66.1940426 37.3452857 70.6477021 37.3452857 70.6477021 40.6881429 66.1915745 40.6881429 66.1915745 48.711 72.5271489 48.711 72.5271489 51.9900952 62.3191489 51.9900952"></polygon>
                            <path d="M21.333634,24.5793476 C20.2168255,24.5793476 19.3147404,24.5824429 18.4120383,24.5781095 C18.1288255,24.5762524 17.8456128,24.5539667 17.4346766,24.5360143 L17.4346766,4.29315714 L13.3722085,4.29315714 L13.3722085,1.02768095 L25.2455489,1.02768095 L25.2455489,4.2393 L21.333634,4.2393 L21.333634,24.5793476 Z" id="Fill-15"></path>
                            <path d="M42.3264255,44.8180716 C42.3239574,47.9733573 41.6526383,48.5534049 38.4175957,48.125643 L38.4175957,31.3358335 C38.5280426,31.2764049 38.5872766,31.2182144 38.6502128,31.2145002 C42.0462979,31.030643 42.3264255,31.2955954 42.3270426,34.683643 C42.3270426,38.0617859 42.3288936,41.4399287 42.3264255,44.8180716 M46.1883617,32.3535478 C46.1661489,29.7888335 44.7204681,28.0121668 42.4769787,27.9149763 C39.875617,27.8023097 37.265617,27.8889763 34.5531915,27.8889763 L34.5531915,51.3824525 C34.7234894,51.4245478 34.8252979,51.4728335 34.9271064,51.4728335 C37.1736809,51.4784049 39.4208723,51.5105954 41.6668298,51.4722144 C44.0275532,51.4325954 45.5917021,50.0638811 46.0421277,47.7183097 C46.1241915,47.2917859 46.1920638,46.8541192 46.1932979,46.422024 C46.2037872,41.7321192 46.2284681,37.0422144 46.1883617,32.3535478" id="Fill-17"></path>
                            <path d="M55.8996596,45.794013 C55.8564681,47.7025368 55.2925106,48.2206796 53.3760426,48.2324415 C52.9484468,48.2349177 52.5208511,48.2330606 52.0050213,48.2330606 L52.0050213,31.2135844 C52.8324468,31.2135844 53.6228511,31.156632 54.4002979,31.2278225 C55.4029574,31.3188225 55.8916383,31.9818225 55.9064468,33.262013 C55.9342128,35.6961082 55.9194043,38.1295844 55.9187872,40.5636796 C55.9181702,42.3069177 55.9391489,44.0513939 55.8996596,45.794013 M59.7443191,31.9595368 C59.6955745,29.3997749 57.9969149,27.8979654 55.4547872,27.8701082 C53.2810213,27.8459654 51.1060213,27.8614415 48.9322553,27.8694892 C48.660766,27.8707273 48.3886596,27.9357273 48.1276596,27.9703939 L48.1276596,51.488013 C50.3841064,51.488013 52.5831702,51.4948225 54.782234,51.4861558 C57.8371064,51.4743939 59.6764468,49.8617749 59.7437021,46.7906796 C59.8522979,41.8488225 59.8399574,36.902013 59.7443191,31.9595368" id="Fill-19"></path>
                            <path d="M24.2224043,43.745 C24.7252766,40.7481905 25.2151915,37.8269048 25.7051064,34.9062381 C25.7661915,34.9068571 25.8266596,34.9080952 25.8865106,34.9087143 C26.3745745,37.8256667 26.8620213,40.742 27.3648936,43.745 L24.2224043,43.745 Z M28.1608511,27.8707619 C26.8706596,27.8707619 24.4908085,27.8571429 24.4908085,27.8571429 L23.4153404,27.8571429 L23.2252979,28.873619 C23.2252979,28.873619 21.1200213,40.4374286 20.0587447,46.2180952 C19.7422128,47.9421429 19.4423404,49.6692857 19.1276596,51.4348095 L23.083383,51.4348095 C23.3215532,49.9961429 23.5510851,48.6088571 23.7855532,47.1955714 L27.8029787,47.1955714 C28.0454681,48.6379524 28.2824043,50.0469048 28.5150213,51.427381 L32.480617,51.427381 C31.0343191,43.5438095 29.6040638,35.7400952 28.1608511,27.8707619 L28.1608511,27.8707619 Z" id="Fill-21"></path>
                        </g>
                    </g>
                </g>
            </g>
        </g>
    </g>
</svg>