<?xml version="1.0" encoding="UTF-8" standalone="no"?>
<svg width="76px" height="81px" viewBox="0 0 76 81" version="1.1" xmlns="http://www.w3.org/2000/svg" xmlns:xlink="http://www.w3.org/1999/xlink">
    <!-- Generator: Sketch 3.8.3 (29802) - http://www.bohemiancoding.com/sketch -->
    <title>Page 1 Copy</title>
    <desc>Created with Sketch.</desc>
    <defs></defs>
    <g id="Page-1" stroke="none" stroke-width="1" fill="none" fill-rule="evenodd">
        <g id="Ecommerce-Survey-Webpage" transform="translate(-366.000000, -6386.000000)" stroke="#32C4F5" stroke-width="2">
            <g id="Group-18" transform="translate(162.000000, 6348.000000)">
                <g id="small_vs_big" transform="translate(205.000000, 0.000000)">
                    <g id="Page-1-Copy" transform="translate(0.000000, 39.000000)">
                        <path d="M38.2383357,78.9984881 C58.0989609,78.937947 74,77.4258086 74,75.5686014 C74,73.9510094 71.9116428,50.9145846 50.0910747,44.1916765 C48.808199,49.8715517 45.2784139,63.6175231 38.2383357,78.9984881 Z M36.4502375,79 C16.2692188,78.9727137 0,77.4471868 0,75.5686014 C0,73.9352615 2.12921698,50.4640189 24.5526157,44 C25.4417921,50.0063035 28.2421204,63.8570949 36.4502375,79 Z" id="Combined-Shape" fill="#32C4F5"></path>
                        <path d="M52,14.80024 C52,24.4653522 45.5078205,35 37.5004795,35 C29.4921795,35 23,24.4653522 23,14.80024 C23,5.13512776 29.4921795,0 37.5004795,0 C45.5078205,0 52,5.13512776 52,14.80024 L52,14.80024 Z" id="Stroke-7" fill="#32C4F5"></path>
                        <path d="M36,52 C36,52 31,63.4784173 31,75" id="Stroke-15" stroke-linejoin="round"></path>
                        <path d="M39,52 C39,52 44,64.573184 44,76" id="Stroke-19" stroke-linejoin="round"></path>
                        <path d="M44,44.0931615 C44,45.2501239 41.0893794,53 37.4993566,53 C33.9093339,53 31,45.2501239 31,44.0931615 C31,42.9361992 33.9093339,42 37.4993566,42 C41.0893794,42 44,42.9361992 44,44.0931615 L44,44.0931615 Z" id="Stroke-31" stroke-linejoin="round" fill="#FFFFFF"></path>
                    </g>
                </g>
            </g>
        </g>
    </g>
</svg>