<?xml version="1.0" encoding="UTF-8" standalone="no"?>
<svg width="204px" height="170px" viewBox="0 0 204 170" version="1.1" xmlns="http://www.w3.org/2000/svg" xmlns:xlink="http://www.w3.org/1999/xlink">
    <!-- Generator: Sketch 3.8.3 (29802) - http://www.bohemiancoding.com/sketch -->
    <title>stale_computer</title>
    <desc>Created with Sketch.</desc>
    <defs>
        <rect id="path-1" x="0" y="0" width="176" height="104"></rect>
        <rect id="path-3" x="0" y="0" width="22.2601118" height="9"></rect>
        <mask id="mask-4" maskContentUnits="userSpaceOnUse" maskUnits="objectBoundingBox" x="0" y="0" width="22.2601118" height="9" fill="white">
            <use xlink:href="#path-3"></use>
        </mask>
    </defs>
    <g id="Page-1" stroke="none" stroke-width="1" fill="none" fill-rule="evenodd">
        <g id="Ecommerce-Survey-Webpage" transform="translate(-502.000000, -6855.000000)">
            <g id="Group-5" transform="translate(502.000000, 6853.000000)">
                <g id="stale_computer" transform="translate(0.000000, 2.000000)">
                    <g id="Group-19" fill="#32C4F5">
                        <path d="M0,0.994957777 C0,0.44545777 0.449239254,0 1.00140435,0 L202.998596,0 C203.551656,0 204,0.456012771 204,0.994957777 L204,140.005042 C204,140.554542 203.550761,141 202.998596,141 L1.00140435,141 C0.448343997,141 0,140.543987 0,140.005042 L0,0.994957777 Z M7.28571429,7.29310345 L196.714286,7.29310345 L196.714286,116.689655 L7.28571429,116.689655 L7.28571429,7.29310345 Z" id="Combined-Shape"></path>
                        <path d="M80.2410923,147 L124.169464,147 C124.169464,147 123.39012,165.533103 133.703546,165.533103 C135.698251,165.533103 135.999338,167.685366 135.999338,167.685366 C135.999338,167.685366 136.096957,169.98875 133.92054,169.98875 L70.5263131,169.98875 C70.5263131,169.98875 68.0000001,170.297086 68,167.685366 C67.9999999,165.073645 70.5263131,165.238781 70.5263131,165.238781 C70.5263131,165.238781 80.2410923,165.238781 80.2410923,147 Z" id="Path-240"></path>
                    </g>
                    <g id="Group-20" transform="translate(14.000000, 13.000000)">
                        <mask id="mask-2" fill="white">
                            <use xlink:href="#path-1"></use>
                        </mask>
                        <g id="Mask"></g>
                        <g mask="url(#mask-2)">
                            <g transform="translate(3.000000, 8.000000)">
                                <g id="Browser" stroke-width="1" fill="none">
                                    <path d="M0,0 L0,16.8834248 L0,20.0178933 L0,141.995258 L169,141.995258 L169,20.0178933 L169,16.8834248 L169,0 L0,0 L0,0 Z M165.62,138.658942 L3.38,138.658942 L3.38,20.2197403 L165.62,20.2197403 L165.62,138.658942 L165.62,138.658942 Z M3.38,3.33631554 L165.62,3.33631554 L165.62,16.6815777 L3.38,16.6815777 L3.38,3.33631554 L3.38,3.33631554 Z M32.9875,8.46527824 L32.9875,12.5351236 L162.175,12.5351236 L162.175,8.46527824 L32.9875,8.46527824 Z M8.53125,12.4937482 C9.6530784,12.4937482 10.5625,11.5826823 10.5625,10.4588255 C10.5625,9.33496876 9.6530784,8.42390285 8.53125,8.42390285 C7.4094216,8.42390285 6.5,9.33496876 6.5,10.4588255 C6.5,11.5826823 7.4094216,12.4937482 8.53125,12.4937482 Z M15.4455501,12.4937482 C16.5673785,12.4937482 17.4768001,11.5826823 17.4768001,10.4588255 C17.4768001,9.33496876 16.5673785,8.42390285 15.4455501,8.42390285 C14.3237217,8.42390285 13.4143001,9.33496876 13.4143001,10.4588255 C13.4143001,11.5826823 14.3237217,12.4937482 15.4455501,12.4937482 Z M22.3598502,12.4937482 C23.4816786,12.4937482 24.3911002,11.5826823 24.3911002,10.4588255 C24.3911002,9.33496876 23.4816786,8.42390285 22.3598502,8.42390285 C21.2380218,8.42390285 20.3286002,9.33496876 20.3286002,10.4588255 C20.3286002,11.5826823 21.2380218,12.4937482 22.3598502,12.4937482 Z" id="Shape" fill="#B6E1EC"></path>
                                </g>
                                <g id="Buttons" stroke-width="1" fill="none" transform="translate(32.000000, 84.000000)">
                                    <g id="Btn-outline">
                                        <use id="Button" stroke="#B6E1EC" mask="url(#mask-4)" stroke-width="2" xlink:href="#path-3"></use>
                                        <rect id="Text" fill="#B6E1EC" x="7.36547818" y="3.4137931" width="7.52915547" height="2.63793103"></rect>
                                    </g>
                                    <g id="Btn-solid" transform="translate(6.697335, 0.000000)">
                                        <rect id="Button" fill="#B6E1EC" x="19" y="0" width="22.2601118" height="9"></rect>
                                        <rect id="Text" fill="#FFFFFF" x="0.365478179" y="15.4137931" width="7.52915547" height="2.63793103"></rect>
                                    </g>
                                </g>
                                <path d="M32,70 L32,72.7391304 L97,72.7391304 L97,70 L32,70 Z M32,74.2608696 L32,77 L80.75,77 L80.75,74.2608696 L32,74.2608696 Z" id="Text" fill="#B6E1EC"></path>
                                <rect id="Heading" fill="#B6E1EC" x="32" y="60" width="71" height="6"></rect>
                                <g id="Menu" stroke-width="1" fill="none" transform="translate(9.000000, 26.000000)">
                                    <g id="Button" transform="translate(130.938516, 1.787500)">
                                        <rect fill="#B6E1EC" x="0" y="0" width="22.0214838" height="9.425"></rect>
                                        <rect id="Text" fill="#FFFFFF" x="7.28652038" y="3.575" width="7.44844305" height="2.7625"></rect>
                                    </g>
                                    <path d="M75.722884,5.3625 L75.722884,8.125 L83.1713271,8.125 L83.1713271,5.3625 L75.722884,5.3625 Z M94.667837,5.3625 L94.667837,8.125 L102.11628,8.125 L102.11628,5.3625 L94.667837,5.3625 Z M113.61279,5.3625 L113.61279,8.125 L121.061233,8.125 L121.061233,5.3625 L113.61279,5.3625 Z" fill="#B6E1EC"></path>
                                    <ellipse id="Oval-1" fill="#B6E1EC" cx="6.476907" cy="6.5" rx="6.476907" ry="6.5"></ellipse>
                                </g>
                            </g>
                        </g>
                    </g>
                    <g id="Group-25-Copy" transform="translate(36.304027, 36.304027) rotate(-16.000000) translate(-36.304027, -36.304027) translate(11.804027, 11.804027)">
                        <ellipse id="Oval-50" fill="#32C4F5" cx="24.461712" cy="24.461712" rx="24.461712" ry="24.461712"></ellipse>
                        <path d="M11,34 L37.4300003,34" id="Path-215-Copy" stroke="#19748F" stroke-width="2" transform="translate(24.215000, 34.000000) scale(-1, 1) translate(-24.215000, -34.000000) "></path>
                        <g id="Group-25" transform="translate(10.000000, 19.000000)" stroke="#19748F" stroke-width="2">
                            <path d="M0.326372026,1.34275201 L11.326372,1.34275201" id="Path-215" transform="translate(5.826372, 1.342752) scale(-1, 1) translate(-5.826372, -1.342752) "></path>
                            <path d="M17.326372,1.34275201 L28.326372,1.34275201" id="Path-215" transform="translate(22.826372, 1.342752) scale(-1, 1) translate(-22.826372, -1.342752) "></path>
                        </g>
                    </g>
                </g>
            </g>
        </g>
    </g>
</svg>