<svg width="632px" height="39px" viewBox="0 0 632 39" version="1.1" xmlns="http://www.w3.org/2000/svg" xmlns:xlink="http://www.w3.org/1999/xlink">
    <g id="CH.me-Design" stroke="none" stroke-width="1" fill="none" fill-rule="evenodd">
        <g id="CH.me-Homepage" transform="translate(-397.000000, -4602.000000)" stroke="#FFFFFF" stroke-width="2">
            <g id="Contents-#3" transform="translate(0.000000, 4137.000000)">
                <g id="Group-12" transform="translate(0.000000, 330.000000)">
                    <g id="Group-51" transform="translate(408.440745, 152.643116) rotate(-15.000000) translate(-408.440745, -152.643116) translate(400.440745, 132.643116)">
                        <path d="M2.44280674,0.657785549 C-2.69872432,17.5770377 0.952294007,29.4419568 13.3958617,36.2525429" id="Path-20"></path>
                        <polyline id="Path-30" points="3.25054353 39.7005348 15.2705695 36.0706047 11.2151943 23.4271141"></polyline>
                    </g>
                    <g id="Group-53" transform="translate(770.915923, 137.085600)">
                        <path d="M19.0283873,0.429813891 C14.6188308,15.3222844 8.58151639,25.4829299 0.916443969,30.9117504" id="Path-23"></path>
                        <polyline id="Path-24" points="0.544553663 19.7172282 2.26675996 31.0162997 19.3781413 24.9292057"></polyline>
                    </g>
                    <g id="Group-52" transform="translate(1004.392199, 137.085600)">
                        <polyline id="Path-32" points="1.92586051 21.8779143 1.67350638 32.5884118 18.8512967 31.2873535"></polyline>
                        <path d="M23.0439172,0 C21.6330952,18.6898052 13.9517895,29.5474462 0,32.572923" id="Path-31"></path>
                    </g>
                </g>
            </g>
        </g>
    </g>
</svg>
