<svg width="130px" height="20px" viewBox="0 0 130 20" version="1.1" xmlns="http://www.w3.org/2000/svg" xmlns:xlink="http://www.w3.org/1999/xlink">
    <title>Clearhead</title>
    <g id="CH.me-Design" stroke="none" stroke-width="1" fill="none" fill-rule="evenodd">
        <g id="CH.me-Homepage" transform="translate(-150.000000, -6220.000000)" fill="#313335">
            <g id="Footer-#2" transform="translate(0.000000, 6191.000000)">
                <path d="M272.533081,38.6575496 C270.683665,38.6575496 269.901339,39.3424504 269.901339,41.7399762 C269.901339,44.2738858 270.683665,44.8905947 272.533081,44.8905947 C274.097346,44.8905947 275.448425,43.8628708 275.448425,41.7399762 C275.448425,39.9587867 274.452913,38.6575496 272.533081,38.6575496 L272.533081,38.6575496 Z M270.683665,34.9591593 C273.244216,34.9591593 274.452913,35.8493814 275.448425,37.082054 L275.448425,29 L280,29 L280,48.5889849 L275.448425,48.5889849 L275.448425,46.6028469 C274.452913,48.3836637 273.244216,49 270.683665,49 C266.914803,49 264.852202,46.2600238 264.852202,41.7399762 C264.852202,37.4245044 267.341562,34.9591593 270.683665,34.9591593 L270.683665,34.9591593 Z M255.749439,38.6575496 C254.113983,38.6575496 253.118084,39.3424504 253.118084,41.7399762 C253.118084,44.2738858 254.113983,44.8905947 255.749439,44.8905947 C257.313704,44.8905947 257.954035,43.8628708 257.954035,41.7399762 C257.954035,39.9587867 257.313704,38.6575496 255.749439,38.6575496 L255.749439,38.6575496 Z M264.425443,45.575123 L264.852202,45.575123 L264.070262,48.5889849 C263.501122,48.5889849 262.861178,49 261.865279,49 C260.656581,49 259.020738,48.3836637 257.954035,46.6028469 C257.313704,48.3836637 256.033816,49 254.113983,49 C250.273543,49 247.926565,46.2600238 247.926565,41.7399762 C247.926565,37.4245044 250.700302,34.9591593 254.113983,34.9591593 C256.460574,34.9591593 257.740463,35.8493814 257.954035,37.082054 L257.954035,35.2330452 L263.216745,35.2330452 L263.216745,44.6849009 C263.216745,45.575123 263.501122,45.7808168 264.070262,45.7808168 C264.425443,45.7808168 264.425443,45.7808168 264.425443,45.575123 L264.425443,45.575123 Z M239.74851,38.6575496 C238.468235,38.6575496 237.330341,39 236.761588,40.575123 L242.664242,40.575123 C242.095102,39 241.597539,38.6575496 239.74851,38.6575496 L239.74851,38.6575496 Z M243.161805,43.8628708 L247.357812,44.8905947 C246.006732,47.8355195 243.446181,49 239.74851,49 C235.552503,49 232.210013,46.6028469 232.210013,42.1502459 C232.210013,37.4245044 235.552503,34.9591593 239.74851,34.9591593 C243.161805,34.9591593 247.357812,36.5342823 247.357812,41.7399762 L247.357812,43.0412133 L236.761588,43.0412133 C237.330341,44.6849009 238.468235,45.575123 239.74851,45.575123 C241.597539,45.575123 242.095102,44.8905947 243.161805,43.8628708 L243.161805,43.8628708 Z M216.635843,29 L221.187418,29 L221.187418,37.4245044 C222.182543,35.8493814 223.818386,34.9591593 226.236555,34.9591593 C228.938714,34.9591593 230.930125,36.2603965 230.930125,39.3424504 L230.930125,48.5889849 L225.952178,48.5889849 L225.952178,40.917946 C225.952178,39.9587867 225.383038,38.6575496 224.387139,38.6575496 C222.182543,38.6575496 221.187418,39.9587867 221.187418,42.7669548 L221.187418,48.5889849 L216.635843,48.5889849 L216.635843,29 Z M205.257293,35.2330452 L210.30643,35.2330452 L210.022054,37.082054 C210.875184,35.8493814 212.227037,34.9591593 213.435735,34.9591593 C214.715623,34.9591593 215.355954,35.2330452 215.995899,35.8493814 L213.790915,39.9587867 C213.435735,39.3424504 213.008976,39 212.227037,39 C210.875184,39 210.30643,39.9587867 210.30643,41.7399762 L210.30643,48.5889849 L205.257293,48.5889849 L205.257293,35.2330452 Z M195.301014,38.6575496 C193.736362,38.6575496 192.74085,39.3424504 192.74085,41.7399762 C192.74085,44.2738858 193.736362,44.8905947 195.301014,44.8905947 C196.936857,44.8905947 198.145554,43.8628708 198.145554,41.7399762 C198.145554,39.9587867 196.936857,38.6575496 195.301014,38.6575496 L195.301014,38.6575496 Z M204.688153,45.575123 L203.763832,48.5889849 C203.408264,48.5889849 202.412752,49 201.70123,49 C200.421342,49 198.643504,48.3836637 198.145554,46.6028469 C196.936857,48.3836637 195.656581,49 193.736362,49 C190.393871,49 188.189275,46.2600238 188.189275,41.7399762 C188.189275,37.4245044 190.393871,34.9591593 193.736362,34.9591593 C196.225335,34.9591593 197.50561,35.8493814 197.932369,37.082054 L197.932369,35.2330452 L202.910315,35.2330452 L202.910315,44.6849009 C202.910315,45.575123 203.408264,45.7808168 203.763832,45.7808168 C204.048209,45.7808168 204.048209,45.7808168 204.688153,45.575123 L204.688153,45.575123 Z M179.868839,38.6575496 C178.233382,38.6575496 177.237484,39 177.024298,40.575123 L182.357812,40.575123 C182.357812,39 181.433491,38.6575496 179.868839,38.6575496 L179.868839,38.6575496 Z M182.855761,43.8628708 L186.909386,44.8905947 C185.700302,47.8355195 183.28252,49 179.868839,49 C175.388455,49 172.330341,46.6028469 172.330341,42.1502459 C172.330341,37.4245044 175.388455,34.9591593 179.868839,34.9591593 C182.855761,34.9591593 186.909386,36.5342823 186.909386,41.7399762 L186.909386,43.0412133 L177.024298,43.0412133 C177.024298,44.6849009 178.233382,45.575123 179.868839,45.575123 C181.219918,45.575123 182.357812,44.8905947 182.855761,43.8628708 L182.855761,43.8628708 Z M165.645748,48.5893576 L170.694885,48.5893576 L170.694885,29 L165.645748,29 L165.645748,48.5893576 Z M157.609688,34.9591593 C161.165364,34.9591593 163.085584,36.2603965 164.365472,39 L160.738606,40.917946 C159.814285,39.3424504 159.458717,38.6575496 157.609688,38.6575496 C155.902654,38.6575496 155.26271,39.9587867 155.26271,41.7399762 C155.26271,44.2738858 155.902654,45.575123 157.609688,45.575123 C158.889577,45.575123 160.169852,44.6849009 160.738606,43.0412133 L164.365472,44.6849009 C163.512342,47.3563124 161.165364,49 157.609688,49 C153.627254,49 150,46.6028469 150,42.1502459 C150,37.4245044 153.058113,34.9591593 157.609688,34.9591593 L157.609688,34.9591593 Z" id="Fill-4"></path>
            </g>
        </g>
    </g>
</svg>
