<svg width="27px" height="23px" viewBox="0 0 27 23" version="1.1" xmlns="http://www.w3.org/2000/svg" xmlns:xlink="http://www.w3.org/1999/xlink">
    <title>LinkedIn Logo</title>
    <defs>
        <polygon id="path-1" points="22.6052791 22.9616667 0 22.9616667 0 11.4808333 0 0 22.6052791 0"></polygon>
    </defs>
    <g id="CH.me-Design" stroke="none" stroke-width="1" fill="none" fill-rule="evenodd">
        <g id="CH.me-Homepage" transform="translate(-236.000000, -6287.000000)">
            <g id="Footer-#2" transform="translate(0.000000, 6191.000000)">
                <g id="Social" transform="translate(150.000000, 96.000000)">
                    <g id="LinkedIn-Logo" transform="translate(86.000000, 0.000000)">
                        <g id="In-Black-0p5in-TM">
                            <g id="Group-3">
                                <mask id="mask-2" fill="white">
                                    <use xlink:href="#path-1"></use>
                                </mask>
                                <g id="Clip-2"></g>
                                <path d="M19.2610465,19.5985556 L15.9111628,19.5985556 L15.9111628,14.2612778 C15.9111628,12.9886111 15.8873023,11.3511389 14.1687209,11.3511389 C12.4237674,11.3511389 12.1575349,12.7368889 12.1575349,14.1692778 L12.1575349,19.5985556 L8.80890698,19.5985556 L8.80890698,8.62308333 L12.0225349,8.62308333 L12.0225349,10.1225556 L12.069,10.1225556 C12.5160698,9.25941667 13.6105116,8.34963889 15.241186,8.34963889 C18.6337674,8.34963889 19.2610465,10.6221667 19.2610465,13.5783056 L19.2610465,19.5985556 Z M5.02890698,7.12169444 C3.9514186,7.12169444 3.08365116,6.23555556 3.08365116,5.14369444 C3.08365116,4.05311111 3.9514186,3.16633333 5.02890698,3.16633333 C6.10137209,3.16633333 6.97227907,4.05311111 6.97227907,5.14369444 C6.97227907,6.23555556 6.10137209,7.12169444 5.02890698,7.12169444 Z M3.34988372,19.5985556 L6.70604651,19.5985556 L6.70604651,8.62308333 L3.34988372,8.62308333 L3.34988372,19.5985556 Z M20.9306512,0 L1.66709302,0 C0.747209302,0 0,0.742388889 0,1.65727778 L0,21.3401667 C0,22.2563333 0.747209302,23 1.66709302,23 L20.9306512,23 C21.8524186,23 22.6052791,22.2563333 22.6052791,21.3401667 L22.6052791,1.65727778 C22.6052791,0.742388889 21.8524186,0 20.9306512,0 L20.9306512,0 Z" id="Fill-1" fill="#313335" mask="url(#mask-2)"></path>
                            </g>
                            <polyline id="Fill-4" fill="#1A1919" points="23.5678605 18.2230278 24.0017442 18.2230278 24.0017442 19.5985556 24.2378372 19.5985556 24.2378372 18.2230278 24.6698372 18.2230278 24.6698372 17.9834444 23.5678605 17.9834444 23.5678605 18.2230278"></polyline>
                            <polyline id="Fill-5" fill="#1A1919" points="26.2025581 17.9834444 25.7397907 19.1692222 25.2770233 17.9834444 24.9417209 17.9834444 24.9417209 19.5985556 25.1759302 19.5985556 25.1759302 18.3699722 25.6613023 19.5985556 25.8182791 19.5985556 26.3036512 18.3699722 26.3036512 19.5985556 26.5384884 19.5985556 26.5384884 17.9834444 26.2025581 17.9834444"></polyline>
                        </g>
                    </g>
                </g>
            </g>
        </g>
    </g>
</svg>
