<?xml version="1.0" encoding="UTF-8"?>
<svg width="138px" height="20px" viewBox="0 0 138 20" version="1.1" xmlns="http://www.w3.org/2000/svg" xmlns:xlink="http://www.w3.org/1999/xlink">
    <!-- Generator: Sketch 46.2 (44496) - http://www.bohemiancoding.com/sketch -->
    <title>monetate-logo-no-tagline-black</title>
    <desc>Created with Sketch.</desc>
    <defs>
        <polygon id="path-1" points="137.80519 9.87916667 137.80519 19.7583333 0 19.7583333 0 9.87916667 0 0 137.80519 0"></polygon>
    </defs>
    <g id="CH.me-Design" stroke="none" stroke-width="1" fill="none" fill-rule="evenodd" opacity="0.5">
        <g id="CH.me-Homepage" transform="translate(-317.000000, -3943.000000)">
            <g id="Group-16" transform="translate(0.000000, 3021.000000)">
                <g id="monetate-logo-no-tagline-black" transform="translate(317.000000, 922.000000)">
                    <path d="M22.1125834,10.0286022 C22.1125834,8.20313119 22.056061,6.6771515 22,5.35938961 L25.6165106,5.35938961 L25.7835401,7.33555707 L25.8670548,7.33555707 C26.4553492,6.37718478 27.6884603,5 30.0151067,5 C31.8074435,5 33.1805917,5.98832142 33.7695781,7.51430111 L33.8258698,7.51430111 C34.3581032,6.73538593 34.9463975,6.13711633 35.6195908,5.71759076 C36.3758374,5.26954221 37.2165216,5 38.2263115,5 C40.8591018,5 42.8489209,6.97545439 42.8489209,11.3770263 L42.8489209,20 L38.7022532,20 L38.7022532,12.0354319 C38.7022532,9.90975645 38.0574365,8.68207964 36.6824426,8.68207964 C35.674729,8.68207964 35.0026892,9.40038348 34.6946998,10.2693837 C34.6116465,10.5981111 34.5535092,11.0485366 34.5535092,11.4371623 L34.5535092,20 L30.4068415,20 L30.4068415,11.7639881 C30.4068415,9.93851712 29.7897092,8.68207964 28.4167917,8.68207964 C27.3241792,8.68207964 26.6807466,9.58055366 26.4269726,10.2993329 C26.2878583,10.6582471 26.2592511,11.0758711 26.2592511,11.4656853 L26.2592511,20 L22.1125834,20 L22.1125834,10.0286022" id="Fill-1" fill="#313335"></path>
                    <path d="M48.5765514,12.4984882 C48.5765514,14.9606159 49.5957488,16.8054673 51.4894694,16.8054673 C53.2397154,16.8054673 54.3174543,15.0773727 54.3174543,12.4703456 C54.3174543,10.3617447 53.5005129,8.19313724 51.4894694,8.19313724 C49.3910936,8.19313724 48.5765514,10.3903524 48.5765514,12.4984882 Z M58.8920863,12.3535888 C58.8920863,17.5964833 55.1912577,20 51.3735861,20 C47.2058653,20 44,17.2441195 44,12.6171057 C44,7.95753027 47.0302409,5 51.6355832,5 C55.9762892,5 58.8920863,8.01614129 58.8920863,12.3535888 L58.8920863,12.3535888 Z" id="Fill-2" fill="#313335"></path>
                    <path d="M60.1110259,10.0091293 C60.1110259,8.18009336 60.0553994,6.65113362 60,5.3307983 L63.6388789,5.3307983 L63.833231,7.3703639 L63.9147408,7.3703639 C64.4678267,6.41012003 65.8171658,5 68.0805953,5 C70.8383056,5 72.9064748,7.01003429 72.9064748,11.3294646 L72.9064748,20 L68.7138288,20 L68.7138288,11.8696018 C68.7138288,9.98031246 68.108522,8.69069923 66.5904872,8.69069923 C65.4323215,8.69069923 64.7436886,9.56020577 64.4396729,10.4006573 C64.3288741,10.6995427 64.3014015,11.1198876 64.3014015,11.5392798 L64.3014015,20 L60.1110259,20 L60.1110259,10.0091293" id="Fill-3" fill="#313335"></path>
                    <g id="Group-9" transform="translate(73.467626, 0.000000)" fill="#313335">
                        <path d="M9.18072302,9.92870588 C9.18072302,8.83152941 8.72833619,6.99341176 6.74427345,6.99341176 C4.93145978,6.99341176 4.19373561,8.74164706 4.07988065,9.92870588 L9.18072302,9.92870588 Z M4.10881101,13.0098824 C4.22266597,14.8762353 6.00841576,15.7656471 8.02070892,15.7656471 C9.49312424,15.7656471 10.6830019,15.5576471 11.8451158,15.1430588 L12.4120576,18.1957647 C10.9954032,18.8183529 9.26798072,19.1155294 7.39683971,19.1155294 C2.69122338,19.1155294 0,16.2705882 0,11.7338824 C0,8.06023529 2.18214237,4 6.99951388,4 C11.4781202,4 13.1766123,7.64494118 13.1766123,11.2312941 C13.1766123,12.0002353 13.0928542,12.6825882 13.0359268,13.0098824 L4.10881101,13.0098824 L4.10881101,13.0098824 Z" id="Fill-4"></path>
                        <path d="M20.0651099,0 L20.0651099,4.11905882 L23.1538924,4.11905882 L23.1538924,7.61411765 L20.0651099,7.61411765 L20.0651099,13.1374118 C20.0651099,14.9778824 20.4894996,15.8204706 21.7654685,15.8204706 C22.3590075,15.8204706 22.6424783,15.7889412 23.0398042,15.6962353 L23.0687345,19.2837647 C22.5300232,19.5030588 21.4819976,19.6912941 20.2916533,19.6912941 C18.9013629,19.6912941 17.7413488,19.1611765 17.0316217,18.3788235 C16.2388365,17.4750588 15.8415107,16.008 15.8415107,13.8557647 L15.8415107,7.61411765 L14,7.61411765 L14,4.11905882 L15.8415107,4.11905882 L15.8415107,1.27882353 L20.0651099,0" id="Fill-6"></path>
                        <path d="M32.2733829,12.0009412 C30.006316,12.0009412 28.2492632,12.5649412 28.2492632,14.2828235 C28.2492632,15.4388235 28.9869874,16.0037647 29.950555,16.0037647 C30.9974141,16.0037647 31.9047542,15.2618824 32.1896249,14.3432941 C32.2451525,14.1051765 32.2733829,13.8383529 32.2733829,13.5736471 L32.2733829,12.0009412 Z M36.4388881,15.3510588 C36.4388881,16.7143529 36.4972155,18.0477647 36.6651982,18.8472941 L32.7847971,18.8472941 L32.5286234,17.3962353 L32.4429988,17.3962353 C31.5375253,18.5522353 30.1204042,19.1748235 28.4751067,19.1748235 C25.669795,19.1748235 24,17.0402353 24,14.7282353 C24,10.9651765 27.2294681,9.18635294 32.1305976,9.18635294 L32.1305976,9.00894118 C32.1305976,8.20941176 31.7351383,7.11223529 29.6101567,7.11223529 C28.1923358,7.11223529 26.6912234,7.61529412 25.7838833,8.20941176 L24.9910981,5.30447059 C25.9532659,4.74070588 27.8533373,4 30.3747114,4 C34.9944699,4 36.4388881,6.84541176 36.4388881,10.2832941 L36.4388881,15.3510588 L36.4388881,15.3510588 Z" id="Fill-7"></path>
                        <path d="M43.0632435,0 L43.0632435,4.11905882 L46.152026,4.11905882 L46.152026,7.61411765 L43.0632435,7.61411765 L43.0632435,13.1374118 C43.0632435,14.9778824 43.4887997,15.8204706 44.7654685,15.8204706 C45.3604073,15.8204706 45.6420117,15.7889412 46.0379377,15.6962353 L46.0680346,19.2837647 C45.5300232,19.5030588 44.4817643,19.6912941 43.2911867,19.6912941 C41.9027627,19.6912941 40.7406488,19.1611765 40.0316217,18.3788235 C39.2383699,17.4750588 38.8419773,16.008 38.8419773,13.8557647 L38.8419773,7.61411765 L37,7.61411765 L37,4.11905882 L38.8419773,4.11905882 L38.8419773,1.27882353 L43.0632435,0" id="Fill-8"></path>
                    </g>
                    <path d="M129.994085,10.8833922 C129.994085,9.79460158 129.54894,7.97053284 127.607484,7.97053284 C125.830787,7.97053284 125.108226,9.7054062 124.997854,10.8833922 L129.994085,10.8833922 Z M125.025961,13.941019 C125.135648,15.7931072 126.884923,16.6757211 128.855857,16.6757211 C130.298009,16.6757211 131.464116,16.4693109 132.602345,16.0578914 L133.157406,19.0872651 C131.769411,19.7050949 130.07795,20 128.24481,20 C123.637966,20 121,17.176803 121,12.6747716 C121,9.02920253 123.138435,5 127.855651,5 C132.242435,5 133.906475,8.61708255 133.906475,12.1760247 C133.906475,12.9390887 133.823524,13.6162264 133.766624,13.941019 L125.025961,13.941019 L125.025961,13.941019 Z" id="Fill-10" fill="#313335"></path>
                    <g id="Group-14">
                        <mask id="mask-2" fill="white">
                            <use xlink:href="#path-1"></use>
                        </mask>
                        <g id="Clip-12"></g>
                        <path d="M135.82597,3.0597619 L136.05367,3.0597619 C136.31955,3.0597619 136.53621,2.96738095 136.53621,2.74714286 C136.53621,2.54809524 136.39752,2.41690476 136.09162,2.41690476 C135.96512,2.41690476 135.87611,2.43047619 135.82597,2.44452381 L135.82597,3.0597619 Z M135.81355,4.2702381 L135.33285,4.2702381 L135.33285,2.115 C135.52168,2.08904762 135.7871,2.04833333 136.12911,2.04833333 C136.52356,2.04833333 136.70158,2.115 136.84211,2.22190476 C136.96677,2.31357143 137.05578,2.47047619 137.05578,2.6802381 C137.05578,2.94214286 136.86534,3.11309524 136.62545,3.19071429 L136.62545,3.21666667 C136.82808,3.28285714 136.92813,3.45595238 136.99,3.74190476 C137.05578,4.0697619 137.10753,4.18952381 137.14479,4.2702381 L136.63764,4.2702381 C136.57186,4.18952381 136.53621,4.00571429 136.4725,3.74190476 C136.43639,3.51928571 136.30851,3.415 136.04263,3.415 L135.81355,3.415 L135.81355,4.2702381 Z M134.53245,3.15190476 C134.53245,4.11 135.23027,4.87142857 136.15556,4.87142857 C137.05578,4.88619048 137.74118,4.11 137.74118,3.1652381 C137.74118,2.20738095 137.05578,1.43309524 136.12911,1.43309524 C135.23027,1.43309524 134.53245,2.20738095 134.53245,3.15190476 Z M138.27156,3.15190476 C138.27156,4.35904762 137.33339,5.31714286 136.14245,5.31714286 C134.95082,5.31714286 134,4.35904762 134,3.15190476 C134,1.9452381 134.95082,1 136.15556,1 C137.33339,1 138.27156,1.9452381 138.27156,3.15190476 L138.27156,3.15190476 Z" id="Fill-11" fill="#313335" mask="url(#mask-2)"></path>
                        <path d="M15.60159,13.3290476 C14.85846,15.2321429 13.99205,15.1266667 13.99205,15.1266667 C12.21231,15.1266667 12.13733,12.4402381 12.1348,12.0488095 L12.1348,12.047381 C12.13733,11.6557143 12.21231,8.96928571 13.99205,8.96928571 C13.99205,8.96928571 14.85846,8.86285714 15.60159,10.7688095 C15.60159,10.7688095 15.88219,10.9845238 16.18441,10.8714286 L16.18441,7.35 C16.18441,6.02166667 15.08984,4.94595238 13.74089,4.94595238 L10.235,4.94595238 C10.23155,4.945 10.22902,4.94333333 10.22902,4.94333333 C8.87501,4.54047619 9.51832,3.7397619 9.51832,3.7397619 C11.64168,2.93690476 11.52231,2.00309524 11.52231,2.00309524 C11.52231,0.0821428571 8.52863,0.00142857143 8.09278,0 L8.09094,0 C7.65601,0.00142857143 4.6621,0.0821428571 4.6621,2.00309524 C4.6621,2.00309524 4.54342,2.93690476 6.66586,3.7397619 C6.66586,3.7397619 7.30825,4.54047619 5.9593,4.94333333 C5.9593,4.94333333 5.95332,4.945 5.95033,4.94595238 L2.44283,4.94595238 C1.09388,4.94595238 0,6.02166667 0,7.35 L0,10.7954762 C0.34868,11.052619 0.71875,10.7688095 0.71875,10.7688095 C1.46188,8.86285714 2.32852,8.97047619 2.32852,8.97047619 C4.10826,8.97047619 4.18324,11.6557143 4.18508,12.047381 L4.18508,12.0488095 C4.18324,12.4402381 4.10826,15.1266667 2.32852,15.1266667 C2.32852,15.1266667 1.46188,15.2333333 0.71875,13.3290476 C0.71875,13.3290476 0.34868,13.0438095 0,13.3007143 L0,17.3690476 C0,18.6959524 1.09388,19.772619 2.44283,19.772619 L6.93634,19.772619 C7.10746,19.4697619 6.86895,19.1685714 6.86895,19.1685714 C5.04827,18.4797619 5.14993,17.8528571 5.14993,17.8528571 C5.14993,16.2052381 7.71834,16.1354762 8.09094,16.1345238 L8.09255,16.1345238 C8.4663,16.1354762 11.03379,16.2052381 11.03379,17.8528571 C11.03379,17.8528571 11.13614,18.4797619 9.31523,19.1685714 C9.31523,19.1685714 9.07649,19.4697619 9.24853,19.772619 L13.74089,19.772619 C15.08984,19.772619 16.18441,18.6959524 16.18441,17.3690476 L16.18441,13.2247619 C15.88219,13.1121429 15.60159,13.3290476 15.60159,13.3290476" id="Fill-13" fill="#313335" mask="url(#mask-2)"></path>
                    </g>
                </g>
            </g>
        </g>
    </g>
</svg>